<?xml version="1.0" encoding="UTF-8" standalone="no"?>
<!DOCTYPE svg PUBLIC "-//W3C//DTD SVG 1.1//EN"
 "http://www.w3.org/Graphics/SVG/1.1/DTD/svg11.dtd">
<!-- Generated by graphviz version 2.40.1 (20161225.0304)
 -->
<!-- Title: time.h Pages: 1 -->
<svg width="1048pt" height="1036pt"
 viewBox="0.00 0.00 1047.50 1036.00" xmlns="http://www.w3.org/2000/svg" xmlns:xlink="http://www.w3.org/1999/xlink">
<g id="graph0" class="graph" transform="scale(1 1) rotate(0) translate(4 1032)">
<title>time.h</title>
<polygon fill="#ffffff" stroke="transparent" points="-4,4 -4,-1032 1043.5,-1032 1043.5,4 -4,4"/>
<!-- Node1 -->
<g id="node1" class="node">
<title>Node1</title>
<polygon fill="#bfbfbf" stroke="#000000" points="198,-1008.5 198,-1027.5 246,-1027.5 246,-1008.5 198,-1008.5"/>
<text text-anchor="middle" x="222" y="-1015.5" font-family="Helvetica,sans-Serif" font-size="10.00" fill="#000000">time.h</text>
</g>
<!-- Node2 -->
<g id="node2" class="node">
<title>Node2</title>
<g id="a_node2"><a xlink:href="arch_2arm32-linux_2odp_2api_2abi_2time_8h_source.html" target="_top" xlink:title="time.h">
<polygon fill="#ffffff" stroke="#000000" points="0,-952.5 0,-971.5 48,-971.5 48,-952.5 0,-952.5"/>
<text text-anchor="middle" x="24" y="-959.5" font-family="Helvetica,sans-Serif" font-size="10.00" fill="#000000">time.h</text>
</a>
</g>
</g>
<!-- Node1&#45;&gt;Node2 -->
<g id="edge1" class="edge">
<title>Node1&#45;&gt;Node2</title>
<path fill="none" stroke="#191970" d="M188.1836,-1008.81C154.7873,-999.6783 102.2861,-985.1724 57,-972 54.1259,-971.164 51.1156,-970.2731 48.132,-969.3806"/>
<polygon fill="#191970" stroke="#191970" points="187.3367,-1012.2069 197.9055,-1011.4641 189.1803,-1005.454 187.3367,-1012.2069"/>
</g>
<!-- Node3 -->
<g id="node3" class="node">
<title>Node3</title>
<g id="a_node3"><a xlink:href="arch_2arm64-linux_2odp_2api_2abi_2time_8h_source.html" target="_top" xlink:title="time.h">
<polygon fill="#ffffff" stroke="#000000" points="66,-952.5 66,-971.5 114,-971.5 114,-952.5 66,-952.5"/>
<text text-anchor="middle" x="90" y="-959.5" font-family="Helvetica,sans-Serif" font-size="10.00" fill="#000000">time.h</text>
</a>
</g>
</g>
<!-- Node1&#45;&gt;Node3 -->
<g id="edge2" class="edge">
<title>Node1&#45;&gt;Node3</title>
<path fill="none" stroke="#191970" d="M189.9035,-1004.3833C165.8965,-994.1985 133.6741,-980.5284 112.3955,-971.5011"/>
<polygon fill="#191970" stroke="#191970" points="188.7356,-1007.6897 199.3084,-1008.3733 191.4695,-1001.2457 188.7356,-1007.6897"/>
</g>
<!-- Node4 -->
<g id="node4" class="node">
<title>Node4</title>
<g id="a_node4"><a xlink:href="arch_2default-linux_2odp_2api_2abi_2time_8h_source.html" target="_top" xlink:title="time.h">
<polygon fill="#ffffff" stroke="#000000" points="132,-952.5 132,-971.5 180,-971.5 180,-952.5 132,-952.5"/>
<text text-anchor="middle" x="156" y="-959.5" font-family="Helvetica,sans-Serif" font-size="10.00" fill="#000000">time.h</text>
</a>
</g>
</g>
<!-- Node1&#45;&gt;Node4 -->
<g id="edge3" class="edge">
<title>Node1&#45;&gt;Node4</title>
<path fill="none" stroke="#191970" d="M202.7245,-1001.645C191.2462,-991.9058 177.0723,-979.8795 167.3646,-971.6427"/>
<polygon fill="#191970" stroke="#191970" points="200.6141,-1004.4445 210.5037,-1008.2455 205.143,-999.1069 200.6141,-1004.4445"/>
</g>
<!-- Node5 -->
<g id="node5" class="node">
<title>Node5</title>
<g id="a_node5"><a xlink:href="arch_2mips64-linux_2odp_2api_2abi_2time_8h_source.html" target="_top" xlink:title="time.h">
<polygon fill="#ffffff" stroke="#000000" points="198,-952.5 198,-971.5 246,-971.5 246,-952.5 198,-952.5"/>
<text text-anchor="middle" x="222" y="-959.5" font-family="Helvetica,sans-Serif" font-size="10.00" fill="#000000">time.h</text>
</a>
</g>
</g>
<!-- Node1&#45;&gt;Node5 -->
<g id="edge4" class="edge">
<title>Node1&#45;&gt;Node5</title>
<path fill="none" stroke="#191970" d="M222,-998.1575C222,-989.155 222,-978.9199 222,-971.6427"/>
<polygon fill="#191970" stroke="#191970" points="218.5001,-998.2455 222,-1008.2455 225.5001,-998.2456 218.5001,-998.2455"/>
</g>
<!-- Node6 -->
<g id="node6" class="node">
<title>Node6</title>
<g id="a_node6"><a xlink:href="arch_2power64-linux_2odp_2api_2abi_2time_8h_source.html" target="_top" xlink:title="time.h">
<polygon fill="#ffffff" stroke="#000000" points="264,-952.5 264,-971.5 312,-971.5 312,-952.5 264,-952.5"/>
<text text-anchor="middle" x="288" y="-959.5" font-family="Helvetica,sans-Serif" font-size="10.00" fill="#000000">time.h</text>
</a>
</g>
</g>
<!-- Node1&#45;&gt;Node6 -->
<g id="edge5" class="edge">
<title>Node1&#45;&gt;Node6</title>
<path fill="none" stroke="#191970" d="M241.2755,-1001.645C252.7538,-991.9058 266.9277,-979.8795 276.6354,-971.6427"/>
<polygon fill="#191970" stroke="#191970" points="238.857,-999.1069 233.4963,-1008.2455 243.3859,-1004.4445 238.857,-999.1069"/>
</g>
<!-- Node7 -->
<g id="node7" class="node">
<title>Node7</title>
<g id="a_node7"><a xlink:href="arch_2x86__32-linux_2odp_2api_2abi_2time_8h_source.html" target="_top" xlink:title="time.h">
<polygon fill="#ffffff" stroke="#000000" points="330,-952.5 330,-971.5 378,-971.5 378,-952.5 330,-952.5"/>
<text text-anchor="middle" x="354" y="-959.5" font-family="Helvetica,sans-Serif" font-size="10.00" fill="#000000">time.h</text>
</a>
</g>
</g>
<!-- Node1&#45;&gt;Node7 -->
<g id="edge6" class="edge">
<title>Node1&#45;&gt;Node7</title>
<path fill="none" stroke="#191970" d="M254.0965,-1004.3833C278.1035,-994.1985 310.3259,-980.5284 331.6045,-971.5011"/>
<polygon fill="#191970" stroke="#191970" points="252.5305,-1001.2457 244.6916,-1008.3733 255.2644,-1007.6897 252.5305,-1001.2457"/>
</g>
<!-- Node8 -->
<g id="node8" class="node">
<title>Node8</title>
<g id="a_node8"><a xlink:href="arch_2x86__64-linux_2odp_2api_2abi_2time_8h_source.html" target="_top" xlink:title="time.h">
<polygon fill="#ffffff" stroke="#000000" points="396,-952.5 396,-971.5 444,-971.5 444,-952.5 396,-952.5"/>
<text text-anchor="middle" x="420" y="-959.5" font-family="Helvetica,sans-Serif" font-size="10.00" fill="#000000">time.h</text>
</a>
</g>
</g>
<!-- Node1&#45;&gt;Node8 -->
<g id="edge7" class="edge">
<title>Node1&#45;&gt;Node8</title>
<path fill="none" stroke="#191970" d="M255.8164,-1008.81C289.2127,-999.6783 341.7139,-985.1724 387,-972 389.8741,-971.164 392.8844,-970.2731 395.868,-969.3806"/>
<polygon fill="#191970" stroke="#191970" points="254.8197,-1005.454 246.0945,-1011.4641 256.6633,-1012.2069 254.8197,-1005.454"/>
</g>
<!-- Node9 -->
<g id="node9" class="node">
<title>Node9</title>
<g id="a_node9"><a xlink:href="api_2time_8h.html" target="_top" xlink:title="ODP time. ">
<polygon fill="#ffffff" stroke="#000000" points="396,-896.5 396,-915.5 444,-915.5 444,-896.5 396,-896.5"/>
<text text-anchor="middle" x="420" y="-903.5" font-family="Helvetica,sans-Serif" font-size="10.00" fill="#000000">time.h</text>
</a>
</g>
</g>
<!-- Node8&#45;&gt;Node9 -->
<g id="edge8" class="edge">
<title>Node8&#45;&gt;Node9</title>
<path fill="none" stroke="#191970" d="M420,-942.1575C420,-933.155 420,-922.9199 420,-915.6427"/>
<polygon fill="#191970" stroke="#191970" points="416.5001,-942.2455 420,-952.2455 423.5001,-942.2456 416.5001,-942.2455"/>
</g>
<!-- Node10 -->
<g id="node10" class="node">
<title>Node10</title>
<g id="a_node10"><a xlink:href="api_2spec_2packet_8h.html" target="_top" xlink:title="ODP packet descriptor. ">
<polygon fill="#ffffff" stroke="#000000" points="587.5,-840.5 587.5,-859.5 646.5,-859.5 646.5,-840.5 587.5,-840.5"/>
<text text-anchor="middle" x="617" y="-847.5" font-family="Helvetica,sans-Serif" font-size="10.00" fill="#000000">packet.h</text>
</a>
</g>
</g>
<!-- Node9&#45;&gt;Node10 -->
<g id="edge9" class="edge">
<title>Node9&#45;&gt;Node10</title>
<path fill="none" stroke="#191970" d="M454.1194,-896.3011C491.6684,-885.6273 551.4291,-868.6394 587.1736,-858.4786"/>
<polygon fill="#191970" stroke="#191970" points="452.818,-893.0323 444.1561,-899.1333 454.732,-899.7655 452.818,-893.0323"/>
</g>
<!-- Node14 -->
<g id="node14" class="node">
<title>Node14</title>
<g id="a_node14"><a xlink:href="odp__api_8h.html" target="_top" xlink:title="The OpenDataPlane API. ">
<polygon fill="#ffffff" stroke="#000000" points="692,-56.5 692,-75.5 756,-75.5 756,-56.5 692,-56.5"/>
<text text-anchor="middle" x="724" y="-63.5" font-family="Helvetica,sans-Serif" font-size="10.00" fill="#000000">odp_api.h</text>
</a>
</g>
</g>
<!-- Node9&#45;&gt;Node14 -->
<g id="edge53" class="edge">
<title>Node9&#45;&gt;Node14</title>
<path fill="none" stroke="#191970" d="M399.7208,-889.823C377.2071,-869.8958 344,-833.7639 344,-794 344,-794 344,-794 344,-178 344,-130.5213 384.4577,-130.9285 428,-112 475.0383,-91.5517 625.3198,-75.3052 691.8193,-68.9252"/>
<polygon fill="#191970" stroke="#191970" points="397.5683,-892.5872 407.4501,-896.4082 402.1079,-887.2588 397.5683,-892.5872"/>
</g>
<!-- Node24 -->
<g id="node24" class="node">
<title>Node24</title>
<g id="a_node24"><a xlink:href="api_2spec_2packet__io_8h.html" target="_top" xlink:title="ODP Packet IO. ">
<polygon fill="#ffffff" stroke="#000000" points="502.5,-392.5 502.5,-411.5 575.5,-411.5 575.5,-392.5 502.5,-392.5"/>
<text text-anchor="middle" x="539" y="-399.5" font-family="Helvetica,sans-Serif" font-size="10.00" fill="#000000">packet_io.h</text>
</a>
</g>
</g>
<!-- Node9&#45;&gt;Node24 -->
<g id="edge52" class="edge">
<title>Node9&#45;&gt;Node24</title>
<path fill="none" stroke="#191970" d="M420,-886.1952C420,-863.8128 420,-826.2884 420,-794 420,-794 420,-794 420,-514 420,-462.223 480.4774,-427.3488 515.2046,-411.5915"/>
<polygon fill="#191970" stroke="#191970" points="416.5001,-886.4116 420,-896.4116 423.5001,-886.4117 416.5001,-886.4116"/>
</g>
<!-- Node11 -->
<g id="node11" class="node">
<title>Node11</title>
<g id="a_node11"><a xlink:href="api_2packet_8h.html" target="_top" xlink:title="ODP packet descriptor. ">
<polygon fill="#ffffff" stroke="#000000" points="738.5,-784.5 738.5,-803.5 797.5,-803.5 797.5,-784.5 738.5,-784.5"/>
<text text-anchor="middle" x="768" y="-791.5" font-family="Helvetica,sans-Serif" font-size="10.00" fill="#000000">packet.h</text>
</a>
</g>
</g>
<!-- Node10&#45;&gt;Node11 -->
<g id="edge10" class="edge">
<title>Node10&#45;&gt;Node11</title>
<path fill="none" stroke="#191970" d="M652.623,-836.7888C680.1938,-826.5639 717.7149,-812.6488 742.3809,-803.5011"/>
<polygon fill="#191970" stroke="#191970" points="651.1168,-833.6144 642.9578,-840.3733 653.5509,-840.1776 651.1168,-833.6144"/>
</g>
<!-- Node12 -->
<g id="node12" class="node">
<title>Node12</title>
<g id="a_node12"><a xlink:href="api_2spec_2comp_8h.html" target="_top" xlink:title="ODP Compression. ">
<polygon fill="#ffffff" stroke="#000000" points="969.5,-728.5 969.5,-747.5 1022.5,-747.5 1022.5,-728.5 969.5,-728.5"/>
<text text-anchor="middle" x="996" y="-735.5" font-family="Helvetica,sans-Serif" font-size="10.00" fill="#000000">comp.h</text>
</a>
</g>
</g>
<!-- Node11&#45;&gt;Node12 -->
<g id="edge11" class="edge">
<title>Node11&#45;&gt;Node12</title>
<path fill="none" stroke="#191970" d="M807.8063,-784.223C854.1911,-772.8303 929.5474,-754.3217 969.3748,-744.5395"/>
<polygon fill="#191970" stroke="#191970" points="806.6835,-780.8947 797.807,-786.679 808.3532,-787.6926 806.6835,-780.8947"/>
</g>
<!-- Node11&#45;&gt;Node14 -->
<g id="edge51" class="edge">
<title>Node11&#45;&gt;Node14</title>
<path fill="none" stroke="#191970" d="M795.2988,-779.1742C825.2112,-760.7067 869,-726.1348 869,-682 869,-682 869,-682 869,-178 869,-121.3804 798.8984,-89.35 756.1802,-75.0877"/>
<polygon fill="#191970" stroke="#191970" points="793.3383,-776.2677 786.525,-784.3812 796.9108,-782.2874 793.3383,-776.2677"/>
</g>
<!-- Node16 -->
<g id="node16" class="node">
<title>Node16</title>
<g id="a_node16"><a xlink:href="api_2spec_2crypto_8h.html" target="_top" xlink:title="ODP crypto. ">
<polygon fill="#ffffff" stroke="#000000" points="448,-560.5 448,-579.5 504,-579.5 504,-560.5 448,-560.5"/>
<text text-anchor="middle" x="476" y="-567.5" font-family="Helvetica,sans-Serif" font-size="10.00" fill="#000000">crypto.h</text>
</a>
</g>
</g>
<!-- Node11&#45;&gt;Node16 -->
<g id="edge15" class="edge">
<title>Node11&#45;&gt;Node16</title>
<path fill="none" stroke="#191970" d="M728.0876,-791.8601C665.3196,-787.6655 547.6192,-776.181 518,-748 469.2334,-701.6012 472.4333,-609.9796 474.9738,-579.8554"/>
<polygon fill="#191970" stroke="#191970" points="728.1999,-795.3742 738.402,-792.5167 728.6446,-788.3883 728.1999,-795.3742"/>
</g>
<!-- Node20 -->
<g id="node20" class="node">
<title>Node20</title>
<g id="a_node20"><a xlink:href="api_2spec_2event_8h.html" target="_top" xlink:title="ODP event. ">
<polygon fill="#ffffff" stroke="#000000" points="741.5,-728.5 741.5,-747.5 794.5,-747.5 794.5,-728.5 741.5,-728.5"/>
<text text-anchor="middle" x="768" y="-735.5" font-family="Helvetica,sans-Serif" font-size="10.00" fill="#000000">event.h</text>
</a>
</g>
</g>
<!-- Node11&#45;&gt;Node20 -->
<g id="edge21" class="edge">
<title>Node11&#45;&gt;Node20</title>
<path fill="none" stroke="#191970" d="M768,-774.1575C768,-765.155 768,-754.9199 768,-747.6427"/>
<polygon fill="#191970" stroke="#191970" points="764.5001,-774.2455 768,-784.2455 771.5001,-774.2456 764.5001,-774.2455"/>
</g>
<!-- Node11&#45;&gt;Node24 -->
<g id="edge50" class="edge">
<title>Node11&#45;&gt;Node24</title>
<path fill="none" stroke="#191970" d="M728.2681,-783.8898C661.0198,-765.6017 532,-724.9219 532,-682 532,-682 532,-682 532,-626 532,-546.8689 532.5354,-527.0552 536,-448 536.5536,-435.3673 537.5666,-420.8057 538.2611,-411.5083"/>
<polygon fill="#191970" stroke="#191970" points="727.5453,-787.3195 738.1104,-786.5265 729.3568,-780.5579 727.5453,-787.3195"/>
</g>
<!-- Node34 -->
<g id="node34" class="node">
<title>Node34</title>
<g id="a_node34"><a xlink:href="api_2spec_2packet__flags_8h.html" target="_top" xlink:title="ODP packet flags. ">
<polygon fill="#ffffff" stroke="#000000" points="897.5,-672.5 897.5,-691.5 984.5,-691.5 984.5,-672.5 897.5,-672.5"/>
<text text-anchor="middle" x="941" y="-679.5" font-family="Helvetica,sans-Serif" font-size="10.00" fill="#000000">packet_flags.h</text>
</a>
</g>
</g>
<!-- Node11&#45;&gt;Node34 -->
<g id="edge47" class="edge">
<title>Node11&#45;&gt;Node34</title>
<path fill="none" stroke="#191970" d="M807.3596,-783.328C830.7026,-775.8093 860.1045,-764.1788 883,-748 905.4238,-732.1545 924.9885,-705.9624 934.6286,-691.8073"/>
<polygon fill="#191970" stroke="#191970" points="806.2801,-779.9983 797.763,-786.2999 808.3508,-786.685 806.2801,-779.9983"/>
</g>
<!-- Node13 -->
<g id="node13" class="node">
<title>Node13</title>
<g id="a_node13"><a xlink:href="api_2comp_8h.html" target="_top" xlink:title="ODP crypto. ">
<polygon fill="#ffffff" stroke="#000000" points="986.5,-616.5 986.5,-635.5 1039.5,-635.5 1039.5,-616.5 986.5,-616.5"/>
<text text-anchor="middle" x="1013" y="-623.5" font-family="Helvetica,sans-Serif" font-size="10.00" fill="#000000">comp.h</text>
</a>
</g>
</g>
<!-- Node12&#45;&gt;Node13 -->
<g id="edge12" class="edge">
<title>Node12&#45;&gt;Node13</title>
<path fill="none" stroke="#191970" d="M998.9947,-718.2702C1002.6788,-693.9985 1008.7845,-653.7725 1011.5543,-635.5249"/>
<polygon fill="#191970" stroke="#191970" points="995.4898,-718.0389 997.4494,-728.4509 1002.4105,-719.0894 995.4898,-718.0389"/>
</g>
<!-- Node13&#45;&gt;Node14 -->
<g id="edge13" class="edge">
<title>Node13&#45;&gt;Node14</title>
<path fill="none" stroke="#191970" d="M1013,-606.1952C1013,-583.8128 1013,-546.2884 1013,-514 1013,-514 1013,-514 1013,-178 1013,-123.3832 831.277,-84.9597 756.0323,-71.3909"/>
<polygon fill="#191970" stroke="#191970" points="1009.5001,-606.4116 1013,-616.4116 1016.5001,-606.4117 1009.5001,-606.4116"/>
</g>
<!-- Node15 -->
<g id="node15" class="node">
<title>Node15</title>
<g id="a_node15"><a xlink:href="odp_8h.html" target="_top" xlink:title="WARNING: THIS FILE IS DEPRECATED AND WILL BE REMOVED!!! ODP APPLICATIONS SHOULD NOW INCLUDE odp_api...">
<polygon fill="#ffffff" stroke="#000000" points="702,-.5 702,-19.5 746,-19.5 746,-.5 702,-.5"/>
<text text-anchor="middle" x="724" y="-7.5" font-family="Helvetica,sans-Serif" font-size="10.00" fill="#000000">odp.h</text>
</a>
</g>
</g>
<!-- Node14&#45;&gt;Node15 -->
<g id="edge14" class="edge">
<title>Node14&#45;&gt;Node15</title>
<path fill="none" stroke="#191970" d="M724,-46.1575C724,-37.155 724,-26.9199 724,-19.6427"/>
<polygon fill="#191970" stroke="#191970" points="720.5001,-46.2455 724,-56.2455 727.5001,-46.2456 720.5001,-46.2455"/>
</g>
<!-- Node17 -->
<g id="node17" class="node">
<title>Node17</title>
<g id="a_node17"><a xlink:href="api_2crypto_8h.html" target="_top" xlink:title="ODP crypto. ">
<polygon fill="#ffffff" stroke="#000000" points="382,-392.5 382,-411.5 438,-411.5 438,-392.5 382,-392.5"/>
<text text-anchor="middle" x="410" y="-399.5" font-family="Helvetica,sans-Serif" font-size="10.00" fill="#000000">crypto.h</text>
</a>
</g>
</g>
<!-- Node16&#45;&gt;Node17 -->
<g id="edge16" class="edge">
<title>Node16&#45;&gt;Node17</title>
<path fill="none" stroke="#191970" d="M467.9177,-550.7239C464.5036,-542.5067 460.5129,-532.8025 457,-524 440.3422,-482.2592 421.3363,-432.1051 413.5793,-411.5216"/>
<polygon fill="#191970" stroke="#191970" points="464.7731,-552.2767 471.8545,-560.1573 471.2331,-549.5807 464.7731,-552.2767"/>
</g>
<!-- Node17&#45;&gt;Node14 -->
<g id="edge20" class="edge">
<title>Node17&#45;&gt;Node14</title>
<path fill="none" stroke="#191970" d="M402.1585,-382.8271C393.8754,-360.8089 382,-323.4152 382,-290 382,-290 382,-290 382,-178 382,-113.1793 606.6893,-79.8566 691.8255,-69.557"/>
<polygon fill="#191970" stroke="#191970" points="398.9674,-384.2771 405.8685,-392.3161 405.4868,-381.7281 398.9674,-384.2771"/>
</g>
<!-- Node18 -->
<g id="node18" class="node">
<title>Node18</title>
<g id="a_node18"><a xlink:href="api_2spec_2ipsec_8h.html" target="_top" xlink:title="ODP IPSEC API. ">
<polygon fill="#ffffff" stroke="#000000" points="505.5,-168.5 505.5,-187.5 556.5,-187.5 556.5,-168.5 505.5,-168.5"/>
<text text-anchor="middle" x="531" y="-175.5" font-family="Helvetica,sans-Serif" font-size="10.00" fill="#000000">ipsec.h</text>
</a>
</g>
</g>
<!-- Node17&#45;&gt;Node18 -->
<g id="edge17" class="edge">
<title>Node17&#45;&gt;Node18</title>
<path fill="none" stroke="#191970" d="M412.112,-381.7893C416.6449,-346.6649 429.9969,-273.3933 466,-224 477.6448,-208.0242 496.562,-195.5432 510.9934,-187.6374"/>
<polygon fill="#191970" stroke="#191970" points="408.5857,-381.8085 410.8929,-392.149 415.5378,-382.6266 408.5857,-381.8085"/>
</g>
<!-- Node19 -->
<g id="node19" class="node">
<title>Node19</title>
<g id="a_node19"><a xlink:href="api_2ipsec_8h.html" target="_top" xlink:title="ODP IPSEC API &#45; platform specific header. ">
<polygon fill="#ffffff" stroke="#000000" points="524.5,-112.5 524.5,-131.5 575.5,-131.5 575.5,-112.5 524.5,-112.5"/>
<text text-anchor="middle" x="550" y="-119.5" font-family="Helvetica,sans-Serif" font-size="10.00" fill="#000000">ipsec.h</text>
</a>
</g>
</g>
<!-- Node18&#45;&gt;Node19 -->
<g id="edge18" class="edge">
<title>Node18&#45;&gt;Node19</title>
<path fill="none" stroke="#191970" d="M537.5315,-158.7493C540.6336,-149.6064 544.2051,-139.0798 546.7284,-131.6427"/>
<polygon fill="#191970" stroke="#191970" points="534.2082,-157.6512 534.3095,-168.2455 540.837,-159.9003 534.2082,-157.6512"/>
</g>
<!-- Node19&#45;&gt;Node14 -->
<g id="edge19" class="edge">
<title>Node19&#45;&gt;Node14</title>
<path fill="none" stroke="#191970" d="M585.5438,-110.5606C617.6421,-100.2301 664.3271,-85.2051 694.4309,-75.5165"/>
<polygon fill="#191970" stroke="#191970" points="584.1212,-107.3416 575.6743,-113.737 586.2657,-114.005 584.1212,-107.3416"/>
</g>
<!-- Node21 -->
<g id="node21" class="node">
<title>Node21</title>
<g id="a_node21"><a xlink:href="api_2event_8h.html" target="_top" xlink:title="ODP event. ">
<polygon fill="#ffffff" stroke="#000000" points="741.5,-672.5 741.5,-691.5 794.5,-691.5 794.5,-672.5 741.5,-672.5"/>
<text text-anchor="middle" x="768" y="-679.5" font-family="Helvetica,sans-Serif" font-size="10.00" fill="#000000">event.h</text>
</a>
</g>
</g>
<!-- Node20&#45;&gt;Node21 -->
<g id="edge22" class="edge">
<title>Node20&#45;&gt;Node21</title>
<path fill="none" stroke="#191970" d="M768,-718.1575C768,-709.155 768,-698.9199 768,-691.6427"/>
<polygon fill="#191970" stroke="#191970" points="764.5001,-718.2455 768,-728.2455 771.5001,-718.2456 764.5001,-718.2455"/>
</g>
<!-- Node21&#45;&gt;Node14 -->
<g id="edge46" class="edge">
<title>Node21&#45;&gt;Node14</title>
<path fill="none" stroke="#191970" d="M785.0098,-664.9092C803.6684,-644.2702 831,-607.6177 831,-570 831,-570 831,-570 831,-178 831,-128.2502 775.1212,-91.9144 744.1259,-75.5861"/>
<polygon fill="#191970" stroke="#191970" points="782.4144,-662.5601 778.122,-672.2465 787.5181,-667.351 782.4144,-662.5601"/>
</g>
<!-- Node22 -->
<g id="node22" class="node">
<title>Node22</title>
<g id="a_node22"><a xlink:href="api_2spec_2queue_8h.html" target="_top" xlink:title="ODP queue. ">
<polygon fill="#ffffff" stroke="#000000" points="661,-616.5 661,-635.5 717,-635.5 717,-616.5 661,-616.5"/>
<text text-anchor="middle" x="689" y="-623.5" font-family="Helvetica,sans-Serif" font-size="10.00" fill="#000000">queue.h</text>
</a>
</g>
</g>
<!-- Node21&#45;&gt;Node22 -->
<g id="edge23" class="edge">
<title>Node21&#45;&gt;Node22</title>
<path fill="none" stroke="#191970" d="M745.7244,-666.2097C731.8495,-656.3743 714.4485,-644.0394 702.6031,-635.6427"/>
<polygon fill="#191970" stroke="#191970" points="744.0569,-669.3178 754.2393,-672.2455 748.1051,-663.6071 744.0569,-669.3178"/>
</g>
<!-- Node32 -->
<g id="node32" class="node">
<title>Node32</title>
<g id="a_node32"><a xlink:href="api_2spec_2schedule_8h.html" target="_top" xlink:title="ODP schedule. ">
<polygon fill="#ffffff" stroke="#000000" points="733.5,-504.5 733.5,-523.5 802.5,-523.5 802.5,-504.5 733.5,-504.5"/>
<text text-anchor="middle" x="768" y="-511.5" font-family="Helvetica,sans-Serif" font-size="10.00" fill="#000000">schedule.h</text>
</a>
</g>
</g>
<!-- Node21&#45;&gt;Node32 -->
<g id="edge45" class="edge">
<title>Node21&#45;&gt;Node32</title>
<path fill="none" stroke="#191970" d="M768,-662.2601C768,-626.1669 768,-550.7656 768,-523.8279"/>
<polygon fill="#191970" stroke="#191970" points="764.5001,-662.4862 768,-672.4862 771.5001,-662.4863 764.5001,-662.4862"/>
</g>
<!-- Node23 -->
<g id="node23" class="node">
<title>Node23</title>
<g id="a_node23"><a xlink:href="api_2queue_8h.html" target="_top" xlink:title="ODP queue. ">
<polygon fill="#ffffff" stroke="#000000" points="638,-560.5 638,-579.5 694,-579.5 694,-560.5 638,-560.5"/>
<text text-anchor="middle" x="666" y="-567.5" font-family="Helvetica,sans-Serif" font-size="10.00" fill="#000000">queue.h</text>
</a>
</g>
</g>
<!-- Node22&#45;&gt;Node23 -->
<g id="edge24" class="edge">
<title>Node22&#45;&gt;Node23</title>
<path fill="none" stroke="#191970" d="M681.0934,-606.7493C677.3383,-597.6064 673.0149,-587.0798 669.9604,-579.6427"/>
<polygon fill="#191970" stroke="#191970" points="677.9569,-608.3251 684.9937,-616.2455 684.432,-605.6656 677.9569,-608.3251"/>
</g>
<!-- Node23&#45;&gt;Node14 -->
<g id="edge44" class="edge">
<title>Node23&#45;&gt;Node14</title>
<path fill="none" stroke="#191970" d="M676.7876,-551.4123C688.3304,-529.7334 705,-492.4602 705,-458 705,-458 705,-458 705,-402 705,-325.4471 743,-310.5529 743,-234 743,-234 743,-234 743,-178 743,-139.7388 732.0887,-95.1479 726.8035,-75.7934"/>
<polygon fill="#191970" stroke="#191970" points="673.6994,-549.7645 671.9233,-560.2094 679.8252,-553.1519 673.6994,-549.7645"/>
</g>
<!-- Node23&#45;&gt;Node17 -->
<g id="edge25" class="edge">
<title>Node23&#45;&gt;Node17</title>
<path fill="none" stroke="#191970" d="M628.3248,-558.4899C605.1181,-550.5519 575.2673,-538.7748 551,-524 495.4255,-490.1641 440.198,-434.2517 419.0326,-411.7887"/>
<polygon fill="#191970" stroke="#191970" points="627.2346,-561.8157 637.8282,-561.6544 629.4461,-555.1742 627.2346,-561.8157"/>
</g>
<!-- Node23&#45;&gt;Node24 -->
<g id="edge26" class="edge">
<title>Node23&#45;&gt;Node24</title>
<path fill="none" stroke="#191970" d="M627.829,-561.3786C606.6024,-554.6523 581.4319,-543.133 566,-524 538.6258,-490.0607 537.593,-434.2073 538.4127,-411.7744"/>
<polygon fill="#191970" stroke="#191970" points="626.9825,-564.7776 637.5629,-564.2249 628.9472,-558.0589 626.9825,-564.7776"/>
</g>
<!-- Node30 -->
<g id="node30" class="node">
<title>Node30</title>
<g id="a_node30"><a xlink:href="spec_2packet__io__stats_8h.html" target="_top" xlink:title="ODP Packet IO statistics. ">
<polygon fill="#ffffff" stroke="#000000" points="575,-504.5 575,-523.5 677,-523.5 677,-504.5 575,-504.5"/>
<text text-anchor="middle" x="626" y="-511.5" font-family="Helvetica,sans-Serif" font-size="10.00" fill="#000000">packet_io_stats.h</text>
</a>
</g>
</g>
<!-- Node23&#45;&gt;Node30 -->
<g id="edge38" class="edge">
<title>Node23&#45;&gt;Node30</title>
<path fill="none" stroke="#191970" d="M653.0864,-551.9209C646.3697,-542.5176 638.4283,-531.3997 632.8876,-523.6427"/>
<polygon fill="#191970" stroke="#191970" points="650.372,-554.1425 659.0325,-560.2455 656.0682,-550.0738 650.372,-554.1425"/>
</g>
<!-- Node23&#45;&gt;Node32 -->
<g id="edge41" class="edge">
<title>Node23&#45;&gt;Node32</title>
<path fill="none" stroke="#191970" d="M692.734,-555.3225C710.9532,-545.3198 734.5598,-532.3593 750.4366,-523.6427"/>
<polygon fill="#191970" stroke="#191970" points="690.8484,-552.3649 683.767,-560.2455 694.2173,-558.5009 690.8484,-552.3649"/>
</g>
<!-- Node25 -->
<g id="node25" class="node">
<title>Node25</title>
<g id="a_node25"><a xlink:href="api_2packet__io_8h.html" target="_top" xlink:title="ODP Packet IO. ">
<polygon fill="#ffffff" stroke="#000000" points="502.5,-336.5 502.5,-355.5 575.5,-355.5 575.5,-336.5 502.5,-336.5"/>
<text text-anchor="middle" x="539" y="-343.5" font-family="Helvetica,sans-Serif" font-size="10.00" fill="#000000">packet_io.h</text>
</a>
</g>
</g>
<!-- Node24&#45;&gt;Node25 -->
<g id="edge27" class="edge">
<title>Node24&#45;&gt;Node25</title>
<path fill="none" stroke="#191970" d="M539,-382.1575C539,-373.155 539,-362.9199 539,-355.6427"/>
<polygon fill="#191970" stroke="#191970" points="535.5001,-382.2455 539,-392.2455 542.5001,-382.2456 535.5001,-382.2455"/>
</g>
<!-- Node25&#45;&gt;Node14 -->
<g id="edge37" class="edge">
<title>Node25&#45;&gt;Node14</title>
<path fill="none" stroke="#191970" d="M585.4349,-336.4988C622.9811,-327.9314 671.8453,-314.4837 686,-300 707.3348,-278.1693 705,-264.5246 705,-234 705,-234 705,-234 705,-178 705,-139.7388 715.9113,-95.1479 721.1965,-75.7934"/>
<polygon fill="#191970" stroke="#191970" points="584.6716,-333.0829 575.6733,-338.6759 586.1954,-339.9151 584.6716,-333.0829"/>
</g>
<!-- Node25&#45;&gt;Node18 -->
<g id="edge32" class="edge">
<title>Node25&#45;&gt;Node18</title>
<path fill="none" stroke="#191970" d="M508.2207,-331.1875C496.1793,-323.6585 483.6737,-313.2613 477,-300 461.8159,-269.8275 462.8388,-254.6659 477,-224 484.3833,-208.0115 500.3676,-195.5319 513.0401,-187.6299"/>
<polygon fill="#191970" stroke="#191970" points="506.823,-334.4217 517.2342,-336.3857 510.3201,-328.3578 506.823,-334.4217"/>
</g>
<!-- Node26 -->
<g id="node26" class="node">
<title>Node26</title>
<g id="a_node26"><a xlink:href="api_2spec_2classification_8h.html" target="_top" xlink:title="ODP classification descriptor. ">
<polygon fill="#ffffff" stroke="#000000" points="486.5,-280.5 486.5,-299.5 575.5,-299.5 575.5,-280.5 486.5,-280.5"/>
<text text-anchor="middle" x="531" y="-287.5" font-family="Helvetica,sans-Serif" font-size="10.00" fill="#000000">classification.h</text>
</a>
</g>
</g>
<!-- Node25&#45;&gt;Node26 -->
<g id="edge28" class="edge">
<title>Node25&#45;&gt;Node26</title>
<path fill="none" stroke="#191970" d="M536.1654,-326.1575C534.8793,-317.155 533.4171,-306.9199 532.3775,-299.6427"/>
<polygon fill="#191970" stroke="#191970" points="532.7274,-326.8411 537.6065,-336.2455 539.657,-325.851 532.7274,-326.8411"/>
</g>
<!-- Node28 -->
<g id="node28" class="node">
<title>Node28</title>
<g id="a_node28"><a xlink:href="api_2spec_2traffic__mngr_8h.html" target="_top" xlink:title="Copyright (c) 2015&#45;2018, Linaro Limited All rights reserved. ">
<polygon fill="#ffffff" stroke="#000000" points="593,-280.5 593,-299.5 677,-299.5 677,-280.5 593,-280.5"/>
<text text-anchor="middle" x="635" y="-287.5" font-family="Helvetica,sans-Serif" font-size="10.00" fill="#000000">traffic_mngr.h</text>
</a>
</g>
</g>
<!-- Node25&#45;&gt;Node28 -->
<g id="edge33" class="edge">
<title>Node25&#45;&gt;Node28</title>
<path fill="none" stroke="#191970" d="M564.6346,-331.0465C581.7159,-321.0824 603.664,-308.2794 618.4697,-299.6427"/>
<polygon fill="#191970" stroke="#191970" points="562.5962,-328.1836 555.7219,-336.2455 566.1233,-334.23 562.5962,-328.1836"/>
</g>
<!-- Node27 -->
<g id="node27" class="node">
<title>Node27</title>
<g id="a_node27"><a xlink:href="api_2classification_8h.html" target="_top" xlink:title="ODP classification descriptor. ">
<polygon fill="#ffffff" stroke="#000000" points="486.5,-224.5 486.5,-243.5 575.5,-243.5 575.5,-224.5 486.5,-224.5"/>
<text text-anchor="middle" x="531" y="-231.5" font-family="Helvetica,sans-Serif" font-size="10.00" fill="#000000">classification.h</text>
</a>
</g>
</g>
<!-- Node26&#45;&gt;Node27 -->
<g id="edge29" class="edge">
<title>Node26&#45;&gt;Node27</title>
<path fill="none" stroke="#191970" d="M531,-270.1575C531,-261.155 531,-250.9199 531,-243.6427"/>
<polygon fill="#191970" stroke="#191970" points="527.5001,-270.2455 531,-280.2455 534.5001,-270.2456 527.5001,-270.2455"/>
</g>
<!-- Node27&#45;&gt;Node14 -->
<g id="edge31" class="edge">
<title>Node27&#45;&gt;Node14</title>
<path fill="none" stroke="#191970" d="M549.536,-217.865C589.075,-183.4477 680.6916,-103.6985 712.7096,-75.8279"/>
<polygon fill="#191970" stroke="#191970" points="547.1742,-215.2806 541.9295,-224.4862 551.7702,-220.5605 547.1742,-215.2806"/>
</g>
<!-- Node27&#45;&gt;Node18 -->
<g id="edge30" class="edge">
<title>Node27&#45;&gt;Node18</title>
<path fill="none" stroke="#191970" d="M531,-214.1575C531,-205.155 531,-194.9199 531,-187.6427"/>
<polygon fill="#191970" stroke="#191970" points="527.5001,-214.2455 531,-224.2455 534.5001,-214.2456 527.5001,-214.2455"/>
</g>
<!-- Node29 -->
<g id="node29" class="node">
<title>Node29</title>
<g id="a_node29"><a xlink:href="api_2traffic__mngr_8h.html" target="_top" xlink:title="ODP Traffic manager. ">
<polygon fill="#ffffff" stroke="#000000" points="593,-224.5 593,-243.5 677,-243.5 677,-224.5 593,-224.5"/>
<text text-anchor="middle" x="635" y="-231.5" font-family="Helvetica,sans-Serif" font-size="10.00" fill="#000000">traffic_mngr.h</text>
</a>
</g>
</g>
<!-- Node28&#45;&gt;Node29 -->
<g id="edge34" class="edge">
<title>Node28&#45;&gt;Node29</title>
<path fill="none" stroke="#191970" d="M635,-270.1575C635,-261.155 635,-250.9199 635,-243.6427"/>
<polygon fill="#191970" stroke="#191970" points="631.5001,-270.2455 635,-280.2455 638.5001,-270.2456 631.5001,-270.2455"/>
</g>
<!-- Node29&#45;&gt;Node14 -->
<g id="edge36" class="edge">
<title>Node29&#45;&gt;Node14</title>
<path fill="none" stroke="#191970" d="M642.5451,-214.6134C652.4042,-190.0577 670.8074,-146.7562 691,-112 698.7023,-98.7424 709.2716,-84.561 716.3536,-75.5047"/>
<polygon fill="#191970" stroke="#191970" points="639.1786,-213.6086 638.7514,-224.1948 645.687,-216.1856 639.1786,-213.6086"/>
</g>
<!-- Node29&#45;&gt;Node18 -->
<g id="edge35" class="edge">
<title>Node29&#45;&gt;Node18</title>
<path fill="none" stroke="#191970" d="M607.9971,-219.46C589.3864,-209.4388 565.1701,-196.3993 548.9078,-187.6427"/>
<polygon fill="#191970" stroke="#191970" points="606.4205,-222.5861 616.8846,-224.2455 609.7392,-216.4228 606.4205,-222.5861"/>
</g>
<!-- Node31 -->
<g id="node31" class="node">
<title>Node31</title>
<g id="a_node31"><a xlink:href="packet__io__stats_8h.html" target="_top" xlink:title="ODP packet IO stats. ">
<polygon fill="#ffffff" stroke="#000000" points="575,-448.5 575,-467.5 677,-467.5 677,-448.5 575,-448.5"/>
<text text-anchor="middle" x="626" y="-455.5" font-family="Helvetica,sans-Serif" font-size="10.00" fill="#000000">packet_io_stats.h</text>
</a>
</g>
</g>
<!-- Node30&#45;&gt;Node31 -->
<g id="edge39" class="edge">
<title>Node30&#45;&gt;Node31</title>
<path fill="none" stroke="#191970" d="M626,-494.1575C626,-485.155 626,-474.9199 626,-467.6427"/>
<polygon fill="#191970" stroke="#191970" points="622.5001,-494.2455 626,-504.2455 629.5001,-494.2456 622.5001,-494.2455"/>
</g>
<!-- Node31&#45;&gt;Node24 -->
<g id="edge40" class="edge">
<title>Node31&#45;&gt;Node24</title>
<path fill="none" stroke="#191970" d="M602.3375,-442.769C586.9209,-432.8456 567.274,-420.1994 553.9806,-411.6427"/>
<polygon fill="#191970" stroke="#191970" points="600.5427,-445.7761 610.8458,-448.2455 604.3315,-439.89 600.5427,-445.7761"/>
</g>
<!-- Node33 -->
<g id="node33" class="node">
<title>Node33</title>
<g id="a_node33"><a xlink:href="api_2schedule_8h.html" target="_top" xlink:title="ODP schedule. ">
<polygon fill="#ffffff" stroke="#000000" points="733.5,-336.5 733.5,-355.5 802.5,-355.5 802.5,-336.5 733.5,-336.5"/>
<text text-anchor="middle" x="768" y="-343.5" font-family="Helvetica,sans-Serif" font-size="10.00" fill="#000000">schedule.h</text>
</a>
</g>
</g>
<!-- Node32&#45;&gt;Node33 -->
<g id="edge42" class="edge">
<title>Node32&#45;&gt;Node33</title>
<path fill="none" stroke="#191970" d="M768,-494.2601C768,-458.1669 768,-382.7656 768,-355.8279"/>
<polygon fill="#191970" stroke="#191970" points="764.5001,-494.4862 768,-504.4862 771.5001,-494.4863 764.5001,-494.4862"/>
</g>
<!-- Node33&#45;&gt;Node14 -->
<g id="edge43" class="edge">
<title>Node33&#45;&gt;Node14</title>
<path fill="none" stroke="#191970" d="M771.6339,-326.5816C775.48,-304.3089 781,-266.6543 781,-234 781,-234 781,-234 781,-178 781,-136.1099 748.9375,-94.055 732.9063,-75.6456"/>
<polygon fill="#191970" stroke="#191970" points="768.1835,-325.9941 769.8626,-336.455 775.0735,-327.2302 768.1835,-325.9941"/>
</g>
<!-- Node35 -->
<g id="node35" class="node">
<title>Node35</title>
<g id="a_node35"><a xlink:href="api_2packet__flags_8h.html" target="_top" xlink:title="ODP packet flags. ">
<polygon fill="#ffffff" stroke="#000000" points="897.5,-448.5 897.5,-467.5 984.5,-467.5 984.5,-448.5 897.5,-448.5"/>
<text text-anchor="middle" x="941" y="-455.5" font-family="Helvetica,sans-Serif" font-size="10.00" fill="#000000">packet_flags.h</text>
</a>
</g>
</g>
<!-- Node34&#45;&gt;Node35 -->
<g id="edge48" class="edge">
<title>Node34&#45;&gt;Node35</title>
<path fill="none" stroke="#191970" d="M941,-662.1177C941,-615.6713 941,-501.4223 941,-467.5891"/>
<polygon fill="#191970" stroke="#191970" points="937.5001,-662.375 941,-672.375 944.5001,-662.375 937.5001,-662.375"/>
</g>
<!-- Node35&#45;&gt;Node14 -->
<g id="edge49" class="edge">
<title>Node35&#45;&gt;Node14</title>
<path fill="none" stroke="#191970" d="M936.248,-438.6376C931.2185,-416.416 924,-378.808 924,-346 924,-346 924,-346 924,-178 924,-101.9897 812.6688,-77.0556 756.1335,-69.294"/>
<polygon fill="#191970" stroke="#191970" points="932.8676,-439.5526 938.5643,-448.4856 939.6816,-437.9498 932.8676,-439.5526"/>
</g>
</g>
</svg>
