<?xml version="1.0" encoding="UTF-8" standalone="no"?>
<!DOCTYPE svg PUBLIC "-//W3C//DTD SVG 1.1//EN"
 "http://www.w3.org/Graphics/SVG/1.1/DTD/svg11.dtd">
<!-- Generated by graphviz version 2.40.1 (20161225.0304)
 -->
<!-- Title: packet_io.h Pages: 1 -->
<svg width="1896pt" height="845pt"
 viewBox="0.00 0.00 1896.00 845.00" xmlns="http://www.w3.org/2000/svg" xmlns:xlink="http://www.w3.org/1999/xlink">
<g id="graph0" class="graph" transform="scale(1 1) rotate(0) translate(4 841)">
<title>packet_io.h</title>
<polygon fill="#ffffff" stroke="transparent" points="-4,4 -4,-841 1892,-841 1892,4 -4,4"/>
<!-- Node0 -->
<g id="node1" class="node">
<title>Node0</title>
<polygon fill="#bfbfbf" stroke="#000000" points="293.5,-817.5 293.5,-836.5 366.5,-836.5 366.5,-817.5 293.5,-817.5"/>
<text text-anchor="middle" x="330" y="-824.5" font-family="Helvetica,sans-Serif" font-size="10.00" fill="#000000">packet_io.h</text>
</g>
<!-- Node1 -->
<g id="node2" class="node">
<title>Node1</title>
<g id="a_node2"><a xlink:href="visibility__begin_8h_source.html" target="_top" xlink:title="odp/visibility_begin.h">
<polygon fill="#ffffff" stroke="#000000" points="167.5,-.5 167.5,-19.5 288.5,-19.5 288.5,-.5 167.5,-.5"/>
<text text-anchor="middle" x="228" y="-7.5" font-family="Helvetica,sans-Serif" font-size="10.00" fill="#000000">odp/visibility_begin.h</text>
</a>
</g>
</g>
<!-- Node0&#45;&gt;Node1 -->
<g id="edge1" class="edge">
<title>Node0&#45;&gt;Node1</title>
<path fill="none" stroke="#191970" d="M293.4518,-824.6356C226.663,-819.7367 88.076,-806.7234 48,-781 15.7898,-760.3254 0,-747.7745 0,-709.5 0,-709.5 0,-709.5 0,-122 0,-84.0995 22.1276,-76.5085 54,-56 84.8378,-36.1572 123.9697,-24.8402 157.3101,-18.4021"/>
<polygon fill="#191970" stroke="#191970" points="158.2434,-21.7899 167.4556,-16.5567 156.9906,-14.9029 158.2434,-21.7899"/>
</g>
<!-- Node2 -->
<g id="node3" class="node">
<title>Node2</title>
<g id="a_node3"><a xlink:href="deprecated_8h.html" target="_top" xlink:title="Control deprecated API definitions. ">
<polygon fill="#ffffff" stroke="#000000" points="194.5,-235.5 194.5,-254.5 313.5,-254.5 313.5,-235.5 194.5,-235.5"/>
<text text-anchor="middle" x="254" y="-242.5" font-family="Helvetica,sans-Serif" font-size="10.00" fill="#000000">odp/api/deprecated.h</text>
</a>
</g>
</g>
<!-- Node0&#45;&gt;Node2 -->
<g id="edge2" class="edge">
<title>Node0&#45;&gt;Node2</title>
<path fill="none" stroke="#191970" d="M306.1942,-817.4823C269.9266,-801.2265 205,-764.4513 205,-709.5 205,-709.5 205,-709.5 205,-368 205,-328.4026 227.1878,-286.4006 241.7024,-263.1603"/>
<polygon fill="#191970" stroke="#191970" points="244.6962,-264.9761 247.1868,-254.6781 238.8179,-261.1753 244.6962,-264.9761"/>
</g>
<!-- Node4 -->
<g id="node5" class="node">
<title>Node4</title>
<g id="a_node5"><a xlink:href="visibility__end_8h_source.html" target="_top" xlink:title="odp/visibility_end.h">
<polygon fill="#ffffff" stroke="#000000" points="1024,-.5 1024,-19.5 1136,-19.5 1136,-.5 1024,-.5"/>
<text text-anchor="middle" x="1080" y="-7.5" font-family="Helvetica,sans-Serif" font-size="10.00" fill="#000000">odp/visibility_end.h</text>
</a>
</g>
</g>
<!-- Node0&#45;&gt;Node4 -->
<g id="edge72" class="edge">
<title>Node0&#45;&gt;Node4</title>
<path fill="none" stroke="#191970" d="M366.5963,-826.2128C601.5281,-820.9262 1888,-788.3756 1888,-709.5 1888,-709.5 1888,-709.5 1888,-122 1888,-47.3048 1339.2256,-19.6577 1146.1904,-12.2432"/>
<polygon fill="#191970" stroke="#191970" points="1146.3006,-8.745 1136.1755,-11.8645 1146.036,-15.74 1146.3006,-8.745"/>
</g>
<!-- Node5 -->
<g id="node6" class="node">
<title>Node5</title>
<g id="a_node6"><a xlink:href="packet__io__stats_8h.html" target="_top" xlink:title="ODP packet IO stats. ">
<polygon fill="#ffffff" stroke="#000000" points="309.5,-761.5 309.5,-780.5 450.5,-780.5 450.5,-761.5 309.5,-761.5"/>
<text text-anchor="middle" x="380" y="-768.5" font-family="Helvetica,sans-Serif" font-size="10.00" fill="#000000">odp/api/packet_io_stats.h</text>
</a>
</g>
</g>
<!-- Node0&#45;&gt;Node5 -->
<g id="edge6" class="edge">
<title>Node0&#45;&gt;Node5</title>
<path fill="none" stroke="#191970" d="M338.7093,-817.2455C345.8073,-809.2958 356.0084,-797.8706 364.495,-788.3656"/>
<polygon fill="#191970" stroke="#191970" points="367.3411,-790.4331 371.3905,-780.6427 362.1195,-785.771 367.3411,-790.4331"/>
</g>
<!-- Node7 -->
<g id="node8" class="node">
<title>Node7</title>
<g id="a_node8"><a xlink:href="api_2queue_8h.html" target="_top" xlink:title="ODP queue. ">
<polygon fill="#ffffff" stroke="#000000" points="945.5,-638.5 945.5,-657.5 1040.5,-657.5 1040.5,-638.5 945.5,-638.5"/>
<text text-anchor="middle" x="993" y="-645.5" font-family="Helvetica,sans-Serif" font-size="10.00" fill="#000000">odp/api/queue.h</text>
</a>
</g>
</g>
<!-- Node0&#45;&gt;Node7 -->
<g id="edge65" class="edge">
<title>Node0&#45;&gt;Node7</title>
<path fill="none" stroke="#191970" d="M365.6458,-817.3762C477.7473,-787.1104 823.0536,-693.883 947.61,-660.2546"/>
<polygon fill="#191970" stroke="#191970" points="948.8393,-663.5481 957.5813,-657.5625 947.0147,-656.7901 948.8393,-663.5481"/>
</g>
<!-- Node22 -->
<g id="node23" class="node">
<title>Node22</title>
<g id="a_node23"><a xlink:href="api_2packet_8h.html" target="_top" xlink:title="ODP packet descriptor. ">
<polygon fill="#ffffff" stroke="#000000" points="1176,-414.5 1176,-433.5 1274,-433.5 1274,-414.5 1176,-414.5"/>
<text text-anchor="middle" x="1225" y="-421.5" font-family="Helvetica,sans-Serif" font-size="10.00" fill="#000000">odp/api/packet.h</text>
</a>
</g>
</g>
<!-- Node0&#45;&gt;Node22 -->
<g id="edge71" class="edge">
<title>Node0&#45;&gt;Node22</title>
<path fill="none" stroke="#191970" d="M366.5431,-826.6679C547.6154,-824.551 1340,-809.5703 1340,-709.5 1340,-709.5 1340,-709.5 1340,-536 1340,-489.2547 1290.6324,-455.6844 1256.5883,-438.0917"/>
<polygon fill="#191970" stroke="#191970" points="1257.9598,-434.8651 1247.4462,-433.5557 1254.8485,-441.1357 1257.9598,-434.8651"/>
</g>
<!-- Node26 -->
<g id="node27" class="node">
<title>Node26</title>
<g id="a_node27"><a xlink:href="api_2time_8h.html" target="_top" xlink:title="ODP time. ">
<polygon fill="#ffffff" stroke="#000000" points="993.5,-297 993.5,-316 1080.5,-316 1080.5,-297 993.5,-297"/>
<text text-anchor="middle" x="1037" y="-304" font-family="Helvetica,sans-Serif" font-size="10.00" fill="#000000">odp/api/time.h</text>
</a>
</g>
</g>
<!-- Node0&#45;&gt;Node26 -->
<g id="edge70" class="edge">
<title>Node0&#45;&gt;Node26</title>
<path fill="none" stroke="#191970" d="M322.6656,-817.2405C316.1934,-808.2361 306.8967,-794.2891 301,-781 287.6165,-750.8384 281,-742.4976 281,-709.5 281,-709.5 281,-709.5 281,-592 281,-366.9702 516.6298,-429.4951 730,-358 815.9174,-329.2112 920.9811,-316.0415 983.257,-310.3806"/>
<polygon fill="#191970" stroke="#191970" points="983.5935,-313.8646 993.2492,-309.5036 982.9814,-306.8914 983.5935,-313.8646"/>
</g>
<!-- Node35 -->
<g id="node36" class="node">
<title>Node35</title>
<g id="a_node36"><a xlink:href="reassembly_8h.html" target="_top" xlink:title="ODP REASSEMBLY API &#45; platform specific header. ">
<polygon fill="#ffffff" stroke="#000000" points="57,-761.5 57,-780.5 177,-780.5 177,-761.5 57,-761.5"/>
<text text-anchor="middle" x="117" y="-768.5" font-family="Helvetica,sans-Serif" font-size="10.00" fill="#000000">odp/api/reassembly.h</text>
</a>
</g>
</g>
<!-- Node0&#45;&gt;Node35 -->
<g id="edge66" class="edge">
<title>Node0&#45;&gt;Node35</title>
<path fill="none" stroke="#191970" d="M293.384,-817.3733C257.352,-807.9001 202.2122,-793.4032 163.1886,-783.1435"/>
<polygon fill="#191970" stroke="#191970" points="163.6995,-779.6589 153.1382,-780.5011 161.9196,-786.4289 163.6995,-779.6589"/>
</g>
<!-- Node3 -->
<g id="node4" class="node">
<title>Node3</title>
<g id="a_node4"><a xlink:href="spec_2deprecated_8h.html" target="_top" xlink:title="Macro for deprecated API definitions. ">
<polygon fill="#ffffff" stroke="#000000" points="420.5,-56.5 420.5,-75.5 565.5,-75.5 565.5,-56.5 420.5,-56.5"/>
<text text-anchor="middle" x="493" y="-63.5" font-family="Helvetica,sans-Serif" font-size="10.00" fill="#000000">odp/api/spec/deprecated.h</text>
</a>
</g>
</g>
<!-- Node2&#45;&gt;Node3 -->
<g id="edge3" class="edge">
<title>Node2&#45;&gt;Node3</title>
<path fill="none" stroke="#191970" d="M266.8497,-235.3762C305.9164,-206.117 423.5506,-118.0144 471.8998,-81.8031"/>
<polygon fill="#191970" stroke="#191970" points="474.1809,-84.4675 480.0868,-75.6714 469.9846,-78.8647 474.1809,-84.4675"/>
</g>
<!-- Node3&#45;&gt;Node1 -->
<g id="edge4" class="edge">
<title>Node3&#45;&gt;Node1</title>
<path fill="none" stroke="#191970" d="M447.746,-56.4369C402.2027,-46.8127 331.9035,-31.957 283.1314,-21.6504"/>
<polygon fill="#191970" stroke="#191970" points="283.575,-18.1669 273.0674,-19.5237 282.1276,-25.0157 283.575,-18.1669"/>
</g>
<!-- Node3&#45;&gt;Node4 -->
<g id="edge5" class="edge">
<title>Node3&#45;&gt;Node4</title>
<path fill="none" stroke="#191970" d="M565.5665,-59.0771C680.5334,-48.1092 902.8503,-26.9001 1013.7432,-16.3209"/>
<polygon fill="#191970" stroke="#191970" points="1014.1741,-19.7958 1023.7965,-15.3618 1013.5093,-12.8274 1014.1741,-19.7958"/>
</g>
<!-- Node6 -->
<g id="node7" class="node">
<title>Node6</title>
<g id="a_node7"><a xlink:href="spec_2packet__io__stats_8h.html" target="_top" xlink:title="ODP Packet IO statistics. ">
<polygon fill="#ffffff" stroke="#000000" points="323,-694.5 323,-724.5 437,-724.5 437,-694.5 323,-694.5"/>
<text text-anchor="start" x="331" y="-712.5" font-family="Helvetica,sans-Serif" font-size="10.00" fill="#000000">odp/api/spec/packet</text>
<text text-anchor="middle" x="380" y="-701.5" font-family="Helvetica,sans-Serif" font-size="10.00" fill="#000000">_io_stats.h</text>
</a>
</g>
</g>
<!-- Node5&#45;&gt;Node6 -->
<g id="edge7" class="edge">
<title>Node5&#45;&gt;Node6</title>
<path fill="none" stroke="#191970" d="M380,-761.3906C380,-754.2234 380,-744.0862 380,-734.671"/>
<polygon fill="#191970" stroke="#191970" points="383.5001,-734.5446 380,-724.5446 376.5001,-734.5446 383.5001,-734.5446"/>
</g>
<!-- Node6&#45;&gt;Node1 -->
<g id="edge8" class="edge">
<title>Node6&#45;&gt;Node1</title>
<path fill="none" stroke="#191970" d="M338.8955,-694.4678C298.5413,-676.745 243,-643.0751 243,-592 243,-592 243,-592 243,-480 243,-319.792 38,-343.708 38,-183.5 38,-183.5 38,-183.5 38,-122 38,-64.2347 103.9818,-35.6568 158.1794,-21.9265"/>
<polygon fill="#191970" stroke="#191970" points="159.2383,-25.2718 168.1436,-19.5319 157.6026,-18.4656 159.2383,-25.2718"/>
</g>
<!-- Node6&#45;&gt;Node2 -->
<g id="edge9" class="edge">
<title>Node6&#45;&gt;Node2</title>
<path fill="none" stroke="#191970" d="M370.6863,-694.3623C346.0416,-652.8163 281,-532.8574 281,-424 281,-424 281,-424 281,-368 281,-330.6508 268.9762,-288.3748 260.9762,-264.3801"/>
<polygon fill="#191970" stroke="#191970" points="264.2145,-263.0347 257.6413,-254.7253 257.598,-265.3201 264.2145,-263.0347"/>
</g>
<!-- Node6&#45;&gt;Node4 -->
<g id="edge64" class="edge">
<title>Node6&#45;&gt;Node4</title>
<path fill="none" stroke="#191970" d="M437.0369,-702.6125C537.3872,-688.8908 735,-653.9988 735,-592 735,-592 735,-592 735,-480 735,-415.1598 760.0736,-392.4578 815,-358 919.4184,-292.4937 999.8709,-406.0893 1090,-322 1135.9188,-279.1583 1118,-246.3009 1118,-183.5 1118,-183.5 1118,-183.5 1118,-122 1118,-87.6118 1101.7366,-50.2832 1090.489,-28.5791"/>
<polygon fill="#191970" stroke="#191970" points="1093.431,-26.6605 1085.607,-19.5166 1087.2683,-29.9804 1093.431,-26.6605"/>
</g>
<!-- Node6&#45;&gt;Node7 -->
<g id="edge10" class="edge">
<title>Node6&#45;&gt;Node7</title>
<path fill="none" stroke="#191970" d="M437.1191,-703.7695C553.6786,-692.0755 817.8017,-665.577 935.0548,-653.8134"/>
<polygon fill="#191970" stroke="#191970" points="935.6612,-657.2703 945.2618,-652.7894 934.9623,-650.3052 935.6612,-657.2703"/>
</g>
<!-- Node8 -->
<g id="node9" class="node">
<title>Node8</title>
<g id="a_node9"><a xlink:href="api_2std__types_8h.html" target="_top" xlink:title="Standard C language types and definitions for ODP. ">
<polygon fill="#ffffff" stroke="#000000" points="1273,-235.5 1273,-254.5 1385,-254.5 1385,-235.5 1273,-235.5"/>
<text text-anchor="middle" x="1329" y="-242.5" font-family="Helvetica,sans-Serif" font-size="10.00" fill="#000000">odp/api/std_types.h</text>
</a>
</g>
</g>
<!-- Node7&#45;&gt;Node8 -->
<g id="edge11" class="edge">
<title>Node7&#45;&gt;Node8</title>
<path fill="none" stroke="#191970" d="M1040.6041,-646.8318C1220.6747,-641.7923 1850,-618.293 1850,-536 1850,-536 1850,-536 1850,-368 1850,-275.631 1535.8883,-252.5482 1395.4599,-246.844"/>
<polygon fill="#191970" stroke="#191970" points="1395.3794,-243.3383 1385.2511,-246.4476 1395.1078,-250.333 1395.3794,-243.3383"/>
</g>
<!-- Node15 -->
<g id="node16" class="node">
<title>Node15</title>
<polygon fill="#ffffff" stroke="#bfbfbf" points="1580,-358.5 1580,-377.5 1690,-377.5 1690,-358.5 1580,-358.5"/>
<text text-anchor="middle" x="1635" y="-365.5" font-family="Helvetica,sans-Serif" font-size="10.00" fill="#000000">odp/api/abi/event.h</text>
</g>
<!-- Node7&#45;&gt;Node15 -->
<g id="edge22" class="edge">
<title>Node7&#45;&gt;Node15</title>
<path fill="none" stroke="#191970" d="M1040.5253,-647.1948C1163.7474,-643.828 1484,-626.3835 1484,-536 1484,-536 1484,-536 1484,-480 1484,-427.049 1544.6404,-396.2312 1589.064,-380.7591"/>
<polygon fill="#191970" stroke="#191970" points="1590.4482,-383.9872 1598.8317,-377.509 1588.2382,-377.3452 1590.4482,-383.9872"/>
</g>
<!-- Node16 -->
<g id="node17" class="node">
<title>Node16</title>
<polygon fill="#ffffff" stroke="#bfbfbf" points="1708.5,-358.5 1708.5,-377.5 1821.5,-377.5 1821.5,-358.5 1708.5,-358.5"/>
<text text-anchor="middle" x="1765" y="-365.5" font-family="Helvetica,sans-Serif" font-size="10.00" fill="#000000">odp/api/abi/queue.h</text>
</g>
<!-- Node7&#45;&gt;Node16 -->
<g id="edge23" class="edge">
<title>Node7&#45;&gt;Node16</title>
<path fill="none" stroke="#191970" d="M1040.5327,-644.8366C1190.376,-634.2364 1643,-597.1556 1643,-536 1643,-536 1643,-536 1643,-480 1643,-431.9632 1694.9611,-398.9238 1731.0618,-381.766"/>
<polygon fill="#191970" stroke="#191970" points="1732.6655,-384.8815 1740.3115,-377.5474 1729.7607,-378.5126 1732.6655,-384.8815"/>
</g>
<!-- Node17 -->
<g id="node18" class="node">
<title>Node17</title>
<polygon fill="#ffffff" stroke="#bfbfbf" points="868,-358.5 868,-377.5 978,-377.5 978,-358.5 868,-358.5"/>
<text text-anchor="middle" x="923" y="-365.5" font-family="Helvetica,sans-Serif" font-size="10.00" fill="#000000">odp/api/abi/buffer.h</text>
</g>
<!-- Node7&#45;&gt;Node17 -->
<g id="edge24" class="edge">
<title>Node7&#45;&gt;Node17</title>
<path fill="none" stroke="#191970" d="M987.5405,-638.4646C977.2484,-619.5623 956,-575.7274 956,-536 956,-536 956,-536 956,-480 956,-446.051 941.8765,-408.5869 932.1089,-386.7366"/>
<polygon fill="#191970" stroke="#191970" points="935.2552,-385.202 927.8693,-377.6061 928.9063,-388.1501 935.2552,-385.202"/>
</g>
<!-- Node18 -->
<g id="node19" class="node">
<title>Node18</title>
<polygon fill="#ffffff" stroke="#bfbfbf" points="996,-358.5 996,-377.5 1100,-377.5 1100,-358.5 996,-358.5"/>
<text text-anchor="middle" x="1048" y="-365.5" font-family="Helvetica,sans-Serif" font-size="10.00" fill="#000000">odp/api/abi/pool.h</text>
</g>
<!-- Node7&#45;&gt;Node18 -->
<g id="edge25" class="edge">
<title>Node7&#45;&gt;Node18</title>
<path fill="none" stroke="#191970" d="M998.4595,-638.4646C1008.7516,-619.5623 1030,-575.7274 1030,-536 1030,-536 1030,-536 1030,-480 1030,-447.1472 1037.6431,-409.5528 1042.9684,-387.3462"/>
<polygon fill="#191970" stroke="#191970" points="1046.3987,-388.0551 1045.421,-377.5055 1039.6065,-386.3622 1046.3987,-388.0551"/>
</g>
<!-- Node19 -->
<g id="node20" class="node">
<title>Node19</title>
<g id="a_node20"><a xlink:href="api_2spec_2queue_8h.html" target="_top" xlink:title="ODP queue. ">
<polygon fill="#ffffff" stroke="#000000" points="763,-582.5 763,-601.5 883,-601.5 883,-582.5 763,-582.5"/>
<text text-anchor="middle" x="823" y="-589.5" font-family="Helvetica,sans-Serif" font-size="10.00" fill="#000000">odp/api/spec/queue.h</text>
</a>
</g>
</g>
<!-- Node7&#45;&gt;Node19 -->
<g id="edge26" class="edge">
<title>Node7&#45;&gt;Node19</title>
<path fill="none" stroke="#191970" d="M963.776,-638.3733C935.5075,-629.0613 892.5035,-614.8953 861.4656,-604.671"/>
<polygon fill="#191970" stroke="#191970" points="862.4357,-601.3056 851.8427,-601.5011 860.2456,-607.9542 862.4357,-601.3056"/>
</g>
<!-- Node9 -->
<g id="node10" class="node">
<title>Node9</title>
<polygon fill="#ffffff" stroke="#bfbfbf" points="1416,-174 1416,-193 1546,-193 1546,-174 1416,-174"/>
<text text-anchor="middle" x="1481" y="-181" font-family="Helvetica,sans-Serif" font-size="10.00" fill="#000000">odp/api/abi/std_types.h</text>
</g>
<!-- Node8&#45;&gt;Node9 -->
<g id="edge12" class="edge">
<title>Node8&#45;&gt;Node9</title>
<path fill="none" stroke="#191970" d="M1352.75,-235.3906C1378.2939,-225.0554 1419.1009,-208.5447 1447.811,-196.9284"/>
<polygon fill="#191970" stroke="#191970" points="1449.4596,-200.0371 1457.4168,-193.0419 1446.834,-193.5481 1449.4596,-200.0371"/>
</g>
<!-- Node10 -->
<g id="node11" class="node">
<title>Node10</title>
<g id="a_node11"><a xlink:href="api_2spec_2std__types_8h.html" target="_top" xlink:title="Standard C language types and definitions for ODP. ">
<polygon fill="#ffffff" stroke="#000000" points="1260.5,-174 1260.5,-193 1397.5,-193 1397.5,-174 1260.5,-174"/>
<text text-anchor="middle" x="1329" y="-181" font-family="Helvetica,sans-Serif" font-size="10.00" fill="#000000">odp/api/spec/std_types.h</text>
</a>
</g>
</g>
<!-- Node8&#45;&gt;Node10 -->
<g id="edge13" class="edge">
<title>Node8&#45;&gt;Node10</title>
<path fill="none" stroke="#191970" d="M1329,-235.3906C1329,-226.8657 1329,-214.1392 1329,-203.4235"/>
<polygon fill="#191970" stroke="#191970" points="1332.5001,-203.2448 1329,-193.2449 1325.5001,-203.2449 1332.5001,-203.2448"/>
</g>
<!-- Node10&#45;&gt;Node1 -->
<g id="edge14" class="edge">
<title>Node10&#45;&gt;Node1</title>
<path fill="none" stroke="#191970" d="M1260.3644,-182.1041C1092.9887,-178.1948 673.5809,-165.1727 620,-132 586.624,-111.3364 607.7489,-77.6437 575,-56 530.9874,-26.9121 387.0596,-16.121 298.9918,-12.1881"/>
<polygon fill="#191970" stroke="#191970" points="298.9438,-8.6829 288.8034,-11.7525 298.6447,-15.6765 298.9438,-8.6829"/>
</g>
<!-- Node10&#45;&gt;Node4 -->
<g id="edge21" class="edge">
<title>Node10&#45;&gt;Node4</title>
<path fill="none" stroke="#191970" d="M1338.6563,-173.7165C1360.2307,-150.6884 1408.0909,-92.277 1377,-56 1362.1694,-38.6956 1229.2486,-23.5854 1146.3317,-15.7343"/>
<polygon fill="#191970" stroke="#191970" points="1146.5121,-12.236 1136.2297,-14.7901 1145.8606,-19.2056 1146.5121,-12.236"/>
</g>
<!-- Node11 -->
<g id="node12" class="node">
<title>Node11</title>
<polygon fill="#ffffff" stroke="#bfbfbf" points="1424.5,-112.5 1424.5,-131.5 1477.5,-131.5 1477.5,-112.5 1424.5,-112.5"/>
<text text-anchor="middle" x="1451" y="-119.5" font-family="Helvetica,sans-Serif" font-size="10.00" fill="#000000">stdint.h</text>
</g>
<!-- Node10&#45;&gt;Node11 -->
<g id="edge15" class="edge">
<title>Node10&#45;&gt;Node11</title>
<path fill="none" stroke="#191970" d="M1348.0625,-173.8906C1368.1172,-163.7811 1399.8934,-147.7628 1422.8384,-136.1962"/>
<polygon fill="#191970" stroke="#191970" points="1424.7173,-139.1687 1432.0714,-131.5419 1421.5663,-132.918 1424.7173,-139.1687"/>
</g>
<!-- Node12 -->
<g id="node13" class="node">
<title>Node12</title>
<g id="a_node13"><a xlink:href="api_2align_8h.html" target="_top" xlink:title="ODP alignments. ">
<polygon fill="#ffffff" stroke="#000000" points="1269.5,-112.5 1269.5,-131.5 1358.5,-131.5 1358.5,-112.5 1269.5,-112.5"/>
<text text-anchor="middle" x="1314" y="-119.5" font-family="Helvetica,sans-Serif" font-size="10.00" fill="#000000">odp/api/align.h</text>
</a>
</g>
</g>
<!-- Node10&#45;&gt;Node12 -->
<g id="edge16" class="edge">
<title>Node10&#45;&gt;Node12</title>
<path fill="none" stroke="#191970" d="M1326.6563,-173.8906C1324.5551,-165.276 1321.4075,-152.3708 1318.777,-141.5858"/>
<polygon fill="#191970" stroke="#191970" points="1322.1468,-140.6307 1316.3768,-131.7449 1315.3461,-142.2894 1322.1468,-140.6307"/>
</g>
<!-- Node13 -->
<g id="node14" class="node">
<title>Node13</title>
<polygon fill="#ffffff" stroke="#bfbfbf" points="1260.5,-56.5 1260.5,-75.5 1367.5,-75.5 1367.5,-56.5 1260.5,-56.5"/>
<text text-anchor="middle" x="1314" y="-63.5" font-family="Helvetica,sans-Serif" font-size="10.00" fill="#000000">odp/api/abi/align.h</text>
</g>
<!-- Node12&#45;&gt;Node13 -->
<g id="edge17" class="edge">
<title>Node12&#45;&gt;Node13</title>
<path fill="none" stroke="#191970" d="M1314,-112.2455C1314,-104.9382 1314,-94.6944 1314,-85.7046"/>
<polygon fill="#191970" stroke="#191970" points="1317.5001,-85.6426 1314,-75.6427 1310.5001,-85.6427 1317.5001,-85.6426"/>
</g>
<!-- Node14 -->
<g id="node15" class="node">
<title>Node14</title>
<g id="a_node15"><a xlink:href="api_2spec_2align_8h.html" target="_top" xlink:title="ODP alignments. ">
<polygon fill="#ffffff" stroke="#000000" points="938,-56.5 938,-75.5 1052,-75.5 1052,-56.5 938,-56.5"/>
<text text-anchor="middle" x="995" y="-63.5" font-family="Helvetica,sans-Serif" font-size="10.00" fill="#000000">odp/api/spec/align.h</text>
</a>
</g>
</g>
<!-- Node12&#45;&gt;Node14 -->
<g id="edge18" class="edge">
<title>Node12&#45;&gt;Node14</title>
<path fill="none" stroke="#191970" d="M1269.3085,-114.1545C1214.6512,-104.5595 1121.7302,-88.2473 1059.3736,-77.3007"/>
<polygon fill="#191970" stroke="#191970" points="1059.7101,-73.8063 1049.2555,-75.5245 1058.4997,-80.7009 1059.7101,-73.8063"/>
</g>
<!-- Node14&#45;&gt;Node1 -->
<g id="edge19" class="edge">
<title>Node14&#45;&gt;Node1</title>
<path fill="none" stroke="#191970" d="M937.8012,-57.03C934.8277,-56.6587 931.8804,-56.3122 929,-56 699.3164,-31.1091 425.7312,-17.8682 298.9682,-12.6648"/>
<polygon fill="#191970" stroke="#191970" points="298.7635,-9.1537 288.6297,-12.2449 298.4794,-16.1479 298.7635,-9.1537"/>
</g>
<!-- Node14&#45;&gt;Node4 -->
<g id="edge20" class="edge">
<title>Node14&#45;&gt;Node4</title>
<path fill="none" stroke="#191970" d="M1009.8059,-56.2455C1022.7256,-47.7337 1041.6931,-35.2375 1056.6552,-25.3801"/>
<polygon fill="#191970" stroke="#191970" points="1058.9387,-28.067 1065.3638,-19.6427 1055.0876,-22.2216 1058.9387,-28.067"/>
</g>
<!-- Node19&#45;&gt;Node1 -->
<g id="edge27" class="edge">
<title>Node19&#45;&gt;Node1</title>
<path fill="none" stroke="#191970" d="M762.7212,-585.2475C715.6778,-578.7141 649.2582,-566.6822 594,-546 462.4164,-496.7504 76,-323.9983 76,-183.5 76,-183.5 76,-183.5 76,-122 76,-68.8635 136.9479,-38.1127 181.6564,-22.7035"/>
<polygon fill="#191970" stroke="#191970" points="182.8031,-26.0108 191.205,-19.5566 180.612,-19.3626 182.8031,-26.0108"/>
</g>
<!-- Node19&#45;&gt;Node4 -->
<g id="edge63" class="edge">
<title>Node19&#45;&gt;Node4</title>
<path fill="none" stroke="#191970" d="M818.719,-582.276C814.7782,-573.0648 808.9605,-558.7785 805,-546 797.4359,-521.5946 794.9078,-515.3847 792,-490 784.8425,-427.5154 792.3752,-395.3187 843,-358 944.7036,-283.0279 1031.5908,-407.0833 1125,-322 1171.6332,-279.5234 1156,-246.5786 1156,-183.5 1156,-183.5 1156,-183.5 1156,-122 1156,-90.7875 1149.5636,-81.802 1132,-56 1124.1578,-44.4793 1112.7918,-33.9817 1102.6849,-25.9331"/>
<polygon fill="#191970" stroke="#191970" points="1104.6741,-23.0487 1094.5962,-19.7796 1100.4358,-28.6198 1104.6741,-23.0487"/>
</g>
<!-- Node20 -->
<g id="node21" class="node">
<title>Node20</title>
<g id="a_node21"><a xlink:href="api_2event_8h.html" target="_top" xlink:title="ODP event. ">
<polygon fill="#ffffff" stroke="#000000" points="814,-526.5 814,-545.5 906,-545.5 906,-526.5 814,-526.5"/>
<text text-anchor="middle" x="860" y="-533.5" font-family="Helvetica,sans-Serif" font-size="10.00" fill="#000000">odp/api/event.h</text>
</a>
</g>
</g>
<!-- Node19&#45;&gt;Node20 -->
<g id="edge28" class="edge">
<title>Node19&#45;&gt;Node20</title>
<path fill="none" stroke="#191970" d="M829.4449,-582.2455C834.5382,-574.5367 841.7908,-563.5598 847.952,-554.2348"/>
<polygon fill="#191970" stroke="#191970" points="851.0365,-555.9155 853.6289,-545.6427 845.1962,-552.0566 851.0365,-555.9155"/>
</g>
<!-- Node29 -->
<g id="node30" class="node">
<title>Node29</title>
<g id="a_node30"><a xlink:href="queue__types_8h.html" target="_top" xlink:title="ODP queue types. ">
<polygon fill="#ffffff" stroke="#000000" points="309.5,-291.5 309.5,-321.5 420.5,-321.5 420.5,-291.5 309.5,-291.5"/>
<text text-anchor="start" x="317.5" y="-309.5" font-family="Helvetica,sans-Serif" font-size="10.00" fill="#000000">odp/api/spec/queue</text>
<text text-anchor="middle" x="365" y="-298.5" font-family="Helvetica,sans-Serif" font-size="10.00" fill="#000000">_types.h</text>
</a>
</g>
</g>
<!-- Node19&#45;&gt;Node29 -->
<g id="edge50" class="edge">
<title>Node19&#45;&gt;Node29</title>
<path fill="none" stroke="#191970" d="M775.3509,-582.4535C697.8393,-565.5422 553,-527.5762 553,-480 553,-480 553,-480 553,-424 553,-390.9811 468.5534,-349.4424 412.8545,-325.6356"/>
<polygon fill="#191970" stroke="#191970" points="414.0723,-322.3507 403.4983,-321.687 411.3505,-328.7999 414.0723,-322.3507"/>
</g>
<!-- Node20&#45;&gt;Node15 -->
<g id="edge29" class="edge">
<title>Node20&#45;&gt;Node15</title>
<path fill="none" stroke="#191970" d="M903.8879,-526.4862C1036.943,-497.6433 1435.5813,-411.2288 1581.0828,-379.6879"/>
<polygon fill="#191970" stroke="#191970" points="1582.0828,-383.0525 1591.1143,-377.5133 1580.5998,-376.2113 1582.0828,-383.0525"/>
</g>
<!-- Node21 -->
<g id="node22" class="node">
<title>Node21</title>
<g id="a_node22"><a xlink:href="api_2spec_2event_8h.html" target="_top" xlink:title="ODP event. ">
<polygon fill="#ffffff" stroke="#000000" points="801,-470.5 801,-489.5 919,-489.5 919,-470.5 801,-470.5"/>
<text text-anchor="middle" x="860" y="-477.5" font-family="Helvetica,sans-Serif" font-size="10.00" fill="#000000">odp/api/spec/event.h</text>
</a>
</g>
</g>
<!-- Node20&#45;&gt;Node21 -->
<g id="edge30" class="edge">
<title>Node20&#45;&gt;Node21</title>
<path fill="none" stroke="#191970" d="M860,-526.2455C860,-518.9382 860,-508.6944 860,-499.7046"/>
<polygon fill="#191970" stroke="#191970" points="863.5001,-499.6426 860,-489.6427 856.5001,-499.6427 863.5001,-499.6426"/>
</g>
<!-- Node21&#45;&gt;Node1 -->
<g id="edge31" class="edge">
<title>Node21&#45;&gt;Node1</title>
<path fill="none" stroke="#191970" d="M805.1448,-470.499C632.8653,-439.1229 114,-332.2759 114,-183.5 114,-183.5 114,-183.5 114,-122 114,-75.4628 162.9383,-41.828 196.6864,-24.1659"/>
<polygon fill="#191970" stroke="#191970" points="198.3862,-27.2289 205.749,-19.6105 195.2424,-20.9746 198.3862,-27.2289"/>
</g>
<!-- Node21&#45;&gt;Node4 -->
<g id="edge49" class="edge">
<title>Node21&#45;&gt;Node4</title>
<path fill="none" stroke="#191970" d="M856.0885,-470.2715C847.6228,-447.4437 830.5559,-389.9623 859,-358 950.6227,-255.0444 1065.9057,-415.6724 1167,-322 1213.0022,-279.3751 1194,-246.2143 1194,-183.5 1194,-183.5 1194,-183.5 1194,-122 1194,-90.7875 1190.6639,-79.3929 1170,-56 1157.084,-41.3783 1138.4116,-30.7807 1121.4189,-23.4697"/>
<polygon fill="#191970" stroke="#191970" points="1122.2476,-20.0303 1111.6641,-19.5394 1119.6315,-26.5231 1122.2476,-20.0303"/>
</g>
<!-- Node21&#45;&gt;Node22 -->
<g id="edge32" class="edge">
<title>Node21&#45;&gt;Node22</title>
<path fill="none" stroke="#191970" d="M919.0492,-470.9404C986.986,-460.5172 1097.8893,-443.5019 1165.863,-433.0731"/>
<polygon fill="#191970" stroke="#191970" points="1166.6267,-436.4969 1175.9803,-431.5208 1165.5651,-429.5779 1166.6267,-436.4969"/>
</g>
<!-- Node22&#45;&gt;Node8 -->
<g id="edge33" class="edge">
<title>Node22&#45;&gt;Node8</title>
<path fill="none" stroke="#191970" d="M1230.5915,-414.3762C1247.168,-385.8455 1296.2517,-301.3648 1318.1919,-263.6024"/>
<polygon fill="#191970" stroke="#191970" points="1321.3834,-265.0763 1323.3809,-254.6714 1315.3308,-261.5596 1321.3834,-265.0763"/>
</g>
<!-- Node22&#45;&gt;Node15 -->
<g id="edge34" class="edge">
<title>Node22&#45;&gt;Node15</title>
<path fill="none" stroke="#191970" d="M1274.1586,-416.0468C1278.8341,-415.3356 1283.5052,-414.6425 1288,-414 1410.3288,-396.515 1443.7801,-395.8138 1569.8147,-378.135"/>
<polygon fill="#191970" stroke="#191970" points="1570.444,-381.581 1579.8569,-376.7181 1569.4659,-374.6496 1570.444,-381.581"/>
</g>
<!-- Node22&#45;&gt;Node16 -->
<g id="edge37" class="edge">
<title>Node22&#45;&gt;Node16</title>
<path fill="none" stroke="#191970" d="M1274.2262,-420.0984C1358.6797,-413.2132 1536.8382,-397.8542 1698.0428,-378.0613"/>
<polygon fill="#191970" stroke="#191970" points="1698.6501,-381.5129 1708.145,-376.8122 1697.7911,-374.5658 1698.6501,-381.5129"/>
</g>
<!-- Node22&#45;&gt;Node17 -->
<g id="edge38" class="edge">
<title>Node22&#45;&gt;Node17</title>
<path fill="none" stroke="#191970" d="M1175.8063,-414.878C1123.538,-405.1858 1040.8069,-389.845 984.325,-379.3715"/>
<polygon fill="#191970" stroke="#191970" points="984.9179,-375.9219 974.4474,-377.5399 983.6416,-382.8046 984.9179,-375.9219"/>
</g>
<!-- Node22&#45;&gt;Node18 -->
<g id="edge39" class="edge">
<title>Node22&#45;&gt;Node18</title>
<path fill="none" stroke="#191970" d="M1194.5726,-414.3733C1165.0128,-405.021 1119.9774,-390.7725 1087.6305,-380.5385"/>
<polygon fill="#191970" stroke="#191970" points="1088.6203,-377.1807 1078.0303,-377.5011 1086.5087,-383.8546 1088.6203,-377.1807"/>
</g>
<!-- Node23 -->
<g id="node24" class="node">
<title>Node23</title>
<polygon fill="#ffffff" stroke="#bfbfbf" points="1298,-358.5 1298,-377.5 1428,-377.5 1428,-358.5 1298,-358.5"/>
<text text-anchor="middle" x="1363" y="-365.5" font-family="Helvetica,sans-Serif" font-size="10.00" fill="#000000">odp/api/abi/packet_io.h</text>
</g>
<!-- Node22&#45;&gt;Node23 -->
<g id="edge35" class="edge">
<title>Node22&#45;&gt;Node23</title>
<path fill="none" stroke="#191970" d="M1248.723,-414.3733C1271.1737,-405.2629 1305.0739,-391.5062 1330.1255,-381.3404"/>
<polygon fill="#191970" stroke="#191970" points="1331.6365,-384.5045 1339.5865,-377.5011 1329.0043,-378.0182 1331.6365,-384.5045"/>
</g>
<!-- Node24 -->
<g id="node25" class="node">
<title>Node24</title>
<polygon fill="#ffffff" stroke="#bfbfbf" points="1446,-358.5 1446,-377.5 1562,-377.5 1562,-358.5 1446,-358.5"/>
<text text-anchor="middle" x="1504" y="-365.5" font-family="Helvetica,sans-Serif" font-size="10.00" fill="#000000">odp/api/abi/packet.h</text>
</g>
<!-- Node22&#45;&gt;Node24 -->
<g id="edge36" class="edge">
<title>Node22&#45;&gt;Node24</title>
<path fill="none" stroke="#191970" d="M1272.6448,-414.4369C1320.7947,-404.7724 1395.2271,-389.8326 1446.5993,-379.5213"/>
<polygon fill="#191970" stroke="#191970" points="1447.4361,-382.9232 1456.5517,-377.5237 1446.0585,-376.0601 1447.4361,-382.9232"/>
</g>
<!-- Node25 -->
<g id="node26" class="node">
<title>Node25</title>
<g id="a_node26"><a xlink:href="api_2spec_2packet_8h.html" target="_top" xlink:title="ODP packet descriptor. ">
<polygon fill="#ffffff" stroke="#000000" points="1118.5,-358.5 1118.5,-377.5 1241.5,-377.5 1241.5,-358.5 1118.5,-358.5"/>
<text text-anchor="middle" x="1180" y="-365.5" font-family="Helvetica,sans-Serif" font-size="10.00" fill="#000000">odp/api/spec/packet.h</text>
</a>
</g>
</g>
<!-- Node22&#45;&gt;Node25 -->
<g id="edge40" class="edge">
<title>Node22&#45;&gt;Node25</title>
<path fill="none" stroke="#191970" d="M1217.1616,-414.2455C1210.838,-406.3761 1201.7776,-395.101 1194.1864,-385.6542"/>
<polygon fill="#191970" stroke="#191970" points="1196.7408,-383.2454 1187.7486,-377.6427 1191.2842,-387.6302 1196.7408,-383.2454"/>
</g>
<!-- Node25&#45;&gt;Node1 -->
<g id="edge41" class="edge">
<title>Node25&#45;&gt;Node1</title>
<path fill="none" stroke="#191970" d="M1118.2427,-359.0576C942.8856,-333.6061 453.5394,-262.143 438,-255 327.1836,-204.061 282.5269,-186.0726 230,-76 223.1343,-61.6127 223.1375,-43.3808 224.573,-29.7266"/>
<polygon fill="#191970" stroke="#191970" points="228.0818,-29.9062 225.9964,-19.5187 221.1488,-28.9395 228.0818,-29.9062"/>
</g>
<!-- Node25&#45;&gt;Node4 -->
<g id="edge48" class="edge">
<title>Node25&#45;&gt;Node4</title>
<path fill="none" stroke="#191970" d="M1187.2304,-358.3858C1201.5186,-338.4007 1232,-290.4408 1232,-245 1232,-245 1232,-245 1232,-122 1232,-90.7875 1230.1121,-78.029 1208,-56 1191.2418,-39.3048 1167.999,-28.6319 1145.9126,-21.8246"/>
<polygon fill="#191970" stroke="#191970" points="1146.7852,-18.4339 1136.2082,-19.0495 1144.8605,-25.1641 1146.7852,-18.4339"/>
</g>
<!-- Node25&#45;&gt;Node26 -->
<g id="edge42" class="edge">
<title>Node25&#45;&gt;Node26</title>
<path fill="none" stroke="#191970" d="M1157.6563,-358.3906C1133.7297,-348.1005 1095.5691,-331.6888 1068.5784,-320.0809"/>
<polygon fill="#191970" stroke="#191970" points="1069.7561,-316.7775 1059.1869,-316.0419 1066.9905,-323.208 1069.7561,-316.7775"/>
</g>
<!-- Node26&#45;&gt;Node8 -->
<g id="edge43" class="edge">
<title>Node26&#45;&gt;Node8</title>
<path fill="none" stroke="#191970" d="M1080.7154,-297.2928C1132.0885,-286.4728 1217.4162,-268.5014 1273.4371,-256.7025"/>
<polygon fill="#191970" stroke="#191970" points="1274.4776,-260.0602 1283.5416,-254.5743 1273.0349,-253.2105 1274.4776,-260.0602"/>
</g>
<!-- Node27 -->
<g id="node28" class="node">
<title>Node27</title>
<polygon fill="#ffffff" stroke="#bfbfbf" points="984.5,-235.5 984.5,-254.5 1089.5,-254.5 1089.5,-235.5 984.5,-235.5"/>
<text text-anchor="middle" x="1037" y="-242.5" font-family="Helvetica,sans-Serif" font-size="10.00" fill="#000000">odp/api/abi/time.h</text>
</g>
<!-- Node26&#45;&gt;Node27 -->
<g id="edge44" class="edge">
<title>Node26&#45;&gt;Node27</title>
<path fill="none" stroke="#191970" d="M1037,-296.8906C1037,-288.3657 1037,-275.6392 1037,-264.9235"/>
<polygon fill="#191970" stroke="#191970" points="1040.5001,-264.7448 1037,-254.7449 1033.5001,-264.7449 1040.5001,-264.7448"/>
</g>
<!-- Node28 -->
<g id="node29" class="node">
<title>Node28</title>
<g id="a_node29"><a xlink:href="api_2spec_2time_8h.html" target="_top" xlink:title="ODP time. ">
<polygon fill="#ffffff" stroke="#000000" points="806.5,-56.5 806.5,-75.5 919.5,-75.5 919.5,-56.5 806.5,-56.5"/>
<text text-anchor="middle" x="863" y="-63.5" font-family="Helvetica,sans-Serif" font-size="10.00" fill="#000000">odp/api/spec/time.h</text>
</a>
</g>
</g>
<!-- Node26&#45;&gt;Node28 -->
<g id="edge45" class="edge">
<title>Node26&#45;&gt;Node28</title>
<path fill="none" stroke="#191970" d="M1023.2597,-296.974C1010.0916,-287.3948 990.1785,-271.6888 976,-255 928.4645,-199.0485 888.6573,-120.6829 871.734,-85.0187"/>
<polygon fill="#191970" stroke="#191970" points="874.8139,-83.3425 867.4059,-75.7681 868.4736,-86.3091 874.8139,-83.3425"/>
</g>
<!-- Node28&#45;&gt;Node1 -->
<g id="edge46" class="edge">
<title>Node28&#45;&gt;Node1</title>
<path fill="none" stroke="#191970" d="M806.3347,-60.4535C790.9775,-58.977 774.354,-57.4032 759,-56 594.1851,-40.9377 400.4738,-24.4684 298.6946,-15.9105"/>
<polygon fill="#191970" stroke="#191970" points="298.7964,-12.4068 288.5384,-15.0571 298.2102,-19.3822 298.7964,-12.4068"/>
</g>
<!-- Node28&#45;&gt;Node4 -->
<g id="edge47" class="edge">
<title>Node28&#45;&gt;Node4</title>
<path fill="none" stroke="#191970" d="M900.3036,-56.3733C937.1685,-46.8598 993.666,-32.2797 1033.4506,-22.0127"/>
<polygon fill="#191970" stroke="#191970" points="1034.375,-25.3889 1043.1831,-19.5011 1032.6258,-18.611 1034.375,-25.3889"/>
</g>
<!-- Node29&#45;&gt;Node1 -->
<g id="edge51" class="edge">
<title>Node29&#45;&gt;Node1</title>
<path fill="none" stroke="#191970" d="M357.7637,-291.4793C350.1667,-276.4449 337.3473,-253.0203 323,-235 263.055,-159.7085 204.2662,-167.9959 176,-76 173.3893,-67.5031 172.3489,-64.1044 176,-56 181.5697,-43.6369 192.2863,-33.2563 202.5506,-25.5033"/>
<polygon fill="#191970" stroke="#191970" points="204.7618,-28.2277 210.9433,-19.623 200.7451,-22.4948 204.7618,-28.2277"/>
</g>
<!-- Node29&#45;&gt;Node2 -->
<g id="edge61" class="edge">
<title>Node29&#45;&gt;Node2</title>
<path fill="none" stroke="#191970" d="M337.8463,-291.4554C320.3005,-281.734 297.5878,-269.15 280.2279,-259.5317"/>
<polygon fill="#191970" stroke="#191970" points="281.6445,-256.3153 271.2011,-254.5303 278.252,-262.4383 281.6445,-256.3153"/>
</g>
<!-- Node29&#45;&gt;Node4 -->
<g id="edge62" class="edge">
<title>Node29&#45;&gt;Node4</title>
<path fill="none" stroke="#191970" d="M420.6701,-296.4917C467.8338,-287.4428 537.0009,-272.8254 596,-255 807.9862,-190.9527 911.3819,-239.2624 1061,-76 1072.442,-63.5145 1077.0362,-44.5675 1078.859,-30.1719"/>
<polygon fill="#191970" stroke="#191970" points="1082.381,-30.09 1079.8047,-19.8132 1075.41,-29.4536 1082.381,-30.09"/>
</g>
<!-- Node30 -->
<g id="node31" class="node">
<title>Node30</title>
<g id="a_node31"><a xlink:href="api_2schedule__types_8h.html" target="_top" xlink:title="ODP schedule. ">
<polygon fill="#ffffff" stroke="#000000" points="447,-235.5 447,-254.5 587,-254.5 587,-235.5 447,-235.5"/>
<text text-anchor="middle" x="517" y="-242.5" font-family="Helvetica,sans-Serif" font-size="10.00" fill="#000000">odp/api/schedule_types.h</text>
</a>
</g>
</g>
<!-- Node29&#45;&gt;Node30 -->
<g id="edge52" class="edge">
<title>Node29&#45;&gt;Node30</title>
<path fill="none" stroke="#191970" d="M402.1834,-291.4554C427.2113,-281.329 459.9163,-268.0964 484.0166,-258.3453"/>
<polygon fill="#191970" stroke="#191970" points="485.4882,-261.5256 493.4454,-254.5303 482.8627,-255.0366 485.4882,-261.5256"/>
</g>
<!-- Node31 -->
<g id="node32" class="node">
<title>Node31</title>
<polygon fill="#ffffff" stroke="#bfbfbf" points="458.5,-168.5 458.5,-198.5 575.5,-198.5 575.5,-168.5 458.5,-168.5"/>
<text text-anchor="start" x="466.5" y="-186.5" font-family="Helvetica,sans-Serif" font-size="10.00" fill="#000000">odp/api/abi/schedule</text>
<text text-anchor="middle" x="517" y="-175.5" font-family="Helvetica,sans-Serif" font-size="10.00" fill="#000000">_types.h</text>
</g>
<!-- Node30&#45;&gt;Node31 -->
<g id="edge53" class="edge">
<title>Node30&#45;&gt;Node31</title>
<path fill="none" stroke="#191970" d="M517,-235.3906C517,-228.2234 517,-218.0862 517,-208.671"/>
<polygon fill="#191970" stroke="#191970" points="520.5001,-208.5446 517,-198.5446 513.5001,-208.5446 520.5001,-208.5446"/>
</g>
<!-- Node32 -->
<g id="node33" class="node">
<title>Node32</title>
<g id="a_node33"><a xlink:href="api_2spec_2schedule__types_8h.html" target="_top" xlink:title="ODP schedule types. ">
<polygon fill="#ffffff" stroke="#000000" points="601.5,-168.5 601.5,-198.5 726.5,-198.5 726.5,-168.5 601.5,-168.5"/>
<text text-anchor="start" x="609.5" y="-186.5" font-family="Helvetica,sans-Serif" font-size="10.00" fill="#000000">odp/api/spec/schedule</text>
<text text-anchor="middle" x="664" y="-175.5" font-family="Helvetica,sans-Serif" font-size="10.00" fill="#000000">_types.h</text>
</a>
</g>
</g>
<!-- Node30&#45;&gt;Node32 -->
<g id="edge54" class="edge">
<title>Node30&#45;&gt;Node32</title>
<path fill="none" stroke="#191970" d="M539.9688,-235.3906C560.9687,-226.6049 592.6352,-213.3567 618.7145,-202.446"/>
<polygon fill="#191970" stroke="#191970" points="620.1654,-205.633 628.0398,-198.5446 617.4637,-199.1754 620.1654,-205.633"/>
</g>
<!-- Node32&#45;&gt;Node1 -->
<g id="edge55" class="edge">
<title>Node32&#45;&gt;Node1</title>
<path fill="none" stroke="#191970" d="M601.087,-170.8639C490.9745,-148.2296 272.5271,-100.8222 247,-76 234.602,-63.9443 230.1535,-44.3654 228.6264,-29.6569"/>
<polygon fill="#191970" stroke="#191970" points="232.1108,-29.3052 227.9449,-19.5638 225.1267,-29.7769 232.1108,-29.3052"/>
</g>
<!-- Node32&#45;&gt;Node4 -->
<g id="edge60" class="edge">
<title>Node32&#45;&gt;Node4</title>
<path fill="none" stroke="#191970" d="M690.1169,-168.3742C705.2494,-158.9486 724.1777,-145.9809 739,-132 770.107,-102.6589 761.2394,-77.845 798,-56 833.4629,-34.9262 941.877,-21.8188 1013.4825,-15.2216"/>
<polygon fill="#191970" stroke="#191970" points="1014.1214,-18.6784 1023.7671,-14.2954 1013.4934,-11.7066 1014.1214,-18.6784"/>
</g>
<!-- Node33 -->
<g id="node34" class="node">
<title>Node33</title>
<g id="a_node34"><a xlink:href="support_8h.html" target="_top" xlink:title="ODP support API &#45; platform specific header. ">
<polygon fill="#ffffff" stroke="#000000" points="628.5,-112.5 628.5,-131.5 729.5,-131.5 729.5,-112.5 628.5,-112.5"/>
<text text-anchor="middle" x="679" y="-119.5" font-family="Helvetica,sans-Serif" font-size="10.00" fill="#000000">odp/api/support.h</text>
</a>
</g>
</g>
<!-- Node32&#45;&gt;Node33 -->
<g id="edge56" class="edge">
<title>Node32&#45;&gt;Node33</title>
<path fill="none" stroke="#191970" d="M667.7079,-168.2977C669.6599,-160.2945 672.077,-150.3843 674.1734,-141.7889"/>
<polygon fill="#191970" stroke="#191970" points="677.629,-142.3915 676.5983,-131.8469 670.8284,-140.7328 677.629,-142.3915"/>
</g>
<!-- Node34 -->
<g id="node35" class="node">
<title>Node34</title>
<g id="a_node35"><a xlink:href="spec_2support_8h.html" target="_top" xlink:title="ODP support API. ">
<polygon fill="#ffffff" stroke="#000000" points="622.5,-56.5 622.5,-75.5 749.5,-75.5 749.5,-56.5 622.5,-56.5"/>
<text text-anchor="middle" x="686" y="-63.5" font-family="Helvetica,sans-Serif" font-size="10.00" fill="#000000">odp/api/spec/support.h</text>
</a>
</g>
</g>
<!-- Node33&#45;&gt;Node34 -->
<g id="edge57" class="edge">
<title>Node33&#45;&gt;Node34</title>
<path fill="none" stroke="#191970" d="M680.2193,-112.2455C681.1327,-104.9382 682.4132,-94.6944 683.5369,-85.7046"/>
<polygon fill="#191970" stroke="#191970" points="687.0272,-85.9996 684.7947,-75.6427 680.0813,-85.1313 687.0272,-85.9996"/>
</g>
<!-- Node34&#45;&gt;Node1 -->
<g id="edge58" class="edge">
<title>Node34&#45;&gt;Node1</title>
<path fill="none" stroke="#191970" d="M622.1539,-57.7774C617.3648,-57.172 612.6062,-56.5741 608,-56 500.0816,-42.5504 374.8489,-27.4981 298.541,-18.3886"/>
<polygon fill="#191970" stroke="#191970" points="298.9089,-14.9077 288.5646,-17.1982 298.0795,-21.8584 298.9089,-14.9077"/>
</g>
<!-- Node34&#45;&gt;Node4 -->
<g id="edge59" class="edge">
<title>Node34&#45;&gt;Node4</title>
<path fill="none" stroke="#191970" d="M749.7408,-56.9404C822.2324,-46.637 940.0443,-29.8922 1013.6162,-19.4353"/>
<polygon fill="#191970" stroke="#191970" points="1014.2866,-22.8752 1023.6946,-18.0028 1013.3016,-15.9449 1014.2866,-22.8752"/>
</g>
<!-- Node36 -->
<g id="node37" class="node">
<title>Node36</title>
<g id="a_node37"><a xlink:href="spec_2reassembly_8h.html" target="_top" xlink:title="ODP REASSEMBLY API. ">
<polygon fill="#ffffff" stroke="#000000" points="256,-56.5 256,-75.5 402,-75.5 402,-56.5 256,-56.5"/>
<text text-anchor="middle" x="329" y="-63.5" font-family="Helvetica,sans-Serif" font-size="10.00" fill="#000000">odp/api/spec/reassembly.h</text>
</a>
</g>
</g>
<!-- Node35&#45;&gt;Node36 -->
<g id="edge67" class="edge">
<title>Node35&#45;&gt;Node36</title>
<path fill="none" stroke="#191970" d="M118.5688,-761.4618C121.8215,-740.8289 129,-690.482 129,-648 129,-648 129,-648 129,-368 129,-239.2983 256.8253,-123.3626 308.095,-82.0378"/>
<polygon fill="#191970" stroke="#191970" points="310.5213,-84.5809 316.1849,-75.6269 306.1736,-79.0947 310.5213,-84.5809"/>
</g>
<!-- Node36&#45;&gt;Node1 -->
<g id="edge68" class="edge">
<title>Node36&#45;&gt;Node1</title>
<path fill="none" stroke="#191970" d="M311.4071,-56.2455C295.621,-47.4928 272.2361,-34.527 254.2413,-24.5496"/>
<polygon fill="#191970" stroke="#191970" points="255.8341,-21.4308 245.3913,-19.6427 252.4397,-27.5528 255.8341,-21.4308"/>
</g>
<!-- Node36&#45;&gt;Node4 -->
<g id="edge69" class="edge">
<title>Node36&#45;&gt;Node4</title>
<path fill="none" stroke="#191970" d="M402.2985,-56.9627C405.5757,-56.6237 408.8211,-56.3008 412,-56 631.8448,-35.2006 893.2412,-19.9404 1013.4698,-13.4515"/>
<polygon fill="#191970" stroke="#191970" points="1013.82,-16.9378 1023.6179,-12.9065 1013.4446,-9.9479 1013.82,-16.9378"/>
</g>
</g>
</svg>
