<?xml version="1.0" encoding="UTF-8" standalone="no"?>
<!DOCTYPE svg PUBLIC "-//W3C//DTD SVG 1.1//EN"
 "http://www.w3.org/Graphics/SVG/1.1/DTD/svg11.dtd">
<!-- Generated by graphviz version 2.40.1 (20161225.0304)
 -->
<!-- Title: packet.h Pages: 1 -->
<svg width="688pt" height="868pt"
 viewBox="0.00 0.00 687.50 868.00" xmlns="http://www.w3.org/2000/svg" xmlns:xlink="http://www.w3.org/1999/xlink">
<g id="graph0" class="graph" transform="scale(1 1) rotate(0) translate(4 864)">
<title>packet.h</title>
<polygon fill="#ffffff" stroke="transparent" points="-4,4 -4,-864 683.5,-864 683.5,4 -4,4"/>
<!-- Node13 -->
<g id="node1" class="node">
<title>Node13</title>
<polygon fill="#bfbfbf" stroke="#000000" points="215.5,-840.5 215.5,-859.5 274.5,-859.5 274.5,-840.5 215.5,-840.5"/>
<text text-anchor="middle" x="245" y="-847.5" font-family="Helvetica,sans-Serif" font-size="10.00" fill="#000000">packet.h</text>
</g>
<!-- Node14 -->
<g id="node2" class="node">
<title>Node14</title>
<g id="a_node2"><a xlink:href="api_2packet_8h.html" target="_top" xlink:title="ODP packet descriptor. ">
<polygon fill="#ffffff" stroke="#000000" points="215.5,-784.5 215.5,-803.5 274.5,-803.5 274.5,-784.5 215.5,-784.5"/>
<text text-anchor="middle" x="245" y="-791.5" font-family="Helvetica,sans-Serif" font-size="10.00" fill="#000000">packet.h</text>
</a>
</g>
</g>
<!-- Node13&#45;&gt;Node14 -->
<g id="edge1" class="edge">
<title>Node13&#45;&gt;Node14</title>
<path fill="none" stroke="#191970" d="M245,-830.1575C245,-821.155 245,-810.9199 245,-803.6427"/>
<polygon fill="#191970" stroke="#191970" points="241.5001,-830.2455 245,-840.2455 248.5001,-830.2456 241.5001,-830.2455"/>
</g>
<!-- Node15 -->
<g id="node3" class="node">
<title>Node15</title>
<g id="a_node3"><a xlink:href="api_2spec_2comp_8h.html" target="_top" xlink:title="ODP Compression. ">
<polygon fill="#ffffff" stroke="#000000" points="56.5,-728.5 56.5,-747.5 109.5,-747.5 109.5,-728.5 56.5,-728.5"/>
<text text-anchor="middle" x="83" y="-735.5" font-family="Helvetica,sans-Serif" font-size="10.00" fill="#000000">comp.h</text>
</a>
</g>
</g>
<!-- Node14&#45;&gt;Node15 -->
<g id="edge2" class="edge">
<title>Node14&#45;&gt;Node15</title>
<path fill="none" stroke="#191970" d="M207.4664,-781.0254C177.526,-770.6757 136.3278,-756.4343 109.6794,-747.2225"/>
<polygon fill="#191970" stroke="#191970" points="206.5564,-784.414 217.1512,-784.3733 208.8435,-777.7982 206.5564,-784.414"/>
</g>
<!-- Node17 -->
<g id="node5" class="node">
<title>Node17</title>
<g id="a_node5"><a xlink:href="odp__api_8h.html" target="_top" xlink:title="The OpenDataPlane API. ">
<polygon fill="#ffffff" stroke="#000000" points="287,-56.5 287,-75.5 351,-75.5 351,-56.5 287,-56.5"/>
<text text-anchor="middle" x="319" y="-63.5" font-family="Helvetica,sans-Serif" font-size="10.00" fill="#000000">odp_api.h</text>
</a>
</g>
</g>
<!-- Node14&#45;&gt;Node17 -->
<g id="edge42" class="edge">
<title>Node14&#45;&gt;Node17</title>
<path fill="none" stroke="#191970" d="M205.0212,-788.1392C154.9224,-780.216 72.5269,-765.0964 47,-748 17.0796,-727.9611 0,-718.011 0,-682 0,-682 0,-682 0,-178 0,-136.201 29.9093,-131.2728 67,-112 104.8848,-92.3145 227.6924,-76.2823 286.7284,-69.4965"/>
<polygon fill="#191970" stroke="#191970" points="204.7707,-791.6422 215.1894,-789.7188 205.8453,-784.7252 204.7707,-791.6422"/>
</g>
<!-- Node19 -->
<g id="node7" class="node">
<title>Node19</title>
<g id="a_node7"><a xlink:href="api_2spec_2crypto_8h.html" target="_top" xlink:title="ODP crypto. ">
<polygon fill="#ffffff" stroke="#000000" points="257,-560.5 257,-579.5 313,-579.5 313,-560.5 257,-560.5"/>
<text text-anchor="middle" x="285" y="-567.5" font-family="Helvetica,sans-Serif" font-size="10.00" fill="#000000">crypto.h</text>
</a>
</g>
</g>
<!-- Node14&#45;&gt;Node19 -->
<g id="edge6" class="edge">
<title>Node14&#45;&gt;Node19</title>
<path fill="none" stroke="#191970" d="M248.4979,-774.4119C256.7579,-728.1557 277.2332,-613.494 283.2877,-579.5891"/>
<polygon fill="#191970" stroke="#191970" points="245.0312,-773.9154 246.7188,-784.375 251.9222,-775.146 245.0312,-773.9154"/>
</g>
<!-- Node23 -->
<g id="node11" class="node">
<title>Node23</title>
<g id="a_node11"><a xlink:href="api_2spec_2event_8h.html" target="_top" xlink:title="ODP event. ">
<polygon fill="#ffffff" stroke="#000000" points="303.5,-728.5 303.5,-747.5 356.5,-747.5 356.5,-728.5 303.5,-728.5"/>
<text text-anchor="middle" x="330" y="-735.5" font-family="Helvetica,sans-Serif" font-size="10.00" fill="#000000">event.h</text>
</a>
</g>
</g>
<!-- Node14&#45;&gt;Node23 -->
<g id="edge12" class="edge">
<title>Node14&#45;&gt;Node23</title>
<path fill="none" stroke="#191970" d="M268.5419,-778.49C283.539,-768.6096 302.4973,-756.1194 315.3638,-747.6427"/>
<polygon fill="#191970" stroke="#191970" points="266.2309,-775.8212 259.8059,-784.2455 270.0821,-781.6666 266.2309,-775.8212"/>
</g>
<!-- Node27 -->
<g id="node15" class="node">
<title>Node27</title>
<g id="a_node15"><a xlink:href="api_2spec_2packet__io_8h.html" target="_top" xlink:title="ODP Packet IO. ">
<polygon fill="#ffffff" stroke="#000000" points="196.5,-392.5 196.5,-411.5 269.5,-411.5 269.5,-392.5 196.5,-392.5"/>
<text text-anchor="middle" x="233" y="-399.5" font-family="Helvetica,sans-Serif" font-size="10.00" fill="#000000">packet_io.h</text>
</a>
</g>
</g>
<!-- Node14&#45;&gt;Node27 -->
<g id="edge41" class="edge">
<title>Node14&#45;&gt;Node27</title>
<path fill="none" stroke="#191970" d="M223.5498,-777.6826C200.1555,-757.857 166,-722.0534 166,-682 166,-682 166,-682 166,-514 166,-483.4754 169.215,-474.1264 185,-448 193.9531,-433.1813 208.8938,-419.9355 219.7315,-411.5068"/>
<polygon fill="#191970" stroke="#191970" points="221.6358,-780.6378 231.5987,-784.2421 226.058,-775.2115 221.6358,-780.6378"/>
</g>
<!-- Node37 -->
<g id="node25" class="node">
<title>Node37</title>
<g id="a_node25"><a xlink:href="api_2spec_2packet__flags_8h.html" target="_top" xlink:title="ODP packet flags. ">
<polygon fill="#ffffff" stroke="#000000" points="554.5,-672.5 554.5,-691.5 641.5,-691.5 641.5,-672.5 554.5,-672.5"/>
<text text-anchor="middle" x="598" y="-679.5" font-family="Helvetica,sans-Serif" font-size="10.00" fill="#000000">packet_flags.h</text>
</a>
</g>
</g>
<!-- Node14&#45;&gt;Node37 -->
<g id="edge38" class="edge">
<title>Node14&#45;&gt;Node37</title>
<path fill="none" stroke="#191970" d="M284.7385,-781.3918C356.0629,-758.7619 504.2803,-711.7354 567.9129,-691.546"/>
<polygon fill="#191970" stroke="#191970" points="283.2656,-778.1871 274.7924,-784.5475 285.3826,-784.8593 283.2656,-778.1871"/>
</g>
<!-- Node16 -->
<g id="node4" class="node">
<title>Node16</title>
<g id="a_node4"><a xlink:href="api_2comp_8h.html" target="_top" xlink:title="ODP crypto. ">
<polygon fill="#ffffff" stroke="#000000" points="35.5,-616.5 35.5,-635.5 88.5,-635.5 88.5,-616.5 35.5,-616.5"/>
<text text-anchor="middle" x="62" y="-623.5" font-family="Helvetica,sans-Serif" font-size="10.00" fill="#000000">comp.h</text>
</a>
</g>
</g>
<!-- Node15&#45;&gt;Node16 -->
<g id="edge3" class="edge">
<title>Node15&#45;&gt;Node16</title>
<path fill="none" stroke="#191970" d="M79.3623,-718.5987C74.8181,-694.363 67.2228,-653.8551 63.7859,-635.5249"/>
<polygon fill="#191970" stroke="#191970" points="75.9265,-719.2673 81.2096,-728.4509 82.8066,-717.9772 75.9265,-719.2673"/>
</g>
<!-- Node16&#45;&gt;Node17 -->
<g id="edge4" class="edge">
<title>Node16&#45;&gt;Node17</title>
<path fill="none" stroke="#191970" d="M55.2788,-606.7316C48.1789,-584.6263 38,-547.1535 38,-514 38,-514 38,-514 38,-178 38,-131.5625 77.2847,-132.4029 119,-112 174.2098,-84.9969 245.8247,-73.4987 286.6685,-68.8707"/>
<polygon fill="#191970" stroke="#191970" points="51.9736,-607.8843 58.4587,-616.2625 58.6138,-605.6688 51.9736,-607.8843"/>
</g>
<!-- Node18 -->
<g id="node6" class="node">
<title>Node18</title>
<g id="a_node6"><a xlink:href="odp_8h.html" target="_top" xlink:title="WARNING: THIS FILE IS DEPRECATED AND WILL BE REMOVED!!! ODP APPLICATIONS SHOULD NOW INCLUDE odp_api...">
<polygon fill="#ffffff" stroke="#000000" points="297,-.5 297,-19.5 341,-19.5 341,-.5 297,-.5"/>
<text text-anchor="middle" x="319" y="-7.5" font-family="Helvetica,sans-Serif" font-size="10.00" fill="#000000">odp.h</text>
</a>
</g>
</g>
<!-- Node17&#45;&gt;Node18 -->
<g id="edge5" class="edge">
<title>Node17&#45;&gt;Node18</title>
<path fill="none" stroke="#191970" d="M319,-46.1575C319,-37.155 319,-26.9199 319,-19.6427"/>
<polygon fill="#191970" stroke="#191970" points="315.5001,-46.2455 319,-56.2455 322.5001,-46.2456 315.5001,-46.2455"/>
</g>
<!-- Node20 -->
<g id="node8" class="node">
<title>Node20</title>
<g id="a_node8"><a xlink:href="api_2crypto_8h.html" target="_top" xlink:title="ODP crypto. ">
<polygon fill="#ffffff" stroke="#000000" points="344,-392.5 344,-411.5 400,-411.5 400,-392.5 344,-392.5"/>
<text text-anchor="middle" x="372" y="-399.5" font-family="Helvetica,sans-Serif" font-size="10.00" fill="#000000">crypto.h</text>
</a>
</g>
</g>
<!-- Node19&#45;&gt;Node20 -->
<g id="edge7" class="edge">
<title>Node19&#45;&gt;Node20</title>
<path fill="none" stroke="#191970" d="M294.7416,-551.1887C313.2355,-515.4762 352.8399,-438.9988 366.9106,-411.8279"/>
<polygon fill="#191970" stroke="#191970" points="291.4174,-549.9968 289.9268,-560.4862 297.6333,-553.2158 291.4174,-549.9968"/>
</g>
<!-- Node20&#45;&gt;Node17 -->
<g id="edge11" class="edge">
<title>Node20&#45;&gt;Node17</title>
<path fill="none" stroke="#191970" d="M379.8415,-382.8271C388.1246,-360.8089 400,-323.4152 400,-290 400,-290 400,-290 400,-178 400,-132.6463 355.8502,-93.2135 332.7405,-75.6795"/>
<polygon fill="#191970" stroke="#191970" points="376.5132,-381.7281 376.1315,-392.3161 383.0326,-384.2771 376.5132,-381.7281"/>
</g>
<!-- Node21 -->
<g id="node9" class="node">
<title>Node21</title>
<g id="a_node9"><a xlink:href="api_2spec_2ipsec_8h.html" target="_top" xlink:title="ODP IPSEC API. ">
<polygon fill="#ffffff" stroke="#000000" points="239.5,-168.5 239.5,-187.5 290.5,-187.5 290.5,-168.5 239.5,-168.5"/>
<text text-anchor="middle" x="265" y="-175.5" font-family="Helvetica,sans-Serif" font-size="10.00" fill="#000000">ipsec.h</text>
</a>
</g>
</g>
<!-- Node20&#45;&gt;Node21 -->
<g id="edge8" class="edge">
<title>Node20&#45;&gt;Node21</title>
<path fill="none" stroke="#191970" d="M373.9227,-382.1609C376.2886,-347.0354 376.5009,-272.9968 343,-224 330.4887,-205.7015 308.0973,-193.6054 290.5047,-186.4304"/>
<polygon fill="#191970" stroke="#191970" points="370.4049,-382.2381 373.0833,-392.4888 377.3819,-382.8052 370.4049,-382.2381"/>
</g>
<!-- Node22 -->
<g id="node10" class="node">
<title>Node22</title>
<g id="a_node10"><a xlink:href="api_2ipsec_8h.html" target="_top" xlink:title="ODP IPSEC API &#45; platform specific header. ">
<polygon fill="#ffffff" stroke="#000000" points="239.5,-112.5 239.5,-131.5 290.5,-131.5 290.5,-112.5 239.5,-112.5"/>
<text text-anchor="middle" x="265" y="-119.5" font-family="Helvetica,sans-Serif" font-size="10.00" fill="#000000">ipsec.h</text>
</a>
</g>
</g>
<!-- Node21&#45;&gt;Node22 -->
<g id="edge9" class="edge">
<title>Node21&#45;&gt;Node22</title>
<path fill="none" stroke="#191970" d="M265,-158.1575C265,-149.155 265,-138.9199 265,-131.6427"/>
<polygon fill="#191970" stroke="#191970" points="261.5001,-158.2455 265,-168.2455 268.5001,-158.2456 261.5001,-158.2455"/>
</g>
<!-- Node22&#45;&gt;Node17 -->
<g id="edge10" class="edge">
<title>Node22&#45;&gt;Node17</title>
<path fill="none" stroke="#191970" d="M281.5969,-104.7884C290.8347,-95.2085 301.9904,-83.6396 309.7017,-75.6427"/>
<polygon fill="#191970" stroke="#191970" points="278.828,-102.6176 274.4061,-112.2455 283.8669,-107.4766 278.828,-102.6176"/>
</g>
<!-- Node24 -->
<g id="node12" class="node">
<title>Node24</title>
<g id="a_node12"><a xlink:href="api_2event_8h.html" target="_top" xlink:title="ODP event. ">
<polygon fill="#ffffff" stroke="#000000" points="426.5,-672.5 426.5,-691.5 479.5,-691.5 479.5,-672.5 426.5,-672.5"/>
<text text-anchor="middle" x="453" y="-679.5" font-family="Helvetica,sans-Serif" font-size="10.00" fill="#000000">event.h</text>
</a>
</g>
</g>
<!-- Node23&#45;&gt;Node24 -->
<g id="edge13" class="edge">
<title>Node23&#45;&gt;Node24</title>
<path fill="none" stroke="#191970" d="M360.5065,-724.1109C382.8112,-713.9559 412.4799,-700.4482 432.1315,-691.5011"/>
<polygon fill="#191970" stroke="#191970" points="358.7953,-721.0442 351.1445,-728.3733 361.6959,-727.415 358.7953,-721.0442"/>
</g>
<!-- Node24&#45;&gt;Node17 -->
<g id="edge37" class="edge">
<title>Node24&#45;&gt;Node17</title>
<path fill="none" stroke="#191970" d="M483.376,-667.675C516.2396,-649.8231 564,-615.971 564,-570 564,-570 564,-570 564,-178 564,-129.4659 520.3557,-133.8137 477,-112 435.9108,-91.3266 384.0115,-78.4624 351.1509,-71.7617"/>
<polygon fill="#191970" stroke="#191970" points="481.3889,-664.7638 474.1395,-672.4901 484.6249,-670.9709 481.3889,-664.7638"/>
</g>
<!-- Node25 -->
<g id="node13" class="node">
<title>Node25</title>
<g id="a_node13"><a xlink:href="api_2spec_2queue_8h.html" target="_top" xlink:title="ODP queue. ">
<polygon fill="#ffffff" stroke="#000000" points="394,-616.5 394,-635.5 450,-635.5 450,-616.5 394,-616.5"/>
<text text-anchor="middle" x="422" y="-623.5" font-family="Helvetica,sans-Serif" font-size="10.00" fill="#000000">queue.h</text>
</a>
</g>
</g>
<!-- Node24&#45;&gt;Node25 -->
<g id="edge14" class="edge">
<title>Node24&#45;&gt;Node25</title>
<path fill="none" stroke="#191970" d="M442.6688,-663.3372C437.5335,-654.0605 431.5434,-643.2398 427.3379,-635.6427"/>
<polygon fill="#191970" stroke="#191970" points="439.6949,-665.1917 447.6002,-672.2455 445.8191,-661.8015 439.6949,-665.1917"/>
</g>
<!-- Node35 -->
<g id="node23" class="node">
<title>Node35</title>
<g id="a_node23"><a xlink:href="api_2spec_2schedule_8h.html" target="_top" xlink:title="ODP schedule. ">
<polygon fill="#ffffff" stroke="#000000" points="466.5,-504.5 466.5,-523.5 535.5,-523.5 535.5,-504.5 466.5,-504.5"/>
<text text-anchor="middle" x="501" y="-511.5" font-family="Helvetica,sans-Serif" font-size="10.00" fill="#000000">schedule.h</text>
</a>
</g>
</g>
<!-- Node24&#45;&gt;Node35 -->
<g id="edge36" class="edge">
<title>Node24&#45;&gt;Node35</title>
<path fill="none" stroke="#191970" d="M458.5067,-662.7267C468.7655,-626.8207 490.4622,-550.8822 498.192,-523.8279"/>
<polygon fill="#191970" stroke="#191970" points="455.1002,-661.9094 455.7182,-672.4862 461.8308,-663.8325 455.1002,-661.9094"/>
</g>
<!-- Node26 -->
<g id="node14" class="node">
<title>Node26</title>
<g id="a_node14"><a xlink:href="api_2queue_8h.html" target="_top" xlink:title="ODP queue. ">
<polygon fill="#ffffff" stroke="#000000" points="383,-560.5 383,-579.5 439,-579.5 439,-560.5 383,-560.5"/>
<text text-anchor="middle" x="411" y="-567.5" font-family="Helvetica,sans-Serif" font-size="10.00" fill="#000000">queue.h</text>
</a>
</g>
</g>
<!-- Node25&#45;&gt;Node26 -->
<g id="edge15" class="edge">
<title>Node25&#45;&gt;Node26</title>
<path fill="none" stroke="#191970" d="M418.1024,-606.1575C416.334,-597.155 414.3235,-586.9199 412.8941,-579.6427"/>
<polygon fill="#191970" stroke="#191970" points="414.722,-607.1077 420.0839,-616.2455 421.5908,-605.7584 414.722,-607.1077"/>
</g>
<!-- Node26&#45;&gt;Node17 -->
<g id="edge35" class="edge">
<title>Node26&#45;&gt;Node17</title>
<path fill="none" stroke="#191970" d="M418.5614,-550.8019C426.5488,-528.7608 438,-491.3462 438,-458 438,-458 438,-458 438,-178 438,-126.223 377.5226,-91.3488 342.7954,-75.5915"/>
<polygon fill="#191970" stroke="#191970" points="415.2327,-549.71 414.9839,-560.3019 421.7836,-552.177 415.2327,-549.71"/>
</g>
<!-- Node26&#45;&gt;Node20 -->
<g id="edge16" class="edge">
<title>Node26&#45;&gt;Node20</title>
<path fill="none" stroke="#191970" d="M406.5258,-550.7267C398.1905,-514.8207 380.5619,-438.8822 374.2815,-411.8279"/>
<polygon fill="#191970" stroke="#191970" points="403.1207,-551.5367 408.7914,-560.4862 409.9394,-549.9538 403.1207,-551.5367"/>
</g>
<!-- Node26&#45;&gt;Node27 -->
<g id="edge17" class="edge">
<title>Node26&#45;&gt;Node27</title>
<path fill="none" stroke="#191970" d="M398.045,-552.0649C379.3389,-526.9313 342.8373,-480.6535 305,-448 288.1554,-433.4631 266.3313,-420.1688 251.1462,-411.6518"/>
<polygon fill="#191970" stroke="#191970" points="395.3582,-554.3193 404.1011,-560.3036 400.9984,-550.1733 395.3582,-554.3193"/>
</g>
<!-- Node33 -->
<g id="node21" class="node">
<title>Node33</title>
<g id="a_node21"><a xlink:href="spec_2packet__io__stats_8h.html" target="_top" xlink:title="ODP Packet IO statistics. ">
<polygon fill="#ffffff" stroke="#000000" points="194,-504.5 194,-523.5 296,-523.5 296,-504.5 194,-504.5"/>
<text text-anchor="middle" x="245" y="-511.5" font-family="Helvetica,sans-Serif" font-size="10.00" fill="#000000">packet_io_stats.h</text>
</a>
</g>
</g>
<!-- Node26&#45;&gt;Node33 -->
<g id="edge29" class="edge">
<title>Node26&#45;&gt;Node33</title>
<path fill="none" stroke="#191970" d="M373.0228,-557.1884C342.6603,-546.9456 300.7713,-532.8144 273.2978,-523.5462"/>
<polygon fill="#191970" stroke="#191970" points="372.2462,-560.6202 382.8404,-560.5004 374.4838,-553.9874 372.2462,-560.6202"/>
</g>
<!-- Node26&#45;&gt;Node35 -->
<g id="edge32" class="edge">
<title>Node26&#45;&gt;Node35</title>
<path fill="none" stroke="#191970" d="M435.4784,-554.769C451.4266,-544.8456 471.751,-532.1994 485.5028,-523.6427"/>
<polygon fill="#191970" stroke="#191970" points="433.3183,-551.9908 426.6768,-560.2455 437.0165,-557.9342 433.3183,-551.9908"/>
</g>
<!-- Node28 -->
<g id="node16" class="node">
<title>Node28</title>
<g id="a_node16"><a xlink:href="api_2packet__io_8h.html" target="_top" xlink:title="ODP Packet IO. ">
<polygon fill="#ffffff" stroke="#000000" points="185.5,-336.5 185.5,-355.5 258.5,-355.5 258.5,-336.5 185.5,-336.5"/>
<text text-anchor="middle" x="222" y="-343.5" font-family="Helvetica,sans-Serif" font-size="10.00" fill="#000000">packet_io.h</text>
</a>
</g>
</g>
<!-- Node27&#45;&gt;Node28 -->
<g id="edge18" class="edge">
<title>Node27&#45;&gt;Node28</title>
<path fill="none" stroke="#191970" d="M229.1024,-382.1575C227.334,-373.155 225.3235,-362.9199 223.8941,-355.6427"/>
<polygon fill="#191970" stroke="#191970" points="225.722,-383.1077 231.0839,-392.2455 232.5908,-381.7584 225.722,-383.1077"/>
</g>
<!-- Node28&#45;&gt;Node17 -->
<g id="edge28" class="edge">
<title>Node28&#45;&gt;Node17</title>
<path fill="none" stroke="#191970" d="M175.3346,-339.7701C148.4182,-333.8443 115.8758,-322.3281 95,-300 74.1532,-277.7029 76,-264.5246 76,-234 76,-234 76,-234 76,-178 76,-132.0697 220.9971,-90.2682 286.9821,-73.6232"/>
<polygon fill="#191970" stroke="#191970" points="174.8457,-343.2417 185.339,-341.7784 176.2234,-336.3786 174.8457,-343.2417"/>
</g>
<!-- Node28&#45;&gt;Node21 -->
<g id="edge23" class="edge">
<title>Node28&#45;&gt;Node21</title>
<path fill="none" stroke="#191970" d="M223.1082,-326.0682C224.9227,-301.5225 229.5545,-258.8068 241,-224 245.3332,-210.8223 253.1381,-196.8526 258.6697,-187.8126"/>
<polygon fill="#191970" stroke="#191970" points="219.6019,-326.0525 222.4423,-336.2594 226.587,-326.509 219.6019,-326.0525"/>
</g>
<!-- Node29 -->
<g id="node17" class="node">
<title>Node29</title>
<g id="a_node17"><a xlink:href="api_2spec_2classification_8h.html" target="_top" xlink:title="ODP classification descriptor. ">
<polygon fill="#ffffff" stroke="#000000" points="104.5,-280.5 104.5,-299.5 193.5,-299.5 193.5,-280.5 104.5,-280.5"/>
<text text-anchor="middle" x="149" y="-287.5" font-family="Helvetica,sans-Serif" font-size="10.00" fill="#000000">classification.h</text>
</a>
</g>
</g>
<!-- Node28&#45;&gt;Node29 -->
<g id="edge19" class="edge">
<title>Node28&#45;&gt;Node29</title>
<path fill="none" stroke="#191970" d="M201.049,-329.928C188.2893,-320.1397 172.4115,-307.9595 161.5699,-299.6427"/>
<polygon fill="#191970" stroke="#191970" points="199.2197,-332.9359 209.2844,-336.2455 203.4804,-327.3819 199.2197,-332.9359"/>
</g>
<!-- Node31 -->
<g id="node19" class="node">
<title>Node31</title>
<g id="a_node19"><a xlink:href="api_2spec_2traffic__mngr_8h.html" target="_top" xlink:title="Copyright (c) 2015&#45;2018, Linaro Limited All rights reserved. ">
<polygon fill="#ffffff" stroke="#000000" points="250,-280.5 250,-299.5 334,-299.5 334,-280.5 250,-280.5"/>
<text text-anchor="middle" x="292" y="-287.5" font-family="Helvetica,sans-Serif" font-size="10.00" fill="#000000">traffic_mngr.h</text>
</a>
</g>
</g>
<!-- Node28&#45;&gt;Node31 -->
<g id="edge24" class="edge">
<title>Node28&#45;&gt;Node31</title>
<path fill="none" stroke="#191970" d="M242.09,-329.928C254.3253,-320.1397 269.5507,-307.9595 279.9467,-299.6427"/>
<polygon fill="#191970" stroke="#191970" points="239.8153,-327.2655 234.1931,-336.2455 244.1882,-332.7316 239.8153,-327.2655"/>
</g>
<!-- Node30 -->
<g id="node18" class="node">
<title>Node30</title>
<g id="a_node18"><a xlink:href="api_2classification_8h.html" target="_top" xlink:title="ODP classification descriptor. ">
<polygon fill="#ffffff" stroke="#000000" points="104.5,-224.5 104.5,-243.5 193.5,-243.5 193.5,-224.5 104.5,-224.5"/>
<text text-anchor="middle" x="149" y="-231.5" font-family="Helvetica,sans-Serif" font-size="10.00" fill="#000000">classification.h</text>
</a>
</g>
</g>
<!-- Node29&#45;&gt;Node30 -->
<g id="edge20" class="edge">
<title>Node29&#45;&gt;Node30</title>
<path fill="none" stroke="#191970" d="M149,-270.1575C149,-261.155 149,-250.9199 149,-243.6427"/>
<polygon fill="#191970" stroke="#191970" points="145.5001,-270.2455 149,-280.2455 152.5001,-270.2456 145.5001,-270.2455"/>
</g>
<!-- Node30&#45;&gt;Node17 -->
<g id="edge22" class="edge">
<title>Node30&#45;&gt;Node17</title>
<path fill="none" stroke="#191970" d="M157.7112,-215.0941C170.4682,-189.0961 196.4087,-142.1137 230,-112 248.2608,-95.6296 273.4053,-83.3377 292.311,-75.5976"/>
<polygon fill="#191970" stroke="#191970" points="154.4903,-213.7171 153.3409,-224.2494 160.8074,-216.7327 154.4903,-213.7171"/>
</g>
<!-- Node30&#45;&gt;Node21 -->
<g id="edge21" class="edge">
<title>Node30&#45;&gt;Node21</title>
<path fill="none" stroke="#191970" d="M178.0537,-219.9741C199.0565,-209.8348 226.8691,-196.408 245.3191,-187.5011"/>
<polygon fill="#191970" stroke="#191970" points="176.425,-216.8738 168.9411,-224.3733 179.4683,-223.1776 176.425,-216.8738"/>
</g>
<!-- Node32 -->
<g id="node20" class="node">
<title>Node32</title>
<g id="a_node20"><a xlink:href="api_2traffic__mngr_8h.html" target="_top" xlink:title="ODP Traffic manager. ">
<polygon fill="#ffffff" stroke="#000000" points="250,-224.5 250,-243.5 334,-243.5 334,-224.5 250,-224.5"/>
<text text-anchor="middle" x="292" y="-231.5" font-family="Helvetica,sans-Serif" font-size="10.00" fill="#000000">traffic_mngr.h</text>
</a>
</g>
</g>
<!-- Node31&#45;&gt;Node32 -->
<g id="edge25" class="edge">
<title>Node31&#45;&gt;Node32</title>
<path fill="none" stroke="#191970" d="M292,-270.1575C292,-261.155 292,-250.9199 292,-243.6427"/>
<polygon fill="#191970" stroke="#191970" points="288.5001,-270.2455 292,-280.2455 295.5001,-270.2456 288.5001,-270.2455"/>
</g>
<!-- Node32&#45;&gt;Node17 -->
<g id="edge27" class="edge">
<title>Node32&#45;&gt;Node17</title>
<path fill="none" stroke="#191970" d="M295.1725,-214.2601C300.9732,-178.1669 313.0912,-102.7656 317.4205,-75.8279"/>
<polygon fill="#191970" stroke="#191970" points="291.6602,-214.0575 293.529,-224.4862 298.5715,-215.1683 291.6602,-214.0575"/>
</g>
<!-- Node32&#45;&gt;Node21 -->
<g id="edge26" class="edge">
<title>Node32&#45;&gt;Node21</title>
<path fill="none" stroke="#191970" d="M282.8604,-215.0437C278.4195,-205.8331 273.2735,-195.1598 269.6491,-187.6427"/>
<polygon fill="#191970" stroke="#191970" points="279.8012,-216.7579 287.297,-224.2455 286.1066,-213.7178 279.8012,-216.7579"/>
</g>
<!-- Node34 -->
<g id="node22" class="node">
<title>Node34</title>
<g id="a_node22"><a xlink:href="packet__io__stats_8h.html" target="_top" xlink:title="ODP packet IO stats. ">
<polygon fill="#ffffff" stroke="#000000" points="194,-448.5 194,-467.5 296,-467.5 296,-448.5 194,-448.5"/>
<text text-anchor="middle" x="245" y="-455.5" font-family="Helvetica,sans-Serif" font-size="10.00" fill="#000000">packet_io_stats.h</text>
</a>
</g>
</g>
<!-- Node33&#45;&gt;Node34 -->
<g id="edge30" class="edge">
<title>Node33&#45;&gt;Node34</title>
<path fill="none" stroke="#191970" d="M245,-494.1575C245,-485.155 245,-474.9199 245,-467.6427"/>
<polygon fill="#191970" stroke="#191970" points="241.5001,-494.2455 245,-504.2455 248.5001,-494.2456 241.5001,-494.2455"/>
</g>
<!-- Node34&#45;&gt;Node27 -->
<g id="edge31" class="edge">
<title>Node34&#45;&gt;Node27</title>
<path fill="none" stroke="#191970" d="M240.8115,-438.4538C238.8672,-429.3803 236.6428,-418.9998 235.0663,-411.6427"/>
<polygon fill="#191970" stroke="#191970" points="237.3921,-439.2009 242.9098,-448.2455 244.2367,-437.7341 237.3921,-439.2009"/>
</g>
<!-- Node36 -->
<g id="node24" class="node">
<title>Node36</title>
<g id="a_node24"><a xlink:href="api_2schedule_8h.html" target="_top" xlink:title="ODP schedule. ">
<polygon fill="#ffffff" stroke="#000000" points="466.5,-336.5 466.5,-355.5 535.5,-355.5 535.5,-336.5 466.5,-336.5"/>
<text text-anchor="middle" x="501" y="-343.5" font-family="Helvetica,sans-Serif" font-size="10.00" fill="#000000">schedule.h</text>
</a>
</g>
</g>
<!-- Node35&#45;&gt;Node36 -->
<g id="edge33" class="edge">
<title>Node35&#45;&gt;Node36</title>
<path fill="none" stroke="#191970" d="M501,-494.2601C501,-458.1669 501,-382.7656 501,-355.8279"/>
<polygon fill="#191970" stroke="#191970" points="497.5001,-494.4862 501,-504.4862 504.5001,-494.4863 497.5001,-494.4862"/>
</g>
<!-- Node36&#45;&gt;Node17 -->
<g id="edge34" class="edge">
<title>Node36&#45;&gt;Node17</title>
<path fill="none" stroke="#191970" d="M497.6456,-326.5699C494.0954,-304.2865 489,-266.6222 489,-234 489,-234 489,-234 489,-178 489,-144.3717 477.7978,-133.5717 452,-112 422.9481,-87.7074 380.3194,-75.9683 351.2048,-70.4868"/>
<polygon fill="#191970" stroke="#191970" points="494.1947,-327.1544 499.2807,-336.4486 501.1007,-326.0113 494.1947,-327.1544"/>
</g>
<!-- Node38 -->
<g id="node26" class="node">
<title>Node38</title>
<g id="a_node26"><a xlink:href="api_2packet__flags_8h.html" target="_top" xlink:title="ODP packet flags. ">
<polygon fill="#ffffff" stroke="#000000" points="592.5,-448.5 592.5,-467.5 679.5,-467.5 679.5,-448.5 592.5,-448.5"/>
<text text-anchor="middle" x="636" y="-455.5" font-family="Helvetica,sans-Serif" font-size="10.00" fill="#000000">packet_flags.h</text>
</a>
</g>
</g>
<!-- Node37&#45;&gt;Node38 -->
<g id="edge39" class="edge">
<title>Node37&#45;&gt;Node38</title>
<path fill="none" stroke="#191970" d="M601.323,-662.4119C609.17,-616.1557 628.6216,-501.494 634.3733,-467.5891"/>
<polygon fill="#191970" stroke="#191970" points="597.8547,-661.9304 599.6328,-672.375 604.7561,-663.1013 597.8547,-661.9304"/>
</g>
<!-- Node38&#45;&gt;Node17 -->
<g id="edge40" class="edge">
<title>Node38&#45;&gt;Node17</title>
<path fill="none" stroke="#191970" d="M631.248,-438.6376C626.2185,-416.416 619,-378.808 619,-346 619,-346 619,-346 619,-178 619,-143.4675 606.5913,-131.3658 578,-112 541.4171,-87.2213 412.1645,-73.6201 351.2334,-68.4559"/>
<polygon fill="#191970" stroke="#191970" points="627.8676,-439.5526 633.5643,-448.4856 634.6816,-437.9498 627.8676,-439.5526"/>
</g>
</g>
</svg>
