<?xml version="1.0" encoding="UTF-8" standalone="no"?>
<!DOCTYPE svg PUBLIC "-//W3C//DTD SVG 1.1//EN"
 "http://www.w3.org/Graphics/SVG/1.1/DTD/svg11.dtd">
<!-- Generated by graphviz version 2.40.1 (20161225.0304)
 -->
<!-- Title: schedule_types.h Pages: 1 -->
<svg width="475pt" height="756pt"
 viewBox="0.00 0.00 474.50 756.00" xmlns="http://www.w3.org/2000/svg" xmlns:xlink="http://www.w3.org/1999/xlink">
<g id="graph0" class="graph" transform="scale(1 1) rotate(0) translate(4 752)">
<title>schedule_types.h</title>
<polygon fill="#ffffff" stroke="transparent" points="-4,4 -4,-752 470.5,-752 470.5,4 -4,4"/>
<!-- Node7 -->
<g id="node1" class="node">
<title>Node7</title>
<polygon fill="#bfbfbf" stroke="#000000" points="339.5,-728.5 339.5,-747.5 440.5,-747.5 440.5,-728.5 339.5,-728.5"/>
<text text-anchor="middle" x="390" y="-735.5" font-family="Helvetica,sans-Serif" font-size="10.00" fill="#000000">schedule_types.h</text>
</g>
<!-- Node8 -->
<g id="node2" class="node">
<title>Node8</title>
<g id="a_node2"><a xlink:href="queue__types_8h.html" target="_top" xlink:title="ODP queue types. ">
<polygon fill="#ffffff" stroke="#000000" points="310,-672.5 310,-691.5 398,-691.5 398,-672.5 310,-672.5"/>
<text text-anchor="middle" x="354" y="-679.5" font-family="Helvetica,sans-Serif" font-size="10.00" fill="#000000">queue_types.h</text>
</a>
</g>
</g>
<!-- Node7&#45;&gt;Node8 -->
<g id="edge1" class="edge">
<title>Node7&#45;&gt;Node8</title>
<path fill="none" stroke="#191970" d="M378.1904,-719.6296C372.1856,-710.2887 365.1341,-699.3197 360.1989,-691.6427"/>
<polygon fill="#191970" stroke="#191970" points="375.3775,-721.7264 383.7293,-728.2455 381.2658,-717.9411 375.3775,-721.7264"/>
</g>
<!-- Node24 -->
<g id="node18" class="node">
<title>Node24</title>
<g id="a_node18"><a xlink:href="api_2spec_2schedule_8h.html" target="_top" xlink:title="ODP schedule. ">
<polygon fill="#ffffff" stroke="#000000" points="397.5,-504.5 397.5,-523.5 466.5,-523.5 466.5,-504.5 397.5,-504.5"/>
<text text-anchor="middle" x="432" y="-511.5" font-family="Helvetica,sans-Serif" font-size="10.00" fill="#000000">schedule.h</text>
</a>
</g>
</g>
<!-- Node7&#45;&gt;Node24 -->
<g id="edge29" class="edge">
<title>Node7&#45;&gt;Node24</title>
<path fill="none" stroke="#191970" d="M398.0762,-718.9722C401.2715,-710.7964 404.7188,-701.0559 407,-692 422.8553,-629.0576 429.4496,-550.8888 431.3651,-523.7883"/>
<polygon fill="#191970" stroke="#191970" points="394.7987,-717.7406 394.2703,-728.3223 401.2822,-720.3798 394.7987,-717.7406"/>
</g>
<!-- Node9 -->
<g id="node3" class="node">
<title>Node9</title>
<g id="a_node3"><a xlink:href="api_2spec_2queue_8h.html" target="_top" xlink:title="ODP queue. ">
<polygon fill="#ffffff" stroke="#000000" points="319,-616.5 319,-635.5 375,-635.5 375,-616.5 319,-616.5"/>
<text text-anchor="middle" x="347" y="-623.5" font-family="Helvetica,sans-Serif" font-size="10.00" fill="#000000">queue.h</text>
</a>
</g>
</g>
<!-- Node8&#45;&gt;Node9 -->
<g id="edge2" class="edge">
<title>Node8&#45;&gt;Node9</title>
<path fill="none" stroke="#191970" d="M351.5197,-662.1575C350.3944,-653.155 349.115,-642.9199 348.2053,-635.6427"/>
<polygon fill="#191970" stroke="#191970" points="348.0673,-662.7569 352.7807,-672.2455 355.0132,-661.8886 348.0673,-662.7569"/>
</g>
<!-- Node10 -->
<g id="node4" class="node">
<title>Node10</title>
<g id="a_node4"><a xlink:href="api_2queue_8h.html" target="_top" xlink:title="ODP queue. ">
<polygon fill="#ffffff" stroke="#000000" points="305,-560.5 305,-579.5 361,-579.5 361,-560.5 305,-560.5"/>
<text text-anchor="middle" x="333" y="-567.5" font-family="Helvetica,sans-Serif" font-size="10.00" fill="#000000">queue.h</text>
</a>
</g>
</g>
<!-- Node9&#45;&gt;Node10 -->
<g id="edge3" class="edge">
<title>Node9&#45;&gt;Node10</title>
<path fill="none" stroke="#191970" d="M342.1135,-606.4538C339.8451,-597.3803 337.25,-586.9998 335.4107,-579.6427"/>
<polygon fill="#191970" stroke="#191970" points="338.7405,-607.393 344.5614,-616.2455 345.5315,-605.6952 338.7405,-607.393"/>
</g>
<!-- Node11 -->
<g id="node5" class="node">
<title>Node11</title>
<g id="a_node5"><a xlink:href="api_2crypto_8h.html" target="_top" xlink:title="ODP crypto. ">
<polygon fill="#ffffff" stroke="#000000" points="0,-224.5 0,-243.5 56,-243.5 56,-224.5 0,-224.5"/>
<text text-anchor="middle" x="28" y="-231.5" font-family="Helvetica,sans-Serif" font-size="10.00" fill="#000000">crypto.h</text>
</a>
</g>
</g>
<!-- Node10&#45;&gt;Node11 -->
<g id="edge4" class="edge">
<title>Node10&#45;&gt;Node11</title>
<path fill="none" stroke="#191970" d="M294.7214,-563.8077C214.686,-549.7765 37,-512.4898 37,-458 37,-458 37,-458 37,-346 37,-307.9611 31.7781,-262.888 29.2895,-243.5676"/>
<polygon fill="#191970" stroke="#191970" points="294.4375,-567.3102 304.8862,-565.5565 295.6244,-560.4116 294.4375,-567.3102"/>
</g>
<!-- Node14 -->
<g id="node8" class="node">
<title>Node14</title>
<g id="a_node8"><a xlink:href="odp__api_8h.html" target="_top" xlink:title="The OpenDataPlane API. ">
<polygon fill="#ffffff" stroke="#000000" points="229,-56.5 229,-75.5 293,-75.5 293,-56.5 229,-56.5"/>
<text text-anchor="middle" x="261" y="-63.5" font-family="Helvetica,sans-Serif" font-size="10.00" fill="#000000">odp_api.h</text>
</a>
</g>
</g>
<!-- Node10&#45;&gt;Node14 -->
<g id="edge28" class="edge">
<title>Node10&#45;&gt;Node14</title>
<path fill="none" stroke="#191970" d="M342.9369,-551.3555C353.5926,-529.5906 369,-492.2058 369,-458 369,-458 369,-458 369,-178 369,-128.0278 312.5989,-91.791 281.314,-75.5348"/>
<polygon fill="#191970" stroke="#191970" points="339.727,-549.9463 338.3119,-560.4462 345.9659,-553.1205 339.727,-549.9463"/>
</g>
<!-- Node16 -->
<g id="node10" class="node">
<title>Node16</title>
<g id="a_node10"><a xlink:href="api_2spec_2packet__io_8h.html" target="_top" xlink:title="ODP Packet IO. ">
<polygon fill="#ffffff" stroke="#000000" points="219.5,-392.5 219.5,-411.5 292.5,-411.5 292.5,-392.5 219.5,-392.5"/>
<text text-anchor="middle" x="256" y="-399.5" font-family="Helvetica,sans-Serif" font-size="10.00" fill="#000000">packet_io.h</text>
</a>
</g>
</g>
<!-- Node10&#45;&gt;Node16 -->
<g id="edge10" class="edge">
<title>Node10&#45;&gt;Node16</title>
<path fill="none" stroke="#191970" d="M333.7039,-550.1708C333.7269,-524.7807 330.7406,-480.2216 312,-448 302.8278,-432.2299 286.0803,-419.5668 273.2815,-411.5504"/>
<polygon fill="#191970" stroke="#191970" points="330.201,-550.3153 333.5273,-560.3744 337.1999,-550.4365 330.201,-550.3153"/>
</g>
<!-- Node22 -->
<g id="node16" class="node">
<title>Node22</title>
<g id="a_node16"><a xlink:href="spec_2packet__io__stats_8h.html" target="_top" xlink:title="ODP Packet IO statistics. ">
<polygon fill="#ffffff" stroke="#000000" points="201,-504.5 201,-523.5 303,-523.5 303,-504.5 201,-504.5"/>
<text text-anchor="middle" x="252" y="-511.5" font-family="Helvetica,sans-Serif" font-size="10.00" fill="#000000">packet_io_stats.h</text>
</a>
</g>
</g>
<!-- Node10&#45;&gt;Node22 -->
<g id="edge22" class="edge">
<title>Node10&#45;&gt;Node22</title>
<path fill="none" stroke="#191970" d="M310.566,-554.49C296.2746,-544.6096 278.2084,-532.1194 265.9474,-523.6427"/>
<polygon fill="#191970" stroke="#191970" points="308.6749,-557.4376 318.8909,-560.2455 312.6557,-551.6797 308.6749,-557.4376"/>
</g>
<!-- Node10&#45;&gt;Node24 -->
<g id="edge25" class="edge">
<title>Node10&#45;&gt;Node24</title>
<path fill="none" stroke="#191970" d="M359.4357,-555.0465C377.0508,-545.0824 399.6847,-532.2794 414.9531,-523.6427"/>
<polygon fill="#191970" stroke="#191970" points="357.2253,-552.2756 350.2445,-560.2455 360.6717,-558.3684 357.2253,-552.2756"/>
</g>
<!-- Node12 -->
<g id="node6" class="node">
<title>Node12</title>
<g id="a_node6"><a xlink:href="api_2spec_2ipsec_8h.html" target="_top" xlink:title="ODP IPSEC API. ">
<polygon fill="#ffffff" stroke="#000000" points="131.5,-168.5 131.5,-187.5 182.5,-187.5 182.5,-168.5 131.5,-168.5"/>
<text text-anchor="middle" x="157" y="-175.5" font-family="Helvetica,sans-Serif" font-size="10.00" fill="#000000">ipsec.h</text>
</a>
</g>
</g>
<!-- Node11&#45;&gt;Node12 -->
<g id="edge5" class="edge">
<title>Node11&#45;&gt;Node12</title>
<path fill="none" stroke="#191970" d="M59.3671,-220.3833C82.8284,-210.1985 114.3185,-196.5284 135.1135,-187.5011"/>
<polygon fill="#191970" stroke="#191970" points="57.9551,-217.1806 50.1759,-224.3733 60.7426,-223.6017 57.9551,-217.1806"/>
</g>
<!-- Node11&#45;&gt;Node14 -->
<g id="edge9" class="edge">
<title>Node11&#45;&gt;Node14</title>
<path fill="none" stroke="#191970" d="M38.2618,-215.1392C53.6958,-188.4644 85.3458,-139.8693 125,-112 156.6084,-89.7853 199.7976,-77.608 228.9565,-71.4571"/>
<polygon fill="#191970" stroke="#191970" points="35.0161,-213.7698 33.1577,-224.2004 41.1151,-217.2054 35.0161,-213.7698"/>
</g>
<!-- Node13 -->
<g id="node7" class="node">
<title>Node13</title>
<g id="a_node7"><a xlink:href="api_2ipsec_8h.html" target="_top" xlink:title="ODP IPSEC API &#45; platform specific header. ">
<polygon fill="#ffffff" stroke="#000000" points="134.5,-112.5 134.5,-131.5 185.5,-131.5 185.5,-112.5 134.5,-112.5"/>
<text text-anchor="middle" x="160" y="-119.5" font-family="Helvetica,sans-Serif" font-size="10.00" fill="#000000">ipsec.h</text>
</a>
</g>
</g>
<!-- Node12&#45;&gt;Node13 -->
<g id="edge6" class="edge">
<title>Node12&#45;&gt;Node13</title>
<path fill="none" stroke="#191970" d="M158.063,-158.1575C158.5453,-149.155 159.0936,-138.9199 159.4834,-131.6427"/>
<polygon fill="#191970" stroke="#191970" points="154.5626,-158.0726 157.5226,-168.2455 161.5526,-158.4471 154.5626,-158.0726"/>
</g>
<!-- Node13&#45;&gt;Node14 -->
<g id="edge7" class="edge">
<title>Node13&#45;&gt;Node14</title>
<path fill="none" stroke="#191970" d="M186.4719,-107.3225C204.5125,-97.3198 227.8877,-84.3593 243.6087,-75.6427"/>
<polygon fill="#191970" stroke="#191970" points="184.6413,-104.3354 177.5929,-112.2455 188.0357,-110.4574 184.6413,-104.3354"/>
</g>
<!-- Node15 -->
<g id="node9" class="node">
<title>Node15</title>
<g id="a_node9"><a xlink:href="odp_8h.html" target="_top" xlink:title="WARNING: THIS FILE IS DEPRECATED AND WILL BE REMOVED!!! ODP APPLICATIONS SHOULD NOW INCLUDE odp_api...">
<polygon fill="#ffffff" stroke="#000000" points="239,-.5 239,-19.5 283,-19.5 283,-.5 239,-.5"/>
<text text-anchor="middle" x="261" y="-7.5" font-family="Helvetica,sans-Serif" font-size="10.00" fill="#000000">odp.h</text>
</a>
</g>
</g>
<!-- Node14&#45;&gt;Node15 -->
<g id="edge8" class="edge">
<title>Node14&#45;&gt;Node15</title>
<path fill="none" stroke="#191970" d="M261,-46.1575C261,-37.155 261,-26.9199 261,-19.6427"/>
<polygon fill="#191970" stroke="#191970" points="257.5001,-46.2455 261,-56.2455 264.5001,-46.2456 257.5001,-46.2455"/>
</g>
<!-- Node17 -->
<g id="node11" class="node">
<title>Node17</title>
<g id="a_node11"><a xlink:href="api_2packet__io_8h.html" target="_top" xlink:title="ODP Packet IO. ">
<polygon fill="#ffffff" stroke="#000000" points="219.5,-336.5 219.5,-355.5 292.5,-355.5 292.5,-336.5 219.5,-336.5"/>
<text text-anchor="middle" x="256" y="-343.5" font-family="Helvetica,sans-Serif" font-size="10.00" fill="#000000">packet_io.h</text>
</a>
</g>
</g>
<!-- Node16&#45;&gt;Node17 -->
<g id="edge11" class="edge">
<title>Node16&#45;&gt;Node17</title>
<path fill="none" stroke="#191970" d="M256,-382.1575C256,-373.155 256,-362.9199 256,-355.6427"/>
<polygon fill="#191970" stroke="#191970" points="252.5001,-382.2455 256,-392.2455 259.5001,-382.2456 252.5001,-382.2455"/>
</g>
<!-- Node17&#45;&gt;Node12 -->
<g id="edge16" class="edge">
<title>Node17&#45;&gt;Node12</title>
<path fill="none" stroke="#191970" d="M209.5964,-338.2749C169.4412,-330.532 115.8544,-317.2875 103,-300 82.8451,-272.8943 88.8388,-254.6659 103,-224 110.3833,-208.0115 126.3676,-195.5319 139.0401,-187.6299"/>
<polygon fill="#191970" stroke="#191970" points="209.0099,-341.7258 219.4829,-340.124 210.2969,-334.8452 209.0099,-341.7258"/>
</g>
<!-- Node17&#45;&gt;Node14 -->
<g id="edge21" class="edge">
<title>Node17&#45;&gt;Node14</title>
<path fill="none" stroke="#191970" d="M280.7332,-330.7144C291.7326,-322.7809 303.9814,-312.1935 312,-300 328.7719,-274.496 331,-264.5246 331,-234 331,-234 331,-234 331,-178 331,-134.2041 292.0341,-93.4144 272.2467,-75.5244"/>
<polygon fill="#191970" stroke="#191970" points="278.5661,-327.9561 272.2845,-336.4879 282.5156,-333.7356 278.5661,-327.9561"/>
</g>
<!-- Node18 -->
<g id="node12" class="node">
<title>Node18</title>
<g id="a_node12"><a xlink:href="api_2spec_2classification_8h.html" target="_top" xlink:title="ODP classification descriptor. ">
<polygon fill="#ffffff" stroke="#000000" points="112.5,-280.5 112.5,-299.5 201.5,-299.5 201.5,-280.5 112.5,-280.5"/>
<text text-anchor="middle" x="157" y="-287.5" font-family="Helvetica,sans-Serif" font-size="10.00" fill="#000000">classification.h</text>
</a>
</g>
</g>
<!-- Node17&#45;&gt;Node18 -->
<g id="edge12" class="edge">
<title>Node17&#45;&gt;Node18</title>
<path fill="none" stroke="#191970" d="M229.5643,-331.0465C211.9492,-321.0824 189.3153,-308.2794 174.0469,-299.6427"/>
<polygon fill="#191970" stroke="#191970" points="228.3283,-334.3684 238.7555,-336.2455 231.7747,-328.2756 228.3283,-334.3684"/>
</g>
<!-- Node20 -->
<g id="node14" class="node">
<title>Node20</title>
<g id="a_node14"><a xlink:href="api_2spec_2traffic__mngr_8h.html" target="_top" xlink:title="Copyright (c) 2015&#45;2018, Linaro Limited All rights reserved. ">
<polygon fill="#ffffff" stroke="#000000" points="219,-280.5 219,-299.5 303,-299.5 303,-280.5 219,-280.5"/>
<text text-anchor="middle" x="261" y="-287.5" font-family="Helvetica,sans-Serif" font-size="10.00" fill="#000000">traffic_mngr.h</text>
</a>
</g>
</g>
<!-- Node17&#45;&gt;Node20 -->
<g id="edge17" class="edge">
<title>Node17&#45;&gt;Node20</title>
<path fill="none" stroke="#191970" d="M257.7717,-326.1575C258.5754,-317.155 259.4893,-306.9199 260.139,-299.6427"/>
<polygon fill="#191970" stroke="#191970" points="254.2742,-325.9739 256.8709,-336.2455 261.2465,-326.5965 254.2742,-325.9739"/>
</g>
<!-- Node19 -->
<g id="node13" class="node">
<title>Node19</title>
<g id="a_node13"><a xlink:href="api_2classification_8h.html" target="_top" xlink:title="ODP classification descriptor. ">
<polygon fill="#ffffff" stroke="#000000" points="112.5,-224.5 112.5,-243.5 201.5,-243.5 201.5,-224.5 112.5,-224.5"/>
<text text-anchor="middle" x="157" y="-231.5" font-family="Helvetica,sans-Serif" font-size="10.00" fill="#000000">classification.h</text>
</a>
</g>
</g>
<!-- Node18&#45;&gt;Node19 -->
<g id="edge13" class="edge">
<title>Node18&#45;&gt;Node19</title>
<path fill="none" stroke="#191970" d="M157,-270.1575C157,-261.155 157,-250.9199 157,-243.6427"/>
<polygon fill="#191970" stroke="#191970" points="153.5001,-270.2455 157,-280.2455 160.5001,-270.2456 153.5001,-270.2455"/>
</g>
<!-- Node19&#45;&gt;Node12 -->
<g id="edge14" class="edge">
<title>Node19&#45;&gt;Node12</title>
<path fill="none" stroke="#191970" d="M157,-214.1575C157,-205.155 157,-194.9199 157,-187.6427"/>
<polygon fill="#191970" stroke="#191970" points="153.5001,-214.2455 157,-224.2455 160.5001,-214.2456 153.5001,-214.2455"/>
</g>
<!-- Node19&#45;&gt;Node14 -->
<g id="edge15" class="edge">
<title>Node19&#45;&gt;Node14</title>
<path fill="none" stroke="#191970" d="M170.7668,-216.3801C177.1563,-207.9539 184.7112,-197.6258 191,-188 217.4449,-147.5226 244.8572,-96.6776 255.921,-75.7162"/>
<polygon fill="#191970" stroke="#191970" points="167.95,-214.3015 164.6321,-224.3634 173.5005,-218.5668 167.95,-214.3015"/>
</g>
<!-- Node21 -->
<g id="node15" class="node">
<title>Node21</title>
<g id="a_node15"><a xlink:href="api_2traffic__mngr_8h.html" target="_top" xlink:title="ODP Traffic manager. ">
<polygon fill="#ffffff" stroke="#000000" points="219,-224.5 219,-243.5 303,-243.5 303,-224.5 219,-224.5"/>
<text text-anchor="middle" x="261" y="-231.5" font-family="Helvetica,sans-Serif" font-size="10.00" fill="#000000">traffic_mngr.h</text>
</a>
</g>
</g>
<!-- Node20&#45;&gt;Node21 -->
<g id="edge18" class="edge">
<title>Node20&#45;&gt;Node21</title>
<path fill="none" stroke="#191970" d="M261,-270.1575C261,-261.155 261,-250.9199 261,-243.6427"/>
<polygon fill="#191970" stroke="#191970" points="257.5001,-270.2455 261,-280.2455 264.5001,-270.2456 257.5001,-270.2455"/>
</g>
<!-- Node21&#45;&gt;Node12 -->
<g id="edge19" class="edge">
<title>Node21&#45;&gt;Node12</title>
<path fill="none" stroke="#191970" d="M233.9971,-219.46C215.3864,-209.4388 191.1701,-196.3993 174.9078,-187.6427"/>
<polygon fill="#191970" stroke="#191970" points="232.4205,-222.5861 242.8846,-224.2455 235.7392,-216.4228 232.4205,-222.5861"/>
</g>
<!-- Node21&#45;&gt;Node14 -->
<g id="edge20" class="edge">
<title>Node21&#45;&gt;Node14</title>
<path fill="none" stroke="#191970" d="M261,-214.2601C261,-178.1669 261,-102.7656 261,-75.8279"/>
<polygon fill="#191970" stroke="#191970" points="257.5001,-214.4862 261,-224.4862 264.5001,-214.4863 257.5001,-214.4862"/>
</g>
<!-- Node23 -->
<g id="node17" class="node">
<title>Node23</title>
<g id="a_node17"><a xlink:href="packet__io__stats_8h.html" target="_top" xlink:title="ODP packet IO stats. ">
<polygon fill="#ffffff" stroke="#000000" points="201,-448.5 201,-467.5 303,-467.5 303,-448.5 201,-448.5"/>
<text text-anchor="middle" x="252" y="-455.5" font-family="Helvetica,sans-Serif" font-size="10.00" fill="#000000">packet_io_stats.h</text>
</a>
</g>
</g>
<!-- Node22&#45;&gt;Node23 -->
<g id="edge23" class="edge">
<title>Node22&#45;&gt;Node23</title>
<path fill="none" stroke="#191970" d="M252,-494.1575C252,-485.155 252,-474.9199 252,-467.6427"/>
<polygon fill="#191970" stroke="#191970" points="248.5001,-494.2455 252,-504.2455 255.5001,-494.2456 248.5001,-494.2455"/>
</g>
<!-- Node23&#45;&gt;Node16 -->
<g id="edge24" class="edge">
<title>Node23&#45;&gt;Node16</title>
<path fill="none" stroke="#191970" d="M253.4173,-438.1575C254.0604,-429.155 254.7914,-418.9199 255.3112,-411.6427"/>
<polygon fill="#191970" stroke="#191970" points="249.9182,-438.0216 252.6967,-448.2455 256.9004,-438.5204 249.9182,-438.0216"/>
</g>
<!-- Node25 -->
<g id="node19" class="node">
<title>Node25</title>
<g id="a_node19"><a xlink:href="api_2schedule_8h.html" target="_top" xlink:title="ODP schedule. ">
<polygon fill="#ffffff" stroke="#000000" points="397.5,-392.5 397.5,-411.5 466.5,-411.5 466.5,-392.5 397.5,-392.5"/>
<text text-anchor="middle" x="432" y="-399.5" font-family="Helvetica,sans-Serif" font-size="10.00" fill="#000000">schedule.h</text>
</a>
</g>
</g>
<!-- Node24&#45;&gt;Node25 -->
<g id="edge26" class="edge">
<title>Node24&#45;&gt;Node25</title>
<path fill="none" stroke="#191970" d="M432,-494.2702C432,-469.9985 432,-429.7725 432,-411.5249"/>
<polygon fill="#191970" stroke="#191970" points="428.5001,-494.4509 432,-504.4509 435.5001,-494.451 428.5001,-494.4509"/>
</g>
<!-- Node25&#45;&gt;Node14 -->
<g id="edge27" class="edge">
<title>Node25&#45;&gt;Node14</title>
<path fill="none" stroke="#191970" d="M428.3661,-382.5816C424.52,-360.3089 419,-322.6543 419,-290 419,-290 419,-290 419,-178 419,-144.5868 408.208,-133.9317 383,-112 357.3839,-89.7132 319.9013,-77.7509 293.2528,-71.6656"/>
<polygon fill="#191970" stroke="#191970" points="424.9265,-383.2302 430.1374,-392.455 431.8165,-381.9941 424.9265,-383.2302"/>
</g>
</g>
</svg>
