<?xml version="1.0" encoding="UTF-8" standalone="no"?>
<!DOCTYPE svg PUBLIC "-//W3C//DTD SVG 1.1//EN"
 "http://www.w3.org/Graphics/SVG/1.1/DTD/svg11.dtd">
<!-- Generated by graphviz version 2.40.1 (20161225.0304)
 -->
<!-- Title: ipsec.h Pages: 1 -->
<svg width="2380pt" height="1069pt"
 viewBox="0.00 0.00 2380.00 1069.00" xmlns="http://www.w3.org/2000/svg" xmlns:xlink="http://www.w3.org/1999/xlink">
<g id="graph0" class="graph" transform="scale(1 1) rotate(0) translate(4 1065)">
<title>ipsec.h</title>
<polygon fill="#ffffff" stroke="transparent" points="-4,4 -4,-1065 2376,-1065 2376,4 -4,4"/>
<!-- Node0 -->
<g id="node1" class="node">
<title>Node0</title>
<polygon fill="#bfbfbf" stroke="#000000" points="942.5,-1041.5 942.5,-1060.5 993.5,-1060.5 993.5,-1041.5 942.5,-1041.5"/>
<text text-anchor="middle" x="968" y="-1048.5" font-family="Helvetica,sans-Serif" font-size="10.00" fill="#000000">ipsec.h</text>
</g>
<!-- Node1 -->
<g id="node2" class="node">
<title>Node1</title>
<g id="a_node2"><a xlink:href="visibility__begin_8h_source.html" target="_top" xlink:title="odp/visibility_begin.h">
<polygon fill="#ffffff" stroke="#000000" points="1358.5,-.5 1358.5,-19.5 1479.5,-19.5 1479.5,-.5 1358.5,-.5"/>
<text text-anchor="middle" x="1419" y="-7.5" font-family="Helvetica,sans-Serif" font-size="10.00" fill="#000000">odp/visibility_begin.h</text>
</a>
</g>
</g>
<!-- Node0&#45;&gt;Node1 -->
<g id="edge1" class="edge">
<title>Node0&#45;&gt;Node1</title>
<path fill="none" stroke="#191970" d="M993.663,-1050.7214C1162.8531,-1048.799 2115.1556,-1036.6287 2240,-1005 2304.677,-988.6144 2372,-1000.2203 2372,-933.5 2372,-933.5 2372,-933.5 2372,-122 2372,-33.1907 1710.7719,-14.6224 1489.8817,-10.8972"/>
<polygon fill="#191970" stroke="#191970" points="1489.7562,-7.3947 1479.7003,-10.7308 1489.6417,-14.3938 1489.7562,-7.3947"/>
</g>
<!-- Node2 -->
<g id="node3" class="node">
<title>Node2</title>
<g id="a_node3"><a xlink:href="api_2crypto_8h.html" target="_top" xlink:title="ODP crypto. ">
<polygon fill="#ffffff" stroke="#000000" points="626.5,-689 626.5,-708 721.5,-708 721.5,-689 626.5,-689"/>
<text text-anchor="middle" x="674" y="-696" font-family="Helvetica,sans-Serif" font-size="10.00" fill="#000000">odp/api/crypto.h</text>
</a>
</g>
</g>
<!-- Node0&#45;&gt;Node2 -->
<g id="edge2" class="edge">
<title>Node0&#45;&gt;Node2</title>
<path fill="none" stroke="#191970" d="M942.2134,-1041.9586C879.0624,-1018.2311 717.2877,-947.4866 655,-826 636.8818,-790.662 653.0093,-743.0553 664.6128,-717.166"/>
<polygon fill="#191970" stroke="#191970" points="667.7966,-718.6205 668.9039,-708.0837 661.4674,-715.6302 667.7966,-718.6205"/>
</g>
<!-- Node10 -->
<g id="node11" class="node">
<title>Node10</title>
<g id="a_node11"><a xlink:href="visibility__end_8h_source.html" target="_top" xlink:title="odp/visibility_end.h">
<polygon fill="#ffffff" stroke="#000000" points="383,-.5 383,-19.5 495,-19.5 495,-.5 383,-.5"/>
<text text-anchor="middle" x="439" y="-7.5" font-family="Helvetica,sans-Serif" font-size="10.00" fill="#000000">odp/visibility_end.h</text>
</a>
</g>
</g>
<!-- Node0&#45;&gt;Node10 -->
<g id="edge119" class="edge">
<title>Node0&#45;&gt;Node10</title>
<path fill="none" stroke="#191970" d="M942.1153,-1050.7733C821.5504,-1049.5273 314.4437,-1042.1338 161,-1005 84.9022,-986.5841 0,-1011.7945 0,-933.5 0,-933.5 0,-933.5 0,-122 0,-82.9495 23.4528,-74.2053 58,-56 111.1741,-27.9789 278.648,-16.6063 372.8944,-12.3336"/>
<polygon fill="#191970" stroke="#191970" points="373.0591,-15.8299 382.8959,-11.8944 372.752,-8.8366 373.0591,-15.8299"/>
</g>
<!-- Node31 -->
<g id="node33" class="node">
<title>Node31</title>
<g id="a_node33"><a xlink:href="support_8h.html" target="_top" xlink:title="ODP support API &#45; platform specific header. ">
<polygon fill="#ffffff" stroke="#000000" points="294.5,-392.5 294.5,-411.5 395.5,-411.5 395.5,-392.5 294.5,-392.5"/>
<text text-anchor="middle" x="345" y="-399.5" font-family="Helvetica,sans-Serif" font-size="10.00" fill="#000000">odp/api/support.h</text>
</a>
</g>
</g>
<!-- Node0&#45;&gt;Node31 -->
<g id="edge66" class="edge">
<title>Node0&#45;&gt;Node31</title>
<path fill="none" stroke="#191970" d="M942.1613,-1049.6076C812.8321,-1042.3033 242,-1005.9594 242,-933.5 242,-933.5 242,-933.5 242,-637 242,-549.1603 303.113,-457.2103 331.1908,-419.6"/>
<polygon fill="#191970" stroke="#191970" points="333.9843,-421.7087 337.2583,-411.6324 328.4152,-417.4678 333.9843,-421.7087"/>
</g>
<!-- Node36 -->
<g id="node35" class="node">
<title>Node36</title>
<g id="a_node35"><a xlink:href="api_2packet__io_8h.html" target="_top" xlink:title="ODP Packet IO. ">
<polygon fill="#ffffff" stroke="#000000" points="1646,-862.5 1646,-881.5 1758,-881.5 1758,-862.5 1646,-862.5"/>
<text text-anchor="middle" x="1702" y="-869.5" font-family="Helvetica,sans-Serif" font-size="10.00" fill="#000000">odp/api/packet_io.h</text>
</a>
</g>
</g>
<!-- Node0&#45;&gt;Node36 -->
<g id="edge67" class="edge">
<title>Node0&#45;&gt;Node36</title>
<path fill="none" stroke="#191970" d="M993.6931,-1044.7343C1100.4901,-1018.6897 1510.3684,-918.733 1652.8488,-883.9865"/>
<polygon fill="#191970" stroke="#191970" points="1653.7514,-887.369 1662.6374,-881.5993 1652.0929,-880.5683 1653.7514,-887.369"/>
</g>
<!-- Node43 -->
<g id="node42" class="node">
<title>Node43</title>
<g id="a_node42"><a xlink:href="protocols_8h.html" target="_top" xlink:title="ODP protocols. ">
<polygon fill="#ffffff" stroke="#000000" points="104,-571.5 104,-590.5 214,-590.5 214,-571.5 104,-571.5"/>
<text text-anchor="middle" x="159" y="-578.5" font-family="Helvetica,sans-Serif" font-size="10.00" fill="#000000">odp/api/protocols.h</text>
</a>
</g>
</g>
<!-- Node0&#45;&gt;Node43 -->
<g id="edge91" class="edge">
<title>Node0&#45;&gt;Node43</title>
<path fill="none" stroke="#191970" d="M942.312,-1050.2438C819.6272,-1046.5193 296.4538,-1029.3227 228,-1005 176.5169,-986.7073 128,-988.1364 128,-933.5 128,-933.5 128,-933.5 128,-698.5 128,-662.8027 141.5425,-622.9632 150.7257,-600.0516"/>
<polygon fill="#191970" stroke="#191970" points="154.08,-601.1008 154.6896,-590.5235 147.6169,-598.412 154.08,-601.1008"/>
</g>
<!-- Node45 -->
<g id="node44" class="node">
<title>Node45</title>
<g id="a_node44"><a xlink:href="api_2classification_8h.html" target="_top" xlink:title="ODP classification descriptor. ">
<polygon fill="#ffffff" stroke="#000000" points="1736,-985.5 1736,-1004.5 1864,-1004.5 1864,-985.5 1736,-985.5"/>
<text text-anchor="middle" x="1800" y="-992.5" font-family="Helvetica,sans-Serif" font-size="10.00" fill="#000000">odp/api/classification.h</text>
</a>
</g>
</g>
<!-- Node0&#45;&gt;Node45 -->
<g id="edge95" class="edge">
<title>Node0&#45;&gt;Node45</title>
<path fill="none" stroke="#191970" d="M993.7049,-1049.6472C1087.4131,-1044.6562 1419.5264,-1026.4501 1693,-1005 1703.6094,-1004.1678 1714.8029,-1003.2101 1725.7936,-1002.224"/>
<polygon fill="#191970" stroke="#191970" points="1726.1657,-1005.7047 1735.8075,-1001.3132 1725.5316,-998.7335 1726.1657,-1005.7047"/>
</g>
<!-- Node49 -->
<g id="node48" class="node">
<title>Node49</title>
<g id="a_node48"><a xlink:href="api_2traffic__mngr_8h.html" target="_top" xlink:title="ODP Traffic manager. ">
<polygon fill="#ffffff" stroke="#000000" points="2107.5,-985.5 2107.5,-1004.5 2230.5,-1004.5 2230.5,-985.5 2107.5,-985.5"/>
<text text-anchor="middle" x="2169" y="-992.5" font-family="Helvetica,sans-Serif" font-size="10.00" fill="#000000">odp/api/traffic_mngr.h</text>
</a>
</g>
</g>
<!-- Node0&#45;&gt;Node49 -->
<g id="edge112" class="edge">
<title>Node0&#45;&gt;Node49</title>
<path fill="none" stroke="#191970" d="M993.6402,-1049.8045C1139.3527,-1043.0102 1864.8379,-1009.1824 2097.2446,-998.3458"/>
<polygon fill="#191970" stroke="#191970" points="2097.4531,-1001.84 2107.2792,-997.8779 2097.127,-994.8476 2097.4531,-1001.84"/>
</g>
<!-- Node3 -->
<g id="node4" class="node">
<title>Node3</title>
<g id="a_node4"><a xlink:href="api_2std__types_8h.html" target="_top" xlink:title="Standard C language types and definitions for ODP. ">
<polygon fill="#ffffff" stroke="#000000" points="1502,-224.5 1502,-243.5 1614,-243.5 1614,-224.5 1502,-224.5"/>
<text text-anchor="middle" x="1558" y="-231.5" font-family="Helvetica,sans-Serif" font-size="10.00" fill="#000000">odp/api/std_types.h</text>
</a>
</g>
</g>
<!-- Node2&#45;&gt;Node3 -->
<g id="edge3" class="edge">
<title>Node2&#45;&gt;Node3</title>
<path fill="none" stroke="#191970" d="M714.8701,-688.9861C777.5337,-674.5666 901.2142,-646.7676 1007,-627 1106.9802,-608.3172 1143.5037,-639.327 1233,-591 1273.667,-569.0403 1485.5159,-319.9081 1543.3818,-251.3628"/>
<polygon fill="#191970" stroke="#191970" points="1546.165,-253.4917 1549.9361,-243.5907 1540.8137,-248.9789 1546.165,-253.4917"/>
</g>
<!-- Node11 -->
<g id="node12" class="node">
<title>Node11</title>
<polygon fill="#ffffff" stroke="#bfbfbf" points="204,-336.5 204,-355.5 320,-355.5 320,-336.5 204,-336.5"/>
<text text-anchor="middle" x="262" y="-343.5" font-family="Helvetica,sans-Serif" font-size="10.00" fill="#000000">odp/api/abi/packet.h</text>
</g>
<!-- Node2&#45;&gt;Node11 -->
<g id="edge14" class="edge">
<title>Node2&#45;&gt;Node11</title>
<path fill="none" stroke="#191970" d="M626.4031,-690.9111C590.9147,-683.6721 542.3336,-670.3133 505,-647 383.9044,-571.3808 360.5581,-533.7519 286,-412 277.1574,-397.5602 270.8458,-379.3642 266.9215,-365.7368"/>
<polygon fill="#191970" stroke="#191970" points="270.2647,-364.6912 264.2833,-355.9463 263.5057,-366.5126 270.2647,-364.6912"/>
</g>
<!-- Node12 -->
<g id="node13" class="node">
<title>Node12</title>
<polygon fill="#ffffff" stroke="#bfbfbf" points="513.5,-627.5 513.5,-646.5 626.5,-646.5 626.5,-627.5 513.5,-627.5"/>
<text text-anchor="middle" x="570" y="-634.5" font-family="Helvetica,sans-Serif" font-size="10.00" fill="#000000">odp/api/abi/crypto.h</text>
</g>
<!-- Node2&#45;&gt;Node12 -->
<g id="edge15" class="edge">
<title>Node2&#45;&gt;Node12</title>
<path fill="none" stroke="#191970" d="M657.75,-688.8906C640.8831,-678.9165 614.2901,-663.1908 594.7965,-651.6633"/>
<polygon fill="#191970" stroke="#191970" points="596.5251,-648.6194 586.1359,-646.5419 592.962,-654.6447 596.5251,-648.6194"/>
</g>
<!-- Node13 -->
<g id="node14" class="node">
<title>Node13</title>
<polygon fill="#ffffff" stroke="#bfbfbf" points="734,-336.5 734,-355.5 844,-355.5 844,-336.5 734,-336.5"/>
<text text-anchor="middle" x="789" y="-343.5" font-family="Helvetica,sans-Serif" font-size="10.00" fill="#000000">odp/api/abi/buffer.h</text>
</g>
<!-- Node2&#45;&gt;Node13 -->
<g id="edge16" class="edge">
<title>Node2&#45;&gt;Node13</title>
<path fill="none" stroke="#191970" d="M675.2714,-688.577C679.3027,-654.1232 689.7967,-536.9239 659,-448 650.0802,-422.2444 617.6974,-413.8435 634,-392 645.1736,-377.0287 686.6307,-365.1902 723.8593,-357.2741"/>
<polygon fill="#191970" stroke="#191970" points="724.6244,-360.69 733.7138,-355.2464 723.2136,-353.8337 724.6244,-360.69"/>
</g>
<!-- Node14 -->
<g id="node15" class="node">
<title>Node14</title>
<polygon fill="#ffffff" stroke="#bfbfbf" points="1484,-336.5 1484,-355.5 1588,-355.5 1588,-336.5 1484,-336.5"/>
<text text-anchor="middle" x="1536" y="-343.5" font-family="Helvetica,sans-Serif" font-size="10.00" fill="#000000">odp/api/abi/pool.h</text>
</g>
<!-- Node2&#45;&gt;Node14 -->
<g id="edge17" class="edge">
<title>Node2&#45;&gt;Node14</title>
<path fill="none" stroke="#191970" d="M721.707,-691.2375C877.9517,-667.4361 1364.5355,-593.1803 1368,-591 1457.09,-534.9338 1510.91,-412.5353 1529.0702,-365.2122"/>
<polygon fill="#191970" stroke="#191970" points="1532.445,-366.1795 1532.6647,-355.587 1525.8873,-363.7306 1532.445,-366.1795"/>
</g>
<!-- Node15 -->
<g id="node16" class="node">
<title>Node15</title>
<g id="a_node16"><a xlink:href="api_2queue_8h.html" target="_top" xlink:title="ODP queue. ">
<polygon fill="#ffffff" stroke="#000000" points="1150.5,-627.5 1150.5,-646.5 1245.5,-646.5 1245.5,-627.5 1150.5,-627.5"/>
<text text-anchor="middle" x="1198" y="-634.5" font-family="Helvetica,sans-Serif" font-size="10.00" fill="#000000">odp/api/queue.h</text>
</a>
</g>
</g>
<!-- Node2&#45;&gt;Node15 -->
<g id="edge18" class="edge">
<title>Node2&#45;&gt;Node15</title>
<path fill="none" stroke="#191970" d="M721.8906,-692.8793C818.4703,-681.544 1036.2375,-655.9855 1140.3919,-643.7613"/>
<polygon fill="#191970" stroke="#191970" points="1140.8863,-647.2273 1150.4102,-642.5854 1140.0703,-640.2751 1140.8863,-647.2273"/>
</g>
<!-- Node35 -->
<g id="node32" class="node">
<title>Node35</title>
<g id="a_node32"><a xlink:href="api_2spec_2crypto_8h.html" target="_top" xlink:title="ODP crypto. ">
<polygon fill="#ffffff" stroke="#000000" points="528.5,-454 528.5,-473 649.5,-473 649.5,-454 528.5,-454"/>
<text text-anchor="middle" x="589" y="-461" font-family="Helvetica,sans-Serif" font-size="10.00" fill="#000000">odp/api/spec/crypto.h</text>
</a>
</g>
</g>
<!-- Node2&#45;&gt;Node35 -->
<g id="edge57" class="edge">
<title>Node2&#45;&gt;Node35</title>
<path fill="none" stroke="#191970" d="M670.5626,-688.9967C657.8287,-653.7912 613.1885,-530.374 595.9062,-482.5937"/>
<polygon fill="#191970" stroke="#191970" points="599.1729,-481.3349 592.4802,-473.1216 592.5903,-483.7159 599.1729,-481.3349"/>
</g>
<!-- Node4 -->
<g id="node5" class="node">
<title>Node4</title>
<polygon fill="#ffffff" stroke="#bfbfbf" points="1435,-168.5 1435,-187.5 1565,-187.5 1565,-168.5 1435,-168.5"/>
<text text-anchor="middle" x="1500" y="-175.5" font-family="Helvetica,sans-Serif" font-size="10.00" fill="#000000">odp/api/abi/std_types.h</text>
</g>
<!-- Node3&#45;&gt;Node4 -->
<g id="edge4" class="edge">
<title>Node3&#45;&gt;Node4</title>
<path fill="none" stroke="#191970" d="M1547.8972,-224.2455C1539.4972,-216.1352 1527.3506,-204.4075 1517.3916,-194.7919"/>
<polygon fill="#191970" stroke="#191970" points="1519.6122,-192.0707 1509.9871,-187.6427 1514.75,-197.1066 1519.6122,-192.0707"/>
</g>
<!-- Node5 -->
<g id="node6" class="node">
<title>Node5</title>
<g id="a_node6"><a xlink:href="api_2spec_2std__types_8h.html" target="_top" xlink:title="Standard C language types and definitions for ODP. ">
<polygon fill="#ffffff" stroke="#000000" points="1583.5,-168.5 1583.5,-187.5 1720.5,-187.5 1720.5,-168.5 1583.5,-168.5"/>
<text text-anchor="middle" x="1652" y="-175.5" font-family="Helvetica,sans-Serif" font-size="10.00" fill="#000000">odp/api/spec/std_types.h</text>
</a>
</g>
</g>
<!-- Node3&#45;&gt;Node5 -->
<g id="edge5" class="edge">
<title>Node3&#45;&gt;Node5</title>
<path fill="none" stroke="#191970" d="M1574.3736,-224.2455C1588.9308,-215.5731 1610.431,-202.7645 1627.1152,-192.825"/>
<polygon fill="#191970" stroke="#191970" points="1629.0144,-195.7676 1635.8141,-187.6427 1625.4317,-189.7539 1629.0144,-195.7676"/>
</g>
<!-- Node5&#45;&gt;Node1 -->
<g id="edge6" class="edge">
<title>Node5&#45;&gt;Node1</title>
<path fill="none" stroke="#191970" d="M1661.9362,-168.4913C1670.176,-159.8654 1681.2767,-146.3368 1686,-132 1692.5506,-112.1169 1684.604,-62.8316 1678,-56 1652.5638,-29.6871 1557.4602,-18.2914 1489.8917,-13.4481"/>
<polygon fill="#191970" stroke="#191970" points="1489.9321,-9.9428 1479.7167,-12.7528 1489.4548,-16.9265 1489.9321,-9.9428"/>
</g>
<!-- Node6 -->
<g id="node7" class="node">
<title>Node6</title>
<polygon fill="#ffffff" stroke="#bfbfbf" points="1623.5,-112.5 1623.5,-131.5 1676.5,-131.5 1676.5,-112.5 1623.5,-112.5"/>
<text text-anchor="middle" x="1650" y="-119.5" font-family="Helvetica,sans-Serif" font-size="10.00" fill="#000000">stdint.h</text>
</g>
<!-- Node5&#45;&gt;Node6 -->
<g id="edge7" class="edge">
<title>Node5&#45;&gt;Node6</title>
<path fill="none" stroke="#191970" d="M1651.6516,-168.2455C1651.3907,-160.9382 1651.0248,-150.6944 1650.7037,-141.7046"/>
<polygon fill="#191970" stroke="#191970" points="1654.1992,-141.5113 1650.3444,-131.6427 1647.2036,-141.7613 1654.1992,-141.5113"/>
</g>
<!-- Node7 -->
<g id="node8" class="node">
<title>Node7</title>
<g id="a_node8"><a xlink:href="api_2align_8h.html" target="_top" xlink:title="ODP alignments. ">
<polygon fill="#ffffff" stroke="#000000" points="1477.5,-112.5 1477.5,-131.5 1566.5,-131.5 1566.5,-112.5 1477.5,-112.5"/>
<text text-anchor="middle" x="1522" y="-119.5" font-family="Helvetica,sans-Serif" font-size="10.00" fill="#000000">odp/api/align.h</text>
</a>
</g>
</g>
<!-- Node5&#45;&gt;Node7 -->
<g id="edge8" class="edge">
<title>Node5&#45;&gt;Node7</title>
<path fill="none" stroke="#191970" d="M1629.6522,-168.3733C1608.5967,-159.3032 1576.8505,-145.6279 1553.2825,-135.4755"/>
<polygon fill="#191970" stroke="#191970" points="1554.625,-132.243 1544.0562,-131.5011 1551.8556,-138.6719 1554.625,-132.243"/>
</g>
<!-- Node5&#45;&gt;Node10 -->
<g id="edge13" class="edge">
<title>Node5&#45;&gt;Node10</title>
<path fill="none" stroke="#191970" d="M1594.9931,-168.4573C1495.1644,-151.5086 1282.3472,-114.3171 1104,-76 1067.3241,-68.1203 1059.0397,-61.9389 1022,-56 836.2645,-26.2194 614.0096,-15.451 505.3793,-11.7739"/>
<polygon fill="#191970" stroke="#191970" points="505.3362,-8.2707 495.2264,-11.4398 505.1059,-15.2669 505.3362,-8.2707"/>
</g>
<!-- Node8 -->
<g id="node9" class="node">
<title>Node8</title>
<polygon fill="#ffffff" stroke="#bfbfbf" points="1528.5,-56.5 1528.5,-75.5 1635.5,-75.5 1635.5,-56.5 1528.5,-56.5"/>
<text text-anchor="middle" x="1582" y="-63.5" font-family="Helvetica,sans-Serif" font-size="10.00" fill="#000000">odp/api/abi/align.h</text>
</g>
<!-- Node7&#45;&gt;Node8 -->
<g id="edge9" class="edge">
<title>Node7&#45;&gt;Node8</title>
<path fill="none" stroke="#191970" d="M1532.4512,-112.2455C1541.2269,-104.0549 1553.9554,-92.1749 1564.314,-82.5069"/>
<polygon fill="#191970" stroke="#191970" points="1566.7461,-85.0246 1571.6686,-75.6427 1561.9699,-79.9072 1566.7461,-85.0246"/>
</g>
<!-- Node9 -->
<g id="node10" class="node">
<title>Node9</title>
<g id="a_node10"><a xlink:href="api_2spec_2align_8h.html" target="_top" xlink:title="ODP alignments. ">
<polygon fill="#ffffff" stroke="#000000" points="1320,-56.5 1320,-75.5 1434,-75.5 1434,-56.5 1320,-56.5"/>
<text text-anchor="middle" x="1377" y="-63.5" font-family="Helvetica,sans-Serif" font-size="10.00" fill="#000000">odp/api/spec/align.h</text>
</a>
</g>
</g>
<!-- Node7&#45;&gt;Node9 -->
<g id="edge10" class="edge">
<title>Node7&#45;&gt;Node9</title>
<path fill="none" stroke="#191970" d="M1497.0736,-112.3733C1473.3798,-103.2226 1437.5489,-89.3844 1411.1932,-79.2057"/>
<polygon fill="#191970" stroke="#191970" points="1412.1906,-75.8389 1401.6011,-75.5011 1409.6686,-82.3689 1412.1906,-75.8389"/>
</g>
<!-- Node9&#45;&gt;Node1 -->
<g id="edge11" class="edge">
<title>Node9&#45;&gt;Node1</title>
<path fill="none" stroke="#191970" d="M1384.3158,-56.2455C1390.2179,-48.3761 1398.6742,-37.101 1405.7594,-27.6542"/>
<polygon fill="#191970" stroke="#191970" points="1408.568,-29.7427 1411.768,-19.6427 1402.9679,-25.5427 1408.568,-29.7427"/>
</g>
<!-- Node9&#45;&gt;Node10 -->
<g id="edge12" class="edge">
<title>Node9&#45;&gt;Node10</title>
<path fill="none" stroke="#191970" d="M1319.6647,-61.7974C1293.8026,-59.9443 1262.8694,-57.7865 1235,-56 964.7223,-38.6743 642.6252,-20.9627 505.7876,-13.5751"/>
<polygon fill="#191970" stroke="#191970" points="505.6483,-10.0626 495.4743,-13.0189 505.2713,-17.0524 505.6483,-10.0626"/>
</g>
<!-- Node15&#45;&gt;Node3 -->
<g id="edge19" class="edge">
<title>Node15&#45;&gt;Node3</title>
<path fill="none" stroke="#191970" d="M1245.5858,-633.0251C1311.7548,-626.783 1427.439,-613.0651 1463,-591 1565.1624,-527.6096 1571.9437,-473.5912 1597,-356 1605.0237,-318.3441 1584.3535,-275.8169 1570.133,-252.2332"/>
<polygon fill="#191970" stroke="#191970" points="1573.0041,-250.2242 1564.7144,-243.6264 1567.0803,-253.9537 1573.0041,-250.2242"/>
</g>
<!-- Node15&#45;&gt;Node13 -->
<g id="edge22" class="edge">
<title>Node15&#45;&gt;Node13</title>
<path fill="none" stroke="#191970" d="M1171.4717,-627.3515C1116.5417,-606.4797 988.1312,-552.9815 900,-479 858.1706,-443.8864 819.833,-391.6676 801.0802,-364.2779"/>
<polygon fill="#191970" stroke="#191970" points="803.7839,-362.0272 795.2902,-355.694 797.9806,-365.9416 803.7839,-362.0272"/>
</g>
<!-- Node15&#45;&gt;Node14 -->
<g id="edge23" class="edge">
<title>Node15&#45;&gt;Node14</title>
<path fill="none" stroke="#191970" d="M1245.6427,-633.3713C1307.5153,-627.7614 1411.037,-615.0308 1440,-591 1511.2928,-531.8479 1529.8762,-412.6832 1534.5216,-365.6935"/>
<polygon fill="#191970" stroke="#191970" points="1538.0183,-365.8847 1535.4082,-355.6164 1531.0452,-365.2711 1538.0183,-365.8847"/>
</g>
<!-- Node16 -->
<g id="node17" class="node">
<title>Node16</title>
<polygon fill="#ffffff" stroke="#bfbfbf" points="1318,-336.5 1318,-355.5 1428,-355.5 1428,-336.5 1318,-336.5"/>
<text text-anchor="middle" x="1373" y="-343.5" font-family="Helvetica,sans-Serif" font-size="10.00" fill="#000000">odp/api/abi/event.h</text>
</g>
<!-- Node15&#45;&gt;Node16 -->
<g id="edge20" class="edge">
<title>Node15&#45;&gt;Node16</title>
<path fill="none" stroke="#191970" d="M1245.5912,-633.9976C1304.1365,-629.1965 1398.4439,-617.4806 1420,-591 1475.5314,-522.7825 1413.3691,-408.6016 1385.306,-364.3239"/>
<polygon fill="#191970" stroke="#191970" points="1388.1212,-362.2325 1379.7393,-355.752 1382.2505,-366.045 1388.1212,-362.2325"/>
</g>
<!-- Node17 -->
<g id="node18" class="node">
<title>Node17</title>
<polygon fill="#ffffff" stroke="#bfbfbf" points="1644.5,-336.5 1644.5,-355.5 1757.5,-355.5 1757.5,-336.5 1644.5,-336.5"/>
<text text-anchor="middle" x="1701" y="-343.5" font-family="Helvetica,sans-Serif" font-size="10.00" fill="#000000">odp/api/abi/queue.h</text>
</g>
<!-- Node15&#45;&gt;Node17 -->
<g id="edge21" class="edge">
<title>Node15&#45;&gt;Node17</title>
<path fill="none" stroke="#191970" d="M1245.5091,-634.7886C1330.0163,-630.2197 1502.5986,-617.8368 1556,-591 1646.7371,-545.4002 1685.2262,-415.1818 1696.8868,-365.5441"/>
<polygon fill="#191970" stroke="#191970" points="1700.3133,-366.2591 1699.0831,-355.736 1693.4824,-364.7295 1700.3133,-366.2591"/>
</g>
<!-- Node18 -->
<g id="node19" class="node">
<title>Node18</title>
<g id="a_node19"><a xlink:href="api_2spec_2queue_8h.html" target="_top" xlink:title="ODP queue. ">
<polygon fill="#ffffff" stroke="#000000" points="1104,-571.5 1104,-590.5 1224,-590.5 1224,-571.5 1104,-571.5"/>
<text text-anchor="middle" x="1164" y="-578.5" font-family="Helvetica,sans-Serif" font-size="10.00" fill="#000000">odp/api/spec/queue.h</text>
</a>
</g>
</g>
<!-- Node15&#45;&gt;Node18 -->
<g id="edge24" class="edge">
<title>Node15&#45;&gt;Node18</title>
<path fill="none" stroke="#191970" d="M1192.0777,-627.2455C1187.3973,-619.5367 1180.7327,-608.5598 1175.0711,-599.2348"/>
<polygon fill="#191970" stroke="#191970" points="1178.0361,-597.3741 1169.8545,-590.6427 1172.0525,-601.007 1178.0361,-597.3741"/>
</g>
<!-- Node18&#45;&gt;Node1 -->
<g id="edge25" class="edge">
<title>Node18&#45;&gt;Node1</title>
<path fill="none" stroke="#191970" d="M1160.0134,-571.1978C1151.4296,-548.5371 1133.3487,-491.1629 1151,-448 1167.5059,-407.6379 1388.0489,-189.4769 1426,-168 1485.6679,-134.2334 1514.526,-162.3545 1576,-132 1593.7068,-123.2568 1636.5081,-93.8287 1645,-76 1648.8224,-67.9749 1650.6238,-62.8837 1645,-56 1625.6027,-32.2569 1548.5385,-20.4592 1489.742,-14.8118"/>
<polygon fill="#191970" stroke="#191970" points="1490.0141,-11.3221 1479.7358,-13.8923 1489.3735,-18.2928 1490.0141,-11.3221"/>
</g>
<!-- Node18&#45;&gt;Node10 -->
<g id="edge56" class="edge">
<title>Node18&#45;&gt;Node10</title>
<path fill="none" stroke="#191970" d="M1103.757,-579.4025C960.809,-574.3986 606.6104,-554.4984 520,-479 484.7334,-448.258 404.8517,-122.2802 398,-76 396.6982,-67.207 394.8355,-64.3065 398,-56 402.2275,-44.9034 410.4971,-34.7814 418.5088,-26.8751"/>
<polygon fill="#191970" stroke="#191970" points="421.2703,-29.0916 426.2752,-19.7534 416.5393,-23.9323 421.2703,-29.0916"/>
</g>
<!-- Node19 -->
<g id="node20" class="node">
<title>Node19</title>
<g id="a_node20"><a xlink:href="api_2event_8h.html" target="_top" xlink:title="ODP event. ">
<polygon fill="#ffffff" stroke="#000000" points="1173,-515.5 1173,-534.5 1265,-534.5 1265,-515.5 1173,-515.5"/>
<text text-anchor="middle" x="1219" y="-522.5" font-family="Helvetica,sans-Serif" font-size="10.00" fill="#000000">odp/api/event.h</text>
</a>
</g>
</g>
<!-- Node18&#45;&gt;Node19 -->
<g id="edge26" class="edge">
<title>Node18&#45;&gt;Node19</title>
<path fill="none" stroke="#191970" d="M1173.5803,-571.2455C1181.5458,-563.1352 1193.0641,-551.4075 1202.5079,-541.7919"/>
<polygon fill="#191970" stroke="#191970" points="1205.0195,-544.2297 1209.5295,-534.6427 1200.0253,-539.3247 1205.0195,-544.2297"/>
</g>
<!-- Node27 -->
<g id="node28" class="node">
<title>Node27</title>
<g id="a_node28"><a xlink:href="queue__types_8h.html" target="_top" xlink:title="ODP queue types. ">
<polygon fill="#ffffff" stroke="#000000" points="908.5,-448.5 908.5,-478.5 1019.5,-478.5 1019.5,-448.5 908.5,-448.5"/>
<text text-anchor="start" x="916.5" y="-466.5" font-family="Helvetica,sans-Serif" font-size="10.00" fill="#000000">odp/api/spec/queue</text>
<text text-anchor="middle" x="964" y="-455.5" font-family="Helvetica,sans-Serif" font-size="10.00" fill="#000000">_types.h</text>
</a>
</g>
</g>
<!-- Node18&#45;&gt;Node27 -->
<g id="edge48" class="edge">
<title>Node18&#45;&gt;Node27</title>
<path fill="none" stroke="#191970" d="M1147.6332,-571.3845C1115.1458,-552.2982 1041.9038,-509.2685 998.373,-483.6941"/>
<polygon fill="#191970" stroke="#191970" points="999.9554,-480.5645 989.5603,-478.5167 996.4095,-486.6 999.9554,-480.5645"/>
</g>
<!-- Node19&#45;&gt;Node16 -->
<g id="edge27" class="edge">
<title>Node19&#45;&gt;Node16</title>
<path fill="none" stroke="#191970" d="M1235.4475,-515.4761C1263.3375,-498.4393 1319.7244,-459.9955 1349,-412 1357.8172,-397.5447 1364.1309,-379.35 1368.0626,-365.727"/>
<polygon fill="#191970" stroke="#191970" points="1371.4772,-366.5074 1370.7073,-355.9406 1364.7196,-364.6811 1371.4772,-366.5074"/>
</g>
<!-- Node20 -->
<g id="node21" class="node">
<title>Node20</title>
<g id="a_node21"><a xlink:href="api_2spec_2event_8h.html" target="_top" xlink:title="ODP event. ">
<polygon fill="#ffffff" stroke="#000000" points="1160,-454 1160,-473 1278,-473 1278,-454 1160,-454"/>
<text text-anchor="middle" x="1219" y="-461" font-family="Helvetica,sans-Serif" font-size="10.00" fill="#000000">odp/api/spec/event.h</text>
</a>
</g>
</g>
<!-- Node19&#45;&gt;Node20 -->
<g id="edge28" class="edge">
<title>Node19&#45;&gt;Node20</title>
<path fill="none" stroke="#191970" d="M1219,-515.3906C1219,-506.8657 1219,-494.1392 1219,-483.4235"/>
<polygon fill="#191970" stroke="#191970" points="1222.5001,-483.2448 1219,-473.2449 1215.5001,-483.2449 1222.5001,-483.2448"/>
</g>
<!-- Node20&#45;&gt;Node1 -->
<g id="edge29" class="edge">
<title>Node20&#45;&gt;Node1</title>
<path fill="none" stroke="#191970" d="M1219.5912,-453.8672C1220.739,-439.7678 1224.0069,-412.9167 1233,-392 1234.064,-389.5252 1457.1798,-78.566 1458,-76 1460.7063,-67.5331 1461.0615,-64.345 1458,-56 1453.9432,-44.9418 1445.9203,-34.7193 1438.2006,-26.7335"/>
<polygon fill="#191970" stroke="#191970" points="1440.3698,-23.9632 1430.74,-19.5451 1435.5128,-29.0041 1440.3698,-23.9632"/>
</g>
<!-- Node20&#45;&gt;Node10 -->
<g id="edge47" class="edge">
<title>Node20&#45;&gt;Node10</title>
<path fill="none" stroke="#191970" d="M1196.0304,-453.895C1162.5174,-439.9437 1098.1963,-413.4024 1043,-392 988.0004,-370.6739 846.1787,-327.5162 794,-300 791.6207,-298.7453 479.8215,-77.9792 478,-76 465.0905,-61.9728 454.418,-42.981 447.5206,-28.9712"/>
<polygon fill="#191970" stroke="#191970" points="450.6216,-27.3414 443.1874,-19.7927 444.2916,-30.3299 450.6216,-27.3414"/>
</g>
<!-- Node21 -->
<g id="node22" class="node">
<title>Node21</title>
<g id="a_node22"><a xlink:href="api_2packet_8h.html" target="_top" xlink:title="ODP packet descriptor. ">
<polygon fill="#ffffff" stroke="#000000" points="1242,-392.5 1242,-411.5 1340,-411.5 1340,-392.5 1242,-392.5"/>
<text text-anchor="middle" x="1291" y="-399.5" font-family="Helvetica,sans-Serif" font-size="10.00" fill="#000000">odp/api/packet.h</text>
</a>
</g>
</g>
<!-- Node20&#45;&gt;Node21 -->
<g id="edge30" class="edge">
<title>Node20&#45;&gt;Node21</title>
<path fill="none" stroke="#191970" d="M1230.25,-453.8906C1241.386,-444.3786 1258.646,-429.6357 1271.9268,-418.2917"/>
<polygon fill="#191970" stroke="#191970" points="1274.2608,-420.9011 1279.5914,-411.7449 1269.7144,-415.5784 1274.2608,-420.9011"/>
</g>
<!-- Node21&#45;&gt;Node3 -->
<g id="edge31" class="edge">
<title>Node21&#45;&gt;Node3</title>
<path fill="none" stroke="#191970" d="M1291.0933,-392.2554C1291.7383,-378.1785 1294.9153,-352.0827 1309,-336 1355.9631,-282.3747 1435.4048,-256.4381 1491.9227,-244.2341"/>
<polygon fill="#191970" stroke="#191970" points="1492.7597,-247.6352 1501.843,-242.1814 1491.3412,-240.7804 1492.7597,-247.6352"/>
</g>
<!-- Node21&#45;&gt;Node11 -->
<g id="edge34" class="edge">
<title>Node21&#45;&gt;Node11</title>
<path fill="none" stroke="#191970" d="M1241.7159,-399.3179C1073.835,-390.1815 523.9847,-360.2577 330.2776,-349.7158"/>
<polygon fill="#191970" stroke="#191970" points="330.4016,-346.2174 320.2261,-349.1688 330.0211,-353.2071 330.4016,-346.2174"/>
</g>
<!-- Node21&#45;&gt;Node13 -->
<g id="edge36" class="edge">
<title>Node21&#45;&gt;Node13</title>
<path fill="none" stroke="#191970" d="M1241.9521,-396.5285C1151.0761,-386.391 956.5179,-364.6873 854.4981,-353.3066"/>
<polygon fill="#191970" stroke="#191970" points="854.6488,-349.8017 844.3224,-352.1714 853.8727,-356.7586 854.6488,-349.8017"/>
</g>
<!-- Node21&#45;&gt;Node14 -->
<g id="edge37" class="edge">
<title>Node21&#45;&gt;Node14</title>
<path fill="none" stroke="#191970" d="M1332.8386,-392.4369C1374.7685,-382.8529 1439.3948,-368.0812 1484.4624,-357.78"/>
<polygon fill="#191970" stroke="#191970" points="1485.3653,-361.164 1494.3339,-355.5237 1483.8054,-354.34 1485.3653,-361.164"/>
</g>
<!-- Node21&#45;&gt;Node16 -->
<g id="edge32" class="edge">
<title>Node21&#45;&gt;Node16</title>
<path fill="none" stroke="#191970" d="M1305.2833,-392.2455C1317.747,-383.7337 1336.0451,-371.2375 1350.4792,-361.3801"/>
<polygon fill="#191970" stroke="#191970" points="1352.5962,-364.1726 1358.8804,-355.6427 1348.6485,-358.392 1352.5962,-364.1726"/>
</g>
<!-- Node21&#45;&gt;Node17 -->
<g id="edge35" class="edge">
<title>Node21&#45;&gt;Node17</title>
<path fill="none" stroke="#191970" d="M1340.0483,-395.3007C1413.4017,-385.2817 1551.8583,-366.3706 1634.3283,-355.1064"/>
<polygon fill="#191970" stroke="#191970" points="1634.9122,-358.5592 1644.3466,-353.738 1633.9649,-351.6236 1634.9122,-358.5592"/>
</g>
<!-- Node22 -->
<g id="node23" class="node">
<title>Node22</title>
<polygon fill="#ffffff" stroke="#bfbfbf" points="1890,-336.5 1890,-355.5 2020,-355.5 2020,-336.5 1890,-336.5"/>
<text text-anchor="middle" x="1955" y="-343.5" font-family="Helvetica,sans-Serif" font-size="10.00" fill="#000000">odp/api/abi/packet_io.h</text>
</g>
<!-- Node21&#45;&gt;Node22 -->
<g id="edge33" class="edge">
<title>Node21&#45;&gt;Node22</title>
<path fill="none" stroke="#191970" d="M1340.0952,-397.8594C1455.1269,-388.158 1742.6917,-363.9055 1879.8857,-352.3349"/>
<polygon fill="#191970" stroke="#191970" points="1880.2275,-355.8186 1889.898,-351.4905 1879.6392,-348.8434 1880.2275,-355.8186"/>
</g>
<!-- Node23 -->
<g id="node24" class="node">
<title>Node23</title>
<g id="a_node24"><a xlink:href="api_2spec_2packet_8h.html" target="_top" xlink:title="ODP packet descriptor. ">
<polygon fill="#ffffff" stroke="#000000" points="1062.5,-336.5 1062.5,-355.5 1185.5,-355.5 1185.5,-336.5 1062.5,-336.5"/>
<text text-anchor="middle" x="1124" y="-343.5" font-family="Helvetica,sans-Serif" font-size="10.00" fill="#000000">odp/api/spec/packet.h</text>
</a>
</g>
</g>
<!-- Node21&#45;&gt;Node23 -->
<g id="edge38" class="edge">
<title>Node21&#45;&gt;Node23</title>
<path fill="none" stroke="#191970" d="M1262.2917,-392.3733C1234.6423,-383.1016 1192.6424,-369.0178 1162.1834,-358.804"/>
<polygon fill="#191970" stroke="#191970" points="1162.9276,-355.3621 1152.3337,-355.5011 1160.7021,-361.9989 1162.9276,-355.3621"/>
</g>
<!-- Node23&#45;&gt;Node1 -->
<g id="edge39" class="edge">
<title>Node23&#45;&gt;Node1</title>
<path fill="none" stroke="#191970" d="M1152.257,-336.387C1191.9694,-321.7147 1264.7161,-290.4507 1312,-244 1339.6853,-216.8026 1331.8533,-199.1513 1355,-168 1371.8734,-145.2914 1432.4644,-102.2564 1443,-76 1449.419,-60.0028 1441.4288,-41.546 1432.9867,-28.2249"/>
<polygon fill="#191970" stroke="#191970" points="1435.8079,-26.1509 1427.2414,-19.9165 1430.0503,-30.1322 1435.8079,-26.1509"/>
</g>
<!-- Node23&#45;&gt;Node10 -->
<g id="edge46" class="edge">
<title>Node23&#45;&gt;Node10</title>
<path fill="none" stroke="#191970" d="M1101.3587,-336.4994C1067.6005,-320.641 1008,-285.3689 1008,-234 1008,-234 1008,-234 1008,-122 1008,-91.4754 1012.6008,-75.3586 989,-56 952.3198,-25.913 643.2328,-14.8475 505.1638,-11.3793"/>
<polygon fill="#191970" stroke="#191970" points="505.2094,-7.8794 495.1265,-11.133 505.0376,-14.8773 505.2094,-7.8794"/>
</g>
<!-- Node24 -->
<g id="node25" class="node">
<title>Node24</title>
<g id="a_node25"><a xlink:href="api_2time_8h.html" target="_top" xlink:title="ODP time. ">
<polygon fill="#ffffff" stroke="#000000" points="1080.5,-280.5 1080.5,-299.5 1167.5,-299.5 1167.5,-280.5 1080.5,-280.5"/>
<text text-anchor="middle" x="1124" y="-287.5" font-family="Helvetica,sans-Serif" font-size="10.00" fill="#000000">odp/api/time.h</text>
</a>
</g>
</g>
<!-- Node23&#45;&gt;Node24 -->
<g id="edge40" class="edge">
<title>Node23&#45;&gt;Node24</title>
<path fill="none" stroke="#191970" d="M1124,-336.2455C1124,-328.9382 1124,-318.6944 1124,-309.7046"/>
<polygon fill="#191970" stroke="#191970" points="1127.5001,-309.6426 1124,-299.6427 1120.5001,-309.6427 1127.5001,-309.6426"/>
</g>
<!-- Node24&#45;&gt;Node3 -->
<g id="edge41" class="edge">
<title>Node24&#45;&gt;Node3</title>
<path fill="none" stroke="#191970" d="M1167.6007,-284.3741C1243.8718,-274.5327 1401.927,-254.1385 1491.7796,-242.5446"/>
<polygon fill="#191970" stroke="#191970" points="1492.3859,-245.9954 1501.8557,-241.2444 1491.49,-239.053 1492.3859,-245.9954"/>
</g>
<!-- Node25 -->
<g id="node26" class="node">
<title>Node25</title>
<polygon fill="#ffffff" stroke="#bfbfbf" points="1197.5,-224.5 1197.5,-243.5 1302.5,-243.5 1302.5,-224.5 1197.5,-224.5"/>
<text text-anchor="middle" x="1250" y="-231.5" font-family="Helvetica,sans-Serif" font-size="10.00" fill="#000000">odp/api/abi/time.h</text>
</g>
<!-- Node24&#45;&gt;Node25 -->
<g id="edge42" class="edge">
<title>Node24&#45;&gt;Node25</title>
<path fill="none" stroke="#191970" d="M1145.6602,-280.3733C1165.9772,-271.3435 1196.564,-257.7494 1219.375,-247.6111"/>
<polygon fill="#191970" stroke="#191970" points="1220.9059,-250.7609 1228.6225,-243.5011 1218.0628,-244.3642 1220.9059,-250.7609"/>
</g>
<!-- Node26 -->
<g id="node27" class="node">
<title>Node26</title>
<g id="a_node27"><a xlink:href="api_2spec_2time_8h.html" target="_top" xlink:title="ODP time. ">
<polygon fill="#ffffff" stroke="#000000" points="1112.5,-56.5 1112.5,-75.5 1225.5,-75.5 1225.5,-56.5 1112.5,-56.5"/>
<text text-anchor="middle" x="1169" y="-63.5" font-family="Helvetica,sans-Serif" font-size="10.00" fill="#000000">odp/api/spec/time.h</text>
</a>
</g>
</g>
<!-- Node24&#45;&gt;Node26 -->
<g id="edge43" class="edge">
<title>Node24&#45;&gt;Node26</title>
<path fill="none" stroke="#191970" d="M1125.9336,-280.375C1132.7563,-246.4133 1155.7919,-131.7472 1165.0747,-85.5392"/>
<polygon fill="#191970" stroke="#191970" points="1168.5354,-86.0826 1167.0736,-75.5891 1161.6725,-84.7039 1168.5354,-86.0826"/>
</g>
<!-- Node26&#45;&gt;Node1 -->
<g id="edge44" class="edge">
<title>Node26&#45;&gt;Node1</title>
<path fill="none" stroke="#191970" d="M1211.6925,-56.4369C1254.5679,-46.8328 1320.7005,-32.0191 1366.7002,-21.7152"/>
<polygon fill="#191970" stroke="#191970" points="1367.4905,-25.1249 1376.4836,-19.5237 1365.9604,-18.2942 1367.4905,-25.1249"/>
</g>
<!-- Node26&#45;&gt;Node10 -->
<g id="edge45" class="edge">
<title>Node26&#45;&gt;Node10</title>
<path fill="none" stroke="#191970" d="M1112.4434,-60.6212C1095.5763,-59.0685 1077.0443,-57.413 1060,-56 858.0988,-39.262 619.0192,-22.3795 505.3849,-14.5334"/>
<polygon fill="#191970" stroke="#191970" points="505.3312,-11.0215 495.1141,-13.8253 504.8496,-18.0049 505.3312,-11.0215"/>
</g>
<!-- Node27&#45;&gt;Node1 -->
<g id="edge49" class="edge">
<title>Node27&#45;&gt;Node1</title>
<path fill="none" stroke="#191970" d="M1002.1614,-448.471C1017.7613,-440.2068 1034.1865,-428.2664 1043,-412 1047.2346,-404.1846 1047.4076,-399.7192 1043,-392 1027.3903,-364.6623 997.6097,-383.3377 982,-356 977.5924,-348.2808 978.2715,-344.0691 982,-336 1002.1347,-292.4247 1270.1747,-81.2488 1311,-56 1332.945,-42.4279 1359.6,-31.0289 1380.9384,-22.9733"/>
<polygon fill="#191970" stroke="#191970" points="1382.1594,-26.2535 1390.3324,-19.5116 1379.739,-19.6853 1382.1594,-26.2535"/>
</g>
<!-- Node27&#45;&gt;Node10 -->
<g id="edge55" class="edge">
<title>Node27&#45;&gt;Node10</title>
<path fill="none" stroke="#191970" d="M931.8571,-448.3251C916.0419,-439.5421 897.6985,-427.2052 885,-412 861.5073,-383.8699 879.4683,-361.3503 853,-336 819.7903,-304.1931 796.4575,-321.8576 756,-300 632.1187,-233.0717 617.2664,-191.4236 501,-112 476.2588,-95.0988 459.4448,-101.6756 444,-76 435.6806,-62.1697 434.9849,-43.6485 436.0518,-29.7467"/>
<polygon fill="#191970" stroke="#191970" points="439.5347,-30.0944 437.1733,-19.7661 432.5785,-29.3127 439.5347,-30.0944"/>
</g>
<!-- Node28 -->
<g id="node29" class="node">
<title>Node28</title>
<g id="a_node29"><a xlink:href="api_2schedule__types_8h.html" target="_top" xlink:title="ODP schedule. ">
<polygon fill="#ffffff" stroke="#ff0000" points="894,-392.5 894,-411.5 1034,-411.5 1034,-392.5 894,-392.5"/>
<text text-anchor="middle" x="964" y="-399.5" font-family="Helvetica,sans-Serif" font-size="10.00" fill="#000000">odp/api/schedule_types.h</text>
</a>
</g>
</g>
<!-- Node27&#45;&gt;Node28 -->
<g id="edge50" class="edge">
<title>Node27&#45;&gt;Node28</title>
<path fill="none" stroke="#191970" d="M964,-448.2977C964,-440.3834 964,-430.6043 964,-422.0759"/>
<polygon fill="#191970" stroke="#191970" points="967.5001,-421.8469 964,-411.8469 960.5001,-421.847 967.5001,-421.8469"/>
</g>
<!-- Node33 -->
<g id="node30" class="node">
<title>Node33</title>
<g id="a_node30"><a xlink:href="deprecated_8h.html" target="_top" xlink:title="Control deprecated API definitions. ">
<polygon fill="#ffffff" stroke="#000000" points="642.5,-392.5 642.5,-411.5 761.5,-411.5 761.5,-392.5 642.5,-392.5"/>
<text text-anchor="middle" x="702" y="-399.5" font-family="Helvetica,sans-Serif" font-size="10.00" fill="#000000">odp/api/deprecated.h</text>
</a>
</g>
</g>
<!-- Node27&#45;&gt;Node33 -->
<g id="edge51" class="edge">
<title>Node27&#45;&gt;Node33</title>
<path fill="none" stroke="#191970" d="M908.4365,-450.4574C862.2128,-439.6072 796.9805,-424.295 752.2866,-413.8039"/>
<polygon fill="#191970" stroke="#191970" points="753.0508,-410.3882 742.5155,-411.5103 751.4511,-417.203 753.0508,-410.3882"/>
</g>
<!-- Node34 -->
<g id="node31" class="node">
<title>Node34</title>
<g id="a_node31"><a xlink:href="spec_2deprecated_8h.html" target="_top" xlink:title="Macro for deprecated API definitions. ">
<polygon fill="#ffffff" stroke="#000000" points="834.5,-56.5 834.5,-75.5 979.5,-75.5 979.5,-56.5 834.5,-56.5"/>
<text text-anchor="middle" x="907" y="-63.5" font-family="Helvetica,sans-Serif" font-size="10.00" fill="#000000">odp/api/spec/deprecated.h</text>
</a>
</g>
</g>
<!-- Node33&#45;&gt;Node34 -->
<g id="edge52" class="edge">
<title>Node33&#45;&gt;Node34</title>
<path fill="none" stroke="#191970" d="M696.9832,-392.4109C687.5255,-373.4144 668,-329.4221 668,-290 668,-290 668,-290 668,-178 668,-136.2902 788.8605,-97.2642 858.6887,-78.1974"/>
<polygon fill="#191970" stroke="#191970" points="859.853,-81.5087 868.6005,-75.5311 858.0346,-74.749 859.853,-81.5087"/>
</g>
<!-- Node34&#45;&gt;Node1 -->
<g id="edge53" class="edge">
<title>Node34&#45;&gt;Node1</title>
<path fill="none" stroke="#191970" d="M979.5421,-58.0657C1077.5913,-47.3416 1251.2828,-28.3441 1348.3484,-17.7275"/>
<polygon fill="#191970" stroke="#191970" points="1348.7989,-21.1992 1358.359,-16.6326 1348.0378,-14.2407 1348.7989,-21.1992"/>
</g>
<!-- Node34&#45;&gt;Node10 -->
<g id="edge54" class="edge">
<title>Node34&#45;&gt;Node10</title>
<path fill="none" stroke="#191970" d="M834.3885,-57.3114C744.3698,-46.54 592.2228,-28.3344 505.2528,-17.9277"/>
<polygon fill="#191970" stroke="#191970" points="505.5819,-14.4422 495.2368,-16.7292 504.7501,-21.3926 505.5819,-14.4422"/>
</g>
<!-- Node35&#45;&gt;Node1 -->
<g id="edge58" class="edge">
<title>Node35&#45;&gt;Node1</title>
<path fill="none" stroke="#191970" d="M592.3452,-453.9987C597.7178,-439.5956 609.2825,-411.8179 625,-392 649.1158,-361.5928 661.0238,-359.3805 692,-336 868.7098,-202.6218 897.6635,-136.258 1104,-56 1147.1947,-39.1987 1268.9979,-24.6678 1347.8676,-16.644"/>
<polygon fill="#191970" stroke="#191970" points="1348.6206,-20.086 1358.2203,-15.603 1347.9202,-13.1211 1348.6206,-20.086"/>
</g>
<!-- Node35&#45;&gt;Node10 -->
<g id="edge65" class="edge">
<title>Node35&#45;&gt;Node10</title>
<path fill="none" stroke="#191970" d="M581.4748,-453.7539C567.2883,-434.3746 538,-389.1417 538,-346 538,-346 538,-346 538,-178 538,-136.201 504.481,-137.0237 471,-112 444.548,-92.2298 422.7659,-104.4513 406,-76 396.4311,-59.7618 408.7603,-40.389 420.9782,-26.8478"/>
<polygon fill="#191970" stroke="#191970" points="423.5421,-29.2315 427.9926,-19.6167 418.5176,-24.3576 423.5421,-29.2315"/>
</g>
<!-- Node35&#45;&gt;Node21 -->
<g id="edge64" class="edge">
<title>Node35&#45;&gt;Node21</title>
<path fill="none" stroke="#191970" d="M649.7645,-458.1766C783.0504,-446.4999 1099.6905,-418.76 1231.6594,-407.1986"/>
<polygon fill="#191970" stroke="#191970" points="1232.3111,-410.655 1241.9674,-406.2956 1231.7001,-403.6818 1232.3111,-410.655"/>
</g>
<!-- Node35&#45;&gt;Node33 -->
<g id="edge59" class="edge">
<title>Node35&#45;&gt;Node33</title>
<path fill="none" stroke="#191970" d="M606.6563,-453.8906C625.1486,-443.8262 654.401,-427.9057 675.6308,-416.3514"/>
<polygon fill="#191970" stroke="#191970" points="677.3575,-419.3965 684.4677,-411.5419 674.0112,-413.2481 677.3575,-419.3965"/>
</g>
<!-- Node35&#45;&gt;Node31 -->
<g id="edge60" class="edge">
<title>Node35&#45;&gt;Node31</title>
<path fill="none" stroke="#191970" d="M551.1427,-453.9581C508.4929,-443.2082 439.0936,-425.7162 392.7544,-414.0365"/>
<polygon fill="#191970" stroke="#191970" points="393.4983,-410.6146 382.9461,-411.5643 391.7874,-417.4023 393.4983,-410.6146"/>
</g>
<!-- Node32 -->
<g id="node34" class="node">
<title>Node32</title>
<g id="a_node34"><a xlink:href="spec_2support_8h.html" target="_top" xlink:title="ODP support API. ">
<polygon fill="#ffffff" stroke="#000000" points="486.5,-56.5 486.5,-75.5 613.5,-75.5 613.5,-56.5 486.5,-56.5"/>
<text text-anchor="middle" x="550" y="-63.5" font-family="Helvetica,sans-Serif" font-size="10.00" fill="#000000">odp/api/spec/support.h</text>
</a>
</g>
</g>
<!-- Node31&#45;&gt;Node32 -->
<g id="edge61" class="edge">
<title>Node31&#45;&gt;Node32</title>
<path fill="none" stroke="#191970" d="M356.086,-392.4418C375.5907,-374.4968 414,-333.6211 414,-290 414,-290 414,-290 414,-178 414,-127.5608 470.431,-95.6302 510.5925,-79.2924"/>
<polygon fill="#191970" stroke="#191970" points="512.1068,-82.4587 520.1542,-75.5675 509.5658,-75.9362 512.1068,-82.4587"/>
</g>
<!-- Node32&#45;&gt;Node1 -->
<g id="edge62" class="edge">
<title>Node32&#45;&gt;Node1</title>
<path fill="none" stroke="#191970" d="M613.6668,-56.9793C616.82,-56.6264 619.9443,-56.2971 623,-56 890.143,-30.0239 1209.2556,-17.0081 1348.3599,-12.2218"/>
<polygon fill="#191970" stroke="#191970" points="1348.5863,-15.7162 1358.4613,-11.8778 1348.348,-8.7202 1348.5863,-15.7162"/>
</g>
<!-- Node32&#45;&gt;Node10 -->
<g id="edge63" class="edge">
<title>Node32&#45;&gt;Node10</title>
<path fill="none" stroke="#191970" d="M530.9184,-56.3733C513.2598,-47.4644 486.7947,-34.1127 466.7902,-24.0203"/>
<polygon fill="#191970" stroke="#191970" points="468.3372,-20.8806 457.8326,-19.5011 465.1842,-27.1303 468.3372,-20.8806"/>
</g>
<!-- Node36&#45;&gt;Node3 -->
<g id="edge68" class="edge">
<title>Node36&#45;&gt;Node3</title>
<path fill="none" stroke="#191970" d="M1709.0213,-862.3855C1721.4854,-844.8783 1747.5242,-806.2519 1762,-770 1815.4396,-636.1709 1820.5749,-590.6278 1800,-448 1792.5908,-396.6381 1800.4961,-375.6352 1767,-336 1726.1243,-287.6328 1656.8839,-260.2447 1609.3786,-246.2845"/>
<polygon fill="#191970" stroke="#191970" points="1610.1651,-242.8695 1599.5894,-243.5066 1608.2541,-249.6036 1610.1651,-242.8695"/>
</g>
<!-- Node36&#45;&gt;Node11 -->
<g id="edge71" class="edge">
<title>Node36&#45;&gt;Node11</title>
<path fill="none" stroke="#191970" d="M1645.87,-870.2064C1408.4982,-862.28 494.0621,-828.1872 380,-770 342.5325,-750.8865 318,-740.5611 318,-698.5 318,-698.5 318,-698.5 318,-637 318,-534.9315 289.8733,-512.4914 272,-412 269.2689,-396.6446 266.6457,-379.1942 264.7717,-366.0951"/>
<polygon fill="#191970" stroke="#191970" points="268.1918,-365.2813 263.3338,-355.8659 261.26,-366.2557 268.1918,-365.2813"/>
</g>
<!-- Node36&#45;&gt;Node14 -->
<g id="edge69" class="edge">
<title>Node36&#45;&gt;Node14</title>
<path fill="none" stroke="#191970" d="M1702.0561,-862.1032C1702.2536,-849.1446 1703.0365,-825.753 1706,-806 1713.2931,-757.3887 1732,-747.6553 1732,-698.5 1732,-698.5 1732,-698.5 1732,-637 1732,-512.9137 1607.8858,-402.0419 1557.1879,-361.9293"/>
<polygon fill="#191970" stroke="#191970" points="1559.2069,-359.0656 1549.1645,-355.6892 1554.9094,-364.5912 1559.2069,-359.0656"/>
</g>
<!-- Node36&#45;&gt;Node17 -->
<g id="edge73" class="edge">
<title>Node36&#45;&gt;Node17</title>
<path fill="none" stroke="#191970" d="M1703.0697,-862.168C1704.8029,-848.8766 1708.9846,-824.6901 1718,-806 1726.8064,-787.7432 1739.4217,-789.1726 1746,-770 1797.2182,-620.7226 1731.9157,-426.0101 1708.6481,-365.0746"/>
<polygon fill="#191970" stroke="#191970" points="1711.8409,-363.6285 1704.9459,-355.5843 1705.3195,-366.1725 1711.8409,-363.6285"/>
</g>
<!-- Node36&#45;&gt;Node22 -->
<g id="edge72" class="edge">
<title>Node36&#45;&gt;Node22</title>
<path fill="none" stroke="#191970" d="M1715.7464,-862.4884C1745.2741,-841.8353 1813.427,-792.9062 1830,-770 1882.5077,-697.427 1900,-670.5762 1900,-581 1900,-581 1900,-581 1900,-463.5 1900,-425.0957 1924.399,-385.7244 1940.6952,-363.7111"/>
<polygon fill="#191970" stroke="#191970" points="1943.5714,-365.7122 1946.8846,-355.6487 1938.0189,-361.4496 1943.5714,-365.7122"/>
</g>
<!-- Node37 -->
<g id="node36" class="node">
<title>Node37</title>
<polygon fill="#ffffff" stroke="#bfbfbf" points="1836,-806.5 1836,-825.5 1982,-825.5 1982,-806.5 1836,-806.5"/>
<text text-anchor="middle" x="1909" y="-813.5" font-family="Helvetica,sans-Serif" font-size="10.00" fill="#000000">odp/api/abi/classification.h</text>
</g>
<!-- Node36&#45;&gt;Node37 -->
<g id="edge70" class="edge">
<title>Node36&#45;&gt;Node37</title>
<path fill="none" stroke="#191970" d="M1737.5846,-862.3733C1772.6016,-852.9001 1826.1881,-838.4032 1864.1125,-828.1435"/>
<polygon fill="#191970" stroke="#191970" points="1865.1408,-831.4912 1873.8798,-825.5011 1863.3127,-824.7341 1865.1408,-831.4912"/>
</g>
<!-- Node38 -->
<g id="node37" class="node">
<title>Node38</title>
<g id="a_node37"><a xlink:href="api_2spec_2packet__io_8h.html" target="_top" xlink:title="ODP Packet IO. ">
<polygon fill="#ffffff" stroke="#000000" points="1030.5,-806.5 1030.5,-825.5 1167.5,-825.5 1167.5,-806.5 1030.5,-806.5"/>
<text text-anchor="middle" x="1099" y="-813.5" font-family="Helvetica,sans-Serif" font-size="10.00" fill="#000000">odp/api/spec/packet_io.h</text>
</a>
</g>
</g>
<!-- Node36&#45;&gt;Node38 -->
<g id="edge74" class="edge">
<title>Node36&#45;&gt;Node38</title>
<path fill="none" stroke="#191970" d="M1645.8127,-866.7819C1537.8912,-856.7594 1301.3692,-834.7938 1177.7673,-823.315"/>
<polygon fill="#191970" stroke="#191970" points="1177.897,-819.8121 1167.6162,-822.3723 1177.2496,-826.7821 1177.897,-819.8121"/>
</g>
<!-- Node38&#45;&gt;Node1 -->
<g id="edge75" class="edge">
<title>Node38&#45;&gt;Node1</title>
<path fill="none" stroke="#191970" d="M1167.5444,-809.5902C1323.9997,-794.0378 1694,-751.6403 1694,-698.5 1694,-698.5 1694,-698.5 1694,-637 1694,-559.645 1736.7704,-550.2038 1767,-479 1793.382,-416.8591 1862,-249.2334 1862,-234 1862,-234 1862,-234 1862,-122 1862,-46.1898 1615.0735,-21.1495 1489.9261,-13.3268"/>
<polygon fill="#191970" stroke="#191970" points="1489.8613,-9.8166 1479.6684,-12.7071 1489.4391,-16.8038 1489.8613,-9.8166"/>
</g>
<!-- Node38&#45;&gt;Node10 -->
<g id="edge90" class="edge">
<title>Node38&#45;&gt;Node10</title>
<path fill="none" stroke="#191970" d="M1030.1882,-813.1564C947.8921,-808.6449 806.4024,-797.3536 688,-770 615.8175,-753.3242 596.9886,-747.6734 531,-714 421.7972,-658.2747 76,-524.5992 76,-402 76,-402 76,-402 76,-122 76,-84.0995 97.0421,-74.7143 130,-56 170.2851,-33.1251 294.4018,-20.2957 372.5287,-14.291"/>
<polygon fill="#191970" stroke="#191970" points="373.052,-17.7617 382.7621,-13.5232 372.5282,-10.7813 373.052,-17.7617"/>
</g>
<!-- Node38&#45;&gt;Node15 -->
<g id="edge83" class="edge">
<title>Node38&#45;&gt;Node15</title>
<path fill="none" stroke="#191970" d="M1128.777,-806.4013C1146.24,-799.1914 1167.1388,-787.5086 1179,-770 1202.3406,-735.5462 1202.3759,-684.5148 1200.2536,-656.7485"/>
<polygon fill="#191970" stroke="#191970" points="1203.7297,-656.3292 1199.3089,-646.7008 1196.7605,-656.9846 1203.7297,-656.3292"/>
</g>
<!-- Node38&#45;&gt;Node21 -->
<g id="edge89" class="edge">
<title>Node38&#45;&gt;Node21</title>
<path fill="none" stroke="#191970" d="M1165.6355,-806.475C1226.1482,-793.6181 1306,-764.2044 1306,-698.5 1306,-698.5 1306,-698.5 1306,-525 1306,-488.229 1299.3128,-445.7262 1294.8684,-421.539"/>
<polygon fill="#191970" stroke="#191970" points="1298.2696,-420.6898 1292.961,-411.5209 1291.3932,-421.9991 1298.2696,-420.6898"/>
</g>
<!-- Node38&#45;&gt;Node24 -->
<g id="edge88" class="edge">
<title>Node38&#45;&gt;Node24</title>
<path fill="none" stroke="#191970" d="M1071.9007,-806.4098C1054.6727,-798.9915 1033.2019,-787.0763 1020,-770 999.8174,-743.8944 1000,-731.4976 1000,-698.5 1000,-698.5 1000,-698.5 1000,-637 1000,-533.731 1045.0079,-514.4485 1058,-412 1061.1392,-387.246 1055.3799,-380.9141 1054,-356 1053.5084,-347.1247 1049.7798,-343.8232 1054,-336 1061.573,-321.9617 1075.5073,-311.5084 1088.9614,-304.1453"/>
<polygon fill="#191970" stroke="#191970" points="1090.758,-307.1593 1098.115,-299.5353 1087.6094,-300.9074 1090.758,-307.1593"/>
</g>
<!-- Node38&#45;&gt;Node33 -->
<g id="edge76" class="edge">
<title>Node38&#45;&gt;Node33</title>
<path fill="none" stroke="#191970" d="M1059.5912,-806.4583C988.2473,-788.0269 845,-745.2043 845,-698.5 845,-698.5 845,-698.5 845,-637 845,-587.749 752.1795,-465.3203 716.1027,-419.5957"/>
<polygon fill="#191970" stroke="#191970" points="718.6479,-417.1727 709.6883,-411.518 713.1661,-421.5258 718.6479,-417.1727"/>
</g>
<!-- Node39 -->
<g id="node38" class="node">
<title>Node39</title>
<g id="a_node38"><a xlink:href="packet__io__stats_8h.html" target="_top" xlink:title="ODP packet IO stats. ">
<polygon fill="#ffffff" stroke="#000000" points="1028.5,-750.5 1028.5,-769.5 1169.5,-769.5 1169.5,-750.5 1028.5,-750.5"/>
<text text-anchor="middle" x="1099" y="-757.5" font-family="Helvetica,sans-Serif" font-size="10.00" fill="#000000">odp/api/packet_io_stats.h</text>
</a>
</g>
</g>
<!-- Node38&#45;&gt;Node39 -->
<g id="edge77" class="edge">
<title>Node38&#45;&gt;Node39</title>
<path fill="none" stroke="#191970" d="M1099,-806.2455C1099,-798.9382 1099,-788.6944 1099,-779.7046"/>
<polygon fill="#191970" stroke="#191970" points="1102.5001,-779.6426 1099,-769.6427 1095.5001,-779.6427 1102.5001,-779.6426"/>
</g>
<!-- Node41 -->
<g id="node40" class="node">
<title>Node41</title>
<g id="a_node40"><a xlink:href="reassembly_8h.html" target="_top" xlink:title="ODP REASSEMBLY API &#45; platform specific header. ">
<polygon fill="#ffffff" stroke="#000000" points="697,-750.5 697,-769.5 817,-769.5 817,-750.5 697,-750.5"/>
<text text-anchor="middle" x="757" y="-757.5" font-family="Helvetica,sans-Serif" font-size="10.00" fill="#000000">odp/api/reassembly.h</text>
</a>
</g>
</g>
<!-- Node38&#45;&gt;Node41 -->
<g id="edge84" class="edge">
<title>Node38&#45;&gt;Node41</title>
<path fill="none" stroke="#191970" d="M1040.5967,-806.4369C980.9594,-796.6717 888.4302,-781.5207 825.4035,-771.2006"/>
<polygon fill="#191970" stroke="#191970" points="825.5966,-767.6857 815.1624,-769.5237 824.4654,-774.5937 825.5966,-767.6857"/>
</g>
<!-- Node40 -->
<g id="node39" class="node">
<title>Node40</title>
<g id="a_node39"><a xlink:href="spec_2packet__io__stats_8h.html" target="_top" xlink:title="ODP Packet IO statistics. ">
<polygon fill="#ffffff" stroke="#000000" points="1042,-683.5 1042,-713.5 1156,-713.5 1156,-683.5 1042,-683.5"/>
<text text-anchor="start" x="1050" y="-701.5" font-family="Helvetica,sans-Serif" font-size="10.00" fill="#000000">odp/api/spec/packet</text>
<text text-anchor="middle" x="1099" y="-690.5" font-family="Helvetica,sans-Serif" font-size="10.00" fill="#000000">_io_stats.h</text>
</a>
</g>
</g>
<!-- Node39&#45;&gt;Node40 -->
<g id="edge78" class="edge">
<title>Node39&#45;&gt;Node40</title>
<path fill="none" stroke="#191970" d="M1099,-750.3906C1099,-743.2234 1099,-733.0862 1099,-723.671"/>
<polygon fill="#191970" stroke="#191970" points="1102.5001,-723.5446 1099,-713.5446 1095.5001,-723.5446 1102.5001,-723.5446"/>
</g>
<!-- Node40&#45;&gt;Node1 -->
<g id="edge79" class="edge">
<title>Node40&#45;&gt;Node1</title>
<path fill="none" stroke="#191970" d="M1156.0978,-695.8145C1320.9532,-684.7077 1786,-628.3531 1786,-346 1786,-346 1786,-346 1786,-122 1786,-72.038 1741.0893,-75.2866 1695,-56 1658.8552,-40.8748 1558.6693,-26.546 1489.5046,-18.0158"/>
<polygon fill="#191970" stroke="#191970" points="1489.8866,-14.5366 1479.5364,-16.8 1489.039,-21.4851 1489.8866,-14.5366"/>
</g>
<!-- Node40&#45;&gt;Node10 -->
<g id="edge82" class="edge">
<title>Node40&#45;&gt;Node10</title>
<path fill="none" stroke="#191970" d="M1041.8663,-685.0038C945.7544,-661.2506 746.7651,-607.5351 589,-535 545.8528,-515.1624 534.4231,-509.4723 498,-479 451.9489,-440.4727 159.4068,-132.0963 138,-76 134.8308,-67.6953 132.2088,-62.7435 138,-56 153.1,-38.4171 288.7663,-23.3372 372.7264,-15.5824"/>
<polygon fill="#191970" stroke="#191970" points="373.0567,-19.0669 382.6975,-14.6733 372.421,-12.0958 373.0567,-19.0669"/>
</g>
<!-- Node40&#45;&gt;Node15 -->
<g id="edge81" class="edge">
<title>Node40&#45;&gt;Node15</title>
<path fill="none" stroke="#191970" d="M1123.2181,-683.4554C1138.5773,-673.9141 1158.3757,-661.6151 1173.7425,-652.0691"/>
<polygon fill="#191970" stroke="#191970" points="1176.011,-654.7802 1182.6585,-646.5303 1172.3172,-648.8341 1176.011,-654.7802"/>
</g>
<!-- Node40&#45;&gt;Node33 -->
<g id="edge80" class="edge">
<title>Node40&#45;&gt;Node33</title>
<path fill="none" stroke="#191970" d="M1078.7688,-683.4C1040.1337,-654.5631 953.1793,-589.6564 880,-535 823.2561,-492.6189 756.352,-442.6212 723.0454,-417.7291"/>
<polygon fill="#191970" stroke="#191970" points="725.0579,-414.8637 714.9525,-411.6807 720.8673,-420.4708 725.0579,-414.8637"/>
</g>
<!-- Node42 -->
<g id="node41" class="node">
<title>Node42</title>
<g id="a_node41"><a xlink:href="spec_2reassembly_8h.html" target="_top" xlink:title="ODP REASSEMBLY API. ">
<polygon fill="#ffffff" stroke="#000000" points="632,-56.5 632,-75.5 778,-75.5 778,-56.5 632,-56.5"/>
<text text-anchor="middle" x="705" y="-63.5" font-family="Helvetica,sans-Serif" font-size="10.00" fill="#000000">odp/api/spec/reassembly.h</text>
</a>
</g>
</g>
<!-- Node41&#45;&gt;Node42 -->
<g id="edge85" class="edge">
<title>Node41&#45;&gt;Node42</title>
<path fill="none" stroke="#191970" d="M696.9301,-752.8546C635.6785,-741.9162 544.2464,-714.5851 505,-647 437.8118,-531.297 500,-479.7962 500,-346 500,-346 500,-346 500,-178 500,-119.1516 565.863,-91.0322 622.9243,-77.7133"/>
<polygon fill="#191970" stroke="#191970" points="623.7157,-81.123 632.7247,-75.5473 622.205,-74.2879 623.7157,-81.123"/>
</g>
<!-- Node42&#45;&gt;Node1 -->
<g id="edge86" class="edge">
<title>Node42&#45;&gt;Node1</title>
<path fill="none" stroke="#191970" d="M778.2592,-59.8858C794.007,-58.5882 810.5567,-57.2371 826,-56 1014.6501,-40.8877 1237.1257,-23.8365 1348.2994,-15.3685"/>
<polygon fill="#191970" stroke="#191970" points="1348.6762,-18.8501 1358.3816,-14.6009 1348.1447,-11.8703 1348.6762,-18.8501"/>
</g>
<!-- Node42&#45;&gt;Node10 -->
<g id="edge87" class="edge">
<title>Node42&#45;&gt;Node10</title>
<path fill="none" stroke="#191970" d="M659.5752,-56.4369C613.7645,-46.7925 543.0002,-31.8948 494.0325,-21.5858"/>
<polygon fill="#191970" stroke="#191970" points="494.744,-18.1589 484.2374,-19.5237 493.3019,-25.0088 494.744,-18.1589"/>
</g>
<!-- Node44 -->
<g id="node43" class="node">
<title>Node44</title>
<g id="a_node43"><a xlink:href="spec_2protocols_8h.html" target="_top" xlink:title="ODP protocols. ">
<polygon fill="#ffffff" stroke="#000000" points="180.5,-56.5 180.5,-75.5 315.5,-75.5 315.5,-56.5 180.5,-56.5"/>
<text text-anchor="middle" x="248" y="-63.5" font-family="Helvetica,sans-Serif" font-size="10.00" fill="#000000">odp/api/spec/protocols.h</text>
</a>
</g>
</g>
<!-- Node43&#45;&gt;Node44 -->
<g id="edge92" class="edge">
<title>Node43&#45;&gt;Node44</title>
<path fill="none" stroke="#191970" d="M160.2721,-571.1704C164.6029,-537.9886 179.3747,-427.1013 195,-336 211.1544,-241.8138 234.4255,-129.9559 243.8263,-85.5584"/>
<polygon fill="#191970" stroke="#191970" points="247.2499,-86.2853 245.9047,-75.7762 240.4027,-84.8304 247.2499,-86.2853"/>
</g>
<!-- Node44&#45;&gt;Node1 -->
<g id="edge93" class="edge">
<title>Node44&#45;&gt;Node1</title>
<path fill="none" stroke="#191970" d="M315.5911,-62.7676C521.1885,-52.9355 1137.7978,-23.4478 1347.9411,-13.3982"/>
<polygon fill="#191970" stroke="#191970" points="1348.4111,-16.8798 1358.2324,-12.906 1348.0766,-9.8878 1348.4111,-16.8798"/>
</g>
<!-- Node44&#45;&gt;Node10 -->
<g id="edge94" class="edge">
<title>Node44&#45;&gt;Node10</title>
<path fill="none" stroke="#191970" d="M280.8341,-56.3733C312.8695,-46.9807 361.7487,-32.6496 396.6855,-22.4064"/>
<polygon fill="#191970" stroke="#191970" points="397.9831,-25.6733 406.5944,-19.5011 396.0136,-18.9561 397.9831,-25.6733"/>
</g>
<!-- Node45&#45;&gt;Node3 -->
<g id="edge96" class="edge">
<title>Node45&#45;&gt;Node3</title>
<path fill="none" stroke="#191970" d="M1835.269,-985.4342C1903.7374,-965.8177 2048,-918.9188 2048,-872 2048,-872 2048,-872 2048,-402 2048,-371.4754 2051.2953,-356.8488 2029,-336 2013.9359,-321.9132 1742.5808,-269.0009 1618.7345,-245.4399"/>
<polygon fill="#191970" stroke="#191970" points="1619.1259,-241.9517 1608.6484,-243.5239 1617.8195,-248.8287 1619.1259,-241.9517"/>
</g>
<!-- Node45&#45;&gt;Node11 -->
<g id="edge99" class="edge">
<title>Node45&#45;&gt;Node11</title>
<path fill="none" stroke="#191970" d="M1735.9254,-993.547C1486.3776,-987.3667 579.7107,-959.9142 304,-882 143.7417,-836.712 42.732,-729.1195 95,-571 124.8084,-480.8245 206.28,-397.3284 243.2777,-362.7708"/>
<polygon fill="#191970" stroke="#191970" points="245.8779,-365.1346 250.8674,-355.7881 241.1384,-359.9831 245.8779,-365.1346"/>
</g>
<!-- Node45&#45;&gt;Node14 -->
<g id="edge97" class="edge">
<title>Node45&#45;&gt;Node14</title>
<path fill="none" stroke="#191970" d="M1755.0112,-985.4012C1701.1158,-970.953 1618,-937.976 1618,-872 1618,-872 1618,-872 1618,-637 1618,-530.8445 1566.8207,-410.7957 1545.3279,-365.0613"/>
<polygon fill="#191970" stroke="#191970" points="1548.3556,-363.2799 1540.8839,-355.7683 1542.0406,-366.2998 1548.3556,-363.2799"/>
</g>
<!-- Node45&#45;&gt;Node17 -->
<g id="edge101" class="edge">
<title>Node45&#45;&gt;Node17</title>
<path fill="none" stroke="#191970" d="M1825.3594,-985.4157C1882.9811,-961.9058 2016.8405,-896.6209 1991,-806 1935.4822,-611.3025 1769.4711,-419.9973 1717.0487,-363.0307"/>
<polygon fill="#191970" stroke="#191970" points="1719.534,-360.5634 1710.1651,-355.6161 1714.4039,-365.3261 1719.534,-360.5634"/>
</g>
<!-- Node45&#45;&gt;Node22 -->
<g id="edge100" class="edge">
<title>Node45&#45;&gt;Node22</title>
<path fill="none" stroke="#191970" d="M1864.3014,-992.8772C1933.574,-989.077 2037.2392,-978.4868 2062,-949 2070.86,-938.4489 2064.1268,-931.6126 2062,-918 2041.7574,-788.4335 1972,-768.1382 1972,-637 1972,-637 1972,-637 1972,-463.5 1972,-428.7822 1964.6405,-388.8832 1959.606,-365.6508"/>
<polygon fill="#191970" stroke="#191970" points="1962.9727,-364.6687 1957.3638,-355.6803 1956.1433,-366.2046 1962.9727,-364.6687"/>
</g>
<!-- Node45&#45;&gt;Node37 -->
<g id="edge98" class="edge">
<title>Node45&#45;&gt;Node37</title>
<path fill="none" stroke="#191970" d="M1805.8603,-985.3762C1823.2338,-956.8455 1874.6773,-872.3648 1897.6723,-834.6024"/>
<polygon fill="#191970" stroke="#191970" points="1900.8991,-836.0328 1903.1107,-825.6714 1894.9203,-832.3921 1900.8991,-836.0328"/>
</g>
<!-- Node46 -->
<g id="node45" class="node">
<title>Node46</title>
<g id="a_node45"><a xlink:href="api_2spec_2classification_8h.html" target="_top" xlink:title="ODP classification descriptor. ">
<polygon fill="#ffffff" stroke="#000000" points="1022,-924 1022,-943 1176,-943 1176,-924 1022,-924"/>
<text text-anchor="middle" x="1099" y="-931" font-family="Helvetica,sans-Serif" font-size="10.00" fill="#000000">odp/api/spec/classification.h</text>
</a>
</g>
</g>
<!-- Node45&#45;&gt;Node46 -->
<g id="edge102" class="edge">
<title>Node45&#45;&gt;Node46</title>
<path fill="none" stroke="#191970" d="M1735.9326,-989.3793C1609.7646,-978.3103 1329.0006,-953.6784 1186.1339,-941.1444"/>
<polygon fill="#191970" stroke="#191970" points="1186.3575,-937.6507 1176.0898,-940.2632 1185.7456,-944.6239 1186.3575,-937.6507"/>
</g>
<!-- Node46&#45;&gt;Node1 -->
<g id="edge103" class="edge">
<title>Node46&#45;&gt;Node1</title>
<path fill="none" stroke="#191970" d="M1176.0078,-931.0258C1340.6119,-925.2409 1715.9342,-909.2199 1767,-882 1804.9771,-861.7568 1799.5623,-839.1545 1827,-806 1955.4581,-650.7772 2124,-664.9835 2124,-463.5 2124,-463.5 2124,-463.5 2124,-122 2124,-58.2514 1668.579,-24.626 1489.811,-13.8825"/>
<polygon fill="#191970" stroke="#191970" points="1489.9082,-10.3822 1479.7181,-13.2826 1489.4928,-17.3699 1489.9082,-10.3822"/>
</g>
<!-- Node46&#45;&gt;Node10 -->
<g id="edge111" class="edge">
<title>Node46&#45;&gt;Node10</title>
<path fill="none" stroke="#191970" d="M1021.9745,-929.96C873.4113,-922.7172 552.3863,-904.9374 444,-882 370.7019,-866.4882 346.3608,-868.9893 285,-826 143.2686,-726.7031 38,-698.0539 38,-525 38,-525 38,-525 38,-122 38,-83.2415 60.9064,-74.4349 95,-56 141.6023,-30.8015 286.5001,-18.5162 372.6613,-13.2936"/>
<polygon fill="#191970" stroke="#191970" points="373.0907,-16.7744 382.8671,-12.6913 372.6782,-9.7866 373.0907,-16.7744"/>
</g>
<!-- Node46&#45;&gt;Node31 -->
<g id="edge105" class="edge">
<title>Node46&#45;&gt;Node31</title>
<path fill="none" stroke="#191970" d="M1021.9369,-929.3163C831.8683,-917.9718 356,-882.8897 356,-816 356,-816 356,-816 356,-698.5 356,-594.2836 349.1296,-469.6038 346.2482,-421.8972"/>
<polygon fill="#191970" stroke="#191970" points="349.7297,-421.4876 345.6229,-411.7211 342.7429,-421.917 349.7297,-421.4876"/>
</g>
<!-- Node46&#45;&gt;Node36 -->
<g id="edge104" class="edge">
<title>Node46&#45;&gt;Node36</title>
<path fill="none" stroke="#191970" d="M1176.2898,-925.6172C1295.7076,-913.4378 1523.009,-890.2553 1635.5136,-878.7809"/>
<polygon fill="#191970" stroke="#191970" points="1636.1147,-882.2379 1645.7079,-877.7412 1635.4044,-875.274 1636.1147,-882.2379"/>
</g>
<!-- Node47 -->
<g id="node46" class="node">
<title>Node47</title>
<g id="a_node46"><a xlink:href="threshold_8h.html" target="_top" xlink:title="ODP threshold API &#45; platform specific header. ">
<polygon fill="#ffffff" stroke="#000000" points="829,-862.5 829,-881.5 939,-881.5 939,-862.5 829,-862.5"/>
<text text-anchor="middle" x="884" y="-869.5" font-family="Helvetica,sans-Serif" font-size="10.00" fill="#000000">odp/api/threshold.h</text>
</a>
</g>
</g>
<!-- Node46&#45;&gt;Node47 -->
<g id="edge106" class="edge">
<title>Node46&#45;&gt;Node47</title>
<path fill="none" stroke="#191970" d="M1065.4063,-923.8906C1028.0917,-913.2169 967.7508,-895.9566 927.0114,-884.3033"/>
<polygon fill="#191970" stroke="#191970" points="927.9348,-880.9271 917.3579,-881.5419 926.0097,-887.6572 927.9348,-880.9271"/>
</g>
<!-- Node48 -->
<g id="node47" class="node">
<title>Node48</title>
<g id="a_node47"><a xlink:href="spec_2threshold_8h.html" target="_top" xlink:title="ODP threshold descriptor. ">
<polygon fill="#ffffff" stroke="#000000" points="803,-280.5 803,-299.5 939,-299.5 939,-280.5 803,-280.5"/>
<text text-anchor="middle" x="871" y="-287.5" font-family="Helvetica,sans-Serif" font-size="10.00" fill="#000000">odp/api/spec/threshold.h</text>
</a>
</g>
</g>
<!-- Node47&#45;&gt;Node48 -->
<g id="edge107" class="edge">
<title>Node47&#45;&gt;Node48</title>
<path fill="none" stroke="#191970" d="M837.6041,-862.4453C790.5978,-850.0243 720.3409,-823.2886 688,-770 671.7193,-743.1741 710.8697,-738.072 731,-714 774.6746,-661.7736 807,-649.0813 807,-581 807,-581 807,-581 807,-525 807,-463.7617 804.8436,-443.0366 771,-392 753.1994,-365.1565 705.9517,-361.9729 725,-336 735.4872,-321.7005 774.7166,-309.8089 809.8716,-301.7008"/>
<polygon fill="#191970" stroke="#191970" points="810.6558,-305.1119 819.6518,-299.5153 809.1292,-298.2804 810.6558,-305.1119"/>
</g>
<!-- Node48&#45;&gt;Node1 -->
<g id="edge108" class="edge">
<title>Node48&#45;&gt;Node1</title>
<path fill="none" stroke="#191970" d="M891.5253,-280.3616C940.8438,-256.953 1069.4505,-194.4245 1171,-132 1220.6926,-101.453 1225.9014,-82.2336 1278,-56 1306.9828,-41.4061 1341.6001,-30.0332 1369.2807,-22.2466"/>
<polygon fill="#191970" stroke="#191970" points="1370.4243,-25.5623 1379.1417,-19.5409 1368.572,-18.8118 1370.4243,-25.5623"/>
</g>
<!-- Node48&#45;&gt;Node3 -->
<g id="edge109" class="edge">
<title>Node48&#45;&gt;Node3</title>
<path fill="none" stroke="#191970" d="M939.0678,-284.4515C1071.0746,-273.6912 1360.3669,-250.1098 1491.2883,-239.4379"/>
<polygon fill="#191970" stroke="#191970" points="1491.8876,-242.9008 1501.5702,-238.5998 1491.3188,-235.9239 1491.8876,-242.9008"/>
</g>
<!-- Node48&#45;&gt;Node10 -->
<g id="edge110" class="edge">
<title>Node48&#45;&gt;Node10</title>
<path fill="none" stroke="#191970" d="M860.5566,-280.3101C842.1826,-262.151 806,-220.9402 806,-178 806,-178 806,-178 806,-122 806,-91.4754 810.1296,-75.9192 787,-56 766.0593,-37.9659 600.0795,-22.3937 505.1108,-14.8487"/>
<polygon fill="#191970" stroke="#191970" points="505.2664,-11.3503 495.023,-14.0562 504.7181,-18.3288 505.2664,-11.3503"/>
</g>
<!-- Node50 -->
<g id="node49" class="node">
<title>Node50</title>
<polygon fill="#ffffff" stroke="#bfbfbf" points="2242,-918.5 2242,-948.5 2344,-948.5 2344,-918.5 2242,-918.5"/>
<text text-anchor="start" x="2250" y="-936.5" font-family="Helvetica,sans-Serif" font-size="10.00" fill="#000000">odp/api/abi/traffic</text>
<text text-anchor="middle" x="2293" y="-925.5" font-family="Helvetica,sans-Serif" font-size="10.00" fill="#000000">_mngr.h</text>
</g>
<!-- Node49&#45;&gt;Node50 -->
<g id="edge113" class="edge">
<title>Node49&#45;&gt;Node50</title>
<path fill="none" stroke="#191970" d="M2188.375,-985.3906C2205.7784,-976.7591 2231.8666,-963.8202 2253.6379,-953.0224"/>
<polygon fill="#191970" stroke="#191970" points="2255.2626,-956.1234 2262.6662,-948.5446 2252.1524,-949.8523 2255.2626,-956.1234"/>
</g>
<!-- Node51 -->
<g id="node50" class="node">
<title>Node51</title>
<g id="a_node50"><a xlink:href="api_2spec_2traffic__mngr_8h.html" target="_top" xlink:title="Copyright (c) 2015&#45;2018, Linaro Limited All rights reserved. ">
<polygon fill="#ffffff" stroke="#000000" points="2114,-918.5 2114,-948.5 2224,-948.5 2224,-918.5 2114,-918.5"/>
<text text-anchor="start" x="2122" y="-936.5" font-family="Helvetica,sans-Serif" font-size="10.00" fill="#000000">odp/api/spec/traffic</text>
<text text-anchor="middle" x="2169" y="-925.5" font-family="Helvetica,sans-Serif" font-size="10.00" fill="#000000">_mngr.h</text>
</a>
</g>
</g>
<!-- Node49&#45;&gt;Node51 -->
<g id="edge114" class="edge">
<title>Node49&#45;&gt;Node51</title>
<path fill="none" stroke="#191970" d="M2169,-985.3906C2169,-978.2234 2169,-968.0862 2169,-958.671"/>
<polygon fill="#191970" stroke="#191970" points="2172.5001,-958.5446 2169,-948.5446 2165.5001,-958.5446 2172.5001,-958.5446"/>
</g>
<!-- Node51&#45;&gt;Node1 -->
<g id="edge115" class="edge">
<title>Node51&#45;&gt;Node1</title>
<path fill="none" stroke="#191970" d="M2168.1517,-918.2955C2166.9775,-895.9046 2165,-852.74 2165,-816 2165,-816 2165,-816 2165,-122 2165,-39.7057 2072.2695,-74.1424 1992,-56 1898.2891,-34.8196 1621.4227,-19.4788 1489.9079,-13.1744"/>
<polygon fill="#191970" stroke="#191970" points="1489.7043,-9.6608 1479.5494,-12.6821 1489.372,-16.653 1489.7043,-9.6608"/>
</g>
<!-- Node51&#45;&gt;Node3 -->
<g id="edge116" class="edge">
<title>Node51&#45;&gt;Node3</title>
<path fill="none" stroke="#191970" d="M2159.013,-918.2519C2145.7557,-896.5006 2124,-854.8826 2124,-816 2124,-816 2124,-816 2124,-637 2124,-558.061 2086,-542.439 2086,-463.5 2086,-463.5 2086,-463.5 2086,-346 2086,-299.3194 1766.1037,-257.4518 1624.3083,-241.1867"/>
<polygon fill="#191970" stroke="#191970" points="1624.3371,-237.6675 1614.0054,-240.0141 1623.5454,-244.6226 1624.3371,-237.6675"/>
</g>
<!-- Node51&#45;&gt;Node10 -->
<g id="edge118" class="edge">
<title>Node51&#45;&gt;Node10</title>
<path fill="none" stroke="#191970" d="M2113.8954,-932.8009C1893.6796,-929.7899 1076.3796,-916.4823 820,-882 568.7836,-848.2121 280,-951.9784 280,-698.5 280,-698.5 280,-698.5 280,-637 280,-527.387 203.0684,-518.9379 179,-412 144.2515,-257.6093 70.0395,-177.0289 172,-56 184.8439,-40.754 297.7633,-25.528 372.5833,-16.9813"/>
<polygon fill="#191970" stroke="#191970" points="373.3289,-20.4195 382.8735,-15.8203 372.5441,-13.4636 373.3289,-20.4195"/>
</g>
<!-- Node51&#45;&gt;Node36 -->
<g id="edge117" class="edge">
<title>Node51&#45;&gt;Node36</title>
<path fill="none" stroke="#191970" d="M2113.5951,-926.2036C2027.1972,-914.8258 1860.7083,-892.9006 1768.1488,-880.7112"/>
<polygon fill="#191970" stroke="#191970" points="1768.4305,-877.2182 1758.0591,-879.3825 1767.5165,-884.1583 1768.4305,-877.2182"/>
</g>
</g>
</svg>
