<?xml version="1.0" encoding="UTF-8" standalone="no"?>
<!DOCTYPE svg PUBLIC "-//W3C//DTD SVG 1.1//EN"
 "http://www.w3.org/Graphics/SVG/1.1/DTD/svg11.dtd">
<!-- Generated by graphviz version 2.40.1 (20161225.0304)
 -->
<!-- Title: event.h Pages: 1 -->
<svg width="504pt" height="756pt"
 viewBox="0.00 0.00 503.50 756.00" xmlns="http://www.w3.org/2000/svg" xmlns:xlink="http://www.w3.org/1999/xlink">
<g id="graph0" class="graph" transform="scale(1 1) rotate(0) translate(4 752)">
<title>event.h</title>
<polygon fill="#ffffff" stroke="transparent" points="-4,4 -4,-752 499.5,-752 499.5,4 -4,4"/>
<!-- Node21 -->
<g id="node1" class="node">
<title>Node21</title>
<polygon fill="#bfbfbf" stroke="#000000" points="333.5,-728.5 333.5,-747.5 386.5,-747.5 386.5,-728.5 333.5,-728.5"/>
<text text-anchor="middle" x="360" y="-735.5" font-family="Helvetica,sans-Serif" font-size="10.00" fill="#000000">event.h</text>
</g>
<!-- Node22 -->
<g id="node2" class="node">
<title>Node22</title>
<g id="a_node2"><a xlink:href="api_2event_8h.html" target="_top" xlink:title="ODP event. ">
<polygon fill="#ffffff" stroke="#000000" points="333.5,-672.5 333.5,-691.5 386.5,-691.5 386.5,-672.5 333.5,-672.5"/>
<text text-anchor="middle" x="360" y="-679.5" font-family="Helvetica,sans-Serif" font-size="10.00" fill="#000000">event.h</text>
</a>
</g>
</g>
<!-- Node21&#45;&gt;Node22 -->
<g id="edge1" class="edge">
<title>Node21&#45;&gt;Node22</title>
<path fill="none" stroke="#191970" d="M360,-718.1575C360,-709.155 360,-698.9199 360,-691.6427"/>
<polygon fill="#191970" stroke="#191970" points="356.5001,-718.2455 360,-728.2455 363.5001,-718.2456 356.5001,-718.2455"/>
</g>
<!-- Node23 -->
<g id="node3" class="node">
<title>Node23</title>
<g id="a_node3"><a xlink:href="api_2spec_2queue_8h.html" target="_top" xlink:title="ODP queue. ">
<polygon fill="#ffffff" stroke="#000000" points="332,-616.5 332,-635.5 388,-635.5 388,-616.5 332,-616.5"/>
<text text-anchor="middle" x="360" y="-623.5" font-family="Helvetica,sans-Serif" font-size="10.00" fill="#000000">queue.h</text>
</a>
</g>
</g>
<!-- Node22&#45;&gt;Node23 -->
<g id="edge2" class="edge">
<title>Node22&#45;&gt;Node23</title>
<path fill="none" stroke="#191970" d="M360,-662.1575C360,-653.155 360,-642.9199 360,-635.6427"/>
<polygon fill="#191970" stroke="#191970" points="356.5001,-662.2455 360,-672.2455 363.5001,-662.2456 356.5001,-662.2455"/>
</g>
<!-- Node28 -->
<g id="node8" class="node">
<title>Node28</title>
<g id="a_node8"><a xlink:href="odp__api_8h.html" target="_top" xlink:title="The OpenDataPlane API. ">
<polygon fill="#ffffff" stroke="#000000" points="235,-56.5 235,-75.5 299,-75.5 299,-56.5 235,-56.5"/>
<text text-anchor="middle" x="267" y="-63.5" font-family="Helvetica,sans-Serif" font-size="10.00" fill="#000000">odp_api.h</text>
</a>
</g>
</g>
<!-- Node22&#45;&gt;Node28 -->
<g id="edge30" class="edge">
<title>Node22&#45;&gt;Node28</title>
<path fill="none" stroke="#191970" d="M323.2813,-678.4725C231.6085,-668.6549 0,-637.2013 0,-570 0,-570 0,-570 0,-178 0,-127.6071 163.7797,-87.4484 234.7936,-72.4043"/>
<polygon fill="#191970" stroke="#191970" points="322.9261,-681.9543 333.2356,-679.512 323.6532,-674.9922 322.9261,-681.9543"/>
</g>
<!-- Node38 -->
<g id="node18" class="node">
<title>Node38</title>
<g id="a_node18"><a xlink:href="api_2spec_2schedule_8h.html" target="_top" xlink:title="ODP schedule. ">
<polygon fill="#ffffff" stroke="#000000" points="426.5,-504.5 426.5,-523.5 495.5,-523.5 495.5,-504.5 426.5,-504.5"/>
<text text-anchor="middle" x="461" y="-511.5" font-family="Helvetica,sans-Serif" font-size="10.00" fill="#000000">schedule.h</text>
</a>
</g>
</g>
<!-- Node22&#45;&gt;Node38 -->
<g id="edge29" class="edge">
<title>Node22&#45;&gt;Node38</title>
<path fill="none" stroke="#191970" d="M375.3369,-664.5876C382.3449,-656.2304 390.5102,-645.9 397,-636 423.0944,-596.1936 447.293,-544.5536 456.7753,-523.5311"/>
<polygon fill="#191970" stroke="#191970" points="372.6658,-662.3259 368.8197,-672.198 377.9827,-666.879 372.6658,-662.3259"/>
</g>
<!-- Node24 -->
<g id="node4" class="node">
<title>Node24</title>
<g id="a_node4"><a xlink:href="api_2queue_8h.html" target="_top" xlink:title="ODP queue. ">
<polygon fill="#ffffff" stroke="#000000" points="332,-560.5 332,-579.5 388,-579.5 388,-560.5 332,-560.5"/>
<text text-anchor="middle" x="360" y="-567.5" font-family="Helvetica,sans-Serif" font-size="10.00" fill="#000000">queue.h</text>
</a>
</g>
</g>
<!-- Node23&#45;&gt;Node24 -->
<g id="edge3" class="edge">
<title>Node23&#45;&gt;Node24</title>
<path fill="none" stroke="#191970" d="M360,-606.1575C360,-597.155 360,-586.9199 360,-579.6427"/>
<polygon fill="#191970" stroke="#191970" points="356.5001,-606.2455 360,-616.2455 363.5001,-606.2456 356.5001,-606.2455"/>
</g>
<!-- Node25 -->
<g id="node5" class="node">
<title>Node25</title>
<g id="a_node5"><a xlink:href="api_2crypto_8h.html" target="_top" xlink:title="ODP crypto. ">
<polygon fill="#ffffff" stroke="#000000" points="314,-224.5 314,-243.5 370,-243.5 370,-224.5 314,-224.5"/>
<text text-anchor="middle" x="342" y="-231.5" font-family="Helvetica,sans-Serif" font-size="10.00" fill="#000000">crypto.h</text>
</a>
</g>
</g>
<!-- Node24&#45;&gt;Node25 -->
<g id="edge4" class="edge">
<title>Node24&#45;&gt;Node25</title>
<path fill="none" stroke="#191970" d="M360,-550.1952C360,-527.8128 360,-490.2884 360,-458 360,-458 360,-458 360,-346 360,-307.5968 349.5561,-262.7143 344.579,-243.5055"/>
<polygon fill="#191970" stroke="#191970" points="356.5001,-550.4116 360,-560.4116 363.5001,-550.4117 356.5001,-550.4116"/>
</g>
<!-- Node24&#45;&gt;Node28 -->
<g id="edge28" class="edge">
<title>Node24&#45;&gt;Node28</title>
<path fill="none" stroke="#191970" d="M370.489,-551.4209C381.7366,-529.7168 398,-492.3882 398,-458 398,-458 398,-458 398,-178 398,-124.1402 333.2356,-90.6496 294.7817,-75.5116"/>
<polygon fill="#191970" stroke="#191970" points="367.2683,-550.0196 365.607,-560.4834 373.431,-553.3395 367.2683,-550.0196"/>
</g>
<!-- Node30 -->
<g id="node10" class="node">
<title>Node30</title>
<g id="a_node10"><a xlink:href="api_2spec_2packet__io_8h.html" target="_top" xlink:title="ODP Packet IO. ">
<polygon fill="#ffffff" stroke="#000000" points="172.5,-392.5 172.5,-411.5 245.5,-411.5 245.5,-392.5 172.5,-392.5"/>
<text text-anchor="middle" x="209" y="-399.5" font-family="Helvetica,sans-Serif" font-size="10.00" fill="#000000">packet_io.h</text>
</a>
</g>
</g>
<!-- Node24&#45;&gt;Node30 -->
<g id="edge10" class="edge">
<title>Node24&#45;&gt;Node30</title>
<path fill="none" stroke="#191970" d="M321.9764,-562.28C285.3833,-554.0323 233.771,-539.9675 221,-524 194.1475,-490.4264 202.2002,-433.8766 206.7922,-411.5134"/>
<polygon fill="#191970" stroke="#191970" points="321.3365,-565.7229 331.8545,-564.4488 322.8377,-558.8857 321.3365,-565.7229"/>
</g>
<!-- Node36 -->
<g id="node16" class="node">
<title>Node36</title>
<g id="a_node16"><a xlink:href="spec_2packet__io__stats_8h.html" target="_top" xlink:title="ODP Packet IO statistics. ">
<polygon fill="#ffffff" stroke="#000000" points="230,-504.5 230,-523.5 332,-523.5 332,-504.5 230,-504.5"/>
<text text-anchor="middle" x="281" y="-511.5" font-family="Helvetica,sans-Serif" font-size="10.00" fill="#000000">packet_io_stats.h</text>
</a>
</g>
</g>
<!-- Node24&#45;&gt;Node36 -->
<g id="edge22" class="edge">
<title>Node24&#45;&gt;Node36</title>
<path fill="none" stroke="#191970" d="M337.7244,-554.2097C323.8495,-544.3743 306.4485,-532.0394 294.6031,-523.6427"/>
<polygon fill="#191970" stroke="#191970" points="336.0569,-557.3178 346.2393,-560.2455 340.1051,-551.6071 336.0569,-557.3178"/>
</g>
<!-- Node24&#45;&gt;Node38 -->
<g id="edge25" class="edge">
<title>Node24&#45;&gt;Node38</title>
<path fill="none" stroke="#191970" d="M386.4719,-555.3225C404.5125,-545.3198 427.8877,-532.3593 443.6087,-523.6427"/>
<polygon fill="#191970" stroke="#191970" points="384.6413,-552.3354 377.5929,-560.2455 388.0357,-558.4574 384.6413,-552.3354"/>
</g>
<!-- Node26 -->
<g id="node6" class="node">
<title>Node26</title>
<g id="a_node6"><a xlink:href="api_2spec_2ipsec_8h.html" target="_top" xlink:title="ODP IPSEC API. ">
<polygon fill="#ffffff" stroke="#000000" points="168.5,-168.5 168.5,-187.5 219.5,-187.5 219.5,-168.5 168.5,-168.5"/>
<text text-anchor="middle" x="194" y="-175.5" font-family="Helvetica,sans-Serif" font-size="10.00" fill="#000000">ipsec.h</text>
</a>
</g>
</g>
<!-- Node25&#45;&gt;Node26 -->
<g id="edge5" class="edge">
<title>Node25&#45;&gt;Node26</title>
<path fill="none" stroke="#191970" d="M307.0847,-220.7888C280.0617,-210.5639 243.286,-196.6488 219.1101,-187.5011"/>
<polygon fill="#191970" stroke="#191970" points="305.9664,-224.1078 316.5579,-224.3733 308.4437,-217.5608 305.9664,-224.1078"/>
</g>
<!-- Node25&#45;&gt;Node28 -->
<g id="edge9" class="edge">
<title>Node25&#45;&gt;Node28</title>
<path fill="none" stroke="#191970" d="M337.1794,-214.5157C330.6518,-189.8231 317.7455,-146.343 300,-112 293.0518,-98.553 282.5212,-84.6381 275.2326,-75.6843"/>
<polygon fill="#191970" stroke="#191970" points="333.8496,-215.6216 339.7241,-224.4386 340.6302,-213.8826 333.8496,-215.6216"/>
</g>
<!-- Node27 -->
<g id="node7" class="node">
<title>Node27</title>
<g id="a_node7"><a xlink:href="api_2ipsec_8h.html" target="_top" xlink:title="ODP IPSEC API &#45; platform specific header. ">
<polygon fill="#ffffff" stroke="#000000" points="168.5,-112.5 168.5,-131.5 219.5,-131.5 219.5,-112.5 168.5,-112.5"/>
<text text-anchor="middle" x="194" y="-119.5" font-family="Helvetica,sans-Serif" font-size="10.00" fill="#000000">ipsec.h</text>
</a>
</g>
</g>
<!-- Node26&#45;&gt;Node27 -->
<g id="edge6" class="edge">
<title>Node26&#45;&gt;Node27</title>
<path fill="none" stroke="#191970" d="M194,-158.1575C194,-149.155 194,-138.9199 194,-131.6427"/>
<polygon fill="#191970" stroke="#191970" points="190.5001,-158.2455 194,-168.2455 197.5001,-158.2456 190.5001,-158.2455"/>
</g>
<!-- Node27&#45;&gt;Node28 -->
<g id="edge7" class="edge">
<title>Node27&#45;&gt;Node28</title>
<path fill="none" stroke="#191970" d="M214.951,-105.928C227.7107,-96.1397 243.5885,-83.9595 254.4301,-75.6427"/>
<polygon fill="#191970" stroke="#191970" points="212.5196,-103.3819 206.7156,-112.2455 216.7803,-108.9359 212.5196,-103.3819"/>
</g>
<!-- Node29 -->
<g id="node9" class="node">
<title>Node29</title>
<g id="a_node9"><a xlink:href="odp_8h.html" target="_top" xlink:title="WARNING: THIS FILE IS DEPRECATED AND WILL BE REMOVED!!! ODP APPLICATIONS SHOULD NOW INCLUDE odp_api...">
<polygon fill="#ffffff" stroke="#000000" points="245,-.5 245,-19.5 289,-19.5 289,-.5 245,-.5"/>
<text text-anchor="middle" x="267" y="-7.5" font-family="Helvetica,sans-Serif" font-size="10.00" fill="#000000">odp.h</text>
</a>
</g>
</g>
<!-- Node28&#45;&gt;Node29 -->
<g id="edge8" class="edge">
<title>Node28&#45;&gt;Node29</title>
<path fill="none" stroke="#191970" d="M267,-46.1575C267,-37.155 267,-26.9199 267,-19.6427"/>
<polygon fill="#191970" stroke="#191970" points="263.5001,-46.2455 267,-56.2455 270.5001,-46.2456 263.5001,-46.2455"/>
</g>
<!-- Node31 -->
<g id="node11" class="node">
<title>Node31</title>
<g id="a_node11"><a xlink:href="api_2packet__io_8h.html" target="_top" xlink:title="ODP Packet IO. ">
<polygon fill="#ffffff" stroke="#000000" points="172.5,-336.5 172.5,-355.5 245.5,-355.5 245.5,-336.5 172.5,-336.5"/>
<text text-anchor="middle" x="209" y="-343.5" font-family="Helvetica,sans-Serif" font-size="10.00" fill="#000000">packet_io.h</text>
</a>
</g>
</g>
<!-- Node30&#45;&gt;Node31 -->
<g id="edge11" class="edge">
<title>Node30&#45;&gt;Node31</title>
<path fill="none" stroke="#191970" d="M209,-382.1575C209,-373.155 209,-362.9199 209,-355.6427"/>
<polygon fill="#191970" stroke="#191970" points="205.5001,-382.2455 209,-392.2455 212.5001,-382.2456 205.5001,-382.2455"/>
</g>
<!-- Node31&#45;&gt;Node26 -->
<g id="edge16" class="edge">
<title>Node31&#45;&gt;Node26</title>
<path fill="none" stroke="#191970" d="M187.5762,-329.8901C178.8188,-321.9676 169.6633,-311.6218 165,-300 152.4213,-268.6517 155.6248,-256.4506 165,-224 168.9829,-210.214 178.4597,-196.5821 185.5023,-187.7814"/>
<polygon fill="#191970" stroke="#191970" points="185.4632,-332.6864 195.3664,-336.4516 189.9727,-327.3325 185.4632,-332.6864"/>
</g>
<!-- Node31&#45;&gt;Node28 -->
<g id="edge21" class="edge">
<title>Node31&#45;&gt;Node28</title>
<path fill="none" stroke="#191970" d="M234.5199,-330.9577C245.9402,-323.0543 258.6775,-312.4222 267,-300 283.99,-274.6407 286,-264.5246 286,-234 286,-234 286,-234 286,-178 286,-139.7388 275.0887,-95.1479 269.8035,-75.7934"/>
<polygon fill="#191970" stroke="#191970" points="232.5813,-328.0434 226.1383,-336.454 236.42,-333.8971 232.5813,-328.0434"/>
</g>
<!-- Node32 -->
<g id="node12" class="node">
<title>Node32</title>
<g id="a_node12"><a xlink:href="api_2spec_2classification_8h.html" target="_top" xlink:title="ODP classification descriptor. ">
<polygon fill="#ffffff" stroke="#000000" points="28.5,-280.5 28.5,-299.5 117.5,-299.5 117.5,-280.5 28.5,-280.5"/>
<text text-anchor="middle" x="73" y="-287.5" font-family="Helvetica,sans-Serif" font-size="10.00" fill="#000000">classification.h</text>
</a>
</g>
</g>
<!-- Node31&#45;&gt;Node32 -->
<g id="edge12" class="edge">
<title>Node31&#45;&gt;Node32</title>
<path fill="none" stroke="#191970" d="M176.2601,-332.5189C151.4917,-322.3201 118.095,-308.5685 96.0742,-299.5011"/>
<polygon fill="#191970" stroke="#191970" points="175.0413,-335.8021 185.6208,-336.3733 177.7066,-329.3293 175.0413,-335.8021"/>
</g>
<!-- Node34 -->
<g id="node14" class="node">
<title>Node34</title>
<g id="a_node14"><a xlink:href="api_2spec_2traffic__mngr_8h.html" target="_top" xlink:title="Copyright (c) 2015&#45;2018, Linaro Limited All rights reserved. ">
<polygon fill="#ffffff" stroke="#000000" points="174,-280.5 174,-299.5 258,-299.5 258,-280.5 174,-280.5"/>
<text text-anchor="middle" x="216" y="-287.5" font-family="Helvetica,sans-Serif" font-size="10.00" fill="#000000">traffic_mngr.h</text>
</a>
</g>
</g>
<!-- Node31&#45;&gt;Node34 -->
<g id="edge17" class="edge">
<title>Node31&#45;&gt;Node34</title>
<path fill="none" stroke="#191970" d="M211.4803,-326.1575C212.6056,-317.155 213.885,-306.9199 214.7947,-299.6427"/>
<polygon fill="#191970" stroke="#191970" points="207.9868,-325.8886 210.2193,-336.2455 214.9327,-326.7569 207.9868,-325.8886"/>
</g>
<!-- Node33 -->
<g id="node13" class="node">
<title>Node33</title>
<g id="a_node13"><a xlink:href="api_2classification_8h.html" target="_top" xlink:title="ODP classification descriptor. ">
<polygon fill="#ffffff" stroke="#000000" points="28.5,-224.5 28.5,-243.5 117.5,-243.5 117.5,-224.5 28.5,-224.5"/>
<text text-anchor="middle" x="73" y="-231.5" font-family="Helvetica,sans-Serif" font-size="10.00" fill="#000000">classification.h</text>
</a>
</g>
</g>
<!-- Node32&#45;&gt;Node33 -->
<g id="edge13" class="edge">
<title>Node32&#45;&gt;Node33</title>
<path fill="none" stroke="#191970" d="M73,-270.1575C73,-261.155 73,-250.9199 73,-243.6427"/>
<polygon fill="#191970" stroke="#191970" points="69.5001,-270.2455 73,-280.2455 76.5001,-270.2456 69.5001,-270.2455"/>
</g>
<!-- Node33&#45;&gt;Node26 -->
<g id="edge14" class="edge">
<title>Node33&#45;&gt;Node26</title>
<path fill="none" stroke="#191970" d="M103.0104,-220.1109C124.9525,-209.9559 154.1388,-196.4482 173.4708,-187.5011"/>
<polygon fill="#191970" stroke="#191970" points="101.4058,-216.9968 93.8006,-224.3733 104.3459,-223.3494 101.4058,-216.9968"/>
</g>
<!-- Node33&#45;&gt;Node28 -->
<g id="edge15" class="edge">
<title>Node33&#45;&gt;Node28</title>
<path fill="none" stroke="#191970" d="M82.0205,-215.1447C95.4594,-188.8261 123.0585,-141.0476 159,-112 181.3492,-93.9376 211.8422,-81.8175 234.7283,-74.5733"/>
<polygon fill="#191970" stroke="#191970" points="78.7392,-213.8834 77.4308,-224.3971 85.0101,-216.9941 78.7392,-213.8834"/>
</g>
<!-- Node35 -->
<g id="node15" class="node">
<title>Node35</title>
<g id="a_node15"><a xlink:href="api_2traffic__mngr_8h.html" target="_top" xlink:title="ODP Traffic manager. ">
<polygon fill="#ffffff" stroke="#000000" points="174,-224.5 174,-243.5 258,-243.5 258,-224.5 174,-224.5"/>
<text text-anchor="middle" x="216" y="-231.5" font-family="Helvetica,sans-Serif" font-size="10.00" fill="#000000">traffic_mngr.h</text>
</a>
</g>
</g>
<!-- Node34&#45;&gt;Node35 -->
<g id="edge18" class="edge">
<title>Node34&#45;&gt;Node35</title>
<path fill="none" stroke="#191970" d="M216,-270.1575C216,-261.155 216,-250.9199 216,-243.6427"/>
<polygon fill="#191970" stroke="#191970" points="212.5001,-270.2455 216,-280.2455 219.5001,-270.2456 212.5001,-270.2455"/>
</g>
<!-- Node35&#45;&gt;Node26 -->
<g id="edge19" class="edge">
<title>Node35&#45;&gt;Node26</title>
<path fill="none" stroke="#191970" d="M208.4372,-214.7493C204.8454,-205.6064 200.7099,-195.0798 197.7882,-187.6427"/>
<polygon fill="#191970" stroke="#191970" points="205.2537,-216.2178 212.1679,-224.2455 211.7689,-213.6582 205.2537,-216.2178"/>
</g>
<!-- Node35&#45;&gt;Node28 -->
<g id="edge20" class="edge">
<title>Node35&#45;&gt;Node28</title>
<path fill="none" stroke="#191970" d="M221.8508,-214.7267C232.7509,-178.8207 255.8036,-102.8822 264.0165,-75.8279"/>
<polygon fill="#191970" stroke="#191970" points="218.4439,-213.9007 218.8881,-224.4862 225.1421,-215.9341 218.4439,-213.9007"/>
</g>
<!-- Node37 -->
<g id="node17" class="node">
<title>Node37</title>
<g id="a_node17"><a xlink:href="packet__io__stats_8h.html" target="_top" xlink:title="ODP packet IO stats. ">
<polygon fill="#ffffff" stroke="#000000" points="230,-448.5 230,-467.5 332,-467.5 332,-448.5 230,-448.5"/>
<text text-anchor="middle" x="281" y="-455.5" font-family="Helvetica,sans-Serif" font-size="10.00" fill="#000000">packet_io_stats.h</text>
</a>
</g>
</g>
<!-- Node36&#45;&gt;Node37 -->
<g id="edge23" class="edge">
<title>Node36&#45;&gt;Node37</title>
<path fill="none" stroke="#191970" d="M281,-494.1575C281,-485.155 281,-474.9199 281,-467.6427"/>
<polygon fill="#191970" stroke="#191970" points="277.5001,-494.2455 281,-504.2455 284.5001,-494.2456 277.5001,-494.2455"/>
</g>
<!-- Node37&#45;&gt;Node30 -->
<g id="edge24" class="edge">
<title>Node37&#45;&gt;Node30</title>
<path fill="none" stroke="#191970" d="M260.336,-441.928C247.7511,-432.1397 232.0908,-419.9595 221.3977,-411.6427"/>
<polygon fill="#191970" stroke="#191970" points="258.4162,-444.8688 268.4586,-448.2455 262.7138,-439.3434 258.4162,-444.8688"/>
</g>
<!-- Node39 -->
<g id="node19" class="node">
<title>Node39</title>
<g id="a_node19"><a xlink:href="api_2schedule_8h.html" target="_top" xlink:title="ODP schedule. ">
<polygon fill="#ffffff" stroke="#000000" points="426.5,-392.5 426.5,-411.5 495.5,-411.5 495.5,-392.5 426.5,-392.5"/>
<text text-anchor="middle" x="461" y="-399.5" font-family="Helvetica,sans-Serif" font-size="10.00" fill="#000000">schedule.h</text>
</a>
</g>
</g>
<!-- Node38&#45;&gt;Node39 -->
<g id="edge26" class="edge">
<title>Node38&#45;&gt;Node39</title>
<path fill="none" stroke="#191970" d="M461,-494.2702C461,-469.9985 461,-429.7725 461,-411.5249"/>
<polygon fill="#191970" stroke="#191970" points="457.5001,-494.4509 461,-504.4509 464.5001,-494.451 457.5001,-494.4509"/>
</g>
<!-- Node39&#45;&gt;Node28 -->
<g id="edge27" class="edge">
<title>Node39&#45;&gt;Node28</title>
<path fill="none" stroke="#191970" d="M457.3661,-382.5816C453.52,-360.3089 448,-322.6543 448,-290 448,-290 448,-290 448,-178 448,-144.5868 437.7842,-133.2513 412,-112 379.392,-85.1245 330.9034,-73.8746 299.1224,-69.2166"/>
<polygon fill="#191970" stroke="#191970" points="453.9265,-383.2302 459.1374,-392.455 460.8165,-381.9941 453.9265,-383.2302"/>
</g>
</g>
</svg>
