<?xml version="1.0" encoding="UTF-8" standalone="no"?>
<!DOCTYPE svg PUBLIC "-//W3C//DTD SVG 1.1//EN"
 "http://www.w3.org/Graphics/SVG/1.1/DTD/svg11.dtd">
<!-- Generated by graphviz version 2.40.1 (20161225.0304)
 -->
<!-- Title: classification.h Pages: 1 -->
<svg width="1864pt" height="1013pt"
 viewBox="0.00 0.00 1863.73 1013.00" xmlns="http://www.w3.org/2000/svg" xmlns:xlink="http://www.w3.org/1999/xlink">
<g id="graph0" class="graph" transform="scale(1 1) rotate(0) translate(4 1009)">
<title>classification.h</title>
<polygon fill="#ffffff" stroke="transparent" points="-4,4 -4,-1009 1859.7258,-1009 1859.7258,4 -4,4"/>
<!-- Node0 -->
<g id="node1" class="node">
<title>Node0</title>
<polygon fill="#bfbfbf" stroke="#000000" points="1638.5,-985.5 1638.5,-1004.5 1727.5,-1004.5 1727.5,-985.5 1638.5,-985.5"/>
<text text-anchor="middle" x="1683" y="-992.5" font-family="Helvetica,sans-Serif" font-size="10.00" fill="#000000">classification.h</text>
</g>
<!-- Node1 -->
<g id="node2" class="node">
<title>Node1</title>
<g id="a_node2"><a xlink:href="api_2std__types_8h.html" target="_top" xlink:title="Standard C language types and definitions for ODP. ">
<polygon fill="#ffffff" stroke="#000000" points="1275,-235.5 1275,-254.5 1387,-254.5 1387,-235.5 1275,-235.5"/>
<text text-anchor="middle" x="1331" y="-242.5" font-family="Helvetica,sans-Serif" font-size="10.00" fill="#000000">odp/api/std_types.h</text>
</a>
</g>
</g>
<!-- Node0&#45;&gt;Node1 -->
<g id="edge1" class="edge">
<title>Node0&#45;&gt;Node1</title>
<path fill="none" stroke="#191970" d="M1701.525,-985.3812C1730.6828,-968.7571 1784,-931.7005 1784,-883 1784,-883 1784,-883 1784,-368 1784,-288.8341 1523.0781,-258.9858 1397.2812,-249.1957"/>
<polygon fill="#191970" stroke="#191970" points="1397.2369,-245.6824 1387.001,-248.4169 1396.7081,-252.6624 1397.2369,-245.6824"/>
</g>
<!-- Node10 -->
<g id="node11" class="node">
<title>Node10</title>
<polygon fill="#ffffff" stroke="#bfbfbf" points="1256,-358.5 1256,-377.5 1360,-377.5 1360,-358.5 1256,-358.5"/>
<text text-anchor="middle" x="1308" y="-365.5" font-family="Helvetica,sans-Serif" font-size="10.00" fill="#000000">odp/api/abi/pool.h</text>
</g>
<!-- Node0&#45;&gt;Node10 -->
<g id="edge12" class="edge">
<title>Node0&#45;&gt;Node10</title>
<path fill="none" stroke="#191970" d="M1638.2091,-991.6102C1563.6035,-985.4336 1417.487,-970.9267 1371,-949 1331.4408,-930.341 1298,-926.7388 1298,-883 1298,-883 1298,-883 1298,-480 1298,-447.5831 1302.2075,-410.0969 1305.1641,-387.7572"/>
<polygon fill="#191970" stroke="#191970" points="1308.6709,-387.9466 1306.5672,-377.5627 1301.7363,-386.992 1308.6709,-387.9466"/>
</g>
<!-- Node11 -->
<g id="node12" class="node">
<title>Node11</title>
<polygon fill="#ffffff" stroke="#bfbfbf" points="1610,-817.5 1610,-836.5 1756,-836.5 1756,-817.5 1610,-817.5"/>
<text text-anchor="middle" x="1683" y="-824.5" font-family="Helvetica,sans-Serif" font-size="10.00" fill="#000000">odp/api/abi/classification.h</text>
</g>
<!-- Node0&#45;&gt;Node11 -->
<g id="edge13" class="edge">
<title>Node0&#45;&gt;Node11</title>
<path fill="none" stroke="#191970" d="M1683,-985.4862C1683,-958.9293 1683,-883.5651 1683,-847.1655"/>
<polygon fill="#191970" stroke="#191970" points="1686.5001,-846.8278 1683,-836.8279 1679.5001,-846.8279 1686.5001,-846.8278"/>
</g>
<!-- Node12 -->
<g id="node13" class="node">
<title>Node12</title>
<polygon fill="#ffffff" stroke="#bfbfbf" points="1454,-358.5 1454,-377.5 1570,-377.5 1570,-358.5 1454,-358.5"/>
<text text-anchor="middle" x="1512" y="-365.5" font-family="Helvetica,sans-Serif" font-size="10.00" fill="#000000">odp/api/abi/packet.h</text>
</g>
<!-- Node0&#45;&gt;Node12 -->
<g id="edge14" class="edge">
<title>Node0&#45;&gt;Node12</title>
<path fill="none" stroke="#191970" d="M1727.7629,-989.3617C1752.9175,-983.6485 1782.328,-972.148 1798,-949 1802.9834,-941.6394 1799.2691,-937.7978 1798,-929 1763.9411,-692.8995 1580.1608,-451.7098 1526.6351,-385.6361"/>
<polygon fill="#191970" stroke="#191970" points="1529.2776,-383.3386 1520.2385,-377.8117 1523.8581,-387.7691 1529.2776,-383.3386"/>
</g>
<!-- Node13 -->
<g id="node14" class="node">
<title>Node13</title>
<polygon fill="#ffffff" stroke="#bfbfbf" points="1588,-358.5 1588,-377.5 1718,-377.5 1718,-358.5 1588,-358.5"/>
<text text-anchor="middle" x="1653" y="-365.5" font-family="Helvetica,sans-Serif" font-size="10.00" fill="#000000">odp/api/abi/packet_io.h</text>
</g>
<!-- Node0&#45;&gt;Node13 -->
<g id="edge15" class="edge">
<title>Node0&#45;&gt;Node13</title>
<path fill="none" stroke="#191970" d="M1727.7334,-987.5953C1768.0578,-979.9002 1822.9665,-966.5283 1836,-949 1919.3544,-836.899 1708,-578.4468 1708,-536 1708,-536 1708,-536 1708,-480 1708,-443.6071 1684.3135,-406.7455 1668.029,-385.7035"/>
<polygon fill="#191970" stroke="#191970" points="1670.5882,-383.3008 1661.5938,-377.7015 1665.1333,-387.6876 1670.5882,-383.3008"/>
</g>
<!-- Node14 -->
<g id="node15" class="node">
<title>Node14</title>
<polygon fill="#ffffff" stroke="#bfbfbf" points="612.5,-358.5 612.5,-377.5 725.5,-377.5 725.5,-358.5 612.5,-358.5"/>
<text text-anchor="middle" x="669" y="-365.5" font-family="Helvetica,sans-Serif" font-size="10.00" fill="#000000">odp/api/abi/queue.h</text>
</g>
<!-- Node0&#45;&gt;Node14 -->
<g id="edge16" class="edge">
<title>Node0&#45;&gt;Node14</title>
<path fill="none" stroke="#191970" d="M1638.3272,-990.7366C1425.1765,-969.9506 518.6056,-876.3622 440,-781 434.3462,-774.1409 436.9417,-769.3462 440,-761 483.0742,-643.4479 564.1531,-657.0298 622,-546 649.7306,-492.7747 662.0673,-421.8645 666.6734,-387.8484"/>
<polygon fill="#191970" stroke="#191970" points="670.1609,-388.1674 667.9502,-377.8058 663.2168,-387.2845 670.1609,-388.1674"/>
</g>
<!-- Node15 -->
<g id="node16" class="node">
<title>Node15</title>
<g id="a_node16"><a xlink:href="api_2spec_2classification_8h.html" target="_top" xlink:title="ODP classification descriptor. ">
<polygon fill="#ffffff" stroke="#000000" points="1380,-929.5 1380,-948.5 1534,-948.5 1534,-929.5 1380,-929.5"/>
<text text-anchor="middle" x="1457" y="-936.5" font-family="Helvetica,sans-Serif" font-size="10.00" fill="#000000">odp/api/spec/classification.h</text>
</a>
</g>
</g>
<!-- Node0&#45;&gt;Node15 -->
<g id="edge17" class="edge">
<title>Node0&#45;&gt;Node15</title>
<path fill="none" stroke="#191970" d="M1644.406,-985.4369C1605.9716,-975.9133 1546.864,-961.2672 1505.329,-950.9753"/>
<polygon fill="#191970" stroke="#191970" points="1505.9831,-947.5316 1495.4348,-948.5237 1504.2994,-954.3261 1505.9831,-947.5316"/>
</g>
<!-- Node2 -->
<g id="node3" class="node">
<title>Node2</title>
<polygon fill="#ffffff" stroke="#bfbfbf" points="1157,-174 1157,-193 1287,-193 1287,-174 1157,-174"/>
<text text-anchor="middle" x="1222" y="-181" font-family="Helvetica,sans-Serif" font-size="10.00" fill="#000000">odp/api/abi/std_types.h</text>
</g>
<!-- Node1&#45;&gt;Node2 -->
<g id="edge2" class="edge">
<title>Node1&#45;&gt;Node2</title>
<path fill="none" stroke="#191970" d="M1313.9688,-235.3906C1296.211,-225.3713 1268.167,-209.5483 1247.7118,-198.0071"/>
<polygon fill="#191970" stroke="#191970" points="1249.3409,-194.9077 1238.9117,-193.0419 1245.9011,-201.0042 1249.3409,-194.9077"/>
</g>
<!-- Node3 -->
<g id="node4" class="node">
<title>Node3</title>
<g id="a_node4"><a xlink:href="api_2spec_2std__types_8h.html" target="_top" xlink:title="Standard C language types and definitions for ODP. ">
<polygon fill="#ffffff" stroke="#000000" points="1305.5,-174 1305.5,-193 1442.5,-193 1442.5,-174 1305.5,-174"/>
<text text-anchor="middle" x="1374" y="-181" font-family="Helvetica,sans-Serif" font-size="10.00" fill="#000000">odp/api/spec/std_types.h</text>
</a>
</g>
</g>
<!-- Node1&#45;&gt;Node3 -->
<g id="edge3" class="edge">
<title>Node1&#45;&gt;Node3</title>
<path fill="none" stroke="#191970" d="M1337.7188,-235.3906C1343.993,-226.417 1353.5223,-212.7879 1361.2404,-201.7491"/>
<polygon fill="#191970" stroke="#191970" points="1364.3247,-203.4459 1367.1865,-193.2449 1358.5879,-199.4348 1364.3247,-203.4459"/>
</g>
<!-- Node4 -->
<g id="node5" class="node">
<title>Node4</title>
<g id="a_node5"><a xlink:href="visibility__begin_8h_source.html" target="_top" xlink:title="odp/visibility_begin.h">
<polygon fill="#ffffff" stroke="#000000" points="205.5,-.5 205.5,-19.5 326.5,-19.5 326.5,-.5 205.5,-.5"/>
<text text-anchor="middle" x="266" y="-7.5" font-family="Helvetica,sans-Serif" font-size="10.00" fill="#000000">odp/visibility_begin.h</text>
</a>
</g>
</g>
<!-- Node3&#45;&gt;Node4 -->
<g id="edge4" class="edge">
<title>Node3&#45;&gt;Node4</title>
<path fill="none" stroke="#191970" d="M1327.4516,-173.9258C1317.1118,-171.8896 1306.1954,-169.8098 1296,-168 1035.5588,-121.7682 968.1238,-123.9858 708,-76 665.9958,-68.2514 656.0934,-63.2486 614,-56 518.4042,-39.5381 407.1507,-25.7638 336.6669,-17.6991"/>
<polygon fill="#191970" stroke="#191970" points="336.9016,-14.2033 326.5702,-16.551 336.1107,-21.1585 336.9016,-14.2033"/>
</g>
<!-- Node5 -->
<g id="node6" class="node">
<title>Node5</title>
<polygon fill="#ffffff" stroke="#bfbfbf" points="1349.5,-112.5 1349.5,-131.5 1402.5,-131.5 1402.5,-112.5 1349.5,-112.5"/>
<text text-anchor="middle" x="1376" y="-119.5" font-family="Helvetica,sans-Serif" font-size="10.00" fill="#000000">stdint.h</text>
</g>
<!-- Node3&#45;&gt;Node5 -->
<g id="edge5" class="edge">
<title>Node3&#45;&gt;Node5</title>
<path fill="none" stroke="#191970" d="M1374.3125,-173.8906C1374.5897,-165.3657 1375.0036,-152.6392 1375.3521,-141.9235"/>
<polygon fill="#191970" stroke="#191970" points="1378.8561,-141.8534 1375.6831,-131.7449 1371.8598,-141.6258 1378.8561,-141.8534"/>
</g>
<!-- Node6 -->
<g id="node7" class="node">
<title>Node6</title>
<g id="a_node7"><a xlink:href="api_2align_8h.html" target="_top" xlink:title="ODP alignments. ">
<polygon fill="#ffffff" stroke="#000000" points="1242.5,-112.5 1242.5,-131.5 1331.5,-131.5 1331.5,-112.5 1242.5,-112.5"/>
<text text-anchor="middle" x="1287" y="-119.5" font-family="Helvetica,sans-Serif" font-size="10.00" fill="#000000">odp/api/align.h</text>
</a>
</g>
</g>
<!-- Node3&#45;&gt;Node6 -->
<g id="edge6" class="edge">
<title>Node3&#45;&gt;Node6</title>
<path fill="none" stroke="#191970" d="M1360.4063,-173.8906C1346.6157,-164.1421 1325.0528,-148.8994 1308.859,-137.4521"/>
<polygon fill="#191970" stroke="#191970" points="1310.6844,-134.4563 1300.4983,-131.5419 1306.6437,-140.1723 1310.6844,-134.4563"/>
</g>
<!-- Node9 -->
<g id="node10" class="node">
<title>Node9</title>
<g id="a_node10"><a xlink:href="visibility__end_8h_source.html" target="_top" xlink:title="odp/visibility_end.h">
<polygon fill="#ffffff" stroke="#000000" points="1137,-.5 1137,-19.5 1249,-19.5 1249,-.5 1137,-.5"/>
<text text-anchor="middle" x="1193" y="-7.5" font-family="Helvetica,sans-Serif" font-size="10.00" fill="#000000">odp/visibility_end.h</text>
</a>
</g>
</g>
<!-- Node3&#45;&gt;Node9 -->
<g id="edge11" class="edge">
<title>Node3&#45;&gt;Node9</title>
<path fill="none" stroke="#191970" d="M1383.9,-173.9244C1393.0971,-164.3085 1406.2166,-148.5761 1412,-132 1423.1311,-100.0966 1435.3198,-82.2144 1414,-56 1394.7552,-32.3371 1317.2107,-20.4435 1259.3764,-14.7552"/>
<polygon fill="#191970" stroke="#191970" points="1259.4731,-11.2489 1249.1891,-13.7965 1258.8172,-18.2181 1259.4731,-11.2489"/>
</g>
<!-- Node7 -->
<g id="node8" class="node">
<title>Node7</title>
<polygon fill="#ffffff" stroke="#bfbfbf" points="1297.5,-56.5 1297.5,-75.5 1404.5,-75.5 1404.5,-56.5 1297.5,-56.5"/>
<text text-anchor="middle" x="1351" y="-63.5" font-family="Helvetica,sans-Serif" font-size="10.00" fill="#000000">odp/api/abi/align.h</text>
</g>
<!-- Node6&#45;&gt;Node7 -->
<g id="edge7" class="edge">
<title>Node6&#45;&gt;Node7</title>
<path fill="none" stroke="#191970" d="M1298.1479,-112.2455C1307.5087,-104.0549 1321.0858,-92.1749 1332.1349,-82.5069"/>
<polygon fill="#191970" stroke="#191970" points="1334.7588,-84.8618 1339.9798,-75.6427 1330.1492,-79.5937 1334.7588,-84.8618"/>
</g>
<!-- Node8 -->
<g id="node9" class="node">
<title>Node8</title>
<g id="a_node9"><a xlink:href="api_2spec_2align_8h.html" target="_top" xlink:title="ODP alignments. ">
<polygon fill="#ffffff" stroke="#000000" points="1051,-56.5 1051,-75.5 1165,-75.5 1165,-56.5 1051,-56.5"/>
<text text-anchor="middle" x="1108" y="-63.5" font-family="Helvetica,sans-Serif" font-size="10.00" fill="#000000">odp/api/spec/align.h</text>
</a>
</g>
</g>
<!-- Node6&#45;&gt;Node8 -->
<g id="edge8" class="edge">
<title>Node6&#45;&gt;Node8</title>
<path fill="none" stroke="#191970" d="M1256.2288,-112.3733C1226.335,-103.021 1180.7907,-88.7725 1148.0783,-78.5385"/>
<polygon fill="#191970" stroke="#191970" points="1148.9586,-75.1466 1138.3697,-75.5011 1146.8685,-81.8273 1148.9586,-75.1466"/>
</g>
<!-- Node8&#45;&gt;Node4 -->
<g id="edge9" class="edge">
<title>Node8&#45;&gt;Node4</title>
<path fill="none" stroke="#191970" d="M1050.6604,-57.0995C1047.3958,-56.6994 1044.1583,-56.3288 1041,-56 782.6255,-29.1042 474.0301,-16.6334 337.2725,-12.112"/>
<polygon fill="#191970" stroke="#191970" points="337.0468,-8.6028 326.9379,-11.7747 336.8184,-15.5991 337.0468,-8.6028"/>
</g>
<!-- Node8&#45;&gt;Node9 -->
<g id="edge10" class="edge">
<title>Node8&#45;&gt;Node9</title>
<path fill="none" stroke="#191970" d="M1122.8059,-56.2455C1135.7256,-47.7337 1154.6931,-35.2375 1169.6552,-25.3801"/>
<polygon fill="#191970" stroke="#191970" points="1171.9387,-28.067 1178.3638,-19.6427 1168.0876,-22.2216 1171.9387,-28.067"/>
</g>
<!-- Node15&#45;&gt;Node4 -->
<g id="edge18" class="edge">
<title>Node15&#45;&gt;Node4</title>
<path fill="none" stroke="#191970" d="M1379.8851,-936.1328C1142.5204,-927.2483 435.9002,-900.3347 387,-893 198.7501,-864.7637 0,-899.8557 0,-709.5 0,-709.5 0,-709.5 0,-122 0,-82.9495 24.381,-75.8671 58,-56 81.0589,-42.3734 144.6105,-29.4408 195.4519,-20.7791"/>
<polygon fill="#191970" stroke="#191970" points="196.1517,-24.2107 205.435,-19.1047 194.9938,-17.3071 196.1517,-24.2107"/>
</g>
<!-- Node15&#45;&gt;Node9 -->
<g id="edge95" class="edge">
<title>Node15&#45;&gt;Node9</title>
<path fill="none" stroke="#191970" d="M1507.8401,-929.4661C1531.0184,-922.7736 1557.196,-911.5695 1575,-893 1599.7068,-867.2309 1585.3104,-849.0672 1601,-817 1679.7174,-656.1132 1822,-659.1117 1822,-480 1822,-480 1822,-480 1822,-122 1822,-65.3239 1421.0602,-27.7554 1259.392,-14.9106"/>
<polygon fill="#191970" stroke="#191970" points="1259.3398,-11.3958 1249.096,-14.1004 1258.7906,-18.3742 1259.3398,-11.3958"/>
</g>
<!-- Node16 -->
<g id="node17" class="node">
<title>Node16</title>
<g id="a_node17"><a xlink:href="api_2packet__io_8h.html" target="_top" xlink:title="ODP Packet IO. ">
<polygon fill="#ffffff" stroke="#000000" points="1326,-873.5 1326,-892.5 1438,-892.5 1438,-873.5 1326,-873.5"/>
<text text-anchor="middle" x="1382" y="-880.5" font-family="Helvetica,sans-Serif" font-size="10.00" fill="#000000">odp/api/packet_io.h</text>
</a>
</g>
</g>
<!-- Node15&#45;&gt;Node16 -->
<g id="edge19" class="edge">
<title>Node15&#45;&gt;Node16</title>
<path fill="none" stroke="#191970" d="M1443.936,-929.2455C1432.6438,-920.814 1416.1155,-908.4729 1402.9729,-898.6598"/>
<polygon fill="#191970" stroke="#191970" points="1405.0211,-895.8211 1394.9143,-892.6427 1400.8331,-901.4301 1405.0211,-895.8211"/>
</g>
<!-- Node37 -->
<g id="node38" class="node">
<title>Node37</title>
<g id="a_node38"><a xlink:href="support_8h.html" target="_top" xlink:title="ODP support API &#45; platform specific header. ">
<polygon fill="#ffffff" stroke="#000000" points="470.5,-112.5 470.5,-131.5 571.5,-131.5 571.5,-112.5 470.5,-112.5"/>
<text text-anchor="middle" x="521" y="-119.5" font-family="Helvetica,sans-Serif" font-size="10.00" fill="#000000">odp/api/support.h</text>
</a>
</g>
</g>
<!-- Node15&#45;&gt;Node37 -->
<g id="edge89" class="edge">
<title>Node15&#45;&gt;Node37</title>
<path fill="none" stroke="#191970" d="M1379.7525,-936.3157C1102.7989,-926.1897 176,-887.7643 176,-827 176,-827 176,-827 176,-648 176,-513.6366 290,-502.3634 290,-368 290,-368 290,-368 290,-306.5 290,-228.4418 335.0739,-214.1887 398,-168 419.0669,-152.5366 445.9277,-141.6985 469.1704,-134.444"/>
<polygon fill="#191970" stroke="#191970" points="470.2977,-137.7602 478.8825,-131.5512 468.2995,-131.0515 470.2977,-137.7602"/>
</g>
<!-- Node41 -->
<g id="node42" class="node">
<title>Node41</title>
<g id="a_node42"><a xlink:href="threshold_8h.html" target="_top" xlink:title="ODP threshold API &#45; platform specific header. ">
<polygon fill="#ffffff" stroke="#000000" points="1456,-873.5 1456,-892.5 1566,-892.5 1566,-873.5 1456,-873.5"/>
<text text-anchor="middle" x="1511" y="-880.5" font-family="Helvetica,sans-Serif" font-size="10.00" fill="#000000">odp/api/threshold.h</text>
</a>
</g>
</g>
<!-- Node15&#45;&gt;Node41 -->
<g id="edge90" class="edge">
<title>Node15&#45;&gt;Node41</title>
<path fill="none" stroke="#191970" d="M1466.4061,-929.2455C1474.1493,-921.2155 1485.312,-909.6394 1494.5318,-900.0781"/>
<polygon fill="#191970" stroke="#191970" points="1497.2798,-902.2706 1501.7017,-892.6427 1492.2409,-897.4117 1497.2798,-902.2706"/>
</g>
<!-- Node16&#45;&gt;Node1 -->
<g id="edge20" class="edge">
<title>Node16&#45;&gt;Node1</title>
<path fill="none" stroke="#191970" d="M1388.6827,-873.3152C1400.9915,-854.5029 1426,-811.3199 1426,-771 1426,-771 1426,-771 1426,-424 1426,-415.0461 1365.9095,-307.1115 1341.3107,-263.3021"/>
<polygon fill="#191970" stroke="#191970" points="1344.332,-261.5341 1336.3798,-254.5331 1338.2304,-264.9651 1344.332,-261.5341"/>
</g>
<!-- Node16&#45;&gt;Node10 -->
<g id="edge21" class="edge">
<title>Node16&#45;&gt;Node10</title>
<path fill="none" stroke="#191970" d="M1381.1403,-873.4209C1379.4813,-854.0797 1376,-808.971 1376,-771 1376,-771 1376,-771 1376,-536 1376,-477.7953 1340.4957,-415.9893 1320.7965,-386.1763"/>
<polygon fill="#191970" stroke="#191970" points="1323.5326,-383.9751 1315.0211,-377.6661 1317.7405,-387.906 1323.5326,-383.9751"/>
</g>
<!-- Node16&#45;&gt;Node11 -->
<g id="edge22" class="edge">
<title>Node16&#45;&gt;Node11</title>
<path fill="none" stroke="#191970" d="M1433.4017,-873.4369C1485.5649,-863.7321 1566.3197,-848.708 1621.7646,-838.3926"/>
<polygon fill="#191970" stroke="#191970" points="1622.6192,-841.7938 1631.8103,-836.5237 1621.3388,-834.9119 1622.6192,-841.7938"/>
</g>
<!-- Node16&#45;&gt;Node12 -->
<g id="edge23" class="edge">
<title>Node16&#45;&gt;Node12</title>
<path fill="none" stroke="#191970" d="M1398.4726,-873.3386C1411.2969,-865.0929 1428.7514,-852.1785 1440,-837 1458.7716,-811.6702 1466,-802.5274 1466,-771 1466,-771 1466,-771 1466,-480 1466,-444.66 1485.8391,-407.4332 1499.4597,-386.0395"/>
<polygon fill="#191970" stroke="#191970" points="1502.4179,-387.9114 1505.0136,-377.6394 1496.5788,-384.0507 1502.4179,-387.9114"/>
</g>
<!-- Node16&#45;&gt;Node13 -->
<g id="edge24" class="edge">
<title>Node16&#45;&gt;Node13</title>
<path fill="none" stroke="#191970" d="M1406.6518,-873.4692C1423.6077,-865.8294 1445.5839,-853.6312 1460,-837 1523.8932,-763.2893 1621.7698,-465.8222 1646.9358,-387.1598"/>
<polygon fill="#191970" stroke="#191970" points="1650.2939,-388.1489 1649.9931,-377.5584 1643.6239,-386.025 1650.2939,-388.1489"/>
</g>
<!-- Node16&#45;&gt;Node14 -->
<g id="edge25" class="edge">
<title>Node16&#45;&gt;Node14</title>
<path fill="none" stroke="#191970" d="M1325.9438,-879.6871C1203.0508,-869.3512 908.2174,-827.2761 749,-658 728.0866,-635.7653 730,-622.5246 730,-592 730,-592 730,-592 730,-480 730,-442.6364 703.4944,-405.8655 685.4271,-385.141"/>
<polygon fill="#191970" stroke="#191970" points="687.8391,-382.5903 678.5313,-377.5291 682.6513,-387.29 687.8391,-382.5903"/>
</g>
<!-- Node17 -->
<g id="node18" class="node">
<title>Node17</title>
<g id="a_node18"><a xlink:href="api_2spec_2packet__io_8h.html" target="_top" xlink:title="ODP Packet IO. ">
<polygon fill="#ffffff" stroke="#000000" points="737.5,-817.5 737.5,-836.5 874.5,-836.5 874.5,-817.5 737.5,-817.5"/>
<text text-anchor="middle" x="806" y="-824.5" font-family="Helvetica,sans-Serif" font-size="10.00" fill="#000000">odp/api/spec/packet_io.h</text>
</a>
</g>
</g>
<!-- Node16&#45;&gt;Node17 -->
<g id="edge26" class="edge">
<title>Node16&#45;&gt;Node17</title>
<path fill="none" stroke="#191970" d="M1325.9623,-877.9582C1235.63,-869.7693 1052.2376,-852.8904 897,-837 893.0225,-836.5929 888.948,-836.1692 884.834,-835.7361"/>
<polygon fill="#191970" stroke="#191970" points="884.8727,-832.2206 874.5589,-834.6445 884.1331,-839.1814 884.8727,-832.2206"/>
</g>
<!-- Node17&#45;&gt;Node4 -->
<g id="edge27" class="edge">
<title>Node17&#45;&gt;Node4</title>
<path fill="none" stroke="#191970" d="M737.1692,-823.6633C548.6628,-813.6137 38,-779.893 38,-709.5 38,-709.5 38,-709.5 38,-122 38,-84.0995 60.1276,-76.5085 92,-56 122.8378,-36.1572 161.9697,-24.8402 195.3101,-18.4021"/>
<polygon fill="#191970" stroke="#191970" points="196.2434,-21.7899 205.4556,-16.5567 194.9906,-14.9029 196.2434,-21.7899"/>
</g>
<!-- Node17&#45;&gt;Node9 -->
<g id="edge88" class="edge">
<title>Node17&#45;&gt;Node9</title>
<path fill="none" stroke="#191970" d="M874.8717,-822.0131C971.406,-814.5054 1141.7763,-799.221 1201,-781 1266.6458,-760.8032 1338,-778.1825 1338,-709.5 1338,-709.5 1338,-709.5 1338,-536 1338,-443.6956 1375.5684,-418.8223 1445,-358 1475.2455,-331.5048 1502.0431,-352.7088 1528,-322 1550.7546,-295.0798 1547,-280.2487 1547,-245 1547,-245 1547,-245 1547,-122 1547,-87.6999 1535.5832,-74.9604 1507,-56 1467.5639,-29.8404 1339.6605,-18.0755 1259.7786,-13.166"/>
<polygon fill="#191970" stroke="#191970" points="1259.5116,-9.6441 1249.3218,-12.5455 1259.0969,-16.6318 1259.5116,-9.6441"/>
</g>
<!-- Node18 -->
<g id="node19" class="node">
<title>Node18</title>
<g id="a_node19"><a xlink:href="deprecated_8h.html" target="_top" xlink:title="Control deprecated API definitions. ">
<polygon fill="#ffffff" stroke="#000000" points="142.5,-235.5 142.5,-254.5 261.5,-254.5 261.5,-235.5 142.5,-235.5"/>
<text text-anchor="middle" x="202" y="-242.5" font-family="Helvetica,sans-Serif" font-size="10.00" fill="#000000">odp/api/deprecated.h</text>
</a>
</g>
</g>
<!-- Node17&#45;&gt;Node18 -->
<g id="edge28" class="edge">
<title>Node17&#45;&gt;Node18</title>
<path fill="none" stroke="#191970" d="M737.2219,-820.4974C581.2236,-804.8233 214,-762.317 214,-709.5 214,-709.5 214,-709.5 214,-648 214,-571.4471 176,-556.5529 176,-480 176,-480 176,-480 176,-368 176,-330.7133 187.5785,-288.4163 195.2822,-264.4009"/>
<polygon fill="#191970" stroke="#191970" points="198.6614,-265.3303 198.4935,-254.7368 192.0186,-263.1229 198.6614,-265.3303"/>
</g>
<!-- Node20 -->
<g id="node21" class="node">
<title>Node20</title>
<g id="a_node21"><a xlink:href="packet__io__stats_8h.html" target="_top" xlink:title="ODP packet IO stats. ">
<polygon fill="#ffffff" stroke="#000000" points="449.5,-761.5 449.5,-780.5 590.5,-780.5 590.5,-761.5 449.5,-761.5"/>
<text text-anchor="middle" x="520" y="-768.5" font-family="Helvetica,sans-Serif" font-size="10.00" fill="#000000">odp/api/packet_io_stats.h</text>
</a>
</g>
</g>
<!-- Node17&#45;&gt;Node20 -->
<g id="edge32" class="edge">
<title>Node17&#45;&gt;Node20</title>
<path fill="none" stroke="#191970" d="M757.1598,-817.4369C707.699,-807.7522 631.184,-792.7703 578.512,-782.4569"/>
<polygon fill="#191970" stroke="#191970" points="579.125,-779.0105 568.6387,-780.5237 577.7798,-785.8801 579.125,-779.0105"/>
</g>
<!-- Node22 -->
<g id="node23" class="node">
<title>Node22</title>
<g id="a_node23"><a xlink:href="api_2queue_8h.html" target="_top" xlink:title="ODP queue. ">
<polygon fill="#ffffff" stroke="#000000" points="758.5,-638.5 758.5,-657.5 853.5,-657.5 853.5,-638.5 758.5,-638.5"/>
<text text-anchor="middle" x="806" y="-645.5" font-family="Helvetica,sans-Serif" font-size="10.00" fill="#000000">odp/api/queue.h</text>
</a>
</g>
</g>
<!-- Node17&#45;&gt;Node22 -->
<g id="edge81" class="edge">
<title>Node17&#45;&gt;Node22</title>
<path fill="none" stroke="#191970" d="M806,-817.3762C806,-789.2097 806,-706.5126 806,-668.0713"/>
<polygon fill="#191970" stroke="#191970" points="809.5001,-667.6714 806,-657.6714 802.5001,-667.6714 809.5001,-667.6714"/>
</g>
<!-- Node28 -->
<g id="node29" class="node">
<title>Node28</title>
<g id="a_node29"><a xlink:href="api_2packet_8h.html" target="_top" xlink:title="ODP packet descriptor. ">
<polygon fill="#ffffff" stroke="#000000" points="1068,-414.5 1068,-433.5 1166,-433.5 1166,-414.5 1068,-414.5"/>
<text text-anchor="middle" x="1117" y="-421.5" font-family="Helvetica,sans-Serif" font-size="10.00" fill="#000000">odp/api/packet.h</text>
</a>
</g>
</g>
<!-- Node17&#45;&gt;Node28 -->
<g id="edge87" class="edge">
<title>Node17&#45;&gt;Node28</title>
<path fill="none" stroke="#191970" d="M874.9528,-823.4288C1001.9579,-814.9536 1260,-788.0669 1260,-709.5 1260,-709.5 1260,-709.5 1260,-592 1260,-520.7822 1184.562,-464.3915 1143.27,-438.8597"/>
<polygon fill="#191970" stroke="#191970" points="1144.9075,-435.7603 1134.5346,-433.6032 1141.2984,-441.7581 1144.9075,-435.7603"/>
</g>
<!-- Node30 -->
<g id="node31" class="node">
<title>Node30</title>
<g id="a_node31"><a xlink:href="api_2time_8h.html" target="_top" xlink:title="ODP time. ">
<polygon fill="#ffffff" stroke="#000000" points="1036.5,-297 1036.5,-316 1123.5,-316 1123.5,-297 1036.5,-297"/>
<text text-anchor="middle" x="1080" y="-304" font-family="Helvetica,sans-Serif" font-size="10.00" fill="#000000">odp/api/time.h</text>
</a>
</g>
</g>
<!-- Node17&#45;&gt;Node30 -->
<g id="edge86" class="edge">
<title>Node17&#45;&gt;Node30</title>
<path fill="none" stroke="#191970" d="M813.565,-817.1416C832.7883,-791.0738 882,-717.5486 882,-648 882,-648 882,-648 882,-424 882,-393.4754 879.4141,-379.5825 901,-358 910.2795,-348.722 979.7536,-330.5053 1029.3587,-318.4151"/>
<polygon fill="#191970" stroke="#191970" points="1030.406,-321.7627 1039.302,-316.0085 1028.7593,-314.9592 1030.406,-321.7627"/>
</g>
<!-- Node39 -->
<g id="node40" class="node">
<title>Node39</title>
<g id="a_node40"><a xlink:href="reassembly_8h.html" target="_top" xlink:title="ODP REASSEMBLY API &#45; platform specific header. ">
<polygon fill="#ffffff" stroke="#000000" points="642,-761.5 642,-780.5 762,-780.5 762,-761.5 642,-761.5"/>
<text text-anchor="middle" x="702" y="-768.5" font-family="Helvetica,sans-Serif" font-size="10.00" fill="#000000">odp/api/reassembly.h</text>
</a>
</g>
</g>
<!-- Node17&#45;&gt;Node39 -->
<g id="edge82" class="edge">
<title>Node17&#45;&gt;Node39</title>
<path fill="none" stroke="#191970" d="M787.8846,-817.2455C771.555,-808.4527 747.329,-795.4079 728.7661,-785.4125"/>
<polygon fill="#191970" stroke="#191970" points="730.3719,-782.3021 719.9078,-780.6427 727.0532,-788.4654 730.3719,-782.3021"/>
</g>
<!-- Node19 -->
<g id="node20" class="node">
<title>Node19</title>
<g id="a_node20"><a xlink:href="spec_2deprecated_8h.html" target="_top" xlink:title="Macro for deprecated API definitions. ">
<polygon fill="#ffffff" stroke="#000000" points="294.5,-56.5 294.5,-75.5 439.5,-75.5 439.5,-56.5 294.5,-56.5"/>
<text text-anchor="middle" x="367" y="-63.5" font-family="Helvetica,sans-Serif" font-size="10.00" fill="#000000">odp/api/spec/deprecated.h</text>
</a>
</g>
</g>
<!-- Node18&#45;&gt;Node19 -->
<g id="edge29" class="edge">
<title>Node18&#45;&gt;Node19</title>
<path fill="none" stroke="#191970" d="M210.8711,-235.3762C237.5061,-206.4812 317.0403,-120.1987 351.1643,-83.1793"/>
<polygon fill="#191970" stroke="#191970" points="353.8808,-85.3964 358.085,-75.6714 348.7338,-80.652 353.8808,-85.3964"/>
</g>
<!-- Node19&#45;&gt;Node4 -->
<g id="edge30" class="edge">
<title>Node19&#45;&gt;Node4</title>
<path fill="none" stroke="#191970" d="M349.4071,-56.2455C333.621,-47.4928 310.2361,-34.527 292.2413,-24.5496"/>
<polygon fill="#191970" stroke="#191970" points="293.8341,-21.4308 283.3913,-19.6427 290.4397,-27.5528 293.8341,-21.4308"/>
</g>
<!-- Node19&#45;&gt;Node9 -->
<g id="edge31" class="edge">
<title>Node19&#45;&gt;Node9</title>
<path fill="none" stroke="#191970" d="M439.835,-56.7947C442.5903,-56.5143 445.3193,-56.248 448,-56 698.0102,-32.8707 996.3307,-18.4025 1126.624,-12.734"/>
<polygon fill="#191970" stroke="#191970" points="1126.996,-16.2213 1136.8356,-12.2928 1126.6938,-9.2278 1126.996,-16.2213"/>
</g>
<!-- Node21 -->
<g id="node22" class="node">
<title>Node21</title>
<g id="a_node22"><a xlink:href="spec_2packet__io__stats_8h.html" target="_top" xlink:title="ODP Packet IO statistics. ">
<polygon fill="#ffffff" stroke="#000000" points="262,-694.5 262,-724.5 376,-724.5 376,-694.5 262,-694.5"/>
<text text-anchor="start" x="270" y="-712.5" font-family="Helvetica,sans-Serif" font-size="10.00" fill="#000000">odp/api/spec/packet</text>
<text text-anchor="middle" x="319" y="-701.5" font-family="Helvetica,sans-Serif" font-size="10.00" fill="#000000">_io_stats.h</text>
</a>
</g>
</g>
<!-- Node20&#45;&gt;Node21 -->
<g id="edge33" class="edge">
<title>Node20&#45;&gt;Node21</title>
<path fill="none" stroke="#191970" d="M488.5938,-761.3906C459.1239,-752.3737 414.2915,-738.6563 378.1221,-727.5896"/>
<polygon fill="#191970" stroke="#191970" points="378.7566,-724.1236 368.1701,-724.5446 376.7085,-730.8173 378.7566,-724.1236"/>
</g>
<!-- Node21&#45;&gt;Node4 -->
<g id="edge34" class="edge">
<title>Node21&#45;&gt;Node4</title>
<path fill="none" stroke="#191970" d="M305.9353,-694.3492C255.4617,-634.2065 76,-404.8054 76,-183.5 76,-183.5 76,-183.5 76,-122 76,-64.2347 141.9818,-35.6568 196.1794,-21.9265"/>
<polygon fill="#191970" stroke="#191970" points="197.2383,-25.2718 206.1436,-19.5319 195.6026,-18.4656 197.2383,-25.2718"/>
</g>
<!-- Node21&#45;&gt;Node9 -->
<g id="edge80" class="edge">
<title>Node21&#45;&gt;Node9</title>
<path fill="none" stroke="#191970" d="M326.1237,-694.4071C344.878,-655.3863 398.3017,-548.7179 458,-470 499.9723,-414.6555 510.3449,-398.1856 567,-358 627.658,-314.9751 1125.6324,-132.4899 1174,-76 1185.0145,-63.1358 1189.6556,-44.2303 1191.6049,-29.9468"/>
<polygon fill="#191970" stroke="#191970" points="1195.1186,-29.9922 1192.6614,-19.6863 1188.1554,-29.2752 1195.1186,-29.9922"/>
</g>
<!-- Node21&#45;&gt;Node18 -->
<g id="edge35" class="edge">
<title>Node21&#45;&gt;Node18</title>
<path fill="none" stroke="#191970" d="M315.1737,-694.3093C297.7941,-625.3106 226.2986,-341.4677 206.8842,-264.3905"/>
<polygon fill="#191970" stroke="#191970" points="210.2469,-263.4112 204.4103,-254.569 203.4589,-265.121 210.2469,-263.4112"/>
</g>
<!-- Node21&#45;&gt;Node22 -->
<g id="edge36" class="edge">
<title>Node21&#45;&gt;Node22</title>
<path fill="none" stroke="#191970" d="M376.2972,-702.2643C469.8441,-690.4509 654.3378,-667.1524 748.2058,-655.2984"/>
<polygon fill="#191970" stroke="#191970" points="748.8881,-658.7402 758.3707,-654.0148 748.011,-651.7953 748.8881,-658.7402"/>
</g>
<!-- Node22&#45;&gt;Node1 -->
<g id="edge37" class="edge">
<title>Node22&#45;&gt;Node1</title>
<path fill="none" stroke="#191970" d="M837.7274,-638.4766C863.11,-630.309 899.2505,-617.4323 929,-602 1046.5251,-541.035 1077.2263,-523.2703 1175,-434 1235.8576,-378.4352 1293.9275,-298.758 1318.5899,-263.2639"/>
<polygon fill="#191970" stroke="#191970" points="1321.5909,-265.077 1324.3793,-254.8557 1315.8254,-261.1072 1321.5909,-265.077"/>
</g>
<!-- Node22&#45;&gt;Node10 -->
<g id="edge41" class="edge">
<title>Node22&#45;&gt;Node10</title>
<path fill="none" stroke="#191970" d="M853.7696,-645.0111C952.1855,-638.4796 1170.6479,-621.9131 1198,-602 1272.2823,-547.9204 1243.6244,-496.5365 1284,-414 1288.4382,-404.9275 1293.5926,-394.9779 1297.9845,-386.66"/>
<polygon fill="#191970" stroke="#191970" points="1301.0937,-388.2675 1302.7013,-377.7953 1294.9141,-384.9793 1301.0937,-388.2675"/>
</g>
<!-- Node22&#45;&gt;Node14 -->
<g id="edge39" class="edge">
<title>Node22&#45;&gt;Node14</title>
<path fill="none" stroke="#191970" d="M800.393,-638.4834C789.8226,-619.6141 768,-575.8343 768,-536 768,-536 768,-536 768,-480 768,-448.7875 763.7401,-438.1775 744,-414 732.9056,-400.4117 716.6716,-389.7576 702.142,-382.1397"/>
<polygon fill="#191970" stroke="#191970" points="703.4263,-378.8701 692.9113,-377.5717 700.3216,-385.144 703.4263,-378.8701"/>
</g>
<!-- Node23 -->
<g id="node24" class="node">
<title>Node23</title>
<polygon fill="#ffffff" stroke="#bfbfbf" points="744,-358.5 744,-377.5 854,-377.5 854,-358.5 744,-358.5"/>
<text text-anchor="middle" x="799" y="-365.5" font-family="Helvetica,sans-Serif" font-size="10.00" fill="#000000">odp/api/abi/event.h</text>
</g>
<!-- Node22&#45;&gt;Node23 -->
<g id="edge38" class="edge">
<title>Node22&#45;&gt;Node23</title>
<path fill="none" stroke="#191970" d="M806,-638.4116C806,-619.0538 806,-573.9167 806,-536 806,-536 806,-536 806,-480 806,-447.6486 803.0548,-410.1429 800.9851,-387.7814"/>
<polygon fill="#191970" stroke="#191970" points="804.4449,-387.1945 800.0029,-377.5758 797.4771,-387.8651 804.4449,-387.1945"/>
</g>
<!-- Node24 -->
<g id="node25" class="node">
<title>Node24</title>
<polygon fill="#ffffff" stroke="#bfbfbf" points="910,-358.5 910,-377.5 1020,-377.5 1020,-358.5 910,-358.5"/>
<text text-anchor="middle" x="965" y="-365.5" font-family="Helvetica,sans-Serif" font-size="10.00" fill="#000000">odp/api/abi/buffer.h</text>
</g>
<!-- Node22&#45;&gt;Node24 -->
<g id="edge40" class="edge">
<title>Node22&#45;&gt;Node24</title>
<path fill="none" stroke="#191970" d="M836.0652,-638.4984C876.3934,-623.6545 943,-590.8376 943,-536 943,-536 943,-536 943,-480 943,-447.1132 952.246,-409.7958 958.7499,-387.6138"/>
<polygon fill="#191970" stroke="#191970" points="962.1853,-388.3474 961.7538,-377.7614 955.4896,-386.3059 962.1853,-388.3474"/>
</g>
<!-- Node25 -->
<g id="node26" class="node">
<title>Node25</title>
<g id="a_node26"><a xlink:href="api_2spec_2queue_8h.html" target="_top" xlink:title="ODP queue. ">
<polygon fill="#ffffff" stroke="#000000" points="420,-582.5 420,-601.5 540,-601.5 540,-582.5 420,-582.5"/>
<text text-anchor="middle" x="480" y="-589.5" font-family="Helvetica,sans-Serif" font-size="10.00" fill="#000000">odp/api/spec/queue.h</text>
</a>
</g>
</g>
<!-- Node22&#45;&gt;Node25 -->
<g id="edge42" class="edge">
<title>Node22&#45;&gt;Node25</title>
<path fill="none" stroke="#191970" d="M758.2477,-639.7971C702.1256,-630.1566 608.6847,-614.1053 545.7438,-603.2934"/>
<polygon fill="#191970" stroke="#191970" points="545.9755,-599.782 535.5273,-601.5384 544.7903,-606.681 545.9755,-599.782"/>
</g>
<!-- Node25&#45;&gt;Node4 -->
<g id="edge43" class="edge">
<title>Node25&#45;&gt;Node4</title>
<path fill="none" stroke="#191970" d="M460.3223,-582.4654C384.3003,-544.1062 114,-392.9882 114,-183.5 114,-183.5 114,-183.5 114,-122 114,-68.8635 174.9479,-38.1127 219.6564,-22.7035"/>
<polygon fill="#191970" stroke="#191970" points="220.8031,-26.0108 229.205,-19.5566 218.612,-19.3626 220.8031,-26.0108"/>
</g>
<!-- Node25&#45;&gt;Node9 -->
<g id="edge79" class="edge">
<title>Node25&#45;&gt;Node9</title>
<path fill="none" stroke="#191970" d="M479.6386,-582.2574C479.2319,-560.813 480.3903,-508.384 499,-470 528.6346,-408.8762 543.6948,-391.1243 603,-358 674.6076,-318.0043 705.7521,-346.5882 784,-322 914.0592,-281.1308 946.9371,-267.1677 1065,-199 1141.765,-154.6771 1184.7587,-156.4392 1222,-76 1229.5053,-59.7889 1219.6262,-41.1377 1209.415,-27.8068"/>
<polygon fill="#191970" stroke="#191970" points="1211.9207,-25.3459 1202.8363,-19.894 1206.538,-29.8211 1211.9207,-25.3459"/>
</g>
<!-- Node26 -->
<g id="node27" class="node">
<title>Node26</title>
<g id="a_node27"><a xlink:href="api_2event_8h.html" target="_top" xlink:title="ODP event. ">
<polygon fill="#ffffff" stroke="#000000" points="521,-526.5 521,-545.5 613,-545.5 613,-526.5 521,-526.5"/>
<text text-anchor="middle" x="567" y="-533.5" font-family="Helvetica,sans-Serif" font-size="10.00" fill="#000000">odp/api/event.h</text>
</a>
</g>
</g>
<!-- Node25&#45;&gt;Node26 -->
<g id="edge44" class="edge">
<title>Node25&#45;&gt;Node26</title>
<path fill="none" stroke="#191970" d="M495.1542,-582.2455C508.5027,-573.6534 528.1586,-561.0014 543.5383,-551.1018"/>
<polygon fill="#191970" stroke="#191970" points="545.5051,-553.9982 552.0194,-545.6427 541.7164,-548.1121 545.5051,-553.9982"/>
</g>
<!-- Node33 -->
<g id="node34" class="node">
<title>Node33</title>
<g id="a_node34"><a xlink:href="queue__types_8h.html" target="_top" xlink:title="ODP queue types. ">
<polygon fill="#ffffff" stroke="#000000" points="424.5,-291.5 424.5,-321.5 535.5,-321.5 535.5,-291.5 424.5,-291.5"/>
<text text-anchor="start" x="432.5" y="-309.5" font-family="Helvetica,sans-Serif" font-size="10.00" fill="#000000">odp/api/spec/queue</text>
<text text-anchor="middle" x="480" y="-298.5" font-family="Helvetica,sans-Serif" font-size="10.00" fill="#000000">_types.h</text>
</a>
</g>
</g>
<!-- Node25&#45;&gt;Node33 -->
<g id="edge66" class="edge">
<title>Node25&#45;&gt;Node33</title>
<path fill="none" stroke="#191970" d="M476.1376,-582.3228C472.6962,-573.1446 467.9167,-558.8807 466,-546 454.4712,-468.5235 467.4362,-375.6286 475.1296,-331.78"/>
<polygon fill="#191970" stroke="#191970" points="478.6118,-332.1923 476.9538,-321.728 471.7243,-330.9423 478.6118,-332.1923"/>
</g>
<!-- Node26&#45;&gt;Node23 -->
<g id="edge45" class="edge">
<title>Node26&#45;&gt;Node23</title>
<path fill="none" stroke="#191970" d="M581.4555,-526.4929C595.3097,-517.3176 616.7509,-502.9504 635,-490 687.1526,-452.9899 747.1489,-407.6298 778.1019,-384.0159"/>
<polygon fill="#191970" stroke="#191970" points="780.5629,-386.5402 786.3837,-377.6875 776.3128,-380.9781 780.5629,-386.5402"/>
</g>
<!-- Node27 -->
<g id="node28" class="node">
<title>Node27</title>
<g id="a_node28"><a xlink:href="api_2spec_2event_8h.html" target="_top" xlink:title="ODP event. ">
<polygon fill="#ffffff" stroke="#000000" points="508,-470.5 508,-489.5 626,-489.5 626,-470.5 508,-470.5"/>
<text text-anchor="middle" x="567" y="-477.5" font-family="Helvetica,sans-Serif" font-size="10.00" fill="#000000">odp/api/spec/event.h</text>
</a>
</g>
</g>
<!-- Node26&#45;&gt;Node27 -->
<g id="edge46" class="edge">
<title>Node26&#45;&gt;Node27</title>
<path fill="none" stroke="#191970" d="M567,-526.2455C567,-518.9382 567,-508.6944 567,-499.7046"/>
<polygon fill="#191970" stroke="#191970" points="570.5001,-499.6426 567,-489.6427 563.5001,-499.6427 570.5001,-499.6426"/>
</g>
<!-- Node27&#45;&gt;Node4 -->
<g id="edge47" class="edge">
<title>Node27&#45;&gt;Node4</title>
<path fill="none" stroke="#191970" d="M551.3574,-470.4362C500.6549,-438.6162 339.3758,-330.8272 257,-199 222.8875,-144.4093 214.1893,-117.2482 234,-56 237.342,-45.6677 243.8536,-35.6001 250.1352,-27.5307"/>
<polygon fill="#191970" stroke="#191970" points="252.9945,-29.5665 256.7004,-19.641 247.6137,-25.0891 252.9945,-29.5665"/>
</g>
<!-- Node27&#45;&gt;Node9 -->
<g id="edge65" class="edge">
<title>Node27&#45;&gt;Node9</title>
<path fill="none" stroke="#191970" d="M566.7337,-470.365C566.6568,-447.2311 569.8978,-388.2311 603,-358 663.5641,-302.689 706.4488,-348.7043 784,-322 898.827,-282.4601 923.4937,-260.8634 1028,-199 1033.1915,-195.9268 1204.1907,-81.339 1207,-76 1214.8125,-61.1525 1209.4999,-42.2583 1203.3038,-28.4937"/>
<polygon fill="#191970" stroke="#191970" points="1206.4139,-26.8876 1198.811,-19.5088 1200.153,-30.0183 1206.4139,-26.8876"/>
</g>
<!-- Node27&#45;&gt;Node28 -->
<g id="edge48" class="edge">
<title>Node27&#45;&gt;Node28</title>
<path fill="none" stroke="#191970" d="M626.1207,-473.9804C731.777,-463.2227 951.8254,-440.8178 1057.6482,-430.0431"/>
<polygon fill="#191970" stroke="#191970" points="1058.2374,-433.5013 1067.8314,-429.0063 1057.5283,-426.5373 1058.2374,-433.5013"/>
</g>
<!-- Node28&#45;&gt;Node1 -->
<g id="edge49" class="edge">
<title>Node28&#45;&gt;Node1</title>
<path fill="none" stroke="#191970" d="M1131.2661,-414.365C1143.0553,-405.8581 1159.6427,-392.5694 1171,-378 1197.5174,-343.9828 1182.2411,-320.1843 1214,-291 1231.2117,-275.1836 1254.4993,-264.5501 1275.7668,-257.5309"/>
<polygon fill="#191970" stroke="#191970" points="1276.852,-260.8589 1285.3671,-254.5547 1274.7792,-254.1729 1276.852,-260.8589"/>
</g>
<!-- Node28&#45;&gt;Node10 -->
<g id="edge55" class="edge">
<title>Node28&#45;&gt;Node10</title>
<path fill="none" stroke="#191970" d="M1149.8341,-414.3733C1181.8695,-404.9807 1230.7487,-390.6496 1265.6855,-380.4064"/>
<polygon fill="#191970" stroke="#191970" points="1266.9831,-383.6733 1275.5944,-377.5011 1265.0136,-376.9561 1266.9831,-383.6733"/>
</g>
<!-- Node28&#45;&gt;Node12 -->
<g id="edge52" class="edge">
<title>Node28&#45;&gt;Node12</title>
<path fill="none" stroke="#191970" d="M1166.2284,-417.0208C1236.0954,-407.1156 1364.3017,-388.9395 1443.4412,-377.7197"/>
<polygon fill="#191970" stroke="#191970" points="1444.3847,-381.1211 1453.7944,-376.2519 1443.402,-374.1904 1444.3847,-381.1211"/>
</g>
<!-- Node28&#45;&gt;Node13 -->
<g id="edge51" class="edge">
<title>Node28&#45;&gt;Node13</title>
<path fill="none" stroke="#191970" d="M1166.2912,-419.6644C1249.018,-412.2627 1421.2873,-396.3139 1577.3881,-378.1573"/>
<polygon fill="#191970" stroke="#191970" points="1578.1198,-381.5957 1587.6457,-376.9582 1577.307,-374.643 1578.1198,-381.5957"/>
</g>
<!-- Node28&#45;&gt;Node14 -->
<g id="edge53" class="edge">
<title>Node28&#45;&gt;Node14</title>
<path fill="none" stroke="#191970" d="M1067.7925,-418.5607C996.9053,-410.6178 861.6785,-395.0659 735.7208,-378.0625"/>
<polygon fill="#191970" stroke="#191970" points="735.8889,-374.5533 725.5093,-376.678 734.9484,-381.4899 735.8889,-374.5533"/>
</g>
<!-- Node28&#45;&gt;Node23 -->
<g id="edge50" class="edge">
<title>Node28&#45;&gt;Node23</title>
<path fill="none" stroke="#191970" d="M1067.6614,-415.3114C1012.6628,-405.6262 923.5335,-389.9304 863.1575,-379.2982"/>
<polygon fill="#191970" stroke="#191970" points="863.4354,-375.7933 852.9799,-377.5059 862.2213,-382.6873 863.4354,-375.7933"/>
</g>
<!-- Node28&#45;&gt;Node24 -->
<g id="edge54" class="edge">
<title>Node28&#45;&gt;Node24</title>
<path fill="none" stroke="#191970" d="M1090.8703,-414.3733C1065.9232,-405.1822 1028.1408,-391.2624 1000.4794,-381.0713"/>
<polygon fill="#191970" stroke="#191970" points="1001.3822,-377.674 990.7888,-377.5011 998.9622,-384.2424 1001.3822,-377.674"/>
</g>
<!-- Node29 -->
<g id="node30" class="node">
<title>Node29</title>
<g id="a_node30"><a xlink:href="api_2spec_2packet_8h.html" target="_top" xlink:title="ODP packet descriptor. ">
<polygon fill="#ffffff" stroke="#000000" points="1038.5,-358.5 1038.5,-377.5 1161.5,-377.5 1161.5,-358.5 1038.5,-358.5"/>
<text text-anchor="middle" x="1100" y="-365.5" font-family="Helvetica,sans-Serif" font-size="10.00" fill="#000000">odp/api/spec/packet.h</text>
</a>
</g>
</g>
<!-- Node28&#45;&gt;Node29 -->
<g id="edge56" class="edge">
<title>Node28&#45;&gt;Node29</title>
<path fill="none" stroke="#191970" d="M1114.0388,-414.2455C1111.7962,-406.8579 1108.6423,-396.4689 1105.8919,-387.4087"/>
<polygon fill="#191970" stroke="#191970" points="1109.1812,-386.1948 1102.9272,-377.6427 1102.483,-388.2282 1109.1812,-386.1948"/>
</g>
<!-- Node29&#45;&gt;Node4 -->
<g id="edge57" class="edge">
<title>Node29&#45;&gt;Node4</title>
<path fill="none" stroke="#191970" d="M1038.4633,-359.0207C1035.2657,-358.6518 1032.0967,-358.3083 1029,-358 892.9938,-344.4576 537.1284,-383.3657 415,-322 369.8982,-299.3378 379.1493,-269.1714 342,-235 321.5801,-216.2169 310.7826,-218.4532 291,-199 264.6956,-173.1336 253.4551,-167.0681 242,-132 231.5118,-99.8918 233.9564,-88.8061 242,-56 244.3743,-46.3164 249.1821,-36.4071 253.8753,-28.2776"/>
<polygon fill="#191970" stroke="#191970" points="256.9119,-30.0214 259.1792,-19.672 250.9528,-26.3486 256.9119,-30.0214"/>
</g>
<!-- Node29&#45;&gt;Node9 -->
<g id="edge64" class="edge">
<title>Node29&#45;&gt;Node9</title>
<path fill="none" stroke="#191970" d="M1108.5392,-358.2314C1131.2581,-332.9652 1196.2317,-265.3227 1266,-235 1343.2226,-201.4375 1398.4157,-263.9499 1452,-199 1476.6541,-169.1166 1495.7077,-120.0595 1433,-56 1409.3153,-31.8047 1321.8666,-19.8984 1259.374,-14.3626"/>
<polygon fill="#191970" stroke="#191970" points="1259.445,-10.8561 1249.1844,-13.4963 1258.8519,-17.831 1259.445,-10.8561"/>
</g>
<!-- Node29&#45;&gt;Node30 -->
<g id="edge58" class="edge">
<title>Node29&#45;&gt;Node30</title>
<path fill="none" stroke="#191970" d="M1096.875,-358.3906C1094.0735,-349.776 1089.8767,-336.8708 1086.3694,-326.0858"/>
<polygon fill="#191970" stroke="#191970" points="1089.5902,-324.6722 1083.1691,-316.2449 1082.9333,-326.8371 1089.5902,-324.6722"/>
</g>
<!-- Node30&#45;&gt;Node1 -->
<g id="edge59" class="edge">
<title>Node30&#45;&gt;Node1</title>
<path fill="none" stroke="#191970" d="M1118.9434,-296.9581C1162.9087,-286.1857 1234.5065,-268.6428 1282.1751,-256.9631"/>
<polygon fill="#191970" stroke="#191970" points="1283.0855,-260.3436 1291.9653,-254.5643 1281.4196,-253.5447 1283.0855,-260.3436"/>
</g>
<!-- Node31 -->
<g id="node32" class="node">
<title>Node31</title>
<polygon fill="#ffffff" stroke="#bfbfbf" points="1042.5,-235.5 1042.5,-254.5 1147.5,-254.5 1147.5,-235.5 1042.5,-235.5"/>
<text text-anchor="middle" x="1095" y="-242.5" font-family="Helvetica,sans-Serif" font-size="10.00" fill="#000000">odp/api/abi/time.h</text>
</g>
<!-- Node30&#45;&gt;Node31 -->
<g id="edge60" class="edge">
<title>Node30&#45;&gt;Node31</title>
<path fill="none" stroke="#191970" d="M1082.3438,-296.8906C1084.4449,-288.276 1087.5925,-275.3708 1090.223,-264.5858"/>
<polygon fill="#191970" stroke="#191970" points="1093.6539,-265.2894 1092.6232,-254.7449 1086.8532,-263.6307 1093.6539,-265.2894"/>
</g>
<!-- Node32 -->
<g id="node33" class="node">
<title>Node32</title>
<g id="a_node33"><a xlink:href="api_2spec_2time_8h.html" target="_top" xlink:title="ODP time. ">
<polygon fill="#ffffff" stroke="#000000" points="919.5,-56.5 919.5,-75.5 1032.5,-75.5 1032.5,-56.5 919.5,-56.5"/>
<text text-anchor="middle" x="976" y="-63.5" font-family="Helvetica,sans-Serif" font-size="10.00" fill="#000000">odp/api/spec/time.h</text>
</a>
</g>
</g>
<!-- Node30&#45;&gt;Node32 -->
<g id="edge61" class="edge">
<title>Node30&#45;&gt;Node32</title>
<path fill="none" stroke="#191970" d="M1068.7615,-296.949C1058.1323,-287.3513 1042.442,-271.6321 1033,-255 1000.7855,-198.254 984.9601,-121.3732 978.9647,-85.6954"/>
<polygon fill="#191970" stroke="#191970" points="982.3914,-84.9585 977.3552,-75.6372 975.4793,-86.0646 982.3914,-84.9585"/>
</g>
<!-- Node32&#45;&gt;Node4 -->
<g id="edge62" class="edge">
<title>Node32&#45;&gt;Node4</title>
<path fill="none" stroke="#191970" d="M919.3444,-60.344C903.9872,-58.8678 887.3613,-57.3214 872,-56 678.5682,-39.3606 450.1234,-22.876 336.9317,-14.9201"/>
<polygon fill="#191970" stroke="#191970" points="336.8927,-11.4088 326.6722,-14.2001 336.4026,-18.3916 336.8927,-11.4088"/>
</g>
<!-- Node32&#45;&gt;Node9 -->
<g id="edge63" class="edge">
<title>Node32&#45;&gt;Node9</title>
<path fill="none" stroke="#191970" d="M1013.3036,-56.3733C1050.1685,-46.8598 1106.666,-32.2797 1146.4506,-22.0127"/>
<polygon fill="#191970" stroke="#191970" points="1147.375,-25.3889 1156.1831,-19.5011 1145.6258,-18.611 1147.375,-25.3889"/>
</g>
<!-- Node33&#45;&gt;Node4 -->
<g id="edge67" class="edge">
<title>Node33&#45;&gt;Node4</title>
<path fill="none" stroke="#191970" d="M459.1668,-291.3317C403.9623,-251.0364 257.7255,-143.592 252,-132 235.5603,-98.7159 247.9613,-54.2679 257.5752,-29.2414"/>
<polygon fill="#191970" stroke="#191970" points="260.8928,-30.375 261.4326,-19.7939 254.4121,-27.729 260.8928,-30.375"/>
</g>
<!-- Node33&#45;&gt;Node9 -->
<g id="edge78" class="edge">
<title>Node33&#45;&gt;Node9</title>
<path fill="none" stroke="#191970" d="M529.4966,-291.4541C556.6168,-282.4031 590.4266,-269.7782 619,-255 653.7927,-237.0052 873.6304,-70.5463 910,-56 948.3242,-40.672 1055.7629,-25.8985 1126.6838,-17.3939"/>
<polygon fill="#191970" stroke="#191970" points="1127.352,-20.8393 1136.8699,-16.1853 1126.5272,-13.888 1127.352,-20.8393"/>
</g>
<!-- Node33&#45;&gt;Node18 -->
<g id="edge77" class="edge">
<title>Node33&#45;&gt;Node18</title>
<path fill="none" stroke="#191970" d="M424.4107,-294.2024C375.15,-283.3048 303.7104,-267.5007 255.188,-256.7664"/>
<polygon fill="#191970" stroke="#191970" points="255.7179,-253.2991 245.1979,-254.5564 254.2058,-260.1338 255.7179,-253.2991"/>
</g>
<!-- Node34 -->
<g id="node35" class="node">
<title>Node34</title>
<g id="a_node35"><a xlink:href="api_2schedule__types_8h.html" target="_top" xlink:title="ODP schedule. ">
<polygon fill="#ffffff" stroke="#000000" points="470,-235.5 470,-254.5 610,-254.5 610,-235.5 470,-235.5"/>
<text text-anchor="middle" x="540" y="-242.5" font-family="Helvetica,sans-Serif" font-size="10.00" fill="#000000">odp/api/schedule_types.h</text>
</a>
</g>
</g>
<!-- Node33&#45;&gt;Node34 -->
<g id="edge68" class="edge">
<title>Node33&#45;&gt;Node34</title>
<path fill="none" stroke="#191970" d="M494.8315,-291.2977C503.4204,-282.4941 514.2602,-271.3833 523.1679,-262.2529"/>
<polygon fill="#191970" stroke="#191970" points="525.9152,-264.4489 530.3932,-254.8469 520.9047,-259.5606 525.9152,-264.4489"/>
</g>
<!-- Node35 -->
<g id="node36" class="node">
<title>Node35</title>
<polygon fill="#ffffff" stroke="#bfbfbf" points="407.5,-168.5 407.5,-198.5 524.5,-198.5 524.5,-168.5 407.5,-168.5"/>
<text text-anchor="start" x="415.5" y="-186.5" font-family="Helvetica,sans-Serif" font-size="10.00" fill="#000000">odp/api/abi/schedule</text>
<text text-anchor="middle" x="466" y="-175.5" font-family="Helvetica,sans-Serif" font-size="10.00" fill="#000000">_types.h</text>
</g>
<!-- Node34&#45;&gt;Node35 -->
<g id="edge69" class="edge">
<title>Node34&#45;&gt;Node35</title>
<path fill="none" stroke="#191970" d="M528.4375,-235.3906C518.7007,-227.2986 504.4087,-215.4207 491.9547,-205.0705"/>
<polygon fill="#191970" stroke="#191970" points="494.0303,-202.2445 484.1024,-198.5446 489.5561,-207.628 494.0303,-202.2445"/>
</g>
<!-- Node36 -->
<g id="node37" class="node">
<title>Node36</title>
<g id="a_node37"><a xlink:href="api_2spec_2schedule__types_8h.html" target="_top" xlink:title="ODP schedule types. ">
<polygon fill="#ffffff" stroke="#000000" points="542.5,-168.5 542.5,-198.5 667.5,-198.5 667.5,-168.5 542.5,-168.5"/>
<text text-anchor="start" x="550.5" y="-186.5" font-family="Helvetica,sans-Serif" font-size="10.00" fill="#000000">odp/api/spec/schedule</text>
<text text-anchor="middle" x="605" y="-175.5" font-family="Helvetica,sans-Serif" font-size="10.00" fill="#000000">_types.h</text>
</a>
</g>
</g>
<!-- Node34&#45;&gt;Node36 -->
<g id="edge70" class="edge">
<title>Node34&#45;&gt;Node36</title>
<path fill="none" stroke="#191970" d="M550.1563,-235.3906C558.5459,-227.4527 570.7859,-215.8718 581.5751,-205.6635"/>
<polygon fill="#191970" stroke="#191970" points="584.2407,-207.9598 589.0992,-198.5446 579.4298,-202.875 584.2407,-207.9598"/>
</g>
<!-- Node36&#45;&gt;Node4 -->
<g id="edge71" class="edge">
<title>Node36&#45;&gt;Node4</title>
<path fill="none" stroke="#191970" d="M608.9284,-168.1157C614.7326,-141.401 622.0233,-86.3875 593,-56 575.5804,-37.7617 427.6056,-22.8622 336.7871,-15.3288"/>
<polygon fill="#191970" stroke="#191970" points="336.8045,-11.8186 326.5522,-14.4909 336.2333,-18.7953 336.8045,-11.8186"/>
</g>
<!-- Node36&#45;&gt;Node9 -->
<g id="edge76" class="edge">
<title>Node36&#45;&gt;Node9</title>
<path fill="none" stroke="#191970" d="M612.0692,-168.4257C625.9969,-140.6457 659.8688,-81.8538 708,-56 744.0099,-36.6571 1002.1984,-20.2966 1126.4802,-13.4442"/>
<polygon fill="#191970" stroke="#191970" points="1126.8424,-16.9297 1136.6364,-12.889 1126.4602,-9.9401 1126.8424,-16.9297"/>
</g>
<!-- Node36&#45;&gt;Node37 -->
<g id="edge72" class="edge">
<title>Node36&#45;&gt;Node37</title>
<path fill="none" stroke="#191970" d="M584.2359,-168.2977C571.6042,-159.0495 555.4947,-147.2551 542.6969,-137.8853"/>
<polygon fill="#191970" stroke="#191970" points="544.5857,-134.9303 534.4495,-131.8469 540.4505,-140.5784 544.5857,-134.9303"/>
</g>
<!-- Node38 -->
<g id="node39" class="node">
<title>Node38</title>
<g id="a_node39"><a xlink:href="spec_2support_8h.html" target="_top" xlink:title="ODP support API. ">
<polygon fill="#ffffff" stroke="#000000" points="457.5,-56.5 457.5,-75.5 584.5,-75.5 584.5,-56.5 457.5,-56.5"/>
<text text-anchor="middle" x="521" y="-63.5" font-family="Helvetica,sans-Serif" font-size="10.00" fill="#000000">odp/api/spec/support.h</text>
</a>
</g>
</g>
<!-- Node37&#45;&gt;Node38 -->
<g id="edge73" class="edge">
<title>Node37&#45;&gt;Node38</title>
<path fill="none" stroke="#191970" d="M521,-112.2455C521,-104.9382 521,-94.6944 521,-85.7046"/>
<polygon fill="#191970" stroke="#191970" points="524.5001,-85.6426 521,-75.6427 517.5001,-85.6427 524.5001,-85.6426"/>
</g>
<!-- Node38&#45;&gt;Node4 -->
<g id="edge74" class="edge">
<title>Node38&#45;&gt;Node4</title>
<path fill="none" stroke="#191970" d="M477.4537,-56.4369C433.7207,-46.8328 366.2655,-32.0191 319.3458,-21.7152"/>
<polygon fill="#191970" stroke="#191970" points="319.8847,-18.2502 309.3667,-19.5237 318.3832,-25.0872 319.8847,-18.2502"/>
</g>
<!-- Node38&#45;&gt;Node9 -->
<g id="edge75" class="edge">
<title>Node38&#45;&gt;Node9</title>
<path fill="none" stroke="#191970" d="M584.5129,-60.485C601.5577,-59.0158 619.9801,-57.4377 637,-56 813.9997,-41.0488 1022.7403,-23.9119 1126.9087,-15.3938"/>
<polygon fill="#191970" stroke="#191970" points="1127.2806,-18.8752 1136.9621,-14.5719 1126.7102,-11.8985 1127.2806,-18.8752"/>
</g>
<!-- Node40 -->
<g id="node41" class="node">
<title>Node40</title>
<g id="a_node41"><a xlink:href="spec_2reassembly_8h.html" target="_top" xlink:title="ODP REASSEMBLY API. ">
<polygon fill="#ffffff" stroke="#000000" points="717,-56.5 717,-75.5 863,-75.5 863,-56.5 717,-56.5"/>
<text text-anchor="middle" x="790" y="-63.5" font-family="Helvetica,sans-Serif" font-size="10.00" fill="#000000">odp/api/spec/reassembly.h</text>
</a>
</g>
</g>
<!-- Node39&#45;&gt;Node40 -->
<g id="edge83" class="edge">
<title>Node39&#45;&gt;Node40</title>
<path fill="none" stroke="#191970" d="M667.6974,-761.4745C605.6803,-742.3577 475.381,-693.1417 411,-602 348.201,-513.0979 322.3594,-443.2763 390,-358 433.6807,-302.9306 481.6333,-354.4197 544,-322 657.0762,-263.2202 747.9641,-132.4019 778.7465,-84.2485"/>
<polygon fill="#191970" stroke="#191970" points="781.8735,-85.8509 784.2403,-75.5238 775.9501,-82.1209 781.8735,-85.8509"/>
</g>
<!-- Node40&#45;&gt;Node4 -->
<g id="edge84" class="edge">
<title>Node40&#45;&gt;Node4</title>
<path fill="none" stroke="#191970" d="M716.9044,-57.5469C712.1996,-57.0187 707.5337,-56.4992 703,-56 573.8945,-41.7854 423.2233,-26.1315 336.7782,-17.2402"/>
<polygon fill="#191970" stroke="#191970" points="337.123,-13.7573 326.8175,-16.2164 336.4072,-20.7206 337.123,-13.7573"/>
</g>
<!-- Node40&#45;&gt;Node9 -->
<g id="edge85" class="edge">
<title>Node40&#45;&gt;Node9</title>
<path fill="none" stroke="#191970" d="M858.8203,-56.4369C933.7537,-46.0243 1052.7552,-29.4881 1126.6876,-19.2146"/>
<polygon fill="#191970" stroke="#191970" points="1127.3883,-22.651 1136.8114,-17.8078 1126.4248,-15.7176 1127.3883,-22.651"/>
</g>
<!-- Node42 -->
<g id="node43" class="node">
<title>Node42</title>
<g id="a_node43"><a xlink:href="spec_2threshold_8h.html" target="_top" xlink:title="ODP threshold descriptor. ">
<polygon fill="#ffffff" stroke="#000000" points="1383,-297 1383,-316 1519,-316 1519,-297 1383,-297"/>
<text text-anchor="middle" x="1451" y="-304" font-family="Helvetica,sans-Serif" font-size="10.00" fill="#000000">odp/api/spec/threshold.h</text>
</a>
</g>
</g>
<!-- Node41&#45;&gt;Node42 -->
<g id="edge91" class="edge">
<title>Node41&#45;&gt;Node42</title>
<path fill="none" stroke="#191970" d="M1517.5305,-873.1901C1555.4847,-816.0113 1746,-526.6715 1746,-480 1746,-480 1746,-480 1746,-424 1746,-393.4754 1749.5932,-378.5256 1727,-358 1698.5877,-332.1878 1600.6618,-318.6431 1529.5138,-312.0415"/>
<polygon fill="#191970" stroke="#191970" points="1529.4953,-308.5258 1519.2223,-311.1172 1528.8691,-315.4977 1529.4953,-308.5258"/>
</g>
<!-- Node42&#45;&gt;Node1 -->
<g id="edge93" class="edge">
<title>Node42&#45;&gt;Node1</title>
<path fill="none" stroke="#191970" d="M1432.25,-296.8906C1412.524,-286.7811 1381.2688,-270.7628 1358.7,-259.1962"/>
<polygon fill="#191970" stroke="#191970" points="1360.114,-255.9881 1349.6183,-254.5419 1356.9213,-262.2176 1360.114,-255.9881"/>
</g>
<!-- Node42&#45;&gt;Node4 -->
<g id="edge92" class="edge">
<title>Node42&#45;&gt;Node4</title>
<path fill="none" stroke="#191970" d="M1382.9766,-303.1097C1160.19,-291.9873 466.346,-257.1932 461,-255 415.0971,-236.1685 294.4225,-92.7792 285,-76 276.9723,-61.7047 272.0869,-43.7256 269.2841,-30.1439"/>
<polygon fill="#191970" stroke="#191970" points="272.6583,-29.1427 267.3964,-19.9469 265.7753,-30.417 272.6583,-29.1427"/>
</g>
<!-- Node42&#45;&gt;Node9 -->
<g id="edge94" class="edge">
<title>Node42&#45;&gt;Node9</title>
<path fill="none" stroke="#191970" d="M1459.31,-296.7189C1475.3475,-276.8065 1509,-229.5379 1509,-183.5 1509,-183.5 1509,-183.5 1509,-122 1509,-90.7875 1509.0897,-75.8472 1485,-56 1451.5214,-28.4174 1334.9288,-17.2043 1259.589,-12.7692"/>
<polygon fill="#191970" stroke="#191970" points="1259.4257,-9.2546 1249.2449,-12.1874 1259.0326,-16.2435 1259.4257,-9.2546"/>
</g>
</g>
</svg>
