<?xml version="1.0" encoding="UTF-8" standalone="no"?>
<!DOCTYPE svg PUBLIC "-//W3C//DTD SVG 1.1//EN"
 "http://www.w3.org/Graphics/SVG/1.1/DTD/svg11.dtd">
<!-- Generated by graphviz version 2.40.1 (20161225.0304)
 -->
<!-- Title: packet_io.h Pages: 1 -->
<svg width="721pt" height="924pt"
 viewBox="0.00 0.00 720.78 924.00" xmlns="http://www.w3.org/2000/svg" xmlns:xlink="http://www.w3.org/1999/xlink">
<g id="graph0" class="graph" transform="scale(1 1) rotate(0) translate(4 920)">
<title>packet_io.h</title>
<polygon fill="#ffffff" stroke="transparent" points="-4,4 -4,-920 716.7787,-920 716.7787,4 -4,4"/>
<!-- Node10 -->
<g id="node1" class="node">
<title>Node10</title>
<polygon fill="#bfbfbf" stroke="#000000" points="275.2787,-896.5 275.2787,-915.5 348.2787,-915.5 348.2787,-896.5 275.2787,-896.5"/>
<text text-anchor="middle" x="311.7787" y="-903.5" font-family="Helvetica,sans-Serif" font-size="10.00" fill="#000000">packet_io.h</text>
</g>
<!-- Node11 -->
<g id="node2" class="node">
<title>Node11</title>
<g id="a_node2"><a xlink:href="arch_2arm32-linux_2odp_2api_2abi_2packet__io_8h_source.html" target="_top" xlink:title="packet_io.h">
<polygon fill="#ffffff" stroke="#000000" points="2.2787,-840.5 2.2787,-859.5 75.2787,-859.5 75.2787,-840.5 2.2787,-840.5"/>
<text text-anchor="middle" x="38.7787" y="-847.5" font-family="Helvetica,sans-Serif" font-size="10.00" fill="#000000">packet_io.h</text>
</a>
</g>
</g>
<!-- Node10&#45;&gt;Node11 -->
<g id="edge1" class="edge">
<title>Node10&#45;&gt;Node11</title>
<path fill="none" stroke="#191970" d="M265.0104,-896.8425C218.883,-887.7449 146.3959,-873.2728 83.7787,-860 81.1168,-859.4358 78.3682,-858.845 75.6028,-858.2447"/>
<polygon fill="#191970" stroke="#191970" points="264.5204,-900.3132 275.0083,-898.8116 265.8732,-893.4451 264.5204,-900.3132"/>
</g>
<!-- Node12 -->
<g id="node3" class="node">
<title>Node12</title>
<g id="a_node3"><a xlink:href="arch_2arm64-linux_2odp_2api_2abi_2packet__io_8h_source.html" target="_top" xlink:title="packet_io.h">
<polygon fill="#ffffff" stroke="#000000" points="93.2787,-840.5 93.2787,-859.5 166.2787,-859.5 166.2787,-840.5 93.2787,-840.5"/>
<text text-anchor="middle" x="129.7787" y="-847.5" font-family="Helvetica,sans-Serif" font-size="10.00" fill="#000000">packet_io.h</text>
</a>
</g>
</g>
<!-- Node10&#45;&gt;Node12 -->
<g id="edge2" class="edge">
<title>Node10&#45;&gt;Node12</title>
<path fill="none" stroke="#191970" d="M270.58,-893.3235C237.2028,-883.0536 190.9087,-868.8093 160.6573,-859.5011"/>
<polygon fill="#191970" stroke="#191970" points="269.9046,-896.7776 280.4917,-896.3733 271.9633,-890.0871 269.9046,-896.7776"/>
</g>
<!-- Node13 -->
<g id="node4" class="node">
<title>Node13</title>
<g id="a_node4"><a xlink:href="arch_2default-linux_2odp_2api_2abi_2packet__io_8h_source.html" target="_top" xlink:title="packet_io.h">
<polygon fill="#ffffff" stroke="#000000" points="184.2787,-840.5 184.2787,-859.5 257.2787,-859.5 257.2787,-840.5 184.2787,-840.5"/>
<text text-anchor="middle" x="220.7787" y="-847.5" font-family="Helvetica,sans-Serif" font-size="10.00" fill="#000000">packet_io.h</text>
</a>
</g>
</g>
<!-- Node10&#45;&gt;Node13 -->
<g id="edge3" class="edge">
<title>Node10&#45;&gt;Node13</title>
<path fill="none" stroke="#191970" d="M287.0283,-890.769C270.9028,-880.8456 250.3527,-868.1994 236.448,-859.6427"/>
<polygon fill="#191970" stroke="#191970" points="285.5767,-893.9853 295.9277,-896.2455 289.2454,-888.0237 285.5767,-893.9853"/>
</g>
<!-- Node14 -->
<g id="node5" class="node">
<title>Node14</title>
<g id="a_node5"><a xlink:href="arch_2mips64-linux_2odp_2api_2abi_2packet__io_8h_source.html" target="_top" xlink:title="packet_io.h">
<polygon fill="#ffffff" stroke="#000000" points="275.2787,-840.5 275.2787,-859.5 348.2787,-859.5 348.2787,-840.5 275.2787,-840.5"/>
<text text-anchor="middle" x="311.7787" y="-847.5" font-family="Helvetica,sans-Serif" font-size="10.00" fill="#000000">packet_io.h</text>
</a>
</g>
</g>
<!-- Node10&#45;&gt;Node14 -->
<g id="edge4" class="edge">
<title>Node10&#45;&gt;Node14</title>
<path fill="none" stroke="#191970" d="M311.7787,-886.1575C311.7787,-877.155 311.7787,-866.9199 311.7787,-859.6427"/>
<polygon fill="#191970" stroke="#191970" points="308.2788,-886.2455 311.7787,-896.2455 315.2788,-886.2456 308.2788,-886.2455"/>
</g>
<!-- Node15 -->
<g id="node6" class="node">
<title>Node15</title>
<g id="a_node6"><a xlink:href="arch_2power64-linux_2odp_2api_2abi_2packet__io_8h_source.html" target="_top" xlink:title="packet_io.h">
<polygon fill="#ffffff" stroke="#000000" points="366.2787,-840.5 366.2787,-859.5 439.2787,-859.5 439.2787,-840.5 366.2787,-840.5"/>
<text text-anchor="middle" x="402.7787" y="-847.5" font-family="Helvetica,sans-Serif" font-size="10.00" fill="#000000">packet_io.h</text>
</a>
</g>
</g>
<!-- Node10&#45;&gt;Node15 -->
<g id="edge5" class="edge">
<title>Node10&#45;&gt;Node15</title>
<path fill="none" stroke="#191970" d="M336.5291,-890.769C352.6545,-880.8456 373.2047,-868.1994 387.1093,-859.6427"/>
<polygon fill="#191970" stroke="#191970" points="334.3119,-888.0237 327.6297,-896.2455 337.9806,-893.9853 334.3119,-888.0237"/>
</g>
<!-- Node16 -->
<g id="node7" class="node">
<title>Node16</title>
<g id="a_node7"><a xlink:href="arch_2x86__32-linux_2odp_2api_2abi_2packet__io_8h_source.html" target="_top" xlink:title="packet_io.h">
<polygon fill="#ffffff" stroke="#000000" points="457.2787,-840.5 457.2787,-859.5 530.2787,-859.5 530.2787,-840.5 457.2787,-840.5"/>
<text text-anchor="middle" x="493.7787" y="-847.5" font-family="Helvetica,sans-Serif" font-size="10.00" fill="#000000">packet_io.h</text>
</a>
</g>
</g>
<!-- Node10&#45;&gt;Node16 -->
<g id="edge6" class="edge">
<title>Node10&#45;&gt;Node16</title>
<path fill="none" stroke="#191970" d="M352.9773,-893.3235C386.3545,-883.0536 432.6486,-868.8093 462.9,-859.5011"/>
<polygon fill="#191970" stroke="#191970" points="351.594,-890.0871 343.0656,-896.3733 353.6527,-896.7776 351.594,-890.0871"/>
</g>
<!-- Node17 -->
<g id="node8" class="node">
<title>Node17</title>
<g id="a_node8"><a xlink:href="arch_2x86__64-linux_2odp_2api_2abi_2packet__io_8h_source.html" target="_top" xlink:title="packet_io.h">
<polygon fill="#ffffff" stroke="#000000" points="548.2787,-840.5 548.2787,-859.5 621.2787,-859.5 621.2787,-840.5 548.2787,-840.5"/>
<text text-anchor="middle" x="584.7787" y="-847.5" font-family="Helvetica,sans-Serif" font-size="10.00" fill="#000000">packet_io.h</text>
</a>
</g>
</g>
<!-- Node10&#45;&gt;Node17 -->
<g id="edge7" class="edge">
<title>Node10&#45;&gt;Node17</title>
<path fill="none" stroke="#191970" d="M358.5469,-896.8425C404.6743,-887.7449 477.1614,-873.2728 539.7787,-860 542.4406,-859.4358 545.1892,-858.845 547.9545,-858.2447"/>
<polygon fill="#191970" stroke="#191970" points="357.6842,-893.4451 348.549,-898.8116 359.0369,-900.3132 357.6842,-893.4451"/>
</g>
<!-- Node18 -->
<g id="node9" class="node">
<title>Node18</title>
<g id="a_node9"><a xlink:href="api_2classification_8h.html" target="_top" xlink:title="ODP classification descriptor. ">
<polygon fill="#ffffff" stroke="#000000" points="595.2787,-224.5 595.2787,-243.5 684.2787,-243.5 684.2787,-224.5 595.2787,-224.5"/>
<text text-anchor="middle" x="639.7787" y="-231.5" font-family="Helvetica,sans-Serif" font-size="10.00" fill="#000000">classification.h</text>
</a>
</g>
</g>
<!-- Node17&#45;&gt;Node18 -->
<g id="edge8" class="edge">
<title>Node17&#45;&gt;Node18</title>
<path fill="none" stroke="#191970" d="M620.8437,-836.5006C658.6997,-819.7138 712.7787,-787.1344 712.7787,-738 712.7787,-738 712.7787,-738 712.7787,-346 712.7787,-315.4754 710.3217,-305.6531 693.7787,-280 684.034,-264.8891 667.8405,-252.0523 655.7234,-243.8106"/>
<polygon fill="#191970" stroke="#191970" points="619.4431,-833.2928 611.6117,-840.4286 622.1837,-839.7341 619.4431,-833.2928"/>
</g>
<!-- Node23 -->
<g id="node14" class="node">
<title>Node23</title>
<g id="a_node14"><a xlink:href="api_2packet_8h.html" target="_top" xlink:title="ODP packet descriptor. ">
<polygon fill="#ffffff" stroke="#000000" points="186.2787,-784.5 186.2787,-803.5 245.2787,-803.5 245.2787,-784.5 186.2787,-784.5"/>
<text text-anchor="middle" x="215.7787" y="-791.5" font-family="Helvetica,sans-Serif" font-size="10.00" fill="#000000">packet.h</text>
</a>
</g>
</g>
<!-- Node17&#45;&gt;Node23 -->
<g id="edge14" class="edge">
<title>Node17&#45;&gt;Node23</title>
<path fill="none" stroke="#191970" d="M538.0955,-839.7918C424.6265,-819.4761 300.9086,-804.0087 245.3865,-797.4227"/>
<polygon fill="#191970" stroke="#191970" points="537.5257,-843.2455 547.9889,-841.5804 538.7711,-836.3572 537.5257,-843.2455"/>
</g>
<!-- Node33 -->
<g id="node24" class="node">
<title>Node33</title>
<g id="a_node24"><a xlink:href="api_2packet__io_8h.html" target="_top" xlink:title="ODP Packet IO. ">
<polygon fill="#ffffff" stroke="#000000" points="495.2787,-336.5 495.2787,-355.5 568.2787,-355.5 568.2787,-336.5 495.2787,-336.5"/>
<text text-anchor="middle" x="531.7787" y="-343.5" font-family="Helvetica,sans-Serif" font-size="10.00" fill="#000000">packet_io.h</text>
</a>
</g>
</g>
<!-- Node17&#45;&gt;Node33 -->
<g id="edge51" class="edge">
<title>Node17&#45;&gt;Node33</title>
<path fill="none" stroke="#191970" d="M584.7787,-830.1952C584.7787,-807.8128 584.7787,-770.2884 584.7787,-738 584.7787,-738 584.7787,-738 584.7787,-458 584.7787,-416.6976 554.9662,-374.3488 540.0599,-355.7558"/>
<polygon fill="#191970" stroke="#191970" points="581.2788,-830.4116 584.7787,-840.4116 588.2788,-830.4117 581.2788,-830.4116"/>
</g>
<!-- Node19 -->
<g id="node10" class="node">
<title>Node19</title>
<g id="a_node10"><a xlink:href="api_2spec_2ipsec_8h.html" target="_top" xlink:title="ODP IPSEC API. ">
<polygon fill="#ffffff" stroke="#000000" points="503.2787,-168.5 503.2787,-187.5 554.2787,-187.5 554.2787,-168.5 503.2787,-168.5"/>
<text text-anchor="middle" x="528.7787" y="-175.5" font-family="Helvetica,sans-Serif" font-size="10.00" fill="#000000">ipsec.h</text>
</a>
</g>
</g>
<!-- Node18&#45;&gt;Node19 -->
<g id="edge9" class="edge">
<title>Node18&#45;&gt;Node19</title>
<path fill="none" stroke="#191970" d="M611.7053,-219.8368C591.6402,-209.7139 565.1865,-196.3679 547.6112,-187.5011"/>
<polygon fill="#191970" stroke="#191970" points="610.1924,-222.9938 620.6971,-224.3733 613.3455,-216.7441 610.1924,-222.9938"/>
</g>
<!-- Node21 -->
<g id="node12" class="node">
<title>Node21</title>
<g id="a_node12"><a xlink:href="odp__api_8h.html" target="_top" xlink:title="The OpenDataPlane API. ">
<polygon fill="#ffffff" stroke="#000000" points="280.7787,-56.5 280.7787,-75.5 344.7787,-75.5 344.7787,-56.5 280.7787,-56.5"/>
<text text-anchor="middle" x="312.7787" y="-63.5" font-family="Helvetica,sans-Serif" font-size="10.00" fill="#000000">odp_api.h</text>
</a>
</g>
</g>
<!-- Node18&#45;&gt;Node21 -->
<g id="edge13" class="edge">
<title>Node18&#45;&gt;Node21</title>
<path fill="none" stroke="#191970" d="M631.1733,-215.2287C617.5854,-187.8463 588.4612,-137.4486 547.7787,-112 514.2958,-91.055 401.0661,-75.8615 344.9076,-69.4195"/>
<polygon fill="#191970" stroke="#191970" points="628.1358,-216.9892 635.612,-224.4963 634.449,-213.9655 628.1358,-216.9892"/>
</g>
<!-- Node20 -->
<g id="node11" class="node">
<title>Node20</title>
<g id="a_node11"><a xlink:href="api_2ipsec_8h.html" target="_top" xlink:title="ODP IPSEC API &#45; platform specific header. ">
<polygon fill="#ffffff" stroke="#000000" points="487.2787,-112.5 487.2787,-131.5 538.2787,-131.5 538.2787,-112.5 487.2787,-112.5"/>
<text text-anchor="middle" x="512.7787" y="-119.5" font-family="Helvetica,sans-Serif" font-size="10.00" fill="#000000">ipsec.h</text>
</a>
</g>
</g>
<!-- Node19&#45;&gt;Node20 -->
<g id="edge10" class="edge">
<title>Node19&#45;&gt;Node20</title>
<path fill="none" stroke="#191970" d="M523.194,-158.4538C520.6016,-149.3803 517.6358,-138.9998 515.5337,-131.6427"/>
<polygon fill="#191970" stroke="#191970" points="519.8791,-159.5919 525.9917,-168.2455 526.6097,-157.6688 519.8791,-159.5919"/>
</g>
<!-- Node20&#45;&gt;Node21 -->
<g id="edge11" class="edge">
<title>Node20&#45;&gt;Node21</title>
<path fill="none" stroke="#191970" d="M477.0584,-111.9983C439.5696,-101.5015 381.1625,-85.1475 345.0301,-75.0304"/>
<polygon fill="#191970" stroke="#191970" points="476.4682,-115.4676 487.0416,-114.7936 478.3557,-108.7269 476.4682,-115.4676"/>
</g>
<!-- Node22 -->
<g id="node13" class="node">
<title>Node22</title>
<g id="a_node13"><a xlink:href="odp_8h.html" target="_top" xlink:title="WARNING: THIS FILE IS DEPRECATED AND WILL BE REMOVED!!! ODP APPLICATIONS SHOULD NOW INCLUDE odp_api...">
<polygon fill="#ffffff" stroke="#000000" points="290.7787,-.5 290.7787,-19.5 334.7787,-19.5 334.7787,-.5 290.7787,-.5"/>
<text text-anchor="middle" x="312.7787" y="-7.5" font-family="Helvetica,sans-Serif" font-size="10.00" fill="#000000">odp.h</text>
</a>
</g>
</g>
<!-- Node21&#45;&gt;Node22 -->
<g id="edge12" class="edge">
<title>Node21&#45;&gt;Node22</title>
<path fill="none" stroke="#191970" d="M312.7787,-46.1575C312.7787,-37.155 312.7787,-26.9199 312.7787,-19.6427"/>
<polygon fill="#191970" stroke="#191970" points="309.2788,-46.2455 312.7787,-56.2455 316.2788,-46.2456 309.2788,-46.2455"/>
</g>
<!-- Node23&#45;&gt;Node21 -->
<g id="edge50" class="edge">
<title>Node23&#45;&gt;Node21</title>
<path fill="none" stroke="#191970" d="M175.9383,-789.4241C125.3406,-782.8277 41.9291,-769.0744 19.7787,-748 -2.336,-726.9597 .7787,-712.5246 .7787,-682 .7787,-682 .7787,-682 .7787,-178 .7787,-135.5631 32.0424,-131.413 69.7787,-112 106.1458,-93.2913 222.9485,-76.9541 280.3379,-69.8188"/>
<polygon fill="#191970" stroke="#191970" points="175.5373,-792.9011 185.8979,-790.6855 176.417,-785.9566 175.5373,-792.9011"/>
</g>
<!-- Node24 -->
<g id="node15" class="node">
<title>Node24</title>
<g id="a_node15"><a xlink:href="api_2spec_2comp_8h.html" target="_top" xlink:title="ODP Compression. ">
<polygon fill="#ffffff" stroke="#000000" points="29.2787,-728.5 29.2787,-747.5 82.2787,-747.5 82.2787,-728.5 29.2787,-728.5"/>
<text text-anchor="middle" x="55.7787" y="-735.5" font-family="Helvetica,sans-Serif" font-size="10.00" fill="#000000">comp.h</text>
</a>
</g>
</g>
<!-- Node23&#45;&gt;Node24 -->
<g id="edge15" class="edge">
<title>Node23&#45;&gt;Node24</title>
<path fill="none" stroke="#191970" d="M178.7385,-781.036C149.2641,-770.7199 108.729,-756.5326 82.3931,-747.315"/>
<polygon fill="#191970" stroke="#191970" points="177.6788,-784.3732 188.2737,-784.3733 179.9913,-777.7662 177.6788,-784.3732"/>
</g>
<!-- Node26 -->
<g id="node17" class="node">
<title>Node26</title>
<g id="a_node17"><a xlink:href="api_2spec_2crypto_8h.html" target="_top" xlink:title="ODP crypto. ">
<polygon fill="#ffffff" stroke="#000000" points="154.7787,-560.5 154.7787,-579.5 210.7787,-579.5 210.7787,-560.5 154.7787,-560.5"/>
<text text-anchor="middle" x="182.7787" y="-567.5" font-family="Helvetica,sans-Serif" font-size="10.00" fill="#000000">crypto.h</text>
</a>
</g>
</g>
<!-- Node23&#45;&gt;Node26 -->
<g id="edge18" class="edge">
<title>Node23&#45;&gt;Node26</title>
<path fill="none" stroke="#191970" d="M212.8929,-774.4119C206.0784,-728.1557 189.1863,-613.494 184.1913,-579.5891"/>
<polygon fill="#191970" stroke="#191970" points="209.4405,-774.9919 214.3607,-784.375 216.3657,-773.9716 209.4405,-774.9919"/>
</g>
<!-- Node28 -->
<g id="node19" class="node">
<title>Node28</title>
<g id="a_node19"><a xlink:href="api_2spec_2event_8h.html" target="_top" xlink:title="ODP event. ">
<polygon fill="#ffffff" stroke="#000000" points="254.2787,-728.5 254.2787,-747.5 307.2787,-747.5 307.2787,-728.5 254.2787,-728.5"/>
<text text-anchor="middle" x="280.7787" y="-735.5" font-family="Helvetica,sans-Serif" font-size="10.00" fill="#000000">event.h</text>
</a>
</g>
</g>
<!-- Node23&#45;&gt;Node28 -->
<g id="edge22" class="edge">
<title>Node23&#45;&gt;Node28</title>
<path fill="none" stroke="#191970" d="M234.7621,-777.645C246.0665,-767.9058 260.0257,-755.8795 269.5863,-747.6427"/>
<polygon fill="#191970" stroke="#191970" points="232.3924,-775.0668 227.1008,-784.2455 236.9614,-780.3701 232.3924,-775.0668"/>
</g>
<!-- Node32 -->
<g id="node23" class="node">
<title>Node32</title>
<g id="a_node23"><a xlink:href="api_2spec_2packet__io_8h.html" target="_top" xlink:title="ODP Packet IO. ">
<polygon fill="#ffffff" stroke="#000000" points="406.2787,-392.5 406.2787,-411.5 479.2787,-411.5 479.2787,-392.5 406.2787,-392.5"/>
<text text-anchor="middle" x="442.7787" y="-399.5" font-family="Helvetica,sans-Serif" font-size="10.00" fill="#000000">packet_io.h</text>
</a>
</g>
</g>
<!-- Node23&#45;&gt;Node32 -->
<g id="edge49" class="edge">
<title>Node23&#45;&gt;Node32</title>
<path fill="none" stroke="#191970" d="M255.579,-789.0828C343.547,-777.1044 546.7787,-742.8465 546.7787,-682 546.7787,-682 546.7787,-682 546.7787,-570 546.7787,-500.3649 481.3835,-435.5284 454.3058,-411.6667"/>
<polygon fill="#191970" stroke="#191970" points="254.894,-785.643 245.444,-790.4334 255.8187,-792.5817 254.894,-785.643"/>
</g>
<!-- Node41 -->
<g id="node32" class="node">
<title>Node41</title>
<g id="a_node32"><a xlink:href="api_2spec_2packet__flags_8h.html" target="_top" xlink:title="ODP packet flags. ">
<polygon fill="#ffffff" stroke="#000000" points="100.2787,-728.5 100.2787,-747.5 187.2787,-747.5 187.2787,-728.5 100.2787,-728.5"/>
<text text-anchor="middle" x="143.7787" y="-735.5" font-family="Helvetica,sans-Serif" font-size="10.00" fill="#000000">packet_flags.h</text>
</a>
</g>
</g>
<!-- Node23&#45;&gt;Node41 -->
<g id="edge46" class="edge">
<title>Node23&#45;&gt;Node41</title>
<path fill="none" stroke="#191970" d="M195.1147,-777.928C182.5297,-768.1397 166.8694,-755.9595 156.1764,-747.6427"/>
<polygon fill="#191970" stroke="#191970" points="193.1949,-780.8688 203.2372,-784.2455 197.4925,-775.3434 193.1949,-780.8688"/>
</g>
<!-- Node25 -->
<g id="node16" class="node">
<title>Node25</title>
<g id="a_node16"><a xlink:href="api_2comp_8h.html" target="_top" xlink:title="ODP crypto. ">
<polygon fill="#ffffff" stroke="#000000" points="29.2787,-616.5 29.2787,-635.5 82.2787,-635.5 82.2787,-616.5 29.2787,-616.5"/>
<text text-anchor="middle" x="55.7787" y="-623.5" font-family="Helvetica,sans-Serif" font-size="10.00" fill="#000000">comp.h</text>
</a>
</g>
</g>
<!-- Node24&#45;&gt;Node25 -->
<g id="edge16" class="edge">
<title>Node24&#45;&gt;Node25</title>
<path fill="none" stroke="#191970" d="M55.7787,-718.2702C55.7787,-693.9985 55.7787,-653.7725 55.7787,-635.5249"/>
<polygon fill="#191970" stroke="#191970" points="52.2788,-718.4509 55.7787,-728.4509 59.2788,-718.451 52.2788,-718.4509"/>
</g>
<!-- Node25&#45;&gt;Node21 -->
<g id="edge17" class="edge">
<title>Node25&#45;&gt;Node21</title>
<path fill="none" stroke="#191970" d="M51.0266,-606.6376C45.9972,-584.416 38.7787,-546.808 38.7787,-514 38.7787,-514 38.7787,-514 38.7787,-178 38.7787,-129.8193 81.3374,-132.8384 124.7787,-112 176.131,-87.3668 241.8987,-75.1874 280.4804,-69.7692"/>
<polygon fill="#191970" stroke="#191970" points="47.6463,-607.5526 53.343,-616.4856 54.4603,-605.9498 47.6463,-607.5526"/>
</g>
<!-- Node27 -->
<g id="node18" class="node">
<title>Node27</title>
<g id="a_node18"><a xlink:href="api_2crypto_8h.html" target="_top" xlink:title="ODP crypto. ">
<polygon fill="#ffffff" stroke="#000000" points="219.7787,-392.5 219.7787,-411.5 275.7787,-411.5 275.7787,-392.5 219.7787,-392.5"/>
<text text-anchor="middle" x="247.7787" y="-399.5" font-family="Helvetica,sans-Serif" font-size="10.00" fill="#000000">crypto.h</text>
</a>
</g>
</g>
<!-- Node26&#45;&gt;Node27 -->
<g id="edge19" class="edge">
<title>Node26&#45;&gt;Node27</title>
<path fill="none" stroke="#191970" d="M173.0524,-551.2766C167.4156,-537.8958 162.3986,-519.5772 167.7787,-504 181.5175,-464.2209 217.8715,-428.131 236.4705,-411.566"/>
<polygon fill="#191970" stroke="#191970" points="169.9193,-552.8394 177.3217,-560.4193 176.2619,-549.8776 169.9193,-552.8394"/>
</g>
<!-- Node27&#45;&gt;Node19 -->
<g id="edge20" class="edge">
<title>Node27&#45;&gt;Node19</title>
<path fill="none" stroke="#191970" d="M268.54,-385.9248C301.069,-361.1902 366.567,-313.1872 426.7787,-280 461.9932,-260.5906 483.2373,-274.2051 509.7787,-244 523.9457,-227.8774 527.5837,-201.7978 528.4951,-187.734"/>
<polygon fill="#191970" stroke="#191970" points="266.0857,-383.3957 260.2712,-392.2525 270.3398,-388.9547 266.0857,-383.3957"/>
</g>
<!-- Node27&#45;&gt;Node21 -->
<g id="edge21" class="edge">
<title>Node27&#45;&gt;Node21</title>
<path fill="none" stroke="#191970" d="M244.6591,-382.2528C241.4069,-359.922 236.7787,-322.4438 236.7787,-290 236.7787,-290 236.7787,-290 236.7787,-178 236.7787,-133.3528 278.6427,-93.2845 300.2288,-75.5918"/>
<polygon fill="#191970" stroke="#191970" points="241.2444,-383.0797 246.2026,-392.4427 248.1654,-382.0313 241.2444,-383.0797"/>
</g>
<!-- Node29 -->
<g id="node20" class="node">
<title>Node29</title>
<g id="a_node20"><a xlink:href="api_2event_8h.html" target="_top" xlink:title="ODP event. ">
<polygon fill="#ffffff" stroke="#000000" points="264.2787,-672.5 264.2787,-691.5 317.2787,-691.5 317.2787,-672.5 264.2787,-672.5"/>
<text text-anchor="middle" x="290.7787" y="-679.5" font-family="Helvetica,sans-Serif" font-size="10.00" fill="#000000">event.h</text>
</a>
</g>
</g>
<!-- Node28&#45;&gt;Node29 -->
<g id="edge23" class="edge">
<title>Node28&#45;&gt;Node29</title>
<path fill="none" stroke="#191970" d="M284.322,-718.1575C285.9295,-709.155 287.7573,-698.9199 289.0568,-691.6427"/>
<polygon fill="#191970" stroke="#191970" points="280.833,-717.786 282.5205,-728.2455 287.724,-719.0166 280.833,-717.786"/>
</g>
<!-- Node29&#45;&gt;Node21 -->
<g id="edge45" class="edge">
<title>Node29&#45;&gt;Node21</title>
<path fill="none" stroke="#191970" d="M322.3274,-668.1372C369.0523,-645.6388 454.8805,-596.2885 489.7787,-524 515.2848,-471.1662 511.1118,-446.2513 488.7787,-392 453.2868,-305.7836 350.7787,-327.2359 350.7787,-234 350.7787,-234 350.7787,-234 350.7787,-178 350.7787,-138.1657 328.956,-94.3859 318.3857,-75.5166"/>
<polygon fill="#191970" stroke="#191970" points="320.8159,-664.9802 313.2565,-672.4036 323.7952,-671.3146 320.8159,-664.9802"/>
</g>
<!-- Node30 -->
<g id="node21" class="node">
<title>Node30</title>
<g id="a_node21"><a xlink:href="api_2spec_2queue_8h.html" target="_top" xlink:title="ODP queue. ">
<polygon fill="#ffffff" stroke="#000000" points="283.7787,-616.5 283.7787,-635.5 339.7787,-635.5 339.7787,-616.5 283.7787,-616.5"/>
<text text-anchor="middle" x="311.7787" y="-623.5" font-family="Helvetica,sans-Serif" font-size="10.00" fill="#000000">queue.h</text>
</a>
</g>
</g>
<!-- Node29&#45;&gt;Node30 -->
<g id="edge24" class="edge">
<title>Node29&#45;&gt;Node30</title>
<path fill="none" stroke="#191970" d="M297.9977,-662.7493C301.4263,-653.6064 305.3737,-643.0798 308.1627,-635.6427"/>
<polygon fill="#191970" stroke="#191970" points="294.6707,-661.6533 294.4366,-672.2455 301.225,-664.1112 294.6707,-661.6533"/>
</g>
<!-- Node39 -->
<g id="node30" class="node">
<title>Node39</title>
<g id="a_node30"><a xlink:href="api_2spec_2schedule_8h.html" target="_top" xlink:title="ODP schedule. ">
<polygon fill="#ffffff" stroke="#000000" points="177.2787,-504.5 177.2787,-523.5 246.2787,-523.5 246.2787,-504.5 177.2787,-504.5"/>
<text text-anchor="middle" x="211.7787" y="-511.5" font-family="Helvetica,sans-Serif" font-size="10.00" fill="#000000">schedule.h</text>
</a>
</g>
</g>
<!-- Node29&#45;&gt;Node39 -->
<g id="edge44" class="edge">
<title>Node29&#45;&gt;Node39</title>
<path fill="none" stroke="#191970" d="M281.9329,-663.1887C265.1395,-627.4762 229.1769,-550.9988 216.4001,-523.8279"/>
<polygon fill="#191970" stroke="#191970" points="278.8822,-664.9262 286.3049,-672.4862 285.2168,-661.9474 278.8822,-664.9262"/>
</g>
<!-- Node31 -->
<g id="node22" class="node">
<title>Node31</title>
<g id="a_node22"><a xlink:href="api_2queue_8h.html" target="_top" xlink:title="ODP queue. ">
<polygon fill="#ffffff" stroke="#000000" points="284.7787,-560.5 284.7787,-579.5 340.7787,-579.5 340.7787,-560.5 284.7787,-560.5"/>
<text text-anchor="middle" x="312.7787" y="-567.5" font-family="Helvetica,sans-Serif" font-size="10.00" fill="#000000">queue.h</text>
</a>
</g>
</g>
<!-- Node30&#45;&gt;Node31 -->
<g id="edge25" class="edge">
<title>Node30&#45;&gt;Node31</title>
<path fill="none" stroke="#191970" d="M312.133,-606.1575C312.2937,-597.155 312.4765,-586.9199 312.6065,-579.6427"/>
<polygon fill="#191970" stroke="#191970" points="308.632,-606.1846 311.9528,-616.2455 315.6309,-606.3097 308.632,-606.1846"/>
</g>
<!-- Node31&#45;&gt;Node21 -->
<g id="edge43" class="edge">
<title>Node31&#45;&gt;Node21</title>
<path fill="none" stroke="#191970" d="M312.7787,-550.1952C312.7787,-527.8128 312.7787,-490.2884 312.7787,-458 312.7787,-458 312.7787,-458 312.7787,-178 312.7787,-140.0833 312.7787,-94.9462 312.7787,-75.5884"/>
<polygon fill="#191970" stroke="#191970" points="309.2788,-550.4116 312.7787,-560.4116 316.2788,-550.4117 309.2788,-550.4116"/>
</g>
<!-- Node31&#45;&gt;Node27 -->
<g id="edge26" class="edge">
<title>Node31&#45;&gt;Node27</title>
<path fill="none" stroke="#191970" d="M305.3217,-550.7267C291.4295,-514.8207 262.0485,-438.8822 251.5811,-411.8279"/>
<polygon fill="#191970" stroke="#191970" points="302.2251,-552.4229 309.0977,-560.4862 308.7535,-549.897 302.2251,-552.4229"/>
</g>
<!-- Node31&#45;&gt;Node32 -->
<g id="edge27" class="edge">
<title>Node31&#45;&gt;Node32</title>
<path fill="none" stroke="#191970" d="M318.0417,-550.6895C325.8503,-524.8847 342.5808,-478.8358 369.7787,-448 383.9485,-431.9349 405.0659,-419.4643 420.9478,-411.5852"/>
<polygon fill="#191970" stroke="#191970" points="314.6477,-549.8274 315.2369,-560.4058 321.3731,-551.7688 314.6477,-549.8274"/>
</g>
<!-- Node37 -->
<g id="node28" class="node">
<title>Node37</title>
<g id="a_node28"><a xlink:href="spec_2packet__io__stats_8h.html" target="_top" xlink:title="ODP Packet IO statistics. ">
<polygon fill="#ffffff" stroke="#000000" points="378.7787,-504.5 378.7787,-523.5 480.7787,-523.5 480.7787,-504.5 378.7787,-504.5"/>
<text text-anchor="middle" x="429.7787" y="-511.5" font-family="Helvetica,sans-Serif" font-size="10.00" fill="#000000">packet_io_stats.h</text>
</a>
</g>
</g>
<!-- Node31&#45;&gt;Node37 -->
<g id="edge37" class="edge">
<title>Node31&#45;&gt;Node37</title>
<path fill="none" stroke="#191970" d="M342.0829,-555.9741C363.2667,-545.8348 391.319,-532.408 409.9281,-523.5011"/>
<polygon fill="#191970" stroke="#191970" points="340.4007,-552.8989 332.8917,-560.3733 343.4228,-559.2129 340.4007,-552.8989"/>
</g>
<!-- Node31&#45;&gt;Node39 -->
<g id="edge40" class="edge">
<title>Node31&#45;&gt;Node39</title>
<path fill="none" stroke="#191970" d="M286.3068,-555.3225C268.2662,-545.3198 244.891,-532.3593 229.1699,-523.6427"/>
<polygon fill="#191970" stroke="#191970" points="284.7429,-558.4574 295.1858,-560.2455 288.1373,-552.3354 284.7429,-558.4574"/>
</g>
<!-- Node32&#45;&gt;Node33 -->
<g id="edge28" class="edge">
<title>Node32&#45;&gt;Node33</title>
<path fill="none" stroke="#191970" d="M466.9851,-386.769C482.7561,-376.8456 502.8546,-364.1994 516.4537,-355.6427"/>
<polygon fill="#191970" stroke="#191970" points="464.8812,-383.9575 458.2813,-392.2455 468.6092,-389.8823 464.8812,-383.9575"/>
</g>
<!-- Node33&#45;&gt;Node19 -->
<g id="edge31" class="edge">
<title>Node33&#45;&gt;Node19</title>
<path fill="none" stroke="#191970" d="M536.3879,-326.4485C541.4305,-302.2855 548.1289,-259.9548 542.7787,-224 540.862,-211.1193 536.0825,-196.8554 532.641,-187.6772"/>
<polygon fill="#191970" stroke="#191970" points="532.9149,-325.9441 534.1711,-336.4642 539.7495,-327.4569 532.9149,-325.9441"/>
</g>
<!-- Node33&#45;&gt;Node21 -->
<g id="edge36" class="edge">
<title>Node33&#45;&gt;Node21</title>
<path fill="none" stroke="#191970" d="M486.0004,-333.109C466.1217,-325.8125 443.592,-315.0663 426.7787,-300 401.5708,-277.4115 388.7787,-267.8479 388.7787,-234 388.7787,-234 388.7787,-234 388.7787,-178 388.7787,-146.7875 382.3422,-137.802 364.7787,-112 354.7407,-97.2536 338.9292,-84.1832 327.3749,-75.7796"/>
<polygon fill="#191970" stroke="#191970" points="484.9146,-336.4369 495.5095,-336.4175 487.215,-329.8257 484.9146,-336.4369"/>
</g>
<!-- Node34 -->
<g id="node25" class="node">
<title>Node34</title>
<g id="a_node25"><a xlink:href="api_2spec_2classification_8h.html" target="_top" xlink:title="ODP classification descriptor. ">
<polygon fill="#ffffff" stroke="#000000" points="595.2787,-280.5 595.2787,-299.5 684.2787,-299.5 684.2787,-280.5 595.2787,-280.5"/>
<text text-anchor="middle" x="639.7787" y="-287.5" font-family="Helvetica,sans-Serif" font-size="10.00" fill="#000000">classification.h</text>
</a>
</g>
</g>
<!-- Node33&#45;&gt;Node34 -->
<g id="edge29" class="edge">
<title>Node33&#45;&gt;Node34</title>
<path fill="none" stroke="#191970" d="M559.5557,-331.5971C578.9168,-321.558 604.2172,-308.4393 621.1821,-299.6427"/>
<polygon fill="#191970" stroke="#191970" points="557.8573,-328.5352 550.5908,-336.2455 561.0795,-334.7495 557.8573,-328.5352"/>
</g>
<!-- Node35 -->
<g id="node26" class="node">
<title>Node35</title>
<g id="a_node26"><a xlink:href="api_2spec_2traffic__mngr_8h.html" target="_top" xlink:title="Copyright (c) 2015&#45;2018, Linaro Limited All rights reserved. ">
<polygon fill="#ffffff" stroke="#000000" points="435.7787,-280.5 435.7787,-299.5 519.7787,-299.5 519.7787,-280.5 435.7787,-280.5"/>
<text text-anchor="middle" x="477.7787" y="-287.5" font-family="Helvetica,sans-Serif" font-size="10.00" fill="#000000">traffic_mngr.h</text>
</a>
</g>
</g>
<!-- Node33&#45;&gt;Node35 -->
<g id="edge32" class="edge">
<title>Node33&#45;&gt;Node35</title>
<path fill="none" stroke="#191970" d="M515.1817,-328.7884C505.944,-319.2085 494.7883,-307.6396 487.077,-299.6427"/>
<polygon fill="#191970" stroke="#191970" points="512.9117,-331.4766 522.3726,-336.2455 517.9507,-326.6176 512.9117,-331.4766"/>
</g>
<!-- Node34&#45;&gt;Node18 -->
<g id="edge30" class="edge">
<title>Node34&#45;&gt;Node18</title>
<path fill="none" stroke="#191970" d="M639.7787,-270.1575C639.7787,-261.155 639.7787,-250.9199 639.7787,-243.6427"/>
<polygon fill="#191970" stroke="#191970" points="636.2788,-270.2455 639.7787,-280.2455 643.2788,-270.2456 636.2788,-270.2455"/>
</g>
<!-- Node36 -->
<g id="node27" class="node">
<title>Node36</title>
<g id="a_node27"><a xlink:href="api_2traffic__mngr_8h.html" target="_top" xlink:title="ODP Traffic manager. ">
<polygon fill="#ffffff" stroke="#000000" points="416.7787,-224.5 416.7787,-243.5 500.7787,-243.5 500.7787,-224.5 416.7787,-224.5"/>
<text text-anchor="middle" x="458.7787" y="-231.5" font-family="Helvetica,sans-Serif" font-size="10.00" fill="#000000">traffic_mngr.h</text>
</a>
</g>
</g>
<!-- Node35&#45;&gt;Node36 -->
<g id="edge33" class="edge">
<title>Node35&#45;&gt;Node36</title>
<path fill="none" stroke="#191970" d="M471.2472,-270.7493C468.1451,-261.6064 464.5736,-251.0798 462.0503,-243.6427"/>
<polygon fill="#191970" stroke="#191970" points="467.9417,-271.9003 474.4691,-280.2455 474.5705,-269.6512 467.9417,-271.9003"/>
</g>
<!-- Node36&#45;&gt;Node19 -->
<g id="edge34" class="edge">
<title>Node36&#45;&gt;Node19</title>
<path fill="none" stroke="#191970" d="M478.8686,-217.928C491.104,-208.1397 506.3293,-195.9595 516.7253,-187.6427"/>
<polygon fill="#191970" stroke="#191970" points="476.594,-215.2655 470.9717,-224.2455 480.9669,-220.7316 476.594,-215.2655"/>
</g>
<!-- Node36&#45;&gt;Node21 -->
<g id="edge35" class="edge">
<title>Node36&#45;&gt;Node21</title>
<path fill="none" stroke="#191970" d="M454.0913,-214.3227C446.966,-188.1034 431.1442,-141.5877 402.7787,-112 386.3847,-94.8997 362.253,-83.0427 343.1035,-75.6543"/>
<polygon fill="#191970" stroke="#191970" points="450.7516,-215.3897 456.6238,-224.2083 457.5326,-213.6525 450.7516,-215.3897"/>
</g>
<!-- Node38 -->
<g id="node29" class="node">
<title>Node38</title>
<g id="a_node29"><a xlink:href="packet__io__stats_8h.html" target="_top" xlink:title="ODP packet IO stats. ">
<polygon fill="#ffffff" stroke="#000000" points="378.7787,-448.5 378.7787,-467.5 480.7787,-467.5 480.7787,-448.5 378.7787,-448.5"/>
<text text-anchor="middle" x="429.7787" y="-455.5" font-family="Helvetica,sans-Serif" font-size="10.00" fill="#000000">packet_io_stats.h</text>
</a>
</g>
</g>
<!-- Node37&#45;&gt;Node38 -->
<g id="edge38" class="edge">
<title>Node37&#45;&gt;Node38</title>
<path fill="none" stroke="#191970" d="M429.7787,-494.1575C429.7787,-485.155 429.7787,-474.9199 429.7787,-467.6427"/>
<polygon fill="#191970" stroke="#191970" points="426.2788,-494.2455 429.7787,-504.2455 433.2788,-494.2456 426.2788,-494.2455"/>
</g>
<!-- Node38&#45;&gt;Node32 -->
<g id="edge39" class="edge">
<title>Node38&#45;&gt;Node32</title>
<path fill="none" stroke="#191970" d="M434.3162,-438.4538C436.4225,-429.3803 438.8323,-418.9998 440.5402,-411.6427"/>
<polygon fill="#191970" stroke="#191970" points="430.8951,-437.7131 432.0431,-448.2455 437.7138,-439.2961 430.8951,-437.7131"/>
</g>
<!-- Node40 -->
<g id="node31" class="node">
<title>Node40</title>
<g id="a_node31"><a xlink:href="api_2schedule_8h.html" target="_top" xlink:title="ODP schedule. ">
<polygon fill="#ffffff" stroke="#000000" points="139.2787,-336.5 139.2787,-355.5 208.2787,-355.5 208.2787,-336.5 139.2787,-336.5"/>
<text text-anchor="middle" x="173.7787" y="-343.5" font-family="Helvetica,sans-Serif" font-size="10.00" fill="#000000">schedule.h</text>
</a>
</g>
</g>
<!-- Node39&#45;&gt;Node40 -->
<g id="edge41" class="edge">
<title>Node39&#45;&gt;Node40</title>
<path fill="none" stroke="#191970" d="M207.4192,-494.7267C199.2976,-458.8207 182.1211,-382.8822 176.0016,-355.8279"/>
<polygon fill="#191970" stroke="#191970" points="204.0067,-495.5048 209.6267,-504.4862 210.8342,-493.9604 204.0067,-495.5048"/>
</g>
<!-- Node40&#45;&gt;Node21 -->
<g id="edge42" class="edge">
<title>Node40&#45;&gt;Node21</title>
<path fill="none" stroke="#191970" d="M177.4126,-326.5816C181.2586,-304.3089 186.7787,-266.6543 186.7787,-234 186.7787,-234 186.7787,-234 186.7787,-178 186.7787,-144.5868 198.8369,-135.3074 222.7787,-112 240.1301,-95.1083 264.9274,-83.0609 284.101,-75.5436"/>
<polygon fill="#191970" stroke="#191970" points="173.9622,-325.9941 175.6412,-336.455 180.8522,-327.2302 173.9622,-325.9941"/>
</g>
<!-- Node42 -->
<g id="node33" class="node">
<title>Node42</title>
<g id="a_node33"><a xlink:href="api_2packet__flags_8h.html" target="_top" xlink:title="ODP packet flags. ">
<polygon fill="#ffffff" stroke="#000000" points="67.2787,-448.5 67.2787,-467.5 154.2787,-467.5 154.2787,-448.5 67.2787,-448.5"/>
<text text-anchor="middle" x="110.7787" y="-455.5" font-family="Helvetica,sans-Serif" font-size="10.00" fill="#000000">packet_flags.h</text>
</a>
</g>
</g>
<!-- Node41&#45;&gt;Node42 -->
<g id="edge47" class="edge">
<title>Node41&#45;&gt;Node42</title>
<path fill="none" stroke="#191970" d="M134.6698,-719.2634C124.9022,-697.4131 110.7787,-659.949 110.7787,-626 110.7787,-626 110.7787,-626 110.7787,-570 110.7787,-532.0833 110.7787,-486.9462 110.7787,-467.5884"/>
<polygon fill="#191970" stroke="#191970" points="131.5234,-720.798 138.9094,-728.3939 137.8724,-717.8499 131.5234,-720.798"/>
</g>
<!-- Node42&#45;&gt;Node21 -->
<g id="edge48" class="edge">
<title>Node42&#45;&gt;Node21</title>
<path fill="none" stroke="#191970" d="M110.7787,-438.1952C110.7787,-415.8128 110.7787,-378.2884 110.7787,-346 110.7787,-346 110.7787,-346 110.7787,-178 110.7787,-101.2099 223.8126,-76.6327 280.7712,-69.1227"/>
<polygon fill="#191970" stroke="#191970" points="107.2788,-438.4116 110.7787,-448.4116 114.2788,-438.4117 107.2788,-438.4116"/>
</g>
</g>
</svg>
