<?xml version="1.0" encoding="UTF-8" standalone="no"?>
<!DOCTYPE svg PUBLIC "-//W3C//DTD SVG 1.1//EN"
 "http://www.w3.org/Graphics/SVG/1.1/DTD/svg11.dtd">
<!-- Generated by graphviz version 2.40.1 (20161225.0304)
 -->
<!-- Title: ipsec.h Pages: 1 -->
<svg width="2006pt" height="789pt"
 viewBox="0.00 0.00 2006.00 789.00" xmlns="http://www.w3.org/2000/svg" xmlns:xlink="http://www.w3.org/1999/xlink">
<g id="graph0" class="graph" transform="scale(1 1) rotate(0) translate(4 785)">
<title>ipsec.h</title>
<polygon fill="#ffffff" stroke="transparent" points="-4,4 -4,-785 2002,-785 2002,4 -4,4"/>
<!-- Node0 -->
<g id="node1" class="node">
<title>Node0</title>
<polygon fill="#bfbfbf" stroke="#000000" points="1193.5,-761.5 1193.5,-780.5 1244.5,-780.5 1244.5,-761.5 1193.5,-761.5"/>
<text text-anchor="middle" x="1219" y="-768.5" font-family="Helvetica,sans-Serif" font-size="10.00" fill="#000000">ipsec.h</text>
</g>
<!-- Node1 -->
<g id="node2" class="node">
<title>Node1</title>
<polygon fill="#ffffff" stroke="#bfbfbf" points="1100,-705.5 1100,-724.5 1208,-724.5 1208,-705.5 1100,-705.5"/>
<text text-anchor="middle" x="1154" y="-712.5" font-family="Helvetica,sans-Serif" font-size="10.00" fill="#000000">odp/api/abi/ipsec.h</text>
</g>
<!-- Node0&#45;&gt;Node1 -->
<g id="edge1" class="edge">
<title>Node0&#45;&gt;Node1</title>
<path fill="none" stroke="#191970" d="M1207.6779,-761.2455C1198.0777,-752.9746 1184.1108,-740.9416 1172.8305,-731.2232"/>
<polygon fill="#191970" stroke="#191970" points="1175.053,-728.5182 1165.1924,-724.6427 1170.484,-733.8214 1175.053,-728.5182"/>
</g>
<!-- Node2 -->
<g id="node3" class="node">
<title>Node2</title>
<g id="a_node3"><a xlink:href="api_2spec_2ipsec_8h.html" target="_top" xlink:title="ODP IPSEC API. ">
<polygon fill="#ffffff" stroke="#000000" points="1226,-705.5 1226,-724.5 1342,-724.5 1342,-705.5 1226,-705.5"/>
<text text-anchor="middle" x="1284" y="-712.5" font-family="Helvetica,sans-Serif" font-size="10.00" fill="#000000">odp/api/spec/ipsec.h</text>
</a>
</g>
</g>
<!-- Node0&#45;&gt;Node2 -->
<g id="edge2" class="edge">
<title>Node0&#45;&gt;Node2</title>
<path fill="none" stroke="#191970" d="M1230.3221,-761.2455C1239.9223,-752.9746 1253.8892,-740.9416 1265.1695,-731.2232"/>
<polygon fill="#191970" stroke="#191970" points="1267.516,-733.8214 1272.8076,-724.6427 1262.947,-728.5182 1267.516,-733.8214"/>
</g>
<!-- Node3 -->
<g id="node4" class="node">
<title>Node3</title>
<g id="a_node4"><a xlink:href="visibility__begin_8h_source.html" target="_top" xlink:title="odp/visibility_begin.h">
<polygon fill="#ffffff" stroke="#000000" points="1633.5,-.5 1633.5,-19.5 1754.5,-19.5 1754.5,-.5 1633.5,-.5"/>
<text text-anchor="middle" x="1694" y="-7.5" font-family="Helvetica,sans-Serif" font-size="10.00" fill="#000000">odp/visibility_begin.h</text>
</a>
</g>
</g>
<!-- Node2&#45;&gt;Node3 -->
<g id="edge3" class="edge">
<title>Node2&#45;&gt;Node3</title>
<path fill="none" stroke="#191970" d="M1342.1269,-711.5467C1512.3788,-700.6629 1998,-663.8068 1998,-597.5 1998,-597.5 1998,-597.5 1998,-122 1998,-87.6999 1986.3241,-75.3452 1958,-56 1927.3044,-35.0351 1832.0663,-22.3199 1764.8214,-15.724"/>
<polygon fill="#191970" stroke="#191970" points="1764.987,-12.2239 1754.6992,-14.7563 1764.3207,-19.1922 1764.987,-12.2239"/>
</g>
<!-- Node4 -->
<g id="node5" class="node">
<title>Node4</title>
<g id="a_node5"><a xlink:href="api_2crypto_8h.html" target="_top" xlink:title="ODP crypto. ">
<polygon fill="#ffffff" stroke="#000000" points="331.5,-526.5 331.5,-545.5 426.5,-545.5 426.5,-526.5 331.5,-526.5"/>
<text text-anchor="middle" x="379" y="-533.5" font-family="Helvetica,sans-Serif" font-size="10.00" fill="#000000">odp/api/crypto.h</text>
</a>
</g>
</g>
<!-- Node2&#45;&gt;Node4 -->
<g id="edge4" class="edge">
<title>Node2&#45;&gt;Node4</title>
<path fill="none" stroke="#191970" d="M1225.9281,-706.0788C1222.9111,-705.6948 1219.9214,-705.3322 1217,-705 880.2498,-666.7109 761.7208,-767.3739 460,-613 431.9449,-598.6458 406.8838,-571.5103 392.3108,-553.5902"/>
<polygon fill="#191970" stroke="#191970" points="394.9731,-551.3139 386.0321,-545.6297 389.4769,-555.6489 394.9731,-551.3139"/>
</g>
<!-- Node12 -->
<g id="node13" class="node">
<title>Node12</title>
<g id="a_node13"><a xlink:href="visibility__end_8h_source.html" target="_top" xlink:title="odp/visibility_end.h">
<polygon fill="#ffffff" stroke="#000000" points="431,-.5 431,-19.5 543,-19.5 543,-.5 431,-.5"/>
<text text-anchor="middle" x="487" y="-7.5" font-family="Helvetica,sans-Serif" font-size="10.00" fill="#000000">odp/visibility_end.h</text>
</a>
</g>
</g>
<!-- Node2&#45;&gt;Node12 -->
<g id="edge116" class="edge">
<title>Node2&#45;&gt;Node12</title>
<path fill="none" stroke="#191970" d="M1225.9376,-705.9896C1222.9182,-705.6289 1219.9253,-705.2956 1217,-705 1081.9393,-691.3503 0,-733.2487 0,-597.5 0,-597.5 0,-597.5 0,-122 0,-87.4675 11.7211,-74.3095 41,-56 72.4321,-36.344 304.0559,-20.4693 420.5237,-13.6327"/>
<polygon fill="#191970" stroke="#191970" points="420.9657,-17.1131 430.7457,-13.0386 420.5594,-10.1248 420.9657,-17.1131"/>
</g>
<!-- Node33 -->
<g id="node27" class="node">
<title>Node33</title>
<g id="a_node27"><a xlink:href="support_8h.html" target="_top" xlink:title="ODP support API &#45; platform specific header. ">
<polygon fill="#ffffff" stroke="#000000" points="788.5,-414.5 788.5,-433.5 889.5,-433.5 889.5,-414.5 788.5,-414.5"/>
<text text-anchor="middle" x="839" y="-421.5" font-family="Helvetica,sans-Serif" font-size="10.00" fill="#000000">odp/api/support.h</text>
</a>
</g>
</g>
<!-- Node2&#45;&gt;Node33 -->
<g id="edge63" class="edge">
<title>Node2&#45;&gt;Node33</title>
<path fill="none" stroke="#191970" d="M1297.4894,-705.3923C1307.927,-697.0884 1321.6392,-684.0683 1328,-669 1343.0415,-633.3678 1348.6551,-615.8805 1330,-582 1285.0983,-500.4518 1240.3245,-502.2599 1153,-470 1048.1112,-431.2514 1014.593,-450.5015 904,-434 902.6978,-433.8057 901.3811,-433.6086 900.0537,-433.4094"/>
<polygon fill="#191970" stroke="#191970" points="900.1459,-429.8837 889.7353,-431.8509 899.1004,-436.8052 900.1459,-429.8837"/>
</g>
<!-- Node38 -->
<g id="node35" class="node">
<title>Node38</title>
<g id="a_node35"><a xlink:href="api_2packet__io_8h.html" target="_top" xlink:title="ODP Packet IO. ">
<polygon fill="#ffffff" stroke="#000000" points="1005,-526.5 1005,-545.5 1117,-545.5 1117,-526.5 1005,-526.5"/>
<text text-anchor="middle" x="1061" y="-533.5" font-family="Helvetica,sans-Serif" font-size="10.00" fill="#000000">odp/api/packet_io.h</text>
</a>
</g>
</g>
<!-- Node2&#45;&gt;Node38 -->
<g id="edge64" class="edge">
<title>Node2&#45;&gt;Node38</title>
<path fill="none" stroke="#191970" d="M1290.5826,-705.3332C1305.9621,-681.4438 1340.7011,-618.8923 1310,-582 1298.3245,-567.97 1196.9973,-552.7833 1127.257,-543.8459"/>
<polygon fill="#191970" stroke="#191970" points="1127.5716,-540.3578 1117.211,-542.5734 1126.692,-547.3023 1127.5716,-540.3578"/>
</g>
<!-- Node45 -->
<g id="node42" class="node">
<title>Node45</title>
<g id="a_node42"><a xlink:href="protocols_8h.html" target="_top" xlink:title="ODP protocols. ">
<polygon fill="#ffffff" stroke="#000000" points="1555,-649.5 1555,-668.5 1665,-668.5 1665,-649.5 1555,-649.5"/>
<text text-anchor="middle" x="1610" y="-656.5" font-family="Helvetica,sans-Serif" font-size="10.00" fill="#000000">odp/api/protocols.h</text>
</a>
</g>
</g>
<!-- Node2&#45;&gt;Node45 -->
<g id="edge88" class="edge">
<title>Node2&#45;&gt;Node45</title>
<path fill="none" stroke="#191970" d="M1339.671,-705.4369C1396.487,-695.6771 1484.6216,-680.5374 1544.6976,-670.2176"/>
<polygon fill="#191970" stroke="#191970" points="1545.5677,-673.6195 1554.8308,-668.4769 1544.3825,-666.7205 1545.5677,-673.6195"/>
</g>
<!-- Node47 -->
<g id="node44" class="node">
<title>Node47</title>
<g id="a_node44"><a xlink:href="api_2classification_8h.html" target="_top" xlink:title="ODP classification descriptor. ">
<polygon fill="#ffffff" stroke="#000000" points="767,-649.5 767,-668.5 895,-668.5 895,-649.5 767,-649.5"/>
<text text-anchor="middle" x="831" y="-656.5" font-family="Helvetica,sans-Serif" font-size="10.00" fill="#000000">odp/api/classification.h</text>
</a>
</g>
</g>
<!-- Node2&#45;&gt;Node47 -->
<g id="edge92" class="edge">
<title>Node2&#45;&gt;Node47</title>
<path fill="none" stroke="#191970" d="M1225.9102,-706.2226C1222.898,-705.801 1219.9141,-705.391 1217,-705 1108.8155,-690.4835 983.2555,-675.9485 905.4582,-667.2127"/>
<polygon fill="#191970" stroke="#191970" points="905.6016,-663.707 895.2741,-666.0716 904.8221,-670.6634 905.6016,-663.707"/>
</g>
<!-- Node51 -->
<g id="node48" class="node">
<title>Node51</title>
<g id="a_node48"><a xlink:href="api_2traffic__mngr_8h.html" target="_top" xlink:title="ODP Traffic manager. ">
<polygon fill="#ffffff" stroke="#000000" points="1177.5,-649.5 1177.5,-668.5 1300.5,-668.5 1300.5,-649.5 1177.5,-649.5"/>
<text text-anchor="middle" x="1239" y="-656.5" font-family="Helvetica,sans-Serif" font-size="10.00" fill="#000000">odp/api/traffic_mngr.h</text>
</a>
</g>
</g>
<!-- Node2&#45;&gt;Node51 -->
<g id="edge109" class="edge">
<title>Node2&#45;&gt;Node51</title>
<path fill="none" stroke="#191970" d="M1276.1616,-705.2455C1269.838,-697.3761 1260.7776,-686.101 1253.1864,-676.6542"/>
<polygon fill="#191970" stroke="#191970" points="1255.7408,-674.2454 1246.7486,-668.6427 1250.2842,-678.6302 1255.7408,-674.2454"/>
</g>
<!-- Node5 -->
<g id="node6" class="node">
<title>Node5</title>
<g id="a_node6"><a xlink:href="api_2std__types_8h.html" target="_top" xlink:title="Standard C language types and definitions for ODP. ">
<polygon fill="#ffffff" stroke="#000000" points="762,-235.5 762,-254.5 874,-254.5 874,-235.5 762,-235.5"/>
<text text-anchor="middle" x="818" y="-242.5" font-family="Helvetica,sans-Serif" font-size="10.00" fill="#000000">odp/api/std_types.h</text>
</a>
</g>
</g>
<!-- Node4&#45;&gt;Node5 -->
<g id="edge5" class="edge">
<title>Node4&#45;&gt;Node5</title>
<path fill="none" stroke="#191970" d="M379.9606,-526.201C383.63,-494.4859 399.7549,-393.977 460,-347 539.8623,-284.7262 588.5444,-341.8597 685,-311 695.8178,-307.539 754.782,-277.5596 790.4696,-259.217"/>
<polygon fill="#191970" stroke="#191970" points="792.1389,-262.2942 799.4283,-254.6056 788.9352,-256.0703 792.1389,-262.2942"/>
</g>
<!-- Node13 -->
<g id="node14" class="node">
<title>Node13</title>
<polygon fill="#ffffff" stroke="#bfbfbf" points="502,-353 502,-372 618,-372 618,-353 502,-353"/>
<text text-anchor="middle" x="560" y="-360" font-family="Helvetica,sans-Serif" font-size="10.00" fill="#000000">odp/api/abi/packet.h</text>
</g>
<!-- Node4&#45;&gt;Node13 -->
<g id="edge16" class="edge">
<title>Node4&#45;&gt;Node13</title>
<path fill="none" stroke="#191970" d="M388.9892,-526.4248C418.3405,-498.2897 504.6074,-415.5973 542.176,-379.5855"/>
<polygon fill="#191970" stroke="#191970" points="545.0215,-381.7062 549.8186,-372.2595 540.1775,-376.6528 545.0215,-381.7062"/>
</g>
<!-- Node14 -->
<g id="node15" class="node">
<title>Node14</title>
<polygon fill="#ffffff" stroke="#bfbfbf" points="142.5,-470.5 142.5,-489.5 255.5,-489.5 255.5,-470.5 142.5,-470.5"/>
<text text-anchor="middle" x="199" y="-477.5" font-family="Helvetica,sans-Serif" font-size="10.00" fill="#000000">odp/api/abi/crypto.h</text>
</g>
<!-- Node4&#45;&gt;Node14 -->
<g id="edge17" class="edge">
<title>Node4&#45;&gt;Node14</title>
<path fill="none" stroke="#191970" d="M348.0569,-526.3733C317.9961,-517.021 272.1974,-502.7725 239.3022,-492.5385"/>
<polygon fill="#191970" stroke="#191970" points="240.1277,-489.1299 229.5393,-489.5011 238.0481,-495.8139 240.1277,-489.1299"/>
</g>
<!-- Node15 -->
<g id="node16" class="node">
<title>Node15</title>
<polygon fill="#ffffff" stroke="#bfbfbf" points="374,-235.5 374,-254.5 484,-254.5 484,-235.5 374,-235.5"/>
<text text-anchor="middle" x="429" y="-242.5" font-family="Helvetica,sans-Serif" font-size="10.00" fill="#000000">odp/api/abi/buffer.h</text>
</g>
<!-- Node4&#45;&gt;Node15 -->
<g id="edge18" class="edge">
<title>Node4&#45;&gt;Node15</title>
<path fill="none" stroke="#191970" d="M370.0938,-526.3544C354.0625,-507.945 322,-465.8901 322,-424 322,-424 322,-424 322,-362.5 322,-315.5419 369.2954,-279.0865 400.9984,-259.9247"/>
<polygon fill="#191970" stroke="#191970" points="402.9875,-262.8168 409.8705,-254.7623 399.467,-256.7665 402.9875,-262.8168"/>
</g>
<!-- Node16 -->
<g id="node17" class="node">
<title>Node16</title>
<polygon fill="#ffffff" stroke="#bfbfbf" points="176,-235.5 176,-254.5 280,-254.5 280,-235.5 176,-235.5"/>
<text text-anchor="middle" x="228" y="-242.5" font-family="Helvetica,sans-Serif" font-size="10.00" fill="#000000">odp/api/abi/pool.h</text>
</g>
<!-- Node4&#45;&gt;Node16 -->
<g id="edge19" class="edge">
<title>Node4&#45;&gt;Node16</title>
<path fill="none" stroke="#191970" d="M366.1718,-526.2092C355.6026,-517.6073 340.809,-504.2665 331,-490 278.8157,-414.1014 245.3862,-307.5979 233.1932,-264.3698"/>
<polygon fill="#191970" stroke="#191970" points="236.5264,-263.2908 230.4935,-254.5813 229.7783,-265.152 236.5264,-263.2908"/>
</g>
<!-- Node17 -->
<g id="node18" class="node">
<title>Node17</title>
<g id="a_node18"><a xlink:href="api_2queue_8h.html" target="_top" xlink:title="ODP queue. ">
<polygon fill="#ffffff" stroke="#000000" points="1120.5,-291.5 1120.5,-310.5 1215.5,-310.5 1215.5,-291.5 1120.5,-291.5"/>
<text text-anchor="middle" x="1168" y="-298.5" font-family="Helvetica,sans-Serif" font-size="10.00" fill="#000000">odp/api/queue.h</text>
</a>
</g>
</g>
<!-- Node4&#45;&gt;Node17 -->
<g id="edge20" class="edge">
<title>Node4&#45;&gt;Node17</title>
<path fill="none" stroke="#191970" d="M426.6687,-532.6701C559.3681,-523.3326 924.9793,-497.1168 950,-490 968.7365,-484.6706 970.9549,-477.337 989,-470 1039.3992,-449.5081 1064.9735,-469.7327 1106,-434 1115.2273,-425.9634 1145.525,-355.0796 1160.0699,-320.2073"/>
<polygon fill="#191970" stroke="#191970" points="1163.4357,-321.2281 1164.0373,-310.6504 1156.9706,-318.5442 1163.4357,-321.2281"/>
</g>
<!-- Node37 -->
<g id="node26" class="node">
<title>Node37</title>
<g id="a_node26"><a xlink:href="api_2spec_2crypto_8h.html" target="_top" xlink:title="ODP crypto. ">
<polygon fill="#ffffff" stroke="#000000" points="820.5,-470.5 820.5,-489.5 941.5,-489.5 941.5,-470.5 820.5,-470.5"/>
<text text-anchor="middle" x="881" y="-477.5" font-family="Helvetica,sans-Serif" font-size="10.00" fill="#000000">odp/api/spec/crypto.h</text>
</a>
</g>
</g>
<!-- Node4&#45;&gt;Node37 -->
<g id="edge38" class="edge">
<title>Node4&#45;&gt;Node37</title>
<path fill="none" stroke="#191970" d="M426.6795,-530.6812C515.3814,-520.7861 706.1569,-499.5044 810.0485,-487.9149"/>
<polygon fill="#191970" stroke="#191970" points="810.5809,-491.3773 820.1312,-486.7901 809.8048,-484.4205 810.5809,-491.3773"/>
</g>
<!-- Node6 -->
<g id="node7" class="node">
<title>Node6</title>
<polygon fill="#ffffff" stroke="#bfbfbf" points="762,-174 762,-193 892,-193 892,-174 762,-174"/>
<text text-anchor="middle" x="827" y="-181" font-family="Helvetica,sans-Serif" font-size="10.00" fill="#000000">odp/api/abi/std_types.h</text>
</g>
<!-- Node5&#45;&gt;Node6 -->
<g id="edge6" class="edge">
<title>Node5&#45;&gt;Node6</title>
<path fill="none" stroke="#191970" d="M819.4063,-235.3906C820.6538,-226.8657 822.5162,-214.1392 824.0844,-203.4235"/>
<polygon fill="#191970" stroke="#191970" points="827.589,-203.6463 825.5739,-193.2449 820.6627,-202.6326 827.589,-203.6463"/>
</g>
<!-- Node7 -->
<g id="node8" class="node">
<title>Node7</title>
<g id="a_node8"><a xlink:href="api_2spec_2std__types_8h.html" target="_top" xlink:title="Standard C language types and definitions for ODP. ">
<polygon fill="#ffffff" stroke="#000000" points="568.5,-174 568.5,-193 705.5,-193 705.5,-174 568.5,-174"/>
<text text-anchor="middle" x="637" y="-181" font-family="Helvetica,sans-Serif" font-size="10.00" fill="#000000">odp/api/spec/std_types.h</text>
</a>
</g>
</g>
<!-- Node5&#45;&gt;Node7 -->
<g id="edge7" class="edge">
<title>Node5&#45;&gt;Node7</title>
<path fill="none" stroke="#191970" d="M789.7188,-235.3906C758.77,-224.8749 709.0058,-207.966 674.743,-196.3243"/>
<polygon fill="#191970" stroke="#191970" points="675.6771,-192.9452 665.0827,-193.0419 673.425,-199.573 675.6771,-192.9452"/>
</g>
<!-- Node7&#45;&gt;Node3 -->
<g id="edge8" class="edge">
<title>Node7&#45;&gt;Node3</title>
<path fill="none" stroke="#191970" d="M687.0028,-173.9775C697.8727,-171.959 709.3155,-169.8735 720,-168 844.4334,-146.1809 1161.2216,-116.1607 1281,-76 1299.0952,-69.9328 1300.7857,-61.6996 1319,-56 1374.0575,-38.7714 1530.5078,-23.5005 1623.0151,-15.6314"/>
<polygon fill="#191970" stroke="#191970" points="1623.4697,-19.1056 1633.1403,-14.778 1622.8816,-12.1304 1623.4697,-19.1056"/>
</g>
<!-- Node8 -->
<g id="node9" class="node">
<title>Node8</title>
<polygon fill="#ffffff" stroke="#bfbfbf" points="553.5,-112.5 553.5,-131.5 606.5,-131.5 606.5,-112.5 553.5,-112.5"/>
<text text-anchor="middle" x="580" y="-119.5" font-family="Helvetica,sans-Serif" font-size="10.00" fill="#000000">stdint.h</text>
</g>
<!-- Node7&#45;&gt;Node8 -->
<g id="edge9" class="edge">
<title>Node7&#45;&gt;Node8</title>
<path fill="none" stroke="#191970" d="M628.0938,-173.8906C619.5272,-164.6478 606.3831,-150.466 595.9997,-139.2628"/>
<polygon fill="#191970" stroke="#191970" points="598.3965,-136.7 589.0318,-131.7449 593.2625,-141.4584 598.3965,-136.7"/>
</g>
<!-- Node9 -->
<g id="node10" class="node">
<title>Node9</title>
<g id="a_node10"><a xlink:href="api_2align_8h.html" target="_top" xlink:title="ODP alignments. ">
<polygon fill="#ffffff" stroke="#000000" points="663.5,-112.5 663.5,-131.5 752.5,-131.5 752.5,-112.5 663.5,-112.5"/>
<text text-anchor="middle" x="708" y="-119.5" font-family="Helvetica,sans-Serif" font-size="10.00" fill="#000000">odp/api/align.h</text>
</a>
</g>
</g>
<!-- Node7&#45;&gt;Node9 -->
<g id="edge10" class="edge">
<title>Node7&#45;&gt;Node9</title>
<path fill="none" stroke="#191970" d="M648.0938,-173.8906C658.9715,-164.4683 675.7748,-149.9134 688.82,-138.6137"/>
<polygon fill="#191970" stroke="#191970" points="691.4827,-140.9377 696.7498,-131.7449 686.8996,-135.6466 691.4827,-140.9377"/>
</g>
<!-- Node7&#45;&gt;Node12 -->
<g id="edge15" class="edge">
<title>Node7&#45;&gt;Node12</title>
<path fill="none" stroke="#191970" d="M610.0095,-173.8826C589.673,-165.4855 562.2626,-151.5614 544,-132 529.2293,-116.1788 506.0049,-59.4169 494.284,-29.2174"/>
<polygon fill="#191970" stroke="#191970" points="497.5024,-27.835 490.6506,-19.754 490.9675,-30.3441 497.5024,-27.835"/>
</g>
<!-- Node10 -->
<g id="node11" class="node">
<title>Node10</title>
<polygon fill="#ffffff" stroke="#bfbfbf" points="591.5,-56.5 591.5,-75.5 698.5,-75.5 698.5,-56.5 591.5,-56.5"/>
<text text-anchor="middle" x="645" y="-63.5" font-family="Helvetica,sans-Serif" font-size="10.00" fill="#000000">odp/api/abi/align.h</text>
</g>
<!-- Node9&#45;&gt;Node10 -->
<g id="edge11" class="edge">
<title>Node9&#45;&gt;Node10</title>
<path fill="none" stroke="#191970" d="M697.0262,-112.2455C687.8118,-104.0549 674.4468,-92.1749 663.5703,-82.5069"/>
<polygon fill="#191970" stroke="#191970" points="665.6474,-79.6704 655.848,-75.6427 660.9968,-84.9023 665.6474,-79.6704"/>
</g>
<!-- Node11 -->
<g id="node12" class="node">
<title>Node11</title>
<g id="a_node12"><a xlink:href="api_2spec_2align_8h.html" target="_top" xlink:title="ODP alignments. ">
<polygon fill="#ffffff" stroke="#000000" points="717,-56.5 717,-75.5 831,-75.5 831,-56.5 717,-56.5"/>
<text text-anchor="middle" x="774" y="-63.5" font-family="Helvetica,sans-Serif" font-size="10.00" fill="#000000">odp/api/spec/align.h</text>
</a>
</g>
</g>
<!-- Node9&#45;&gt;Node11 -->
<g id="edge12" class="edge">
<title>Node9&#45;&gt;Node11</title>
<path fill="none" stroke="#191970" d="M719.4963,-112.2455C729.2442,-103.9746 743.4259,-91.9416 754.8798,-82.2232"/>
<polygon fill="#191970" stroke="#191970" points="757.2747,-84.7813 762.6354,-75.6427 752.7459,-79.4437 757.2747,-84.7813"/>
</g>
<!-- Node11&#45;&gt;Node3 -->
<g id="edge13" class="edge">
<title>Node11&#45;&gt;Node3</title>
<path fill="none" stroke="#191970" d="M831.1944,-56.9887C834.1691,-56.6282 837.1178,-56.2953 840,-56 1129.5695,-26.3342 1476.4627,-15.1278 1623.0644,-11.506"/>
<polygon fill="#191970" stroke="#191970" points="1623.358,-15 1633.2701,-11.2581 1623.188,-8.002 1623.358,-15"/>
</g>
<!-- Node11&#45;&gt;Node12 -->
<g id="edge14" class="edge">
<title>Node11&#45;&gt;Node12</title>
<path fill="none" stroke="#191970" d="M724.989,-56.4369C675.3553,-46.7522 598.5727,-31.7703 545.7166,-21.4569"/>
<polygon fill="#191970" stroke="#191970" points="546.294,-18.0036 535.8088,-19.5237 544.9534,-24.8741 546.294,-18.0036"/>
</g>
<!-- Node17&#45;&gt;Node5 -->
<g id="edge21" class="edge">
<title>Node17&#45;&gt;Node5</title>
<path fill="none" stroke="#191970" d="M1120.4332,-293.3893C1059.3291,-283.6127 952.9532,-266.5925 884.0319,-255.5651"/>
<polygon fill="#191970" stroke="#191970" points="884.5722,-252.1071 874.1448,-253.9832 883.4662,-259.0192 884.5722,-252.1071"/>
</g>
<!-- Node17&#45;&gt;Node15 -->
<g id="edge24" class="edge">
<title>Node17&#45;&gt;Node15</title>
<path fill="none" stroke="#191970" d="M1120.1753,-295.7103C1104.8023,-294.0925 1087.691,-292.3781 1072,-291 860.9675,-272.465 610.4723,-256.1907 494.2471,-248.9674"/>
<polygon fill="#191970" stroke="#191970" points="494.2927,-245.4636 484.0954,-248.3383 493.8597,-252.4502 494.2927,-245.4636"/>
</g>
<!-- Node17&#45;&gt;Node16 -->
<g id="edge25" class="edge">
<title>Node17&#45;&gt;Node16</title>
<path fill="none" stroke="#191970" d="M1120.1913,-295.5166C1104.8192,-293.8884 1087.7044,-292.2169 1072,-291 758.311,-266.6927 679.0273,-274.4535 365,-255 340.5338,-253.4844 313.628,-251.5736 290.1861,-249.8295"/>
<polygon fill="#191970" stroke="#191970" points="290.2596,-246.3253 280.0259,-249.0679 289.7363,-253.3057 290.2596,-246.3253"/>
</g>
<!-- Node18 -->
<g id="node19" class="node">
<title>Node18</title>
<polygon fill="#ffffff" stroke="#bfbfbf" points="1594,-112.5 1594,-131.5 1704,-131.5 1704,-112.5 1594,-112.5"/>
<text text-anchor="middle" x="1649" y="-119.5" font-family="Helvetica,sans-Serif" font-size="10.00" fill="#000000">odp/api/abi/event.h</text>
</g>
<!-- Node17&#45;&gt;Node18 -->
<g id="edge22" class="edge">
<title>Node17&#45;&gt;Node18</title>
<path fill="none" stroke="#191970" d="M1215.5655,-297.9678C1280.1826,-293.034 1398.8985,-281.0668 1497,-255 1498.012,-254.7311 1636.3478,-199.8192 1637,-199 1649.736,-183.0048 1651.617,-159.0607 1651.0207,-142.1269"/>
<polygon fill="#191970" stroke="#191970" points="1654.4828,-141.4479 1650.315,-131.7072 1647.4988,-141.9209 1654.4828,-141.4479"/>
</g>
<!-- Node19 -->
<g id="node20" class="node">
<title>Node19</title>
<polygon fill="#ffffff" stroke="#bfbfbf" points="1704.5,-235.5 1704.5,-254.5 1817.5,-254.5 1817.5,-235.5 1704.5,-235.5"/>
<text text-anchor="middle" x="1761" y="-242.5" font-family="Helvetica,sans-Serif" font-size="10.00" fill="#000000">odp/api/abi/queue.h</text>
</g>
<!-- Node17&#45;&gt;Node19 -->
<g id="edge23" class="edge">
<title>Node17&#45;&gt;Node19</title>
<path fill="none" stroke="#191970" d="M1215.5253,-296.5119C1320.6109,-286.5882 1572.9508,-262.7584 1694.0037,-251.3268"/>
<polygon fill="#191970" stroke="#191970" points="1694.6201,-254.7843 1704.2467,-250.3595 1693.9619,-247.8153 1694.6201,-254.7843"/>
</g>
<!-- Node20 -->
<g id="node21" class="node">
<title>Node20</title>
<g id="a_node21"><a xlink:href="api_2spec_2queue_8h.html" target="_top" xlink:title="ODP queue. ">
<polygon fill="#ffffff" stroke="#000000" points="1368,-235.5 1368,-254.5 1488,-254.5 1488,-235.5 1368,-235.5"/>
<text text-anchor="middle" x="1428" y="-242.5" font-family="Helvetica,sans-Serif" font-size="10.00" fill="#000000">odp/api/spec/queue.h</text>
</a>
</g>
</g>
<!-- Node17&#45;&gt;Node20 -->
<g id="edge26" class="edge">
<title>Node17&#45;&gt;Node20</title>
<path fill="none" stroke="#191970" d="M1212.4002,-291.4369C1257.0841,-281.8127 1326.057,-266.957 1373.9088,-256.6504"/>
<polygon fill="#191970" stroke="#191970" points="1374.7441,-260.0508 1383.783,-254.5237 1373.2702,-253.2078 1374.7441,-260.0508"/>
</g>
<!-- Node20&#45;&gt;Node3 -->
<g id="edge27" class="edge">
<title>Node20&#45;&gt;Node3</title>
<path fill="none" stroke="#191970" d="M1441.0997,-235.4116C1453.4086,-226.2962 1472.2417,-212.0747 1488,-199 1532.5679,-162.0218 1534.8504,-140.9603 1585,-112 1629.5463,-86.2755 1664.8083,-117.6484 1695,-76 1704.6475,-62.6916 1703.17,-43.5767 1700.0056,-29.3401"/>
<polygon fill="#191970" stroke="#191970" points="1703.3633,-28.3473 1697.4131,-19.5811 1696.598,-30.1446 1703.3633,-28.3473"/>
</g>
<!-- Node20&#45;&gt;Node12 -->
<g id="edge37" class="edge">
<title>Node20&#45;&gt;Node12</title>
<path fill="none" stroke="#191970" d="M1367.8967,-242.2286C1172.5148,-233.168 567.3923,-204.6785 559,-199 501.9705,-160.4125 490.0639,-70.0379 487.6142,-29.8603"/>
<polygon fill="#191970" stroke="#191970" points="491.104,-29.5596 487.1376,-19.7353 484.1118,-29.8889 491.104,-29.5596"/>
</g>
<!-- Node21 -->
<g id="node22" class="node">
<title>Node21</title>
<g id="a_node22"><a xlink:href="api_2event_8h.html" target="_top" xlink:title="ODP event. ">
<polygon fill="#ffffff" stroke="#ff0000" points="1536,-174 1536,-193 1628,-193 1628,-174 1536,-174"/>
<text text-anchor="middle" x="1582" y="-181" font-family="Helvetica,sans-Serif" font-size="10.00" fill="#000000">odp/api/event.h</text>
</a>
</g>
</g>
<!-- Node20&#45;&gt;Node21 -->
<g id="edge28" class="edge">
<title>Node20&#45;&gt;Node21</title>
<path fill="none" stroke="#191970" d="M1452.0625,-235.3906C1478.0556,-225.0103 1519.6478,-208.4004 1548.7547,-196.7766"/>
<polygon fill="#191970" stroke="#191970" points="1550.1177,-200.0011 1558.1065,-193.0419 1547.5215,-193.5003 1550.1177,-200.0011"/>
</g>
<!-- Node29 -->
<g id="node23" class="node">
<title>Node29</title>
<g id="a_node23"><a xlink:href="queue__types_8h.html" target="_top" xlink:title="ODP queue types. ">
<polygon fill="#ffffff" stroke="#ff0000" points="1368.5,-168.5 1368.5,-198.5 1479.5,-198.5 1479.5,-168.5 1368.5,-168.5"/>
<text text-anchor="start" x="1376.5" y="-186.5" font-family="Helvetica,sans-Serif" font-size="10.00" fill="#000000">odp/api/spec/queue</text>
<text text-anchor="middle" x="1424" y="-175.5" font-family="Helvetica,sans-Serif" font-size="10.00" fill="#000000">_types.h</text>
</a>
</g>
</g>
<!-- Node20&#45;&gt;Node29 -->
<g id="edge30" class="edge">
<title>Node20&#45;&gt;Node29</title>
<path fill="none" stroke="#191970" d="M1427.375,-235.3906C1426.9088,-228.2234 1426.2495,-218.0862 1425.6371,-208.671"/>
<polygon fill="#191970" stroke="#191970" points="1429.1203,-208.2963 1424.9785,-198.5446 1422.135,-208.7507 1429.1203,-208.2963"/>
</g>
<!-- Node21&#45;&gt;Node18 -->
<g id="edge29" class="edge">
<title>Node21&#45;&gt;Node18</title>
<path fill="none" stroke="#191970" d="M1592.4688,-173.8906C1602.7337,-164.4683 1618.5903,-149.9134 1630.9006,-138.6137"/>
<polygon fill="#191970" stroke="#191970" points="1633.3834,-141.0856 1638.3837,-131.7449 1628.6499,-135.9287 1633.3834,-141.0856"/>
</g>
<!-- Node29&#45;&gt;Node3 -->
<g id="edge31" class="edge">
<title>Node29&#45;&gt;Node3</title>
<path fill="none" stroke="#191970" d="M1447.2625,-168.417C1472.3204,-152.6754 1513.7555,-128.0874 1552,-112 1604.1109,-90.0797 1633.8791,-115.8292 1674,-76 1686.3232,-63.7664 1691.1026,-44.2112 1692.9306,-29.5566"/>
<polygon fill="#191970" stroke="#191970" points="1696.4245,-29.7798 1693.8292,-19.5078 1689.4523,-29.1563 1696.4245,-29.7798"/>
</g>
<!-- Node29&#45;&gt;Node12 -->
<g id="edge36" class="edge">
<title>Node29&#45;&gt;Node12</title>
<path fill="none" stroke="#191970" d="M1368.3242,-181.5677C1202.7162,-175.5704 720.5743,-156.2153 654,-132 621.3558,-120.1262 542.658,-56.5082 506.1706,-26.1468"/>
<polygon fill="#191970" stroke="#191970" points="508.1718,-23.2579 498.2545,-19.5298 503.6823,-28.6286 508.1718,-23.2579"/>
</g>
<!-- Node35 -->
<g id="node24" class="node">
<title>Node35</title>
<g id="a_node24"><a xlink:href="deprecated_8h.html" target="_top" xlink:title="Control deprecated API definitions. ">
<polygon fill="#ffffff" stroke="#000000" points="1280.5,-112.5 1280.5,-131.5 1399.5,-131.5 1399.5,-112.5 1280.5,-112.5"/>
<text text-anchor="middle" x="1340" y="-119.5" font-family="Helvetica,sans-Serif" font-size="10.00" fill="#000000">odp/api/deprecated.h</text>
</a>
</g>
</g>
<!-- Node29&#45;&gt;Node35 -->
<g id="edge32" class="edge">
<title>Node29&#45;&gt;Node35</title>
<path fill="none" stroke="#191970" d="M1403.2359,-168.2977C1390.6042,-159.0495 1374.4947,-147.2551 1361.6969,-137.8853"/>
<polygon fill="#191970" stroke="#191970" points="1363.5857,-134.9303 1353.4495,-131.8469 1359.4505,-140.5784 1363.5857,-134.9303"/>
</g>
<!-- Node36 -->
<g id="node25" class="node">
<title>Node36</title>
<g id="a_node25"><a xlink:href="spec_2deprecated_8h.html" target="_top" xlink:title="Macro for deprecated API definitions. ">
<polygon fill="#ffffff" stroke="#000000" points="1328.5,-56.5 1328.5,-75.5 1473.5,-75.5 1473.5,-56.5 1328.5,-56.5"/>
<text text-anchor="middle" x="1401" y="-63.5" font-family="Helvetica,sans-Serif" font-size="10.00" fill="#000000">odp/api/spec/deprecated.h</text>
</a>
</g>
</g>
<!-- Node35&#45;&gt;Node36 -->
<g id="edge33" class="edge">
<title>Node35&#45;&gt;Node36</title>
<path fill="none" stroke="#191970" d="M1350.6254,-112.2455C1359.5473,-104.0549 1372.488,-92.1749 1383.0192,-82.5069"/>
<polygon fill="#191970" stroke="#191970" points="1385.4968,-84.9837 1390.4964,-75.6427 1380.7629,-79.8271 1385.4968,-84.9837"/>
</g>
<!-- Node36&#45;&gt;Node3 -->
<g id="edge34" class="edge">
<title>Node36&#45;&gt;Node3</title>
<path fill="none" stroke="#191970" d="M1451.0356,-56.4369C1501.707,-46.7522 1580.0948,-31.7703 1634.0559,-21.4569"/>
<polygon fill="#191970" stroke="#191970" points="1635.0057,-24.8388 1644.1708,-19.5237 1633.6915,-17.9633 1635.0057,-24.8388"/>
</g>
<!-- Node36&#45;&gt;Node12 -->
<g id="edge35" class="edge">
<title>Node36&#45;&gt;Node12</title>
<path fill="none" stroke="#191970" d="M1328.3641,-59.65C1312.7453,-58.3677 1296.3274,-57.0825 1281,-56 1011.517,-36.9684 690.168,-20.1584 553.6391,-13.2907"/>
<polygon fill="#191970" stroke="#191970" points="553.5119,-9.78 543.349,-12.7743 553.161,-16.7712 553.5119,-9.78"/>
</g>
<!-- Node37&#45;&gt;Node3 -->
<g id="edge39" class="edge">
<title>Node37&#45;&gt;Node3</title>
<path fill="none" stroke="#191970" d="M941.6525,-472.2373C1105.2836,-451.138 1545.3573,-393.2961 1573,-378 1646.0977,-337.5514 1628.1742,-285.1366 1695,-235 1726.1879,-211.601 1746.1774,-225.2575 1775,-199 1800.3068,-175.9454 1804.2666,-165.101 1813,-132 1818.7869,-110.0668 1804.5637,-57.9573 1803,-56 1790.3358,-40.1483 1771.2157,-29.6808 1752.5076,-22.8025"/>
<polygon fill="#191970" stroke="#191970" points="1753.3926,-19.4073 1742.7984,-19.5233 1751.1527,-26.0392 1753.3926,-19.4073"/>
</g>
<!-- Node37&#45;&gt;Node12 -->
<g id="edge62" class="edge">
<title>Node37&#45;&gt;Node12</title>
<path fill="none" stroke="#191970" d="M858.0167,-470.3863C837.1467,-461.4802 805.6481,-447.5954 779,-434 709.6637,-398.6257 700.2034,-373.46 627,-347 497.8395,-300.3139 410.0091,-368.0337 332,-255 300.8093,-209.8052 310.2906,-70.0806 321,-56 333.4183,-39.6725 380.1989,-27.6343 420.9464,-19.9771"/>
<polygon fill="#191970" stroke="#191970" points="421.6666,-23.4036 430.8799,-18.1724 420.4154,-16.5163 421.6666,-23.4036"/>
</g>
<!-- Node37&#45;&gt;Node35 -->
<g id="edge40" class="edge">
<title>Node37&#45;&gt;Node35</title>
<path fill="none" stroke="#191970" d="M940.6157,-470.4445C984.6505,-462.3015 1039.8028,-449.4735 1057,-434 1107.5023,-388.5597 1068.0569,-343.6422 1111,-291 1129.9399,-267.7824 1143.4541,-272.1836 1168,-255 1224.8133,-215.2271 1288.6704,-164.0388 1320.1983,-138.3061"/>
<polygon fill="#191970" stroke="#191970" points="1322.6807,-140.7971 1328.2007,-131.7538 1318.2461,-135.381 1322.6807,-140.7971"/>
</g>
<!-- Node37&#45;&gt;Node33 -->
<g id="edge41" class="edge">
<title>Node37&#45;&gt;Node33</title>
<path fill="none" stroke="#191970" d="M873.6842,-470.2455C867.7821,-462.3761 859.3258,-451.101 852.2406,-441.6542"/>
<polygon fill="#191970" stroke="#191970" points="855.0321,-439.5427 846.232,-433.6427 849.432,-443.7427 855.0321,-439.5427"/>
</g>
<!-- Node23 -->
<g id="node29" class="node">
<title>Node23</title>
<g id="a_node29"><a xlink:href="api_2packet_8h.html" target="_top" xlink:title="ODP packet descriptor. ">
<polygon fill="#ffffff" stroke="#000000" points="950,-414.5 950,-433.5 1048,-433.5 1048,-414.5 950,-414.5"/>
<text text-anchor="middle" x="999" y="-421.5" font-family="Helvetica,sans-Serif" font-size="10.00" fill="#000000">odp/api/packet.h</text>
</a>
</g>
</g>
<!-- Node37&#45;&gt;Node23 -->
<g id="edge45" class="edge">
<title>Node37&#45;&gt;Node23</title>
<path fill="none" stroke="#191970" d="M901.2849,-470.3733C920.1421,-461.4241 948.446,-447.9917 969.7455,-437.8835"/>
<polygon fill="#191970" stroke="#191970" points="971.4461,-440.9506 978.9798,-433.5011 968.4449,-434.6266 971.4461,-440.9506"/>
</g>
<!-- Node34 -->
<g id="node28" class="node">
<title>Node34</title>
<g id="a_node28"><a xlink:href="spec_2support_8h.html" target="_top" xlink:title="ODP support API. ">
<polygon fill="#ffffff" stroke="#000000" points="849.5,-56.5 849.5,-75.5 976.5,-75.5 976.5,-56.5 849.5,-56.5"/>
<text text-anchor="middle" x="913" y="-63.5" font-family="Helvetica,sans-Serif" font-size="10.00" fill="#000000">odp/api/spec/support.h</text>
</a>
</g>
</g>
<!-- Node33&#45;&gt;Node34 -->
<g id="edge42" class="edge">
<title>Node33&#45;&gt;Node34</title>
<path fill="none" stroke="#191970" d="M847.0627,-414.2238C867.5507,-388.3544 920,-315.2667 920,-245 920,-245 920,-245 920,-183.5 920,-149.079 916.9696,-109.0863 914.8966,-85.755"/>
<polygon fill="#191970" stroke="#191970" points="918.3764,-85.3738 913.9733,-75.7373 911.4059,-86.0163 918.3764,-85.3738"/>
</g>
<!-- Node34&#45;&gt;Node3 -->
<g id="edge43" class="edge">
<title>Node34&#45;&gt;Node3</title>
<path fill="none" stroke="#191970" d="M976.5728,-56.9133C979.4187,-56.5876 982.2379,-56.281 985,-56 1217.9857,-32.2945 1495.3563,-18.4496 1623.1299,-12.878"/>
<polygon fill="#191970" stroke="#191970" points="1623.3382,-16.3723 1633.1777,-12.4435 1623.0358,-9.3789 1623.3382,-16.3723"/>
</g>
<!-- Node34&#45;&gt;Node12 -->
<g id="edge44" class="edge">
<title>Node34&#45;&gt;Node12</title>
<path fill="none" stroke="#191970" d="M849.3021,-57.2492C846.1571,-56.825 843.043,-56.4067 840,-56 740.1587,-42.6565 624.3643,-27.6581 553.3991,-18.5207"/>
<polygon fill="#191970" stroke="#191970" points="553.6263,-15.0211 543.2614,-17.2159 552.7328,-21.9639 553.6263,-15.0211"/>
</g>
<!-- Node23&#45;&gt;Node5 -->
<g id="edge46" class="edge">
<title>Node23&#45;&gt;Node5</title>
<path fill="none" stroke="#191970" d="M982.1548,-414.3811C967.8067,-405.786 947.0285,-392.3627 931,-378 890.0479,-341.304 850.3689,-289.7952 830.7394,-262.9182"/>
<polygon fill="#191970" stroke="#191970" points="833.5712,-260.8613 824.8781,-254.8047 827.8969,-264.9604 833.5712,-260.8613"/>
</g>
<!-- Node23&#45;&gt;Node13 -->
<g id="edge49" class="edge">
<title>Node23&#45;&gt;Node13</title>
<path fill="none" stroke="#191970" d="M949.919,-417.1242C871.3917,-406.1232 717.3001,-384.5364 628.1425,-372.0462"/>
<polygon fill="#191970" stroke="#191970" points="628.5205,-368.565 618.1316,-370.6437 627.5493,-375.4973 628.5205,-368.565"/>
</g>
<!-- Node23&#45;&gt;Node15 -->
<g id="edge51" class="edge">
<title>Node23&#45;&gt;Node15</title>
<path fill="none" stroke="#191970" d="M975.2592,-414.35C954.4844,-405.6335 923.696,-392.0513 898,-378 875.7182,-365.8156 873.9614,-355.4135 850,-347 701.6206,-294.8998 640.7768,-376.9215 498,-311 474.8509,-300.3119 454.6104,-278.6414 442.1401,-263.0441"/>
<polygon fill="#191970" stroke="#191970" points="444.5961,-260.4953 435.7324,-254.6913 439.0421,-264.756 444.5961,-260.4953"/>
</g>
<!-- Node23&#45;&gt;Node16 -->
<g id="edge52" class="edge">
<title>Node23&#45;&gt;Node16</title>
<path fill="none" stroke="#191970" d="M951.8254,-414.4159C839.4624,-391.5236 558.4244,-333.8691 465,-311 396.2019,-294.1591 317.0859,-271.4417 269.8887,-257.5279"/>
<polygon fill="#191970" stroke="#191970" points="270.6136,-254.0925 260.0316,-254.6131 268.6286,-260.8052 270.6136,-254.0925"/>
</g>
<!-- Node23&#45;&gt;Node18 -->
<g id="edge47" class="edge">
<title>Node23&#45;&gt;Node18</title>
<path fill="none" stroke="#191970" d="M1048.3642,-422.303C1174.4139,-417.6227 1501.1847,-403.182 1543,-378 1583.5022,-353.6088 1644.6831,-244.3654 1658,-199 1663.6058,-179.9032 1659.7324,-157.1763 1655.4604,-141.3849"/>
<polygon fill="#191970" stroke="#191970" points="1658.7778,-140.2622 1652.5508,-131.6904 1652.0732,-142.2744 1658.7778,-140.2622"/>
</g>
<!-- Node23&#45;&gt;Node19 -->
<g id="edge50" class="edge">
<title>Node23&#45;&gt;Node19</title>
<path fill="none" stroke="#191970" d="M1048.0126,-421.6047C1178.3738,-415.021 1527.0562,-395.9454 1576,-378 1646.5713,-352.1248 1714.3044,-291.385 1744.5309,-261.7941"/>
<polygon fill="#191970" stroke="#191970" points="1747.0878,-264.1875 1751.711,-254.6545 1742.152,-259.2237 1747.0878,-264.1875"/>
</g>
<!-- Node24 -->
<g id="node30" class="node">
<title>Node24</title>
<polygon fill="#ffffff" stroke="#bfbfbf" points="1158,-353 1158,-372 1288,-372 1288,-353 1158,-353"/>
<text text-anchor="middle" x="1223" y="-360" font-family="Helvetica,sans-Serif" font-size="10.00" fill="#000000">odp/api/abi/packet_io.h</text>
</g>
<!-- Node23&#45;&gt;Node24 -->
<g id="edge48" class="edge">
<title>Node23&#45;&gt;Node24</title>
<path fill="none" stroke="#191970" d="M1034,-414.3906C1072.9588,-403.6944 1136.0093,-386.3836 1178.4571,-374.7294"/>
<polygon fill="#191970" stroke="#191970" points="1179.5293,-378.0646 1188.2458,-372.0419 1177.6759,-371.3144 1179.5293,-378.0646"/>
</g>
<!-- Node25 -->
<g id="node31" class="node">
<title>Node25</title>
<g id="a_node31"><a xlink:href="api_2spec_2packet_8h.html" target="_top" xlink:title="ODP packet descriptor. ">
<polygon fill="#ffffff" stroke="#000000" points="940.5,-353 940.5,-372 1063.5,-372 1063.5,-353 940.5,-353"/>
<text text-anchor="middle" x="1002" y="-360" font-family="Helvetica,sans-Serif" font-size="10.00" fill="#000000">odp/api/spec/packet.h</text>
</a>
</g>
</g>
<!-- Node23&#45;&gt;Node25 -->
<g id="edge53" class="edge">
<title>Node23&#45;&gt;Node25</title>
<path fill="none" stroke="#191970" d="M999.4688,-414.3906C999.8846,-405.8657 1000.5054,-393.1392 1001.0281,-382.4235"/>
<polygon fill="#191970" stroke="#191970" points="1004.5332,-382.4035 1001.5246,-372.2449 997.5415,-382.0624 1004.5332,-382.4035"/>
</g>
<!-- Node25&#45;&gt;Node3 -->
<g id="edge54" class="edge">
<title>Node25&#45;&gt;Node3</title>
<path fill="none" stroke="#191970" d="M1063.6418,-354.8234C1164.2909,-341.2451 1369.4046,-309.1913 1536,-255 1592.7354,-236.5447 1610.7541,-235.4325 1658,-199 1688.5086,-175.474 1700.0187,-168.273 1713,-132 1724.3814,-100.1975 1719.5732,-89.132 1713,-56 1711.1352,-46.6003 1707.3201,-36.7115 1703.5946,-28.5215"/>
<polygon fill="#191970" stroke="#191970" points="1706.7433,-26.993 1699.2318,-19.5212 1700.4443,-30.0464 1706.7433,-26.993"/>
</g>
<!-- Node25&#45;&gt;Node12 -->
<g id="edge61" class="edge">
<title>Node25&#45;&gt;Node12</title>
<path fill="none" stroke="#191970" d="M940.2227,-353.7033C923.3064,-351.4029 904.9592,-349.0074 888,-347 808.8171,-337.6274 596.636,-356.2735 531,-311 499.9132,-289.5574 520.1175,-261.2833 493,-235 465.5837,-208.427 437.2231,-230.0469 415,-199 397.5736,-174.6543 409.5577,-161.8993 408,-132 406.2088,-97.6172 403.4276,-84.325 423,-56 431.951,-43.0462 445.786,-32.4437 458.3058,-24.6959"/>
<polygon fill="#191970" stroke="#191970" points="460.2264,-27.6276 467.1012,-19.566 456.6997,-21.5809 460.2264,-27.6276"/>
</g>
<!-- Node26 -->
<g id="node32" class="node">
<title>Node26</title>
<g id="a_node32"><a xlink:href="api_2time_8h.html" target="_top" xlink:title="ODP time. ">
<polygon fill="#ffffff" stroke="#000000" points="976.5,-291.5 976.5,-310.5 1063.5,-310.5 1063.5,-291.5 976.5,-291.5"/>
<text text-anchor="middle" x="1020" y="-298.5" font-family="Helvetica,sans-Serif" font-size="10.00" fill="#000000">odp/api/time.h</text>
</a>
</g>
</g>
<!-- Node25&#45;&gt;Node26 -->
<g id="edge55" class="edge">
<title>Node25&#45;&gt;Node26</title>
<path fill="none" stroke="#191970" d="M1004.8125,-352.8906C1007.3339,-344.276 1011.111,-331.3708 1014.2676,-320.5858"/>
<polygon fill="#191970" stroke="#191970" points="1017.6979,-321.3254 1017.1478,-310.7449 1010.9797,-319.3591 1017.6979,-321.3254"/>
</g>
<!-- Node26&#45;&gt;Node5 -->
<g id="edge56" class="edge">
<title>Node26&#45;&gt;Node5</title>
<path fill="none" stroke="#191970" d="M985.275,-291.3733C951.2492,-281.9404 899.2563,-267.5265 862.2766,-257.2747"/>
<polygon fill="#191970" stroke="#191970" points="862.8435,-253.7999 852.2719,-254.5011 860.9734,-260.5455 862.8435,-253.7999"/>
</g>
<!-- Node27 -->
<g id="node33" class="node">
<title>Node27</title>
<polygon fill="#ffffff" stroke="#bfbfbf" points="1054.5,-235.5 1054.5,-254.5 1159.5,-254.5 1159.5,-235.5 1054.5,-235.5"/>
<text text-anchor="middle" x="1107" y="-242.5" font-family="Helvetica,sans-Serif" font-size="10.00" fill="#000000">odp/api/abi/time.h</text>
</g>
<!-- Node26&#45;&gt;Node27 -->
<g id="edge57" class="edge">
<title>Node26&#45;&gt;Node27</title>
<path fill="none" stroke="#191970" d="M1035.1542,-291.2455C1048.5027,-282.6534 1068.1586,-270.0014 1083.5383,-260.1018"/>
<polygon fill="#191970" stroke="#191970" points="1085.5051,-262.9982 1092.0194,-254.6427 1081.7164,-257.1121 1085.5051,-262.9982"/>
</g>
<!-- Node28 -->
<g id="node34" class="node">
<title>Node28</title>
<g id="a_node34"><a xlink:href="api_2spec_2time_8h.html" target="_top" xlink:title="ODP time. ">
<polygon fill="#ffffff" stroke="#000000" points="994.5,-56.5 994.5,-75.5 1107.5,-75.5 1107.5,-56.5 994.5,-56.5"/>
<text text-anchor="middle" x="1051" y="-63.5" font-family="Helvetica,sans-Serif" font-size="10.00" fill="#000000">odp/api/spec/time.h</text>
</a>
</g>
</g>
<!-- Node26&#45;&gt;Node28 -->
<g id="edge58" class="edge">
<title>Node26&#45;&gt;Node28</title>
<path fill="none" stroke="#191970" d="M1021.2536,-291.4967C1025.8782,-256.4391 1042.0417,-133.9096 1048.4013,-85.7"/>
<polygon fill="#191970" stroke="#191970" points="1051.8928,-85.9935 1049.7308,-75.6216 1044.9529,-85.0779 1051.8928,-85.9935"/>
</g>
<!-- Node28&#45;&gt;Node3 -->
<g id="edge59" class="edge">
<title>Node28&#45;&gt;Node3</title>
<path fill="none" stroke="#191970" d="M1107.8475,-57.1255C1110.9407,-56.7242 1114.0067,-56.3456 1117,-56 1298.8119,-35.0058 1513.9675,-20.6014 1623.0039,-14.0362"/>
<polygon fill="#191970" stroke="#191970" points="1623.4466,-17.5161 1633.2198,-13.4254 1623.0287,-10.5286 1623.4466,-17.5161"/>
</g>
<!-- Node28&#45;&gt;Node12 -->
<g id="edge60" class="edge">
<title>Node28&#45;&gt;Node12</title>
<path fill="none" stroke="#191970" d="M994.1471,-57.171C991.0553,-56.758 987.9911,-56.3644 985,-56 830.7401,-37.2054 648.76,-22.2064 553.2206,-14.8823"/>
<polygon fill="#191970" stroke="#191970" points="553.3641,-11.3832 543.1268,-14.1125 552.8317,-18.3629 553.3641,-11.3832"/>
</g>
<!-- Node38&#45;&gt;Node5 -->
<g id="edge65" class="edge">
<title>Node38&#45;&gt;Node5</title>
<path fill="none" stroke="#191970" d="M1004.8526,-531.1399C940.9699,-524.6778 841.5366,-511.5 811,-490 753.9163,-449.8089 714.7786,-409.4428 746,-347 757.9257,-323.1486 778.1169,-332.4205 794,-311 804.1997,-297.2443 810.4316,-278.7159 813.9794,-264.7924"/>
<polygon fill="#191970" stroke="#191970" points="817.4488,-265.3219 816.2737,-254.7924 810.626,-263.7565 817.4488,-265.3219"/>
</g>
<!-- Node38&#45;&gt;Node13 -->
<g id="edge68" class="edge">
<title>Node38&#45;&gt;Node13</title>
<path fill="none" stroke="#191970" d="M1004.976,-532.9637C946.7661,-528.4236 853.7649,-517.2428 778,-490 699.6967,-461.8445 617.6812,-405.3614 580.4929,-378.0261"/>
<polygon fill="#191970" stroke="#191970" points="582.553,-375.1965 572.4382,-372.0434 578.3791,-380.816 582.553,-375.1965"/>
</g>
<!-- Node38&#45;&gt;Node16 -->
<g id="edge66" class="edge">
<title>Node38&#45;&gt;Node16</title>
<path fill="none" stroke="#191970" d="M1004.7815,-533.0706C937.9357,-528.4825 823.5258,-517.1234 729,-490 533.0507,-433.7741 320.5305,-304.3107 251.2413,-260.1104"/>
<polygon fill="#191970" stroke="#191970" points="253.0956,-257.1417 242.7891,-254.6868 249.3152,-263.0331 253.0956,-257.1417"/>
</g>
<!-- Node38&#45;&gt;Node19 -->
<g id="edge70" class="edge">
<title>Node38&#45;&gt;Node19</title>
<path fill="none" stroke="#191970" d="M1117.1709,-530.5728C1265.3943,-515.7671 1658.6988,-473.1637 1702,-434 1751.4417,-389.2826 1759.8331,-303.8492 1760.996,-265.0539"/>
<polygon fill="#191970" stroke="#191970" points="1764.5026,-264.6624 1761.1623,-254.608 1757.5035,-264.551 1764.5026,-264.6624"/>
</g>
<!-- Node38&#45;&gt;Node24 -->
<g id="edge69" class="edge">
<title>Node38&#45;&gt;Node24</title>
<path fill="none" stroke="#191970" d="M1090.729,-526.4182C1110.2629,-518.9448 1135.3715,-506.9635 1153,-490 1185.6089,-458.6212 1206.8667,-408.6928 1216.6857,-381.5633"/>
<polygon fill="#191970" stroke="#191970" points="1220.0111,-382.6562 1219.991,-372.0614 1213.3997,-380.3564 1220.0111,-382.6562"/>
</g>
<!-- Node39 -->
<g id="node36" class="node">
<title>Node39</title>
<polygon fill="#ffffff" stroke="#bfbfbf" points="998,-470.5 998,-489.5 1144,-489.5 1144,-470.5 998,-470.5"/>
<text text-anchor="middle" x="1071" y="-477.5" font-family="Helvetica,sans-Serif" font-size="10.00" fill="#000000">odp/api/abi/classification.h</text>
</g>
<!-- Node38&#45;&gt;Node39 -->
<g id="edge67" class="edge">
<title>Node38&#45;&gt;Node39</title>
<path fill="none" stroke="#191970" d="M1062.7419,-526.2455C1064.0467,-518.9382 1065.876,-508.6944 1067.4813,-499.7046"/>
<polygon fill="#191970" stroke="#191970" points="1070.9656,-500.1022 1069.2781,-489.6427 1064.0746,-498.8717 1070.9656,-500.1022"/>
</g>
<!-- Node40 -->
<g id="node37" class="node">
<title>Node40</title>
<g id="a_node37"><a xlink:href="api_2spec_2packet__io_8h.html" target="_top" xlink:title="ODP Packet IO. ">
<polygon fill="#ffffff" stroke="#000000" points="1283.5,-470.5 1283.5,-489.5 1420.5,-489.5 1420.5,-470.5 1283.5,-470.5"/>
<text text-anchor="middle" x="1352" y="-477.5" font-family="Helvetica,sans-Serif" font-size="10.00" fill="#000000">odp/api/spec/packet_io.h</text>
</a>
</g>
</g>
<!-- Node38&#45;&gt;Node40 -->
<g id="edge71" class="edge">
<title>Node38&#45;&gt;Node40</title>
<path fill="none" stroke="#191970" d="M1110.694,-526.4369C1161.0196,-516.7522 1238.8723,-501.7703 1292.4651,-491.4569"/>
<polygon fill="#191970" stroke="#191970" points="1293.3525,-494.8504 1302.5109,-489.5237 1292.0297,-487.9765 1293.3525,-494.8504"/>
</g>
<!-- Node40&#45;&gt;Node3 -->
<g id="edge72" class="edge">
<title>Node40&#45;&gt;Node3</title>
<path fill="none" stroke="#191970" d="M1420.6351,-476.4565C1504.4086,-471.1142 1640.3164,-458.8583 1684,-434 1807.821,-363.5393 1884,-325.9652 1884,-183.5 1884,-183.5 1884,-183.5 1884,-122 1884,-90.7875 1882.9191,-77.1882 1860,-56 1844.969,-42.1042 1798.5433,-29.9157 1758.5985,-21.5823"/>
<polygon fill="#191970" stroke="#191970" points="1759.103,-18.1132 1748.6057,-19.548 1757.7065,-24.9726 1759.103,-18.1132"/>
</g>
<!-- Node40&#45;&gt;Node12 -->
<g id="edge87" class="edge">
<title>Node40&#45;&gt;Node12</title>
<path fill="none" stroke="#191970" d="M1283.3638,-475.0184C1183.6116,-467.3188 1003.6516,-451.5693 941,-434 920.7057,-428.3089 917.7083,-421.472 898,-414 800.437,-377.0111 774.5823,-370.8275 673,-347 581.6603,-325.5751 553.4189,-342.3699 465,-311 416.9931,-293.9677 390.7581,-298.9464 365,-255 350.1991,-229.7479 301.4684,-199.1928 408,-56 418.5909,-41.7644 434.9979,-31.1895 450.1213,-23.793"/>
<polygon fill="#191970" stroke="#191970" points="451.6682,-26.9343 459.3084,-19.5941 448.7584,-20.5677 451.6682,-26.9343"/>
</g>
<!-- Node40&#45;&gt;Node17 -->
<g id="edge80" class="edge">
<title>Node40&#45;&gt;Node17</title>
<path fill="none" stroke="#191970" d="M1353.5824,-470.1743C1356.8908,-445.9223 1361.8046,-382.6087 1330,-347 1315.9659,-331.2873 1266.3917,-318.6874 1225.7403,-310.6752"/>
<polygon fill="#191970" stroke="#191970" points="1226.3719,-307.2326 1215.8918,-308.7877 1225.0542,-314.1075 1226.3719,-307.2326"/>
</g>
<!-- Node40&#45;&gt;Node35 -->
<g id="edge73" class="edge">
<title>Node40&#45;&gt;Node35</title>
<path fill="none" stroke="#191970" d="M1420.6466,-472.301C1511.1488,-461.8199 1659.953,-443.3032 1668,-434 1673.8151,-427.2771 1672.5654,-421.6269 1668,-414 1588.6745,-281.4795 1449.3074,-380.2948 1359,-255 1334.667,-221.2398 1335.0226,-169.9352 1337.473,-141.9396"/>
<polygon fill="#191970" stroke="#191970" points="1340.9738,-142.1152 1338.546,-131.8023 1334.0127,-141.3783 1340.9738,-142.1152"/>
</g>
<!-- Node40&#45;&gt;Node23 -->
<g id="edge86" class="edge">
<title>Node40&#45;&gt;Node23</title>
<path fill="none" stroke="#191970" d="M1291.7182,-470.4369C1226.4844,-460.0882 1123.1222,-443.6908 1058.2814,-433.4044"/>
<polygon fill="#191970" stroke="#191970" points="1058.6422,-429.918 1048.2173,-431.8078 1057.5454,-436.8315 1058.6422,-429.918"/>
</g>
<!-- Node40&#45;&gt;Node26 -->
<g id="edge85" class="edge">
<title>Node40&#45;&gt;Node26</title>
<path fill="none" stroke="#191970" d="M1351.1365,-470.4267C1348.3534,-445.6318 1337.2935,-379.0291 1297,-347 1279.8016,-333.329 1149.4676,-316.1016 1073.8627,-307.1056"/>
<polygon fill="#191970" stroke="#191970" points="1073.9165,-303.5877 1063.5753,-305.892 1073.0964,-310.5395 1073.9165,-303.5877"/>
</g>
<!-- Node41 -->
<g id="node38" class="node">
<title>Node41</title>
<g id="a_node38"><a xlink:href="packet__io__stats_8h.html" target="_top" xlink:title="ODP packet IO stats. ">
<polygon fill="#ffffff" stroke="#000000" points="1518.5,-414.5 1518.5,-433.5 1659.5,-433.5 1659.5,-414.5 1518.5,-414.5"/>
<text text-anchor="middle" x="1589" y="-421.5" font-family="Helvetica,sans-Serif" font-size="10.00" fill="#000000">odp/api/packet_io_stats.h</text>
</a>
</g>
</g>
<!-- Node40&#45;&gt;Node41 -->
<g id="edge74" class="edge">
<title>Node40&#45;&gt;Node41</title>
<path fill="none" stroke="#191970" d="M1392.4725,-470.4369C1432.948,-460.8731 1495.2867,-446.1432 1538.8703,-435.845"/>
<polygon fill="#191970" stroke="#191970" points="1539.7673,-439.2295 1548.6945,-433.5237 1538.1576,-432.4171 1539.7673,-439.2295"/>
</g>
<!-- Node43 -->
<g id="node40" class="node">
<title>Node43</title>
<g id="a_node40"><a xlink:href="reassembly_8h.html" target="_top" xlink:title="ODP REASSEMBLY API &#45; platform specific header. ">
<polygon fill="#ffffff" stroke="#000000" points="1380,-414.5 1380,-433.5 1500,-433.5 1500,-414.5 1380,-414.5"/>
<text text-anchor="middle" x="1440" y="-421.5" font-family="Helvetica,sans-Serif" font-size="10.00" fill="#000000">odp/api/reassembly.h</text>
</a>
</g>
</g>
<!-- Node40&#45;&gt;Node43 -->
<g id="edge81" class="edge">
<title>Node40&#45;&gt;Node43</title>
<path fill="none" stroke="#191970" d="M1367.3284,-470.2455C1380.8303,-461.6534 1400.7122,-449.0014 1416.2686,-439.1018"/>
<polygon fill="#191970" stroke="#191970" points="1418.2897,-441.9643 1424.8472,-433.6427 1414.5315,-436.0587 1418.2897,-441.9643"/>
</g>
<!-- Node42 -->
<g id="node39" class="node">
<title>Node42</title>
<g id="a_node39"><a xlink:href="spec_2packet__io__stats_8h.html" target="_top" xlink:title="ODP Packet IO statistics. ">
<polygon fill="#ffffff" stroke="#000000" points="1420,-347.5 1420,-377.5 1534,-377.5 1534,-347.5 1420,-347.5"/>
<text text-anchor="start" x="1428" y="-365.5" font-family="Helvetica,sans-Serif" font-size="10.00" fill="#000000">odp/api/spec/packet</text>
<text text-anchor="middle" x="1477" y="-354.5" font-family="Helvetica,sans-Serif" font-size="10.00" fill="#000000">_io_stats.h</text>
</a>
</g>
</g>
<!-- Node41&#45;&gt;Node42 -->
<g id="edge75" class="edge">
<title>Node41&#45;&gt;Node42</title>
<path fill="none" stroke="#191970" d="M1571.5,-414.3906C1555.9913,-405.8747 1532.847,-393.166 1513.3451,-382.4573"/>
<polygon fill="#191970" stroke="#191970" points="1514.8484,-379.2899 1504.3983,-377.5446 1511.4791,-385.4257 1514.8484,-379.2899"/>
</g>
<!-- Node42&#45;&gt;Node3 -->
<g id="edge76" class="edge">
<title>Node42&#45;&gt;Node3</title>
<path fill="none" stroke="#191970" d="M1496.1549,-347.3851C1528.8583,-322.027 1598.1325,-270.2369 1662,-235 1697.5638,-215.3787 1715.7297,-226.083 1746,-199 1795.0088,-155.1516 1818.3249,-112.0923 1784,-56 1774.6591,-40.7354 1758.4772,-30.3326 1742.3874,-23.3404"/>
<polygon fill="#191970" stroke="#191970" points="1743.5629,-20.0414 1732.977,-19.6067 1740.9813,-26.548 1743.5629,-20.0414"/>
</g>
<!-- Node42&#45;&gt;Node12 -->
<g id="edge79" class="edge">
<title>Node42&#45;&gt;Node12</title>
<path fill="none" stroke="#191970" d="M1440.0381,-347.4562C1414.9149,-337.2153 1380.9342,-323.3332 1351,-311 1269.5721,-277.4508 1253.8521,-254.6333 1168,-235 1098.3526,-219.0725 584.0702,-240.6208 526,-199 472.4835,-160.643 478.1496,-69.7961 483.6711,-29.6536"/>
<polygon fill="#191970" stroke="#191970" points="487.1321,-30.1742 485.1754,-19.7617 480.2117,-29.1218 487.1321,-30.1742"/>
</g>
<!-- Node42&#45;&gt;Node17 -->
<g id="edge78" class="edge">
<title>Node42&#45;&gt;Node17</title>
<path fill="none" stroke="#191970" d="M1419.9645,-351.1483C1364.641,-340.1373 1281.1368,-323.5175 1225.6169,-312.4674"/>
<polygon fill="#191970" stroke="#191970" points="1226.0798,-308.991 1215.5889,-310.4716 1224.7133,-315.8563 1226.0798,-308.991"/>
</g>
<!-- Node42&#45;&gt;Node35 -->
<g id="edge77" class="edge">
<title>Node42&#45;&gt;Node35</title>
<path fill="none" stroke="#191970" d="M1438.4909,-347.482C1402.0189,-330.932 1349.4484,-300.477 1326,-255 1307.0255,-218.1998 1321.2794,-168.1318 1331.6756,-141.1376"/>
<polygon fill="#191970" stroke="#191970" points="1334.992,-142.2739 1335.525,-131.6925 1328.5097,-139.632 1334.992,-142.2739"/>
</g>
<!-- Node44 -->
<g id="node41" class="node">
<title>Node44</title>
<g id="a_node41"><a xlink:href="spec_2reassembly_8h.html" target="_top" xlink:title="ODP REASSEMBLY API. ">
<polygon fill="#ffffff" stroke="#000000" points="1126,-56.5 1126,-75.5 1272,-75.5 1272,-56.5 1126,-56.5"/>
<text text-anchor="middle" x="1199" y="-63.5" font-family="Helvetica,sans-Serif" font-size="10.00" fill="#000000">odp/api/spec/reassembly.h</text>
</a>
</g>
</g>
<!-- Node43&#45;&gt;Node44 -->
<g id="edge82" class="edge">
<title>Node43&#45;&gt;Node44</title>
<path fill="none" stroke="#191970" d="M1431.7714,-414.2998C1415.609,-395.0889 1378.8671,-350.629 1351,-311 1293.4231,-229.1216 1233.0516,-125.6688 1209.3826,-84.3053"/>
<polygon fill="#191970" stroke="#191970" points="1212.4114,-82.5513 1204.418,-75.5974 1206.3303,-86.0183 1212.4114,-82.5513"/>
</g>
<!-- Node44&#45;&gt;Node3 -->
<g id="edge83" class="edge">
<title>Node44&#45;&gt;Node3</title>
<path fill="none" stroke="#191970" d="M1272.1,-57.5861C1276.8038,-57.0482 1281.4682,-56.5159 1286,-56 1404.1803,-42.5459 1541.6397,-27.0875 1623.0359,-17.9536"/>
<polygon fill="#191970" stroke="#191970" points="1623.6189,-21.4103 1633.1663,-16.817 1622.8384,-14.4539 1623.6189,-21.4103"/>
</g>
<!-- Node44&#45;&gt;Node12 -->
<g id="edge84" class="edge">
<title>Node44&#45;&gt;Node12</title>
<path fill="none" stroke="#191970" d="M1125.6999,-56.9796C1122.4232,-56.636 1119.1782,-56.3075 1116,-56 911.0295,-36.1684 667.7375,-20.6483 553.0594,-13.8084"/>
<polygon fill="#191970" stroke="#191970" points="553.2221,-10.312 543.0322,-13.213 552.8071,-17.2997 553.2221,-10.312"/>
</g>
<!-- Node46 -->
<g id="node43" class="node">
<title>Node46</title>
<g id="a_node43"><a xlink:href="spec_2protocols_8h.html" target="_top" xlink:title="ODP protocols. ">
<polygon fill="#ffffff" stroke="#000000" points="1530.5,-56.5 1530.5,-75.5 1665.5,-75.5 1665.5,-56.5 1530.5,-56.5"/>
<text text-anchor="middle" x="1598" y="-63.5" font-family="Helvetica,sans-Serif" font-size="10.00" fill="#000000">odp/api/spec/protocols.h</text>
</a>
</g>
</g>
<!-- Node45&#45;&gt;Node46 -->
<g id="edge89" class="edge">
<title>Node45&#45;&gt;Node46</title>
<path fill="none" stroke="#191970" d="M1665.2696,-650.9527C1762.5104,-635.2274 1954,-596.571 1954,-536 1954,-536 1954,-536 1954,-424 1954,-248.7823 1857.2039,-211.5312 1713,-112 1691.7261,-97.3165 1665.074,-86.28 1642.7856,-78.7031"/>
<polygon fill="#191970" stroke="#191970" points="1643.8017,-75.353 1633.209,-75.5661 1641.6226,-82.0052 1643.8017,-75.353"/>
</g>
<!-- Node46&#45;&gt;Node3 -->
<g id="edge90" class="edge">
<title>Node46&#45;&gt;Node3</title>
<path fill="none" stroke="#191970" d="M1614.7219,-56.2455C1629.5889,-47.5731 1651.5466,-34.7645 1668.5858,-24.825"/>
<polygon fill="#191970" stroke="#191970" points="1670.5955,-27.7047 1677.4697,-19.6427 1667.0683,-21.6582 1670.5955,-27.7047"/>
</g>
<!-- Node46&#45;&gt;Node12 -->
<g id="edge91" class="edge">
<title>Node46&#45;&gt;Node12</title>
<path fill="none" stroke="#191970" d="M1530.2556,-59.7037C1514.4295,-58.3594 1497.6313,-57.0347 1482,-56 1132.4953,-32.8653 713.1605,-17.5425 553.2987,-12.1528"/>
<polygon fill="#191970" stroke="#191970" points="553.2594,-8.6496 543.1476,-11.8121 553.0246,-15.6456 553.2594,-8.6496"/>
</g>
<!-- Node47&#45;&gt;Node5 -->
<g id="edge93" class="edge">
<title>Node47&#45;&gt;Node5</title>
<path fill="none" stroke="#191970" d="M766.9341,-652.1901C698.9357,-644.2415 596.4884,-629.9953 561,-613 514.429,-590.6972 474,-587.636 474,-536 474,-536 474,-536 474,-424 474,-388.7513 467.0352,-370.839 493,-347 568.5688,-277.6184 625.6169,-348.7692 721,-311 736.8692,-304.7162 773.5316,-278.3746 796.9618,-260.9297"/>
<polygon fill="#191970" stroke="#191970" points="799.3188,-263.5372 805.2228,-254.7398 795.1214,-257.9352 799.3188,-263.5372"/>
</g>
<!-- Node47&#45;&gt;Node13 -->
<g id="edge96" class="edge">
<title>Node47&#45;&gt;Node13</title>
<path fill="none" stroke="#191970" d="M779.0598,-649.4527C742.4845,-641.8382 692.7899,-629.6773 651,-613 594.2676,-590.3595 561.9212,-598.6787 531,-546 499.6453,-492.5827 531.653,-416.0443 549.6031,-381.1349"/>
<polygon fill="#191970" stroke="#191970" points="552.8167,-382.5469 554.4334,-372.0762 546.6399,-379.2533 552.8167,-382.5469"/>
</g>
<!-- Node47&#45;&gt;Node16 -->
<g id="edge94" class="edge">
<title>Node47&#45;&gt;Node16</title>
<path fill="none" stroke="#191970" d="M766.74,-654.7124C590.7516,-642.1165 114,-601.9115 114,-536 114,-536 114,-536 114,-362.5 114,-314.0473 164.5515,-278.0212 198.3292,-259.3573"/>
<polygon fill="#191970" stroke="#191970" points="200.1693,-262.343 207.3555,-254.5577 196.8828,-256.1624 200.1693,-262.343"/>
</g>
<!-- Node47&#45;&gt;Node19 -->
<g id="edge98" class="edge">
<title>Node47&#45;&gt;Node19</title>
<path fill="none" stroke="#191970" d="M895.0943,-653.303C973.8647,-645.6739 1102.5481,-630.9919 1147,-613 1168.8387,-604.1608 1168.2535,-591.0636 1190,-582 1317.2648,-528.9579 1802,-617.876 1802,-480 1802,-480 1802,-480 1802,-362.5 1802,-325.8002 1783.9489,-286.0714 1771.8016,-263.4911"/>
<polygon fill="#191970" stroke="#191970" points="1774.8027,-261.6865 1766.8743,-254.6586 1768.6896,-265.0968 1774.8027,-261.6865"/>
</g>
<!-- Node47&#45;&gt;Node24 -->
<g id="edge97" class="edge">
<title>Node47&#45;&gt;Node24</title>
<path fill="none" stroke="#191970" d="M895.2433,-655.037C967.6216,-649.4669 1079.6567,-637.1757 1114,-613 1188.3405,-560.6686 1184.2226,-520.2377 1213,-434 1218.6351,-417.1132 1221.0955,-396.9556 1222.1694,-382.3546"/>
<polygon fill="#191970" stroke="#191970" points="1225.6846,-382.1901 1222.7675,-372.0048 1218.6963,-381.7861 1225.6846,-382.1901"/>
</g>
<!-- Node47&#45;&gt;Node39 -->
<g id="edge95" class="edge">
<title>Node47&#45;&gt;Node39</title>
<path fill="none" stroke="#191970" d="M841.8205,-649.4614C867.6453,-626.8808 935.2652,-568.8382 996,-526 1011.7686,-514.8779 1030.238,-503.5311 1044.9028,-494.8897"/>
<polygon fill="#191970" stroke="#191970" points="1047.0468,-497.6911 1053.9236,-489.6313 1043.5216,-491.6436 1047.0468,-497.6911"/>
</g>
<!-- Node48 -->
<g id="node45" class="node">
<title>Node48</title>
<g id="a_node45"><a xlink:href="api_2spec_2classification_8h.html" target="_top" xlink:title="ODP classification descriptor. ">
<polygon fill="#ffffff" stroke="#000000" points="660,-588 660,-607 814,-607 814,-588 660,-588"/>
<text text-anchor="middle" x="737" y="-595" font-family="Helvetica,sans-Serif" font-size="10.00" fill="#000000">odp/api/spec/classification.h</text>
</a>
</g>
</g>
<!-- Node47&#45;&gt;Node48 -->
<g id="edge99" class="edge">
<title>Node47&#45;&gt;Node48</title>
<path fill="none" stroke="#191970" d="M816.3125,-649.3906C801.2744,-639.5519 777.6824,-624.1167 760.1333,-612.6351"/>
<polygon fill="#191970" stroke="#191970" points="761.8687,-609.588 751.5844,-607.0419 758.0363,-615.4457 761.8687,-609.588"/>
</g>
<!-- Node48&#45;&gt;Node3 -->
<g id="edge100" class="edge">
<title>Node48&#45;&gt;Node3</title>
<path fill="none" stroke="#191970" d="M809.7848,-587.9768C887.9499,-577.7233 1015.7872,-560.8777 1126,-546 1511.2416,-493.996 1922,-572.2358 1922,-183.5 1922,-183.5 1922,-183.5 1922,-122 1922,-87.9282 1910.3712,-76.2905 1883,-56 1864.1705,-42.0415 1810.19,-29.6955 1764.7157,-21.3175"/>
<polygon fill="#191970" stroke="#191970" points="1765.323,-17.8706 1754.8603,-19.5383 1764.0794,-24.7593 1765.323,-17.8706"/>
</g>
<!-- Node48&#45;&gt;Node12 -->
<g id="edge108" class="edge">
<title>Node48&#45;&gt;Node12</title>
<path fill="none" stroke="#191970" d="M659.7912,-595.581C520.3769,-591.3383 232.3375,-578.7953 138,-546 87.7009,-528.5141 38,-533.2518 38,-480 38,-480 38,-480 38,-122 38,-90.7875 37.4368,-75.258 62,-56 89.6106,-34.3528 308.3188,-19.587 420.7479,-13.3477"/>
<polygon fill="#191970" stroke="#191970" points="421.1642,-16.8302 430.9577,-12.7883 420.7812,-9.8407 421.1642,-16.8302"/>
</g>
<!-- Node48&#45;&gt;Node33 -->
<g id="edge102" class="edge">
<title>Node48&#45;&gt;Node33</title>
<path fill="none" stroke="#191970" d="M742.5015,-587.8633C754.6952,-566.5392 784.9749,-513.7798 811,-470 816.4148,-460.8911 822.5236,-450.8309 827.6503,-442.4474"/>
<polygon fill="#191970" stroke="#191970" points="830.688,-444.189 832.932,-433.8345 824.7206,-440.5296 830.688,-444.189"/>
</g>
<!-- Node48&#45;&gt;Node38 -->
<g id="edge101" class="edge">
<title>Node48&#45;&gt;Node38</title>
<path fill="none" stroke="#191970" d="M787.2695,-587.9581C844.9369,-577.012 939.433,-559.0752 1000.9278,-547.4026"/>
<polygon fill="#191970" stroke="#191970" points="1001.7073,-550.8172 1010.8791,-545.5137 1000.4018,-543.94 1001.7073,-550.8172"/>
</g>
<!-- Node49 -->
<g id="node46" class="node">
<title>Node49</title>
<g id="a_node46"><a xlink:href="threshold_8h.html" target="_top" xlink:title="ODP threshold API &#45; platform specific header. ">
<polygon fill="#ffffff" stroke="#000000" points="540,-526.5 540,-545.5 650,-545.5 650,-526.5 540,-526.5"/>
<text text-anchor="middle" x="595" y="-533.5" font-family="Helvetica,sans-Serif" font-size="10.00" fill="#000000">odp/api/threshold.h</text>
</a>
</g>
</g>
<!-- Node48&#45;&gt;Node49 -->
<g id="edge103" class="edge">
<title>Node48&#45;&gt;Node49</title>
<path fill="none" stroke="#191970" d="M714.8125,-587.8906C691.0533,-577.6005 653.1595,-561.1888 626.3575,-549.5809"/>
<polygon fill="#191970" stroke="#191970" points="627.5991,-546.3045 617.0317,-545.5419 624.817,-552.7279 627.5991,-546.3045"/>
</g>
<!-- Node50 -->
<g id="node47" class="node">
<title>Node50</title>
<g id="a_node47"><a xlink:href="spec_2threshold_8h.html" target="_top" xlink:title="ODP threshold descriptor. ">
<polygon fill="#ffffff" stroke="#000000" points="540,-291.5 540,-310.5 676,-310.5 676,-291.5 540,-291.5"/>
<text text-anchor="middle" x="608" y="-298.5" font-family="Helvetica,sans-Serif" font-size="10.00" fill="#000000">odp/api/spec/threshold.h</text>
</a>
</g>
</g>
<!-- Node49&#45;&gt;Node50 -->
<g id="edge104" class="edge">
<title>Node49&#45;&gt;Node50</title>
<path fill="none" stroke="#191970" d="M582.309,-526.3703C546.323,-497.8896 448.9979,-411.9925 493,-347 503.7311,-331.1497 520.9038,-320.7606 538.7409,-313.9511"/>
<polygon fill="#191970" stroke="#191970" points="540.3686,-317.0922 548.682,-310.5243 538.0873,-310.4743 540.3686,-317.0922"/>
</g>
<!-- Node50&#45;&gt;Node3 -->
<g id="edge105" class="edge">
<title>Node50&#45;&gt;Node3</title>
<path fill="none" stroke="#191970" d="M617.9188,-291.231C647.9007,-261.7985 736.5356,-175.5297 753,-168 879.1384,-110.3127 925.3654,-149.1879 1063,-132 1156.215,-120.3592 1392.3503,-104.0621 1482,-76 1500.5902,-70.1809 1502.8166,-62.9872 1521,-56 1558.8895,-41.4404 1603.1477,-29.7637 1637.4139,-21.818"/>
<polygon fill="#191970" stroke="#191970" points="1638.2817,-25.21 1647.2536,-19.5748 1636.7258,-18.3851 1638.2817,-25.21"/>
</g>
<!-- Node50&#45;&gt;Node5 -->
<g id="edge106" class="edge">
<title>Node50&#45;&gt;Node5</title>
<path fill="none" stroke="#191970" d="M644.1003,-291.3733C679.6248,-281.9001 733.988,-267.4032 772.4619,-257.1435"/>
<polygon fill="#191970" stroke="#191970" points="773.6103,-260.4596 782.3708,-254.5011 771.8066,-253.696 773.6103,-260.4596"/>
</g>
<!-- Node50&#45;&gt;Node12 -->
<g id="edge107" class="edge">
<title>Node50&#45;&gt;Node12</title>
<path fill="none" stroke="#191970" d="M598.1263,-291.379C583.4185,-277.4559 554.4277,-251.5499 526,-235 488.4116,-213.117 459.4524,-234.9699 435,-199 399.2691,-146.4394 408.8947,-113.9467 435,-56 440.5697,-43.6369 451.2863,-33.2563 461.5506,-25.5033"/>
<polygon fill="#191970" stroke="#191970" points="463.7618,-28.2277 469.9433,-19.623 459.7451,-22.4948 463.7618,-28.2277"/>
</g>
<!-- Node52 -->
<g id="node49" class="node">
<title>Node52</title>
<polygon fill="#ffffff" stroke="#bfbfbf" points="1199,-582.5 1199,-612.5 1301,-612.5 1301,-582.5 1199,-582.5"/>
<text text-anchor="start" x="1207" y="-600.5" font-family="Helvetica,sans-Serif" font-size="10.00" fill="#000000">odp/api/abi/traffic</text>
<text text-anchor="middle" x="1250" y="-589.5" font-family="Helvetica,sans-Serif" font-size="10.00" fill="#000000">_mngr.h</text>
</g>
<!-- Node51&#45;&gt;Node52 -->
<g id="edge110" class="edge">
<title>Node51&#45;&gt;Node52</title>
<path fill="none" stroke="#191970" d="M1240.7188,-649.3906C1242.0007,-642.2234 1243.8138,-632.0862 1245.4979,-622.671"/>
<polygon fill="#191970" stroke="#191970" points="1248.9937,-623.0046 1247.3091,-612.5446 1242.103,-621.7721 1248.9937,-623.0046"/>
</g>
<!-- Node53 -->
<g id="node50" class="node">
<title>Node53</title>
<g id="a_node50"><a xlink:href="api_2spec_2traffic__mngr_8h.html" target="_top" xlink:title="Copyright (c) 2015&#45;2018, Linaro Limited All rights reserved. ">
<polygon fill="#ffffff" stroke="#000000" points="995,-582.5 995,-612.5 1105,-612.5 1105,-582.5 995,-582.5"/>
<text text-anchor="start" x="1003" y="-600.5" font-family="Helvetica,sans-Serif" font-size="10.00" fill="#000000">odp/api/spec/traffic</text>
<text text-anchor="middle" x="1050" y="-589.5" font-family="Helvetica,sans-Serif" font-size="10.00" fill="#000000">_mngr.h</text>
</a>
</g>
</g>
<!-- Node51&#45;&gt;Node53 -->
<g id="edge111" class="edge">
<title>Node51&#45;&gt;Node53</title>
<path fill="none" stroke="#191970" d="M1209.4688,-649.3906C1181.8767,-640.4123 1139.9625,-626.7735 1106.0289,-615.7316"/>
<polygon fill="#191970" stroke="#191970" points="1106.8269,-612.3107 1096.2346,-612.5446 1104.6608,-618.9672 1106.8269,-612.3107"/>
</g>
<!-- Node53&#45;&gt;Node3 -->
<g id="edge112" class="edge">
<title>Node53&#45;&gt;Node3</title>
<path fill="none" stroke="#191970" d="M1105.0916,-590.6064C1263.7858,-570.5755 1714.6446,-512.3844 1778,-490 1927.3788,-437.2223 1960,-341.9282 1960,-183.5 1960,-183.5 1960,-183.5 1960,-122 1960,-90.7875 1959.7732,-76.2252 1936,-56 1910.6601,-34.4419 1826.7315,-22.0969 1764.7909,-15.7293"/>
<polygon fill="#191970" stroke="#191970" points="1764.9622,-12.2291 1754.6645,-14.7208 1764.2684,-19.1946 1764.9622,-12.2291"/>
</g>
<!-- Node53&#45;&gt;Node5 -->
<g id="edge113" class="edge">
<title>Node53&#45;&gt;Node5</title>
<path fill="none" stroke="#191970" d="M994.7541,-590.1705C916.0137,-576.1915 776.5417,-537.2645 736,-434 721.8545,-397.9698 718.7183,-383.3575 732,-347 739.1049,-327.551 778.2327,-285.5171 801.1887,-261.931"/>
<polygon fill="#191970" stroke="#191970" points="803.7793,-264.2882 808.2842,-254.6988 798.7825,-259.3859 803.7793,-264.2882"/>
</g>
<!-- Node53&#45;&gt;Node12 -->
<g id="edge115" class="edge">
<title>Node53&#45;&gt;Node12</title>
<path fill="none" stroke="#191970" d="M994.801,-593.6744C826.4272,-581.9951 330.279,-547.5009 322,-546 201.9171,-524.2305 76,-546.0403 76,-424 76,-424 76,-424 76,-122 76,-51.4669 304.1707,-23.863 420.4965,-14.3731"/>
<polygon fill="#191970" stroke="#191970" points="421.0221,-17.8425 430.714,-13.5627 420.4685,-10.8645 421.0221,-17.8425"/>
</g>
<!-- Node53&#45;&gt;Node38 -->
<g id="edge114" class="edge">
<title>Node53&#45;&gt;Node38</title>
<path fill="none" stroke="#191970" d="M1052.7191,-582.2977C1054.1506,-574.2945 1055.9231,-564.3843 1057.4605,-555.7889"/>
<polygon fill="#191970" stroke="#191970" points="1060.9233,-556.307 1059.2388,-545.8469 1054.0327,-555.0744 1060.9233,-556.307"/>
</g>
</g>
</svg>
