<?xml version="1.0" encoding="UTF-8" standalone="no"?>
<!DOCTYPE svg PUBLIC "-//W3C//DTD SVG 1.1//EN"
 "http://www.w3.org/Graphics/SVG/1.1/DTD/svg11.dtd">
<!-- Generated by graphviz version 2.40.1 (20161225.0304)
 -->
<!-- Title: traffic_mngr.h Pages: 1 -->
<svg width="1771pt" height="957pt"
 viewBox="0.00 0.00 1770.84 957.00" xmlns="http://www.w3.org/2000/svg" xmlns:xlink="http://www.w3.org/1999/xlink">
<g id="graph0" class="graph" transform="scale(1 1) rotate(0) translate(4 953)">
<title>traffic_mngr.h</title>
<polygon fill="#ffffff" stroke="transparent" points="-4,4 -4,-953 1766.8378,-953 1766.8378,4 -4,4"/>
<!-- Node0 -->
<g id="node1" class="node">
<title>Node0</title>
<polygon fill="#bfbfbf" stroke="#000000" points="1496,-929.5 1496,-948.5 1580,-948.5 1580,-929.5 1496,-929.5"/>
<text text-anchor="middle" x="1538" y="-936.5" font-family="Helvetica,sans-Serif" font-size="10.00" fill="#000000">traffic_mngr.h</text>
</g>
<!-- Node1 -->
<g id="node2" class="node">
<title>Node1</title>
<g id="a_node2"><a xlink:href="visibility__begin_8h_source.html" target="_top" xlink:title="odp/visibility_begin.h">
<polygon fill="#ffffff" stroke="#000000" points="980.5,-.5 980.5,-19.5 1101.5,-19.5 1101.5,-.5 980.5,-.5"/>
<text text-anchor="middle" x="1041" y="-7.5" font-family="Helvetica,sans-Serif" font-size="10.00" fill="#000000">odp/visibility_begin.h</text>
</a>
</g>
</g>
<!-- Node0&#45;&gt;Node1 -->
<g id="edge1" class="edge">
<title>Node0&#45;&gt;Node1</title>
<path fill="none" stroke="#191970" d="M1580.2099,-930.4054C1630.2665,-917.4617 1707,-887.7175 1707,-827 1707,-827 1707,-827 1707,-122 1707,-109.5129 1909.8316,-143.0469 1537,-56 1458.1127,-37.5818 1229.0505,-21.4854 1111.8639,-14.1766"/>
<polygon fill="#191970" stroke="#191970" points="1111.7636,-10.6638 1101.5664,-13.5391 1111.331,-17.6504 1111.7636,-10.6638"/>
</g>
<!-- Node2 -->
<g id="node3" class="node">
<title>Node2</title>
<g id="a_node3"><a xlink:href="api_2std__types_8h.html" target="_top" xlink:title="Standard C language types and definitions for ODP. ">
<polygon fill="#ffffff" stroke="#000000" points="1313,-235.5 1313,-254.5 1425,-254.5 1425,-235.5 1313,-235.5"/>
<text text-anchor="middle" x="1369" y="-242.5" font-family="Helvetica,sans-Serif" font-size="10.00" fill="#000000">odp/api/std_types.h</text>
</a>
</g>
</g>
<!-- Node0&#45;&gt;Node2 -->
<g id="edge2" class="edge">
<title>Node0&#45;&gt;Node2</title>
<path fill="none" stroke="#191970" d="M1554.6265,-929.2771C1581.3766,-912.2388 1631,-874.2624 1631,-827 1631,-827 1631,-827 1631,-368 1631,-325.6843 1610.3758,-314.22 1575,-291 1552.2392,-276.0603 1486.4966,-262.9658 1435.3377,-254.6078"/>
<polygon fill="#191970" stroke="#191970" points="1435.7456,-251.1286 1425.3174,-253.0003 1434.6367,-258.0402 1435.7456,-251.1286"/>
</g>
<!-- Node9 -->
<g id="node10" class="node">
<title>Node9</title>
<g id="a_node10"><a xlink:href="visibility__end_8h_source.html" target="_top" xlink:title="odp/visibility_end.h">
<polygon fill="#ffffff" stroke="#000000" points="317,-.5 317,-19.5 429,-19.5 429,-.5 317,-.5"/>
<text text-anchor="middle" x="373" y="-7.5" font-family="Helvetica,sans-Serif" font-size="10.00" fill="#000000">odp/visibility_end.h</text>
</a>
</g>
</g>
<!-- Node0&#45;&gt;Node9 -->
<g id="edge83" class="edge">
<title>Node0&#45;&gt;Node9</title>
<path fill="none" stroke="#191970" d="M1495.6631,-938.1918C1248.2144,-933.1974 0,-904.1789 0,-827 0,-827 0,-827 0,-122 0,-80.5164 28.9595,-74.6787 66,-56 106.9877,-35.3308 229.3671,-21.8006 306.6667,-15.0608"/>
<polygon fill="#191970" stroke="#191970" points="307.1294,-18.5341 316.7945,-14.194 306.5324,-11.5596 307.1294,-18.5341"/>
</g>
<!-- Node10 -->
<g id="node11" class="node">
<title>Node10</title>
<g id="a_node11"><a xlink:href="api_2packet__io_8h.html" target="_top" xlink:title="ODP Packet IO. ">
<polygon fill="#ffffff" stroke="#000000" points="1351,-873.5 1351,-892.5 1463,-892.5 1463,-873.5 1351,-873.5"/>
<text text-anchor="middle" x="1407" y="-880.5" font-family="Helvetica,sans-Serif" font-size="10.00" fill="#000000">odp/api/packet_io.h</text>
</a>
</g>
</g>
<!-- Node0&#45;&gt;Node10 -->
<g id="edge13" class="edge">
<title>Node0&#45;&gt;Node10</title>
<path fill="none" stroke="#191970" d="M1515.4803,-929.3733C1494.2628,-920.3032 1462.2724,-906.6279 1438.5231,-896.4755"/>
<polygon fill="#191970" stroke="#191970" points="1439.7967,-893.2136 1429.2258,-892.5011 1437.0452,-899.6502 1439.7967,-893.2136"/>
</g>
<!-- Node3 -->
<g id="node4" class="node">
<title>Node3</title>
<polygon fill="#ffffff" stroke="#bfbfbf" points="1447,-174 1447,-193 1577,-193 1577,-174 1447,-174"/>
<text text-anchor="middle" x="1512" y="-181" font-family="Helvetica,sans-Serif" font-size="10.00" fill="#000000">odp/api/abi/std_types.h</text>
</g>
<!-- Node2&#45;&gt;Node3 -->
<g id="edge3" class="edge">
<title>Node2&#45;&gt;Node3</title>
<path fill="none" stroke="#191970" d="M1391.3438,-235.3906C1415.2703,-225.1005 1453.4309,-208.6888 1480.4216,-197.0809"/>
<polygon fill="#191970" stroke="#191970" points="1482.0095,-200.208 1489.8131,-193.0419 1479.2439,-193.7775 1482.0095,-200.208"/>
</g>
<!-- Node4 -->
<g id="node5" class="node">
<title>Node4</title>
<g id="a_node5"><a xlink:href="api_2spec_2std__types_8h.html" target="_top" xlink:title="Standard C language types and definitions for ODP. ">
<polygon fill="#ffffff" stroke="#000000" points="1291.5,-174 1291.5,-193 1428.5,-193 1428.5,-174 1291.5,-174"/>
<text text-anchor="middle" x="1360" y="-181" font-family="Helvetica,sans-Serif" font-size="10.00" fill="#000000">odp/api/spec/std_types.h</text>
</a>
</g>
</g>
<!-- Node2&#45;&gt;Node4 -->
<g id="edge4" class="edge">
<title>Node2&#45;&gt;Node4</title>
<path fill="none" stroke="#191970" d="M1367.5938,-235.3906C1366.3462,-226.8657 1364.4838,-214.1392 1362.9156,-203.4235"/>
<polygon fill="#191970" stroke="#191970" points="1366.3373,-202.6326 1361.4261,-193.2449 1359.411,-203.6463 1366.3373,-202.6326"/>
</g>
<!-- Node4&#45;&gt;Node1 -->
<g id="edge5" class="edge">
<title>Node4&#45;&gt;Node1</title>
<path fill="none" stroke="#191970" d="M1370.3607,-173.717C1393.5308,-150.6898 1445.0704,-92.2803 1413,-56 1393.4159,-33.8451 1214.1202,-19.9617 1111.7728,-13.7725"/>
<polygon fill="#191970" stroke="#191970" points="1111.6999,-10.2621 1101.5097,-13.162 1111.2842,-17.2497 1111.6999,-10.2621"/>
</g>
<!-- Node5 -->
<g id="node6" class="node">
<title>Node5</title>
<polygon fill="#ffffff" stroke="#bfbfbf" points="1460.5,-112.5 1460.5,-131.5 1513.5,-131.5 1513.5,-112.5 1460.5,-112.5"/>
<text text-anchor="middle" x="1487" y="-119.5" font-family="Helvetica,sans-Serif" font-size="10.00" fill="#000000">stdint.h</text>
</g>
<!-- Node4&#45;&gt;Node5 -->
<g id="edge6" class="edge">
<title>Node4&#45;&gt;Node5</title>
<path fill="none" stroke="#191970" d="M1379.8438,-173.8906C1400.8136,-163.7359 1434.0944,-147.6196 1458.0036,-136.0416"/>
<polygon fill="#191970" stroke="#191970" points="1459.8208,-139.0504 1467.2956,-131.5419 1456.7699,-132.7502 1459.8208,-139.0504"/>
</g>
<!-- Node6 -->
<g id="node7" class="node">
<title>Node6</title>
<g id="a_node7"><a xlink:href="api_2align_8h.html" target="_top" xlink:title="ODP alignments. ">
<polygon fill="#ffffff" stroke="#000000" points="1305.5,-112.5 1305.5,-131.5 1394.5,-131.5 1394.5,-112.5 1305.5,-112.5"/>
<text text-anchor="middle" x="1350" y="-119.5" font-family="Helvetica,sans-Serif" font-size="10.00" fill="#000000">odp/api/align.h</text>
</a>
</g>
</g>
<!-- Node4&#45;&gt;Node6 -->
<g id="edge7" class="edge">
<title>Node4&#45;&gt;Node6</title>
<path fill="none" stroke="#191970" d="M1358.4375,-173.8906C1357.0513,-165.3657 1354.982,-152.6392 1353.2396,-141.9235"/>
<polygon fill="#191970" stroke="#191970" points="1356.6442,-141.0535 1351.5845,-131.7449 1349.7349,-142.177 1356.6442,-141.0535"/>
</g>
<!-- Node4&#45;&gt;Node9 -->
<g id="edge12" class="edge">
<title>Node4&#45;&gt;Node9</title>
<path fill="none" stroke="#191970" d="M1331.7241,-173.9689C1259.1464,-149.9183 1059.9613,-86.5164 889,-56 729.0909,-27.4564 537.9841,-16.2922 439.2916,-12.1921"/>
<polygon fill="#191970" stroke="#191970" points="439.2995,-8.6897 429.1663,-11.7829 439.0168,-15.684 439.2995,-8.6897"/>
</g>
<!-- Node7 -->
<g id="node8" class="node">
<title>Node7</title>
<polygon fill="#ffffff" stroke="#bfbfbf" points="1296.5,-56.5 1296.5,-75.5 1403.5,-75.5 1403.5,-56.5 1296.5,-56.5"/>
<text text-anchor="middle" x="1350" y="-63.5" font-family="Helvetica,sans-Serif" font-size="10.00" fill="#000000">odp/api/abi/align.h</text>
</g>
<!-- Node6&#45;&gt;Node7 -->
<g id="edge8" class="edge">
<title>Node6&#45;&gt;Node7</title>
<path fill="none" stroke="#191970" d="M1350,-112.2455C1350,-104.9382 1350,-94.6944 1350,-85.7046"/>
<polygon fill="#191970" stroke="#191970" points="1353.5001,-85.6426 1350,-75.6427 1346.5001,-85.6427 1353.5001,-85.6426"/>
</g>
<!-- Node8 -->
<g id="node9" class="node">
<title>Node8</title>
<g id="a_node9"><a xlink:href="api_2spec_2align_8h.html" target="_top" xlink:title="ODP alignments. ">
<polygon fill="#ffffff" stroke="#000000" points="1088,-56.5 1088,-75.5 1202,-75.5 1202,-56.5 1088,-56.5"/>
<text text-anchor="middle" x="1145" y="-63.5" font-family="Helvetica,sans-Serif" font-size="10.00" fill="#000000">odp/api/spec/align.h</text>
</a>
</g>
</g>
<!-- Node6&#45;&gt;Node8 -->
<g id="edge9" class="edge">
<title>Node6&#45;&gt;Node8</title>
<path fill="none" stroke="#191970" d="M1314.7592,-112.3733C1280.0806,-102.9001 1227.0117,-88.4032 1189.4538,-78.1435"/>
<polygon fill="#191970" stroke="#191970" points="1190.3498,-74.7601 1179.7809,-75.5011 1188.5051,-81.5126 1190.3498,-74.7601"/>
</g>
<!-- Node8&#45;&gt;Node1 -->
<g id="edge10" class="edge">
<title>Node8&#45;&gt;Node1</title>
<path fill="none" stroke="#191970" d="M1126.8846,-56.2455C1110.555,-47.4527 1086.329,-34.4079 1067.7661,-24.4125"/>
<polygon fill="#191970" stroke="#191970" points="1069.3719,-21.3021 1058.9078,-19.6427 1066.0532,-27.4654 1069.3719,-21.3021"/>
</g>
<!-- Node8&#45;&gt;Node9 -->
<g id="edge11" class="edge">
<title>Node8&#45;&gt;Node9</title>
<path fill="none" stroke="#191970" d="M1087.9195,-61.8594C947.9973,-51.7097 588.5115,-25.633 439.3753,-14.8148"/>
<polygon fill="#191970" stroke="#191970" points="439.234,-11.2954 429.007,-14.0627 438.7275,-18.2771 439.234,-11.2954"/>
</g>
<!-- Node10&#45;&gt;Node2 -->
<g id="edge14" class="edge">
<title>Node10&#45;&gt;Node2</title>
<path fill="none" stroke="#191970" d="M1463.0584,-873.6637C1517.8247,-860.9591 1593,-832.347 1593,-771 1593,-771 1593,-771 1593,-368 1593,-295.311 1501.2503,-265.2831 1435.1901,-253.0836"/>
<polygon fill="#191970" stroke="#191970" points="1435.689,-249.6178 1425.2355,-251.3424 1434.4829,-256.5131 1435.689,-249.6178"/>
</g>
<!-- Node11 -->
<g id="node12" class="node">
<title>Node11</title>
<polygon fill="#ffffff" stroke="#bfbfbf" points="1103,-358.5 1103,-377.5 1207,-377.5 1207,-358.5 1103,-358.5"/>
<text text-anchor="middle" x="1155" y="-365.5" font-family="Helvetica,sans-Serif" font-size="10.00" fill="#000000">odp/api/abi/pool.h</text>
</g>
<!-- Node10&#45;&gt;Node11 -->
<g id="edge15" class="edge">
<title>Node10&#45;&gt;Node11</title>
<path fill="none" stroke="#191970" d="M1404.1965,-873.2066C1398.9113,-853.8521 1388,-809.2612 1388,-771 1388,-771 1388,-771 1388,-709.5 1388,-560.3328 1234.4334,-428.2881 1176.6432,-383.8782"/>
<polygon fill="#191970" stroke="#191970" points="1178.6202,-380.9851 1168.5342,-377.7413 1174.3959,-386.5669 1178.6202,-380.9851"/>
</g>
<!-- Node12 -->
<g id="node13" class="node">
<title>Node12</title>
<polygon fill="#ffffff" stroke="#bfbfbf" points="926,-817.5 926,-836.5 1072,-836.5 1072,-817.5 926,-817.5"/>
<text text-anchor="middle" x="999" y="-824.5" font-family="Helvetica,sans-Serif" font-size="10.00" fill="#000000">odp/api/abi/classification.h</text>
</g>
<!-- Node10&#45;&gt;Node12 -->
<g id="edge16" class="edge">
<title>Node10&#45;&gt;Node12</title>
<path fill="none" stroke="#191970" d="M1350.6977,-875.2722C1280.0499,-865.5755 1158.4648,-848.8873 1078.3939,-837.8972"/>
<polygon fill="#191970" stroke="#191970" points="1078.7382,-834.4117 1068.3551,-836.5193 1077.7863,-841.3467 1078.7382,-834.4117"/>
</g>
<!-- Node13 -->
<g id="node14" class="node">
<title>Node13</title>
<polygon fill="#ffffff" stroke="#bfbfbf" points="1225,-358.5 1225,-377.5 1341,-377.5 1341,-358.5 1225,-358.5"/>
<text text-anchor="middle" x="1283" y="-365.5" font-family="Helvetica,sans-Serif" font-size="10.00" fill="#000000">odp/api/abi/packet.h</text>
</g>
<!-- Node10&#45;&gt;Node13 -->
<g id="edge17" class="edge">
<title>Node10&#45;&gt;Node13</title>
<path fill="none" stroke="#191970" d="M1409.8035,-873.2066C1415.0887,-853.8521 1426,-809.2612 1426,-771 1426,-771 1426,-771 1426,-480 1426,-428.3635 1367.495,-396.9614 1325.3281,-381.0344"/>
<polygon fill="#191970" stroke="#191970" points="1326.4014,-377.7008 1315.8071,-377.592 1324.0212,-384.2837 1326.4014,-377.7008"/>
</g>
<!-- Node14 -->
<g id="node15" class="node">
<title>Node14</title>
<polygon fill="#ffffff" stroke="#bfbfbf" points="1397,-358.5 1397,-377.5 1527,-377.5 1527,-358.5 1397,-358.5"/>
<text text-anchor="middle" x="1462" y="-365.5" font-family="Helvetica,sans-Serif" font-size="10.00" fill="#000000">odp/api/abi/packet_io.h</text>
</g>
<!-- Node10&#45;&gt;Node14 -->
<g id="edge18" class="edge">
<title>Node10&#45;&gt;Node14</title>
<path fill="none" stroke="#191970" d="M1423.9841,-873.368C1451.3095,-856.4638 1502,-818.6798 1502,-771 1502,-771 1502,-771 1502,-480 1502,-445.4432 1484.903,-408.1996 1473.0642,-386.5529"/>
<polygon fill="#191970" stroke="#191970" points="1476.0578,-384.7365 1468.0751,-377.7703 1469.9713,-388.1941 1476.0578,-384.7365"/>
</g>
<!-- Node15 -->
<g id="node16" class="node">
<title>Node15</title>
<polygon fill="#ffffff" stroke="#bfbfbf" points="383.5,-358.5 383.5,-377.5 496.5,-377.5 496.5,-358.5 383.5,-358.5"/>
<text text-anchor="middle" x="440" y="-365.5" font-family="Helvetica,sans-Serif" font-size="10.00" fill="#000000">odp/api/abi/queue.h</text>
</g>
<!-- Node10&#45;&gt;Node15 -->
<g id="edge19" class="edge">
<title>Node10&#45;&gt;Node15</title>
<path fill="none" stroke="#191970" d="M1350.7813,-881.3956C1093.1712,-873.6813 38,-837.9945 38,-771 38,-771 38,-771 38,-648 38,-482.22 271.0434,-406.5666 382.2578,-379.9018"/>
<polygon fill="#191970" stroke="#191970" points="383.3693,-383.2362 392.3067,-377.5464 381.7718,-376.4209 383.3693,-383.2362"/>
</g>
<!-- Node16 -->
<g id="node17" class="node">
<title>Node16</title>
<g id="a_node17"><a xlink:href="api_2spec_2packet__io_8h.html" target="_top" xlink:title="ODP Packet IO. ">
<polygon fill="#ffffff" stroke="#000000" points="1090.5,-817.5 1090.5,-836.5 1227.5,-836.5 1227.5,-817.5 1090.5,-817.5"/>
<text text-anchor="middle" x="1159" y="-824.5" font-family="Helvetica,sans-Serif" font-size="10.00" fill="#000000">odp/api/spec/packet_io.h</text>
</a>
</g>
</g>
<!-- Node10&#45;&gt;Node16 -->
<g id="edge20" class="edge">
<title>Node10&#45;&gt;Node16</title>
<path fill="none" stroke="#191970" d="M1364.6491,-873.4369C1322.2058,-863.8529 1256.7881,-849.0812 1211.1687,-838.78"/>
<polygon fill="#191970" stroke="#191970" points="1211.7016,-835.3123 1201.1763,-836.5237 1210.1597,-842.1404 1211.7016,-835.3123"/>
</g>
<!-- Node16&#45;&gt;Node1 -->
<g id="edge21" class="edge">
<title>Node16&#45;&gt;Node1</title>
<path fill="none" stroke="#191970" d="M1201.8063,-817.4915C1229.4301,-810.1631 1265.4089,-798.3179 1294,-781 1343.2061,-751.1954 1669,-481.5287 1669,-424 1669,-424 1669,-424 1669,-122 1669,-65.8971 1275.5426,-28.4381 1111.4969,-15.2582"/>
<polygon fill="#191970" stroke="#191970" points="1111.7466,-11.7671 1101.5003,-14.4624 1111.191,-18.7451 1111.7466,-11.7671"/>
</g>
<!-- Node16&#45;&gt;Node9 -->
<g id="edge82" class="edge">
<title>Node16&#45;&gt;Node9</title>
<path fill="none" stroke="#191970" d="M1090.1323,-817.8255C1087.0485,-817.5236 1083.9935,-817.246 1081,-817 1026.3699,-812.5101 137.8357,-815.2011 95,-781 69.3048,-760.4843 76,-742.3806 76,-709.5 76,-709.5 76,-709.5 76,-648 76,-571.4471 38,-556.5529 38,-480 38,-480 38,-480 38,-122 38,-74.5213 78.718,-75.5164 122,-56 154.1833,-41.4881 243.5794,-27.2163 306.4766,-18.5104"/>
<polygon fill="#191970" stroke="#191970" points="307.2869,-21.9322 316.7202,-17.109 306.3381,-14.9968 307.2869,-21.9322"/>
</g>
<!-- Node17 -->
<g id="node18" class="node">
<title>Node17</title>
<g id="a_node18"><a xlink:href="deprecated_8h.html" target="_top" xlink:title="Control deprecated API definitions. ">
<polygon fill="#ffffff" stroke="#000000" points="256.5,-235.5 256.5,-254.5 375.5,-254.5 375.5,-235.5 256.5,-235.5"/>
<text text-anchor="middle" x="316" y="-242.5" font-family="Helvetica,sans-Serif" font-size="10.00" fill="#000000">odp/api/deprecated.h</text>
</a>
</g>
</g>
<!-- Node16&#45;&gt;Node17 -->
<g id="edge22" class="edge">
<title>Node16&#45;&gt;Node17</title>
<path fill="none" stroke="#191970" d="M1090.1244,-817.9153C1087.0427,-817.5891 1083.9903,-817.2818 1081,-817 904.5983,-800.3746 440.0024,-817.6943 289,-725 254.4237,-703.775 241.797,-695.7766 227,-658 169.8575,-512.116 270.0403,-322.1399 304.7862,-263.223"/>
<polygon fill="#191970" stroke="#191970" points="307.7972,-265.0074 309.9423,-254.632 301.7952,-261.4052 307.7972,-265.0074"/>
</g>
<!-- Node19 -->
<g id="node20" class="node">
<title>Node19</title>
<g id="a_node20"><a xlink:href="packet__io__stats_8h.html" target="_top" xlink:title="ODP packet IO stats. ">
<polygon fill="#ffffff" stroke="#000000" points="494.5,-761.5 494.5,-780.5 635.5,-780.5 635.5,-761.5 494.5,-761.5"/>
<text text-anchor="middle" x="565" y="-768.5" font-family="Helvetica,sans-Serif" font-size="10.00" fill="#000000">odp/api/packet_io_stats.h</text>
</a>
</g>
</g>
<!-- Node16&#45;&gt;Node19 -->
<g id="edge26" class="edge">
<title>Node16&#45;&gt;Node19</title>
<path fill="none" stroke="#191970" d="M1090.1136,-818.0219C1087.0348,-817.6669 1083.986,-817.3244 1081,-817 927.3462,-800.3078 747.4629,-785.2974 645.8042,-777.2328"/>
<polygon fill="#191970" stroke="#191970" points="645.8561,-773.7261 635.6113,-776.4267 645.3042,-780.7043 645.8561,-773.7261"/>
</g>
<!-- Node21 -->
<g id="node22" class="node">
<title>Node21</title>
<g id="a_node22"><a xlink:href="api_2queue_8h.html" target="_top" xlink:title="ODP queue. ">
<polygon fill="#ffffff" stroke="#000000" points="734.5,-638.5 734.5,-657.5 829.5,-657.5 829.5,-638.5 734.5,-638.5"/>
<text text-anchor="middle" x="782" y="-645.5" font-family="Helvetica,sans-Serif" font-size="10.00" fill="#000000">odp/api/queue.h</text>
</a>
</g>
</g>
<!-- Node16&#45;&gt;Node21 -->
<g id="edge75" class="edge">
<title>Node16&#45;&gt;Node21</title>
<path fill="none" stroke="#191970" d="M1138.7308,-817.3762C1076.084,-787.6314 885.3562,-697.0736 811.5775,-662.0434"/>
<polygon fill="#191970" stroke="#191970" points="812.9041,-658.7988 802.3694,-657.6714 809.9017,-665.1223 812.9041,-658.7988"/>
</g>
<!-- Node27 -->
<g id="node28" class="node">
<title>Node27</title>
<g id="a_node28"><a xlink:href="api_2packet_8h.html" target="_top" xlink:title="ODP packet descriptor. ">
<polygon fill="#ffffff" stroke="#000000" points="959,-414.5 959,-433.5 1057,-433.5 1057,-414.5 959,-414.5"/>
<text text-anchor="middle" x="1008" y="-421.5" font-family="Helvetica,sans-Serif" font-size="10.00" fill="#000000">odp/api/packet.h</text>
</a>
</g>
</g>
<!-- Node16&#45;&gt;Node27 -->
<g id="edge81" class="edge">
<title>Node16&#45;&gt;Node27</title>
<path fill="none" stroke="#191970" d="M1179.8256,-817.4923C1212.9655,-800.7658 1274,-762.734 1274,-709.5 1274,-709.5 1274,-709.5 1274,-536 1274,-490.9231 1142.6078,-453.885 1064.5135,-435.8521"/>
<polygon fill="#191970" stroke="#191970" points="1064.8606,-432.3418 1054.3337,-433.5391 1063.3096,-439.1679 1064.8606,-432.3418"/>
</g>
<!-- Node29 -->
<g id="node30" class="node">
<title>Node29</title>
<g id="a_node30"><a xlink:href="api_2time_8h.html" target="_top" xlink:title="ODP time. ">
<polygon fill="#ffffff" stroke="#000000" points="1149.5,-297 1149.5,-316 1236.5,-316 1236.5,-297 1149.5,-297"/>
<text text-anchor="middle" x="1193" y="-304" font-family="Helvetica,sans-Serif" font-size="10.00" fill="#000000">odp/api/time.h</text>
</a>
</g>
</g>
<!-- Node16&#45;&gt;Node29 -->
<g id="edge80" class="edge">
<title>Node16&#45;&gt;Node29</title>
<path fill="none" stroke="#191970" d="M1193.3362,-817.4001C1238.4457,-802.4461 1312,-768.9479 1312,-709.5 1312,-709.5 1312,-709.5 1312,-592 1312,-448.0302 1629.9406,-467.0984 1536,-358 1517.3909,-336.3882 1338.4804,-318.5593 1246.7168,-310.7501"/>
<polygon fill="#191970" stroke="#191970" points="1246.7677,-307.2421 1236.5097,-309.8922 1246.1814,-314.2176 1246.7677,-307.2421"/>
</g>
<!-- Node38 -->
<g id="node39" class="node">
<title>Node38</title>
<g id="a_node39"><a xlink:href="reassembly_8h.html" target="_top" xlink:title="ODP REASSEMBLY API &#45; platform specific header. ">
<polygon fill="#ffffff" stroke="#000000" points="104,-761.5 104,-780.5 224,-780.5 224,-761.5 104,-761.5"/>
<text text-anchor="middle" x="164" y="-768.5" font-family="Helvetica,sans-Serif" font-size="10.00" fill="#000000">odp/api/reassembly.h</text>
</a>
</g>
</g>
<!-- Node16&#45;&gt;Node38 -->
<g id="edge76" class="edge">
<title>Node16&#45;&gt;Node38</title>
<path fill="none" stroke="#191970" d="M1090.1304,-817.8487C1087.047,-817.5405 1083.9927,-817.2553 1081,-817 707.3488,-785.1275 611.5405,-814.1449 238,-781 236.7289,-780.8872 235.446,-780.7683 234.1544,-780.6439"/>
<polygon fill="#191970" stroke="#191970" points="234.4339,-777.1541 224.1237,-779.5937 233.7049,-784.1161 234.4339,-777.1541"/>
</g>
<!-- Node18 -->
<g id="node19" class="node">
<title>Node18</title>
<g id="a_node19"><a xlink:href="spec_2deprecated_8h.html" target="_top" xlink:title="Macro for deprecated API definitions. ">
<polygon fill="#ffffff" stroke="#000000" points="458.5,-56.5 458.5,-75.5 603.5,-75.5 603.5,-56.5 458.5,-56.5"/>
<text text-anchor="middle" x="531" y="-63.5" font-family="Helvetica,sans-Serif" font-size="10.00" fill="#000000">odp/api/spec/deprecated.h</text>
</a>
</g>
</g>
<!-- Node17&#45;&gt;Node18 -->
<g id="edge23" class="edge">
<title>Node17&#45;&gt;Node18</title>
<path fill="none" stroke="#191970" d="M327.5593,-235.3762C362.5572,-206.2384 467.6476,-118.7445 511.474,-82.2565"/>
<polygon fill="#191970" stroke="#191970" points="513.9378,-84.7596 519.3835,-75.6714 509.4589,-79.38 513.9378,-84.7596"/>
</g>
<!-- Node18&#45;&gt;Node1 -->
<g id="edge24" class="edge">
<title>Node18&#45;&gt;Node1</title>
<path fill="none" stroke="#191970" d="M603.8711,-57.0585C606.9549,-56.6974 610.0079,-56.3432 613,-56 738.748,-41.5757 885.4427,-26.1033 970.3292,-17.283"/>
<polygon fill="#191970" stroke="#191970" points="970.7841,-20.7547 980.3693,-16.2409 970.0614,-13.7921 970.7841,-20.7547"/>
</g>
<!-- Node18&#45;&gt;Node9 -->
<g id="edge25" class="edge">
<title>Node18&#45;&gt;Node9</title>
<path fill="none" stroke="#191970" d="M503.8388,-56.3733C477.7933,-47.1419 438.2884,-33.1402 409.5021,-22.9375"/>
<polygon fill="#191970" stroke="#191970" points="410.4015,-19.5429 399.8067,-19.5011 408.063,-26.1408 410.4015,-19.5429"/>
</g>
<!-- Node20 -->
<g id="node21" class="node">
<title>Node20</title>
<g id="a_node21"><a xlink:href="spec_2packet__io__stats_8h.html" target="_top" xlink:title="ODP Packet IO statistics. ">
<polygon fill="#ffffff" stroke="#000000" points="298,-694.5 298,-724.5 412,-724.5 412,-694.5 298,-694.5"/>
<text text-anchor="start" x="306" y="-712.5" font-family="Helvetica,sans-Serif" font-size="10.00" fill="#000000">odp/api/spec/packet</text>
<text text-anchor="middle" x="355" y="-701.5" font-family="Helvetica,sans-Serif" font-size="10.00" fill="#000000">_io_stats.h</text>
</a>
</g>
</g>
<!-- Node19&#45;&gt;Node20 -->
<g id="edge27" class="edge">
<title>Node19&#45;&gt;Node20</title>
<path fill="none" stroke="#191970" d="M532.1875,-761.3906C501.2666,-752.3352 454.1576,-738.539 416.2853,-727.4479"/>
<polygon fill="#191970" stroke="#191970" points="416.9524,-723.9963 406.3718,-724.5446 414.985,-730.7141 416.9524,-723.9963"/>
</g>
<!-- Node20&#45;&gt;Node1 -->
<g id="edge28" class="edge">
<title>Node20&#45;&gt;Node1</title>
<path fill="none" stroke="#191970" d="M355,-694.2899C355,-671.892 355,-628.7188 355,-592 355,-592 355,-592 355,-424 355,-393.4754 353.0718,-380.2208 374,-358 379.879,-351.7579 657.0163,-258.1285 665,-255 723.5739,-232.0473 739.6099,-228.8272 795,-199 842.7549,-173.2843 852.023,-162.3133 897,-132 933.2926,-107.5398 944.7178,-104.421 978,-76 995.7567,-60.8369 1013.9523,-41.2534 1026.1942,-27.3674"/>
<polygon fill="#191970" stroke="#191970" points="1029.0718,-29.3918 1032.9899,-19.5481 1023.7884,-24.8 1029.0718,-29.3918"/>
</g>
<!-- Node20&#45;&gt;Node9 -->
<g id="edge74" class="edge">
<title>Node20&#45;&gt;Node9</title>
<path fill="none" stroke="#191970" d="M340.6369,-694.3073C269.5443,-617.2945 -34.4749,-265.5092 138,-56 159.0558,-30.4231 244.9781,-18.8637 306.8383,-13.7815"/>
<polygon fill="#191970" stroke="#191970" points="307.2342,-17.2614 316.9306,-12.9917 306.6879,-10.2827 307.2342,-17.2614"/>
</g>
<!-- Node20&#45;&gt;Node17 -->
<g id="edge29" class="edge">
<title>Node20&#45;&gt;Node17</title>
<path fill="none" stroke="#191970" d="M346.7546,-694.42C335.5785,-672.5326 317,-630.3768 317,-592 317,-592 317,-592 317,-368 317,-331.4982 316.5542,-288.9052 316.2579,-264.6281"/>
<polygon fill="#191970" stroke="#191970" points="319.757,-264.5239 316.1307,-254.5689 312.7575,-264.6124 319.757,-264.5239"/>
</g>
<!-- Node20&#45;&gt;Node21 -->
<g id="edge30" class="edge">
<title>Node20&#45;&gt;Node21</title>
<path fill="none" stroke="#191970" d="M412.1441,-701.2697C493.6507,-689.5304 642.4578,-668.098 724.2801,-656.3133"/>
<polygon fill="#191970" stroke="#191970" points="725.0017,-659.7456 734.4006,-654.8557 724.0037,-652.8171 725.0017,-659.7456"/>
</g>
<!-- Node21&#45;&gt;Node2 -->
<g id="edge31" class="edge">
<title>Node21&#45;&gt;Node2</title>
<path fill="none" stroke="#191970" d="M829.7767,-642.9987C902.1298,-635.0289 1035.8473,-618.6418 1081,-602 1151.595,-575.981 1369,-499.2372 1369,-424 1369,-424 1369,-424 1369,-368 1369,-331.4994 1369,-288.906 1369,-264.6285"/>
<polygon fill="#191970" stroke="#191970" points="1372.5001,-264.5691 1369,-254.5691 1365.5001,-264.5692 1372.5001,-264.5691"/>
</g>
<!-- Node21&#45;&gt;Node11 -->
<g id="edge35" class="edge">
<title>Node21&#45;&gt;Node11</title>
<path fill="none" stroke="#191970" d="M829.7952,-642.7937C925.3775,-631.0499 1131,-598.5203 1131,-536 1131,-536 1131,-536 1131,-480 1131,-446.8465 1141.1789,-409.3737 1148.2788,-387.2684"/>
<polygon fill="#191970" stroke="#191970" points="1151.6138,-388.3312 1151.4587,-377.7375 1144.9736,-386.1157 1151.6138,-388.3312"/>
</g>
<!-- Node21&#45;&gt;Node15 -->
<g id="edge33" class="edge">
<title>Node21&#45;&gt;Node15</title>
<path fill="none" stroke="#191970" d="M734.3697,-645.3781C662.839,-640.6235 531.9977,-628.5073 494,-602 466.4196,-582.7598 457,-569.6283 457,-536 457,-536 457,-536 457,-480 457,-447.192 449.7815,-409.584 444.752,-387.3624"/>
<polygon fill="#191970" stroke="#191970" points="448.1324,-386.4474 442.4357,-377.5144 441.3184,-388.0502 448.1324,-386.4474"/>
</g>
<!-- Node22 -->
<g id="node23" class="node">
<title>Node22</title>
<polygon fill="#ffffff" stroke="#bfbfbf" points="591,-358.5 591,-377.5 701,-377.5 701,-358.5 591,-358.5"/>
<text text-anchor="middle" x="646" y="-365.5" font-family="Helvetica,sans-Serif" font-size="10.00" fill="#000000">odp/api/abi/event.h</text>
</g>
<!-- Node21&#45;&gt;Node22 -->
<g id="edge32" class="edge">
<title>Node21&#45;&gt;Node22</title>
<path fill="none" stroke="#191970" d="M776.4979,-638.1473C762.8003,-613.4901 726.3095,-547.0056 699,-490 681.7916,-454.0794 663.7133,-411.1825 653.7484,-387.0148"/>
<polygon fill="#191970" stroke="#191970" points="656.9197,-385.5232 649.8867,-377.5993 650.4433,-388.1796 656.9197,-385.5232"/>
</g>
<!-- Node23 -->
<g id="node24" class="node">
<title>Node23</title>
<polygon fill="#ffffff" stroke="#bfbfbf" points="795,-358.5 795,-377.5 905,-377.5 905,-358.5 795,-358.5"/>
<text text-anchor="middle" x="850" y="-365.5" font-family="Helvetica,sans-Serif" font-size="10.00" fill="#000000">odp/api/abi/buffer.h</text>
</g>
<!-- Node21&#45;&gt;Node23 -->
<g id="edge34" class="edge">
<title>Node21&#45;&gt;Node23</title>
<path fill="none" stroke="#191970" d="M793.8893,-638.2632C814.3394,-620.3405 854,-579.9199 854,-536 854,-536 854,-536 854,-480 854,-447.691 852.317,-410.1727 851.1344,-387.7971"/>
<polygon fill="#191970" stroke="#191970" points="854.6167,-387.3771 850.5731,-377.5843 847.6272,-387.7613 854.6167,-387.3771"/>
</g>
<!-- Node24 -->
<g id="node25" class="node">
<title>Node24</title>
<g id="a_node25"><a xlink:href="api_2spec_2queue_8h.html" target="_top" xlink:title="ODP queue. ">
<polygon fill="#ffffff" stroke="#000000" points="503,-582.5 503,-601.5 623,-601.5 623,-582.5 503,-582.5"/>
<text text-anchor="middle" x="563" y="-589.5" font-family="Helvetica,sans-Serif" font-size="10.00" fill="#000000">odp/api/spec/queue.h</text>
</a>
</g>
</g>
<!-- Node21&#45;&gt;Node24 -->
<g id="edge36" class="edge">
<title>Node21&#45;&gt;Node24</title>
<path fill="none" stroke="#191970" d="M744.3526,-638.3733C707.148,-628.8598 650.1297,-614.2797 609.9784,-604.0127"/>
<polygon fill="#191970" stroke="#191970" points="610.7116,-600.5877 600.1562,-601.5011 608.9773,-607.3695 610.7116,-600.5877"/>
</g>
<!-- Node24&#45;&gt;Node1 -->
<g id="edge37" class="edge">
<title>Node24&#45;&gt;Node1</title>
<path fill="none" stroke="#191970" d="M563,-582.4116C563,-563.0538 563,-517.9167 563,-480 563,-480 563,-480 563,-424 563,-393.4754 560.4126,-379.5809 582,-358 658.2035,-281.8194 711.4192,-320.6898 815,-291 870.9864,-274.9524 892.7914,-287.6792 941,-255 998.1753,-216.2425 1012.3597,-196.9022 1036,-132 1048.4638,-97.782 1046.4511,-54.5488 1043.7786,-29.8094"/>
<polygon fill="#191970" stroke="#191970" points="1047.2118,-29.0526 1042.514,-19.5563 1040.2645,-29.9095 1047.2118,-29.0526"/>
</g>
<!-- Node24&#45;&gt;Node9 -->
<g id="edge73" class="edge">
<title>Node24&#45;&gt;Node9</title>
<path fill="none" stroke="#191970" d="M544.125,-582.4039C499.9651,-559.563 387.279,-498.9992 303,-434 183.2111,-341.6141 171.8891,-281.0446 146,-132 140.1789,-98.488 131.5402,-80.6288 155,-56 175.5632,-34.4122 250.4098,-22.1434 306.7079,-15.7984"/>
<polygon fill="#191970" stroke="#191970" points="307.4234,-19.2413 316.9868,-14.6816 306.6673,-12.2823 307.4234,-19.2413"/>
</g>
<!-- Node25 -->
<g id="node26" class="node">
<title>Node25</title>
<g id="a_node26"><a xlink:href="api_2event_8h.html" target="_top" xlink:title="ODP event. ">
<polygon fill="#ffffff" stroke="#000000" points="591,-526.5 591,-545.5 683,-545.5 683,-526.5 591,-526.5"/>
<text text-anchor="middle" x="637" y="-533.5" font-family="Helvetica,sans-Serif" font-size="10.00" fill="#000000">odp/api/event.h</text>
</a>
</g>
</g>
<!-- Node24&#45;&gt;Node25 -->
<g id="edge38" class="edge">
<title>Node24&#45;&gt;Node25</title>
<path fill="none" stroke="#191970" d="M575.8898,-582.2455C586.9254,-573.8943 603.0292,-561.7076 615.9353,-551.9408"/>
<polygon fill="#191970" stroke="#191970" points="618.3959,-554.4681 624.2579,-545.6427 614.1717,-548.8862 618.3959,-554.4681"/>
</g>
<!-- Node32 -->
<g id="node33" class="node">
<title>Node32</title>
<g id="a_node33"><a xlink:href="queue__types_8h.html" target="_top" xlink:title="ODP queue types. ">
<polygon fill="#ffffff" stroke="#000000" points="347.5,-291.5 347.5,-321.5 458.5,-321.5 458.5,-291.5 347.5,-291.5"/>
<text text-anchor="start" x="355.5" y="-309.5" font-family="Helvetica,sans-Serif" font-size="10.00" fill="#000000">odp/api/spec/queue</text>
<text text-anchor="middle" x="403" y="-298.5" font-family="Helvetica,sans-Serif" font-size="10.00" fill="#000000">_types.h</text>
</a>
</g>
</g>
<!-- Node24&#45;&gt;Node32 -->
<g id="edge60" class="edge">
<title>Node24&#45;&gt;Node32</title>
<path fill="none" stroke="#191970" d="M557.393,-582.4834C546.8226,-563.6141 525,-519.8343 525,-480 525,-480 525,-480 525,-424 525,-393.4754 525.5176,-381.4695 506,-358 494.459,-344.1222 478.248,-333.6277 462.0963,-325.8561"/>
<polygon fill="#191970" stroke="#191970" points="463.184,-322.5074 452.629,-321.59 460.3081,-328.8894 463.184,-322.5074"/>
</g>
<!-- Node25&#45;&gt;Node22 -->
<g id="edge39" class="edge">
<title>Node25&#45;&gt;Node22</title>
<path fill="none" stroke="#191970" d="M637.5097,-526.4862C638.9324,-499.9293 642.9697,-424.5651 644.9197,-388.1655"/>
<polygon fill="#191970" stroke="#191970" points="648.4335,-388.0008 645.4735,-377.8279 641.4435,-387.6263 648.4335,-388.0008"/>
</g>
<!-- Node26 -->
<g id="node27" class="node">
<title>Node26</title>
<g id="a_node27"><a xlink:href="api_2spec_2event_8h.html" target="_top" xlink:title="ODP event. ">
<polygon fill="#ffffff" stroke="#000000" points="708,-470.5 708,-489.5 826,-489.5 826,-470.5 708,-470.5"/>
<text text-anchor="middle" x="767" y="-477.5" font-family="Helvetica,sans-Serif" font-size="10.00" fill="#000000">odp/api/spec/event.h</text>
</a>
</g>
</g>
<!-- Node25&#45;&gt;Node26 -->
<g id="edge40" class="edge">
<title>Node25&#45;&gt;Node26</title>
<path fill="none" stroke="#191970" d="M659.3478,-526.3733C680.4033,-517.3032 712.1495,-503.6279 735.7175,-493.4755"/>
<polygon fill="#191970" stroke="#191970" points="737.1444,-496.6719 744.9438,-489.5011 734.375,-490.243 737.1444,-496.6719"/>
</g>
<!-- Node26&#45;&gt;Node1 -->
<g id="edge41" class="edge">
<title>Node26&#45;&gt;Node1</title>
<path fill="none" stroke="#191970" d="M765.7995,-470.3903C763.5672,-448.3037 761.052,-393.1285 786,-358 842.298,-278.7285 897.3371,-307.7694 979,-255 1088.3844,-184.3173 1153.5538,-192.88 1211,-76 1214.9209,-68.0226 1216.4025,-63.0587 1211,-56 1198.5534,-39.7379 1152.586,-27.8996 1111.5859,-20.308"/>
<polygon fill="#191970" stroke="#191970" points="1112.0271,-16.8314 1101.5672,-18.5167 1110.795,-23.7222 1112.0271,-16.8314"/>
</g>
<!-- Node26&#45;&gt;Node9 -->
<g id="edge59" class="edge">
<title>Node26&#45;&gt;Node9</title>
<path fill="none" stroke="#191970" d="M765.7208,-470.3509C762.0178,-446.6532 748.9471,-385.5249 710,-358 642.3561,-310.1942 416.4314,-351.4187 339,-322 291.715,-304.0349 278.4681,-294.6028 247,-255 188.1017,-180.8761 111.9528,-130.0053 171,-56 187.8241,-34.9139 254.2837,-22.7452 306.436,-16.2832"/>
<polygon fill="#191970" stroke="#191970" points="307.1409,-19.7241 316.6568,-15.0659 306.313,-12.7732 307.1409,-19.7241"/>
</g>
<!-- Node26&#45;&gt;Node27 -->
<g id="edge42" class="edge">
<title>Node26&#45;&gt;Node27</title>
<path fill="none" stroke="#191970" d="M808.1555,-470.4369C849.3142,-460.8731 912.705,-446.1432 957.0242,-435.845"/>
<polygon fill="#191970" stroke="#191970" points="958.0659,-439.1963 967.0142,-433.5237 956.4815,-432.3779 958.0659,-439.1963"/>
</g>
<!-- Node27&#45;&gt;Node2 -->
<g id="edge43" class="edge">
<title>Node27&#45;&gt;Node2</title>
<path fill="none" stroke="#191970" d="M1017.6479,-414.3289C1032.6464,-399.8571 1063.0613,-372.7003 1094,-358 1156.7061,-328.2057 1181.9467,-348.7755 1246,-322 1284.7489,-305.8022 1325.1894,-278.0488 1348.6874,-260.6579"/>
<polygon fill="#191970" stroke="#191970" points="1350.9311,-263.35 1356.8248,-254.5458 1346.7271,-257.753 1350.9311,-263.35"/>
</g>
<!-- Node27&#45;&gt;Node11 -->
<g id="edge49" class="edge">
<title>Node27&#45;&gt;Node11</title>
<path fill="none" stroke="#191970" d="M1033.2702,-414.3733C1057.3966,-405.1822 1093.9362,-391.2624 1120.6877,-381.0713"/>
<polygon fill="#191970" stroke="#191970" points="1121.9607,-384.3318 1130.0596,-377.5011 1119.4687,-377.7904 1121.9607,-384.3318"/>
</g>
<!-- Node27&#45;&gt;Node13 -->
<g id="edge46" class="edge">
<title>Node27&#45;&gt;Node13</title>
<path fill="none" stroke="#191970" d="M1054.9617,-414.4369C1102.4213,-404.7724 1175.7866,-389.8326 1226.4223,-379.5213"/>
<polygon fill="#191970" stroke="#191970" points="1227.1315,-382.9488 1236.232,-377.5237 1225.7347,-376.0895 1227.1315,-382.9488"/>
</g>
<!-- Node27&#45;&gt;Node14 -->
<g id="edge45" class="edge">
<title>Node27&#45;&gt;Node14</title>
<path fill="none" stroke="#191970" d="M1057.0173,-417.9538C1136.3265,-408.1712 1293.3134,-388.8072 1386.8259,-377.2726"/>
<polygon fill="#191970" stroke="#191970" points="1387.292,-380.7417 1396.7882,-376.0437 1386.4349,-373.7944 1387.292,-380.7417"/>
</g>
<!-- Node27&#45;&gt;Node15 -->
<g id="edge47" class="edge">
<title>Node27&#45;&gt;Node15</title>
<path fill="none" stroke="#191970" d="M958.5874,-419.1283C856.5396,-409.0673 622.4134,-385.9844 506.9249,-374.5982"/>
<polygon fill="#191970" stroke="#191970" points="507.0945,-371.0981 496.7993,-373.5999 506.4077,-378.0643 507.0945,-371.0981"/>
</g>
<!-- Node27&#45;&gt;Node22 -->
<g id="edge44" class="edge">
<title>Node27&#45;&gt;Node22</title>
<path fill="none" stroke="#191970" d="M958.8023,-416.3893C894.682,-406.4701 782.3626,-389.0948 711.2034,-378.0867"/>
<polygon fill="#191970" stroke="#191970" points="711.4314,-374.5804 701.0138,-376.5104 710.3612,-381.4981 711.4314,-374.5804"/>
</g>
<!-- Node27&#45;&gt;Node23 -->
<g id="edge48" class="edge">
<title>Node27&#45;&gt;Node23</title>
<path fill="none" stroke="#191970" d="M980.8388,-414.3733C954.7933,-405.1419 915.2884,-391.1402 886.5021,-380.9375"/>
<polygon fill="#191970" stroke="#191970" points="887.4015,-377.5429 876.8067,-377.5011 885.063,-384.1408 887.4015,-377.5429"/>
</g>
<!-- Node28 -->
<g id="node29" class="node">
<title>Node28</title>
<g id="a_node29"><a xlink:href="api_2spec_2packet_8h.html" target="_top" xlink:title="ODP packet descriptor. ">
<polygon fill="#ffffff" stroke="#000000" points="923.5,-358.5 923.5,-377.5 1046.5,-377.5 1046.5,-358.5 923.5,-358.5"/>
<text text-anchor="middle" x="985" y="-365.5" font-family="Helvetica,sans-Serif" font-size="10.00" fill="#000000">odp/api/spec/packet.h</text>
</a>
</g>
</g>
<!-- Node27&#45;&gt;Node28 -->
<g id="edge50" class="edge">
<title>Node27&#45;&gt;Node28</title>
<path fill="none" stroke="#191970" d="M1003.9937,-414.2455C1000.9265,-406.7776 996.5997,-396.2427 992.8503,-387.1137"/>
<polygon fill="#191970" stroke="#191970" points="995.9972,-385.5631 988.9604,-377.6427 989.5221,-388.2226 995.9972,-385.5631"/>
</g>
<!-- Node28&#45;&gt;Node1 -->
<g id="edge51" class="edge">
<title>Node28&#45;&gt;Node1</title>
<path fill="none" stroke="#191970" d="M998.8236,-358.4108C1044.7565,-325.5874 1192.297,-212.2072 1244,-76 1247.1545,-67.6897 1249.5476,-62.9453 1244,-56 1227.5082,-35.3531 1163.6063,-23.2838 1111.8464,-16.7301"/>
<polygon fill="#191970" stroke="#191970" points="1112.0236,-13.2259 1101.6739,-15.492 1111.1778,-20.1746 1112.0236,-13.2259"/>
</g>
<!-- Node28&#45;&gt;Node9 -->
<g id="edge58" class="edge">
<title>Node28&#45;&gt;Node9</title>
<path fill="none" stroke="#191970" d="M926.2546,-358.4803C797.672,-337.1853 499.9467,-285.207 465,-255 429.2935,-224.1363 390.9501,-82.0084 377.7663,-29.5355"/>
<polygon fill="#191970" stroke="#191970" points="381.0849,-28.3763 375.2815,-19.5123 374.2906,-30.0607 381.0849,-28.3763"/>
</g>
<!-- Node28&#45;&gt;Node29 -->
<g id="edge52" class="edge">
<title>Node28&#45;&gt;Node29</title>
<path fill="none" stroke="#191970" d="M1017.5,-358.3906C1053.447,-347.7621 1111.4827,-330.6025 1150.888,-318.9514"/>
<polygon fill="#191970" stroke="#191970" points="1152.131,-322.2337 1160.7282,-316.0419 1150.1462,-315.521 1152.131,-322.2337"/>
</g>
<!-- Node29&#45;&gt;Node2 -->
<g id="edge53" class="edge">
<title>Node29&#45;&gt;Node2</title>
<path fill="none" stroke="#191970" d="M1220.5,-296.8906C1250.4647,-286.42 1298.5683,-269.6111 1331.8698,-257.9745"/>
<polygon fill="#191970" stroke="#191970" points="1333.4074,-261.1448 1341.6931,-254.5419 1331.0983,-254.5366 1333.4074,-261.1448"/>
</g>
<!-- Node30 -->
<g id="node31" class="node">
<title>Node30</title>
<polygon fill="#ffffff" stroke="#bfbfbf" points="1149.5,-235.5 1149.5,-254.5 1254.5,-254.5 1254.5,-235.5 1149.5,-235.5"/>
<text text-anchor="middle" x="1202" y="-242.5" font-family="Helvetica,sans-Serif" font-size="10.00" fill="#000000">odp/api/abi/time.h</text>
</g>
<!-- Node29&#45;&gt;Node30 -->
<g id="edge54" class="edge">
<title>Node29&#45;&gt;Node30</title>
<path fill="none" stroke="#191970" d="M1194.4063,-296.8906C1195.6538,-288.3657 1197.5162,-275.6392 1199.0844,-264.9235"/>
<polygon fill="#191970" stroke="#191970" points="1202.589,-265.1463 1200.5739,-254.7449 1195.6627,-264.1326 1202.589,-265.1463"/>
</g>
<!-- Node31 -->
<g id="node32" class="node">
<title>Node31</title>
<g id="a_node32"><a xlink:href="api_2spec_2time_8h.html" target="_top" xlink:title="ODP time. ">
<polygon fill="#ffffff" stroke="#000000" points="766.5,-56.5 766.5,-75.5 879.5,-75.5 879.5,-56.5 766.5,-56.5"/>
<text text-anchor="middle" x="823" y="-63.5" font-family="Helvetica,sans-Serif" font-size="10.00" fill="#000000">odp/api/spec/time.h</text>
</a>
</g>
</g>
<!-- Node29&#45;&gt;Node31 -->
<g id="edge55" class="edge">
<title>Node29&#45;&gt;Node31</title>
<path fill="none" stroke="#191970" d="M1178.0373,-296.7742C1120.8477,-259.601 915.8135,-126.3288 846.2661,-81.123"/>
<polygon fill="#191970" stroke="#191970" points="848.0354,-78.0986 837.7435,-75.5833 844.2205,-83.9678 848.0354,-78.0986"/>
</g>
<!-- Node31&#45;&gt;Node1 -->
<g id="edge56" class="edge">
<title>Node31&#45;&gt;Node1</title>
<path fill="none" stroke="#191970" d="M860.4755,-56.3733C897.5103,-46.8598 954.2682,-32.2797 994.2361,-22.0127"/>
<polygon fill="#191970" stroke="#191970" points="995.1988,-25.3792 1004.0135,-19.5011 993.4571,-18.5993 995.1988,-25.3792"/>
</g>
<!-- Node31&#45;&gt;Node9 -->
<g id="edge57" class="edge">
<title>Node31&#45;&gt;Node9</title>
<path fill="none" stroke="#191970" d="M766.2961,-57.1611C763.4922,-56.7602 760.715,-56.3709 758,-56 646.2971,-40.7387 515.9691,-25.7577 439.1952,-17.2222"/>
<polygon fill="#191970" stroke="#191970" points="439.5095,-13.7357 429.1846,-16.112 438.7379,-20.693 439.5095,-13.7357"/>
</g>
<!-- Node32&#45;&gt;Node1 -->
<g id="edge61" class="edge">
<title>Node32&#45;&gt;Node1</title>
<path fill="none" stroke="#191970" d="M458.6347,-293.9899C518.5488,-280.4357 607.4247,-260.0621 623,-255 683.9966,-235.1758 699.4715,-229.3003 756,-199 860.0003,-143.2538 974.2984,-60.1477 1020.2187,-25.7651"/>
<polygon fill="#191970" stroke="#191970" points="1022.5798,-28.3688 1028.4678,-19.5608 1018.3721,-22.7745 1022.5798,-28.3688"/>
</g>
<!-- Node32&#45;&gt;Node9 -->
<g id="edge72" class="edge">
<title>Node32&#45;&gt;Node9</title>
<path fill="none" stroke="#191970" d="M400.2671,-291.1556C394.9884,-260.8498 383.4327,-191.1236 378,-132 374.6995,-96.081 373.5776,-54.0124 373.1962,-29.8378"/>
<polygon fill="#191970" stroke="#191970" points="376.6918,-29.4667 373.0622,-19.513 369.6924,-29.5576 376.6918,-29.4667"/>
</g>
<!-- Node32&#45;&gt;Node17 -->
<g id="edge71" class="edge">
<title>Node32&#45;&gt;Node17</title>
<path fill="none" stroke="#191970" d="M381.4944,-291.2977C368.2032,-281.9022 351.1943,-269.8787 337.8412,-260.4395"/>
<polygon fill="#191970" stroke="#191970" points="339.8561,-257.5776 329.67,-254.6633 335.8154,-263.2937 339.8561,-257.5776"/>
</g>
<!-- Node33 -->
<g id="node34" class="node">
<title>Node33</title>
<g id="a_node34"><a xlink:href="api_2schedule__types_8h.html" target="_top" xlink:title="ODP schedule. ">
<polygon fill="#ffffff" stroke="#000000" points="474,-235.5 474,-254.5 614,-254.5 614,-235.5 474,-235.5"/>
<text text-anchor="middle" x="544" y="-242.5" font-family="Helvetica,sans-Serif" font-size="10.00" fill="#000000">odp/api/schedule_types.h</text>
</a>
</g>
</g>
<!-- Node32&#45;&gt;Node33 -->
<g id="edge62" class="edge">
<title>Node32&#45;&gt;Node33</title>
<path fill="none" stroke="#191970" d="M437.4925,-291.4554C460.5028,-281.419 490.5086,-268.3314 512.8055,-258.6061"/>
<polygon fill="#191970" stroke="#191970" points="514.3833,-261.7364 522.15,-254.5303 511.5846,-255.3202 514.3833,-261.7364"/>
</g>
<!-- Node34 -->
<g id="node35" class="node">
<title>Node34</title>
<polygon fill="#ffffff" stroke="#bfbfbf" points="485.5,-168.5 485.5,-198.5 602.5,-198.5 602.5,-168.5 485.5,-168.5"/>
<text text-anchor="start" x="493.5" y="-186.5" font-family="Helvetica,sans-Serif" font-size="10.00" fill="#000000">odp/api/abi/schedule</text>
<text text-anchor="middle" x="544" y="-175.5" font-family="Helvetica,sans-Serif" font-size="10.00" fill="#000000">_types.h</text>
</g>
<!-- Node33&#45;&gt;Node34 -->
<g id="edge63" class="edge">
<title>Node33&#45;&gt;Node34</title>
<path fill="none" stroke="#191970" d="M544,-235.3906C544,-228.2234 544,-218.0862 544,-208.671"/>
<polygon fill="#191970" stroke="#191970" points="547.5001,-208.5446 544,-198.5446 540.5001,-208.5446 547.5001,-208.5446"/>
</g>
<!-- Node35 -->
<g id="node36" class="node">
<title>Node35</title>
<g id="a_node36"><a xlink:href="api_2spec_2schedule__types_8h.html" target="_top" xlink:title="ODP schedule types. ">
<polygon fill="#ffffff" stroke="#000000" points="621.5,-168.5 621.5,-198.5 746.5,-198.5 746.5,-168.5 621.5,-168.5"/>
<text text-anchor="start" x="629.5" y="-186.5" font-family="Helvetica,sans-Serif" font-size="10.00" fill="#000000">odp/api/spec/schedule</text>
<text text-anchor="middle" x="684" y="-175.5" font-family="Helvetica,sans-Serif" font-size="10.00" fill="#000000">_types.h</text>
</a>
</g>
</g>
<!-- Node33&#45;&gt;Node35 -->
<g id="edge64" class="edge">
<title>Node33&#45;&gt;Node35</title>
<path fill="none" stroke="#191970" d="M565.875,-235.3906C585.7872,-226.6435 615.7691,-213.4728 640.5438,-202.5897"/>
<polygon fill="#191970" stroke="#191970" points="642.0043,-205.771 649.7521,-198.5446 639.1889,-199.3621 642.0043,-205.771"/>
</g>
<!-- Node35&#45;&gt;Node1 -->
<g id="edge65" class="edge">
<title>Node35&#45;&gt;Node1</title>
<path fill="none" stroke="#191970" d="M711.5543,-168.4665C756.9731,-143.8837 850.6386,-94.0164 932,-56 957.0126,-44.3128 985.8086,-32.2171 1007.5195,-23.3637"/>
<polygon fill="#191970" stroke="#191970" points="1009.005,-26.5382 1016.9572,-19.5373 1006.3748,-20.0511 1009.005,-26.5382"/>
</g>
<!-- Node35&#45;&gt;Node9 -->
<g id="edge70" class="edge">
<title>Node35&#45;&gt;Node9</title>
<path fill="none" stroke="#191970" d="M642.4794,-168.4847C594.2583,-150.1452 513.2479,-116.5074 450,-76 427.7323,-61.7385 405.0902,-41.4946 390.1771,-27.1963"/>
<polygon fill="#191970" stroke="#191970" points="392.341,-24.4176 382.7387,-19.9401 387.453,-29.4284 392.341,-24.4176"/>
</g>
<!-- Node36 -->
<g id="node37" class="node">
<title>Node36</title>
<g id="a_node37"><a xlink:href="support_8h.html" target="_top" xlink:title="ODP support API &#45; platform specific header. ">
<polygon fill="#ffffff" stroke="#000000" points="633.5,-112.5 633.5,-131.5 734.5,-131.5 734.5,-112.5 633.5,-112.5"/>
<text text-anchor="middle" x="684" y="-119.5" font-family="Helvetica,sans-Serif" font-size="10.00" fill="#000000">odp/api/support.h</text>
</a>
</g>
</g>
<!-- Node35&#45;&gt;Node36 -->
<g id="edge66" class="edge">
<title>Node35&#45;&gt;Node36</title>
<path fill="none" stroke="#191970" d="M684,-168.2977C684,-160.3834 684,-150.6043 684,-142.0759"/>
<polygon fill="#191970" stroke="#191970" points="687.5001,-141.8469 684,-131.8469 680.5001,-141.847 687.5001,-141.8469"/>
</g>
<!-- Node37 -->
<g id="node38" class="node">
<title>Node37</title>
<g id="a_node38"><a xlink:href="spec_2support_8h.html" target="_top" xlink:title="ODP support API. ">
<polygon fill="#ffffff" stroke="#000000" points="621.5,-56.5 621.5,-75.5 748.5,-75.5 748.5,-56.5 621.5,-56.5"/>
<text text-anchor="middle" x="685" y="-63.5" font-family="Helvetica,sans-Serif" font-size="10.00" fill="#000000">odp/api/spec/support.h</text>
</a>
</g>
</g>
<!-- Node36&#45;&gt;Node37 -->
<g id="edge67" class="edge">
<title>Node36&#45;&gt;Node37</title>
<path fill="none" stroke="#191970" d="M684.1742,-112.2455C684.3047,-104.9382 684.4876,-94.6944 684.6481,-85.7046"/>
<polygon fill="#191970" stroke="#191970" points="688.1486,-85.7036 684.8278,-75.6427 681.1497,-85.5786 688.1486,-85.7036"/>
</g>
<!-- Node37&#45;&gt;Node1 -->
<g id="edge68" class="edge">
<title>Node37&#45;&gt;Node1</title>
<path fill="none" stroke="#191970" d="M745.7941,-56.4369C808.0007,-46.6516 904.5869,-31.4582 970.2018,-21.1368"/>
<polygon fill="#191970" stroke="#191970" points="971.122,-24.5352 980.4567,-19.5237 970.0342,-17.6202 971.122,-24.5352"/>
</g>
<!-- Node37&#45;&gt;Node9 -->
<g id="edge69" class="edge">
<title>Node37&#45;&gt;Node9</title>
<path fill="none" stroke="#191970" d="M631.7198,-56.4369C577.5382,-46.712 493.5969,-31.6456 436.1159,-21.3285"/>
<polygon fill="#191970" stroke="#191970" points="436.5215,-17.8454 426.0605,-19.5237 435.2848,-24.7353 436.5215,-17.8454"/>
</g>
<!-- Node39 -->
<g id="node40" class="node">
<title>Node39</title>
<g id="a_node40"><a xlink:href="spec_2reassembly_8h.html" target="_top" xlink:title="ODP REASSEMBLY API. ">
<polygon fill="#ffffff" stroke="#000000" points="180,-56.5 180,-75.5 326,-75.5 326,-56.5 180,-56.5"/>
<text text-anchor="middle" x="253" y="-63.5" font-family="Helvetica,sans-Serif" font-size="10.00" fill="#000000">odp/api/spec/reassembly.h</text>
</a>
</g>
</g>
<!-- Node38&#45;&gt;Node39 -->
<g id="edge77" class="edge">
<title>Node38&#45;&gt;Node39</title>
<path fill="none" stroke="#191970" d="M162.4312,-761.4618C159.1785,-740.8289 152,-690.482 152,-648 152,-648 152,-648 152,-183.5 152,-137.6695 196.7356,-100.798 226.6613,-81.2602"/>
<polygon fill="#191970" stroke="#191970" points="228.8036,-84.0476 235.4071,-75.7625 225.0782,-78.1212 228.8036,-84.0476"/>
</g>
<!-- Node39&#45;&gt;Node1 -->
<g id="edge78" class="edge">
<title>Node39&#45;&gt;Node1</title>
<path fill="none" stroke="#191970" d="M326.0728,-60.807C476.8822,-50.0896 820.9265,-25.6397 969.9715,-15.0477"/>
<polygon fill="#191970" stroke="#191970" points="970.6337,-18.5096 980.3604,-14.3094 970.1374,-11.5272 970.6337,-18.5096"/>
</g>
<!-- Node39&#45;&gt;Node9 -->
<g id="edge79" class="edge">
<title>Node39&#45;&gt;Node9</title>
<path fill="none" stroke="#191970" d="M273.6287,-56.3733C292.8919,-47.3838 321.8486,-33.8706 343.5419,-23.7471"/>
<polygon fill="#191970" stroke="#191970" points="345.0587,-26.9017 352.6405,-19.5011 342.0985,-20.5584 345.0587,-26.9017"/>
</g>
</g>
</svg>
