<?xml version="1.0" encoding="UTF-8" standalone="no"?>
<!DOCTYPE svg PUBLIC "-//W3C//DTD SVG 1.1//EN"
 "http://www.w3.org/Graphics/SVG/1.1/DTD/svg11.dtd">
<!-- Generated by graphviz version 2.40.1 (20161225.0304)
 -->
<!-- Title: schedule_types.h Pages: 1 -->
<svg width="1229pt" height="868pt"
 viewBox="0.00 0.00 1228.50 868.00" xmlns="http://www.w3.org/2000/svg" xmlns:xlink="http://www.w3.org/1999/xlink">
<g id="graph0" class="graph" transform="scale(1 1) rotate(0) translate(4 864)">
<title>schedule_types.h</title>
<polygon fill="#ffffff" stroke="transparent" points="-4,4 -4,-864 1224.5,-864 1224.5,4 -4,4"/>
<!-- Node1 -->
<g id="node1" class="node">
<title>Node1</title>
<polygon fill="#bfbfbf" stroke="#000000" points="357,-840.5 357,-859.5 458,-859.5 458,-840.5 357,-840.5"/>
<text text-anchor="middle" x="407.5" y="-847.5" font-family="Helvetica,sans-Serif" font-size="10.00" fill="#000000">schedule_types.h</text>
</g>
<!-- Node2 -->
<g id="node2" class="node">
<title>Node2</title>
<g id="a_node2"><a xlink:href="arch_2arm32-linux_2odp_2api_2abi_2schedule__types_8h_source.html" target="_top" xlink:title="schedule_types.h">
<polygon fill="#ffffff" stroke="#000000" points="0,-784.5 0,-803.5 101,-803.5 101,-784.5 0,-784.5"/>
<text text-anchor="middle" x="50.5" y="-791.5" font-family="Helvetica,sans-Serif" font-size="10.00" fill="#000000">schedule_types.h</text>
</a>
</g>
</g>
<!-- Node1&#45;&gt;Node2 -->
<g id="edge1" class="edge">
<title>Node1&#45;&gt;Node2</title>
<path fill="none" stroke="#191970" d="M346.7464,-840.89C286.4969,-831.7925 191.5677,-817.2882 109.5,-804 106.731,-803.5516 103.8898,-803.0866 101.0224,-802.6135"/>
<polygon fill="#191970" stroke="#191970" points="346.4354,-844.3826 356.8456,-842.4134 347.4795,-837.4609 346.4354,-844.3826"/>
</g>
<!-- Node3 -->
<g id="node3" class="node">
<title>Node3</title>
<g id="a_node3"><a xlink:href="arch_2arm64-linux_2odp_2api_2abi_2schedule__types_8h_source.html" target="_top" xlink:title="schedule_types.h">
<polygon fill="#ffffff" stroke="#000000" points="119,-784.5 119,-803.5 220,-803.5 220,-784.5 119,-784.5"/>
<text text-anchor="middle" x="169.5" y="-791.5" font-family="Helvetica,sans-Serif" font-size="10.00" fill="#000000">schedule_types.h</text>
</a>
</g>
</g>
<!-- Node1&#45;&gt;Node3 -->
<g id="edge2" class="edge">
<title>Node1&#45;&gt;Node3</title>
<path fill="none" stroke="#191970" d="M356.978,-838.1125C313.1588,-827.8021 250.5614,-813.0733 209.9756,-803.5237"/>
<polygon fill="#191970" stroke="#191970" points="356.3209,-841.5534 366.8568,-840.4369 357.9243,-834.7395 356.3209,-841.5534"/>
</g>
<!-- Node4 -->
<g id="node4" class="node">
<title>Node4</title>
<g id="a_node4"><a xlink:href="arch_2default-linux_2odp_2api_2abi_2schedule__types_8h_source.html" target="_top" xlink:title="schedule_types.h">
<polygon fill="#ffffff" stroke="#000000" points="238,-784.5 238,-803.5 339,-803.5 339,-784.5 238,-784.5"/>
<text text-anchor="middle" x="288.5" y="-791.5" font-family="Helvetica,sans-Serif" font-size="10.00" fill="#000000">schedule_types.h</text>
</a>
</g>
</g>
<!-- Node1&#45;&gt;Node4 -->
<g id="edge3" class="edge">
<title>Node1&#45;&gt;Node4</title>
<path fill="none" stroke="#191970" d="M377.9856,-836.1109C356.4062,-825.9559 327.7024,-812.4482 308.6899,-803.5011"/>
<polygon fill="#191970" stroke="#191970" points="376.5047,-839.2821 387.0432,-840.3733 379.4853,-832.9484 376.5047,-839.2821"/>
</g>
<!-- Node5 -->
<g id="node5" class="node">
<title>Node5</title>
<g id="a_node5"><a xlink:href="arch_2mips64-linux_2odp_2api_2abi_2schedule__types_8h_source.html" target="_top" xlink:title="schedule_types.h">
<polygon fill="#ffffff" stroke="#000000" points="357,-784.5 357,-803.5 458,-803.5 458,-784.5 357,-784.5"/>
<text text-anchor="middle" x="407.5" y="-791.5" font-family="Helvetica,sans-Serif" font-size="10.00" fill="#000000">schedule_types.h</text>
</a>
</g>
</g>
<!-- Node1&#45;&gt;Node5 -->
<g id="edge4" class="edge">
<title>Node1&#45;&gt;Node5</title>
<path fill="none" stroke="#191970" d="M407.5,-830.1575C407.5,-821.155 407.5,-810.9199 407.5,-803.6427"/>
<polygon fill="#191970" stroke="#191970" points="404.0001,-830.2455 407.5,-840.2455 411.0001,-830.2456 404.0001,-830.2455"/>
</g>
<!-- Node6 -->
<g id="node6" class="node">
<title>Node6</title>
<g id="a_node6"><a xlink:href="arch_2power64-linux_2odp_2api_2abi_2schedule__types_8h_source.html" target="_top" xlink:title="schedule_types.h">
<polygon fill="#ffffff" stroke="#000000" points="476,-784.5 476,-803.5 577,-803.5 577,-784.5 476,-784.5"/>
<text text-anchor="middle" x="526.5" y="-791.5" font-family="Helvetica,sans-Serif" font-size="10.00" fill="#000000">schedule_types.h</text>
</a>
</g>
</g>
<!-- Node1&#45;&gt;Node6 -->
<g id="edge5" class="edge">
<title>Node1&#45;&gt;Node6</title>
<path fill="none" stroke="#191970" d="M437.0144,-836.1109C458.5938,-825.9559 487.2976,-812.4482 506.3101,-803.5011"/>
<polygon fill="#191970" stroke="#191970" points="435.5147,-832.9484 427.9568,-840.3733 438.4953,-839.2821 435.5147,-832.9484"/>
</g>
<!-- Node7 -->
<g id="node7" class="node">
<title>Node7</title>
<g id="a_node7"><a xlink:href="arch_2x86__32-linux_2odp_2api_2abi_2schedule__types_8h_source.html" target="_top" xlink:title="schedule_types.h">
<polygon fill="#ffffff" stroke="#000000" points="595,-784.5 595,-803.5 696,-803.5 696,-784.5 595,-784.5"/>
<text text-anchor="middle" x="645.5" y="-791.5" font-family="Helvetica,sans-Serif" font-size="10.00" fill="#000000">schedule_types.h</text>
</a>
</g>
</g>
<!-- Node1&#45;&gt;Node7 -->
<g id="edge6" class="edge">
<title>Node1&#45;&gt;Node7</title>
<path fill="none" stroke="#191970" d="M458.022,-838.1125C501.8412,-827.8021 564.4386,-813.0733 605.0244,-803.5237"/>
<polygon fill="#191970" stroke="#191970" points="457.0757,-834.7395 448.1432,-840.4369 458.6791,-841.5534 457.0757,-834.7395"/>
</g>
<!-- Node8 -->
<g id="node8" class="node">
<title>Node8</title>
<g id="a_node8"><a xlink:href="arch_2x86__64-linux_2odp_2api_2abi_2schedule__types_8h_source.html" target="_top" xlink:title="schedule_types.h">
<polygon fill="#ffffff" stroke="#000000" points="714,-784.5 714,-803.5 815,-803.5 815,-784.5 714,-784.5"/>
<text text-anchor="middle" x="764.5" y="-791.5" font-family="Helvetica,sans-Serif" font-size="10.00" fill="#000000">schedule_types.h</text>
</a>
</g>
</g>
<!-- Node1&#45;&gt;Node8 -->
<g id="edge7" class="edge">
<title>Node1&#45;&gt;Node8</title>
<path fill="none" stroke="#191970" d="M468.3088,-840.7907C528.3625,-831.6466 622.8082,-817.1335 704.5,-804 707.5237,-803.5139 710.6323,-803.0096 713.7677,-802.4974"/>
<polygon fill="#191970" stroke="#191970" points="467.6004,-837.3582 458.2407,-842.3225 468.6534,-844.2785 467.6004,-837.3582"/>
</g>
<!-- Node9 -->
<g id="node9" class="node">
<title>Node9</title>
<g id="a_node9"><a xlink:href="api_2schedule_8h.html" target="_top" xlink:title="ODP schedule. ">
<polygon fill="#ffffff" stroke="#000000" points="754,-448.5 754,-467.5 823,-467.5 823,-448.5 754,-448.5"/>
<text text-anchor="middle" x="788.5" y="-455.5" font-family="Helvetica,sans-Serif" font-size="10.00" fill="#000000">schedule.h</text>
</a>
</g>
</g>
<!-- Node8&#45;&gt;Node9 -->
<g id="edge8" class="edge">
<title>Node8&#45;&gt;Node9</title>
<path fill="none" stroke="#191970" d="M753.7124,-775.4123C742.1696,-753.7334 725.5,-716.4602 725.5,-682 725.5,-682 725.5,-682 725.5,-570 725.5,-539.4754 729.2869,-530.4634 744.5,-504 752.7617,-489.6286 766.448,-476.3058 776.3654,-467.7369"/>
<polygon fill="#191970" stroke="#191970" points="750.6748,-777.1519 758.5767,-784.2094 756.8006,-773.7645 750.6748,-777.1519"/>
</g>
<!-- Node12 -->
<g id="node12" class="node">
<title>Node12</title>
<g id="a_node12"><a xlink:href="api_2schedule__types_8h.html" target="_top" xlink:title="ODP schedule. ">
<polygon fill="#ffffff" stroke="#000000" points="754,-728.5 754,-747.5 855,-747.5 855,-728.5 754,-728.5"/>
<text text-anchor="middle" x="804.5" y="-735.5" font-family="Helvetica,sans-Serif" font-size="10.00" fill="#000000">schedule_types.h</text>
</a>
</g>
</g>
<!-- Node8&#45;&gt;Node12 -->
<g id="edge11" class="edge">
<title>Node8&#45;&gt;Node12</title>
<path fill="none" stroke="#191970" d="M777.4136,-775.9209C784.1303,-766.5176 792.0717,-755.3997 797.6124,-747.6427"/>
<polygon fill="#191970" stroke="#191970" points="774.4318,-774.0738 771.4675,-784.2455 780.128,-778.1425 774.4318,-774.0738"/>
</g>
<!-- Node10 -->
<g id="node10" class="node">
<title>Node10</title>
<g id="a_node10"><a xlink:href="odp__api_8h.html" target="_top" xlink:title="The OpenDataPlane API. ">
<polygon fill="#ffffff" stroke="#000000" points="927.5,-56.5 927.5,-75.5 991.5,-75.5 991.5,-56.5 927.5,-56.5"/>
<text text-anchor="middle" x="959.5" y="-63.5" font-family="Helvetica,sans-Serif" font-size="10.00" fill="#000000">odp_api.h</text>
</a>
</g>
</g>
<!-- Node9&#45;&gt;Node10 -->
<g id="edge9" class="edge">
<title>Node9&#45;&gt;Node10</title>
<path fill="none" stroke="#191970" d="M792.1339,-438.5816C795.98,-416.3089 801.5,-378.6543 801.5,-346 801.5,-346 801.5,-346 801.5,-178 801.5,-144.5868 812.292,-133.9317 837.5,-112 863.1161,-89.7132 900.5987,-77.7509 927.2472,-71.6656"/>
<polygon fill="#191970" stroke="#191970" points="788.6835,-437.9941 790.3626,-448.455 795.5735,-439.2302 788.6835,-437.9941"/>
</g>
<!-- Node11 -->
<g id="node11" class="node">
<title>Node11</title>
<g id="a_node11"><a xlink:href="odp_8h.html" target="_top" xlink:title="WARNING: THIS FILE IS DEPRECATED AND WILL BE REMOVED!!! ODP APPLICATIONS SHOULD NOW INCLUDE odp_api...">
<polygon fill="#ffffff" stroke="#000000" points="937.5,-.5 937.5,-19.5 981.5,-19.5 981.5,-.5 937.5,-.5"/>
<text text-anchor="middle" x="959.5" y="-7.5" font-family="Helvetica,sans-Serif" font-size="10.00" fill="#000000">odp.h</text>
</a>
</g>
</g>
<!-- Node10&#45;&gt;Node11 -->
<g id="edge10" class="edge">
<title>Node10&#45;&gt;Node11</title>
<path fill="none" stroke="#191970" d="M959.5,-46.1575C959.5,-37.155 959.5,-26.9199 959.5,-19.6427"/>
<polygon fill="#191970" stroke="#191970" points="956.0001,-46.2455 959.5,-56.2455 963.0001,-46.2456 956.0001,-46.2455"/>
</g>
<!-- Node13 -->
<g id="node13" class="node">
<title>Node13</title>
<g id="a_node13"><a xlink:href="queue__types_8h.html" target="_top" xlink:title="ODP queue types. ">
<polygon fill="#ffffff" stroke="#000000" points="834.5,-672.5 834.5,-691.5 922.5,-691.5 922.5,-672.5 834.5,-672.5"/>
<text text-anchor="middle" x="878.5" y="-679.5" font-family="Helvetica,sans-Serif" font-size="10.00" fill="#000000">queue_types.h</text>
</a>
</g>
</g>
<!-- Node12&#45;&gt;Node13 -->
<g id="edge12" class="edge">
<title>Node12&#45;&gt;Node13</title>
<path fill="none" stroke="#191970" d="M825.3657,-722.2097C838.3625,-712.3743 854.6622,-700.0394 865.7579,-691.6427"/>
<polygon fill="#191970" stroke="#191970" points="823.2518,-719.4201 817.3898,-728.2455 827.476,-725.002 823.2518,-719.4201"/>
</g>
<!-- Node27 -->
<g id="node27" class="node">
<title>Node27</title>
<g id="a_node27"><a xlink:href="api_2spec_2schedule_8h.html" target="_top" xlink:title="ODP schedule. ">
<polygon fill="#ffffff" stroke="#000000" points="754,-504.5 754,-523.5 823,-523.5 823,-504.5 754,-504.5"/>
<text text-anchor="middle" x="788.5" y="-511.5" font-family="Helvetica,sans-Serif" font-size="10.00" fill="#000000">schedule.h</text>
</a>
</g>
</g>
<!-- Node12&#45;&gt;Node27 -->
<g id="edge38" class="edge">
<title>Node12&#45;&gt;Node27</title>
<path fill="none" stroke="#191970" d="M803.0798,-718.1177C799.7622,-671.6713 791.6016,-557.4223 789.1849,-523.5891"/>
<polygon fill="#191970" stroke="#191970" points="799.6088,-718.6498 803.8125,-728.375 806.591,-718.151 799.6088,-718.6498"/>
</g>
<!-- Node14 -->
<g id="node14" class="node">
<title>Node14</title>
<g id="a_node14"><a xlink:href="api_2spec_2queue_8h.html" target="_top" xlink:title="ODP queue. ">
<polygon fill="#ffffff" stroke="#000000" points="852.5,-616.5 852.5,-635.5 908.5,-635.5 908.5,-616.5 852.5,-616.5"/>
<text text-anchor="middle" x="880.5" y="-623.5" font-family="Helvetica,sans-Serif" font-size="10.00" fill="#000000">queue.h</text>
</a>
</g>
</g>
<!-- Node13&#45;&gt;Node14 -->
<g id="edge13" class="edge">
<title>Node13&#45;&gt;Node14</title>
<path fill="none" stroke="#191970" d="M879.2087,-662.1575C879.5302,-653.155 879.8957,-642.9199 880.1556,-635.6427"/>
<polygon fill="#191970" stroke="#191970" points="875.7076,-662.127 878.8484,-672.2455 882.7032,-662.3769 875.7076,-662.127"/>
</g>
<!-- Node15 -->
<g id="node15" class="node">
<title>Node15</title>
<g id="a_node15"><a xlink:href="api_2queue_8h.html" target="_top" xlink:title="ODP queue. ">
<polygon fill="#ffffff" stroke="#000000" points="859.5,-560.5 859.5,-579.5 915.5,-579.5 915.5,-560.5 859.5,-560.5"/>
<text text-anchor="middle" x="887.5" y="-567.5" font-family="Helvetica,sans-Serif" font-size="10.00" fill="#000000">queue.h</text>
</a>
</g>
</g>
<!-- Node14&#45;&gt;Node15 -->
<g id="edge14" class="edge">
<title>Node14&#45;&gt;Node15</title>
<path fill="none" stroke="#191970" d="M882.9803,-606.1575C884.1056,-597.155 885.385,-586.9199 886.2947,-579.6427"/>
<polygon fill="#191970" stroke="#191970" points="879.4868,-605.8886 881.7193,-616.2455 886.4327,-606.7569 879.4868,-605.8886"/>
</g>
<!-- Node15&#45;&gt;Node10 -->
<g id="edge37" class="edge">
<title>Node15&#45;&gt;Node10</title>
<path fill="none" stroke="#191970" d="M877.5631,-551.3555C866.9074,-529.5906 851.5,-492.2058 851.5,-458 851.5,-458 851.5,-458 851.5,-178 851.5,-128.0278 907.9011,-91.791 939.186,-75.5348"/>
<polygon fill="#191970" stroke="#191970" points="874.5341,-553.1205 882.1881,-560.4462 880.773,-549.9463 874.5341,-553.1205"/>
</g>
<!-- Node16 -->
<g id="node16" class="node">
<title>Node16</title>
<g id="a_node16"><a xlink:href="api_2crypto_8h.html" target="_top" xlink:title="ODP crypto. ">
<polygon fill="#ffffff" stroke="#000000" points="1164.5,-224.5 1164.5,-243.5 1220.5,-243.5 1220.5,-224.5 1164.5,-224.5"/>
<text text-anchor="middle" x="1192.5" y="-231.5" font-family="Helvetica,sans-Serif" font-size="10.00" fill="#000000">crypto.h</text>
</a>
</g>
</g>
<!-- Node15&#45;&gt;Node16 -->
<g id="edge15" class="edge">
<title>Node15&#45;&gt;Node16</title>
<path fill="none" stroke="#191970" d="M925.7786,-563.8077C1005.814,-549.7765 1183.5,-512.4898 1183.5,-458 1183.5,-458 1183.5,-458 1183.5,-346 1183.5,-307.9611 1188.7219,-262.888 1191.2105,-243.5676"/>
<polygon fill="#191970" stroke="#191970" points="924.8756,-560.4116 915.6138,-565.5565 926.0625,-567.3102 924.8756,-560.4116"/>
</g>
<!-- Node19 -->
<g id="node19" class="node">
<title>Node19</title>
<g id="a_node19"><a xlink:href="api_2spec_2packet__io_8h.html" target="_top" xlink:title="ODP Packet IO. ">
<polygon fill="#ffffff" stroke="#000000" points="928,-392.5 928,-411.5 1001,-411.5 1001,-392.5 928,-392.5"/>
<text text-anchor="middle" x="964.5" y="-399.5" font-family="Helvetica,sans-Serif" font-size="10.00" fill="#000000">packet_io.h</text>
</a>
</g>
</g>
<!-- Node15&#45;&gt;Node19 -->
<g id="edge20" class="edge">
<title>Node15&#45;&gt;Node19</title>
<path fill="none" stroke="#191970" d="M886.7961,-550.1708C886.7731,-524.7807 889.7594,-480.2216 908.5,-448 917.6722,-432.2299 934.4197,-419.5668 947.2185,-411.5504"/>
<polygon fill="#191970" stroke="#191970" points="883.3001,-550.4365 886.9727,-560.3744 890.299,-550.3153 883.3001,-550.4365"/>
</g>
<!-- Node25 -->
<g id="node25" class="node">
<title>Node25</title>
<g id="a_node25"><a xlink:href="spec_2packet__io__stats_8h.html" target="_top" xlink:title="ODP Packet IO statistics. ">
<polygon fill="#ffffff" stroke="#000000" points="917.5,-504.5 917.5,-523.5 1019.5,-523.5 1019.5,-504.5 917.5,-504.5"/>
<text text-anchor="middle" x="968.5" y="-511.5" font-family="Helvetica,sans-Serif" font-size="10.00" fill="#000000">packet_io_stats.h</text>
</a>
</g>
</g>
<!-- Node15&#45;&gt;Node25 -->
<g id="edge32" class="edge">
<title>Node15&#45;&gt;Node25</title>
<path fill="none" stroke="#191970" d="M909.934,-554.49C924.2254,-544.6096 942.2916,-532.1194 954.5526,-523.6427"/>
<polygon fill="#191970" stroke="#191970" points="907.8443,-551.6797 901.6091,-560.2455 911.8251,-557.4376 907.8443,-551.6797"/>
</g>
<!-- Node15&#45;&gt;Node27 -->
<g id="edge35" class="edge">
<title>Node15&#45;&gt;Node27</title>
<path fill="none" stroke="#191970" d="M861.0643,-555.0465C843.4492,-545.0824 820.8153,-532.2794 805.5469,-523.6427"/>
<polygon fill="#191970" stroke="#191970" points="859.8283,-558.3684 870.2555,-560.2455 863.2747,-552.2756 859.8283,-558.3684"/>
</g>
<!-- Node16&#45;&gt;Node10 -->
<g id="edge19" class="edge">
<title>Node16&#45;&gt;Node10</title>
<path fill="none" stroke="#191970" d="M1182.2382,-215.1392C1166.8042,-188.4644 1135.1542,-139.8693 1095.5,-112 1063.8916,-89.7853 1020.7024,-77.608 991.5435,-71.4571"/>
<polygon fill="#191970" stroke="#191970" points="1179.3849,-217.2054 1187.3423,-224.2004 1185.4839,-213.7698 1179.3849,-217.2054"/>
</g>
<!-- Node17 -->
<g id="node17" class="node">
<title>Node17</title>
<g id="a_node17"><a xlink:href="api_2spec_2ipsec_8h.html" target="_top" xlink:title="ODP IPSEC API. ">
<polygon fill="#ffffff" stroke="#000000" points="1038,-168.5 1038,-187.5 1089,-187.5 1089,-168.5 1038,-168.5"/>
<text text-anchor="middle" x="1063.5" y="-175.5" font-family="Helvetica,sans-Serif" font-size="10.00" fill="#000000">ipsec.h</text>
</a>
</g>
</g>
<!-- Node16&#45;&gt;Node17 -->
<g id="edge16" class="edge">
<title>Node16&#45;&gt;Node17</title>
<path fill="none" stroke="#191970" d="M1161.1329,-220.3833C1137.6716,-210.1985 1106.1815,-196.5284 1085.3865,-187.5011"/>
<polygon fill="#191970" stroke="#191970" points="1159.7574,-223.6017 1170.3241,-224.3733 1162.5449,-217.1806 1159.7574,-223.6017"/>
</g>
<!-- Node18 -->
<g id="node18" class="node">
<title>Node18</title>
<g id="a_node18"><a xlink:href="api_2ipsec_8h.html" target="_top" xlink:title="ODP IPSEC API &#45; platform specific header. ">
<polygon fill="#ffffff" stroke="#000000" points="1035,-112.5 1035,-131.5 1086,-131.5 1086,-112.5 1035,-112.5"/>
<text text-anchor="middle" x="1060.5" y="-119.5" font-family="Helvetica,sans-Serif" font-size="10.00" fill="#000000">ipsec.h</text>
</a>
</g>
</g>
<!-- Node17&#45;&gt;Node18 -->
<g id="edge17" class="edge">
<title>Node17&#45;&gt;Node18</title>
<path fill="none" stroke="#191970" d="M1062.437,-158.1575C1061.9547,-149.155 1061.4064,-138.9199 1061.0166,-131.6427"/>
<polygon fill="#191970" stroke="#191970" points="1058.9474,-158.4471 1062.9774,-168.2455 1065.9374,-158.0726 1058.9474,-158.4471"/>
</g>
<!-- Node18&#45;&gt;Node10 -->
<g id="edge18" class="edge">
<title>Node18&#45;&gt;Node10</title>
<path fill="none" stroke="#191970" d="M1034.0281,-107.3225C1015.9875,-97.3198 992.6123,-84.3593 976.8913,-75.6427"/>
<polygon fill="#191970" stroke="#191970" points="1032.4643,-110.4574 1042.9071,-112.2455 1035.8587,-104.3354 1032.4643,-110.4574"/>
</g>
<!-- Node20 -->
<g id="node20" class="node">
<title>Node20</title>
<g id="a_node20"><a xlink:href="api_2packet__io_8h.html" target="_top" xlink:title="ODP Packet IO. ">
<polygon fill="#ffffff" stroke="#000000" points="928,-336.5 928,-355.5 1001,-355.5 1001,-336.5 928,-336.5"/>
<text text-anchor="middle" x="964.5" y="-343.5" font-family="Helvetica,sans-Serif" font-size="10.00" fill="#000000">packet_io.h</text>
</a>
</g>
</g>
<!-- Node19&#45;&gt;Node20 -->
<g id="edge21" class="edge">
<title>Node19&#45;&gt;Node20</title>
<path fill="none" stroke="#191970" d="M964.5,-382.1575C964.5,-373.155 964.5,-362.9199 964.5,-355.6427"/>
<polygon fill="#191970" stroke="#191970" points="961.0001,-382.2455 964.5,-392.2455 968.0001,-382.2456 961.0001,-382.2455"/>
</g>
<!-- Node20&#45;&gt;Node10 -->
<g id="edge31" class="edge">
<title>Node20&#45;&gt;Node10</title>
<path fill="none" stroke="#191970" d="M939.7668,-330.7144C928.7674,-322.7809 916.5186,-312.1935 908.5,-300 891.7281,-274.496 889.5,-264.5246 889.5,-234 889.5,-234 889.5,-234 889.5,-178 889.5,-134.2041 928.4659,-93.4144 948.2533,-75.5244"/>
<polygon fill="#191970" stroke="#191970" points="937.9844,-333.7356 948.2155,-336.4879 941.9339,-327.9561 937.9844,-333.7356"/>
</g>
<!-- Node20&#45;&gt;Node17 -->
<g id="edge26" class="edge">
<title>Node20&#45;&gt;Node17</title>
<path fill="none" stroke="#191970" d="M1010.9036,-338.2749C1051.0588,-330.532 1104.6456,-317.2875 1117.5,-300 1137.6549,-272.8943 1131.6612,-254.6659 1117.5,-224 1110.1167,-208.0115 1094.1324,-195.5319 1081.4599,-187.6299"/>
<polygon fill="#191970" stroke="#191970" points="1010.2031,-334.8452 1001.0171,-340.124 1011.4901,-341.7258 1010.2031,-334.8452"/>
</g>
<!-- Node21 -->
<g id="node21" class="node">
<title>Node21</title>
<g id="a_node21"><a xlink:href="api_2spec_2classification_8h.html" target="_top" xlink:title="ODP classification descriptor. ">
<polygon fill="#ffffff" stroke="#000000" points="1019,-280.5 1019,-299.5 1108,-299.5 1108,-280.5 1019,-280.5"/>
<text text-anchor="middle" x="1063.5" y="-287.5" font-family="Helvetica,sans-Serif" font-size="10.00" fill="#000000">classification.h</text>
</a>
</g>
</g>
<!-- Node20&#45;&gt;Node21 -->
<g id="edge22" class="edge">
<title>Node20&#45;&gt;Node21</title>
<path fill="none" stroke="#191970" d="M990.9357,-331.0465C1008.5508,-321.0824 1031.1847,-308.2794 1046.4531,-299.6427"/>
<polygon fill="#191970" stroke="#191970" points="988.7253,-328.2756 981.7445,-336.2455 992.1717,-334.3684 988.7253,-328.2756"/>
</g>
<!-- Node23 -->
<g id="node23" class="node">
<title>Node23</title>
<g id="a_node23"><a xlink:href="api_2spec_2traffic__mngr_8h.html" target="_top" xlink:title="Copyright (c) 2015&#45;2018, Linaro Limited All rights reserved. ">
<polygon fill="#ffffff" stroke="#000000" points="917.5,-280.5 917.5,-299.5 1001.5,-299.5 1001.5,-280.5 917.5,-280.5"/>
<text text-anchor="middle" x="959.5" y="-287.5" font-family="Helvetica,sans-Serif" font-size="10.00" fill="#000000">traffic_mngr.h</text>
</a>
</g>
</g>
<!-- Node20&#45;&gt;Node23 -->
<g id="edge27" class="edge">
<title>Node20&#45;&gt;Node23</title>
<path fill="none" stroke="#191970" d="M962.7283,-326.1575C961.9246,-317.155 961.0107,-306.9199 960.361,-299.6427"/>
<polygon fill="#191970" stroke="#191970" points="959.2535,-326.5965 963.6291,-336.2455 966.2258,-325.9739 959.2535,-326.5965"/>
</g>
<!-- Node22 -->
<g id="node22" class="node">
<title>Node22</title>
<g id="a_node22"><a xlink:href="api_2classification_8h.html" target="_top" xlink:title="ODP classification descriptor. ">
<polygon fill="#ffffff" stroke="#000000" points="1019,-224.5 1019,-243.5 1108,-243.5 1108,-224.5 1019,-224.5"/>
<text text-anchor="middle" x="1063.5" y="-231.5" font-family="Helvetica,sans-Serif" font-size="10.00" fill="#000000">classification.h</text>
</a>
</g>
</g>
<!-- Node21&#45;&gt;Node22 -->
<g id="edge23" class="edge">
<title>Node21&#45;&gt;Node22</title>
<path fill="none" stroke="#191970" d="M1063.5,-270.1575C1063.5,-261.155 1063.5,-250.9199 1063.5,-243.6427"/>
<polygon fill="#191970" stroke="#191970" points="1060.0001,-270.2455 1063.5,-280.2455 1067.0001,-270.2456 1060.0001,-270.2455"/>
</g>
<!-- Node22&#45;&gt;Node10 -->
<g id="edge25" class="edge">
<title>Node22&#45;&gt;Node10</title>
<path fill="none" stroke="#191970" d="M1049.7332,-216.3801C1043.3437,-207.9539 1035.7888,-197.6258 1029.5,-188 1003.0551,-147.5226 975.6428,-96.6776 964.579,-75.7162"/>
<polygon fill="#191970" stroke="#191970" points="1046.9995,-218.5668 1055.8679,-224.3634 1052.55,-214.3015 1046.9995,-218.5668"/>
</g>
<!-- Node22&#45;&gt;Node17 -->
<g id="edge24" class="edge">
<title>Node22&#45;&gt;Node17</title>
<path fill="none" stroke="#191970" d="M1063.5,-214.1575C1063.5,-205.155 1063.5,-194.9199 1063.5,-187.6427"/>
<polygon fill="#191970" stroke="#191970" points="1060.0001,-214.2455 1063.5,-224.2455 1067.0001,-214.2456 1060.0001,-214.2455"/>
</g>
<!-- Node24 -->
<g id="node24" class="node">
<title>Node24</title>
<g id="a_node24"><a xlink:href="api_2traffic__mngr_8h.html" target="_top" xlink:title="ODP Traffic manager. ">
<polygon fill="#ffffff" stroke="#000000" points="917.5,-224.5 917.5,-243.5 1001.5,-243.5 1001.5,-224.5 917.5,-224.5"/>
<text text-anchor="middle" x="959.5" y="-231.5" font-family="Helvetica,sans-Serif" font-size="10.00" fill="#000000">traffic_mngr.h</text>
</a>
</g>
</g>
<!-- Node23&#45;&gt;Node24 -->
<g id="edge28" class="edge">
<title>Node23&#45;&gt;Node24</title>
<path fill="none" stroke="#191970" d="M959.5,-270.1575C959.5,-261.155 959.5,-250.9199 959.5,-243.6427"/>
<polygon fill="#191970" stroke="#191970" points="956.0001,-270.2455 959.5,-280.2455 963.0001,-270.2456 956.0001,-270.2455"/>
</g>
<!-- Node24&#45;&gt;Node10 -->
<g id="edge30" class="edge">
<title>Node24&#45;&gt;Node10</title>
<path fill="none" stroke="#191970" d="M959.5,-214.2601C959.5,-178.1669 959.5,-102.7656 959.5,-75.8279"/>
<polygon fill="#191970" stroke="#191970" points="956.0001,-214.4862 959.5,-224.4862 963.0001,-214.4863 956.0001,-214.4862"/>
</g>
<!-- Node24&#45;&gt;Node17 -->
<g id="edge29" class="edge">
<title>Node24&#45;&gt;Node17</title>
<path fill="none" stroke="#191970" d="M986.5029,-219.46C1005.1136,-209.4388 1029.3299,-196.3993 1045.5922,-187.6427"/>
<polygon fill="#191970" stroke="#191970" points="984.7608,-216.4228 977.6154,-224.2455 988.0795,-222.5861 984.7608,-216.4228"/>
</g>
<!-- Node26 -->
<g id="node26" class="node">
<title>Node26</title>
<g id="a_node26"><a xlink:href="packet__io__stats_8h.html" target="_top" xlink:title="ODP packet IO stats. ">
<polygon fill="#ffffff" stroke="#000000" points="917.5,-448.5 917.5,-467.5 1019.5,-467.5 1019.5,-448.5 917.5,-448.5"/>
<text text-anchor="middle" x="968.5" y="-455.5" font-family="Helvetica,sans-Serif" font-size="10.00" fill="#000000">packet_io_stats.h</text>
</a>
</g>
</g>
<!-- Node25&#45;&gt;Node26 -->
<g id="edge33" class="edge">
<title>Node25&#45;&gt;Node26</title>
<path fill="none" stroke="#191970" d="M968.5,-494.1575C968.5,-485.155 968.5,-474.9199 968.5,-467.6427"/>
<polygon fill="#191970" stroke="#191970" points="965.0001,-494.2455 968.5,-504.2455 972.0001,-494.2456 965.0001,-494.2455"/>
</g>
<!-- Node26&#45;&gt;Node19 -->
<g id="edge34" class="edge">
<title>Node26&#45;&gt;Node19</title>
<path fill="none" stroke="#191970" d="M967.0827,-438.1575C966.4396,-429.155 965.7086,-418.9199 965.1888,-411.6427"/>
<polygon fill="#191970" stroke="#191970" points="963.5996,-438.5204 967.8033,-448.2455 970.5818,-438.0216 963.5996,-438.5204"/>
</g>
<!-- Node27&#45;&gt;Node9 -->
<g id="edge36" class="edge">
<title>Node27&#45;&gt;Node9</title>
<path fill="none" stroke="#191970" d="M788.5,-494.1575C788.5,-485.155 788.5,-474.9199 788.5,-467.6427"/>
<polygon fill="#191970" stroke="#191970" points="785.0001,-494.2455 788.5,-504.2455 792.0001,-494.2456 785.0001,-494.2455"/>
</g>
</g>
</svg>
