<?xml version="1.0" encoding="UTF-8" standalone="no"?>
<!DOCTYPE svg PUBLIC "-//W3C//DTD SVG 1.1//EN"
 "http://www.w3.org/Graphics/SVG/1.1/DTD/svg11.dtd">
<!-- Generated by graphviz version 2.40.1 (20161225.0304)
 -->
<!-- Title: time.h Pages: 1 -->
<svg width="704pt" height="924pt"
 viewBox="0.00 0.00 703.50 924.00" xmlns="http://www.w3.org/2000/svg" xmlns:xlink="http://www.w3.org/1999/xlink">
<g id="graph0" class="graph" transform="scale(1 1) rotate(0) translate(4 920)">
<title>time.h</title>
<polygon fill="#ffffff" stroke="transparent" points="-4,4 -4,-920 699.5,-920 699.5,4 -4,4"/>
<!-- Node12 -->
<g id="node1" class="node">
<title>Node12</title>
<polygon fill="#bfbfbf" stroke="#000000" points="65,-896.5 65,-915.5 113,-915.5 113,-896.5 65,-896.5"/>
<text text-anchor="middle" x="89" y="-903.5" font-family="Helvetica,sans-Serif" font-size="10.00" fill="#000000">time.h</text>
</g>
<!-- Node13 -->
<g id="node2" class="node">
<title>Node13</title>
<g id="a_node2"><a xlink:href="api_2spec_2packet_8h.html" target="_top" xlink:title="ODP packet descriptor. ">
<polygon fill="#ffffff" stroke="#000000" points="255.5,-840.5 255.5,-859.5 314.5,-859.5 314.5,-840.5 255.5,-840.5"/>
<text text-anchor="middle" x="285" y="-847.5" font-family="Helvetica,sans-Serif" font-size="10.00" fill="#000000">packet.h</text>
</a>
</g>
</g>
<!-- Node12&#45;&gt;Node13 -->
<g id="edge1" class="edge">
<title>Node12&#45;&gt;Node13</title>
<path fill="none" stroke="#191970" d="M122.9462,-896.3011C160.3046,-885.6273 219.762,-868.6394 255.325,-858.4786"/>
<polygon fill="#191970" stroke="#191970" points="121.6871,-893.0207 113.0334,-899.1333 123.6102,-899.7514 121.6871,-893.0207"/>
</g>
<!-- Node17 -->
<g id="node6" class="node">
<title>Node17</title>
<g id="a_node6"><a xlink:href="odp__api_8h.html" target="_top" xlink:title="The OpenDataPlane API. ">
<polygon fill="#ffffff" stroke="#000000" points="348,-56.5 348,-75.5 412,-75.5 412,-56.5 348,-56.5"/>
<text text-anchor="middle" x="380" y="-63.5" font-family="Helvetica,sans-Serif" font-size="10.00" fill="#000000">odp_api.h</text>
</a>
</g>
</g>
<!-- Node12&#45;&gt;Node17 -->
<g id="edge45" class="edge">
<title>Node12&#45;&gt;Node17</title>
<path fill="none" stroke="#191970" d="M65.1057,-890.497C38.7437,-871.2996 0,-835.9497 0,-794 0,-794 0,-794 0,-178 0,-130.5213 40.4577,-130.9285 84,-112 131.0383,-91.5517 281.3198,-75.3052 347.8193,-68.9252"/>
<polygon fill="#191970" stroke="#191970" points="63.2987,-893.5044 73.4974,-896.3744 67.3144,-887.7708 63.2987,-893.5044"/>
</g>
<!-- Node27 -->
<g id="node16" class="node">
<title>Node27</title>
<g id="a_node16"><a xlink:href="api_2spec_2packet__io_8h.html" target="_top" xlink:title="ODP Packet IO. ">
<polygon fill="#ffffff" stroke="#000000" points="158.5,-392.5 158.5,-411.5 231.5,-411.5 231.5,-392.5 158.5,-392.5"/>
<text text-anchor="middle" x="195" y="-399.5" font-family="Helvetica,sans-Serif" font-size="10.00" fill="#000000">packet_io.h</text>
</a>
</g>
</g>
<!-- Node12&#45;&gt;Node27 -->
<g id="edge44" class="edge">
<title>Node12&#45;&gt;Node27</title>
<path fill="none" stroke="#191970" d="M89,-886.1952C89,-863.8128 89,-826.2884 89,-794 89,-794 89,-794 89,-514 89,-464.4715 144.3566,-428.0372 175.0622,-411.6372"/>
<polygon fill="#191970" stroke="#191970" points="85.5001,-886.4116 89,-896.4116 92.5001,-886.4117 85.5001,-886.4116"/>
</g>
<!-- Node14 -->
<g id="node3" class="node">
<title>Node14</title>
<g id="a_node3"><a xlink:href="api_2packet_8h.html" target="_top" xlink:title="ODP packet descriptor. ">
<polygon fill="#ffffff" stroke="#000000" points="394.5,-784.5 394.5,-803.5 453.5,-803.5 453.5,-784.5 394.5,-784.5"/>
<text text-anchor="middle" x="424" y="-791.5" font-family="Helvetica,sans-Serif" font-size="10.00" fill="#000000">packet.h</text>
</a>
</g>
</g>
<!-- Node13&#45;&gt;Node14 -->
<g id="edge2" class="edge">
<title>Node13&#45;&gt;Node14</title>
<path fill="none" stroke="#191970" d="M318.4621,-836.5189C343.7769,-826.3201 377.9103,-812.5685 400.4169,-803.5011"/>
<polygon fill="#191970" stroke="#191970" points="316.8626,-833.3899 308.895,-840.3733 319.4784,-839.8827 316.8626,-833.3899"/>
</g>
<!-- Node15 -->
<g id="node4" class="node">
<title>Node15</title>
<g id="a_node4"><a xlink:href="api_2spec_2comp_8h.html" target="_top" xlink:title="ODP Compression. ">
<polygon fill="#ffffff" stroke="#000000" points="625.5,-728.5 625.5,-747.5 678.5,-747.5 678.5,-728.5 625.5,-728.5"/>
<text text-anchor="middle" x="652" y="-735.5" font-family="Helvetica,sans-Serif" font-size="10.00" fill="#000000">comp.h</text>
</a>
</g>
</g>
<!-- Node14&#45;&gt;Node15 -->
<g id="edge3" class="edge">
<title>Node14&#45;&gt;Node15</title>
<path fill="none" stroke="#191970" d="M463.8063,-784.223C510.1911,-772.8303 585.5474,-754.3217 625.3748,-744.5395"/>
<polygon fill="#191970" stroke="#191970" points="462.6835,-780.8947 453.807,-786.679 464.3532,-787.6926 462.6835,-780.8947"/>
</g>
<!-- Node14&#45;&gt;Node17 -->
<g id="edge43" class="edge">
<title>Node14&#45;&gt;Node17</title>
<path fill="none" stroke="#191970" d="M451.2988,-779.1742C481.2112,-760.7067 525,-726.1348 525,-682 525,-682 525,-682 525,-178 525,-121.3804 454.8984,-89.35 412.1802,-75.0877"/>
<polygon fill="#191970" stroke="#191970" points="449.3383,-776.2677 442.525,-784.3812 452.9108,-782.2874 449.3383,-776.2677"/>
</g>
<!-- Node19 -->
<g id="node8" class="node">
<title>Node19</title>
<g id="a_node8"><a xlink:href="api_2spec_2crypto_8h.html" target="_top" xlink:title="ODP crypto. ">
<polygon fill="#ffffff" stroke="#000000" points="117,-560.5 117,-579.5 173,-579.5 173,-560.5 117,-560.5"/>
<text text-anchor="middle" x="145" y="-567.5" font-family="Helvetica,sans-Serif" font-size="10.00" fill="#000000">crypto.h</text>
</a>
</g>
</g>
<!-- Node14&#45;&gt;Node19 -->
<g id="edge7" class="edge">
<title>Node14&#45;&gt;Node19</title>
<path fill="none" stroke="#191970" d="M383.9343,-791.3944C323.8935,-786.6611 214.6571,-774.5721 187,-748 138.46,-701.3642 141.5112,-609.8981 143.9939,-579.8344"/>
<polygon fill="#191970" stroke="#191970" points="383.9534,-794.9058 394.1887,-792.169 384.4808,-787.9257 383.9534,-794.9058"/>
</g>
<!-- Node23 -->
<g id="node12" class="node">
<title>Node23</title>
<g id="a_node12"><a xlink:href="api_2spec_2event_8h.html" target="_top" xlink:title="ODP event. ">
<polygon fill="#ffffff" stroke="#000000" points="397.5,-728.5 397.5,-747.5 450.5,-747.5 450.5,-728.5 397.5,-728.5"/>
<text text-anchor="middle" x="424" y="-735.5" font-family="Helvetica,sans-Serif" font-size="10.00" fill="#000000">event.h</text>
</a>
</g>
</g>
<!-- Node14&#45;&gt;Node23 -->
<g id="edge13" class="edge">
<title>Node14&#45;&gt;Node23</title>
<path fill="none" stroke="#191970" d="M424,-774.1575C424,-765.155 424,-754.9199 424,-747.6427"/>
<polygon fill="#191970" stroke="#191970" points="420.5001,-774.2455 424,-784.2455 427.5001,-774.2456 420.5001,-774.2455"/>
</g>
<!-- Node14&#45;&gt;Node27 -->
<g id="edge42" class="edge">
<title>Node14&#45;&gt;Node27</title>
<path fill="none" stroke="#191970" d="M384.2195,-791.6417C320.0975,-785.4543 201,-763.0525 201,-682 201,-682 201,-682 201,-626 201,-546.7878 189.4211,-527.1702 192,-448 192.4117,-435.3618 193.458,-420.8016 194.1987,-411.5059"/>
<polygon fill="#191970" stroke="#191970" points="384.1202,-795.1463 394.3873,-792.5317 384.7306,-788.173 384.1202,-795.1463"/>
</g>
<!-- Node37 -->
<g id="node26" class="node">
<title>Node37</title>
<g id="a_node26"><a xlink:href="api_2spec_2packet__flags_8h.html" target="_top" xlink:title="ODP packet flags. ">
<polygon fill="#ffffff" stroke="#000000" points="553.5,-672.5 553.5,-691.5 640.5,-691.5 640.5,-672.5 553.5,-672.5"/>
<text text-anchor="middle" x="597" y="-679.5" font-family="Helvetica,sans-Serif" font-size="10.00" fill="#000000">packet_flags.h</text>
</a>
</g>
</g>
<!-- Node14&#45;&gt;Node37 -->
<g id="edge39" class="edge">
<title>Node14&#45;&gt;Node37</title>
<path fill="none" stroke="#191970" d="M463.3596,-783.328C486.7026,-775.8093 516.1045,-764.1788 539,-748 561.4238,-732.1545 580.9885,-705.9624 590.6286,-691.8073"/>
<polygon fill="#191970" stroke="#191970" points="462.2801,-779.9983 453.763,-786.2999 464.3508,-786.685 462.2801,-779.9983"/>
</g>
<!-- Node16 -->
<g id="node5" class="node">
<title>Node16</title>
<g id="a_node5"><a xlink:href="api_2comp_8h.html" target="_top" xlink:title="ODP crypto. ">
<polygon fill="#ffffff" stroke="#000000" points="642.5,-616.5 642.5,-635.5 695.5,-635.5 695.5,-616.5 642.5,-616.5"/>
<text text-anchor="middle" x="669" y="-623.5" font-family="Helvetica,sans-Serif" font-size="10.00" fill="#000000">comp.h</text>
</a>
</g>
</g>
<!-- Node15&#45;&gt;Node16 -->
<g id="edge4" class="edge">
<title>Node15&#45;&gt;Node16</title>
<path fill="none" stroke="#191970" d="M654.9947,-718.2702C658.6788,-693.9985 664.7845,-653.7725 667.5543,-635.5249"/>
<polygon fill="#191970" stroke="#191970" points="651.4898,-718.0389 653.4494,-728.4509 658.4105,-719.0894 651.4898,-718.0389"/>
</g>
<!-- Node16&#45;&gt;Node17 -->
<g id="edge5" class="edge">
<title>Node16&#45;&gt;Node17</title>
<path fill="none" stroke="#191970" d="M669,-606.1952C669,-583.8128 669,-546.2884 669,-514 669,-514 669,-514 669,-178 669,-123.3832 487.277,-84.9597 412.0323,-71.3909"/>
<polygon fill="#191970" stroke="#191970" points="665.5001,-606.4116 669,-616.4116 672.5001,-606.4117 665.5001,-606.4116"/>
</g>
<!-- Node18 -->
<g id="node7" class="node">
<title>Node18</title>
<g id="a_node7"><a xlink:href="odp_8h.html" target="_top" xlink:title="WARNING: THIS FILE IS DEPRECATED AND WILL BE REMOVED!!! ODP APPLICATIONS SHOULD NOW INCLUDE odp_api...">
<polygon fill="#ffffff" stroke="#000000" points="358,-.5 358,-19.5 402,-19.5 402,-.5 358,-.5"/>
<text text-anchor="middle" x="380" y="-7.5" font-family="Helvetica,sans-Serif" font-size="10.00" fill="#000000">odp.h</text>
</a>
</g>
</g>
<!-- Node17&#45;&gt;Node18 -->
<g id="edge6" class="edge">
<title>Node17&#45;&gt;Node18</title>
<path fill="none" stroke="#191970" d="M380,-46.1575C380,-37.155 380,-26.9199 380,-19.6427"/>
<polygon fill="#191970" stroke="#191970" points="376.5001,-46.2455 380,-56.2455 383.5001,-46.2456 376.5001,-46.2455"/>
</g>
<!-- Node20 -->
<g id="node9" class="node">
<title>Node20</title>
<g id="a_node9"><a xlink:href="api_2crypto_8h.html" target="_top" xlink:title="ODP crypto. ">
<polygon fill="#ffffff" stroke="#000000" points="38,-392.5 38,-411.5 94,-411.5 94,-392.5 38,-392.5"/>
<text text-anchor="middle" x="66" y="-399.5" font-family="Helvetica,sans-Serif" font-size="10.00" fill="#000000">crypto.h</text>
</a>
</g>
</g>
<!-- Node19&#45;&gt;Node20 -->
<g id="edge8" class="edge">
<title>Node19&#45;&gt;Node20</title>
<path fill="none" stroke="#191970" d="M131.038,-552.0865C125.0019,-543.8285 118.1562,-533.7192 113,-524 91.8316,-484.0985 75.1731,-432.5112 68.8043,-411.5169"/>
<polygon fill="#191970" stroke="#191970" points="128.3436,-554.3269 137.1519,-560.2145 133.9377,-550.119 128.3436,-554.3269"/>
</g>
<!-- Node20&#45;&gt;Node17 -->
<g id="edge12" class="edge">
<title>Node20&#45;&gt;Node17</title>
<path fill="none" stroke="#191970" d="M58.1585,-382.8271C49.8754,-360.8089 38,-323.4152 38,-290 38,-290 38,-290 38,-178 38,-113.1793 262.6893,-79.8566 347.8255,-69.557"/>
<polygon fill="#191970" stroke="#191970" points="54.9674,-384.2771 61.8685,-392.3161 61.4868,-381.7281 54.9674,-384.2771"/>
</g>
<!-- Node21 -->
<g id="node10" class="node">
<title>Node21</title>
<g id="a_node10"><a xlink:href="api_2spec_2ipsec_8h.html" target="_top" xlink:title="ODP IPSEC API. ">
<polygon fill="#ffffff" stroke="#000000" points="161.5,-168.5 161.5,-187.5 212.5,-187.5 212.5,-168.5 161.5,-168.5"/>
<text text-anchor="middle" x="187" y="-175.5" font-family="Helvetica,sans-Serif" font-size="10.00" fill="#000000">ipsec.h</text>
</a>
</g>
</g>
<!-- Node20&#45;&gt;Node21 -->
<g id="edge9" class="edge">
<title>Node20&#45;&gt;Node21</title>
<path fill="none" stroke="#191970" d="M68.112,-381.7893C72.6449,-346.6649 85.9969,-273.3933 122,-224 133.6448,-208.0242 152.562,-195.5432 166.9934,-187.6374"/>
<polygon fill="#191970" stroke="#191970" points="64.5857,-381.8085 66.8929,-392.149 71.5378,-382.6266 64.5857,-381.8085"/>
</g>
<!-- Node22 -->
<g id="node11" class="node">
<title>Node22</title>
<g id="a_node11"><a xlink:href="api_2ipsec_8h.html" target="_top" xlink:title="ODP IPSEC API &#45; platform specific header. ">
<polygon fill="#ffffff" stroke="#000000" points="164.5,-112.5 164.5,-131.5 215.5,-131.5 215.5,-112.5 164.5,-112.5"/>
<text text-anchor="middle" x="190" y="-119.5" font-family="Helvetica,sans-Serif" font-size="10.00" fill="#000000">ipsec.h</text>
</a>
</g>
</g>
<!-- Node21&#45;&gt;Node22 -->
<g id="edge10" class="edge">
<title>Node21&#45;&gt;Node22</title>
<path fill="none" stroke="#191970" d="M188.063,-158.1575C188.5453,-149.155 189.0936,-138.9199 189.4834,-131.6427"/>
<polygon fill="#191970" stroke="#191970" points="184.5626,-158.0726 187.5226,-168.2455 191.5526,-158.4471 184.5626,-158.0726"/>
</g>
<!-- Node22&#45;&gt;Node17 -->
<g id="edge11" class="edge">
<title>Node22&#45;&gt;Node17</title>
<path fill="none" stroke="#191970" d="M225.4561,-111.5498C260.5739,-101.1993 313.8802,-85.4879 347.8128,-75.4868"/>
<polygon fill="#191970" stroke="#191970" points="224.2268,-108.2632 215.6242,-114.4476 226.2058,-114.9776 224.2268,-108.2632"/>
</g>
<!-- Node24 -->
<g id="node13" class="node">
<title>Node24</title>
<g id="a_node13"><a xlink:href="api_2event_8h.html" target="_top" xlink:title="ODP event. ">
<polygon fill="#ffffff" stroke="#000000" points="397.5,-672.5 397.5,-691.5 450.5,-691.5 450.5,-672.5 397.5,-672.5"/>
<text text-anchor="middle" x="424" y="-679.5" font-family="Helvetica,sans-Serif" font-size="10.00" fill="#000000">event.h</text>
</a>
</g>
</g>
<!-- Node23&#45;&gt;Node24 -->
<g id="edge14" class="edge">
<title>Node23&#45;&gt;Node24</title>
<path fill="none" stroke="#191970" d="M424,-718.1575C424,-709.155 424,-698.9199 424,-691.6427"/>
<polygon fill="#191970" stroke="#191970" points="420.5001,-718.2455 424,-728.2455 427.5001,-718.2456 420.5001,-718.2455"/>
</g>
<!-- Node24&#45;&gt;Node17 -->
<g id="edge38" class="edge">
<title>Node24&#45;&gt;Node17</title>
<path fill="none" stroke="#191970" d="M441.0098,-664.9092C459.6684,-644.2702 487,-607.6177 487,-570 487,-570 487,-570 487,-178 487,-128.2502 431.1212,-91.9144 400.1259,-75.5861"/>
<polygon fill="#191970" stroke="#191970" points="438.4144,-662.5601 434.122,-672.2465 443.5181,-667.351 438.4144,-662.5601"/>
</g>
<!-- Node25 -->
<g id="node14" class="node">
<title>Node25</title>
<g id="a_node14"><a xlink:href="api_2spec_2queue_8h.html" target="_top" xlink:title="ODP queue. ">
<polygon fill="#ffffff" stroke="#000000" points="317,-616.5 317,-635.5 373,-635.5 373,-616.5 317,-616.5"/>
<text text-anchor="middle" x="345" y="-623.5" font-family="Helvetica,sans-Serif" font-size="10.00" fill="#000000">queue.h</text>
</a>
</g>
</g>
<!-- Node24&#45;&gt;Node25 -->
<g id="edge15" class="edge">
<title>Node24&#45;&gt;Node25</title>
<path fill="none" stroke="#191970" d="M401.7244,-666.2097C387.8495,-656.3743 370.4485,-644.0394 358.6031,-635.6427"/>
<polygon fill="#191970" stroke="#191970" points="400.0569,-669.3178 410.2393,-672.2455 404.1051,-663.6071 400.0569,-669.3178"/>
</g>
<!-- Node35 -->
<g id="node24" class="node">
<title>Node35</title>
<g id="a_node24"><a xlink:href="api_2spec_2schedule_8h.html" target="_top" xlink:title="ODP schedule. ">
<polygon fill="#ffffff" stroke="#000000" points="389.5,-504.5 389.5,-523.5 458.5,-523.5 458.5,-504.5 389.5,-504.5"/>
<text text-anchor="middle" x="424" y="-511.5" font-family="Helvetica,sans-Serif" font-size="10.00" fill="#000000">schedule.h</text>
</a>
</g>
</g>
<!-- Node24&#45;&gt;Node35 -->
<g id="edge37" class="edge">
<title>Node24&#45;&gt;Node35</title>
<path fill="none" stroke="#191970" d="M424,-662.2601C424,-626.1669 424,-550.7656 424,-523.8279"/>
<polygon fill="#191970" stroke="#191970" points="420.5001,-662.4862 424,-672.4862 427.5001,-662.4863 420.5001,-662.4862"/>
</g>
<!-- Node26 -->
<g id="node15" class="node">
<title>Node26</title>
<g id="a_node15"><a xlink:href="api_2queue_8h.html" target="_top" xlink:title="ODP queue. ">
<polygon fill="#ffffff" stroke="#000000" points="294,-560.5 294,-579.5 350,-579.5 350,-560.5 294,-560.5"/>
<text text-anchor="middle" x="322" y="-567.5" font-family="Helvetica,sans-Serif" font-size="10.00" fill="#000000">queue.h</text>
</a>
</g>
</g>
<!-- Node25&#45;&gt;Node26 -->
<g id="edge16" class="edge">
<title>Node25&#45;&gt;Node26</title>
<path fill="none" stroke="#191970" d="M337.0934,-606.7493C333.3383,-597.6064 329.0149,-587.0798 325.9604,-579.6427"/>
<polygon fill="#191970" stroke="#191970" points="333.9569,-608.3251 340.9937,-616.2455 340.432,-605.6656 333.9569,-608.3251"/>
</g>
<!-- Node26&#45;&gt;Node17 -->
<g id="edge36" class="edge">
<title>Node26&#45;&gt;Node17</title>
<path fill="none" stroke="#191970" d="M332.7876,-551.4123C344.3304,-529.7334 361,-492.4602 361,-458 361,-458 361,-458 361,-402 361,-325.4471 399,-310.5529 399,-234 399,-234 399,-234 399,-178 399,-139.7388 388.0887,-95.1479 382.8035,-75.7934"/>
<polygon fill="#191970" stroke="#191970" points="329.6994,-549.7645 327.9233,-560.2094 335.8252,-553.1519 329.6994,-549.7645"/>
</g>
<!-- Node26&#45;&gt;Node20 -->
<g id="edge17" class="edge">
<title>Node26&#45;&gt;Node20</title>
<path fill="none" stroke="#191970" d="M284.3248,-558.4899C261.1181,-550.5519 231.2673,-538.7748 207,-524 151.4255,-490.1641 96.198,-434.2517 75.0326,-411.7887"/>
<polygon fill="#191970" stroke="#191970" points="283.2346,-561.8157 293.8282,-561.6544 285.4461,-555.1742 283.2346,-561.8157"/>
</g>
<!-- Node26&#45;&gt;Node27 -->
<g id="edge18" class="edge">
<title>Node26&#45;&gt;Node27</title>
<path fill="none" stroke="#191970" d="M283.829,-561.3786C262.6024,-554.6523 237.4319,-543.133 222,-524 194.6258,-490.0607 193.593,-434.2073 194.4127,-411.7744"/>
<polygon fill="#191970" stroke="#191970" points="282.9825,-564.7776 293.5629,-564.2249 284.9472,-558.0589 282.9825,-564.7776"/>
</g>
<!-- Node33 -->
<g id="node22" class="node">
<title>Node33</title>
<g id="a_node22"><a xlink:href="spec_2packet__io__stats_8h.html" target="_top" xlink:title="ODP Packet IO statistics. ">
<polygon fill="#ffffff" stroke="#000000" points="231,-504.5 231,-523.5 333,-523.5 333,-504.5 231,-504.5"/>
<text text-anchor="middle" x="282" y="-511.5" font-family="Helvetica,sans-Serif" font-size="10.00" fill="#000000">packet_io_stats.h</text>
</a>
</g>
</g>
<!-- Node26&#45;&gt;Node33 -->
<g id="edge30" class="edge">
<title>Node26&#45;&gt;Node33</title>
<path fill="none" stroke="#191970" d="M309.0864,-551.9209C302.3697,-542.5176 294.4283,-531.3997 288.8876,-523.6427"/>
<polygon fill="#191970" stroke="#191970" points="306.372,-554.1425 315.0325,-560.2455 312.0682,-550.0738 306.372,-554.1425"/>
</g>
<!-- Node26&#45;&gt;Node35 -->
<g id="edge33" class="edge">
<title>Node26&#45;&gt;Node35</title>
<path fill="none" stroke="#191970" d="M348.734,-555.3225C366.9532,-545.3198 390.5598,-532.3593 406.4366,-523.6427"/>
<polygon fill="#191970" stroke="#191970" points="346.8484,-552.3649 339.767,-560.2455 350.2173,-558.5009 346.8484,-552.3649"/>
</g>
<!-- Node28 -->
<g id="node17" class="node">
<title>Node28</title>
<g id="a_node17"><a xlink:href="api_2packet__io_8h.html" target="_top" xlink:title="ODP Packet IO. ">
<polygon fill="#ffffff" stroke="#000000" points="158.5,-336.5 158.5,-355.5 231.5,-355.5 231.5,-336.5 158.5,-336.5"/>
<text text-anchor="middle" x="195" y="-343.5" font-family="Helvetica,sans-Serif" font-size="10.00" fill="#000000">packet_io.h</text>
</a>
</g>
</g>
<!-- Node27&#45;&gt;Node28 -->
<g id="edge19" class="edge">
<title>Node27&#45;&gt;Node28</title>
<path fill="none" stroke="#191970" d="M195,-382.1575C195,-373.155 195,-362.9199 195,-355.6427"/>
<polygon fill="#191970" stroke="#191970" points="191.5001,-382.2455 195,-392.2455 198.5001,-382.2456 191.5001,-382.2455"/>
</g>
<!-- Node28&#45;&gt;Node17 -->
<g id="edge29" class="edge">
<title>Node28&#45;&gt;Node17</title>
<path fill="none" stroke="#191970" d="M241.4349,-336.4988C278.9811,-327.9314 327.8453,-314.4837 342,-300 363.3348,-278.1693 361,-264.5246 361,-234 361,-234 361,-234 361,-178 361,-139.7388 371.9113,-95.1479 377.1965,-75.7934"/>
<polygon fill="#191970" stroke="#191970" points="240.6716,-333.0829 231.6733,-338.6759 242.1954,-339.9151 240.6716,-333.0829"/>
</g>
<!-- Node28&#45;&gt;Node21 -->
<g id="edge24" class="edge">
<title>Node28&#45;&gt;Node21</title>
<path fill="none" stroke="#191970" d="M164.2207,-331.1875C152.1793,-323.6585 139.6737,-313.2613 133,-300 117.8159,-269.8275 118.8388,-254.6659 133,-224 140.3833,-208.0115 156.3676,-195.5319 169.0401,-187.6299"/>
<polygon fill="#191970" stroke="#191970" points="162.823,-334.4217 173.2342,-336.3857 166.3201,-328.3578 162.823,-334.4217"/>
</g>
<!-- Node29 -->
<g id="node18" class="node">
<title>Node29</title>
<g id="a_node18"><a xlink:href="api_2spec_2classification_8h.html" target="_top" xlink:title="ODP classification descriptor. ">
<polygon fill="#ffffff" stroke="#000000" points="142.5,-280.5 142.5,-299.5 231.5,-299.5 231.5,-280.5 142.5,-280.5"/>
<text text-anchor="middle" x="187" y="-287.5" font-family="Helvetica,sans-Serif" font-size="10.00" fill="#000000">classification.h</text>
</a>
</g>
</g>
<!-- Node28&#45;&gt;Node29 -->
<g id="edge20" class="edge">
<title>Node28&#45;&gt;Node29</title>
<path fill="none" stroke="#191970" d="M192.1654,-326.1575C190.8793,-317.155 189.4171,-306.9199 188.3775,-299.6427"/>
<polygon fill="#191970" stroke="#191970" points="188.7274,-326.8411 193.6065,-336.2455 195.657,-325.851 188.7274,-326.8411"/>
</g>
<!-- Node31 -->
<g id="node20" class="node">
<title>Node31</title>
<g id="a_node20"><a xlink:href="api_2spec_2traffic__mngr_8h.html" target="_top" xlink:title="Copyright (c) 2015&#45;2018, Linaro Limited All rights reserved. ">
<polygon fill="#ffffff" stroke="#000000" points="249,-280.5 249,-299.5 333,-299.5 333,-280.5 249,-280.5"/>
<text text-anchor="middle" x="291" y="-287.5" font-family="Helvetica,sans-Serif" font-size="10.00" fill="#000000">traffic_mngr.h</text>
</a>
</g>
</g>
<!-- Node28&#45;&gt;Node31 -->
<g id="edge25" class="edge">
<title>Node28&#45;&gt;Node31</title>
<path fill="none" stroke="#191970" d="M220.6346,-331.0465C237.7159,-321.0824 259.664,-308.2794 274.4697,-299.6427"/>
<polygon fill="#191970" stroke="#191970" points="218.5962,-328.1836 211.7219,-336.2455 222.1233,-334.23 218.5962,-328.1836"/>
</g>
<!-- Node30 -->
<g id="node19" class="node">
<title>Node30</title>
<g id="a_node19"><a xlink:href="api_2classification_8h.html" target="_top" xlink:title="ODP classification descriptor. ">
<polygon fill="#ffffff" stroke="#000000" points="142.5,-224.5 142.5,-243.5 231.5,-243.5 231.5,-224.5 142.5,-224.5"/>
<text text-anchor="middle" x="187" y="-231.5" font-family="Helvetica,sans-Serif" font-size="10.00" fill="#000000">classification.h</text>
</a>
</g>
</g>
<!-- Node29&#45;&gt;Node30 -->
<g id="edge21" class="edge">
<title>Node29&#45;&gt;Node30</title>
<path fill="none" stroke="#191970" d="M187,-270.1575C187,-261.155 187,-250.9199 187,-243.6427"/>
<polygon fill="#191970" stroke="#191970" points="183.5001,-270.2455 187,-280.2455 190.5001,-270.2456 183.5001,-270.2455"/>
</g>
<!-- Node30&#45;&gt;Node17 -->
<g id="edge23" class="edge">
<title>Node30&#45;&gt;Node17</title>
<path fill="none" stroke="#191970" d="M205.536,-217.865C245.075,-183.4477 336.6916,-103.6985 368.7096,-75.8279"/>
<polygon fill="#191970" stroke="#191970" points="203.1742,-215.2806 197.9295,-224.4862 207.7702,-220.5605 203.1742,-215.2806"/>
</g>
<!-- Node30&#45;&gt;Node21 -->
<g id="edge22" class="edge">
<title>Node30&#45;&gt;Node21</title>
<path fill="none" stroke="#191970" d="M187,-214.1575C187,-205.155 187,-194.9199 187,-187.6427"/>
<polygon fill="#191970" stroke="#191970" points="183.5001,-214.2455 187,-224.2455 190.5001,-214.2456 183.5001,-214.2455"/>
</g>
<!-- Node32 -->
<g id="node21" class="node">
<title>Node32</title>
<g id="a_node21"><a xlink:href="api_2traffic__mngr_8h.html" target="_top" xlink:title="ODP Traffic manager. ">
<polygon fill="#ffffff" stroke="#000000" points="249,-224.5 249,-243.5 333,-243.5 333,-224.5 249,-224.5"/>
<text text-anchor="middle" x="291" y="-231.5" font-family="Helvetica,sans-Serif" font-size="10.00" fill="#000000">traffic_mngr.h</text>
</a>
</g>
</g>
<!-- Node31&#45;&gt;Node32 -->
<g id="edge26" class="edge">
<title>Node31&#45;&gt;Node32</title>
<path fill="none" stroke="#191970" d="M291,-270.1575C291,-261.155 291,-250.9199 291,-243.6427"/>
<polygon fill="#191970" stroke="#191970" points="287.5001,-270.2455 291,-280.2455 294.5001,-270.2456 287.5001,-270.2455"/>
</g>
<!-- Node32&#45;&gt;Node17 -->
<g id="edge28" class="edge">
<title>Node32&#45;&gt;Node17</title>
<path fill="none" stroke="#191970" d="M298.5451,-214.6134C308.4042,-190.0577 326.8074,-146.7562 347,-112 354.7023,-98.7424 365.2716,-84.561 372.3536,-75.5047"/>
<polygon fill="#191970" stroke="#191970" points="295.1786,-213.6086 294.7514,-224.1948 301.687,-216.1856 295.1786,-213.6086"/>
</g>
<!-- Node32&#45;&gt;Node21 -->
<g id="edge27" class="edge">
<title>Node32&#45;&gt;Node21</title>
<path fill="none" stroke="#191970" d="M263.9971,-219.46C245.3864,-209.4388 221.1701,-196.3993 204.9078,-187.6427"/>
<polygon fill="#191970" stroke="#191970" points="262.4205,-222.5861 272.8846,-224.2455 265.7392,-216.4228 262.4205,-222.5861"/>
</g>
<!-- Node34 -->
<g id="node23" class="node">
<title>Node34</title>
<g id="a_node23"><a xlink:href="packet__io__stats_8h.html" target="_top" xlink:title="ODP packet IO stats. ">
<polygon fill="#ffffff" stroke="#000000" points="231,-448.5 231,-467.5 333,-467.5 333,-448.5 231,-448.5"/>
<text text-anchor="middle" x="282" y="-455.5" font-family="Helvetica,sans-Serif" font-size="10.00" fill="#000000">packet_io_stats.h</text>
</a>
</g>
</g>
<!-- Node33&#45;&gt;Node34 -->
<g id="edge31" class="edge">
<title>Node33&#45;&gt;Node34</title>
<path fill="none" stroke="#191970" d="M282,-494.1575C282,-485.155 282,-474.9199 282,-467.6427"/>
<polygon fill="#191970" stroke="#191970" points="278.5001,-494.2455 282,-504.2455 285.5001,-494.2456 278.5001,-494.2455"/>
</g>
<!-- Node34&#45;&gt;Node27 -->
<g id="edge32" class="edge">
<title>Node34&#45;&gt;Node27</title>
<path fill="none" stroke="#191970" d="M258.3375,-442.769C242.9209,-432.8456 223.274,-420.1994 209.9806,-411.6427"/>
<polygon fill="#191970" stroke="#191970" points="256.5427,-445.7761 266.8458,-448.2455 260.3315,-439.89 256.5427,-445.7761"/>
</g>
<!-- Node36 -->
<g id="node25" class="node">
<title>Node36</title>
<g id="a_node25"><a xlink:href="api_2schedule_8h.html" target="_top" xlink:title="ODP schedule. ">
<polygon fill="#ffffff" stroke="#000000" points="389.5,-336.5 389.5,-355.5 458.5,-355.5 458.5,-336.5 389.5,-336.5"/>
<text text-anchor="middle" x="424" y="-343.5" font-family="Helvetica,sans-Serif" font-size="10.00" fill="#000000">schedule.h</text>
</a>
</g>
</g>
<!-- Node35&#45;&gt;Node36 -->
<g id="edge34" class="edge">
<title>Node35&#45;&gt;Node36</title>
<path fill="none" stroke="#191970" d="M424,-494.2601C424,-458.1669 424,-382.7656 424,-355.8279"/>
<polygon fill="#191970" stroke="#191970" points="420.5001,-494.4862 424,-504.4862 427.5001,-494.4863 420.5001,-494.4862"/>
</g>
<!-- Node36&#45;&gt;Node17 -->
<g id="edge35" class="edge">
<title>Node36&#45;&gt;Node17</title>
<path fill="none" stroke="#191970" d="M427.6339,-326.5816C431.48,-304.3089 437,-266.6543 437,-234 437,-234 437,-234 437,-178 437,-136.1099 404.9375,-94.055 388.9063,-75.6456"/>
<polygon fill="#191970" stroke="#191970" points="424.1835,-325.9941 425.8626,-336.455 431.0735,-327.2302 424.1835,-325.9941"/>
</g>
<!-- Node38 -->
<g id="node27" class="node">
<title>Node38</title>
<g id="a_node27"><a xlink:href="api_2packet__flags_8h.html" target="_top" xlink:title="ODP packet flags. ">
<polygon fill="#ffffff" stroke="#000000" points="553.5,-448.5 553.5,-467.5 640.5,-467.5 640.5,-448.5 553.5,-448.5"/>
<text text-anchor="middle" x="597" y="-455.5" font-family="Helvetica,sans-Serif" font-size="10.00" fill="#000000">packet_flags.h</text>
</a>
</g>
</g>
<!-- Node37&#45;&gt;Node38 -->
<g id="edge40" class="edge">
<title>Node37&#45;&gt;Node38</title>
<path fill="none" stroke="#191970" d="M597,-662.1177C597,-615.6713 597,-501.4223 597,-467.5891"/>
<polygon fill="#191970" stroke="#191970" points="593.5001,-662.375 597,-672.375 600.5001,-662.375 593.5001,-662.375"/>
</g>
<!-- Node38&#45;&gt;Node17 -->
<g id="edge41" class="edge">
<title>Node38&#45;&gt;Node17</title>
<path fill="none" stroke="#191970" d="M592.248,-438.6376C587.2185,-416.416 580,-378.808 580,-346 580,-346 580,-346 580,-178 580,-101.9897 468.6688,-77.0556 412.1335,-69.294"/>
<polygon fill="#191970" stroke="#191970" points="588.8676,-439.5526 594.5643,-448.4856 595.6816,-437.9498 588.8676,-439.5526"/>
</g>
</g>
</svg>
