<?xml version="1.0" encoding="UTF-8" standalone="no"?>
<!DOCTYPE svg PUBLIC "-//W3C//DTD SVG 1.1//EN"
 "http://www.w3.org/Graphics/SVG/1.1/DTD/svg11.dtd">
<!-- Generated by graphviz version 2.40.1 (20161225.0304)
 -->
<!-- Title: deprecated.h Pages: 1 -->
<svg width="1099pt" height="756pt"
 viewBox="0.00 0.00 1098.50 756.00" xmlns="http://www.w3.org/2000/svg" xmlns:xlink="http://www.w3.org/1999/xlink">
<g id="graph0" class="graph" transform="scale(1 1) rotate(0) translate(4 752)">
<title>deprecated.h</title>
<polygon fill="#ffffff" stroke="transparent" points="-4,4 -4,-752 1094.5,-752 1094.5,4 -4,4"/>
<!-- Node4 -->
<g id="node1" class="node">
<title>Node4</title>
<polygon fill="#bfbfbf" stroke="#000000" points="776.5,-728.5 776.5,-747.5 856.5,-747.5 856.5,-728.5 776.5,-728.5"/>
<text text-anchor="middle" x="816.5" y="-735.5" font-family="Helvetica,sans-Serif" font-size="10.00" fill="#000000">deprecated.h</text>
</g>
<!-- Node5 -->
<g id="node2" class="node">
<title>Node5</title>
<g id="a_node2"><a xlink:href="api_2abi-default_2classification_8h_source.html" target="_top" xlink:title="classification.h">
<polygon fill="#ffffff" stroke="#000000" points="375,-448.5 375,-467.5 464,-467.5 464,-448.5 375,-448.5"/>
<text text-anchor="middle" x="419.5" y="-455.5" font-family="Helvetica,sans-Serif" font-size="10.00" fill="#000000">classification.h</text>
</a>
</g>
</g>
<!-- Node4&#45;&gt;Node5 -->
<g id="edge1" class="edge">
<title>Node4&#45;&gt;Node5</title>
<path fill="none" stroke="#191970" d="M766.3913,-726.5634C692.6386,-708.2556 563.5,-669.9275 563.5,-626 563.5,-626 563.5,-626 563.5,-570 563.5,-514.0997 495.0502,-482.042 452.5365,-467.5221"/>
<polygon fill="#191970" stroke="#191970" points="765.8663,-730.038 776.4114,-729.0123 767.5283,-723.2382 765.8663,-730.038"/>
</g>
<!-- Node16 -->
<g id="node13" class="node">
<title>Node16</title>
<g id="a_node13"><a xlink:href="odp__api_8h.html" target="_top" xlink:title="The OpenDataPlane API. ">
<polygon fill="#ffffff" stroke="#000000" points="856.5,-56.5 856.5,-75.5 920.5,-75.5 920.5,-56.5 856.5,-56.5"/>
<text text-anchor="middle" x="888.5" y="-63.5" font-family="Helvetica,sans-Serif" font-size="10.00" fill="#000000">odp_api.h</text>
</a>
</g>
</g>
<!-- Node4&#45;&gt;Node16 -->
<g id="edge43" class="edge">
<title>Node4&#45;&gt;Node16</title>
<path fill="none" stroke="#191970" d="M866.8792,-728.1512C946.0076,-711.2217 1090.5,-673.7679 1090.5,-626 1090.5,-626 1090.5,-626 1090.5,-178 1090.5,-101.2099 977.466,-76.6327 920.5075,-69.1227"/>
<polygon fill="#191970" stroke="#191970" points="865.7005,-724.8225 856.6354,-730.3064 867.1418,-731.6725 865.7005,-724.8225"/>
</g>
<!-- Node22 -->
<g id="node19" class="node">
<title>Node22</title>
<g id="a_node19"><a xlink:href="api_2spec_2crypto_8h.html" target="_top" xlink:title="ODP crypto. ">
<polygon fill="#ffffff" stroke="#000000" points="811.5,-616.5 811.5,-635.5 867.5,-635.5 867.5,-616.5 811.5,-616.5"/>
<text text-anchor="middle" x="839.5" y="-623.5" font-family="Helvetica,sans-Serif" font-size="10.00" fill="#000000">crypto.h</text>
</a>
</g>
</g>
<!-- Node4&#45;&gt;Node22 -->
<g id="edge24" class="edge">
<title>Node4&#45;&gt;Node22</title>
<path fill="none" stroke="#191970" d="M820.4842,-718.5987C825.4612,-694.363 833.7798,-653.8551 837.544,-635.5249"/>
<polygon fill="#191970" stroke="#191970" points="817.0442,-717.9513 818.461,-728.4509 823.9011,-719.3594 817.0442,-717.9513"/>
</g>
<!-- Node24 -->
<g id="node21" class="node">
<title>Node24</title>
<g id="a_node21"><a xlink:href="api_2spec_2packet__io_8h.html" target="_top" xlink:title="ODP Packet IO. ">
<polygon fill="#ffffff" stroke="#000000" points="749,-392.5 749,-411.5 822,-411.5 822,-392.5 749,-392.5"/>
<text text-anchor="middle" x="785.5" y="-399.5" font-family="Helvetica,sans-Serif" font-size="10.00" fill="#000000">packet_io.h</text>
</a>
</g>
</g>
<!-- Node4&#45;&gt;Node24 -->
<g id="edge28" class="edge">
<title>Node4&#45;&gt;Node24</title>
<path fill="none" stroke="#191970" d="M781.7026,-724.2487C745.0232,-707.1933 692.5,-674.3326 692.5,-626 692.5,-626 692.5,-626 692.5,-514 692.5,-483.4754 693.0886,-472.3469 711.5,-448 724.1826,-431.2288 744.909,-419.1086 761.2051,-411.5331"/>
<polygon fill="#191970" stroke="#191970" points="780.5489,-727.5664 791.1075,-728.4421 783.3996,-721.1731 780.5489,-727.5664"/>
</g>
<!-- Node25 -->
<g id="node22" class="node">
<title>Node25</title>
<g id="a_node22"><a xlink:href="spec_2packet__io__stats_8h.html" target="_top" xlink:title="ODP Packet IO statistics. ">
<polygon fill="#ffffff" stroke="#000000" points="720.5,-504.5 720.5,-523.5 822.5,-523.5 822.5,-504.5 720.5,-504.5"/>
<text text-anchor="middle" x="771.5" y="-511.5" font-family="Helvetica,sans-Serif" font-size="10.00" fill="#000000">packet_io_stats.h</text>
</a>
</g>
</g>
<!-- Node4&#45;&gt;Node25 -->
<g id="edge30" class="edge">
<title>Node4&#45;&gt;Node25</title>
<path fill="none" stroke="#191970" d="M812.5649,-718.4119C803.2724,-672.1557 780.2376,-557.494 773.4264,-523.5891"/>
<polygon fill="#191970" stroke="#191970" points="809.1653,-719.2603 814.5664,-728.375 816.0282,-717.8815 809.1653,-719.2603"/>
</g>
<!-- Node27 -->
<g id="node24" class="node">
<title>Node27</title>
<g id="a_node24"><a xlink:href="queue__types_8h.html" target="_top" xlink:title="ODP queue types. ">
<polygon fill="#ffffff" stroke="#000000" points="873.5,-672.5 873.5,-691.5 961.5,-691.5 961.5,-672.5 873.5,-672.5"/>
<text text-anchor="middle" x="917.5" y="-679.5" font-family="Helvetica,sans-Serif" font-size="10.00" fill="#000000">queue_types.h</text>
</a>
</g>
</g>
<!-- Node4&#45;&gt;Node27 -->
<g id="edge33" class="edge">
<title>Node4&#45;&gt;Node27</title>
<path fill="none" stroke="#191970" d="M842.9719,-723.3225C861.0125,-713.3198 884.3877,-700.3593 900.1087,-691.6427"/>
<polygon fill="#191970" stroke="#191970" points="841.1413,-720.3354 834.0929,-728.2455 844.5357,-726.4574 841.1413,-720.3354"/>
</g>
<!-- Node6 -->
<g id="node3" class="node">
<title>Node6</title>
<g id="a_node3"><a xlink:href="arch_2arm32-linux_2odp_2api_2abi_2classification_8h_source.html" target="_top" xlink:title="classification.h">
<polygon fill="#ffffff" stroke="#000000" points="107,-392.5 107,-411.5 196,-411.5 196,-392.5 107,-392.5"/>
<text text-anchor="middle" x="151.5" y="-399.5" font-family="Helvetica,sans-Serif" font-size="10.00" fill="#000000">classification.h</text>
</a>
</g>
</g>
<!-- Node5&#45;&gt;Node6 -->
<g id="edge2" class="edge">
<title>Node5&#45;&gt;Node6</title>
<path fill="none" stroke="#191970" d="M365.0023,-446.6124C315.2425,-436.2148 242.572,-421.03 196.1621,-411.3324"/>
<polygon fill="#191970" stroke="#191970" points="364.4399,-450.0704 374.9444,-448.6899 365.8717,-443.2184 364.4399,-450.0704"/>
</g>
<!-- Node7 -->
<g id="node4" class="node">
<title>Node7</title>
<g id="a_node4"><a xlink:href="arch_2arm64-linux_2odp_2api_2abi_2classification_8h_source.html" target="_top" xlink:title="classification.h">
<polygon fill="#ffffff" stroke="#000000" points="321,-392.5 321,-411.5 410,-411.5 410,-392.5 321,-392.5"/>
<text text-anchor="middle" x="365.5" y="-399.5" font-family="Helvetica,sans-Serif" font-size="10.00" fill="#000000">classification.h</text>
</a>
</g>
</g>
<!-- Node5&#45;&gt;Node7 -->
<g id="edge3" class="edge">
<title>Node5&#45;&gt;Node7</title>
<path fill="none" stroke="#191970" d="M402.9031,-440.7884C393.6653,-431.2085 382.5096,-419.6396 374.7983,-411.6427"/>
<polygon fill="#191970" stroke="#191970" points="400.6331,-443.4766 410.0939,-448.2455 405.672,-438.6176 400.6331,-443.4766"/>
</g>
<!-- Node8 -->
<g id="node5" class="node">
<title>Node8</title>
<g id="a_node5"><a xlink:href="arch_2default-linux_2odp_2api_2abi_2classification_8h_source.html" target="_top" xlink:title="classification.h">
<polygon fill="#ffffff" stroke="#000000" points="428,-392.5 428,-411.5 517,-411.5 517,-392.5 428,-392.5"/>
<text text-anchor="middle" x="472.5" y="-399.5" font-family="Helvetica,sans-Serif" font-size="10.00" fill="#000000">classification.h</text>
</a>
</g>
</g>
<!-- Node5&#45;&gt;Node8 -->
<g id="edge4" class="edge">
<title>Node5&#45;&gt;Node8</title>
<path fill="none" stroke="#191970" d="M435.7896,-440.7884C444.8562,-431.2085 455.8054,-419.6396 463.3739,-411.6427"/>
<polygon fill="#191970" stroke="#191970" points="433.0637,-438.5767 428.7319,-448.2455 438.1478,-443.3884 433.0637,-438.5767"/>
</g>
<!-- Node9 -->
<g id="node6" class="node">
<title>Node9</title>
<g id="a_node6"><a xlink:href="arch_2mips64-linux_2odp_2api_2abi_2classification_8h_source.html" target="_top" xlink:title="classification.h">
<polygon fill="#ffffff" stroke="#000000" points="535,-392.5 535,-411.5 624,-411.5 624,-392.5 535,-392.5"/>
<text text-anchor="middle" x="579.5" y="-399.5" font-family="Helvetica,sans-Serif" font-size="10.00" fill="#000000">classification.h</text>
</a>
</g>
</g>
<!-- Node5&#45;&gt;Node9 -->
<g id="edge5" class="edge">
<title>Node5&#45;&gt;Node9</title>
<path fill="none" stroke="#191970" d="M456.4799,-445.057C485.7618,-434.8084 525.9885,-420.729 552.3539,-411.5011"/>
<polygon fill="#191970" stroke="#191970" points="455.2873,-441.7662 447.005,-448.3733 457.5998,-448.3732 455.2873,-441.7662"/>
</g>
<!-- Node10 -->
<g id="node7" class="node">
<title>Node10</title>
<g id="a_node7"><a xlink:href="arch_2power64-linux_2odp_2api_2abi_2classification_8h_source.html" target="_top" xlink:title="classification.h">
<polygon fill="#ffffff" stroke="#000000" points="642,-392.5 642,-411.5 731,-411.5 731,-392.5 642,-392.5"/>
<text text-anchor="middle" x="686.5" y="-399.5" font-family="Helvetica,sans-Serif" font-size="10.00" fill="#000000">classification.h</text>
</a>
</g>
</g>
<!-- Node5&#45;&gt;Node10 -->
<g id="edge6" class="edge">
<title>Node5&#45;&gt;Node10</title>
<path fill="none" stroke="#191970" d="M474.0724,-446.5541C523.5173,-436.1836 595.5,-421.0862 641.6644,-411.4037"/>
<polygon fill="#191970" stroke="#191970" points="473.2584,-443.1486 464.1898,-448.6269 474.6953,-449.9995 473.2584,-443.1486"/>
</g>
<!-- Node11 -->
<g id="node8" class="node">
<title>Node11</title>
<g id="a_node8"><a xlink:href="arch_2x86__32-linux_2odp_2api_2abi_2classification_8h_source.html" target="_top" xlink:title="classification.h">
<polygon fill="#ffffff" stroke="#000000" points="0,-392.5 0,-411.5 89,-411.5 89,-392.5 0,-392.5"/>
<text text-anchor="middle" x="44.5" y="-399.5" font-family="Helvetica,sans-Serif" font-size="10.00" fill="#000000">classification.h</text>
</a>
</g>
</g>
<!-- Node5&#45;&gt;Node11 -->
<g id="edge7" class="edge">
<title>Node5&#45;&gt;Node11</title>
<path fill="none" stroke="#191970" d="M364.5791,-450.9127C300.3933,-442.4543 191.0401,-427.4981 97.5,-412 94.7287,-411.5408 91.879,-411.052 89.0075,-410.5466"/>
<polygon fill="#191970" stroke="#191970" points="364.4977,-454.432 374.8683,-452.2639 365.4092,-447.4916 364.4977,-454.432"/>
</g>
<!-- Node12 -->
<g id="node9" class="node">
<title>Node12</title>
<g id="a_node9"><a xlink:href="arch_2x86__64-linux_2odp_2api_2abi_2classification_8h_source.html" target="_top" xlink:title="classification.h">
<polygon fill="#ffffff" stroke="#000000" points="214,-392.5 214,-411.5 303,-411.5 303,-392.5 214,-392.5"/>
<text text-anchor="middle" x="258.5" y="-399.5" font-family="Helvetica,sans-Serif" font-size="10.00" fill="#000000">classification.h</text>
</a>
</g>
</g>
<!-- Node5&#45;&gt;Node12 -->
<g id="edge8" class="edge">
<title>Node5&#45;&gt;Node12</title>
<path fill="none" stroke="#191970" d="M382.2889,-445.057C352.8241,-434.8084 312.3459,-420.729 285.8157,-411.5011"/>
<polygon fill="#191970" stroke="#191970" points="381.2283,-448.3937 391.8231,-448.3733 383.528,-441.7822 381.2283,-448.3937"/>
</g>
<!-- Node13 -->
<g id="node10" class="node">
<title>Node13</title>
<g id="a_node10"><a xlink:href="api_2classification_8h.html" target="_top" xlink:title="ODP classification descriptor. ">
<polygon fill="#ffffff" stroke="#000000" points="695,-224.5 695,-243.5 784,-243.5 784,-224.5 695,-224.5"/>
<text text-anchor="middle" x="739.5" y="-231.5" font-family="Helvetica,sans-Serif" font-size="10.00" fill="#000000">classification.h</text>
</a>
</g>
</g>
<!-- Node12&#45;&gt;Node13 -->
<g id="edge9" class="edge">
<title>Node12&#45;&gt;Node13</title>
<path fill="none" stroke="#191970" d="M291.9298,-388.6087C350.6712,-365.2767 476.4382,-316.2063 584.5,-280 625.488,-266.2669 673.2533,-252.4101 704.8093,-243.5481"/>
<polygon fill="#191970" stroke="#191970" points="290.4211,-385.4421 282.4244,-392.3922 293.0098,-391.9459 290.4211,-385.4421"/>
</g>
<!-- Node18 -->
<g id="node15" class="node">
<title>Node18</title>
<g id="a_node15"><a xlink:href="api_2packet__io_8h.html" target="_top" xlink:title="ODP Packet IO. ">
<polygon fill="#ffffff" stroke="#000000" points="726,-336.5 726,-355.5 799,-355.5 799,-336.5 726,-336.5"/>
<text text-anchor="middle" x="762.5" y="-343.5" font-family="Helvetica,sans-Serif" font-size="10.00" fill="#000000">packet_io.h</text>
</a>
</g>
</g>
<!-- Node12&#45;&gt;Node18 -->
<g id="edge15" class="edge">
<title>Node12&#45;&gt;Node18</title>
<path fill="none" stroke="#191970" d="M313.2365,-391.8397C472.2529,-369.1476 650.411,-354.4179 725.8338,-348.679"/>
<polygon fill="#191970" stroke="#191970" points="312.6731,-388.3847 303.2747,-393.2755 313.6718,-395.3131 312.6731,-388.3847"/>
</g>
<!-- Node14 -->
<g id="node11" class="node">
<title>Node14</title>
<g id="a_node11"><a xlink:href="api_2spec_2ipsec_8h.html" target="_top" xlink:title="ODP IPSEC API. ">
<polygon fill="#ffffff" stroke="#000000" points="771,-168.5 771,-187.5 822,-187.5 822,-168.5 771,-168.5"/>
<text text-anchor="middle" x="796.5" y="-175.5" font-family="Helvetica,sans-Serif" font-size="10.00" fill="#000000">ipsec.h</text>
</a>
</g>
</g>
<!-- Node13&#45;&gt;Node14 -->
<g id="edge10" class="edge">
<title>Node13&#45;&gt;Node14</title>
<path fill="none" stroke="#191970" d="M756.7271,-217.0751C766.5341,-207.4402 778.464,-195.7196 786.6851,-187.6427"/>
<polygon fill="#191970" stroke="#191970" points="754.1091,-214.7406 749.4286,-224.2455 759.0149,-219.734 754.1091,-214.7406"/>
</g>
<!-- Node13&#45;&gt;Node16 -->
<g id="edge14" class="edge">
<title>Node13&#45;&gt;Node16</title>
<path fill="none" stroke="#191970" d="M737.4451,-214.1682C735.8353,-187.7375 737.0785,-140.9443 761.5,-112 785.0909,-84.0402 827.0903,-73.0748 856.3027,-68.7745"/>
<polygon fill="#191970" stroke="#191970" points="733.9814,-214.7574 738.2814,-224.4404 740.9583,-214.1893 733.9814,-214.7574"/>
</g>
<!-- Node15 -->
<g id="node12" class="node">
<title>Node15</title>
<g id="a_node12"><a xlink:href="api_2ipsec_8h.html" target="_top" xlink:title="ODP IPSEC API &#45; platform specific header. ">
<polygon fill="#ffffff" stroke="#000000" points="771,-112.5 771,-131.5 822,-131.5 822,-112.5 771,-112.5"/>
<text text-anchor="middle" x="796.5" y="-119.5" font-family="Helvetica,sans-Serif" font-size="10.00" fill="#000000">ipsec.h</text>
</a>
</g>
</g>
<!-- Node14&#45;&gt;Node15 -->
<g id="edge11" class="edge">
<title>Node14&#45;&gt;Node15</title>
<path fill="none" stroke="#191970" d="M796.5,-158.1575C796.5,-149.155 796.5,-138.9199 796.5,-131.6427"/>
<polygon fill="#191970" stroke="#191970" points="793.0001,-158.2455 796.5,-168.2455 800.0001,-158.2456 793.0001,-158.2455"/>
</g>
<!-- Node15&#45;&gt;Node16 -->
<g id="edge12" class="edge">
<title>Node15&#45;&gt;Node16</title>
<path fill="none" stroke="#191970" d="M821.5224,-106.769C837.825,-96.8456 858.601,-84.1994 872.6585,-75.6427"/>
<polygon fill="#191970" stroke="#191970" points="819.2473,-104.0563 812.5252,-112.2455 822.887,-110.0357 819.2473,-104.0563"/>
</g>
<!-- Node17 -->
<g id="node14" class="node">
<title>Node17</title>
<g id="a_node14"><a xlink:href="odp_8h.html" target="_top" xlink:title="WARNING: THIS FILE IS DEPRECATED AND WILL BE REMOVED!!! ODP APPLICATIONS SHOULD NOW INCLUDE odp_api...">
<polygon fill="#ffffff" stroke="#000000" points="866.5,-.5 866.5,-19.5 910.5,-19.5 910.5,-.5 866.5,-.5"/>
<text text-anchor="middle" x="888.5" y="-7.5" font-family="Helvetica,sans-Serif" font-size="10.00" fill="#000000">odp.h</text>
</a>
</g>
</g>
<!-- Node16&#45;&gt;Node17 -->
<g id="edge13" class="edge">
<title>Node16&#45;&gt;Node17</title>
<path fill="none" stroke="#191970" d="M888.5,-46.1575C888.5,-37.155 888.5,-26.9199 888.5,-19.6427"/>
<polygon fill="#191970" stroke="#191970" points="885.0001,-46.2455 888.5,-56.2455 892.0001,-46.2456 885.0001,-46.2455"/>
</g>
<!-- Node18&#45;&gt;Node14 -->
<g id="edge18" class="edge">
<title>Node18&#45;&gt;Node14</title>
<path fill="none" stroke="#191970" d="M777.31,-328.2958C783.1875,-320.1949 789.3006,-310.1505 792.5,-300 805.1139,-259.9808 800.6085,-208.8852 797.9195,-187.7867"/>
<polygon fill="#191970" stroke="#191970" points="774.5189,-326.1836 771.1737,-336.2364 780.0578,-330.4639 774.5189,-326.1836"/>
</g>
<!-- Node18&#45;&gt;Node16 -->
<g id="edge23" class="edge">
<title>Node18&#45;&gt;Node16</title>
<path fill="none" stroke="#191970" d="M786.1258,-330.4338C812.1916,-311.1759 850.5,-275.7679 850.5,-234 850.5,-234 850.5,-234 850.5,-178 850.5,-138.1657 872.3226,-94.3859 882.893,-75.5166"/>
<polygon fill="#191970" stroke="#191970" points="783.9515,-327.6852 777.8284,-336.3315 788.007,-333.3908 783.9515,-327.6852"/>
</g>
<!-- Node19 -->
<g id="node16" class="node">
<title>Node19</title>
<g id="a_node16"><a xlink:href="api_2spec_2classification_8h.html" target="_top" xlink:title="ODP classification descriptor. ">
<polygon fill="#ffffff" stroke="#000000" points="695,-280.5 695,-299.5 784,-299.5 784,-280.5 695,-280.5"/>
<text text-anchor="middle" x="739.5" y="-287.5" font-family="Helvetica,sans-Serif" font-size="10.00" fill="#000000">classification.h</text>
</a>
</g>
</g>
<!-- Node18&#45;&gt;Node19 -->
<g id="edge16" class="edge">
<title>Node18&#45;&gt;Node19</title>
<path fill="none" stroke="#191970" d="M754.5934,-326.7493C750.8383,-317.6064 746.5149,-307.0798 743.4604,-299.6427"/>
<polygon fill="#191970" stroke="#191970" points="751.4569,-328.3251 758.4937,-336.2455 757.932,-325.6656 751.4569,-328.3251"/>
</g>
<!-- Node20 -->
<g id="node17" class="node">
<title>Node20</title>
<g id="a_node17"><a xlink:href="api_2spec_2traffic__mngr_8h.html" target="_top" xlink:title="Copyright (c) 2015&#45;2018, Linaro Limited All rights reserved. ">
<polygon fill="#ffffff" stroke="#000000" points="593.5,-280.5 593.5,-299.5 677.5,-299.5 677.5,-280.5 593.5,-280.5"/>
<text text-anchor="middle" x="635.5" y="-287.5" font-family="Helvetica,sans-Serif" font-size="10.00" fill="#000000">traffic_mngr.h</text>
</a>
</g>
</g>
<!-- Node18&#45;&gt;Node20 -->
<g id="edge19" class="edge">
<title>Node18&#45;&gt;Node20</title>
<path fill="none" stroke="#191970" d="M731.3108,-332.2473C708.2463,-322.0771 677.4288,-308.4883 657.0472,-299.5011"/>
<polygon fill="#191970" stroke="#191970" points="730.1058,-335.5411 740.6679,-336.3733 732.9301,-329.1361 730.1058,-335.5411"/>
</g>
<!-- Node19&#45;&gt;Node13 -->
<g id="edge17" class="edge">
<title>Node19&#45;&gt;Node13</title>
<path fill="none" stroke="#191970" d="M739.5,-270.1575C739.5,-261.155 739.5,-250.9199 739.5,-243.6427"/>
<polygon fill="#191970" stroke="#191970" points="736.0001,-270.2455 739.5,-280.2455 743.0001,-270.2456 736.0001,-270.2455"/>
</g>
<!-- Node21 -->
<g id="node18" class="node">
<title>Node21</title>
<g id="a_node18"><a xlink:href="api_2traffic__mngr_8h.html" target="_top" xlink:title="ODP Traffic manager. ">
<polygon fill="#ffffff" stroke="#000000" points="593.5,-224.5 593.5,-243.5 677.5,-243.5 677.5,-224.5 593.5,-224.5"/>
<text text-anchor="middle" x="635.5" y="-231.5" font-family="Helvetica,sans-Serif" font-size="10.00" fill="#000000">traffic_mngr.h</text>
</a>
</g>
</g>
<!-- Node20&#45;&gt;Node21 -->
<g id="edge20" class="edge">
<title>Node20&#45;&gt;Node21</title>
<path fill="none" stroke="#191970" d="M635.5,-270.1575C635.5,-261.155 635.5,-250.9199 635.5,-243.6427"/>
<polygon fill="#191970" stroke="#191970" points="632.0001,-270.2455 635.5,-280.2455 639.0001,-270.2456 632.0001,-270.2455"/>
</g>
<!-- Node21&#45;&gt;Node14 -->
<g id="edge21" class="edge">
<title>Node21&#45;&gt;Node14</title>
<path fill="none" stroke="#191970" d="M672.8929,-220.9938C702.9395,-210.5428 744.3503,-196.139 770.7776,-186.9469"/>
<polygon fill="#191970" stroke="#191970" points="671.472,-217.7822 663.1769,-224.3733 673.7717,-224.3937 671.472,-217.7822"/>
</g>
<!-- Node21&#45;&gt;Node16 -->
<g id="edge22" class="edge">
<title>Node21&#45;&gt;Node16</title>
<path fill="none" stroke="#191970" d="M647.3767,-215.8221C665.6182,-189.2837 703.0197,-140.0493 746.5,-112 780.5795,-90.0152 826.06,-77.719 856.2658,-71.4818"/>
<polygon fill="#191970" stroke="#191970" points="644.4244,-213.9402 641.7449,-224.1906 650.2318,-217.8485 644.4244,-213.9402"/>
</g>
<!-- Node23 -->
<g id="node20" class="node">
<title>Node23</title>
<g id="a_node20"><a xlink:href="api_2crypto_8h.html" target="_top" xlink:title="ODP crypto. ">
<polygon fill="#ffffff" stroke="#000000" points="870.5,-336.5 870.5,-355.5 926.5,-355.5 926.5,-336.5 870.5,-336.5"/>
<text text-anchor="middle" x="898.5" y="-343.5" font-family="Helvetica,sans-Serif" font-size="10.00" fill="#000000">crypto.h</text>
</a>
</g>
</g>
<!-- Node22&#45;&gt;Node23 -->
<g id="edge25" class="edge">
<title>Node22&#45;&gt;Node23</title>
<path fill="none" stroke="#191970" d="M842.6195,-606.2528C845.8718,-583.922 850.5,-546.4438 850.5,-514 850.5,-514 850.5,-514 850.5,-458 850.5,-417.171 877.782,-374.2465 891.2098,-355.5923"/>
<polygon fill="#191970" stroke="#191970" points="839.1132,-606.0313 841.076,-616.4427 846.0343,-607.0797 839.1132,-606.0313"/>
</g>
<!-- Node23&#45;&gt;Node14 -->
<g id="edge26" class="edge">
<title>Node23&#45;&gt;Node14</title>
<path fill="none" stroke="#191970" d="M887.3567,-327.6463C865.7954,-292.1336 819.0343,-215.1154 802.4669,-187.8279"/>
<polygon fill="#191970" stroke="#191970" points="884.5422,-329.7548 892.7238,-336.4862 890.5257,-326.1219 884.5422,-329.7548"/>
</g>
<!-- Node23&#45;&gt;Node16 -->
<g id="edge27" class="edge">
<title>Node23&#45;&gt;Node16</title>
<path fill="none" stroke="#191970" d="M906.3415,-326.8271C914.6246,-304.8089 926.5,-267.4152 926.5,-234 926.5,-234 926.5,-234 926.5,-178 926.5,-138.1657 904.6774,-94.3859 894.107,-75.5166"/>
<polygon fill="#191970" stroke="#191970" points="903.0132,-325.7281 902.6315,-336.3161 909.5326,-328.2771 903.0132,-325.7281"/>
</g>
<!-- Node24&#45;&gt;Node18 -->
<g id="edge29" class="edge">
<title>Node24&#45;&gt;Node18</title>
<path fill="none" stroke="#191970" d="M777.5934,-382.7493C773.8383,-373.6064 769.5149,-363.0798 766.4604,-355.6427"/>
<polygon fill="#191970" stroke="#191970" points="774.4569,-384.3251 781.4937,-392.2455 780.932,-381.6656 774.4569,-384.3251"/>
</g>
<!-- Node26 -->
<g id="node23" class="node">
<title>Node26</title>
<g id="a_node23"><a xlink:href="packet__io__stats_8h.html" target="_top" xlink:title="ODP packet IO stats. ">
<polygon fill="#ffffff" stroke="#000000" points="720.5,-448.5 720.5,-467.5 822.5,-467.5 822.5,-448.5 720.5,-448.5"/>
<text text-anchor="middle" x="771.5" y="-455.5" font-family="Helvetica,sans-Serif" font-size="10.00" fill="#000000">packet_io_stats.h</text>
</a>
</g>
</g>
<!-- Node25&#45;&gt;Node26 -->
<g id="edge31" class="edge">
<title>Node25&#45;&gt;Node26</title>
<path fill="none" stroke="#191970" d="M771.5,-494.1575C771.5,-485.155 771.5,-474.9199 771.5,-467.6427"/>
<polygon fill="#191970" stroke="#191970" points="768.0001,-494.2455 771.5,-504.2455 775.0001,-494.2456 768.0001,-494.2455"/>
</g>
<!-- Node26&#45;&gt;Node24 -->
<g id="edge32" class="edge">
<title>Node26&#45;&gt;Node24</title>
<path fill="none" stroke="#191970" d="M776.3865,-438.4538C778.6549,-429.3803 781.25,-418.9998 783.0893,-411.6427"/>
<polygon fill="#191970" stroke="#191970" points="772.9685,-437.6952 773.9386,-448.2455 779.7595,-439.393 772.9685,-437.6952"/>
</g>
<!-- Node28 -->
<g id="node25" class="node">
<title>Node28</title>
<g id="a_node25"><a xlink:href="api_2spec_2queue_8h.html" target="_top" xlink:title="ODP queue. ">
<polygon fill="#ffffff" stroke="#000000" points="891.5,-616.5 891.5,-635.5 947.5,-635.5 947.5,-616.5 891.5,-616.5"/>
<text text-anchor="middle" x="919.5" y="-623.5" font-family="Helvetica,sans-Serif" font-size="10.00" fill="#000000">queue.h</text>
</a>
</g>
</g>
<!-- Node27&#45;&gt;Node28 -->
<g id="edge34" class="edge">
<title>Node27&#45;&gt;Node28</title>
<path fill="none" stroke="#191970" d="M918.2087,-662.1575C918.5302,-653.155 918.8957,-642.9199 919.1556,-635.6427"/>
<polygon fill="#191970" stroke="#191970" points="914.7076,-662.127 917.8484,-672.2455 921.7032,-662.3769 914.7076,-662.127"/>
</g>
<!-- Node29 -->
<g id="node26" class="node">
<title>Node29</title>
<g id="a_node26"><a xlink:href="api_2queue_8h.html" target="_top" xlink:title="ODP queue. ">
<polygon fill="#ffffff" stroke="#000000" points="897.5,-560.5 897.5,-579.5 953.5,-579.5 953.5,-560.5 897.5,-560.5"/>
<text text-anchor="middle" x="925.5" y="-567.5" font-family="Helvetica,sans-Serif" font-size="10.00" fill="#000000">queue.h</text>
</a>
</g>
</g>
<!-- Node28&#45;&gt;Node29 -->
<g id="edge35" class="edge">
<title>Node28&#45;&gt;Node29</title>
<path fill="none" stroke="#191970" d="M921.626,-606.1575C922.5905,-597.155 923.6872,-586.9199 924.4669,-579.6427"/>
<polygon fill="#191970" stroke="#191970" points="918.1305,-605.9296 920.5451,-616.2455 925.0906,-606.6753 918.1305,-605.9296"/>
</g>
<!-- Node29&#45;&gt;Node16 -->
<g id="edge42" class="edge">
<title>Node29&#45;&gt;Node16</title>
<path fill="none" stroke="#191970" d="M936.2876,-551.4123C947.8304,-529.7334 964.5,-492.4602 964.5,-458 964.5,-458 964.5,-458 964.5,-178 964.5,-133.3528 922.636,-93.2845 901.0499,-75.5918"/>
<polygon fill="#191970" stroke="#191970" points="933.1994,-549.7645 931.4233,-560.2094 939.3252,-553.1519 933.1994,-549.7645"/>
</g>
<!-- Node29&#45;&gt;Node23 -->
<g id="edge36" class="edge">
<title>Node29&#45;&gt;Node23</title>
<path fill="none" stroke="#191970" d="M923.1389,-550.4119C917.5634,-504.1557 903.7426,-389.494 899.6558,-355.5891"/>
<polygon fill="#191970" stroke="#191970" points="919.6682,-550.8657 924.3398,-560.375 926.6179,-550.028 919.6682,-550.8657"/>
</g>
<!-- Node29&#45;&gt;Node24 -->
<g id="edge37" class="edge">
<title>Node29&#45;&gt;Node24</title>
<path fill="none" stroke="#191970" d="M912.9346,-552.2496C895.5147,-527.9887 862.6443,-483.4421 831.5,-448 819.87,-434.7651 805.3325,-420.5787 795.7497,-411.515"/>
<polygon fill="#191970" stroke="#191970" points="910.1602,-554.3872 918.8186,-560.4933 915.8578,-550.3205 910.1602,-554.3872"/>
</g>
<!-- Node29&#45;&gt;Node25 -->
<g id="edge38" class="edge">
<title>Node29&#45;&gt;Node25</title>
<path fill="none" stroke="#191970" d="M889.5386,-556.9231C861.3866,-546.686 822.8945,-532.6889 797.6281,-523.5011"/>
<polygon fill="#191970" stroke="#191970" points="888.4324,-560.245 899.0265,-560.3733 890.8246,-553.6665 888.4324,-560.245"/>
</g>
<!-- Node30 -->
<g id="node27" class="node">
<title>Node30</title>
<g id="a_node27"><a xlink:href="api_2spec_2schedule_8h.html" target="_top" xlink:title="ODP schedule. ">
<polygon fill="#ffffff" stroke="#000000" points="993,-504.5 993,-523.5 1062,-523.5 1062,-504.5 993,-504.5"/>
<text text-anchor="middle" x="1027.5" y="-511.5" font-family="Helvetica,sans-Serif" font-size="10.00" fill="#000000">schedule.h</text>
</a>
</g>
</g>
<!-- Node29&#45;&gt;Node30 -->
<g id="edge39" class="edge">
<title>Node29&#45;&gt;Node30</title>
<path fill="none" stroke="#191970" d="M952.234,-555.3225C970.4532,-545.3198 994.0598,-532.3593 1009.9366,-523.6427"/>
<polygon fill="#191970" stroke="#191970" points="950.3484,-552.3649 943.267,-560.2455 953.7173,-558.5009 950.3484,-552.3649"/>
</g>
<!-- Node31 -->
<g id="node28" class="node">
<title>Node31</title>
<g id="a_node28"><a xlink:href="api_2schedule_8h.html" target="_top" xlink:title="ODP schedule. ">
<polygon fill="#ffffff" stroke="#000000" points="993,-168.5 993,-187.5 1062,-187.5 1062,-168.5 993,-168.5"/>
<text text-anchor="middle" x="1027.5" y="-175.5" font-family="Helvetica,sans-Serif" font-size="10.00" fill="#000000">schedule.h</text>
</a>
</g>
</g>
<!-- Node30&#45;&gt;Node31 -->
<g id="edge40" class="edge">
<title>Node30&#45;&gt;Node31</title>
<path fill="none" stroke="#191970" d="M1027.5,-494.1952C1027.5,-471.8128 1027.5,-434.2884 1027.5,-402 1027.5,-402 1027.5,-402 1027.5,-290 1027.5,-252.0833 1027.5,-206.9462 1027.5,-187.5884"/>
<polygon fill="#191970" stroke="#191970" points="1024.0001,-494.4116 1027.5,-504.4116 1031.0001,-494.4117 1024.0001,-494.4116"/>
</g>
<!-- Node31&#45;&gt;Node16 -->
<g id="edge41" class="edge">
<title>Node31&#45;&gt;Node16</title>
<path fill="none" stroke="#191970" d="M1016.9888,-159.4439C1008.1526,-145.101 994.4319,-125.4828 978.5,-112 959.3455,-95.7899 933.5077,-83.3363 914.4299,-75.5005"/>
<polygon fill="#191970" stroke="#191970" points="1014.1825,-161.5737 1022.2929,-168.3907 1020.2038,-158.0038 1014.1825,-161.5737"/>
</g>
</g>
</svg>
