<?xml version="1.0" encoding="UTF-8" standalone="no"?>
<!DOCTYPE svg PUBLIC "-//W3C//DTD SVG 1.1//EN"
 "http://www.w3.org/Graphics/SVG/1.1/DTD/svg11.dtd">
<!-- Generated by graphviz version 2.40.1 (20161225.0304)
 -->
<!-- Title: packet_io_stats.h Pages: 1 -->
<svg width="1527pt" height="722pt"
 viewBox="0.00 0.00 1526.84 722.00" xmlns="http://www.w3.org/2000/svg" xmlns:xlink="http://www.w3.org/1999/xlink">
<g id="graph0" class="graph" transform="scale(1 1) rotate(0) translate(4 718)">
<title>packet_io_stats.h</title>
<polygon fill="#ffffff" stroke="transparent" points="-4,4 -4,-718 1522.8378,-718 1522.8378,4 -4,4"/>
<!-- Node0 -->
<g id="node1" class="node">
<title>Node0</title>
<polygon fill="#bfbfbf" stroke="#000000" points="358,-694.5 358,-713.5 460,-713.5 460,-694.5 358,-694.5"/>
<text text-anchor="middle" x="409" y="-701.5" font-family="Helvetica,sans-Serif" font-size="10.00" fill="#000000">packet_io_stats.h</text>
</g>
<!-- Node1 -->
<g id="node2" class="node">
<title>Node1</title>
<g id="a_node2"><a xlink:href="visibility__begin_8h_source.html" target="_top" xlink:title="odp/visibility_begin.h">
<polygon fill="#ffffff" stroke="#000000" points="129.5,-.5 129.5,-19.5 250.5,-19.5 250.5,-.5 129.5,-.5"/>
<text text-anchor="middle" x="190" y="-7.5" font-family="Helvetica,sans-Serif" font-size="10.00" fill="#000000">odp/visibility_begin.h</text>
</a>
</g>
</g>
<!-- Node0&#45;&gt;Node1 -->
<g id="edge1" class="edge">
<title>Node0&#45;&gt;Node1</title>
<path fill="none" stroke="#191970" d="M357.614,-700.7415C247.765,-692.3659 0,-665.3451 0,-592 0,-592 0,-592 0,-122 0,-64.2347 65.9818,-35.6568 120.1794,-21.9265"/>
<polygon fill="#191970" stroke="#191970" points="121.2383,-25.2718 130.1436,-19.5319 119.6026,-18.4656 121.2383,-25.2718"/>
</g>
<!-- Node2 -->
<g id="node3" class="node">
<title>Node2</title>
<g id="a_node3"><a xlink:href="deprecated_8h.html" target="_top" xlink:title="Control deprecated API definitions. ">
<polygon fill="#ffffff" stroke="#000000" points="180.5,-235.5 180.5,-254.5 299.5,-254.5 299.5,-235.5 180.5,-235.5"/>
<text text-anchor="middle" x="240" y="-242.5" font-family="Helvetica,sans-Serif" font-size="10.00" fill="#000000">odp/api/deprecated.h</text>
</a>
</g>
</g>
<!-- Node0&#45;&gt;Node2 -->
<g id="edge2" class="edge">
<title>Node0&#45;&gt;Node2</title>
<path fill="none" stroke="#191970" d="M363.2662,-694.4777C313.2161,-681.0656 240,-651.3096 240,-592 240,-592 240,-592 240,-368 240,-331.4994 240,-288.906 240,-264.6285"/>
<polygon fill="#191970" stroke="#191970" points="243.5001,-264.5691 240,-254.5691 236.5001,-264.5692 243.5001,-264.5691"/>
</g>
<!-- Node4 -->
<g id="node5" class="node">
<title>Node4</title>
<g id="a_node5"><a xlink:href="visibility__end_8h_source.html" target="_top" xlink:title="odp/visibility_end.h">
<polygon fill="#ffffff" stroke="#000000" points="775,-.5 775,-19.5 887,-19.5 887,-.5 775,-.5"/>
<text text-anchor="middle" x="831" y="-7.5" font-family="Helvetica,sans-Serif" font-size="10.00" fill="#000000">odp/visibility_end.h</text>
</a>
</g>
</g>
<!-- Node0&#45;&gt;Node4 -->
<g id="edge60" class="edge">
<title>Node0&#45;&gt;Node4</title>
<path fill="none" stroke="#191970" d="M460.1928,-701.2807C671.2694,-689.737 1463,-643.0358 1463,-592 1463,-592 1463,-592 1463,-122 1463,-109.7341 1665.8316,-144.3774 1293,-56 1219.5838,-38.5972 1006.4725,-22.0472 897.2443,-14.4095"/>
<polygon fill="#191970" stroke="#191970" points="897.2248,-10.8998 887.0063,-13.6985 896.7398,-17.883 897.2248,-10.8998"/>
</g>
<!-- Node5 -->
<g id="node6" class="node">
<title>Node5</title>
<g id="a_node6"><a xlink:href="api_2queue_8h.html" target="_top" xlink:title="ODP queue. ">
<polygon fill="#ffffff" stroke="#000000" points="559.5,-638.5 559.5,-657.5 654.5,-657.5 654.5,-638.5 559.5,-638.5"/>
<text text-anchor="middle" x="607" y="-645.5" font-family="Helvetica,sans-Serif" font-size="10.00" fill="#000000">odp/api/queue.h</text>
</a>
</g>
</g>
<!-- Node0&#45;&gt;Node5 -->
<g id="edge6" class="edge">
<title>Node0&#45;&gt;Node5</title>
<path fill="none" stroke="#191970" d="M443.0374,-694.3733C476.3894,-684.9404 527.3527,-670.5265 563.6002,-660.2747"/>
<polygon fill="#191970" stroke="#191970" points="564.7368,-663.5906 573.4067,-657.5011 562.8316,-656.8548 564.7368,-663.5906"/>
</g>
<!-- Node3 -->
<g id="node4" class="node">
<title>Node3</title>
<g id="a_node4"><a xlink:href="spec_2deprecated_8h.html" target="_top" xlink:title="Macro for deprecated API definitions. ">
<polygon fill="#ffffff" stroke="#000000" points="218.5,-56.5 218.5,-75.5 363.5,-75.5 363.5,-56.5 218.5,-56.5"/>
<text text-anchor="middle" x="291" y="-63.5" font-family="Helvetica,sans-Serif" font-size="10.00" fill="#000000">odp/api/spec/deprecated.h</text>
</a>
</g>
</g>
<!-- Node2&#45;&gt;Node3 -->
<g id="edge3" class="edge">
<title>Node2&#45;&gt;Node3</title>
<path fill="none" stroke="#191970" d="M242.742,-235.3762C250.8017,-207.0883 274.5322,-123.7987 285.4223,-85.5767"/>
<polygon fill="#191970" stroke="#191970" points="288.8703,-86.2477 288.2445,-75.6714 282.1382,-84.3296 288.8703,-86.2477"/>
</g>
<!-- Node3&#45;&gt;Node1 -->
<g id="edge4" class="edge">
<title>Node3&#45;&gt;Node1</title>
<path fill="none" stroke="#191970" d="M273.4071,-56.2455C257.621,-47.4928 234.2361,-34.527 216.2413,-24.5496"/>
<polygon fill="#191970" stroke="#191970" points="217.8341,-21.4308 207.3913,-19.6427 214.4397,-27.5528 217.8341,-21.4308"/>
</g>
<!-- Node3&#45;&gt;Node4 -->
<g id="edge5" class="edge">
<title>Node3&#45;&gt;Node4</title>
<path fill="none" stroke="#191970" d="M363.5464,-58.4767C468.9421,-47.5467 662.8965,-27.433 764.6745,-16.8782"/>
<polygon fill="#191970" stroke="#191970" points="765.2416,-20.3382 774.8272,-15.8253 764.5195,-13.3756 765.2416,-20.3382"/>
</g>
<!-- Node6 -->
<g id="node7" class="node">
<title>Node6</title>
<g id="a_node7"><a xlink:href="api_2std__types_8h.html" target="_top" xlink:title="Standard C language types and definitions for ODP. ">
<polygon fill="#ffffff" stroke="#000000" points="889,-235.5 889,-254.5 1001,-254.5 1001,-235.5 889,-235.5"/>
<text text-anchor="middle" x="945" y="-242.5" font-family="Helvetica,sans-Serif" font-size="10.00" fill="#000000">odp/api/std_types.h</text>
</a>
</g>
</g>
<!-- Node5&#45;&gt;Node6 -->
<g id="edge7" class="edge">
<title>Node5&#45;&gt;Node6</title>
<path fill="none" stroke="#191970" d="M654.6183,-646.2099C823.9678,-639.2202 1387,-610.388 1387,-536 1387,-536 1387,-536 1387,-368 1387,-291.0103 1134.9566,-260.1576 1011.5251,-249.6644"/>
<polygon fill="#191970" stroke="#191970" points="1011.6836,-246.1656 1001.4286,-248.8271 1011.1051,-253.1416 1011.6836,-246.1656"/>
</g>
<!-- Node13 -->
<g id="node14" class="node">
<title>Node13</title>
<polygon fill="#ffffff" stroke="#bfbfbf" points="1249,-358.5 1249,-377.5 1359,-377.5 1359,-358.5 1249,-358.5"/>
<text text-anchor="middle" x="1304" y="-365.5" font-family="Helvetica,sans-Serif" font-size="10.00" fill="#000000">odp/api/abi/event.h</text>
</g>
<!-- Node5&#45;&gt;Node13 -->
<g id="edge18" class="edge">
<title>Node5&#45;&gt;Node13</title>
<path fill="none" stroke="#191970" d="M654.6333,-645.3871C811.8079,-636.1384 1304,-601.9139 1304,-536 1304,-536 1304,-536 1304,-480 1304,-447.7116 1304,-410.1872 1304,-387.8048"/>
<polygon fill="#191970" stroke="#191970" points="1307.5001,-387.5883 1304,-377.5884 1300.5001,-387.5884 1307.5001,-387.5883"/>
</g>
<!-- Node14 -->
<g id="node15" class="node">
<title>Node14</title>
<polygon fill="#ffffff" stroke="#bfbfbf" points="405.5,-358.5 405.5,-377.5 518.5,-377.5 518.5,-358.5 405.5,-358.5"/>
<text text-anchor="middle" x="462" y="-365.5" font-family="Helvetica,sans-Serif" font-size="10.00" fill="#000000">odp/api/abi/queue.h</text>
</g>
<!-- Node5&#45;&gt;Node14 -->
<g id="edge19" class="edge">
<title>Node5&#45;&gt;Node14</title>
<path fill="none" stroke="#191970" d="M559.2071,-643.8141C525.5118,-638.6937 481.0365,-627.3096 450,-602 424.2685,-581.0165 415,-569.2027 415,-536 415,-536 415,-536 415,-480 415,-444.5481 435.2704,-407.3564 449.1871,-385.9999"/>
<polygon fill="#191970" stroke="#191970" points="452.1549,-387.8593 454.8617,-377.6161 446.3579,-383.9356 452.1549,-387.8593"/>
</g>
<!-- Node15 -->
<g id="node16" class="node">
<title>Node15</title>
<polygon fill="#ffffff" stroke="#bfbfbf" points="537,-358.5 537,-377.5 647,-377.5 647,-358.5 537,-358.5"/>
<text text-anchor="middle" x="592" y="-365.5" font-family="Helvetica,sans-Serif" font-size="10.00" fill="#000000">odp/api/abi/buffer.h</text>
</g>
<!-- Node5&#45;&gt;Node15 -->
<g id="edge20" class="edge">
<title>Node5&#45;&gt;Node15</title>
<path fill="none" stroke="#191970" d="M607,-638.4116C607,-619.0538 607,-573.9167 607,-536 607,-536 607,-536 607,-480 607,-447.2739 600.6307,-409.641 596.193,-387.3923"/>
<polygon fill="#191970" stroke="#191970" points="599.6058,-386.6123 594.1491,-377.5307 592.7515,-388.0329 599.6058,-386.6123"/>
</g>
<!-- Node16 -->
<g id="node17" class="node">
<title>Node16</title>
<polygon fill="#ffffff" stroke="#bfbfbf" points="1127,-358.5 1127,-377.5 1231,-377.5 1231,-358.5 1127,-358.5"/>
<text text-anchor="middle" x="1179" y="-365.5" font-family="Helvetica,sans-Serif" font-size="10.00" fill="#000000">odp/api/abi/pool.h</text>
</g>
<!-- Node5&#45;&gt;Node16 -->
<g id="edge21" class="edge">
<title>Node5&#45;&gt;Node16</title>
<path fill="none" stroke="#191970" d="M654.7093,-643.8743C793.9468,-631.1992 1190,-590.3674 1190,-536 1190,-536 1190,-536 1190,-480 1190,-447.5562 1185.3718,-410.078 1182.1195,-387.7472"/>
<polygon fill="#191970" stroke="#191970" points="1185.5343,-386.9203 1180.576,-377.5573 1178.6132,-387.9687 1185.5343,-386.9203"/>
</g>
<!-- Node17 -->
<g id="node18" class="node">
<title>Node17</title>
<g id="a_node18"><a xlink:href="api_2spec_2queue_8h.html" target="_top" xlink:title="ODP queue. ">
<polygon fill="#ffffff" stroke="#000000" points="459,-582.5 459,-601.5 579,-601.5 579,-582.5 459,-582.5"/>
<text text-anchor="middle" x="519" y="-589.5" font-family="Helvetica,sans-Serif" font-size="10.00" fill="#000000">odp/api/spec/queue.h</text>
</a>
</g>
</g>
<!-- Node5&#45;&gt;Node17 -->
<g id="edge22" class="edge">
<title>Node5&#45;&gt;Node17</title>
<path fill="none" stroke="#191970" d="M591.6716,-638.2455C578.1697,-629.6534 558.2878,-617.0014 542.7314,-607.1018"/>
<polygon fill="#191970" stroke="#191970" points="544.4685,-604.0587 534.1528,-601.6427 540.7103,-609.9643 544.4685,-604.0587"/>
</g>
<!-- Node7 -->
<g id="node8" class="node">
<title>Node7</title>
<polygon fill="#ffffff" stroke="#bfbfbf" points="880,-174 880,-193 1010,-193 1010,-174 880,-174"/>
<text text-anchor="middle" x="945" y="-181" font-family="Helvetica,sans-Serif" font-size="10.00" fill="#000000">odp/api/abi/std_types.h</text>
</g>
<!-- Node6&#45;&gt;Node7 -->
<g id="edge8" class="edge">
<title>Node6&#45;&gt;Node7</title>
<path fill="none" stroke="#191970" d="M945,-235.3906C945,-226.8657 945,-214.1392 945,-203.4235"/>
<polygon fill="#191970" stroke="#191970" points="948.5001,-203.2448 945,-193.2449 941.5001,-203.2449 948.5001,-203.2448"/>
</g>
<!-- Node8 -->
<g id="node9" class="node">
<title>Node8</title>
<g id="a_node9"><a xlink:href="api_2spec_2std__types_8h.html" target="_top" xlink:title="Standard C language types and definitions for ODP. ">
<polygon fill="#ffffff" stroke="#000000" points="1028.5,-174 1028.5,-193 1165.5,-193 1165.5,-174 1028.5,-174"/>
<text text-anchor="middle" x="1097" y="-181" font-family="Helvetica,sans-Serif" font-size="10.00" fill="#000000">odp/api/spec/std_types.h</text>
</a>
</g>
</g>
<!-- Node6&#45;&gt;Node8 -->
<g id="edge9" class="edge">
<title>Node6&#45;&gt;Node8</title>
<path fill="none" stroke="#191970" d="M968.75,-235.3906C994.2939,-225.0554 1035.1009,-208.5447 1063.811,-196.9284"/>
<polygon fill="#191970" stroke="#191970" points="1065.4596,-200.0371 1073.4168,-193.0419 1062.834,-193.5481 1065.4596,-200.0371"/>
</g>
<!-- Node8&#45;&gt;Node1 -->
<g id="edge10" class="edge">
<title>Node8&#45;&gt;Node1</title>
<path fill="none" stroke="#191970" d="M1050.8713,-173.9705C1040.4092,-171.9103 1029.3357,-169.8092 1019,-168 884.6139,-144.4761 541.8371,-117.8964 412,-76 393.4616,-70.018 391.2305,-62.8632 373,-56 333.3463,-41.0716 287.0486,-29.4859 250.9425,-21.6758"/>
<polygon fill="#191970" stroke="#191970" points="251.5519,-18.2272 241.0429,-19.5734 250.0977,-25.0745 251.5519,-18.2272"/>
</g>
<!-- Node8&#45;&gt;Node4 -->
<g id="edge17" class="edge">
<title>Node8&#45;&gt;Node4</title>
<path fill="none" stroke="#191970" d="M1101.706,-173.9158C1106.3982,-163.7845 1113.2859,-147.1982 1116,-132 1122.0849,-97.9266 1124.9527,-78.9016 1099,-56 1069.7746,-30.2105 966.7453,-18.552 897.284,-13.5248"/>
<polygon fill="#191970" stroke="#191970" points="897.5107,-10.0322 887.292,-12.8303 897.0252,-17.0154 897.5107,-10.0322"/>
</g>
<!-- Node9 -->
<g id="node10" class="node">
<title>Node9</title>
<polygon fill="#ffffff" stroke="#bfbfbf" points="1053.5,-112.5 1053.5,-131.5 1106.5,-131.5 1106.5,-112.5 1053.5,-112.5"/>
<text text-anchor="middle" x="1080" y="-119.5" font-family="Helvetica,sans-Serif" font-size="10.00" fill="#000000">stdint.h</text>
</g>
<!-- Node8&#45;&gt;Node9 -->
<g id="edge11" class="edge">
<title>Node8&#45;&gt;Node9</title>
<path fill="none" stroke="#191970" d="M1094.3438,-173.8906C1091.9625,-165.276 1088.3952,-152.3708 1085.414,-141.5858"/>
<polygon fill="#191970" stroke="#191970" points="1088.7316,-140.4509 1082.6937,-131.7449 1081.9846,-142.3159 1088.7316,-140.4509"/>
</g>
<!-- Node10 -->
<g id="node11" class="node">
<title>Node10</title>
<g id="a_node11"><a xlink:href="api_2align_8h.html" target="_top" xlink:title="ODP alignments. ">
<polygon fill="#ffffff" stroke="#000000" points="946.5,-112.5 946.5,-131.5 1035.5,-131.5 1035.5,-112.5 946.5,-112.5"/>
<text text-anchor="middle" x="991" y="-119.5" font-family="Helvetica,sans-Serif" font-size="10.00" fill="#000000">odp/api/align.h</text>
</a>
</g>
</g>
<!-- Node8&#45;&gt;Node10 -->
<g id="edge12" class="edge">
<title>Node8&#45;&gt;Node10</title>
<path fill="none" stroke="#191970" d="M1080.4375,-173.8906C1063.2463,-163.9165 1036.1418,-148.1908 1016.2734,-136.6633"/>
<polygon fill="#191970" stroke="#191970" points="1017.8523,-133.533 1007.4462,-131.5419 1014.3394,-139.5877 1017.8523,-133.533"/>
</g>
<!-- Node11 -->
<g id="node12" class="node">
<title>Node11</title>
<polygon fill="#ffffff" stroke="#bfbfbf" points="982.5,-56.5 982.5,-75.5 1089.5,-75.5 1089.5,-56.5 982.5,-56.5"/>
<text text-anchor="middle" x="1036" y="-63.5" font-family="Helvetica,sans-Serif" font-size="10.00" fill="#000000">odp/api/abi/align.h</text>
</g>
<!-- Node10&#45;&gt;Node11 -->
<g id="edge13" class="edge">
<title>Node10&#45;&gt;Node11</title>
<path fill="none" stroke="#191970" d="M998.8384,-112.2455C1005.162,-104.3761 1014.2224,-93.101 1021.8136,-83.6542"/>
<polygon fill="#191970" stroke="#191970" points="1024.7158,-85.6302 1028.2514,-75.6427 1019.2592,-81.2454 1024.7158,-85.6302"/>
</g>
<!-- Node12 -->
<g id="node13" class="node">
<title>Node12</title>
<g id="a_node13"><a xlink:href="api_2spec_2align_8h.html" target="_top" xlink:title="ODP alignments. ">
<polygon fill="#ffffff" stroke="#000000" points="774,-56.5 774,-75.5 888,-75.5 888,-56.5 774,-56.5"/>
<text text-anchor="middle" x="831" y="-63.5" font-family="Helvetica,sans-Serif" font-size="10.00" fill="#000000">odp/api/spec/align.h</text>
</a>
</g>
</g>
<!-- Node10&#45;&gt;Node12 -->
<g id="edge14" class="edge">
<title>Node10&#45;&gt;Node12</title>
<path fill="none" stroke="#191970" d="M963.495,-112.3733C937.1198,-103.1419 897.1149,-89.1402 867.9642,-78.9375"/>
<polygon fill="#191970" stroke="#191970" points="868.7409,-75.5012 858.1461,-75.5011 866.4284,-82.1082 868.7409,-75.5012"/>
</g>
<!-- Node12&#45;&gt;Node1 -->
<g id="edge15" class="edge">
<title>Node12&#45;&gt;Node1</title>
<path fill="none" stroke="#191970" d="M773.793,-60.3915C758.5874,-58.9302 742.174,-57.3794 727,-56 560.1041,-40.8283 363.8971,-24.3704 261.0784,-15.8517"/>
<polygon fill="#191970" stroke="#191970" points="261.075,-12.3396 250.8203,-15.0025 260.4975,-19.3157 261.075,-12.3396"/>
</g>
<!-- Node12&#45;&gt;Node4 -->
<g id="edge16" class="edge">
<title>Node12&#45;&gt;Node4</title>
<path fill="none" stroke="#191970" d="M831,-56.2455C831,-48.9382 831,-38.6944 831,-29.7046"/>
<polygon fill="#191970" stroke="#191970" points="834.5001,-29.6426 831,-19.6427 827.5001,-29.6427 834.5001,-29.6426"/>
</g>
<!-- Node17&#45;&gt;Node1 -->
<g id="edge23" class="edge">
<title>Node17&#45;&gt;Node1</title>
<path fill="none" stroke="#191970" d="M458.5681,-590.5215C329.3814,-585.7191 38,-565.4193 38,-480 38,-480 38,-480 38,-122 38,-68.8635 98.9479,-38.1127 143.6564,-22.7035"/>
<polygon fill="#191970" stroke="#191970" points="144.8031,-26.0108 153.205,-19.5566 142.612,-19.3626 144.8031,-26.0108"/>
</g>
<!-- Node17&#45;&gt;Node4 -->
<g id="edge59" class="edge">
<title>Node17&#45;&gt;Node4</title>
<path fill="none" stroke="#191970" d="M579.1468,-586.2399C781.498,-565.2236 1425,-484.4037 1425,-306.5 1425,-306.5 1425,-306.5 1425,-122 1425,-68.8161 1052.5332,-29.6316 897.4857,-15.6241"/>
<polygon fill="#191970" stroke="#191970" points="897.4219,-12.1045 887.1496,-14.6986 896.7975,-19.0766 897.4219,-12.1045"/>
</g>
<!-- Node18 -->
<g id="node19" class="node">
<title>Node18</title>
<g id="a_node19"><a xlink:href="api_2event_8h.html" target="_top" xlink:title="ODP event. ">
<polygon fill="#ffffff" stroke="#000000" points="481,-526.5 481,-545.5 573,-545.5 573,-526.5 481,-526.5"/>
<text text-anchor="middle" x="527" y="-533.5" font-family="Helvetica,sans-Serif" font-size="10.00" fill="#000000">odp/api/event.h</text>
</a>
</g>
</g>
<!-- Node17&#45;&gt;Node18 -->
<g id="edge24" class="edge">
<title>Node17&#45;&gt;Node18</title>
<path fill="none" stroke="#191970" d="M520.3935,-582.2455C521.4374,-574.9382 522.9008,-564.6944 524.1851,-555.7046"/>
<polygon fill="#191970" stroke="#191970" points="527.673,-556.0372 525.6225,-545.6427 520.7434,-555.0472 527.673,-556.0372"/>
</g>
<!-- Node27 -->
<g id="node28" class="node">
<title>Node27</title>
<g id="a_node28"><a xlink:href="queue__types_8h.html" target="_top" xlink:title="ODP queue types. ">
<polygon fill="#ffffff" stroke="#000000" points="268.5,-291.5 268.5,-321.5 379.5,-321.5 379.5,-291.5 268.5,-291.5"/>
<text text-anchor="start" x="276.5" y="-309.5" font-family="Helvetica,sans-Serif" font-size="10.00" fill="#000000">odp/api/spec/queue</text>
<text text-anchor="middle" x="324" y="-298.5" font-family="Helvetica,sans-Serif" font-size="10.00" fill="#000000">_types.h</text>
</a>
</g>
</g>
<!-- Node17&#45;&gt;Node27 -->
<g id="edge46" class="edge">
<title>Node17&#45;&gt;Node27</title>
<path fill="none" stroke="#191970" d="M505.9561,-582.4884C476.1243,-560.0543 402.4588,-500.681 363,-434 343.7287,-401.4335 333.1663,-358.4671 328.0487,-331.6633"/>
<polygon fill="#191970" stroke="#191970" points="331.4492,-330.7972 326.235,-321.5742 324.5597,-332.0358 331.4492,-330.7972"/>
</g>
<!-- Node18&#45;&gt;Node13 -->
<g id="edge25" class="edge">
<title>Node18&#45;&gt;Node13</title>
<path fill="none" stroke="#191970" d="M571.0012,-526.4862C704.3996,-497.6433 1104.0667,-411.2288 1249.9436,-379.6879"/>
<polygon fill="#191970" stroke="#191970" points="1250.9666,-383.0476 1260.001,-377.5133 1249.4872,-376.2057 1250.9666,-383.0476"/>
</g>
<!-- Node19 -->
<g id="node20" class="node">
<title>Node19</title>
<g id="a_node20"><a xlink:href="api_2spec_2event_8h.html" target="_top" xlink:title="ODP event. ">
<polygon fill="#ffffff" stroke="#000000" points="452,-470.5 452,-489.5 570,-489.5 570,-470.5 452,-470.5"/>
<text text-anchor="middle" x="511" y="-477.5" font-family="Helvetica,sans-Serif" font-size="10.00" fill="#000000">odp/api/spec/event.h</text>
</a>
</g>
</g>
<!-- Node18&#45;&gt;Node19 -->
<g id="edge26" class="edge">
<title>Node18&#45;&gt;Node19</title>
<path fill="none" stroke="#191970" d="M524.213,-526.2455C522.1023,-518.8579 519.134,-508.4689 516.5453,-499.4087"/>
<polygon fill="#191970" stroke="#191970" points="519.8677,-498.2964 513.755,-489.6427 513.137,-500.2195 519.8677,-498.2964"/>
</g>
<!-- Node19&#45;&gt;Node1 -->
<g id="edge27" class="edge">
<title>Node19&#45;&gt;Node1</title>
<path fill="none" stroke="#191970" d="M460.2486,-470.4474C345.5004,-445.6067 76,-367.662 76,-183.5 76,-183.5 76,-183.5 76,-122 76,-75.4628 124.9383,-41.828 158.6864,-24.1659"/>
<polygon fill="#191970" stroke="#191970" points="160.3862,-27.2289 167.749,-19.6105 157.2424,-20.9746 160.3862,-27.2289"/>
</g>
<!-- Node19&#45;&gt;Node4 -->
<g id="edge45" class="edge">
<title>Node19&#45;&gt;Node4</title>
<path fill="none" stroke="#191970" d="M488.8743,-470.3963C448.3171,-451.3517 368.7095,-406.4357 397,-358 525.6758,-137.6963 768.3242,-296.3037 897,-76 909.0677,-55.3391 885.2578,-36.5552 862.9428,-24.3564"/>
<polygon fill="#191970" stroke="#191970" points="864.395,-21.1675 853.9021,-19.7016 861.1907,-27.391 864.395,-21.1675"/>
</g>
<!-- Node20 -->
<g id="node21" class="node">
<title>Node20</title>
<g id="a_node21"><a xlink:href="api_2packet_8h.html" target="_top" xlink:title="ODP packet descriptor. ">
<polygon fill="#ffffff" stroke="#000000" points="768,-414.5 768,-433.5 866,-433.5 866,-414.5 768,-414.5"/>
<text text-anchor="middle" x="817" y="-421.5" font-family="Helvetica,sans-Serif" font-size="10.00" fill="#000000">odp/api/packet.h</text>
</a>
</g>
</g>
<!-- Node19&#45;&gt;Node20 -->
<g id="edge28" class="edge">
<title>Node19&#45;&gt;Node20</title>
<path fill="none" stroke="#191970" d="M563.2556,-470.4369C617.3614,-460.5352 701.7256,-445.096 758.1469,-434.7705"/>
<polygon fill="#191970" stroke="#191970" points="758.7884,-438.2113 767.9949,-432.9682 757.5282,-431.3257 758.7884,-438.2113"/>
</g>
<!-- Node20&#45;&gt;Node6 -->
<g id="edge29" class="edge">
<title>Node20&#45;&gt;Node6</title>
<path fill="none" stroke="#191970" d="M818.26,-414.4708C820.3448,-401.1075 825.3835,-376.3781 836,-358 859.1733,-317.8852 899.6212,-281.2279 924.192,-261.1188"/>
<polygon fill="#191970" stroke="#191970" points="926.5591,-263.7069 932.1665,-254.7176 922.1771,-258.248 926.5591,-263.7069"/>
</g>
<!-- Node20&#45;&gt;Node13 -->
<g id="edge30" class="edge">
<title>Node20&#45;&gt;Node13</title>
<path fill="none" stroke="#191970" d="M866.261,-419.3959C943.3983,-412.0211 1097.6244,-396.6122 1238.7299,-378.1188"/>
<polygon fill="#191970" stroke="#191970" points="1239.4092,-381.5596 1248.8656,-376.782 1238.4938,-374.6197 1239.4092,-381.5596"/>
</g>
<!-- Node20&#45;&gt;Node14 -->
<g id="edge33" class="edge">
<title>Node20&#45;&gt;Node14</title>
<path fill="none" stroke="#191970" d="M767.6388,-416.2134C705.3549,-406.3884 597.9989,-389.4533 528.5232,-378.4938"/>
<polygon fill="#191970" stroke="#191970" points="528.9806,-375.0228 518.5574,-376.9217 527.8899,-381.9373 528.9806,-375.0228"/>
</g>
<!-- Node20&#45;&gt;Node15 -->
<g id="edge34" class="edge">
<title>Node20&#45;&gt;Node15</title>
<path fill="none" stroke="#191970" d="M778.5768,-414.4369C740.3125,-404.9133 681.4663,-390.2672 640.1151,-379.9753"/>
<polygon fill="#191970" stroke="#191970" points="640.8141,-376.5426 630.2647,-377.5237 639.1234,-383.3353 640.8141,-376.5426"/>
</g>
<!-- Node20&#45;&gt;Node16 -->
<g id="edge35" class="edge">
<title>Node20&#45;&gt;Node16</title>
<path fill="none" stroke="#191970" d="M866.0328,-416.6734C923.5914,-408.0357 1022.2068,-393.1211 1116.7432,-378.187"/>
<polygon fill="#191970" stroke="#191970" points="1117.4325,-381.6216 1126.7626,-376.6017 1116.3385,-374.7076 1117.4325,-381.6216"/>
</g>
<!-- Node21 -->
<g id="node22" class="node">
<title>Node21</title>
<polygon fill="#ffffff" stroke="#bfbfbf" points="845,-358.5 845,-377.5 975,-377.5 975,-358.5 845,-358.5"/>
<text text-anchor="middle" x="910" y="-365.5" font-family="Helvetica,sans-Serif" font-size="10.00" fill="#000000">odp/api/abi/packet_io.h</text>
</g>
<!-- Node20&#45;&gt;Node21 -->
<g id="edge31" class="edge">
<title>Node20&#45;&gt;Node21</title>
<path fill="none" stroke="#191970" d="M833.1994,-414.2455C847.6018,-405.5731 868.8732,-392.7645 885.3799,-382.825"/>
<polygon fill="#191970" stroke="#191970" points="887.225,-385.7996 893.9863,-377.6427 883.614,-379.8028 887.225,-385.7996"/>
</g>
<!-- Node22 -->
<g id="node23" class="node">
<title>Node22</title>
<polygon fill="#ffffff" stroke="#bfbfbf" points="993,-358.5 993,-377.5 1109,-377.5 1109,-358.5 993,-358.5"/>
<text text-anchor="middle" x="1051" y="-365.5" font-family="Helvetica,sans-Serif" font-size="10.00" fill="#000000">odp/api/abi/packet.h</text>
</g>
<!-- Node20&#45;&gt;Node22 -->
<g id="edge32" class="edge">
<title>Node20&#45;&gt;Node22</title>
<path fill="none" stroke="#191970" d="M856.9602,-414.4369C896.8392,-404.8932 958.2139,-390.2052 1001.2328,-379.9101"/>
<polygon fill="#191970" stroke="#191970" points="1002.2939,-383.2551 1011.2047,-377.5237 1000.6646,-376.4473 1002.2939,-383.2551"/>
</g>
<!-- Node23 -->
<g id="node24" class="node">
<title>Node23</title>
<g id="a_node24"><a xlink:href="api_2spec_2packet_8h.html" target="_top" xlink:title="ODP packet descriptor. ">
<polygon fill="#ffffff" stroke="#000000" points="665.5,-358.5 665.5,-377.5 788.5,-377.5 788.5,-358.5 665.5,-358.5"/>
<text text-anchor="middle" x="727" y="-365.5" font-family="Helvetica,sans-Serif" font-size="10.00" fill="#000000">odp/api/spec/packet.h</text>
</a>
</g>
</g>
<!-- Node20&#45;&gt;Node23 -->
<g id="edge36" class="edge">
<title>Node20&#45;&gt;Node23</title>
<path fill="none" stroke="#191970" d="M801.3232,-414.2455C787.5144,-405.6534 767.1807,-393.0014 751.2708,-383.1018"/>
<polygon fill="#191970" stroke="#191970" points="752.8368,-379.954 742.4972,-377.6427 749.1387,-385.8974 752.8368,-379.954"/>
</g>
<!-- Node23&#45;&gt;Node1 -->
<g id="edge37" class="edge">
<title>Node23&#45;&gt;Node1</title>
<path fill="none" stroke="#191970" d="M665.4503,-359.1411C662.2561,-358.7408 659.0914,-358.3576 656,-358 480.0055,-337.6391 424.9913,-383.9315 259,-322 204.1071,-301.5194 152,-303.5892 152,-245 152,-245 152,-245 152,-122 152,-87.6118 168.2634,-50.2832 179.511,-28.5791"/>
<polygon fill="#191970" stroke="#191970" points="182.7317,-29.9804 184.393,-19.5166 176.569,-26.6605 182.7317,-29.9804"/>
</g>
<!-- Node23&#45;&gt;Node4 -->
<g id="edge44" class="edge">
<title>Node23&#45;&gt;Node4</title>
<path fill="none" stroke="#191970" d="M744.8041,-358.4211C759.0503,-350.134 778.9075,-337.1223 793,-322 816.644,-296.6283 817.1386,-285.8412 833,-255 852.2975,-217.4773 851.1043,-205.209 871,-168 893.9044,-125.1643 916.3373,-122.6137 930,-76 932.5002,-67.47 934.7811,-63.4936 930,-56 919.9797,-40.2949 903.0584,-29.8684 886.013,-22.9824"/>
<polygon fill="#191970" stroke="#191970" points="887.1671,-19.6777 876.5736,-19.51 884.7504,-26.2473 887.1671,-19.6777"/>
</g>
<!-- Node24 -->
<g id="node25" class="node">
<title>Node24</title>
<g id="a_node25"><a xlink:href="api_2time_8h.html" target="_top" xlink:title="ODP time. ">
<polygon fill="#ffffff" stroke="#000000" points="696.5,-297 696.5,-316 783.5,-316 783.5,-297 696.5,-297"/>
<text text-anchor="middle" x="740" y="-304" font-family="Helvetica,sans-Serif" font-size="10.00" fill="#000000">odp/api/time.h</text>
</a>
</g>
</g>
<!-- Node23&#45;&gt;Node24 -->
<g id="edge38" class="edge">
<title>Node23&#45;&gt;Node24</title>
<path fill="none" stroke="#191970" d="M729.0313,-358.3906C730.8522,-349.776 733.5802,-336.8708 735.8599,-326.0858"/>
<polygon fill="#191970" stroke="#191970" points="739.2962,-326.7525 737.9401,-316.2449 732.4476,-325.3048 739.2962,-326.7525"/>
</g>
<!-- Node24&#45;&gt;Node6 -->
<g id="edge39" class="edge">
<title>Node24&#45;&gt;Node6</title>
<path fill="none" stroke="#191970" d="M772.0313,-296.8906C807.3846,-286.2846 864.4157,-269.1753 903.2478,-257.5257"/>
<polygon fill="#191970" stroke="#191970" points="904.6212,-260.7678 913.1937,-254.5419 902.6097,-254.0631 904.6212,-260.7678"/>
</g>
<!-- Node25 -->
<g id="node26" class="node">
<title>Node25</title>
<polygon fill="#ffffff" stroke="#bfbfbf" points="718.5,-235.5 718.5,-254.5 823.5,-254.5 823.5,-235.5 718.5,-235.5"/>
<text text-anchor="middle" x="771" y="-242.5" font-family="Helvetica,sans-Serif" font-size="10.00" fill="#000000">odp/api/abi/time.h</text>
</g>
<!-- Node24&#45;&gt;Node25 -->
<g id="edge40" class="edge">
<title>Node24&#45;&gt;Node25</title>
<path fill="none" stroke="#191970" d="M744.8438,-296.8906C749.2766,-288.0965 755.9631,-274.8312 761.4659,-263.9145"/>
<polygon fill="#191970" stroke="#191970" points="764.7122,-265.25 766.088,-254.7449 758.4614,-262.0992 764.7122,-265.25"/>
</g>
<!-- Node26 -->
<g id="node27" class="node">
<title>Node26</title>
<g id="a_node27"><a xlink:href="api_2spec_2time_8h.html" target="_top" xlink:title="ODP time. ">
<polygon fill="#ffffff" stroke="#000000" points="604.5,-56.5 604.5,-75.5 717.5,-75.5 717.5,-56.5 604.5,-56.5"/>
<text text-anchor="middle" x="661" y="-63.5" font-family="Helvetica,sans-Serif" font-size="10.00" fill="#000000">odp/api/spec/time.h</text>
</a>
</g>
</g>
<!-- Node24&#45;&gt;Node26 -->
<g id="edge41" class="edge">
<title>Node24&#45;&gt;Node26</title>
<path fill="none" stroke="#191970" d="M733.2185,-296.6421C726.5378,-286.5607 716.4255,-270.258 710,-255 685.0706,-195.8022 670.1997,-120.6879 664.1555,-85.6545"/>
<polygon fill="#191970" stroke="#191970" points="667.6023,-85.0456 662.5017,-75.7594 660.6981,-86.1996 667.6023,-85.0456"/>
</g>
<!-- Node26&#45;&gt;Node1 -->
<g id="edge42" class="edge">
<title>Node26&#45;&gt;Node1</title>
<path fill="none" stroke="#191970" d="M604.1864,-59.2451C518.021,-49.0004 354.4349,-29.5506 260.6979,-18.4057"/>
<polygon fill="#191970" stroke="#191970" points="261.0799,-14.9266 250.7366,-17.2213 260.2534,-21.8776 261.0799,-14.9266"/>
</g>
<!-- Node26&#45;&gt;Node4 -->
<g id="edge43" class="edge">
<title>Node26&#45;&gt;Node4</title>
<path fill="none" stroke="#191970" d="M690.224,-56.3733C718.4925,-47.0613 761.4965,-32.8953 792.5344,-22.671"/>
<polygon fill="#191970" stroke="#191970" points="793.7544,-25.9542 802.1573,-19.5011 791.5643,-19.3056 793.7544,-25.9542"/>
</g>
<!-- Node27&#45;&gt;Node1 -->
<g id="edge47" class="edge">
<title>Node27&#45;&gt;Node1</title>
<path fill="none" stroke="#191970" d="M268.2752,-298.3906C206.0617,-285.8191 114,-255.1167 114,-183.5 114,-183.5 114,-183.5 114,-122 114,-90.7875 120.4364,-81.802 138,-56 145.8422,-44.4793 157.2082,-33.9817 167.3151,-25.9331"/>
<polygon fill="#191970" stroke="#191970" points="169.5642,-28.6198 175.4038,-19.7796 165.3259,-23.0487 169.5642,-28.6198"/>
</g>
<!-- Node27&#45;&gt;Node2 -->
<g id="edge57" class="edge">
<title>Node27&#45;&gt;Node2</title>
<path fill="none" stroke="#191970" d="M303.2359,-291.2977C290.6042,-282.0495 274.4947,-270.2551 261.6969,-260.8853"/>
<polygon fill="#191970" stroke="#191970" points="263.5857,-257.9303 253.4495,-254.8469 259.4505,-263.5784 263.5857,-257.9303"/>
</g>
<!-- Node27&#45;&gt;Node4 -->
<g id="edge58" class="edge">
<title>Node27&#45;&gt;Node4</title>
<path fill="none" stroke="#191970" d="M374.0559,-291.4189C402.0064,-282.2744 437.1149,-269.571 467,-255 568.1665,-205.6746 583.4055,-175.9836 676,-112 721.8731,-80.3013 776.5744,-44.8367 807.1936,-25.1907"/>
<polygon fill="#191970" stroke="#191970" points="809.3532,-27.9639 815.8865,-19.6232 805.5778,-22.0692 809.3532,-27.9639"/>
</g>
<!-- Node28 -->
<g id="node29" class="node">
<title>Node28</title>
<g id="a_node29"><a xlink:href="api_2schedule__types_8h.html" target="_top" xlink:title="ODP schedule. ">
<polygon fill="#ffffff" stroke="#000000" points="318,-235.5 318,-254.5 458,-254.5 458,-235.5 318,-235.5"/>
<text text-anchor="middle" x="388" y="-242.5" font-family="Helvetica,sans-Serif" font-size="10.00" fill="#000000">odp/api/schedule_types.h</text>
</a>
</g>
</g>
<!-- Node27&#45;&gt;Node28 -->
<g id="edge48" class="edge">
<title>Node27&#45;&gt;Node28</title>
<path fill="none" stroke="#191970" d="M339.8202,-291.2977C349.0742,-282.4052 360.7781,-271.1586 370.333,-261.9769"/>
<polygon fill="#191970" stroke="#191970" points="372.9674,-264.2995 377.7528,-254.8469 368.1172,-259.2521 372.9674,-264.2995"/>
</g>
<!-- Node29 -->
<g id="node30" class="node">
<title>Node29</title>
<polygon fill="#ffffff" stroke="#bfbfbf" points="286.5,-168.5 286.5,-198.5 403.5,-198.5 403.5,-168.5 286.5,-168.5"/>
<text text-anchor="start" x="294.5" y="-186.5" font-family="Helvetica,sans-Serif" font-size="10.00" fill="#000000">odp/api/abi/schedule</text>
<text text-anchor="middle" x="345" y="-175.5" font-family="Helvetica,sans-Serif" font-size="10.00" fill="#000000">_types.h</text>
</g>
<!-- Node28&#45;&gt;Node29 -->
<g id="edge49" class="edge">
<title>Node28&#45;&gt;Node29</title>
<path fill="none" stroke="#191970" d="M381.2813,-235.3906C375.9467,-227.761 368.259,-216.7658 361.3321,-206.8588"/>
<polygon fill="#191970" stroke="#191970" points="364.1176,-204.7345 355.519,-198.5446 358.3808,-208.7456 364.1176,-204.7345"/>
</g>
<!-- Node30 -->
<g id="node31" class="node">
<title>Node30</title>
<g id="a_node31"><a xlink:href="api_2spec_2schedule__types_8h.html" target="_top" xlink:title="ODP schedule types. ">
<polygon fill="#ffffff" stroke="#000000" points="421.5,-168.5 421.5,-198.5 546.5,-198.5 546.5,-168.5 421.5,-168.5"/>
<text text-anchor="start" x="429.5" y="-186.5" font-family="Helvetica,sans-Serif" font-size="10.00" fill="#000000">odp/api/spec/schedule</text>
<text text-anchor="middle" x="484" y="-175.5" font-family="Helvetica,sans-Serif" font-size="10.00" fill="#000000">_types.h</text>
</a>
</g>
</g>
<!-- Node28&#45;&gt;Node30 -->
<g id="edge50" class="edge">
<title>Node28&#45;&gt;Node30</title>
<path fill="none" stroke="#191970" d="M403,-235.3906C415.9924,-227.0673 435.2368,-214.7389 451.7078,-204.1872"/>
<polygon fill="#191970" stroke="#191970" points="453.9834,-206.886 460.5158,-198.5446 450.2074,-200.9918 453.9834,-206.886"/>
</g>
<!-- Node30&#45;&gt;Node1 -->
<g id="edge51" class="edge">
<title>Node30&#45;&gt;Node1</title>
<path fill="none" stroke="#191970" d="M429.4248,-168.4215C358.3121,-147.7543 239.4344,-109.3831 209,-76 197.5904,-63.4849 192.9926,-44.5411 191.1602,-30.1543"/>
<polygon fill="#191970" stroke="#191970" points="194.6093,-29.4398 190.2062,-19.8033 187.6388,-30.0823 194.6093,-29.4398"/>
</g>
<!-- Node30&#45;&gt;Node4 -->
<g id="edge56" class="edge">
<title>Node30&#45;&gt;Node4</title>
<path fill="none" stroke="#191970" d="M504.0815,-168.4542C516.3314,-158.7642 531.9056,-145.4936 544,-132 571.3167,-101.5228 561.8111,-78.4985 596,-56 623.2479,-38.0691 705.39,-24.8366 764.8905,-17.2799"/>
<polygon fill="#191970" stroke="#191970" points="765.4832,-20.7332 774.9747,-16.0255 764.6191,-13.7867 765.4832,-20.7332"/>
</g>
<!-- Node31 -->
<g id="node32" class="node">
<title>Node31</title>
<g id="a_node32"><a xlink:href="support_8h.html" target="_top" xlink:title="ODP support API &#45; platform specific header. ">
<polygon fill="#ffffff" stroke="#000000" points="433.5,-112.5 433.5,-131.5 534.5,-131.5 534.5,-112.5 433.5,-112.5"/>
<text text-anchor="middle" x="484" y="-119.5" font-family="Helvetica,sans-Serif" font-size="10.00" fill="#000000">odp/api/support.h</text>
</a>
</g>
</g>
<!-- Node30&#45;&gt;Node31 -->
<g id="edge52" class="edge">
<title>Node30&#45;&gt;Node31</title>
<path fill="none" stroke="#191970" d="M484,-168.2977C484,-160.3834 484,-150.6043 484,-142.0759"/>
<polygon fill="#191970" stroke="#191970" points="487.5001,-141.8469 484,-131.8469 480.5001,-141.847 487.5001,-141.8469"/>
</g>
<!-- Node32 -->
<g id="node33" class="node">
<title>Node32</title>
<g id="a_node33"><a xlink:href="spec_2support_8h.html" target="_top" xlink:title="ODP support API. ">
<polygon fill="#ffffff" stroke="#000000" points="420.5,-56.5 420.5,-75.5 547.5,-75.5 547.5,-56.5 420.5,-56.5"/>
<text text-anchor="middle" x="484" y="-63.5" font-family="Helvetica,sans-Serif" font-size="10.00" fill="#000000">odp/api/spec/support.h</text>
</a>
</g>
</g>
<!-- Node31&#45;&gt;Node32 -->
<g id="edge53" class="edge">
<title>Node31&#45;&gt;Node32</title>
<path fill="none" stroke="#191970" d="M484,-112.2455C484,-104.9382 484,-94.6944 484,-85.7046"/>
<polygon fill="#191970" stroke="#191970" points="487.5001,-85.6426 484,-75.6427 480.5001,-85.6427 487.5001,-85.6426"/>
</g>
<!-- Node32&#45;&gt;Node1 -->
<g id="edge54" class="edge">
<title>Node32&#45;&gt;Node1</title>
<path fill="none" stroke="#191970" d="M433.7937,-56.4369C382.9493,-46.7522 304.294,-31.7703 250.1487,-21.4569"/>
<polygon fill="#191970" stroke="#191970" points="250.4776,-17.9567 239.9993,-19.5237 249.1677,-24.8331 250.4776,-17.9567"/>
</g>
<!-- Node32&#45;&gt;Node4 -->
<g id="edge55" class="edge">
<title>Node32&#45;&gt;Node4</title>
<path fill="none" stroke="#191970" d="M543.2572,-56.4369C604.8098,-46.5033 700.8961,-30.9966 764.8777,-20.671"/>
<polygon fill="#191970" stroke="#191970" points="765.5459,-24.1086 774.8605,-19.06 764.4306,-17.198 765.5459,-24.1086"/>
</g>
</g>
</svg>
