<?xml version="1.0" encoding="UTF-8" standalone="no"?>
<!DOCTYPE svg PUBLIC "-//W3C//DTD SVG 1.1//EN"
 "http://www.w3.org/Graphics/SVG/1.1/DTD/svg11.dtd">
<!-- Generated by graphviz version 2.40.1 (20161225.0304)
 -->
<!-- Title: support.h Pages: 1 -->
<svg width="597pt" height="924pt"
 viewBox="0.00 0.00 596.50 924.00" xmlns="http://www.w3.org/2000/svg" xmlns:xlink="http://www.w3.org/1999/xlink">
<g id="graph0" class="graph" transform="scale(1 1) rotate(0) translate(4 920)">
<title>support.h</title>
<polygon fill="#ffffff" stroke="transparent" points="-4,4 -4,-920 592.5,-920 592.5,4 -4,4"/>
<!-- Node3 -->
<g id="node1" class="node">
<title>Node3</title>
<polygon fill="#bfbfbf" stroke="#000000" points="233,-896.5 233,-915.5 295,-915.5 295,-896.5 233,-896.5"/>
<text text-anchor="middle" x="264" y="-903.5" font-family="Helvetica,sans-Serif" font-size="10.00" fill="#000000">support.h</text>
</g>
<!-- Node4 -->
<g id="node2" class="node">
<title>Node4</title>
<g id="a_node2"><a xlink:href="support_8h.html" target="_top" xlink:title="ODP support API &#45; platform specific header. ">
<polygon fill="#ffffff" stroke="#000000" points="233,-840.5 233,-859.5 295,-859.5 295,-840.5 233,-840.5"/>
<text text-anchor="middle" x="264" y="-847.5" font-family="Helvetica,sans-Serif" font-size="10.00" fill="#000000">support.h</text>
</a>
</g>
</g>
<!-- Node3&#45;&gt;Node4 -->
<g id="edge1" class="edge">
<title>Node3&#45;&gt;Node4</title>
<path fill="none" stroke="#191970" d="M264,-886.1575C264,-877.155 264,-866.9199 264,-859.6427"/>
<polygon fill="#191970" stroke="#191970" points="260.5001,-886.2455 264,-896.2455 267.5001,-886.2456 260.5001,-886.2455"/>
</g>
<!-- Node5 -->
<g id="node3" class="node">
<title>Node5</title>
<g id="a_node3"><a xlink:href="api_2spec_2classification_8h.html" target="_top" xlink:title="ODP classification descriptor. ">
<polygon fill="#ffffff" stroke="#000000" points="28.5,-280.5 28.5,-299.5 117.5,-299.5 117.5,-280.5 28.5,-280.5"/>
<text text-anchor="middle" x="73" y="-287.5" font-family="Helvetica,sans-Serif" font-size="10.00" fill="#000000">classification.h</text>
</a>
</g>
</g>
<!-- Node4&#45;&gt;Node5 -->
<g id="edge2" class="edge">
<title>Node4&#45;&gt;Node5</title>
<path fill="none" stroke="#191970" d="M223.077,-840.871C174.7932,-827.4015 101,-797.1415 101,-738 101,-738 101,-738 101,-402 101,-363.1168 84.9202,-318.8466 77.1315,-299.6839"/>
<polygon fill="#191970" stroke="#191970" points="222.3939,-844.3109 232.9573,-843.4948 224.1906,-837.5454 222.3939,-844.3109"/>
</g>
<!-- Node7 -->
<g id="node5" class="node">
<title>Node7</title>
<g id="a_node5"><a xlink:href="api_2spec_2ipsec_8h.html" target="_top" xlink:title="ODP IPSEC API. ">
<polygon fill="#ffffff" stroke="#000000" points="260.5,-168.5 260.5,-187.5 311.5,-187.5 311.5,-168.5 260.5,-168.5"/>
<text text-anchor="middle" x="286" y="-175.5" font-family="Helvetica,sans-Serif" font-size="10.00" fill="#000000">ipsec.h</text>
</a>
</g>
</g>
<!-- Node4&#45;&gt;Node7 -->
<g id="edge16" class="edge">
<title>Node4&#45;&gt;Node7</title>
<path fill="none" stroke="#191970" d="M237.5121,-834.9701C208.4882,-816.3084 166,-781.5518 166,-738 166,-738 166,-738 166,-514 166,-457.7115 165.566,-436.5274 200,-392 219.4925,-366.7938 241.0561,-380.0138 262,-356 279.6853,-335.7224 276.604,-325.5628 285,-300 295.7175,-267.3689 303.715,-258.0209 299,-224 297.2228,-211.1763 292.7841,-196.8999 289.5876,-187.7033"/>
<polygon fill="#191970" stroke="#191970" points="235.6797,-837.9521 246.0253,-840.2369 239.3626,-831.9992 235.6797,-837.9521"/>
</g>
<!-- Node9 -->
<g id="node7" class="node">
<title>Node9</title>
<g id="a_node7"><a xlink:href="odp__api_8h.html" target="_top" xlink:title="The OpenDataPlane API. ">
<polygon fill="#ffffff" stroke="#000000" points="254,-56.5 254,-75.5 318,-75.5 318,-56.5 254,-56.5"/>
<text text-anchor="middle" x="286" y="-63.5" font-family="Helvetica,sans-Serif" font-size="10.00" fill="#000000">odp_api.h</text>
</a>
</g>
</g>
<!-- Node4&#45;&gt;Node9 -->
<g id="edge40" class="edge">
<title>Node4&#45;&gt;Node9</title>
<path fill="none" stroke="#191970" d="M222.9928,-841.5159C148.8242,-824.9832 0,-785.848 0,-738 0,-738 0,-738 0,-178 0,-124.0091 178.9518,-85.3545 253.7481,-71.556"/>
<polygon fill="#191970" stroke="#191970" points="222.4219,-844.9738 232.9395,-843.6972 223.9214,-838.1363 222.4219,-844.9738"/>
</g>
<!-- Node11 -->
<g id="node9" class="node">
<title>Node11</title>
<g id="a_node9"><a xlink:href="api_2spec_2comp_8h.html" target="_top" xlink:title="ODP Compression. ">
<polygon fill="#ffffff" stroke="#000000" points="532.5,-728.5 532.5,-747.5 585.5,-747.5 585.5,-728.5 532.5,-728.5"/>
<text text-anchor="middle" x="559" y="-735.5" font-family="Helvetica,sans-Serif" font-size="10.00" fill="#000000">comp.h</text>
</a>
</g>
</g>
<!-- Node4&#45;&gt;Node11 -->
<g id="edge9" class="edge">
<title>Node4&#45;&gt;Node11</title>
<path fill="none" stroke="#191970" d="M305.237,-845.1761C363.7243,-837.7964 467.3067,-822.5855 500,-804 524.3173,-790.1761 543.879,-762.6495 553.1561,-747.8908"/>
<polygon fill="#191970" stroke="#191970" points="304.7077,-841.7148 295.2148,-846.4197 305.5697,-848.6615 304.7077,-841.7148"/>
</g>
<!-- Node13 -->
<g id="node11" class="node">
<title>Node13</title>
<g id="a_node11"><a xlink:href="api_2spec_2crypto_8h.html" target="_top" xlink:title="ODP crypto. ">
<polygon fill="#ffffff" stroke="#000000" points="476,-616.5 476,-635.5 532,-635.5 532,-616.5 476,-616.5"/>
<text text-anchor="middle" x="504" y="-623.5" font-family="Helvetica,sans-Serif" font-size="10.00" fill="#000000">crypto.h</text>
</a>
</g>
</g>
<!-- Node4&#45;&gt;Node13 -->
<g id="edge12" class="edge">
<title>Node4&#45;&gt;Node13</title>
<path fill="none" stroke="#191970" d="M304.5833,-837.8204C326.1332,-830.1755 352.3538,-818.9165 373,-804 438.9355,-756.3629 485.504,-665.554 499.5641,-635.7456"/>
<polygon fill="#191970" stroke="#191970" points="303.3786,-834.5333 295.0474,-841.0787 305.642,-841.1573 303.3786,-834.5333"/>
</g>
<!-- Node15 -->
<g id="node13" class="node">
<title>Node15</title>
<g id="a_node13"><a xlink:href="api_2spec_2schedule__types_8h.html" target="_top" xlink:title="ODP schedule types. ">
<polygon fill="#ffffff" stroke="#000000" points="262.5,-784.5 262.5,-803.5 363.5,-803.5 363.5,-784.5 262.5,-784.5"/>
<text text-anchor="middle" x="313" y="-791.5" font-family="Helvetica,sans-Serif" font-size="10.00" fill="#000000">schedule_types.h</text>
</a>
</g>
</g>
<!-- Node4&#45;&gt;Node15 -->
<g id="edge17" class="edge">
<title>Node4&#45;&gt;Node15</title>
<path fill="none" stroke="#191970" d="M279.3122,-832.5004C287.6447,-822.9775 297.6353,-811.5596 304.5627,-803.6427"/>
<polygon fill="#191970" stroke="#191970" points="276.4862,-830.415 272.5351,-840.2455 281.7543,-835.0245 276.4862,-830.415"/>
</g>
<!-- Node6 -->
<g id="node4" class="node">
<title>Node6</title>
<g id="a_node4"><a xlink:href="api_2classification_8h.html" target="_top" xlink:title="ODP classification descriptor. ">
<polygon fill="#ffffff" stroke="#000000" points="28.5,-224.5 28.5,-243.5 117.5,-243.5 117.5,-224.5 28.5,-224.5"/>
<text text-anchor="middle" x="73" y="-231.5" font-family="Helvetica,sans-Serif" font-size="10.00" fill="#000000">classification.h</text>
</a>
</g>
</g>
<!-- Node5&#45;&gt;Node6 -->
<g id="edge3" class="edge">
<title>Node5&#45;&gt;Node6</title>
<path fill="none" stroke="#191970" d="M73,-270.1575C73,-261.155 73,-250.9199 73,-243.6427"/>
<polygon fill="#191970" stroke="#191970" points="69.5001,-270.2455 73,-280.2455 76.5001,-270.2456 69.5001,-270.2455"/>
</g>
<!-- Node6&#45;&gt;Node7 -->
<g id="edge4" class="edge">
<title>Node6&#45;&gt;Node7</title>
<path fill="none" stroke="#191970" d="M119.3277,-221.8199C162.5136,-210.4659 225.3472,-193.9463 260.2285,-184.7756"/>
<polygon fill="#191970" stroke="#191970" points="118.3974,-218.4455 109.616,-224.3733 120.1773,-225.2155 118.3974,-218.4455"/>
</g>
<!-- Node6&#45;&gt;Node9 -->
<g id="edge8" class="edge">
<title>Node6&#45;&gt;Node9</title>
<path fill="none" stroke="#191970" d="M77.1654,-214.6748C83.9694,-187.753 100.0382,-139.2123 132,-112 150.3778,-96.3531 214.2456,-80.8467 253.7281,-72.4365"/>
<polygon fill="#191970" stroke="#191970" points="73.7468,-213.9231 74.8634,-224.459 80.5607,-215.5264 73.7468,-213.9231"/>
</g>
<!-- Node8 -->
<g id="node6" class="node">
<title>Node8</title>
<g id="a_node6"><a xlink:href="api_2ipsec_8h.html" target="_top" xlink:title="ODP IPSEC API &#45; platform specific header. ">
<polygon fill="#ffffff" stroke="#000000" points="260.5,-112.5 260.5,-131.5 311.5,-131.5 311.5,-112.5 260.5,-112.5"/>
<text text-anchor="middle" x="286" y="-119.5" font-family="Helvetica,sans-Serif" font-size="10.00" fill="#000000">ipsec.h</text>
</a>
</g>
</g>
<!-- Node7&#45;&gt;Node8 -->
<g id="edge5" class="edge">
<title>Node7&#45;&gt;Node8</title>
<path fill="none" stroke="#191970" d="M286,-158.1575C286,-149.155 286,-138.9199 286,-131.6427"/>
<polygon fill="#191970" stroke="#191970" points="282.5001,-158.2455 286,-168.2455 289.5001,-158.2456 282.5001,-158.2455"/>
</g>
<!-- Node8&#45;&gt;Node9 -->
<g id="edge6" class="edge">
<title>Node8&#45;&gt;Node9</title>
<path fill="none" stroke="#191970" d="M286,-102.1575C286,-93.155 286,-82.9199 286,-75.6427"/>
<polygon fill="#191970" stroke="#191970" points="282.5001,-102.2455 286,-112.2455 289.5001,-102.2456 282.5001,-102.2455"/>
</g>
<!-- Node10 -->
<g id="node8" class="node">
<title>Node10</title>
<g id="a_node8"><a xlink:href="odp_8h.html" target="_top" xlink:title="WARNING: THIS FILE IS DEPRECATED AND WILL BE REMOVED!!! ODP APPLICATIONS SHOULD NOW INCLUDE odp_api...">
<polygon fill="#ffffff" stroke="#000000" points="264,-.5 264,-19.5 308,-19.5 308,-.5 264,-.5"/>
<text text-anchor="middle" x="286" y="-7.5" font-family="Helvetica,sans-Serif" font-size="10.00" fill="#000000">odp.h</text>
</a>
</g>
</g>
<!-- Node9&#45;&gt;Node10 -->
<g id="edge7" class="edge">
<title>Node9&#45;&gt;Node10</title>
<path fill="none" stroke="#191970" d="M286,-46.1575C286,-37.155 286,-26.9199 286,-19.6427"/>
<polygon fill="#191970" stroke="#191970" points="282.5001,-46.2455 286,-56.2455 289.5001,-46.2456 282.5001,-46.2455"/>
</g>
<!-- Node12 -->
<g id="node10" class="node">
<title>Node12</title>
<g id="a_node10"><a xlink:href="api_2comp_8h.html" target="_top" xlink:title="ODP crypto. ">
<polygon fill="#ffffff" stroke="#000000" points="535.5,-672.5 535.5,-691.5 588.5,-691.5 588.5,-672.5 535.5,-672.5"/>
<text text-anchor="middle" x="562" y="-679.5" font-family="Helvetica,sans-Serif" font-size="10.00" fill="#000000">comp.h</text>
</a>
</g>
</g>
<!-- Node11&#45;&gt;Node12 -->
<g id="edge10" class="edge">
<title>Node11&#45;&gt;Node12</title>
<path fill="none" stroke="#191970" d="M560.063,-718.1575C560.5453,-709.155 561.0936,-698.9199 561.4834,-691.6427"/>
<polygon fill="#191970" stroke="#191970" points="556.5626,-718.0726 559.5226,-728.2455 563.5526,-718.4471 556.5626,-718.0726"/>
</g>
<!-- Node12&#45;&gt;Node9 -->
<g id="edge11" class="edge">
<title>Node12&#45;&gt;Node9</title>
<path fill="none" stroke="#191970" d="M562.5672,-662.1971C563.1585,-639.8164 564,-602.2936 564,-570 564,-570 564,-570 564,-178 564,-129.1111 520.2215,-132.8466 476,-112 423.8118,-87.3978 357.15,-75.1853 318.2513,-69.7566"/>
<polygon fill="#191970" stroke="#191970" points="559.0626,-662.3203 562.2866,-672.4127 566.0599,-662.5126 559.0626,-662.3203"/>
</g>
<!-- Node14 -->
<g id="node12" class="node">
<title>Node14</title>
<g id="a_node12"><a xlink:href="api_2crypto_8h.html" target="_top" xlink:title="ODP crypto. ">
<polygon fill="#ffffff" stroke="#000000" points="394,-392.5 394,-411.5 450,-411.5 450,-392.5 394,-392.5"/>
<text text-anchor="middle" x="422" y="-399.5" font-family="Helvetica,sans-Serif" font-size="10.00" fill="#000000">crypto.h</text>
</a>
</g>
</g>
<!-- Node13&#45;&gt;Node14 -->
<g id="edge13" class="edge">
<title>Node13&#45;&gt;Node14</title>
<path fill="none" stroke="#191970" d="M508.7141,-606.5271C513.7495,-581.8463 519.4468,-538.3786 507,-504 492.4043,-463.6858 454.147,-428.1081 434.3164,-411.6657"/>
<polygon fill="#191970" stroke="#191970" points="505.2628,-605.9241 506.5146,-616.4447 512.0968,-607.4397 505.2628,-605.9241"/>
</g>
<!-- Node14&#45;&gt;Node7 -->
<g id="edge14" class="edge">
<title>Node14&#45;&gt;Node7</title>
<path fill="none" stroke="#191970" d="M415.8064,-382.6875C404.2166,-348.4372 376.8629,-275.792 338,-224 327.1488,-209.5387 311.161,-196.2314 299.7816,-187.6907"/>
<polygon fill="#191970" stroke="#191970" points="412.5494,-383.9864 419.01,-392.3835 419.196,-381.7903 412.5494,-383.9864"/>
</g>
<!-- Node14&#45;&gt;Node9 -->
<g id="edge15" class="edge">
<title>Node14&#45;&gt;Node9</title>
<path fill="none" stroke="#191970" d="M426.4725,-382.6222C431.2061,-360.3866 438,-322.7658 438,-290 438,-290 438,-290 438,-178 438,-146.7875 436.1121,-134.029 414,-112 388.154,-86.2512 346.8833,-74.8274 318.22,-69.8163"/>
<polygon fill="#191970" stroke="#191970" points="423.0351,-381.9572 424.2924,-392.4772 429.8698,-383.4693 423.0351,-381.9572"/>
</g>
<!-- Node16 -->
<g id="node14" class="node">
<title>Node16</title>
<g id="a_node14"><a xlink:href="api_2schedule__types_8h.html" target="_top" xlink:title="ODP schedule. ">
<polygon fill="#ffffff" stroke="#000000" points="311.5,-728.5 311.5,-747.5 412.5,-747.5 412.5,-728.5 311.5,-728.5"/>
<text text-anchor="middle" x="362" y="-735.5" font-family="Helvetica,sans-Serif" font-size="10.00" fill="#000000">schedule_types.h</text>
</a>
</g>
</g>
<!-- Node15&#45;&gt;Node16 -->
<g id="edge18" class="edge">
<title>Node15&#45;&gt;Node16</title>
<path fill="none" stroke="#191970" d="M328.3122,-776.5004C336.6447,-766.9775 346.6353,-755.5596 353.5627,-747.6427"/>
<polygon fill="#191970" stroke="#191970" points="325.4862,-774.415 321.5351,-784.2455 330.7543,-779.0245 325.4862,-774.415"/>
</g>
<!-- Node17 -->
<g id="node15" class="node">
<title>Node17</title>
<g id="a_node15"><a xlink:href="queue__types_8h.html" target="_top" xlink:title="ODP queue types. ">
<polygon fill="#ffffff" stroke="#000000" points="318,-672.5 318,-691.5 406,-691.5 406,-672.5 318,-672.5"/>
<text text-anchor="middle" x="362" y="-679.5" font-family="Helvetica,sans-Serif" font-size="10.00" fill="#000000">queue_types.h</text>
</a>
</g>
</g>
<!-- Node16&#45;&gt;Node17 -->
<g id="edge19" class="edge">
<title>Node16&#45;&gt;Node17</title>
<path fill="none" stroke="#191970" d="M362,-718.1575C362,-709.155 362,-698.9199 362,-691.6427"/>
<polygon fill="#191970" stroke="#191970" points="358.5001,-718.2455 362,-728.2455 365.5001,-718.2456 358.5001,-718.2455"/>
</g>
<!-- Node26 -->
<g id="node24" class="node">
<title>Node26</title>
<g id="a_node24"><a xlink:href="api_2spec_2schedule_8h.html" target="_top" xlink:title="ODP schedule. ">
<polygon fill="#ffffff" stroke="#000000" points="428.5,-504.5 428.5,-523.5 497.5,-523.5 497.5,-504.5 428.5,-504.5"/>
<text text-anchor="middle" x="463" y="-511.5" font-family="Helvetica,sans-Serif" font-size="10.00" fill="#000000">schedule.h</text>
</a>
</g>
</g>
<!-- Node16&#45;&gt;Node26 -->
<g id="edge39" class="edge">
<title>Node16&#45;&gt;Node26</title>
<path fill="none" stroke="#191970" d="M386.0067,-722.1189C396.2967,-714.1909 407.6217,-703.7766 415,-692 450.6856,-635.0416 460.1243,-551.7521 462.3642,-523.659"/>
<polygon fill="#191970" stroke="#191970" points="383.7306,-719.447 377.7159,-728.169 387.857,-725.1015 383.7306,-719.447"/>
</g>
<!-- Node18 -->
<g id="node16" class="node">
<title>Node18</title>
<g id="a_node16"><a xlink:href="api_2spec_2queue_8h.html" target="_top" xlink:title="ODP queue. ">
<polygon fill="#ffffff" stroke="#000000" points="334,-616.5 334,-635.5 390,-635.5 390,-616.5 334,-616.5"/>
<text text-anchor="middle" x="362" y="-623.5" font-family="Helvetica,sans-Serif" font-size="10.00" fill="#000000">queue.h</text>
</a>
</g>
</g>
<!-- Node17&#45;&gt;Node18 -->
<g id="edge20" class="edge">
<title>Node17&#45;&gt;Node18</title>
<path fill="none" stroke="#191970" d="M362,-662.1575C362,-653.155 362,-642.9199 362,-635.6427"/>
<polygon fill="#191970" stroke="#191970" points="358.5001,-662.2455 362,-672.2455 365.5001,-662.2456 358.5001,-662.2455"/>
</g>
<!-- Node19 -->
<g id="node17" class="node">
<title>Node19</title>
<g id="a_node17"><a xlink:href="api_2queue_8h.html" target="_top" xlink:title="ODP queue. ">
<polygon fill="#ffffff" stroke="#000000" points="334,-560.5 334,-579.5 390,-579.5 390,-560.5 334,-560.5"/>
<text text-anchor="middle" x="362" y="-567.5" font-family="Helvetica,sans-Serif" font-size="10.00" fill="#000000">queue.h</text>
</a>
</g>
</g>
<!-- Node18&#45;&gt;Node19 -->
<g id="edge21" class="edge">
<title>Node18&#45;&gt;Node19</title>
<path fill="none" stroke="#191970" d="M362,-606.1575C362,-597.155 362,-586.9199 362,-579.6427"/>
<polygon fill="#191970" stroke="#191970" points="358.5001,-606.2455 362,-616.2455 365.5001,-606.2456 358.5001,-606.2455"/>
</g>
<!-- Node19&#45;&gt;Node9 -->
<g id="edge38" class="edge">
<title>Node19&#45;&gt;Node9</title>
<path fill="none" stroke="#191970" d="M362,-550.1952C362,-527.8128 362,-490.2884 362,-458 362,-458 362,-458 362,-402 362,-325.4471 400,-310.5529 400,-234 400,-234 400,-234 400,-178 400,-127.0875 341.4271,-91.6175 308.251,-75.6105"/>
<polygon fill="#191970" stroke="#191970" points="358.5001,-550.4116 362,-560.4116 365.5001,-550.4117 358.5001,-550.4116"/>
</g>
<!-- Node19&#45;&gt;Node14 -->
<g id="edge22" class="edge">
<title>Node19&#45;&gt;Node14</title>
<path fill="none" stroke="#191970" d="M368.8833,-550.7267C381.7069,-514.8207 408.8278,-438.8822 418.49,-411.8279"/>
<polygon fill="#191970" stroke="#191970" points="365.4651,-549.8916 365.3978,-560.4862 372.0573,-552.246 365.4651,-549.8916"/>
</g>
<!-- Node20 -->
<g id="node18" class="node">
<title>Node20</title>
<g id="a_node18"><a xlink:href="api_2spec_2packet__io_8h.html" target="_top" xlink:title="ODP Packet IO. ">
<polygon fill="#ffffff" stroke="#000000" points="208.5,-392.5 208.5,-411.5 281.5,-411.5 281.5,-392.5 208.5,-392.5"/>
<text text-anchor="middle" x="245" y="-399.5" font-family="Helvetica,sans-Serif" font-size="10.00" fill="#000000">packet_io.h</text>
</a>
</g>
</g>
<!-- Node19&#45;&gt;Node20 -->
<g id="edge23" class="edge">
<title>Node19&#45;&gt;Node20</title>
<path fill="none" stroke="#191970" d="M356.1884,-550.666C347.8527,-525.1922 330.6263,-479.8918 305,-448 292.832,-432.8569 274.6795,-419.8485 261.529,-411.5678"/>
<polygon fill="#191970" stroke="#191970" points="352.8717,-551.7866 359.215,-560.2726 359.5482,-549.6831 352.8717,-551.7866"/>
</g>
<!-- Node24 -->
<g id="node22" class="node">
<title>Node24</title>
<g id="a_node22"><a xlink:href="spec_2packet__io__stats_8h.html" target="_top" xlink:title="ODP Packet IO statistics. ">
<polygon fill="#ffffff" stroke="#000000" points="194,-504.5 194,-523.5 296,-523.5 296,-504.5 194,-504.5"/>
<text text-anchor="middle" x="245" y="-511.5" font-family="Helvetica,sans-Serif" font-size="10.00" fill="#000000">packet_io_stats.h</text>
</a>
</g>
</g>
<!-- Node19&#45;&gt;Node24 -->
<g id="edge32" class="edge">
<title>Node19&#45;&gt;Node24</title>
<path fill="none" stroke="#191970" d="M332.6958,-555.9741C311.512,-545.8348 283.4597,-532.408 264.8506,-523.5011"/>
<polygon fill="#191970" stroke="#191970" points="331.3559,-559.2129 341.887,-560.3733 334.378,-552.8989 331.3559,-559.2129"/>
</g>
<!-- Node19&#45;&gt;Node26 -->
<g id="edge35" class="edge">
<title>Node19&#45;&gt;Node26</title>
<path fill="none" stroke="#191970" d="M388.4719,-555.3225C406.5125,-545.3198 429.8877,-532.3593 445.6087,-523.6427"/>
<polygon fill="#191970" stroke="#191970" points="386.6413,-552.3354 379.5929,-560.2455 390.0357,-558.4574 386.6413,-552.3354"/>
</g>
<!-- Node21 -->
<g id="node19" class="node">
<title>Node21</title>
<g id="a_node19"><a xlink:href="api_2packet__io_8h.html" target="_top" xlink:title="ODP Packet IO. ">
<polygon fill="#ffffff" stroke="#000000" points="179.5,-336.5 179.5,-355.5 252.5,-355.5 252.5,-336.5 179.5,-336.5"/>
<text text-anchor="middle" x="216" y="-343.5" font-family="Helvetica,sans-Serif" font-size="10.00" fill="#000000">packet_io.h</text>
</a>
</g>
</g>
<!-- Node20&#45;&gt;Node21 -->
<g id="edge24" class="edge">
<title>Node20&#45;&gt;Node21</title>
<path fill="none" stroke="#191970" d="M235.3353,-383.3372C230.5313,-374.0605 224.9277,-363.2398 220.9935,-355.6427"/>
<polygon fill="#191970" stroke="#191970" points="232.242,-384.9751 239.9486,-392.2455 238.458,-381.7561 232.242,-384.9751"/>
</g>
<!-- Node21&#45;&gt;Node5 -->
<g id="edge25" class="edge">
<title>Node21&#45;&gt;Node5</title>
<path fill="none" stroke="#191970" d="M181.9202,-332.6541C155.8427,-322.4419 120.5185,-308.6086 97.2618,-299.5011"/>
<polygon fill="#191970" stroke="#191970" points="180.8297,-335.9858 191.4174,-336.3733 183.3822,-329.4677 180.8297,-335.9858"/>
</g>
<!-- Node21&#45;&gt;Node7 -->
<g id="edge26" class="edge">
<title>Node21&#45;&gt;Node7</title>
<path fill="none" stroke="#191970" d="M239.6826,-330.2912C249.7021,-322.3981 260.531,-311.9635 267,-300 287.3918,-262.2884 287.5181,-209.0383 286.5976,-187.5459"/>
<polygon fill="#191970" stroke="#191970" points="237.5217,-327.5362 231.5701,-336.3015 241.6888,-333.1608 237.5217,-327.5362"/>
</g>
<!-- Node21&#45;&gt;Node9 -->
<g id="edge31" class="edge">
<title>Node21&#45;&gt;Node9</title>
<path fill="none" stroke="#191970" d="M193.4046,-330.2207C183.4172,-322.2053 172.307,-311.6911 165,-300 148.822,-274.1152 146,-264.5246 146,-234 146,-234 146,-234 146,-178 146,-122.7508 213.3046,-90.273 254.5813,-75.55"/>
<polygon fill="#191970" stroke="#191970" points="191.3483,-333.0542 201.4218,-336.3369 195.5941,-327.4888 191.3483,-333.0542"/>
</g>
<!-- Node22 -->
<g id="node20" class="node">
<title>Node22</title>
<g id="a_node20"><a xlink:href="api_2spec_2traffic__mngr_8h.html" target="_top" xlink:title="Copyright (c) 2015&#45;2018, Linaro Limited All rights reserved. ">
<polygon fill="#ffffff" stroke="#000000" points="174,-280.5 174,-299.5 258,-299.5 258,-280.5 174,-280.5"/>
<text text-anchor="middle" x="216" y="-287.5" font-family="Helvetica,sans-Serif" font-size="10.00" fill="#000000">traffic_mngr.h</text>
</a>
</g>
</g>
<!-- Node21&#45;&gt;Node22 -->
<g id="edge27" class="edge">
<title>Node21&#45;&gt;Node22</title>
<path fill="none" stroke="#191970" d="M216,-326.1575C216,-317.155 216,-306.9199 216,-299.6427"/>
<polygon fill="#191970" stroke="#191970" points="212.5001,-326.2455 216,-336.2455 219.5001,-326.2456 212.5001,-326.2455"/>
</g>
<!-- Node23 -->
<g id="node21" class="node">
<title>Node23</title>
<g id="a_node21"><a xlink:href="api_2traffic__mngr_8h.html" target="_top" xlink:title="ODP Traffic manager. ">
<polygon fill="#ffffff" stroke="#000000" points="174,-224.5 174,-243.5 258,-243.5 258,-224.5 174,-224.5"/>
<text text-anchor="middle" x="216" y="-231.5" font-family="Helvetica,sans-Serif" font-size="10.00" fill="#000000">traffic_mngr.h</text>
</a>
</g>
</g>
<!-- Node22&#45;&gt;Node23 -->
<g id="edge28" class="edge">
<title>Node22&#45;&gt;Node23</title>
<path fill="none" stroke="#191970" d="M216,-270.1575C216,-261.155 216,-250.9199 216,-243.6427"/>
<polygon fill="#191970" stroke="#191970" points="212.5001,-270.2455 216,-280.2455 219.5001,-270.2456 212.5001,-270.2455"/>
</g>
<!-- Node23&#45;&gt;Node7 -->
<g id="edge29" class="edge">
<title>Node23&#45;&gt;Node7</title>
<path fill="none" stroke="#191970" d="M236.09,-217.928C248.3253,-208.1397 263.5507,-195.9595 273.9467,-187.6427"/>
<polygon fill="#191970" stroke="#191970" points="233.8153,-215.2655 228.1931,-224.2455 238.1882,-220.7316 233.8153,-215.2655"/>
</g>
<!-- Node23&#45;&gt;Node9 -->
<g id="edge30" class="edge">
<title>Node23&#45;&gt;Node9</title>
<path fill="none" stroke="#191970" d="M219.5689,-214.4443C224.5753,-189.6771 235.0225,-146.1189 252,-112 258.8131,-98.308 269.733,-84.4428 277.3532,-75.5677"/>
<polygon fill="#191970" stroke="#191970" points="216.106,-213.9181 217.6477,-224.4002 222.9792,-215.2446 216.106,-213.9181"/>
</g>
<!-- Node25 -->
<g id="node23" class="node">
<title>Node25</title>
<g id="a_node23"><a xlink:href="packet__io__stats_8h.html" target="_top" xlink:title="ODP packet IO stats. ">
<polygon fill="#ffffff" stroke="#000000" points="194,-448.5 194,-467.5 296,-467.5 296,-448.5 194,-448.5"/>
<text text-anchor="middle" x="245" y="-455.5" font-family="Helvetica,sans-Serif" font-size="10.00" fill="#000000">packet_io_stats.h</text>
</a>
</g>
</g>
<!-- Node24&#45;&gt;Node25 -->
<g id="edge33" class="edge">
<title>Node24&#45;&gt;Node25</title>
<path fill="none" stroke="#191970" d="M245,-494.1575C245,-485.155 245,-474.9199 245,-467.6427"/>
<polygon fill="#191970" stroke="#191970" points="241.5001,-494.2455 245,-504.2455 248.5001,-494.2456 241.5001,-494.2455"/>
</g>
<!-- Node25&#45;&gt;Node20 -->
<g id="edge34" class="edge">
<title>Node25&#45;&gt;Node20</title>
<path fill="none" stroke="#191970" d="M245,-438.1575C245,-429.155 245,-418.9199 245,-411.6427"/>
<polygon fill="#191970" stroke="#191970" points="241.5001,-438.2455 245,-448.2455 248.5001,-438.2456 241.5001,-438.2455"/>
</g>
<!-- Node27 -->
<g id="node25" class="node">
<title>Node27</title>
<g id="a_node25"><a xlink:href="api_2schedule_8h.html" target="_top" xlink:title="ODP schedule. ">
<polygon fill="#ffffff" stroke="#000000" points="466.5,-336.5 466.5,-355.5 535.5,-355.5 535.5,-336.5 466.5,-336.5"/>
<text text-anchor="middle" x="501" y="-343.5" font-family="Helvetica,sans-Serif" font-size="10.00" fill="#000000">schedule.h</text>
</a>
</g>
</g>
<!-- Node26&#45;&gt;Node27 -->
<g id="edge36" class="edge">
<title>Node26&#45;&gt;Node27</title>
<path fill="none" stroke="#191970" d="M467.3594,-494.7267C475.481,-458.8207 492.6576,-382.8822 498.777,-355.8279"/>
<polygon fill="#191970" stroke="#191970" points="463.9444,-493.9604 465.1519,-504.4862 470.7719,-495.5048 463.9444,-493.9604"/>
</g>
<!-- Node27&#45;&gt;Node9 -->
<g id="edge37" class="edge">
<title>Node27&#45;&gt;Node9</title>
<path fill="none" stroke="#191970" d="M497.6456,-326.5699C494.0954,-304.2865 489,-266.6222 489,-234 489,-234 489,-234 489,-178 489,-144.3717 478.4609,-132.7529 452,-112 431.2334,-95.713 360.1946,-80.0184 318.0756,-71.8412"/>
<polygon fill="#191970" stroke="#191970" points="494.1947,-327.1544 499.2807,-336.4486 501.1007,-326.0113 494.1947,-327.1544"/>
</g>
</g>
</svg>
