<?xml version="1.0" encoding="UTF-8" standalone="no"?>
<!DOCTYPE svg PUBLIC "-//W3C//DTD SVG 1.1//EN"
 "http://www.w3.org/Graphics/SVG/1.1/DTD/svg11.dtd">
<!-- Generated by graphviz version 2.40.1 (20161225.0304)
 -->
<!-- Title: align.h Pages: 1 -->
<svg width="2630pt" height="476pt"
 viewBox="0.00 0.00 2629.50 476.00" xmlns="http://www.w3.org/2000/svg" xmlns:xlink="http://www.w3.org/1999/xlink">
<g id="graph0" class="graph" transform="scale(1 1) rotate(0) translate(4 472)">
<title>align.h</title>
<polygon fill="#ffffff" stroke="transparent" points="-4,4 -4,-472 2625.5,-472 2625.5,4 -4,4"/>
<!-- Node5 -->
<g id="node1" class="node">
<title>Node5</title>
<polygon fill="#bfbfbf" stroke="#000000" points="119.5,-448.5 119.5,-467.5 169.5,-467.5 169.5,-448.5 119.5,-448.5"/>
<text text-anchor="middle" x="144.5" y="-455.5" font-family="Helvetica,sans-Serif" font-size="10.00" fill="#000000">align.h</text>
</g>
<!-- Node6 -->
<g id="node2" class="node">
<title>Node6</title>
<g id="a_node2"><a xlink:href="abi-default_2atomic_8h.html" target="_top" xlink:title="ODP atomic operations. ">
<polygon fill="#ffffff" stroke="#000000" points="0,-280.5 0,-299.5 59,-299.5 59,-280.5 0,-280.5"/>
<text text-anchor="middle" x="29.5" y="-287.5" font-family="Helvetica,sans-Serif" font-size="10.00" fill="#000000">atomic.h</text>
</a>
</g>
</g>
<!-- Node5&#45;&gt;Node6 -->
<g id="edge1" class="edge">
<title>Node5&#45;&gt;Node6</title>
<path fill="none" stroke="#191970" d="M132.2465,-440.0993C108.0784,-404.7928 54.9862,-327.232 36.2274,-299.8279"/>
<polygon fill="#191970" stroke="#191970" points="129.4508,-442.2114 137.9876,-448.4862 135.2271,-438.2573 129.4508,-442.2114"/>
</g>
<!-- Node7 -->
<g id="node3" class="node">
<title>Node7</title>
<g id="a_node3"><a xlink:href="abi-default_2cpumask_8h.html" target="_top" xlink:title="ODP CPU masks and enumeration. ">
<polygon fill="#ffffff" stroke="#000000" points="77.5,-280.5 77.5,-299.5 147.5,-299.5 147.5,-280.5 77.5,-280.5"/>
<text text-anchor="middle" x="112.5" y="-287.5" font-family="Helvetica,sans-Serif" font-size="10.00" fill="#000000">cpumask.h</text>
</a>
</g>
</g>
<!-- Node5&#45;&gt;Node7 -->
<g id="edge2" class="edge">
<title>Node5&#45;&gt;Node7</title>
<path fill="none" stroke="#191970" d="M138.4369,-438.539C136.047,-430.3947 133.4202,-420.7945 131.5,-412 122.4465,-370.5338 116.0317,-320.2296 113.5898,-299.5639"/>
<polygon fill="#191970" stroke="#191970" points="135.1185,-439.6574 141.3629,-448.2164 141.819,-437.6314 135.1185,-439.6574"/>
</g>
<!-- Node8 -->
<g id="node4" class="node">
<title>Node8</title>
<g id="a_node4"><a xlink:href="spec_2std__types_8h.html" target="_top" xlink:title="Standard C language types and definitions for ODP. ">
<polygon fill="#ffffff" stroke="#000000" points="141,-392.5 141,-411.5 214,-411.5 214,-392.5 141,-392.5"/>
<text text-anchor="middle" x="177.5" y="-399.5" font-family="Helvetica,sans-Serif" font-size="10.00" fill="#000000">std_types.h</text>
</a>
</g>
</g>
<!-- Node5&#45;&gt;Node8 -->
<g id="edge3" class="edge">
<title>Node5&#45;&gt;Node8</title>
<path fill="none" stroke="#191970" d="M155.3254,-439.6296C160.8299,-430.2887 167.2937,-419.3197 171.8177,-411.6427"/>
<polygon fill="#191970" stroke="#191970" points="152.3097,-437.8532 150.2482,-448.2455 158.3405,-441.4071 152.3097,-437.8532"/>
</g>
<!-- Node72 -->
<g id="node50" class="node">
<title>Node72</title>
<g id="a_node50"><a xlink:href="time__inlines_8h_source.html" target="_top" xlink:title="time_inlines.h">
<polygon fill="#ffffff" stroke="#000000" points="232.5,-392.5 232.5,-411.5 318.5,-411.5 318.5,-392.5 232.5,-392.5"/>
<text text-anchor="middle" x="275.5" y="-399.5" font-family="Helvetica,sans-Serif" font-size="10.00" fill="#000000">time_inlines.h</text>
</a>
</g>
</g>
<!-- Node5&#45;&gt;Node72 -->
<g id="edge63" class="edge">
<title>Node5&#45;&gt;Node72</title>
<path fill="none" stroke="#191970" d="M176.3534,-444.3833C200.1785,-434.1985 232.1568,-420.5284 253.2742,-411.5011"/>
<polygon fill="#191970" stroke="#191970" points="174.839,-441.2242 167.0197,-448.3733 177.5906,-447.6608 174.839,-441.2242"/>
</g>
<!-- Node9 -->
<g id="node5" class="node">
<title>Node9</title>
<g id="a_node5"><a xlink:href="std__types_8h.html" target="_top" xlink:title="Standard C language types and definitions for ODP. ">
<polygon fill="#ffffff" stroke="#000000" points="1205,-336.5 1205,-355.5 1278,-355.5 1278,-336.5 1205,-336.5"/>
<text text-anchor="middle" x="1241.5" y="-343.5" font-family="Helvetica,sans-Serif" font-size="10.00" fill="#000000">std_types.h</text>
</a>
</g>
</g>
<!-- Node8&#45;&gt;Node9 -->
<g id="edge4" class="edge">
<title>Node8&#45;&gt;Node9</title>
<path fill="none" stroke="#191970" d="M224.2978,-392.1739C439.2009,-365.9929 1048.9463,-350.4624 1204.8645,-346.8251"/>
<polygon fill="#191970" stroke="#191970" points="223.5425,-388.7415 214.0607,-393.4688 224.4209,-395.6862 223.5425,-388.7415"/>
</g>
<!-- Node9&#45;&gt;Node6 -->
<g id="edge5" class="edge">
<title>Node9&#45;&gt;Node6</title>
<path fill="none" stroke="#191970" d="M1194.7126,-345.4876C1004.861,-343.2039 291.5299,-332.5905 68.5,-300 65.4568,-299.5553 62.3076,-298.9681 59.1787,-298.3004"/>
<polygon fill="#191970" stroke="#191970" points="1194.8714,-348.9896 1204.9121,-345.6082 1194.9543,-341.9901 1194.8714,-348.9896"/>
</g>
<!-- Node9&#45;&gt;Node7 -->
<g id="edge8" class="edge">
<title>Node9&#45;&gt;Node7</title>
<path fill="none" stroke="#191970" d="M1194.7402,-345.1455C1014.115,-341.67 361.8257,-327.4545 156.5,-300 153.7047,-299.6262 150.8255,-299.1598 147.9413,-298.6343"/>
<polygon fill="#191970" stroke="#191970" points="1194.9009,-348.6492 1204.9658,-345.3405 1195.0344,-341.6504 1194.9009,-348.6492"/>
</g>
<!-- Node10 -->
<g id="node6" class="node">
<title>Node10</title>
<g id="a_node6"><a xlink:href="abi-default_2barrier_8h.html" target="_top" xlink:title="ODP barrier. ">
<polygon fill="#ffffff" stroke="#000000" points="2128,-280.5 2128,-299.5 2185,-299.5 2185,-280.5 2128,-280.5"/>
<text text-anchor="middle" x="2156.5" y="-287.5" font-family="Helvetica,sans-Serif" font-size="10.00" fill="#000000">barrier.h</text>
</a>
</g>
</g>
<!-- Node9&#45;&gt;Node10 -->
<g id="edge6" class="edge">
<title>Node9&#45;&gt;Node10</title>
<path fill="none" stroke="#191970" d="M1288.7097,-344.8441C1446.8746,-340.7653 1957.2319,-325.8794 2119.5,-300 2122.2598,-299.5598 2125.11,-298.995 2127.9466,-298.3581"/>
<polygon fill="#191970" stroke="#191970" points="1288.2809,-341.3539 1278.3736,-345.1082 1288.4597,-348.3516 1288.2809,-341.3539"/>
</g>
<!-- Node11 -->
<g id="node7" class="node">
<title>Node11</title>
<g id="a_node7"><a xlink:href="abi-default_2byteorder_8h.html" target="_top" xlink:title="ODP byteorder. ">
<polygon fill="#ffffff" stroke="#000000" points="2203.5,-280.5 2203.5,-299.5 2275.5,-299.5 2275.5,-280.5 2203.5,-280.5"/>
<text text-anchor="middle" x="2239.5" y="-287.5" font-family="Helvetica,sans-Serif" font-size="10.00" fill="#000000">byteorder.h</text>
</a>
</g>
</g>
<!-- Node9&#45;&gt;Node11 -->
<g id="edge7" class="edge">
<title>Node9&#45;&gt;Node11</title>
<path fill="none" stroke="#191970" d="M1288.4632,-344.7941C1454.9175,-340.3543 2016.2854,-323.9249 2194.5,-300 2197.3555,-299.6167 2200.2978,-299.1434 2203.246,-298.613"/>
<polygon fill="#191970" stroke="#191970" points="1287.9823,-341.3055 1278.0785,-345.0692 1288.1677,-348.3031 1287.9823,-341.3055"/>
</g>
<!-- Node12 -->
<g id="node8" class="node">
<title>Node12</title>
<g id="a_node8"><a xlink:href="abi-default_2init_8h.html" target="_top" xlink:title="ODP initialization. ">
<polygon fill="#ffffff" stroke="#000000" points="2294,-280.5 2294,-299.5 2335,-299.5 2335,-280.5 2294,-280.5"/>
<text text-anchor="middle" x="2314.5" y="-287.5" font-family="Helvetica,sans-Serif" font-size="10.00" fill="#000000">init.h</text>
</a>
</g>
</g>
<!-- Node9&#45;&gt;Node12 -->
<g id="edge9" class="edge">
<title>Node9&#45;&gt;Node12</title>
<path fill="none" stroke="#191970" d="M1288.2724,-345.658C1464.6449,-344.1013 2089.3167,-336.1051 2284.5,-300 2287.5231,-299.4408 2290.6592,-298.6477 2293.7141,-297.7498"/>
<polygon fill="#191970" stroke="#191970" points="1288.0017,-342.16 1278.032,-345.7455 1288.0616,-349.1598 1288.0017,-342.16"/>
</g>
<!-- Node13 -->
<g id="node9" class="node">
<title>Node13</title>
<g id="a_node9"><a xlink:href="abi-default_2ipsec_8h.html" target="_top" xlink:title="ODP IPSEC API &#45; platform specific types. ">
<polygon fill="#ffffff" stroke="#000000" points="2353,-280.5 2353,-299.5 2404,-299.5 2404,-280.5 2353,-280.5"/>
<text text-anchor="middle" x="2378.5" y="-287.5" font-family="Helvetica,sans-Serif" font-size="10.00" fill="#000000">ipsec.h</text>
</a>
</g>
</g>
<!-- Node9&#45;&gt;Node13 -->
<g id="edge10" class="edge">
<title>Node9&#45;&gt;Node13</title>
<path fill="none" stroke="#191970" d="M1288.2074,-345.5699C1470.7879,-343.6537 2136.4021,-334.4087 2344.5,-300 2347.171,-299.5584 2349.9282,-298.9731 2352.6631,-298.3067"/>
<polygon fill="#191970" stroke="#191970" points="1288.0908,-342.0708 1278.1273,-345.6733 1288.1627,-349.0704 1288.0908,-342.0708"/>
</g>
<!-- Node14 -->
<g id="node10" class="node">
<title>Node14</title>
<g id="a_node10"><a xlink:href="abi-default_2packet__io_8h.html" target="_top" xlink:title="ODP Packet IO. ">
<polygon fill="#ffffff" stroke="#000000" points="2422,-280.5 2422,-299.5 2495,-299.5 2495,-280.5 2422,-280.5"/>
<text text-anchor="middle" x="2458.5" y="-287.5" font-family="Helvetica,sans-Serif" font-size="10.00" fill="#000000">packet_io.h</text>
</a>
</g>
</g>
<!-- Node9&#45;&gt;Node14 -->
<g id="edge11" class="edge">
<title>Node9&#45;&gt;Node14</title>
<path fill="none" stroke="#191970" d="M1288.22,-345.2862C1477.8021,-342.2166 2190.1631,-328.9598 2413.5,-300 2416.1985,-299.6501 2418.9739,-299.2167 2421.7583,-298.7283"/>
<polygon fill="#191970" stroke="#191970" points="1287.9775,-341.7895 1278.0349,-345.4494 1288.0897,-348.7887 1287.9775,-341.7895"/>
</g>
<!-- Node15 -->
<g id="node11" class="node">
<title>Node15</title>
<g id="a_node11"><a xlink:href="abi-default_2rwlock__recursive_8h.html" target="_top" xlink:title="ODP recursive read/write lock. ">
<polygon fill="#ffffff" stroke="#000000" points="2513.5,-280.5 2513.5,-299.5 2621.5,-299.5 2621.5,-280.5 2513.5,-280.5"/>
<text text-anchor="middle" x="2567.5" y="-287.5" font-family="Helvetica,sans-Serif" font-size="10.00" fill="#000000">rwlock_recursive.h</text>
</a>
</g>
</g>
<!-- Node9&#45;&gt;Node15 -->
<g id="edge12" class="edge">
<title>Node9&#45;&gt;Node15</title>
<path fill="none" stroke="#191970" d="M1288.1922,-345.0574C1486.7078,-340.9331 2261.5246,-323.621 2504.5,-300 2507.3658,-299.7214 2510.2994,-299.3962 2513.2574,-299.0368"/>
<polygon fill="#191970" stroke="#191970" points="1288.0216,-341.5601 1278.0961,-345.2661 1288.1664,-348.5586 1288.0216,-341.5601"/>
</g>
<!-- Node16 -->
<g id="node12" class="node">
<title>Node16</title>
<g id="a_node12"><a xlink:href="abi-default_2schedule_8h.html" target="_top" xlink:title="ODP schedule. ">
<polygon fill="#ffffff" stroke="#000000" points="166,-280.5 166,-299.5 235,-299.5 235,-280.5 166,-280.5"/>
<text text-anchor="middle" x="200.5" y="-287.5" font-family="Helvetica,sans-Serif" font-size="10.00" fill="#000000">schedule.h</text>
</a>
</g>
</g>
<!-- Node9&#45;&gt;Node16 -->
<g id="edge13" class="edge">
<title>Node9&#45;&gt;Node16</title>
<path fill="none" stroke="#191970" d="M1194.6302,-344.9413C1023.3677,-340.9007 431.707,-325.3878 244.5,-300 241.5502,-299.6 238.5066,-299.0984 235.4621,-298.5341"/>
<polygon fill="#191970" stroke="#191970" points="1194.7479,-348.4449 1204.8271,-345.1799 1194.9117,-341.4468 1194.7479,-348.4449"/>
</g>
<!-- Node17 -->
<g id="node13" class="node">
<title>Node17</title>
<g id="a_node13"><a xlink:href="abi-default_2spinlock__recursive_8h.html" target="_top" xlink:title="ODP recursive spinlock. ">
<polygon fill="#ffffff" stroke="#000000" points="253.5,-280.5 253.5,-299.5 369.5,-299.5 369.5,-280.5 253.5,-280.5"/>
<text text-anchor="middle" x="311.5" y="-287.5" font-family="Helvetica,sans-Serif" font-size="10.00" fill="#000000">spinlock_recursive.h</text>
</a>
</g>
</g>
<!-- Node9&#45;&gt;Node17 -->
<g id="edge14" class="edge">
<title>Node9&#45;&gt;Node17</title>
<path fill="none" stroke="#191970" d="M1194.4283,-345.06C1064.3102,-342.1231 688.8587,-331.3611 378.5,-300 375.5747,-299.7044 372.5818,-299.3712 369.5624,-299.0105"/>
<polygon fill="#191970" stroke="#191970" points="1194.7386,-348.5676 1204.8135,-345.2894 1194.8933,-341.5693 1194.7386,-348.5676"/>
</g>
<!-- Node18 -->
<g id="node14" class="node">
<title>Node18</title>
<g id="a_node14"><a xlink:href="abi-default_2traffic__mngr_8h.html" target="_top" xlink:title="ODP traffic mngr. ">
<polygon fill="#ffffff" stroke="#000000" points="387.5,-280.5 387.5,-299.5 471.5,-299.5 471.5,-280.5 387.5,-280.5"/>
<text text-anchor="middle" x="429.5" y="-287.5" font-family="Helvetica,sans-Serif" font-size="10.00" fill="#000000">traffic_mngr.h</text>
</a>
</g>
</g>
<!-- Node9&#45;&gt;Node18 -->
<g id="edge15" class="edge">
<title>Node9&#45;&gt;Node18</title>
<path fill="none" stroke="#191970" d="M1194.6548,-345.3365C1075.1538,-343.1748 749.4127,-334.3361 480.5,-300 477.636,-299.6343 474.6911,-299.2038 471.7303,-298.7304"/>
<polygon fill="#191970" stroke="#191970" points="1194.8447,-348.8403 1204.904,-345.5145 1194.9663,-341.8413 1194.8447,-348.8403"/>
</g>
<!-- Node19 -->
<g id="node15" class="node">
<title>Node19</title>
<g id="a_node15"><a xlink:href="barrier_8h.html" target="_top" xlink:title="ODP execution barriers. ">
<polygon fill="#ffffff" stroke="#000000" points="490,-280.5 490,-299.5 547,-299.5 547,-280.5 490,-280.5"/>
<text text-anchor="middle" x="518.5" y="-287.5" font-family="Helvetica,sans-Serif" font-size="10.00" fill="#000000">barrier.h</text>
</a>
</g>
</g>
<!-- Node9&#45;&gt;Node19 -->
<g id="edge16" class="edge">
<title>Node9&#45;&gt;Node19</title>
<path fill="none" stroke="#191970" d="M1194.6386,-344.0627C1060.8813,-338.3418 679.014,-320.6251 555.5,-300 552.7435,-299.5397 549.8955,-298.9613 547.0603,-298.3159"/>
<polygon fill="#191970" stroke="#191970" points="1194.8099,-347.5731 1204.9496,-344.501 1195.1072,-340.5794 1194.8099,-347.5731"/>
</g>
<!-- Node20 -->
<g id="node16" class="node">
<title>Node20</title>
<g id="a_node16"><a xlink:href="buffer_8h.html" target="_top" xlink:title="ODP buffer descriptor. ">
<polygon fill="#ffffff" stroke="#000000" points="565,-280.5 565,-299.5 618,-299.5 618,-280.5 565,-280.5"/>
<text text-anchor="middle" x="591.5" y="-287.5" font-family="Helvetica,sans-Serif" font-size="10.00" fill="#000000">buffer.h</text>
</a>
</g>
</g>
<!-- Node9&#45;&gt;Node20 -->
<g id="edge17" class="edge">
<title>Node9&#45;&gt;Node20</title>
<path fill="none" stroke="#191970" d="M1194.8652,-345.0778C1092.4774,-342.4855 840.5565,-333.0023 632.5,-300 627.8688,-299.2654 622.9907,-298.2731 618.2786,-297.1978"/>
<polygon fill="#191970" stroke="#191970" points="1194.7952,-348.577 1204.8773,-345.3212 1194.9654,-341.5791 1194.7952,-348.577"/>
</g>
<!-- Node21 -->
<g id="node17" class="node">
<title>Node21</title>
<g id="a_node17"><a xlink:href="classification_8h.html" target="_top" xlink:title="ODP classification descriptor. ">
<polygon fill="#ffffff" stroke="#000000" points="487,-56.5 487,-75.5 576,-75.5 576,-56.5 487,-56.5"/>
<text text-anchor="middle" x="531.5" y="-63.5" font-family="Helvetica,sans-Serif" font-size="10.00" fill="#000000">classification.h</text>
</a>
</g>
</g>
<!-- Node9&#45;&gt;Node21 -->
<g id="edge18" class="edge">
<title>Node9&#45;&gt;Node21</title>
<path fill="none" stroke="#191970" d="M1194.6748,-344.9977C1074.8913,-342.0034 759.7959,-331.3007 660.5,-300 643.7794,-294.7292 642.8439,-286.343 626.5,-280 554.501,-252.0574 510.2307,-299.4766 456.5,-244 432.7978,-219.5276 434.9021,-200.034 446.5,-168 461.0957,-127.6858 499.353,-92.1081 519.1836,-75.6657"/>
<polygon fill="#191970" stroke="#191970" points="1194.8933,-348.504 1204.9754,-345.2481 1195.0634,-341.5061 1194.8933,-348.504"/>
</g>
<!-- Node24 -->
<g id="node19" class="node">
<title>Node24</title>
<g id="a_node19"><a xlink:href="crypto_8h.html" target="_top" xlink:title="ODP crypto. ">
<polygon fill="#ffffff" stroke="#000000" points="455.5,-168.5 455.5,-187.5 511.5,-187.5 511.5,-168.5 455.5,-168.5"/>
<text text-anchor="middle" x="483.5" y="-175.5" font-family="Helvetica,sans-Serif" font-size="10.00" fill="#000000">crypto.h</text>
</a>
</g>
</g>
<!-- Node9&#45;&gt;Node24 -->
<g id="edge20" class="edge">
<title>Node9&#45;&gt;Node24</title>
<path fill="none" stroke="#191970" d="M1194.7675,-344.0977C1081.6671,-339.1577 795.7349,-324.5684 703.5,-300 683.133,-294.5749 680.5792,-286.4088 660.5,-280 576.5417,-253.2024 521.8782,-311.7392 465.5,-244 451.8241,-227.5683 466.2789,-201.6143 476.0667,-187.6523"/>
<polygon fill="#191970" stroke="#191970" points="1194.7019,-347.598 1204.8435,-344.5321 1195.0035,-340.6045 1194.7019,-347.598"/>
</g>
<!-- Node25 -->
<g id="node20" class="node">
<title>Node25</title>
<g id="a_node20"><a xlink:href="packet_8h.html" target="_top" xlink:title="ODP packet descriptor. ">
<polygon fill="#ffffff" stroke="#000000" points="713,-280.5 713,-299.5 772,-299.5 772,-280.5 713,-280.5"/>
<text text-anchor="middle" x="742.5" y="-287.5" font-family="Helvetica,sans-Serif" font-size="10.00" fill="#000000">packet.h</text>
</a>
</g>
</g>
<!-- Node9&#45;&gt;Node25 -->
<g id="edge22" class="edge">
<title>Node9&#45;&gt;Node25</title>
<path fill="none" stroke="#191970" d="M1194.4257,-342.5178C1112.7588,-336.1731 939.6439,-321.3826 794.5,-300 787.224,-298.9281 779.4173,-297.5496 772.1223,-296.1607"/>
<polygon fill="#191970" stroke="#191970" points="1194.6227,-346.0433 1204.8619,-343.3212 1195.1601,-339.0639 1194.6227,-346.0433"/>
</g>
<!-- Node42 -->
<g id="node24" class="node">
<title>Node42</title>
<g id="a_node24"><a xlink:href="spec_2packet__flags_8h.html" target="_top" xlink:title="ODP packet flags. ">
<polygon fill="#ffffff" stroke="#ff0000" points="691,-224.5 691,-243.5 778,-243.5 778,-224.5 691,-224.5"/>
<text text-anchor="middle" x="734.5" y="-231.5" font-family="Helvetica,sans-Serif" font-size="10.00" fill="#000000">packet_flags.h</text>
</a>
</g>
</g>
<!-- Node9&#45;&gt;Node42 -->
<g id="edge51" class="edge">
<title>Node9&#45;&gt;Node42</title>
<path fill="none" stroke="#191970" d="M1194.7357,-342.5478C1106.8212,-335.7018 920.2047,-319.3804 858.5,-300 815.6894,-286.5539 770.3604,-258.3409 748.2493,-243.5346"/>
<polygon fill="#191970" stroke="#191970" points="1194.7132,-346.0564 1204.9527,-343.3353 1195.2512,-339.0771 1194.7132,-346.0564"/>
</g>
<!-- Node34 -->
<g id="node26" class="node">
<title>Node34</title>
<g id="a_node26"><a xlink:href="packet__io_8h.html" target="_top" xlink:title="ODP Packet IO. ">
<polygon fill="#ffffff" stroke="#000000" points="796,-168.5 796,-187.5 869,-187.5 869,-168.5 796,-168.5"/>
<text text-anchor="middle" x="832.5" y="-175.5" font-family="Helvetica,sans-Serif" font-size="10.00" fill="#000000">packet_io.h</text>
</a>
</g>
</g>
<!-- Node9&#45;&gt;Node34 -->
<g id="edge34" class="edge">
<title>Node9&#45;&gt;Node34</title>
<path fill="none" stroke="#191970" d="M1211.3476,-331.6738C1196.8828,-323.7655 1180.0218,-312.9209 1167.5,-300 1140.3377,-271.972 1155.6824,-246.0829 1123.5,-224 1082.7492,-196.0377 937.6968,-184.0789 869.0355,-179.8963"/>
<polygon fill="#191970" stroke="#191970" points="1209.9554,-334.8957 1220.4372,-336.439 1213.2056,-328.696 1209.9554,-334.8957"/>
</g>
<!-- Node36 -->
<g id="node28" class="node">
<title>Node36</title>
<g id="a_node28"><a xlink:href="spec_2traffic__mngr_8h.html" target="_top" xlink:title="Copyright (c) 2015&#45;2018, Linaro Limited All rights reserved. ">
<polygon fill="#ffffff" stroke="#ff0000" points="965.5,-112.5 965.5,-131.5 1049.5,-131.5 1049.5,-112.5 965.5,-112.5"/>
<text text-anchor="middle" x="1007.5" y="-119.5" font-family="Helvetica,sans-Serif" font-size="10.00" fill="#000000">traffic_mngr.h</text>
</a>
</g>
</g>
<!-- Node9&#45;&gt;Node36 -->
<g id="edge57" class="edge">
<title>Node9&#45;&gt;Node36</title>
<path fill="none" stroke="#191970" d="M1225.4664,-328.9935C1217.6807,-320.4929 1208.3384,-309.9249 1200.5,-300 1174.977,-267.6831 1176.316,-253.4184 1147.5,-224 1108.3595,-184.0413 1052.19,-148.3025 1024.3988,-131.7455"/>
<polygon fill="#191970" stroke="#191970" points="1222.9883,-331.4687 1232.3541,-336.4217 1228.1213,-326.7092 1222.9883,-331.4687"/>
</g>
<!-- Node32 -->
<g id="node29" class="node">
<title>Node32</title>
<g id="a_node29"><a xlink:href="queue_8h.html" target="_top" xlink:title="ODP queue. ">
<polygon fill="#ffffff" stroke="#000000" points="948.5,-280.5 948.5,-299.5 1004.5,-299.5 1004.5,-280.5 948.5,-280.5"/>
<text text-anchor="middle" x="976.5" y="-287.5" font-family="Helvetica,sans-Serif" font-size="10.00" fill="#000000">queue.h</text>
</a>
</g>
</g>
<!-- Node9&#45;&gt;Node32 -->
<g id="edge35" class="edge">
<title>Node9&#45;&gt;Node32</title>
<path fill="none" stroke="#191970" d="M1195.0773,-336.1899C1140.0265,-324.5566 1050.0256,-305.5375 1004.6044,-295.939"/>
<polygon fill="#191970" stroke="#191970" points="1194.4235,-339.629 1204.9311,-338.2722 1195.8708,-332.7802 1194.4235,-339.629"/>
</g>
<!-- Node40 -->
<g id="node31" class="node">
<title>Node40</title>
<g id="a_node31"><a xlink:href="spec_2schedule_8h.html" target="_top" xlink:title="ODP schedule. ">
<polygon fill="#ffffff" stroke="#ff0000" points="1046,-224.5 1046,-243.5 1115,-243.5 1115,-224.5 1046,-224.5"/>
<text text-anchor="middle" x="1080.5" y="-231.5" font-family="Helvetica,sans-Serif" font-size="10.00" fill="#000000">schedule.h</text>
</a>
</g>
</g>
<!-- Node9&#45;&gt;Node40 -->
<g id="edge53" class="edge">
<title>Node9&#45;&gt;Node40</title>
<path fill="none" stroke="#191970" d="M1195.2702,-333.3261C1173.8222,-325.9352 1148.8547,-315.0503 1129.5,-300 1109.2216,-284.2314 1093.2348,-258.008 1085.5299,-243.8276"/>
<polygon fill="#191970" stroke="#191970" points="1194.2513,-336.6754 1204.8443,-336.4785 1196.4405,-330.0266 1194.2513,-336.6754"/>
</g>
<!-- Node44 -->
<g id="node32" class="node">
<title>Node44</title>
<g id="a_node32"><a xlink:href="spec_2chksum_8h.html" target="_top" xlink:title="ODP checksum functions. ">
<polygon fill="#ffffff" stroke="#000000" points="1209.5,-280.5 1209.5,-299.5 1273.5,-299.5 1273.5,-280.5 1209.5,-280.5"/>
<text text-anchor="middle" x="1241.5" y="-287.5" font-family="Helvetica,sans-Serif" font-size="10.00" fill="#000000">chksum.h</text>
</a>
</g>
</g>
<!-- Node9&#45;&gt;Node44 -->
<g id="edge40" class="edge">
<title>Node9&#45;&gt;Node44</title>
<path fill="none" stroke="#191970" d="M1241.5,-326.1575C1241.5,-317.155 1241.5,-306.9199 1241.5,-299.6427"/>
<polygon fill="#191970" stroke="#191970" points="1238.0001,-326.2455 1241.5,-336.2455 1245.0001,-326.2456 1238.0001,-326.2455"/>
</g>
<!-- Node46 -->
<g id="node34" class="node">
<title>Node46</title>
<g id="a_node34"><a xlink:href="spec_2cpu_8h.html" target="_top" xlink:title="ODP CPU API. ">
<polygon fill="#ffffff" stroke="#000000" points="1292,-280.5 1292,-299.5 1335,-299.5 1335,-280.5 1292,-280.5"/>
<text text-anchor="middle" x="1313.5" y="-287.5" font-family="Helvetica,sans-Serif" font-size="10.00" fill="#000000">cpu.h</text>
</a>
</g>
</g>
<!-- Node9&#45;&gt;Node46 -->
<g id="edge42" class="edge">
<title>Node9&#45;&gt;Node46</title>
<path fill="none" stroke="#191970" d="M1262.164,-329.928C1274.7489,-320.1397 1290.4092,-307.9595 1301.1023,-299.6427"/>
<polygon fill="#191970" stroke="#191970" points="1259.7862,-327.3434 1254.0414,-336.2455 1264.0838,-332.8688 1259.7862,-327.3434"/>
</g>
<!-- Node49 -->
<g id="node36" class="node">
<title>Node49</title>
<g id="a_node36"><a xlink:href="spec_2feature_8h.html" target="_top" xlink:title="ODP features. ">
<polygon fill="#ffffff" stroke="#000000" points="1353,-280.5 1353,-299.5 1414,-299.5 1414,-280.5 1353,-280.5"/>
<text text-anchor="middle" x="1383.5" y="-287.5" font-family="Helvetica,sans-Serif" font-size="10.00" fill="#000000">feature.h</text>
</a>
</g>
</g>
<!-- Node9&#45;&gt;Node49 -->
<g id="edge44" class="edge">
<title>Node9&#45;&gt;Node49</title>
<path fill="none" stroke="#191970" d="M1275.3415,-332.6541C1301.2366,-322.4419 1336.3138,-308.6086 1359.4079,-299.5011"/>
<polygon fill="#191970" stroke="#191970" points="1273.9293,-329.4486 1265.9107,-336.3733 1276.4975,-335.9605 1273.9293,-329.4486"/>
</g>
<!-- Node51 -->
<g id="node38" class="node">
<title>Node51</title>
<g id="a_node38"><a xlink:href="spec_2init_8h.html" target="_top" xlink:title="init.h">
<polygon fill="#ffffff" stroke="#000000" points="1392,-168.5 1392,-187.5 1433,-187.5 1433,-168.5 1392,-168.5"/>
<text text-anchor="middle" x="1412.5" y="-175.5" font-family="Helvetica,sans-Serif" font-size="10.00" fill="#000000">init.h</text>
</a>
</g>
</g>
<!-- Node9&#45;&gt;Node51 -->
<g id="edge50" class="edge">
<title>Node9&#45;&gt;Node51</title>
<path fill="none" stroke="#191970" d="M1288.0737,-340.7103C1336.3385,-334.1566 1407.0026,-321.1858 1423.5,-300 1449.7626,-266.2737 1428.0035,-210.2989 1417.4417,-187.8039"/>
<polygon fill="#191970" stroke="#191970" points="1287.6023,-337.2421 1278.142,-342.0121 1288.5121,-344.1827 1287.6023,-337.2421"/>
</g>
<!-- Node56 -->
<g id="node40" class="node">
<title>Node56</title>
<g id="a_node40"><a xlink:href="spec_2hash_8h.html" target="_top" xlink:title="ODP Hash functions. ">
<polygon fill="#ffffff" stroke="#000000" points="1471,-280.5 1471,-299.5 1520,-299.5 1520,-280.5 1471,-280.5"/>
<text text-anchor="middle" x="1495.5" y="-287.5" font-family="Helvetica,sans-Serif" font-size="10.00" fill="#000000">hash.h</text>
</a>
</g>
</g>
<!-- Node9&#45;&gt;Node56 -->
<g id="edge48" class="edge">
<title>Node9&#45;&gt;Node56</title>
<path fill="none" stroke="#191970" d="M1288.1479,-336.5837C1331.7793,-327.6428 1398.7074,-313.586 1456.5,-300 1461.127,-298.9123 1466.0476,-297.6968 1470.7794,-296.4983"/>
<polygon fill="#191970" stroke="#191970" points="1287.2172,-333.2015 1278.1202,-338.6325 1288.6185,-340.0598 1287.2172,-333.2015"/>
</g>
<!-- Node58 -->
<g id="node42" class="node">
<title>Node58</title>
<g id="a_node42"><a xlink:href="spec_2pool_8h.html" target="_top" xlink:title="ODP pool. ">
<polygon fill="#ffffff" stroke="#ff0000" points="1538,-280.5 1538,-299.5 1585,-299.5 1585,-280.5 1538,-280.5"/>
<text text-anchor="middle" x="1561.5" y="-287.5" font-family="Helvetica,sans-Serif" font-size="10.00" fill="#000000">pool.h</text>
</a>
</g>
</g>
<!-- Node9&#45;&gt;Node58 -->
<g id="edge52" class="edge">
<title>Node9&#45;&gt;Node58</title>
<path fill="none" stroke="#191970" d="M1288.3988,-340.625C1345.7342,-333.5696 1445.5073,-319.7226 1529.5,-300 1532.2199,-299.3613 1535.0448,-298.6106 1537.8397,-297.8123"/>
<polygon fill="#191970" stroke="#191970" points="1287.7054,-337.1834 1278.2002,-341.8633 1288.5492,-344.1324 1287.7054,-337.1834"/>
</g>
<!-- Node61 -->
<g id="node43" class="node">
<title>Node61</title>
<g id="a_node43"><a xlink:href="spec_2stash_8h.html" target="_top" xlink:title="ODP stash. ">
<polygon fill="#ffffff" stroke="#ff0000" points="1603.5,-280.5 1603.5,-299.5 1655.5,-299.5 1655.5,-280.5 1603.5,-280.5"/>
<text text-anchor="middle" x="1629.5" y="-287.5" font-family="Helvetica,sans-Serif" font-size="10.00" fill="#000000">stash.h</text>
</a>
</g>
</g>
<!-- Node9&#45;&gt;Node61 -->
<g id="edge54" class="edge">
<title>Node9&#45;&gt;Node61</title>
<path fill="none" stroke="#191970" d="M1288.5048,-342.1166C1356.5072,-335.9929 1486.0656,-322.4259 1594.5,-300 1597.3467,-299.4112 1600.3005,-298.7112 1603.2309,-297.9589"/>
<polygon fill="#191970" stroke="#191970" points="1287.784,-338.6667 1278.132,-343.0357 1288.4019,-345.6393 1287.784,-338.6667"/>
</g>
<!-- Node63 -->
<g id="node44" class="node">
<title>Node63</title>
<g id="a_node44"><a xlink:href="spec_2threshold_8h.html" target="_top" xlink:title="ODP threshold descriptor. ">
<polygon fill="#ffffff" stroke="#ff0000" points="1674,-280.5 1674,-299.5 1745,-299.5 1745,-280.5 1674,-280.5"/>
<text text-anchor="middle" x="1709.5" y="-287.5" font-family="Helvetica,sans-Serif" font-size="10.00" fill="#000000">threshold.h</text>
</a>
</g>
</g>
<!-- Node9&#45;&gt;Node63 -->
<g id="edge55" class="edge">
<title>Node9&#45;&gt;Node63</title>
<path fill="none" stroke="#191970" d="M1288.1948,-342.6165C1366.3985,-336.5715 1528.6549,-322.41 1664.5,-300 1667.5006,-299.505 1670.6019,-298.9366 1673.708,-298.3275"/>
<polygon fill="#191970" stroke="#191970" points="1287.8839,-339.13 1278.1796,-343.3817 1288.4172,-346.1096 1287.8839,-339.13"/>
</g>
<!-- Node65 -->
<g id="node45" class="node">
<title>Node65</title>
<g id="a_node45"><a xlink:href="spec_2thrmask_8h.html" target="_top" xlink:title="ODP thread masks. ">
<polygon fill="#ffffff" stroke="#ff0000" points="1763.5,-280.5 1763.5,-299.5 1829.5,-299.5 1829.5,-280.5 1763.5,-280.5"/>
<text text-anchor="middle" x="1796.5" y="-287.5" font-family="Helvetica,sans-Serif" font-size="10.00" fill="#000000">thrmask.h</text>
</a>
</g>
</g>
<!-- Node9&#45;&gt;Node65 -->
<g id="edge56" class="edge">
<title>Node9&#45;&gt;Node65</title>
<path fill="none" stroke="#191970" d="M1288.3199,-344.0651C1378.8669,-339.824 1584.0759,-327.7804 1754.5,-300 1757.3112,-299.5418 1760.2132,-298.9992 1763.1172,-298.4075"/>
<polygon fill="#191970" stroke="#191970" points="1287.9424,-340.5786 1278.1131,-344.5326 1288.2628,-347.5713 1287.9424,-340.5786"/>
</g>
<!-- Node67 -->
<g id="node46" class="node">
<title>Node67</title>
<g id="a_node46"><a xlink:href="system__info_8h.html" target="_top" xlink:title="ODP system information. ">
<polygon fill="#ffffff" stroke="#000000" points="1847.5,-280.5 1847.5,-299.5 1933.5,-299.5 1933.5,-280.5 1847.5,-280.5"/>
<text text-anchor="middle" x="1890.5" y="-287.5" font-family="Helvetica,sans-Serif" font-size="10.00" fill="#000000">system_info.h</text>
</a>
</g>
</g>
<!-- Node9&#45;&gt;Node67 -->
<g id="edge58" class="edge">
<title>Node9&#45;&gt;Node67</title>
<path fill="none" stroke="#191970" d="M1288.5134,-344.1872C1389.5509,-339.8948 1634.7587,-327.3506 1838.5,-300 1841.4157,-299.6086 1844.4149,-299.1588 1847.4313,-298.6713"/>
<polygon fill="#191970" stroke="#191970" points="1288.1815,-340.6979 1278.3363,-344.6122 1288.4737,-347.6918 1288.1815,-340.6979"/>
</g>
<!-- Node68 -->
<g id="node47" class="node">
<title>Node68</title>
<g id="a_node47"><a xlink:href="time_8h.html" target="_top" xlink:title="ODP time. ">
<polygon fill="#ffffff" stroke="#ff0000" points="867.5,-280.5 867.5,-299.5 915.5,-299.5 915.5,-280.5 867.5,-280.5"/>
<text text-anchor="middle" x="891.5" y="-287.5" font-family="Helvetica,sans-Serif" font-size="10.00" fill="#000000">time.h</text>
</a>
</g>
</g>
<!-- Node9&#45;&gt;Node68 -->
<g id="edge59" class="edge">
<title>Node9&#45;&gt;Node68</title>
<path fill="none" stroke="#191970" d="M1194.459,-339.6406C1134.9424,-331.4097 1029.36,-316.1918 939.5,-300 931.7928,-298.6113 923.426,-296.9292 915.869,-295.3439"/>
<polygon fill="#191970" stroke="#191970" points="1194.2839,-343.1494 1204.6678,-341.0463 1195.2388,-336.2149 1194.2839,-343.1494"/>
</g>
<!-- Node70 -->
<g id="node48" class="node">
<title>Node70</title>
<g id="a_node48"><a xlink:href="timer_8h.html" target="_top" xlink:title="ODP timer service. ">
<polygon fill="#ffffff" stroke="#000000" points="1952,-280.5 1952,-299.5 2003,-299.5 2003,-280.5 1952,-280.5"/>
<text text-anchor="middle" x="1977.5" y="-287.5" font-family="Helvetica,sans-Serif" font-size="10.00" fill="#000000">timer.h</text>
</a>
</g>
</g>
<!-- Node9&#45;&gt;Node70 -->
<g id="edge61" class="edge">
<title>Node9&#45;&gt;Node70</title>
<path fill="none" stroke="#191970" d="M1288.5167,-344.2209C1424.4317,-338.8707 1816.163,-321.9355 1942.5,-300 1945.4887,-299.4811 1948.587,-298.8052 1951.6489,-298.0495"/>
<polygon fill="#191970" stroke="#191970" points="1288.2798,-340.7274 1278.4241,-344.6153 1288.5532,-347.722 1288.2798,-340.7274"/>
</g>
<!-- Node71 -->
<g id="node49" class="node">
<title>Node71</title>
<g id="a_node49"><a xlink:href="strong__types_8h.html" target="_top" xlink:title="ODP Strong Types. ">
<polygon fill="#ffffff" stroke="#000000" points="2021,-280.5 2021,-299.5 2110,-299.5 2110,-280.5 2021,-280.5"/>
<text text-anchor="middle" x="2065.5" y="-287.5" font-family="Helvetica,sans-Serif" font-size="10.00" fill="#000000">strong_types.h</text>
</a>
</g>
</g>
<!-- Node9&#45;&gt;Node71 -->
<g id="edge62" class="edge">
<title>Node9&#45;&gt;Node71</title>
<path fill="none" stroke="#191970" d="M1288.5167,-345.2694C1409.201,-342.9451 1739.6079,-333.747 2012.5,-300 2015.195,-299.6667 2017.9595,-299.2806 2020.7432,-298.858"/>
<polygon fill="#191970" stroke="#191970" points="1288.1033,-341.7764 1278.17,-345.4615 1288.2333,-348.7752 1288.1033,-341.7764"/>
</g>
<!-- Node22 -->
<g id="node18" class="node">
<title>Node22</title>
<g id="a_node18"><a xlink:href="spec_2ipsec_8h.html" target="_top" xlink:title="ODP IPSEC API. ">
<polygon fill="#ffffff" stroke="#ff0000" points="506,-.5 506,-19.5 557,-19.5 557,-.5 506,-.5"/>
<text text-anchor="middle" x="531.5" y="-7.5" font-family="Helvetica,sans-Serif" font-size="10.00" fill="#000000">ipsec.h</text>
</a>
</g>
</g>
<!-- Node21&#45;&gt;Node22 -->
<g id="edge19" class="edge">
<title>Node21&#45;&gt;Node22</title>
<path fill="none" stroke="#191970" d="M531.5,-46.1575C531.5,-37.155 531.5,-26.9199 531.5,-19.6427"/>
<polygon fill="#191970" stroke="#191970" points="528.0001,-46.2455 531.5,-56.2455 535.0001,-46.2456 528.0001,-46.2455"/>
</g>
<!-- Node24&#45;&gt;Node22 -->
<g id="edge21" class="edge">
<title>Node24&#45;&gt;Node22</title>
<path fill="none" stroke="#191970" d="M477.2081,-158.4968C470.2995,-133.4893 462.0884,-89.3737 477.5,-56 484.8833,-40.0115 500.8676,-27.5319 513.5401,-19.6299"/>
<polygon fill="#191970" stroke="#191970" points="473.9024,-159.66 480.1088,-168.2467 480.6118,-157.6638 473.9024,-159.66"/>
</g>
<!-- Node26 -->
<g id="node21" class="node">
<title>Node26</title>
<g id="a_node21"><a xlink:href="spec_2comp_8h.html" target="_top" xlink:title="ODP Compression. ">
<polygon fill="#ffffff" stroke="#ff0000" points="620,-224.5 620,-243.5 673,-243.5 673,-224.5 620,-224.5"/>
<text text-anchor="middle" x="646.5" y="-231.5" font-family="Helvetica,sans-Serif" font-size="10.00" fill="#000000">comp.h</text>
</a>
</g>
</g>
<!-- Node25&#45;&gt;Node26 -->
<g id="edge23" class="edge">
<title>Node25&#45;&gt;Node26</title>
<path fill="none" stroke="#191970" d="M716.8654,-275.0465C699.7841,-265.0824 677.836,-252.2794 663.0303,-243.6427"/>
<polygon fill="#191970" stroke="#191970" points="715.3767,-278.23 725.7781,-280.2455 718.9038,-272.1836 715.3767,-278.23"/>
</g>
<!-- Node28 -->
<g id="node22" class="node">
<title>Node28</title>
<g id="a_node22"><a xlink:href="spec_2crypto_8h.html" target="_top" xlink:title="ODP crypto. ">
<polygon fill="#ffffff" stroke="#000000" points="474.5,-224.5 474.5,-243.5 530.5,-243.5 530.5,-224.5 474.5,-224.5"/>
<text text-anchor="middle" x="502.5" y="-231.5" font-family="Helvetica,sans-Serif" font-size="10.00" fill="#000000">crypto.h</text>
</a>
</g>
</g>
<!-- Node25&#45;&gt;Node28 -->
<g id="edge24" class="edge">
<title>Node25&#45;&gt;Node28</title>
<path fill="none" stroke="#191970" d="M702.8644,-280.9903C701.3911,-280.6559 699.9324,-280.3249 698.5,-280 627.8399,-263.9712 609.8212,-261.4558 539.5,-244 536.6584,-243.2946 533.7006,-242.5363 530.7505,-241.7641"/>
<polygon fill="#191970" stroke="#191970" points="702.1519,-284.4176 712.6788,-283.219 703.7021,-277.5914 702.1519,-284.4176"/>
</g>
<!-- Node29 -->
<g id="node23" class="node">
<title>Node29</title>
<g id="a_node23"><a xlink:href="spec_2event_8h.html" target="_top" xlink:title="ODP event. ">
<polygon fill="#ffffff" stroke="#ff0000" points="549,-224.5 549,-243.5 602,-243.5 602,-224.5 549,-224.5"/>
<text text-anchor="middle" x="575.5" y="-231.5" font-family="Helvetica,sans-Serif" font-size="10.00" fill="#000000">event.h</text>
</a>
</g>
</g>
<!-- Node25&#45;&gt;Node29 -->
<g id="edge26" class="edge">
<title>Node25&#45;&gt;Node29</title>
<path fill="none" stroke="#191970" d="M704.1194,-277.1299C672.9211,-266.6681 629.7124,-252.179 602.181,-242.9469"/>
<polygon fill="#191970" stroke="#191970" points="703.1978,-280.5123 713.7917,-280.3733 705.4233,-273.8755 703.1978,-280.5123"/>
</g>
<!-- Node25&#45;&gt;Node42 -->
<g id="edge27" class="edge">
<title>Node25&#45;&gt;Node42</title>
<path fill="none" stroke="#191970" d="M739.6654,-270.1575C738.3793,-261.155 736.9171,-250.9199 735.8775,-243.6427"/>
<polygon fill="#191970" stroke="#191970" points="736.2274,-270.8411 741.1065,-280.2455 743.157,-269.851 736.2274,-270.8411"/>
</g>
<!-- Node33 -->
<g id="node25" class="node">
<title>Node33</title>
<g id="a_node25"><a xlink:href="spec_2packet__io_8h.html" target="_top" xlink:title="ODP Packet IO. ">
<polygon fill="#ffffff" stroke="#000000" points="796,-224.5 796,-243.5 869,-243.5 869,-224.5 796,-224.5"/>
<text text-anchor="middle" x="832.5" y="-231.5" font-family="Helvetica,sans-Serif" font-size="10.00" fill="#000000">packet_io.h</text>
</a>
</g>
</g>
<!-- Node25&#45;&gt;Node33 -->
<g id="edge28" class="edge">
<title>Node25&#45;&gt;Node33</title>
<path fill="none" stroke="#191970" d="M766.9784,-274.769C782.9266,-264.8456 803.251,-252.1994 817.0028,-243.6427"/>
<polygon fill="#191970" stroke="#191970" points="764.8183,-271.9908 758.1768,-280.2455 768.5165,-277.9342 764.8183,-271.9908"/>
</g>
<!-- Node28&#45;&gt;Node24 -->
<g id="edge25" class="edge">
<title>Node28&#45;&gt;Node24</title>
<path fill="none" stroke="#191970" d="M495.9685,-214.7493C492.8664,-205.6064 489.2949,-195.0798 486.7716,-187.6427"/>
<polygon fill="#191970" stroke="#191970" points="492.663,-215.9003 499.1905,-224.2455 499.2918,-213.6512 492.663,-215.9003"/>
</g>
<!-- Node33&#45;&gt;Node34 -->
<g id="edge29" class="edge">
<title>Node33&#45;&gt;Node34</title>
<path fill="none" stroke="#191970" d="M832.5,-214.1575C832.5,-205.155 832.5,-194.9199 832.5,-187.6427"/>
<polygon fill="#191970" stroke="#191970" points="829.0001,-214.2455 832.5,-224.2455 836.0001,-214.2456 829.0001,-214.2455"/>
</g>
<!-- Node34&#45;&gt;Node22 -->
<g id="edge32" class="edge">
<title>Node34&#45;&gt;Node22</title>
<path fill="none" stroke="#191970" d="M806.5958,-163.5419C746.5499,-130.0279 599.1421,-47.7538 548.7316,-19.6177"/>
<polygon fill="#191970" stroke="#191970" points="805.0167,-166.6687 815.4545,-168.4862 808.4283,-160.5563 805.0167,-166.6687"/>
</g>
<!-- Node35 -->
<g id="node27" class="node">
<title>Node35</title>
<g id="a_node27"><a xlink:href="spec_2classification_8h.html" target="_top" xlink:title="ODP classification descriptor. ">
<polygon fill="#ffffff" stroke="#000000" points="576,-112.5 576,-131.5 665,-131.5 665,-112.5 576,-112.5"/>
<text text-anchor="middle" x="620.5" y="-119.5" font-family="Helvetica,sans-Serif" font-size="10.00" fill="#000000">classification.h</text>
</a>
</g>
</g>
<!-- Node34&#45;&gt;Node35 -->
<g id="edge30" class="edge">
<title>Node34&#45;&gt;Node35</title>
<path fill="none" stroke="#191970" d="M786.011,-165.7199C747.0292,-155.4228 692.1621,-140.9296 656.4685,-131.5011"/>
<polygon fill="#191970" stroke="#191970" points="785.4936,-169.2032 796.0559,-168.3733 787.2814,-162.4353 785.4936,-169.2032"/>
</g>
<!-- Node34&#45;&gt;Node36 -->
<g id="edge33" class="edge">
<title>Node34&#45;&gt;Node36</title>
<path fill="none" stroke="#191970" d="M872.114,-165.3235C904.2075,-155.0536 948.7211,-140.8093 977.809,-131.5011"/>
<polygon fill="#191970" stroke="#191970" points="871.0411,-161.9919 862.5836,-168.3733 873.1746,-168.6589 871.0411,-161.9919"/>
</g>
<!-- Node35&#45;&gt;Node21 -->
<g id="edge31" class="edge">
<title>Node35&#45;&gt;Node21</title>
<path fill="none" stroke="#191970" d="M596.2936,-106.769C580.5225,-96.8456 560.424,-84.1994 546.825,-75.6427"/>
<polygon fill="#191970" stroke="#191970" points="594.6695,-109.8823 604.9974,-112.2455 598.3974,-103.9575 594.6695,-109.8823"/>
</g>
<!-- Node32&#45;&gt;Node24 -->
<g id="edge36" class="edge">
<title>Node32&#45;&gt;Node24</title>
<path fill="none" stroke="#191970" d="M955.7392,-274.4671C931.879,-256.9244 893.9053,-230.0277 877.5,-224 809.949,-199.18 590.0876,-184.2265 511.6341,-179.5724"/>
<polygon fill="#191970" stroke="#191970" points="953.7048,-277.3157 963.8251,-280.451 957.8689,-271.6889 953.7048,-277.3157"/>
</g>
<!-- Node32&#45;&gt;Node33 -->
<g id="edge37" class="edge">
<title>Node32&#45;&gt;Node33</title>
<path fill="none" stroke="#191970" d="M942.1818,-276.6541C915.922,-266.4419 880.3508,-252.6086 856.9315,-243.5011"/>
<polygon fill="#191970" stroke="#191970" points="941.1569,-280.0108 951.7455,-280.3733 943.694,-273.4867 941.1569,-280.0108"/>
</g>
<!-- Node38 -->
<g id="node30" class="node">
<title>Node38</title>
<g id="a_node30"><a xlink:href="spec_2packet__io__stats_8h.html" target="_top" xlink:title="ODP Packet IO statistics. ">
<polygon fill="#ffffff" stroke="#ff0000" points="925.5,-224.5 925.5,-243.5 1027.5,-243.5 1027.5,-224.5 925.5,-224.5"/>
<text text-anchor="middle" x="976.5" y="-231.5" font-family="Helvetica,sans-Serif" font-size="10.00" fill="#000000">packet_io_stats.h</text>
</a>
</g>
</g>
<!-- Node32&#45;&gt;Node38 -->
<g id="edge38" class="edge">
<title>Node32&#45;&gt;Node38</title>
<path fill="none" stroke="#191970" d="M976.5,-270.1575C976.5,-261.155 976.5,-250.9199 976.5,-243.6427"/>
<polygon fill="#191970" stroke="#191970" points="973.0001,-270.2455 976.5,-280.2455 980.0001,-270.2456 973.0001,-270.2455"/>
</g>
<!-- Node32&#45;&gt;Node40 -->
<g id="edge39" class="edge">
<title>Node32&#45;&gt;Node40</title>
<path fill="none" stroke="#191970" d="M1003.5029,-275.46C1022.1136,-265.4388 1046.3299,-252.3993 1062.5922,-243.6427"/>
<polygon fill="#191970" stroke="#191970" points="1001.7608,-272.4228 994.6154,-280.2455 1005.0795,-278.5861 1001.7608,-272.4228"/>
</g>
<!-- Node45 -->
<g id="node33" class="node">
<title>Node45</title>
<g id="a_node33"><a xlink:href="chksum_8h.html" target="_top" xlink:title="ODP checksum functions. ">
<polygon fill="#ffffff" stroke="#000000" points="1209.5,-224.5 1209.5,-243.5 1273.5,-243.5 1273.5,-224.5 1209.5,-224.5"/>
<text text-anchor="middle" x="1241.5" y="-231.5" font-family="Helvetica,sans-Serif" font-size="10.00" fill="#000000">chksum.h</text>
</a>
</g>
</g>
<!-- Node44&#45;&gt;Node45 -->
<g id="edge41" class="edge">
<title>Node44&#45;&gt;Node45</title>
<path fill="none" stroke="#191970" d="M1241.5,-270.1575C1241.5,-261.155 1241.5,-250.9199 1241.5,-243.6427"/>
<polygon fill="#191970" stroke="#191970" points="1238.0001,-270.2455 1241.5,-280.2455 1245.0001,-270.2456 1238.0001,-270.2455"/>
</g>
<!-- Node47 -->
<g id="node35" class="node">
<title>Node47</title>
<g id="a_node35"><a xlink:href="cpu_8h.html" target="_top" xlink:title="ODP CPU. ">
<polygon fill="#ffffff" stroke="#ff0000" points="1292,-224.5 1292,-243.5 1335,-243.5 1335,-224.5 1292,-224.5"/>
<text text-anchor="middle" x="1313.5" y="-231.5" font-family="Helvetica,sans-Serif" font-size="10.00" fill="#000000">cpu.h</text>
</a>
</g>
</g>
<!-- Node46&#45;&gt;Node47 -->
<g id="edge43" class="edge">
<title>Node46&#45;&gt;Node47</title>
<path fill="none" stroke="#191970" d="M1313.5,-270.1575C1313.5,-261.155 1313.5,-250.9199 1313.5,-243.6427"/>
<polygon fill="#191970" stroke="#191970" points="1310.0001,-270.2455 1313.5,-280.2455 1317.0001,-270.2456 1310.0001,-270.2455"/>
</g>
<!-- Node50 -->
<g id="node37" class="node">
<title>Node50</title>
<g id="a_node37"><a xlink:href="feature_8h.html" target="_top" xlink:title="ODP features. ">
<polygon fill="#ffffff" stroke="#000000" points="1353,-224.5 1353,-243.5 1414,-243.5 1414,-224.5 1353,-224.5"/>
<text text-anchor="middle" x="1383.5" y="-231.5" font-family="Helvetica,sans-Serif" font-size="10.00" fill="#000000">feature.h</text>
</a>
</g>
</g>
<!-- Node49&#45;&gt;Node50 -->
<g id="edge45" class="edge">
<title>Node49&#45;&gt;Node50</title>
<path fill="none" stroke="#191970" d="M1383.5,-270.1575C1383.5,-261.155 1383.5,-250.9199 1383.5,-243.6427"/>
<polygon fill="#191970" stroke="#191970" points="1380.0001,-270.2455 1383.5,-280.2455 1387.0001,-270.2456 1380.0001,-270.2455"/>
</g>
<!-- Node50&#45;&gt;Node51 -->
<g id="edge46" class="edge">
<title>Node50&#45;&gt;Node51</title>
<path fill="none" stroke="#191970" d="M1393.1647,-215.3372C1397.9687,-206.0605 1403.5723,-195.2398 1407.5065,-187.6427"/>
<polygon fill="#191970" stroke="#191970" points="1390.042,-213.7561 1388.5514,-224.2455 1396.258,-216.9751 1390.042,-213.7561"/>
</g>
<!-- Node52 -->
<g id="node39" class="node">
<title>Node52</title>
<g id="a_node39"><a xlink:href="init_8h.html" target="_top" xlink:title="ODP initialization. ">
<polygon fill="#ffffff" stroke="#ff0000" points="1392,-112.5 1392,-131.5 1433,-131.5 1433,-112.5 1392,-112.5"/>
<text text-anchor="middle" x="1412.5" y="-119.5" font-family="Helvetica,sans-Serif" font-size="10.00" fill="#000000">init.h</text>
</a>
</g>
</g>
<!-- Node51&#45;&gt;Node52 -->
<g id="edge47" class="edge">
<title>Node51&#45;&gt;Node52</title>
<path fill="none" stroke="#191970" d="M1412.5,-158.1575C1412.5,-149.155 1412.5,-138.9199 1412.5,-131.6427"/>
<polygon fill="#191970" stroke="#191970" points="1409.0001,-158.2455 1412.5,-168.2455 1416.0001,-158.2456 1409.0001,-158.2455"/>
</g>
<!-- Node57 -->
<g id="node41" class="node">
<title>Node57</title>
<g id="a_node41"><a xlink:href="hash_8h.html" target="_top" xlink:title="ODP Hash function. ">
<polygon fill="#ffffff" stroke="#000000" points="1471,-224.5 1471,-243.5 1520,-243.5 1520,-224.5 1471,-224.5"/>
<text text-anchor="middle" x="1495.5" y="-231.5" font-family="Helvetica,sans-Serif" font-size="10.00" fill="#000000">hash.h</text>
</a>
</g>
</g>
<!-- Node56&#45;&gt;Node57 -->
<g id="edge49" class="edge">
<title>Node56&#45;&gt;Node57</title>
<path fill="none" stroke="#191970" d="M1495.5,-270.1575C1495.5,-261.155 1495.5,-250.9199 1495.5,-243.6427"/>
<polygon fill="#191970" stroke="#191970" points="1492.0001,-270.2455 1495.5,-280.2455 1499.0001,-270.2456 1492.0001,-270.2455"/>
</g>
<!-- Node68&#45;&gt;Node33 -->
<g id="edge60" class="edge">
<title>Node68&#45;&gt;Node33</title>
<path fill="none" stroke="#191970" d="M873.9693,-273.3607C863.7623,-263.6727 851.2531,-251.7995 842.6592,-243.6427"/>
<polygon fill="#191970" stroke="#191970" points="871.5604,-275.8998 881.223,-280.2455 876.3794,-270.8227 871.5604,-275.8998"/>
</g>
</g>
</svg>
