<?xml version="1.0" encoding="UTF-8" standalone="no"?>
<!DOCTYPE svg PUBLIC "-//W3C//DTD SVG 1.1//EN"
 "http://www.w3.org/Graphics/SVG/1.1/DTD/svg11.dtd">
<!-- Generated by graphviz version 2.40.1 (20161225.0304)
 -->
<!-- Title: packet_io.h Pages: 1 -->
<svg width="1722pt" height="901pt"
 viewBox="0.00 0.00 1722.00 901.00" xmlns="http://www.w3.org/2000/svg" xmlns:xlink="http://www.w3.org/1999/xlink">
<g id="graph0" class="graph" transform="scale(1 1) rotate(0) translate(4 897)">
<title>packet_io.h</title>
<polygon fill="#ffffff" stroke="transparent" points="-4,4 -4,-897 1718,-897 1718,4 -4,4"/>
<!-- Node0 -->
<g id="node1" class="node">
<title>Node0</title>
<polygon fill="#bfbfbf" stroke="#000000" points="266.5,-873.5 266.5,-892.5 339.5,-892.5 339.5,-873.5 266.5,-873.5"/>
<text text-anchor="middle" x="303" y="-880.5" font-family="Helvetica,sans-Serif" font-size="10.00" fill="#000000">packet_io.h</text>
</g>
<!-- Node1 -->
<g id="node2" class="node">
<title>Node1</title>
<g id="a_node2"><a xlink:href="std__types_8h.html" target="_top" xlink:title="Standard C language types and definitions for ODP. ">
<polygon fill="#ffffff" stroke="#000000" points="239,-235.5 239,-254.5 351,-254.5 351,-235.5 239,-235.5"/>
<text text-anchor="middle" x="295" y="-242.5" font-family="Helvetica,sans-Serif" font-size="10.00" fill="#000000">odp/api/std_types.h</text>
</a>
</g>
</g>
<!-- Node0&#45;&gt;Node1 -->
<g id="edge1" class="edge">
<title>Node0&#45;&gt;Node1</title>
<path fill="none" stroke="#191970" d="M266.2759,-880.8575C224.1726,-877.0358 154.2466,-866.4226 102,-837 66.3974,-816.9505 38,-811.8599 38,-771 38,-771 38,-771 38,-368 38,-325.4214 59.3802,-314.3274 95,-291 116.8895,-276.6645 179.4992,-263.6362 228.8966,-255.1343"/>
<polygon fill="#191970" stroke="#191970" points="229.6239,-258.561 238.9003,-253.4426 228.4567,-251.659 229.6239,-258.561"/>
</g>
<!-- Node10 -->
<g id="node11" class="node">
<title>Node10</title>
<polygon fill="#ffffff" stroke="#bfbfbf" points="736,-358.5 736,-377.5 840,-377.5 840,-358.5 736,-358.5"/>
<text text-anchor="middle" x="788" y="-365.5" font-family="Helvetica,sans-Serif" font-size="10.00" fill="#000000">odp/api/abi/pool.h</text>
</g>
<!-- Node0&#45;&gt;Node10 -->
<g id="edge12" class="edge">
<title>Node0&#45;&gt;Node10</title>
<path fill="none" stroke="#191970" d="M339.6295,-876.2338C415.1185,-861.2429 581,-822.4482 581,-771 581,-771 581,-771 581,-648 581,-584.1615 721.8909,-435.08 771.2015,-384.8578"/>
<polygon fill="#191970" stroke="#191970" points="773.7585,-387.2496 778.2936,-377.6744 768.7772,-382.3315 773.7585,-387.2496"/>
</g>
<!-- Node11 -->
<g id="node12" class="node">
<title>Node11</title>
<polygon fill="#ffffff" stroke="#bfbfbf" points="129,-817.5 129,-836.5 275,-836.5 275,-817.5 129,-817.5"/>
<text text-anchor="middle" x="202" y="-824.5" font-family="Helvetica,sans-Serif" font-size="10.00" fill="#000000">odp/api/abi/classification.h</text>
</g>
<!-- Node0&#45;&gt;Node11 -->
<g id="edge13" class="edge">
<title>Node0&#45;&gt;Node11</title>
<path fill="none" stroke="#191970" d="M285.4071,-873.2455C269.621,-864.4928 246.2361,-851.527 228.2413,-841.5496"/>
<polygon fill="#191970" stroke="#191970" points="229.8341,-838.4308 219.3913,-836.6427 226.4397,-844.5528 229.8341,-838.4308"/>
</g>
<!-- Node12 -->
<g id="node13" class="node">
<title>Node12</title>
<polygon fill="#ffffff" stroke="#bfbfbf" points="104,-358.5 104,-377.5 220,-377.5 220,-358.5 104,-358.5"/>
<text text-anchor="middle" x="162" y="-365.5" font-family="Helvetica,sans-Serif" font-size="10.00" fill="#000000">odp/api/abi/packet.h</text>
</g>
<!-- Node0&#45;&gt;Node12 -->
<g id="edge14" class="edge">
<title>Node0&#45;&gt;Node12</title>
<path fill="none" stroke="#191970" d="M266.2261,-878.1413C219.0046,-871.183 140.6696,-856.9778 120,-837 98.0517,-815.7862 101,-801.5246 101,-771 101,-771 101,-771 101,-480 101,-442.6364 127.5056,-405.8655 145.5729,-385.141"/>
<polygon fill="#191970" stroke="#191970" points="148.3487,-387.29 152.4688,-377.5291 143.1609,-382.5903 148.3487,-387.29"/>
</g>
<!-- Node13 -->
<g id="node14" class="node">
<title>Node13</title>
<polygon fill="#ffffff" stroke="#bfbfbf" points="238,-358.5 238,-377.5 368,-377.5 368,-358.5 238,-358.5"/>
<text text-anchor="middle" x="303" y="-365.5" font-family="Helvetica,sans-Serif" font-size="10.00" fill="#000000">odp/api/abi/packet_io.h</text>
</g>
<!-- Node0&#45;&gt;Node13 -->
<g id="edge15" class="edge">
<title>Node0&#45;&gt;Node13</title>
<path fill="none" stroke="#191970" d="M303,-873.4116C303,-854.0538 303,-808.9167 303,-771 303,-771 303,-771 303,-480 303,-447.7116 303,-410.1872 303,-387.8048"/>
<polygon fill="#191970" stroke="#191970" points="306.5001,-387.5883 303,-377.5884 299.5001,-387.5884 306.5001,-387.5883"/>
</g>
<!-- Node14 -->
<g id="node15" class="node">
<title>Node14</title>
<polygon fill="#ffffff" stroke="#bfbfbf" points="386.5,-358.5 386.5,-377.5 499.5,-377.5 499.5,-358.5 386.5,-358.5"/>
<text text-anchor="middle" x="443" y="-365.5" font-family="Helvetica,sans-Serif" font-size="10.00" fill="#000000">odp/api/abi/queue.h</text>
</g>
<!-- Node0&#45;&gt;Node14 -->
<g id="edge16" class="edge">
<title>Node0&#45;&gt;Node14</title>
<path fill="none" stroke="#191970" d="M311.9063,-873.3544C327.9375,-854.945 360,-812.8901 360,-771 360,-771 360,-771 360,-709.5 360,-631.9279 379,-613.5721 379,-536 379,-536 379,-536 379,-480 379,-442.2379 406.7654,-405.6312 425.7202,-385.0404"/>
<polygon fill="#191970" stroke="#191970" points="428.3365,-387.3686 432.7173,-377.7219 423.2769,-382.5312 428.3365,-387.3686"/>
</g>
<!-- Node15 -->
<g id="node16" class="node">
<title>Node15</title>
<g id="a_node16"><a xlink:href="spec_2packet__io_8h.html" target="_top" xlink:title="ODP Packet IO. ">
<polygon fill="#ffffff" stroke="#000000" points="844.5,-817.5 844.5,-836.5 981.5,-836.5 981.5,-817.5 844.5,-817.5"/>
<text text-anchor="middle" x="913" y="-824.5" font-family="Helvetica,sans-Serif" font-size="10.00" fill="#000000">odp/api/spec/packet_io.h</text>
</a>
</g>
</g>
<!-- Node0&#45;&gt;Node15 -->
<g id="edge17" class="edge">
<title>Node0&#45;&gt;Node15</title>
<path fill="none" stroke="#191970" d="M339.7845,-879.6231C436.7499,-870.7213 700.9972,-846.4626 834.1244,-834.241"/>
<polygon fill="#191970" stroke="#191970" points="834.6187,-837.7105 844.2569,-833.3108 833.9787,-830.7398 834.6187,-837.7105"/>
</g>
<!-- Node2 -->
<g id="node3" class="node">
<title>Node2</title>
<polygon fill="#ffffff" stroke="#bfbfbf" points="154,-174 154,-193 284,-193 284,-174 154,-174"/>
<text text-anchor="middle" x="219" y="-181" font-family="Helvetica,sans-Serif" font-size="10.00" fill="#000000">odp/api/abi/std_types.h</text>
</g>
<!-- Node1&#45;&gt;Node2 -->
<g id="edge2" class="edge">
<title>Node1&#45;&gt;Node2</title>
<path fill="none" stroke="#191970" d="M283.125,-235.3906C271.3703,-225.8786 253.1514,-211.1357 239.1328,-199.7917"/>
<polygon fill="#191970" stroke="#191970" points="241.0178,-196.8146 231.0424,-193.2449 236.6144,-202.2562 241.0178,-196.8146"/>
</g>
<!-- Node3 -->
<g id="node4" class="node">
<title>Node3</title>
<g id="a_node4"><a xlink:href="spec_2std__types_8h.html" target="_top" xlink:title="Standard C language types and definitions for ODP. ">
<polygon fill="#ffffff" stroke="#000000" points="302.5,-174 302.5,-193 439.5,-193 439.5,-174 302.5,-174"/>
<text text-anchor="middle" x="371" y="-181" font-family="Helvetica,sans-Serif" font-size="10.00" fill="#000000">odp/api/spec/std_types.h</text>
</a>
</g>
</g>
<!-- Node1&#45;&gt;Node3 -->
<g id="edge3" class="edge">
<title>Node1&#45;&gt;Node3</title>
<path fill="none" stroke="#191970" d="M306.875,-235.3906C318.6297,-225.8786 336.8486,-211.1357 350.8672,-199.7917"/>
<polygon fill="#191970" stroke="#191970" points="353.3856,-202.2562 358.9576,-193.2449 348.9822,-196.8146 353.3856,-202.2562"/>
</g>
<!-- Node4 -->
<g id="node5" class="node">
<title>Node4</title>
<polygon fill="#ffffff" stroke="#bfbfbf" points="573.5,-.5 573.5,-19.5 694.5,-19.5 694.5,-.5 573.5,-.5"/>
<text text-anchor="middle" x="634" y="-7.5" font-family="Helvetica,sans-Serif" font-size="10.00" fill="#000000">odp/visibility_begin.h</text>
</g>
<!-- Node3&#45;&gt;Node4 -->
<g id="edge4" class="edge">
<title>Node3&#45;&gt;Node4</title>
<path fill="none" stroke="#191970" d="M363.9355,-173.8724C347.837,-150.6761 312.0572,-91.029 342,-56 356.2447,-39.3356 481.5653,-24.4234 563.3353,-16.3486"/>
<polygon fill="#191970" stroke="#191970" points="563.7153,-19.8282 573.3284,-15.3742 563.0359,-12.8612 563.7153,-19.8282"/>
</g>
<!-- Node5 -->
<g id="node6" class="node">
<title>Node5</title>
<polygon fill="#ffffff" stroke="#bfbfbf" points="236.5,-112.5 236.5,-131.5 289.5,-131.5 289.5,-112.5 236.5,-112.5"/>
<text text-anchor="middle" x="263" y="-119.5" font-family="Helvetica,sans-Serif" font-size="10.00" fill="#000000">stdint.h</text>
</g>
<!-- Node3&#45;&gt;Node5 -->
<g id="edge5" class="edge">
<title>Node3&#45;&gt;Node5</title>
<path fill="none" stroke="#191970" d="M354.125,-173.8906C336.5302,-163.8713 308.7434,-148.0483 288.4759,-136.5071"/>
<polygon fill="#191970" stroke="#191970" points="290.1783,-133.4489 279.7565,-131.5419 286.7144,-139.5318 290.1783,-133.4489"/>
</g>
<!-- Node6 -->
<g id="node7" class="node">
<title>Node6</title>
<g id="a_node7"><a xlink:href="align_8h.html" target="_top" xlink:title="ODP alignments. ">
<polygon fill="#ffffff" stroke="#000000" points="431.5,-112.5 431.5,-131.5 520.5,-131.5 520.5,-112.5 431.5,-112.5"/>
<text text-anchor="middle" x="476" y="-119.5" font-family="Helvetica,sans-Serif" font-size="10.00" fill="#000000">odp/api/align.h</text>
</a>
</g>
</g>
<!-- Node3&#45;&gt;Node6 -->
<g id="edge6" class="edge">
<title>Node3&#45;&gt;Node6</title>
<path fill="none" stroke="#191970" d="M387.4063,-173.8906C404.4353,-163.9165 431.2841,-148.1908 450.9651,-136.6633"/>
<polygon fill="#191970" stroke="#191970" points="452.849,-139.6161 459.709,-131.5419 449.3112,-133.5759 452.849,-139.6161"/>
</g>
<!-- Node9 -->
<g id="node10" class="node">
<title>Node9</title>
<polygon fill="#ffffff" stroke="#bfbfbf" points="1241,-.5 1241,-19.5 1353,-19.5 1353,-.5 1241,-.5"/>
<text text-anchor="middle" x="1297" y="-7.5" font-family="Helvetica,sans-Serif" font-size="10.00" fill="#000000">odp/visibility_end.h</text>
</g>
<!-- Node3&#45;&gt;Node9 -->
<g id="edge11" class="edge">
<title>Node3&#45;&gt;Node9</title>
<path fill="none" stroke="#191970" d="M439.6303,-177.4101C550.4709,-166.1369 774.6874,-137.3477 955,-76 973.4415,-69.7256 975.4623,-61.9843 994,-56 1073.0204,-30.4907 1168.3012,-18.9881 1230.6506,-13.8948"/>
<polygon fill="#191970" stroke="#191970" points="1231.0534,-17.3741 1240.749,-13.1025 1230.5058,-10.3955 1231.0534,-17.3741"/>
</g>
<!-- Node7 -->
<g id="node8" class="node">
<title>Node7</title>
<polygon fill="#ffffff" stroke="#bfbfbf" points="422.5,-56.5 422.5,-75.5 529.5,-75.5 529.5,-56.5 422.5,-56.5"/>
<text text-anchor="middle" x="476" y="-63.5" font-family="Helvetica,sans-Serif" font-size="10.00" fill="#000000">odp/api/abi/align.h</text>
</g>
<!-- Node6&#45;&gt;Node7 -->
<g id="edge7" class="edge">
<title>Node6&#45;&gt;Node7</title>
<path fill="none" stroke="#191970" d="M476,-112.2455C476,-104.9382 476,-94.6944 476,-85.7046"/>
<polygon fill="#191970" stroke="#191970" points="479.5001,-85.6426 476,-75.6427 472.5001,-85.6427 479.5001,-85.6426"/>
</g>
<!-- Node8 -->
<g id="node9" class="node">
<title>Node8</title>
<g id="a_node9"><a xlink:href="spec_2align_8h.html" target="_top" xlink:title="ODP alignments. ">
<polygon fill="#ffffff" stroke="#000000" points="662,-56.5 662,-75.5 776,-75.5 776,-56.5 662,-56.5"/>
<text text-anchor="middle" x="719" y="-63.5" font-family="Helvetica,sans-Serif" font-size="10.00" fill="#000000">odp/api/spec/align.h</text>
</a>
</g>
</g>
<!-- Node6&#45;&gt;Node8 -->
<g id="edge8" class="edge">
<title>Node6&#45;&gt;Node8</title>
<path fill="none" stroke="#191970" d="M517.4971,-112.4369C559.0847,-102.8529 623.1834,-88.0812 667.8831,-77.78"/>
<polygon fill="#191970" stroke="#191970" points="668.7155,-81.18 677.6741,-75.5237 667.1435,-74.3588 668.7155,-81.18"/>
</g>
<!-- Node8&#45;&gt;Node4 -->
<g id="edge9" class="edge">
<title>Node8&#45;&gt;Node4</title>
<path fill="none" stroke="#191970" d="M704.1941,-56.2455C691.2744,-47.7337 672.3069,-35.2375 657.3448,-25.3801"/>
<polygon fill="#191970" stroke="#191970" points="658.9124,-22.2216 648.6362,-19.6427 655.0613,-28.067 658.9124,-22.2216"/>
</g>
<!-- Node8&#45;&gt;Node9 -->
<g id="edge10" class="edge">
<title>Node8&#45;&gt;Node9</title>
<path fill="none" stroke="#191970" d="M776.0027,-60.4772C883.6847,-50.0444 1116.438,-27.4939 1230.823,-16.4116"/>
<polygon fill="#191970" stroke="#191970" points="1231.2337,-19.8883 1240.8496,-15.4402 1230.5586,-12.9209 1231.2337,-19.8883"/>
</g>
<!-- Node15&#45;&gt;Node4 -->
<g id="edge18" class="edge">
<title>Node15&#45;&gt;Node4</title>
<path fill="none" stroke="#191970" d="M844.257,-821.3702C763.8467,-814.052 636.1017,-799.9343 592,-781 437.0764,-714.4864 0,-475.0983 0,-306.5 0,-306.5 0,-306.5 0,-122 0,-65.3091 398.1771,-28.1317 563.429,-15.1434"/>
<polygon fill="#191970" stroke="#191970" points="563.7985,-18.6253 573.4966,-14.3594 563.255,-11.6464 563.7985,-18.6253"/>
</g>
<!-- Node15&#45;&gt;Node9 -->
<g id="edge79" class="edge">
<title>Node15&#45;&gt;Node9</title>
<path fill="none" stroke="#191970" d="M981.6831,-826.2918C1156.4892,-824.0007 1608.5948,-814.8376 1667,-781 1699.905,-761.9361 1714,-747.5286 1714,-709.5 1714,-709.5 1714,-709.5 1714,-122 1714,-50.2539 1480.8503,-23.1818 1363.2207,-14.0889"/>
<polygon fill="#191970" stroke="#191970" points="1363.4726,-10.5981 1353.2385,-13.339 1362.9482,-17.5784 1363.4726,-10.5981"/>
</g>
<!-- Node16 -->
<g id="node17" class="node">
<title>Node16</title>
<g id="a_node17"><a xlink:href="deprecated_8h.html" target="_top" xlink:title="Control deprecated API definitions. ">
<polygon fill="#ffffff" stroke="#000000" points="1438.5,-235.5 1438.5,-254.5 1557.5,-254.5 1557.5,-235.5 1438.5,-235.5"/>
<text text-anchor="middle" x="1498" y="-242.5" font-family="Helvetica,sans-Serif" font-size="10.00" fill="#000000">odp/api/deprecated.h</text>
</a>
</g>
</g>
<!-- Node15&#45;&gt;Node16 -->
<g id="edge19" class="edge">
<title>Node15&#45;&gt;Node16</title>
<path fill="none" stroke="#191970" d="M981.7749,-820.6132C1138.756,-805.1105 1510,-762.8123 1510,-709.5 1510,-709.5 1510,-709.5 1510,-368 1510,-331.3261 1504.6502,-288.7908 1501.0947,-264.5711"/>
<polygon fill="#191970" stroke="#191970" points="1504.5327,-263.8983 1499.5688,-254.5382 1497.6123,-264.9508 1504.5327,-263.8983"/>
</g>
<!-- Node18 -->
<g id="node19" class="node">
<title>Node18</title>
<g id="a_node19"><a xlink:href="packet__io__stats_8h.html" target="_top" xlink:title="ODP packet IO stats. ">
<polygon fill="#ffffff" stroke="#000000" points="1113.5,-761.5 1113.5,-780.5 1254.5,-780.5 1254.5,-761.5 1113.5,-761.5"/>
<text text-anchor="middle" x="1184" y="-768.5" font-family="Helvetica,sans-Serif" font-size="10.00" fill="#000000">odp/api/packet_io_stats.h</text>
</a>
</g>
</g>
<!-- Node15&#45;&gt;Node18 -->
<g id="edge23" class="edge">
<title>Node15&#45;&gt;Node18</title>
<path fill="none" stroke="#191970" d="M959.2786,-817.4369C1005.9505,-807.7925 1078.0449,-792.8948 1127.9331,-782.5858"/>
<polygon fill="#191970" stroke="#191970" points="1128.8274,-785.975 1137.9122,-780.5237 1127.4108,-779.1198 1128.8274,-785.975"/>
</g>
<!-- Node20 -->
<g id="node21" class="node">
<title>Node20</title>
<g id="a_node21"><a xlink:href="queue_8h.html" target="_top" xlink:title="ODP queue. ">
<polygon fill="#ffffff" stroke="#000000" points="865.5,-638.5 865.5,-657.5 960.5,-657.5 960.5,-638.5 865.5,-638.5"/>
<text text-anchor="middle" x="913" y="-645.5" font-family="Helvetica,sans-Serif" font-size="10.00" fill="#000000">odp/api/queue.h</text>
</a>
</g>
</g>
<!-- Node15&#45;&gt;Node20 -->
<g id="edge72" class="edge">
<title>Node15&#45;&gt;Node20</title>
<path fill="none" stroke="#191970" d="M913,-817.3762C913,-789.2097 913,-706.5126 913,-668.0713"/>
<polygon fill="#191970" stroke="#191970" points="916.5001,-667.6714 913,-657.6714 909.5001,-667.6714 916.5001,-667.6714"/>
</g>
<!-- Node26 -->
<g id="node27" class="node">
<title>Node26</title>
<g id="a_node27"><a xlink:href="packet_8h.html" target="_top" xlink:title="ODP packet descriptor. ">
<polygon fill="#ffffff" stroke="#000000" points="607,-414.5 607,-433.5 705,-433.5 705,-414.5 607,-414.5"/>
<text text-anchor="middle" x="656" y="-421.5" font-family="Helvetica,sans-Serif" font-size="10.00" fill="#000000">odp/api/packet.h</text>
</a>
</g>
</g>
<!-- Node15&#45;&gt;Node26 -->
<g id="edge78" class="edge">
<title>Node15&#45;&gt;Node26</title>
<path fill="none" stroke="#191970" d="M844.3227,-818.8991C780.4226,-807.0817 695,-778.399 695,-709.5 695,-709.5 695,-709.5 695,-536 695,-501.5398 678.3304,-464.2666 666.7876,-442.5877"/>
<polygon fill="#191970" stroke="#191970" points="669.8252,-440.8481 661.9233,-433.7906 663.6994,-444.2355 669.8252,-440.8481"/>
</g>
<!-- Node28 -->
<g id="node29" class="node">
<title>Node28</title>
<g id="a_node29"><a xlink:href="time_8h.html" target="_top" xlink:title="ODP time. ">
<polygon fill="#ffffff" stroke="#000000" points="531.5,-297 531.5,-316 618.5,-316 618.5,-297 531.5,-297"/>
<text text-anchor="middle" x="575" y="-304" font-family="Helvetica,sans-Serif" font-size="10.00" fill="#000000">odp/api/time.h</text>
</a>
</g>
</g>
<!-- Node15&#45;&gt;Node28 -->
<g id="edge77" class="edge">
<title>Node15&#45;&gt;Node28</title>
<path fill="none" stroke="#191970" d="M844.273,-819.397C737.2717,-805.6243 543,-772.0111 543,-709.5 543,-709.5 543,-709.5 543,-648 543,-572.6368 566,-555.3632 566,-480 566,-480 566,-480 566,-424 566,-389.5393 569.8962,-349.5591 572.5615,-326.241"/>
<polygon fill="#191970" stroke="#191970" points="576.0467,-326.5722 573.7486,-316.2296 569.0954,-325.7479 576.0467,-326.5722"/>
</g>
<!-- Node37 -->
<g id="node38" class="node">
<title>Node37</title>
<g id="a_node38"><a xlink:href="reassembly_8h.html" target="_top" xlink:title="ODP REASSEMBLY API &#45; platform specific header. ">
<polygon fill="#ffffff" stroke="#000000" points="1538,-761.5 1538,-780.5 1658,-780.5 1658,-761.5 1538,-761.5"/>
<text text-anchor="middle" x="1598" y="-768.5" font-family="Helvetica,sans-Serif" font-size="10.00" fill="#000000">odp/api/reassembly.h</text>
</a>
</g>
</g>
<!-- Node15&#45;&gt;Node37 -->
<g id="edge73" class="edge">
<title>Node15&#45;&gt;Node37</title>
<path fill="none" stroke="#191970" d="M981.8423,-823.1491C1095.0998,-816.5148 1327.7527,-801.6291 1524,-781 1525.2692,-780.8666 1526.5501,-780.7287 1527.8401,-780.5867"/>
<polygon fill="#191970" stroke="#191970" points="1528.3278,-784.0538 1537.8604,-779.4298 1527.5249,-777.1 1528.3278,-784.0538"/>
</g>
<!-- Node17 -->
<g id="node18" class="node">
<title>Node17</title>
<g id="a_node18"><a xlink:href="spec_2deprecated_8h.html" target="_top" xlink:title="Macro for deprecated API definitions. ">
<polygon fill="#ffffff" stroke="#000000" points="1224.5,-56.5 1224.5,-75.5 1369.5,-75.5 1369.5,-56.5 1224.5,-56.5"/>
<text text-anchor="middle" x="1297" y="-63.5" font-family="Helvetica,sans-Serif" font-size="10.00" fill="#000000">odp/api/spec/deprecated.h</text>
</a>
</g>
</g>
<!-- Node16&#45;&gt;Node17 -->
<g id="edge20" class="edge">
<title>Node16&#45;&gt;Node17</title>
<path fill="none" stroke="#191970" d="M1487.1934,-235.3762C1454.5426,-206.2991 1356.6362,-119.1088 1315.5114,-82.4852"/>
<polygon fill="#191970" stroke="#191970" points="1317.6557,-79.7082 1307.8601,-75.6714 1313.0003,-84.9358 1317.6557,-79.7082"/>
</g>
<!-- Node17&#45;&gt;Node4 -->
<g id="edge21" class="edge">
<title>Node17&#45;&gt;Node4</title>
<path fill="none" stroke="#191970" d="M1224.4683,-59.8736C1096.3923,-49.0558 831.7448,-26.7024 704.8646,-15.9855"/>
<polygon fill="#191970" stroke="#191970" points="705.1241,-12.4951 694.8649,-15.1409 704.5348,-19.4703 705.1241,-12.4951"/>
</g>
<!-- Node17&#45;&gt;Node9 -->
<g id="edge22" class="edge">
<title>Node17&#45;&gt;Node9</title>
<path fill="none" stroke="#191970" d="M1297,-56.2455C1297,-48.9382 1297,-38.6944 1297,-29.7046"/>
<polygon fill="#191970" stroke="#191970" points="1300.5001,-29.6426 1297,-19.6427 1293.5001,-29.6427 1300.5001,-29.6426"/>
</g>
<!-- Node19 -->
<g id="node20" class="node">
<title>Node19</title>
<g id="a_node20"><a xlink:href="spec_2packet__io__stats_8h.html" target="_top" xlink:title="ODP Packet IO statistics. ">
<polygon fill="#ffffff" stroke="#000000" points="1300,-694.5 1300,-724.5 1414,-724.5 1414,-694.5 1300,-694.5"/>
<text text-anchor="start" x="1308" y="-712.5" font-family="Helvetica,sans-Serif" font-size="10.00" fill="#000000">odp/api/spec/packet</text>
<text text-anchor="middle" x="1357" y="-701.5" font-family="Helvetica,sans-Serif" font-size="10.00" fill="#000000">_io_stats.h</text>
</a>
</g>
</g>
<!-- Node18&#45;&gt;Node19 -->
<g id="edge24" class="edge">
<title>Node18&#45;&gt;Node19</title>
<path fill="none" stroke="#191970" d="M1211.0313,-761.3906C1236.0706,-752.4893 1273.9957,-739.0073 1304.9129,-728.0165"/>
<polygon fill="#191970" stroke="#191970" points="1306.4295,-731.192 1314.6794,-724.5446 1304.0847,-724.5964 1306.4295,-731.192"/>
</g>
<!-- Node19&#45;&gt;Node4 -->
<g id="edge25" class="edge">
<title>Node19&#45;&gt;Node4</title>
<path fill="none" stroke="#191970" d="M1357,-694.2899C1357,-671.892 1357,-628.7188 1357,-592 1357,-592 1357,-592 1357,-480 1357,-393.0285 1273.9453,-409.6886 1204,-358 1161.5673,-326.6429 1154.0717,-312.7467 1106,-291 1047.0723,-264.3423 1026.6085,-274.6852 965,-255 899.194,-233.9735 882.0304,-229.41 820,-199 732.0075,-155.8622 682.0435,-163.0324 637,-76 629.6684,-61.8341 629.4168,-43.5831 630.7167,-29.8652"/>
<polygon fill="#191970" stroke="#191970" points="634.2331,-29.9655 632.0522,-19.5976 627.2916,-29.0626 634.2331,-29.9655"/>
</g>
<!-- Node19&#45;&gt;Node9 -->
<g id="edge71" class="edge">
<title>Node19&#45;&gt;Node9</title>
<path fill="none" stroke="#191970" d="M1371.9682,-694.4998C1446.8427,-617.708 1770.1913,-264.1304 1592,-56 1577.296,-38.8254 1445.6101,-23.6945 1363.2267,-15.799"/>
<polygon fill="#191970" stroke="#191970" points="1363.4729,-12.3067 1353.1876,-14.8491 1362.8135,-19.2756 1363.4729,-12.3067"/>
</g>
<!-- Node19&#45;&gt;Node16 -->
<g id="edge26" class="edge">
<title>Node19&#45;&gt;Node16</title>
<path fill="none" stroke="#191970" d="M1361.6112,-694.3093C1382.5559,-625.3106 1468.717,-341.4677 1492.114,-264.3905"/>
<polygon fill="#191970" stroke="#191970" points="1495.5397,-265.1545 1495.0953,-254.569 1488.8415,-263.1212 1495.5397,-265.1545"/>
</g>
<!-- Node19&#45;&gt;Node20 -->
<g id="edge27" class="edge">
<title>Node19&#45;&gt;Node20</title>
<path fill="none" stroke="#191970" d="M1299.8637,-701.5859C1214.9019,-689.8175 1056.1347,-667.8261 970.7938,-656.0052"/>
<polygon fill="#191970" stroke="#191970" points="971.146,-652.5207 960.7603,-654.6154 970.1855,-659.4545 971.146,-652.5207"/>
</g>
<!-- Node20&#45;&gt;Node1 -->
<g id="edge28" class="edge">
<title>Node20&#45;&gt;Node1</title>
<path fill="none" stroke="#191970" d="M885.552,-638.4026C792.1572,-605.8284 477.9462,-496.9106 216,-414 162.5081,-397.0689 128.5435,-422.9765 95,-378 49.9405,-317.5824 168.2105,-276.1792 241.6351,-257.0587"/>
<polygon fill="#191970" stroke="#191970" points="242.8454,-260.3625 251.6763,-254.5089 241.1225,-253.5778 242.8454,-260.3625"/>
</g>
<!-- Node20&#45;&gt;Node10 -->
<g id="edge32" class="edge">
<title>Node20&#45;&gt;Node10</title>
<path fill="none" stroke="#191970" d="M899.2595,-638.3205C876.1498,-620.7865 832,-581.3537 832,-536 832,-536 832,-536 832,-480 832,-445.0351 813.1933,-407.9171 800.1707,-386.4062"/>
<polygon fill="#191970" stroke="#191970" points="802.9709,-384.2845 794.6827,-377.6848 797.0463,-388.0126 802.9709,-384.2845"/>
</g>
<!-- Node20&#45;&gt;Node14 -->
<g id="edge30" class="edge">
<title>Node20&#45;&gt;Node14</title>
<path fill="none" stroke="#191970" d="M896.7765,-638.4556C845.8747,-608.4942 684.8109,-513.5714 552,-434 522.9415,-416.5901 489.6477,-396.3942 467.5817,-382.974"/>
<polygon fill="#191970" stroke="#191970" points="469.2195,-379.8736 458.8573,-377.6652 465.5806,-385.8535 469.2195,-379.8736"/>
</g>
<!-- Node21 -->
<g id="node22" class="node">
<title>Node21</title>
<polygon fill="#ffffff" stroke="#bfbfbf" points="986,-358.5 986,-377.5 1096,-377.5 1096,-358.5 986,-358.5"/>
<text text-anchor="middle" x="1041" y="-365.5" font-family="Helvetica,sans-Serif" font-size="10.00" fill="#000000">odp/api/abi/event.h</text>
</g>
<!-- Node20&#45;&gt;Node21 -->
<g id="edge29" class="edge">
<title>Node20&#45;&gt;Node21</title>
<path fill="none" stroke="#191970" d="M922.2188,-638.4119C938.8125,-620.0983 972,-578.1966 972,-536 972,-536 972,-536 972,-480 972,-441.3203 1002.2001,-404.7993 1022.6409,-384.5101"/>
<polygon fill="#191970" stroke="#191970" points="1025.1035,-386.998 1029.914,-377.5582 1020.2667,-381.9378 1025.1035,-386.998"/>
</g>
<!-- Node22 -->
<g id="node23" class="node">
<title>Node22</title>
<polygon fill="#ffffff" stroke="#bfbfbf" points="858,-358.5 858,-377.5 968,-377.5 968,-358.5 858,-358.5"/>
<text text-anchor="middle" x="913" y="-365.5" font-family="Helvetica,sans-Serif" font-size="10.00" fill="#000000">odp/api/abi/buffer.h</text>
</g>
<!-- Node20&#45;&gt;Node22 -->
<g id="edge31" class="edge">
<title>Node20&#45;&gt;Node22</title>
<path fill="none" stroke="#191970" d="M913,-638.4116C913,-619.0538 913,-573.9167 913,-536 913,-536 913,-536 913,-480 913,-447.7116 913,-410.1872 913,-387.8048"/>
<polygon fill="#191970" stroke="#191970" points="916.5001,-387.5883 913,-377.5884 909.5001,-387.5884 916.5001,-387.5883"/>
</g>
<!-- Node23 -->
<g id="node24" class="node">
<title>Node23</title>
<g id="a_node24"><a xlink:href="spec_2queue_8h.html" target="_top" xlink:title="ODP queue. ">
<polygon fill="#ffffff" stroke="#000000" points="1145,-582.5 1145,-601.5 1265,-601.5 1265,-582.5 1145,-582.5"/>
<text text-anchor="middle" x="1205" y="-589.5" font-family="Helvetica,sans-Serif" font-size="10.00" fill="#000000">odp/api/spec/queue.h</text>
</a>
</g>
</g>
<!-- Node20&#45;&gt;Node23 -->
<g id="edge33" class="edge">
<title>Node20&#45;&gt;Node23</title>
<path fill="none" stroke="#191970" d="M960.5647,-638.878C1010.9217,-629.2205 1090.5224,-613.9546 1145.1189,-603.4841"/>
<polygon fill="#191970" stroke="#191970" points="1145.8478,-606.9081 1155.0096,-601.5872 1144.5293,-600.0334 1145.8478,-606.9081"/>
</g>
<!-- Node23&#45;&gt;Node4 -->
<g id="edge34" class="edge">
<title>Node23&#45;&gt;Node4</title>
<path fill="none" stroke="#191970" d="M1205,-582.4116C1205,-563.0538 1205,-517.9167 1205,-480 1205,-480 1205,-480 1205,-424 1205,-334.9014 1136.3231,-327.4023 1055,-291 929.2067,-234.6917 871.8664,-313.3347 747,-255 648.9717,-209.2034 611.8284,-180.0054 582,-76 579.5495,-67.4556 578.3489,-64.1044 582,-56 587.5697,-43.6369 598.2863,-33.2563 608.5506,-25.5033"/>
<polygon fill="#191970" stroke="#191970" points="610.7618,-28.2277 616.9433,-19.623 606.7451,-22.4948 610.7618,-28.2277"/>
</g>
<!-- Node23&#45;&gt;Node9 -->
<g id="edge70" class="edge">
<title>Node23&#45;&gt;Node9</title>
<path fill="none" stroke="#191970" d="M1224.8695,-582.377C1239.8742,-574.3215 1260.1742,-561.6413 1274,-546 1376.4134,-430.1381 1334.7982,-356.8569 1430,-235 1451.6356,-207.3068 1528.5821,-159.8619 1550,-132 1566.8397,-110.0938 1570.8454,-102.9365 1577,-76 1578.98,-67.3344 1582.7534,-62.7757 1577,-56 1563.3061,-39.8728 1441.9068,-24.676 1363.5185,-16.4229"/>
<polygon fill="#191970" stroke="#191970" points="1363.5421,-12.9066 1353.2338,-15.3538 1362.8183,-19.8691 1363.5421,-12.9066"/>
</g>
<!-- Node24 -->
<g id="node25" class="node">
<title>Node24</title>
<g id="a_node25"><a xlink:href="event_8h.html" target="_top" xlink:title="ODP event. ">
<polygon fill="#ffffff" stroke="#000000" points="1072,-526.5 1072,-545.5 1164,-545.5 1164,-526.5 1072,-526.5"/>
<text text-anchor="middle" x="1118" y="-533.5" font-family="Helvetica,sans-Serif" font-size="10.00" fill="#000000">odp/api/event.h</text>
</a>
</g>
</g>
<!-- Node23&#45;&gt;Node24 -->
<g id="edge35" class="edge">
<title>Node23&#45;&gt;Node24</title>
<path fill="none" stroke="#191970" d="M1189.8458,-582.2455C1176.4973,-573.6534 1156.8414,-561.0014 1141.4617,-551.1018"/>
<polygon fill="#191970" stroke="#191970" points="1143.2836,-548.1121 1132.9806,-545.6427 1139.4949,-553.9982 1143.2836,-548.1121"/>
</g>
<!-- Node31 -->
<g id="node32" class="node">
<title>Node31</title>
<g id="a_node32"><a xlink:href="queue__types_8h.html" target="_top" xlink:title="ODP queue types. ">
<polygon fill="#ffffff" stroke="#000000" points="1225.5,-291.5 1225.5,-321.5 1336.5,-321.5 1336.5,-291.5 1225.5,-291.5"/>
<text text-anchor="start" x="1233.5" y="-309.5" font-family="Helvetica,sans-Serif" font-size="10.00" fill="#000000">odp/api/spec/queue</text>
<text text-anchor="middle" x="1281" y="-298.5" font-family="Helvetica,sans-Serif" font-size="10.00" fill="#000000">_types.h</text>
</a>
</g>
</g>
<!-- Node23&#45;&gt;Node31 -->
<g id="edge57" class="edge">
<title>Node23&#45;&gt;Node31</title>
<path fill="none" stroke="#191970" d="M1217.5499,-582.4082C1239.136,-564.7155 1281,-524.6472 1281,-480 1281,-480 1281,-480 1281,-424 1281,-392.3014 1281,-355.7926 1281,-331.9922"/>
<polygon fill="#191970" stroke="#191970" points="1284.5001,-331.7101 1281,-321.7101 1277.5001,-331.7102 1284.5001,-331.7101"/>
</g>
<!-- Node24&#45;&gt;Node21 -->
<g id="edge36" class="edge">
<title>Node24&#45;&gt;Node21</title>
<path fill="none" stroke="#191970" d="M1093.9226,-526.376C1078.571,-518.8844 1059.7843,-506.8985 1050,-490 1031.4599,-457.9793 1033.9862,-413.0387 1037.4924,-387.5933"/>
<polygon fill="#191970" stroke="#191970" points="1040.9549,-388.1045 1039.0482,-377.6826 1034.0396,-387.0188 1040.9549,-388.1045"/>
</g>
<!-- Node25 -->
<g id="node26" class="node">
<title>Node25</title>
<g id="a_node26"><a xlink:href="spec_2event_8h.html" target="_top" xlink:title="ODP event. ">
<polygon fill="#ffffff" stroke="#000000" points="1059,-470.5 1059,-489.5 1177,-489.5 1177,-470.5 1059,-470.5"/>
<text text-anchor="middle" x="1118" y="-477.5" font-family="Helvetica,sans-Serif" font-size="10.00" fill="#000000">odp/api/spec/event.h</text>
</a>
</g>
</g>
<!-- Node24&#45;&gt;Node25 -->
<g id="edge37" class="edge">
<title>Node24&#45;&gt;Node25</title>
<path fill="none" stroke="#191970" d="M1118,-526.2455C1118,-518.9382 1118,-508.6944 1118,-499.7046"/>
<polygon fill="#191970" stroke="#191970" points="1121.5001,-499.6426 1118,-489.6427 1114.5001,-499.6427 1121.5001,-499.6426"/>
</g>
<!-- Node25&#45;&gt;Node4 -->
<g id="edge38" class="edge">
<title>Node25&#45;&gt;Node4</title>
<path fill="none" stroke="#191970" d="M1120.2579,-470.356C1124.9433,-447.7106 1133.087,-390.595 1105,-358 986.2885,-220.2351 881.0252,-313.9825 709,-255 700.8195,-252.1951 428.3159,-138.8213 423,-132 402.092,-105.171 392.5506,-82.3981 414,-56 432.6283,-33.0738 506.1783,-21.1757 563.1678,-15.2803"/>
<polygon fill="#191970" stroke="#191970" points="563.6323,-18.7515 573.2384,-14.2823 562.9419,-11.7857 563.6323,-18.7515"/>
</g>
<!-- Node25&#45;&gt;Node9 -->
<g id="edge56" class="edge">
<title>Node25&#45;&gt;Node9</title>
<path fill="none" stroke="#191970" d="M1137.2317,-470.484C1179.3504,-448.8968 1281.1522,-392.5644 1346,-322 1376.177,-289.1627 1367.5587,-269.3516 1396,-235 1461.1516,-156.3094 1527.5613,-172.1817 1562,-76 1564.9965,-67.6314 1567.7227,-62.8017 1562,-56 1537.0716,-26.3717 1433.2266,-15.8261 1363.1756,-12.0731"/>
<polygon fill="#191970" stroke="#191970" points="1363.2617,-8.5731 1353.0988,-11.5672 1362.9107,-15.5643 1363.2617,-8.5731"/>
</g>
<!-- Node25&#45;&gt;Node26 -->
<g id="edge39" class="edge">
<title>Node25&#45;&gt;Node26</title>
<path fill="none" stroke="#191970" d="M1058.5474,-472.7936C969.8168,-462.0384 803.7245,-441.906 715.1628,-431.1712"/>
<polygon fill="#191970" stroke="#191970" points="715.366,-427.6703 705.0175,-429.9415 714.5236,-434.6195 715.366,-427.6703"/>
</g>
<!-- Node26&#45;&gt;Node1 -->
<g id="edge40" class="edge">
<title>Node26&#45;&gt;Node1</title>
<path fill="none" stroke="#191970" d="M636.5911,-414.3762C576.7254,-384.6921 394.7147,-294.443 323.7561,-259.2586"/>
<polygon fill="#191970" stroke="#191970" points="325.0188,-255.9781 314.5049,-254.6714 321.9092,-262.2495 325.0188,-255.9781"/>
</g>
<!-- Node26&#45;&gt;Node10 -->
<g id="edge46" class="edge">
<title>Node26&#45;&gt;Node10</title>
<path fill="none" stroke="#191970" d="M678.6916,-414.3733C700.0711,-405.3032 732.3057,-391.6279 756.2362,-381.4755"/>
<polygon fill="#191970" stroke="#191970" points="757.7656,-384.6287 765.6045,-377.5011 755.0317,-378.1846 757.7656,-384.6287"/>
</g>
<!-- Node26&#45;&gt;Node12 -->
<g id="edge43" class="edge">
<title>Node26&#45;&gt;Node12</title>
<path fill="none" stroke="#191970" d="M606.9333,-419.3716C529.307,-411.905 373.1688,-396.3018 230.3436,-378.1303"/>
<polygon fill="#191970" stroke="#191970" points="230.4479,-374.6152 220.0845,-376.8176 229.5594,-381.5586 230.4479,-374.6152"/>
</g>
<!-- Node26&#45;&gt;Node13 -->
<g id="edge42" class="edge">
<title>Node26&#45;&gt;Node13</title>
<path fill="none" stroke="#191970" d="M606.9169,-416.2134C546.1575,-406.5746 442.2626,-390.0926 373.1159,-379.1232"/>
<polygon fill="#191970" stroke="#191970" points="373.6003,-375.6564 363.1754,-377.5462 372.5035,-382.5699 373.6003,-375.6564"/>
</g>
<!-- Node26&#45;&gt;Node14 -->
<g id="edge44" class="edge">
<title>Node26&#45;&gt;Node14</title>
<path fill="none" stroke="#191970" d="M619.384,-414.3733C583.352,-404.9001 528.2122,-390.4032 489.1886,-380.1435"/>
<polygon fill="#191970" stroke="#191970" points="489.6995,-376.6589 479.1382,-377.5011 487.9196,-383.4289 489.6995,-376.6589"/>
</g>
<!-- Node26&#45;&gt;Node21 -->
<g id="edge41" class="edge">
<title>Node26&#45;&gt;Node21</title>
<path fill="none" stroke="#191970" d="M705.2462,-417.1403C766.2415,-408.6001 873.6147,-393.4234 975.6729,-378.185"/>
<polygon fill="#191970" stroke="#191970" points="976.4767,-381.6038 985.8488,-376.6628 975.441,-374.6808 976.4767,-381.6038"/>
</g>
<!-- Node26&#45;&gt;Node22 -->
<g id="edge45" class="edge">
<title>Node26&#45;&gt;Node22</title>
<path fill="none" stroke="#191970" d="M699.8879,-414.4369C743.9638,-404.8328 811.9481,-390.0191 859.2358,-379.7152"/>
<polygon fill="#191970" stroke="#191970" points="860.2676,-383.0725 869.2932,-377.5237 858.7772,-376.233 860.2676,-383.0725"/>
</g>
<!-- Node27 -->
<g id="node28" class="node">
<title>Node27</title>
<g id="a_node28"><a xlink:href="spec_2packet_8h.html" target="_top" xlink:title="ODP packet descriptor. ">
<polygon fill="#ffffff" stroke="#000000" points="594.5,-358.5 594.5,-377.5 717.5,-377.5 717.5,-358.5 594.5,-358.5"/>
<text text-anchor="middle" x="656" y="-365.5" font-family="Helvetica,sans-Serif" font-size="10.00" fill="#000000">odp/api/spec/packet.h</text>
</a>
</g>
</g>
<!-- Node26&#45;&gt;Node27 -->
<g id="edge47" class="edge">
<title>Node26&#45;&gt;Node27</title>
<path fill="none" stroke="#191970" d="M656,-414.2455C656,-406.9382 656,-396.6944 656,-387.7046"/>
<polygon fill="#191970" stroke="#191970" points="659.5001,-387.6426 656,-377.6427 652.5001,-387.6427 659.5001,-387.6426"/>
</g>
<!-- Node27&#45;&gt;Node4 -->
<g id="edge48" class="edge">
<title>Node27&#45;&gt;Node4</title>
<path fill="none" stroke="#191970" d="M653.9192,-358.4121C648.1637,-334.1555 629.7581,-269.8089 590,-235 570.9701,-218.339 401.5142,-152.7139 387,-132 367.5348,-104.2201 358.2563,-82.0352 380,-56 402.9864,-28.4768 496.4953,-17.3886 563.3715,-12.943"/>
<polygon fill="#191970" stroke="#191970" points="563.6864,-16.4302 573.4471,-12.3095 563.2471,-9.444 563.6864,-16.4302"/>
</g>
<!-- Node27&#45;&gt;Node9 -->
<g id="edge55" class="edge">
<title>Node27&#45;&gt;Node9</title>
<path fill="none" stroke="#191970" d="M716.5418,-358.4968C846.6041,-337.5697 1143.6563,-286.8394 1177,-255 1200.7804,-232.2925 1196,-216.3806 1196,-183.5 1196,-183.5 1196,-183.5 1196,-122 1196,-91.3494 1196.8639,-79.943 1216,-56 1227.3713,-41.7722 1244.4147,-31.16 1259.9384,-23.7358"/>
<polygon fill="#191970" stroke="#191970" points="1261.649,-26.8047 1269.3434,-19.5214 1258.7865,-20.4167 1261.649,-26.8047"/>
</g>
<!-- Node27&#45;&gt;Node28 -->
<g id="edge49" class="edge">
<title>Node27&#45;&gt;Node28</title>
<path fill="none" stroke="#191970" d="M643.3438,-358.3906C630.6232,-348.7324 610.7996,-333.6812 595.7716,-322.271"/>
<polygon fill="#191970" stroke="#191970" points="597.6484,-319.3015 587.5674,-316.0419 593.4154,-324.8766 597.6484,-319.3015"/>
</g>
<!-- Node28&#45;&gt;Node1 -->
<g id="edge50" class="edge">
<title>Node28&#45;&gt;Node1</title>
<path fill="none" stroke="#191970" d="M540.7321,-296.9967C532.9509,-294.9352 524.7078,-292.8269 517,-291 462.3443,-278.0454 399.6377,-265.2394 354.8404,-256.4419"/>
<polygon fill="#191970" stroke="#191970" points="355.4808,-253.0009 344.9949,-254.5163 354.1371,-259.8708 355.4808,-253.0009"/>
</g>
<!-- Node29 -->
<g id="node30" class="node">
<title>Node29</title>
<polygon fill="#ffffff" stroke="#bfbfbf" points="475.5,-235.5 475.5,-254.5 580.5,-254.5 580.5,-235.5 475.5,-235.5"/>
<text text-anchor="middle" x="528" y="-242.5" font-family="Helvetica,sans-Serif" font-size="10.00" fill="#000000">odp/api/abi/time.h</text>
</g>
<!-- Node28&#45;&gt;Node29 -->
<g id="edge51" class="edge">
<title>Node28&#45;&gt;Node29</title>
<path fill="none" stroke="#191970" d="M567.6563,-296.8906C560.7298,-287.8273 550.174,-274.0149 541.694,-262.9188"/>
<polygon fill="#191970" stroke="#191970" points="544.3003,-260.565 535.4473,-254.7449 538.7385,-264.8155 544.3003,-260.565"/>
</g>
<!-- Node30 -->
<g id="node31" class="node">
<title>Node30</title>
<g id="a_node31"><a xlink:href="spec_2time_8h.html" target="_top" xlink:title="ODP time. ">
<polygon fill="#ffffff" stroke="#000000" points="832.5,-56.5 832.5,-75.5 945.5,-75.5 945.5,-56.5 832.5,-56.5"/>
<text text-anchor="middle" x="889" y="-63.5" font-family="Helvetica,sans-Serif" font-size="10.00" fill="#000000">odp/api/spec/time.h</text>
</a>
</g>
</g>
<!-- Node28&#45;&gt;Node30 -->
<g id="edge52" class="edge">
<title>Node28&#45;&gt;Node30</title>
<path fill="none" stroke="#191970" d="M587.6981,-296.7742C636.0338,-259.7527 808.8156,-127.4151 868.5268,-81.6809"/>
<polygon fill="#191970" stroke="#191970" points="870.6772,-84.4425 876.4879,-75.5833 866.4208,-78.8853 870.6772,-84.4425"/>
</g>
<!-- Node30&#45;&gt;Node4 -->
<g id="edge53" class="edge">
<title>Node30&#45;&gt;Node4</title>
<path fill="none" stroke="#191970" d="M845.4537,-56.4369C801.7207,-46.8328 734.2655,-32.0191 687.3458,-21.7152"/>
<polygon fill="#191970" stroke="#191970" points="687.8847,-18.2502 677.3667,-19.5237 686.3832,-25.0872 687.8847,-18.2502"/>
</g>
<!-- Node30&#45;&gt;Node9 -->
<g id="edge54" class="edge">
<title>Node30&#45;&gt;Node9</title>
<path fill="none" stroke="#191970" d="M945.5782,-58.0091C950.4557,-57.3269 955.3146,-56.6497 960,-56 1054.0212,-42.962 1162.8408,-28.1605 1230.8031,-18.9509"/>
<polygon fill="#191970" stroke="#191970" points="1231.4995,-22.3887 1240.9391,-17.5778 1230.5597,-15.452 1231.4995,-22.3887"/>
</g>
<!-- Node31&#45;&gt;Node4 -->
<g id="edge58" class="edge">
<title>Node31&#45;&gt;Node4</title>
<path fill="none" stroke="#191970" d="M1225.2505,-293.9839C1220.4348,-292.9548 1215.6341,-291.9472 1211,-291 1125.9385,-273.6128 1101.6558,-281.5669 1019,-255 938.991,-229.2838 668.5594,-94.7098 653,-76 642.1714,-62.9789 637.51,-44.0906 635.5057,-29.8535"/>
<polygon fill="#191970" stroke="#191970" points="638.9555,-29.1996 634.4009,-19.6337 631.996,-29.952 638.9555,-29.1996"/>
</g>
<!-- Node31&#45;&gt;Node9 -->
<g id="edge69" class="edge">
<title>Node31&#45;&gt;Node9</title>
<path fill="none" stroke="#191970" d="M1293.631,-291.4402C1316.1884,-264.9765 1365.499,-209.0476 1413,-168 1470.7035,-118.1361 1591.7189,-114.6734 1543,-56 1520.5396,-28.9504 1428.1591,-17.7172 1363.2414,-13.1132"/>
<polygon fill="#191970" stroke="#191970" points="1363.2855,-9.6084 1353.0732,-12.4298 1362.816,-16.5926 1363.2855,-9.6084"/>
</g>
<!-- Node31&#45;&gt;Node16 -->
<g id="edge68" class="edge">
<title>Node31&#45;&gt;Node16</title>
<path fill="none" stroke="#191970" d="M1334.0842,-291.4554C1371.0852,-280.9689 1419.8396,-267.1515 1454.5342,-257.3187"/>
<polygon fill="#191970" stroke="#191970" points="1455.706,-260.6245 1464.3727,-254.5303 1453.7973,-253.8897 1455.706,-260.6245"/>
</g>
<!-- Node32 -->
<g id="node33" class="node">
<title>Node32</title>
<g id="a_node33"><a xlink:href="schedule__types_8h.html" target="_top" xlink:title="ODP schedule. ">
<polygon fill="#ffffff" stroke="#000000" points="1028,-235.5 1028,-254.5 1168,-254.5 1168,-235.5 1028,-235.5"/>
<text text-anchor="middle" x="1098" y="-242.5" font-family="Helvetica,sans-Serif" font-size="10.00" fill="#000000">odp/api/schedule_types.h</text>
</a>
</g>
</g>
<!-- Node31&#45;&gt;Node32 -->
<g id="edge59" class="edge">
<title>Node31&#45;&gt;Node32</title>
<path fill="none" stroke="#191970" d="M1236.2332,-291.4554C1205.5652,-281.149 1165.3229,-267.6249 1136.1728,-257.8286"/>
<polygon fill="#191970" stroke="#191970" points="1136.9525,-254.3983 1126.3585,-254.5303 1134.7226,-261.0336 1136.9525,-254.3983"/>
</g>
<!-- Node33 -->
<g id="node34" class="node">
<title>Node33</title>
<polygon fill="#ffffff" stroke="#bfbfbf" points="1050.5,-168.5 1050.5,-198.5 1167.5,-198.5 1167.5,-168.5 1050.5,-168.5"/>
<text text-anchor="start" x="1058.5" y="-186.5" font-family="Helvetica,sans-Serif" font-size="10.00" fill="#000000">odp/api/abi/schedule</text>
<text text-anchor="middle" x="1109" y="-175.5" font-family="Helvetica,sans-Serif" font-size="10.00" fill="#000000">_types.h</text>
</g>
<!-- Node32&#45;&gt;Node33 -->
<g id="edge60" class="edge">
<title>Node32&#45;&gt;Node33</title>
<path fill="none" stroke="#191970" d="M1099.7188,-235.3906C1101.0007,-228.2234 1102.8138,-218.0862 1104.4979,-208.671"/>
<polygon fill="#191970" stroke="#191970" points="1107.9937,-209.0046 1106.3091,-198.5446 1101.103,-207.7721 1107.9937,-209.0046"/>
</g>
<!-- Node34 -->
<g id="node35" class="node">
<title>Node34</title>
<g id="a_node35"><a xlink:href="spec_2schedule__types_8h.html" target="_top" xlink:title="ODP schedule types. ">
<polygon fill="#ffffff" stroke="#000000" points="907.5,-168.5 907.5,-198.5 1032.5,-198.5 1032.5,-168.5 907.5,-168.5"/>
<text text-anchor="start" x="915.5" y="-186.5" font-family="Helvetica,sans-Serif" font-size="10.00" fill="#000000">odp/api/spec/schedule</text>
<text text-anchor="middle" x="970" y="-175.5" font-family="Helvetica,sans-Serif" font-size="10.00" fill="#000000">_types.h</text>
</a>
</g>
</g>
<!-- Node32&#45;&gt;Node34 -->
<g id="edge61" class="edge">
<title>Node32&#45;&gt;Node34</title>
<path fill="none" stroke="#191970" d="M1078,-235.3906C1059.955,-226.7205 1032.8648,-213.7046 1010.3312,-202.8779"/>
<polygon fill="#191970" stroke="#191970" points="1011.8417,-199.7206 1001.3123,-198.5446 1008.8101,-206.0302 1011.8417,-199.7206"/>
</g>
<!-- Node34&#45;&gt;Node4 -->
<g id="edge62" class="edge">
<title>Node34&#45;&gt;Node4</title>
<path fill="none" stroke="#191970" d="M952.2613,-168.4549C920.591,-142.2652 851.3977,-88.0384 785,-56 753.9551,-41.0201 716.9644,-29.6557 687.365,-21.9702"/>
<polygon fill="#191970" stroke="#191970" points="688.1828,-18.5669 677.6296,-19.5049 686.4644,-25.3527 688.1828,-18.5669"/>
</g>
<!-- Node34&#45;&gt;Node9 -->
<g id="edge67" class="edge">
<title>Node34&#45;&gt;Node9</title>
<path fill="none" stroke="#191970" d="M1005.8817,-168.4102C1027.3226,-158.9023 1054.8106,-145.838 1078,-132 1127.1611,-102.6636 1131.9192,-83.7371 1182,-56 1206.0874,-42.6592 1234.8507,-31.1554 1257.5855,-22.9887"/>
<polygon fill="#191970" stroke="#191970" points="1258.9774,-26.2093 1267.2477,-19.5872 1256.6529,-19.6065 1258.9774,-26.2093"/>
</g>
<!-- Node35 -->
<g id="node36" class="node">
<title>Node35</title>
<g id="a_node36"><a xlink:href="support_8h.html" target="_top" xlink:title="ODP support API &#45; platform specific header. ">
<polygon fill="#ffffff" stroke="#000000" points="967.5,-112.5 967.5,-131.5 1068.5,-131.5 1068.5,-112.5 967.5,-112.5"/>
<text text-anchor="middle" x="1018" y="-119.5" font-family="Helvetica,sans-Serif" font-size="10.00" fill="#000000">odp/api/support.h</text>
</a>
</g>
</g>
<!-- Node34&#45;&gt;Node35 -->
<g id="edge63" class="edge">
<title>Node34&#45;&gt;Node35</title>
<path fill="none" stroke="#191970" d="M981.8652,-168.2977C988.5975,-159.672 997.0585,-148.8312 1004.1006,-139.8087"/>
<polygon fill="#191970" stroke="#191970" points="1006.921,-141.8836 1010.3146,-131.8469 1001.4027,-137.5766 1006.921,-141.8836"/>
</g>
<!-- Node36 -->
<g id="node37" class="node">
<title>Node36</title>
<g id="a_node37"><a xlink:href="spec_2support_8h.html" target="_top" xlink:title="ODP support API. ">
<polygon fill="#ffffff" stroke="#000000" points="1002.5,-56.5 1002.5,-75.5 1129.5,-75.5 1129.5,-56.5 1002.5,-56.5"/>
<text text-anchor="middle" x="1066" y="-63.5" font-family="Helvetica,sans-Serif" font-size="10.00" fill="#000000">odp/api/spec/support.h</text>
</a>
</g>
</g>
<!-- Node35&#45;&gt;Node36 -->
<g id="edge64" class="edge">
<title>Node35&#45;&gt;Node36</title>
<path fill="none" stroke="#191970" d="M1026.361,-112.2455C1033.175,-104.2958 1042.9681,-92.8706 1051.1152,-83.3656"/>
<polygon fill="#191970" stroke="#191970" points="1053.8843,-85.513 1057.7349,-75.6427 1048.5695,-80.9575 1053.8843,-85.513"/>
</g>
<!-- Node36&#45;&gt;Node4 -->
<g id="edge65" class="edge">
<title>Node36&#45;&gt;Node4</title>
<path fill="none" stroke="#191970" d="M1002.2569,-57.737C922.7239,-47.4272 787.1561,-29.8536 704.5654,-19.1474"/>
<polygon fill="#191970" stroke="#191970" points="704.8825,-15.6593 694.5155,-17.8446 703.9826,-22.6012 704.8825,-15.6593"/>
</g>
<!-- Node36&#45;&gt;Node9 -->
<g id="edge66" class="edge">
<title>Node36&#45;&gt;Node9</title>
<path fill="none" stroke="#191970" d="M1105.4478,-56.4369C1144.8156,-46.8932 1205.4034,-32.2052 1247.8708,-21.9101"/>
<polygon fill="#191970" stroke="#191970" points="1248.821,-25.2812 1257.7149,-19.5237 1247.1717,-18.4783 1248.821,-25.2812"/>
</g>
<!-- Node38 -->
<g id="node39" class="node">
<title>Node38</title>
<g id="a_node39"><a xlink:href="spec_2reassembly_8h.html" target="_top" xlink:title="ODP REASSEMBLY API. ">
<polygon fill="#ffffff" stroke="#000000" points="1388,-56.5 1388,-75.5 1534,-75.5 1534,-56.5 1388,-56.5"/>
<text text-anchor="middle" x="1461" y="-63.5" font-family="Helvetica,sans-Serif" font-size="10.00" fill="#000000">odp/api/spec/reassembly.h</text>
</a>
</g>
</g>
<!-- Node37&#45;&gt;Node38 -->
<g id="edge74" class="edge">
<title>Node37&#45;&gt;Node38</title>
<path fill="none" stroke="#191970" d="M1596.4312,-761.4618C1593.1785,-740.8289 1586,-690.482 1586,-648 1586,-648 1586,-648 1586,-306.5 1586,-213.3173 1511.2066,-120.3912 1477.3295,-83.0803"/>
<polygon fill="#191970" stroke="#191970" points="1479.7582,-80.5517 1470.3953,-75.5931 1474.6224,-85.3081 1479.7582,-80.5517"/>
</g>
<!-- Node38&#45;&gt;Node4 -->
<g id="edge75" class="edge">
<title>Node38&#45;&gt;Node4</title>
<path fill="none" stroke="#191970" d="M1387.7056,-56.8418C1384.7668,-56.5443 1381.8563,-56.2621 1379,-56 1131.8661,-33.3216 837.5589,-18.8308 704.9633,-12.9692"/>
<polygon fill="#191970" stroke="#191970" points="705.0771,-9.4709 694.9331,-12.5286 704.7699,-16.4642 705.0771,-9.4709"/>
</g>
<!-- Node38&#45;&gt;Node9 -->
<g id="edge76" class="edge">
<title>Node38&#45;&gt;Node9</title>
<path fill="none" stroke="#191970" d="M1432.8074,-56.3733C1405.6547,-47.1016 1364.4093,-33.0178 1334.4975,-22.804"/>
<polygon fill="#191970" stroke="#191970" points="1335.4192,-19.4204 1324.8247,-19.5011 1333.1572,-26.0449 1335.4192,-19.4204"/>
</g>
</g>
</svg>
