<?xml version="1.0" encoding="UTF-8" standalone="no"?>
<!DOCTYPE svg PUBLIC "-//W3C//DTD SVG 1.1//EN"
 "http://www.w3.org/Graphics/SVG/1.1/DTD/svg11.dtd">
<!-- Generated by graphviz version 2.40.1 (20161225.0304)
 -->
<!-- Title: queue_types.h Pages: 1 -->
<svg width="293pt" height="588pt"
 viewBox="0.00 0.00 293.00 588.00" xmlns="http://www.w3.org/2000/svg" xmlns:xlink="http://www.w3.org/1999/xlink">
<g id="graph0" class="graph" transform="scale(1 1) rotate(0) translate(4 584)">
<title>queue_types.h</title>
<polygon fill="#ffffff" stroke="transparent" points="-4,4 -4,-584 289,-584 289,4 -4,4"/>
<!-- Node10 -->
<g id="node1" class="node">
<title>Node10</title>
<polygon fill="#bfbfbf" stroke="#000000" points="114,-560.5 114,-579.5 202,-579.5 202,-560.5 114,-560.5"/>
<text text-anchor="middle" x="158" y="-567.5" font-family="Helvetica,sans-Serif" font-size="10.00" fill="#000000">queue_types.h</text>
</g>
<!-- Node11 -->
<g id="node2" class="node">
<title>Node11</title>
<g id="a_node2"><a xlink:href="spec_2queue_8h.html" target="_top" xlink:title="ODP queue. ">
<polygon fill="#ffffff" stroke="#000000" points="77,-504.5 77,-523.5 133,-523.5 133,-504.5 77,-504.5"/>
<text text-anchor="middle" x="105" y="-511.5" font-family="Helvetica,sans-Serif" font-size="10.00" fill="#000000">queue.h</text>
</a>
</g>
</g>
<!-- Node10&#45;&gt;Node11 -->
<g id="edge1" class="edge">
<title>Node10&#45;&gt;Node11</title>
<path fill="none" stroke="#191970" d="M141.7104,-552.7884C132.6438,-543.2085 121.6946,-531.6396 114.1261,-523.6427"/>
<polygon fill="#191970" stroke="#191970" points="139.3522,-555.3884 148.7681,-560.2455 144.4363,-550.5767 139.3522,-555.3884"/>
</g>
<!-- Node26 -->
<g id="node17" class="node">
<title>Node26</title>
<g id="a_node17"><a xlink:href="queue__inline__types_8h_source.html" target="_top" xlink:title="queue_inline_types.h">
<polygon fill="#ffffff" stroke="#000000" points="151,-504.5 151,-523.5 271,-523.5 271,-504.5 151,-504.5"/>
<text text-anchor="middle" x="211" y="-511.5" font-family="Helvetica,sans-Serif" font-size="10.00" fill="#000000">queue_inline_types.h</text>
</a>
</g>
</g>
<!-- Node10&#45;&gt;Node26 -->
<g id="edge20" class="edge">
<title>Node10&#45;&gt;Node26</title>
<path fill="none" stroke="#191970" d="M174.2896,-552.7884C183.3562,-543.2085 194.3054,-531.6396 201.8739,-523.6427"/>
<polygon fill="#191970" stroke="#191970" points="171.5637,-550.5767 167.2319,-560.2455 176.6478,-555.3884 171.5637,-550.5767"/>
</g>
<!-- Node12 -->
<g id="node3" class="node">
<title>Node12</title>
<g id="a_node3"><a xlink:href="queue_8h.html" target="_top" xlink:title="ODP queue. ">
<polygon fill="#ffffff" stroke="#000000" points="77,-448.5 77,-467.5 133,-467.5 133,-448.5 77,-448.5"/>
<text text-anchor="middle" x="105" y="-455.5" font-family="Helvetica,sans-Serif" font-size="10.00" fill="#000000">queue.h</text>
</a>
</g>
</g>
<!-- Node11&#45;&gt;Node12 -->
<g id="edge2" class="edge">
<title>Node11&#45;&gt;Node12</title>
<path fill="none" stroke="#191970" d="M105,-494.1575C105,-485.155 105,-474.9199 105,-467.6427"/>
<polygon fill="#191970" stroke="#191970" points="101.5001,-494.2455 105,-504.2455 108.5001,-494.2456 101.5001,-494.2455"/>
</g>
<!-- Node13 -->
<g id="node4" class="node">
<title>Node13</title>
<g id="a_node4"><a xlink:href="crypto_8h.html" target="_top" xlink:title="ODP crypto. ">
<polygon fill="#ffffff" stroke="#000000" points="0,-280.5 0,-299.5 56,-299.5 56,-280.5 0,-280.5"/>
<text text-anchor="middle" x="28" y="-287.5" font-family="Helvetica,sans-Serif" font-size="10.00" fill="#000000">crypto.h</text>
</a>
</g>
</g>
<!-- Node12&#45;&gt;Node13 -->
<g id="edge3" class="edge">
<title>Node12&#45;&gt;Node13</title>
<path fill="none" stroke="#191970" d="M93.027,-439.8934C87.7779,-431.5768 81.7457,-421.4747 77,-412 56.7602,-371.5919 38.5168,-320.709 31.2891,-299.7269"/>
<polygon fill="#191970" stroke="#191970" points="90.1492,-441.889 98.5105,-448.3959 96.0319,-438.0951 90.1492,-441.889"/>
</g>
<!-- Node16 -->
<g id="node7" class="node">
<title>Node16</title>
<g id="a_node7"><a xlink:href="spec_2packet__io_8h.html" target="_top" xlink:title="ODP Packet IO. ">
<polygon fill="#ffffff" stroke="#000000" points="102.5,-280.5 102.5,-299.5 175.5,-299.5 175.5,-280.5 102.5,-280.5"/>
<text text-anchor="middle" x="139" y="-287.5" font-family="Helvetica,sans-Serif" font-size="10.00" fill="#000000">packet_io.h</text>
</a>
</g>
</g>
<!-- Node12&#45;&gt;Node16 -->
<g id="edge6" class="edge">
<title>Node12&#45;&gt;Node16</title>
<path fill="none" stroke="#191970" d="M94.7531,-439.217C90.8804,-431.0983 86.9414,-421.3345 85,-412 78.1218,-378.9299 70.8388,-366.6659 85,-336 92.3833,-320.0115 108.3676,-307.5319 121.0401,-299.6299"/>
<polygon fill="#191970" stroke="#191970" points="91.6514,-440.839 99.3055,-448.1646 97.8903,-437.6647 91.6514,-440.839"/>
</g>
<!-- Node22 -->
<g id="node13" class="node">
<title>Node22</title>
<g id="a_node13"><a xlink:href="spec_2packet__io__stats_8h.html" target="_top" xlink:title="ODP Packet IO statistics. ">
<polygon fill="#ffffff" stroke="#000000" points="94,-392.5 94,-411.5 196,-411.5 196,-392.5 94,-392.5"/>
<text text-anchor="middle" x="145" y="-399.5" font-family="Helvetica,sans-Serif" font-size="10.00" fill="#000000">packet_io_stats.h</text>
</a>
</g>
</g>
<!-- Node12&#45;&gt;Node22 -->
<g id="edge15" class="edge">
<title>Node12&#45;&gt;Node22</title>
<path fill="none" stroke="#191970" d="M117.9136,-439.9209C124.6303,-430.5176 132.5717,-419.3997 138.1124,-411.6427"/>
<polygon fill="#191970" stroke="#191970" points="114.9318,-438.0738 111.9675,-448.2455 120.628,-442.1425 114.9318,-438.0738"/>
</g>
<!-- Node24 -->
<g id="node15" class="node">
<title>Node24</title>
<g id="a_node15"><a xlink:href="spec_2schedule_8h.html" target="_top" xlink:title="ODP schedule. ">
<polygon fill="#ffffff" stroke="#000000" points="214.5,-392.5 214.5,-411.5 283.5,-411.5 283.5,-392.5 214.5,-392.5"/>
<text text-anchor="middle" x="249" y="-399.5" font-family="Helvetica,sans-Serif" font-size="10.00" fill="#000000">schedule.h</text>
</a>
</g>
</g>
<!-- Node12&#45;&gt;Node24 -->
<g id="edge18" class="edge">
<title>Node12&#45;&gt;Node24</title>
<path fill="none" stroke="#191970" d="M139.3182,-444.6541C165.578,-434.4419 201.1492,-420.6086 224.5685,-411.5011"/>
<polygon fill="#191970" stroke="#191970" points="137.806,-441.4867 129.7545,-448.3733 140.3431,-448.0108 137.806,-441.4867"/>
</g>
<!-- Node14 -->
<g id="node5" class="node">
<title>Node14</title>
<g id="a_node5"><a xlink:href="spec_2ipsec_8h.html" target="_top" xlink:title="ODP IPSEC API. ">
<polygon fill="#ffffff" stroke="#000000" points="76.5,-56.5 76.5,-75.5 127.5,-75.5 127.5,-56.5 76.5,-56.5"/>
<text text-anchor="middle" x="102" y="-63.5" font-family="Helvetica,sans-Serif" font-size="10.00" fill="#000000">ipsec.h</text>
</a>
</g>
</g>
<!-- Node13&#45;&gt;Node14 -->
<g id="edge4" class="edge">
<title>Node13&#45;&gt;Node14</title>
<path fill="none" stroke="#191970" d="M31.6396,-270.2243C38.1605,-236.8008 53.3096,-167.3698 76,-112 81.4265,-98.7581 89.8942,-84.5732 95.6816,-75.5118"/>
<polygon fill="#191970" stroke="#191970" points="28.1225,-269.9853 29.6947,-280.4628 34.9995,-271.2917 28.1225,-269.9853"/>
</g>
<!-- Node15 -->
<g id="node6" class="node">
<title>Node15</title>
<g id="a_node6"><a xlink:href="ipsec_8h.html" target="_top" xlink:title="ODP IPSEC API &#45; platform specific header. ">
<polygon fill="#ffffff" stroke="#000000" points="76.5,-.5 76.5,-19.5 127.5,-19.5 127.5,-.5 76.5,-.5"/>
<text text-anchor="middle" x="102" y="-7.5" font-family="Helvetica,sans-Serif" font-size="10.00" fill="#000000">ipsec.h</text>
</a>
</g>
</g>
<!-- Node14&#45;&gt;Node15 -->
<g id="edge5" class="edge">
<title>Node14&#45;&gt;Node15</title>
<path fill="none" stroke="#191970" d="M102,-46.1575C102,-37.155 102,-26.9199 102,-19.6427"/>
<polygon fill="#191970" stroke="#191970" points="98.5001,-46.2455 102,-56.2455 105.5001,-46.2456 98.5001,-46.2455"/>
</g>
<!-- Node17 -->
<g id="node8" class="node">
<title>Node17</title>
<g id="a_node8"><a xlink:href="packet__io_8h.html" target="_top" xlink:title="ODP Packet IO. ">
<polygon fill="#ffffff" stroke="#000000" points="102.5,-224.5 102.5,-243.5 175.5,-243.5 175.5,-224.5 102.5,-224.5"/>
<text text-anchor="middle" x="139" y="-231.5" font-family="Helvetica,sans-Serif" font-size="10.00" fill="#000000">packet_io.h</text>
</a>
</g>
</g>
<!-- Node16&#45;&gt;Node17 -->
<g id="edge7" class="edge">
<title>Node16&#45;&gt;Node17</title>
<path fill="none" stroke="#191970" d="M139,-270.1575C139,-261.155 139,-250.9199 139,-243.6427"/>
<polygon fill="#191970" stroke="#191970" points="135.5001,-270.2455 139,-280.2455 142.5001,-270.2456 135.5001,-270.2455"/>
</g>
<!-- Node17&#45;&gt;Node14 -->
<g id="edge11" class="edge">
<title>Node17&#45;&gt;Node14</title>
<path fill="none" stroke="#191970" d="M112.6905,-218.7686C102.0069,-211.0472 90.8259,-200.616 85,-188 67.1584,-149.3641 87.3274,-97.0748 97.1934,-75.7052"/>
<polygon fill="#191970" stroke="#191970" points="110.7858,-221.7054 121.0401,-224.3701 114.6856,-215.8924 110.7858,-221.7054"/>
</g>
<!-- Node18 -->
<g id="node9" class="node">
<title>Node18</title>
<g id="a_node9"><a xlink:href="spec_2classification_8h.html" target="_top" xlink:title="ODP classification descriptor. ">
<polygon fill="#ffffff" stroke="#000000" points="94.5,-168.5 94.5,-187.5 183.5,-187.5 183.5,-168.5 94.5,-168.5"/>
<text text-anchor="middle" x="139" y="-175.5" font-family="Helvetica,sans-Serif" font-size="10.00" fill="#000000">classification.h</text>
</a>
</g>
</g>
<!-- Node17&#45;&gt;Node18 -->
<g id="edge8" class="edge">
<title>Node17&#45;&gt;Node18</title>
<path fill="none" stroke="#191970" d="M139,-214.1575C139,-205.155 139,-194.9199 139,-187.6427"/>
<polygon fill="#191970" stroke="#191970" points="135.5001,-214.2455 139,-224.2455 142.5001,-214.2456 135.5001,-214.2455"/>
</g>
<!-- Node20 -->
<g id="node11" class="node">
<title>Node20</title>
<g id="a_node11"><a xlink:href="spec_2traffic__mngr_8h.html" target="_top" xlink:title="Copyright (c) 2015&#45;2018, Linaro Limited All rights reserved. ">
<polygon fill="#ffffff" stroke="#000000" points="201,-168.5 201,-187.5 285,-187.5 285,-168.5 201,-168.5"/>
<text text-anchor="middle" x="243" y="-175.5" font-family="Helvetica,sans-Serif" font-size="10.00" fill="#000000">traffic_mngr.h</text>
</a>
</g>
</g>
<!-- Node17&#45;&gt;Node20 -->
<g id="edge12" class="edge">
<title>Node17&#45;&gt;Node20</title>
<path fill="none" stroke="#191970" d="M166.0029,-219.46C184.6136,-209.4388 208.8299,-196.3993 225.0922,-187.6427"/>
<polygon fill="#191970" stroke="#191970" points="164.2608,-216.4228 157.1154,-224.2455 167.5795,-222.5861 164.2608,-216.4228"/>
</g>
<!-- Node19 -->
<g id="node10" class="node">
<title>Node19</title>
<g id="a_node10"><a xlink:href="classification_8h.html" target="_top" xlink:title="ODP classification descriptor. ">
<polygon fill="#ffffff" stroke="#000000" points="94.5,-112.5 94.5,-131.5 183.5,-131.5 183.5,-112.5 94.5,-112.5"/>
<text text-anchor="middle" x="139" y="-119.5" font-family="Helvetica,sans-Serif" font-size="10.00" fill="#000000">classification.h</text>
</a>
</g>
</g>
<!-- Node18&#45;&gt;Node19 -->
<g id="edge9" class="edge">
<title>Node18&#45;&gt;Node19</title>
<path fill="none" stroke="#191970" d="M139,-158.1575C139,-149.155 139,-138.9199 139,-131.6427"/>
<polygon fill="#191970" stroke="#191970" points="135.5001,-158.2455 139,-168.2455 142.5001,-158.2456 135.5001,-158.2455"/>
</g>
<!-- Node19&#45;&gt;Node14 -->
<g id="edge10" class="edge">
<title>Node19&#45;&gt;Node14</title>
<path fill="none" stroke="#191970" d="M126.8624,-103.6296C120.6907,-94.2887 113.4434,-83.3197 108.3711,-75.6427"/>
<polygon fill="#191970" stroke="#191970" points="124.1223,-105.8316 132.5551,-112.2455 129.9627,-101.9728 124.1223,-105.8316"/>
</g>
<!-- Node21 -->
<g id="node12" class="node">
<title>Node21</title>
<g id="a_node12"><a xlink:href="traffic__mngr_8h.html" target="_top" xlink:title="ODP Traffic manager. ">
<polygon fill="#ffffff" stroke="#000000" points="201,-112.5 201,-131.5 285,-131.5 285,-112.5 201,-112.5"/>
<text text-anchor="middle" x="243" y="-119.5" font-family="Helvetica,sans-Serif" font-size="10.00" fill="#000000">traffic_mngr.h</text>
</a>
</g>
</g>
<!-- Node20&#45;&gt;Node21 -->
<g id="edge13" class="edge">
<title>Node20&#45;&gt;Node21</title>
<path fill="none" stroke="#191970" d="M243,-158.1575C243,-149.155 243,-138.9199 243,-131.6427"/>
<polygon fill="#191970" stroke="#191970" points="239.5001,-158.2455 243,-168.2455 246.5001,-158.2456 239.5001,-158.2455"/>
</g>
<!-- Node21&#45;&gt;Node14 -->
<g id="edge14" class="edge">
<title>Node21&#45;&gt;Node14</title>
<path fill="none" stroke="#191970" d="M209.3968,-108.6541C183.6841,-98.4419 148.8539,-84.6086 125.9225,-75.5011"/>
<polygon fill="#191970" stroke="#191970" points="208.1755,-111.9349 218.7612,-112.3733 210.7593,-105.4292 208.1755,-111.9349"/>
</g>
<!-- Node23 -->
<g id="node14" class="node">
<title>Node23</title>
<g id="a_node14"><a xlink:href="packet__io__stats_8h.html" target="_top" xlink:title="ODP packet IO stats. ">
<polygon fill="#ffffff" stroke="#000000" points="94,-336.5 94,-355.5 196,-355.5 196,-336.5 94,-336.5"/>
<text text-anchor="middle" x="145" y="-343.5" font-family="Helvetica,sans-Serif" font-size="10.00" fill="#000000">packet_io_stats.h</text>
</a>
</g>
</g>
<!-- Node22&#45;&gt;Node23 -->
<g id="edge16" class="edge">
<title>Node22&#45;&gt;Node23</title>
<path fill="none" stroke="#191970" d="M145,-382.1575C145,-373.155 145,-362.9199 145,-355.6427"/>
<polygon fill="#191970" stroke="#191970" points="141.5001,-382.2455 145,-392.2455 148.5001,-382.2456 141.5001,-382.2455"/>
</g>
<!-- Node23&#45;&gt;Node16 -->
<g id="edge17" class="edge">
<title>Node23&#45;&gt;Node16</title>
<path fill="none" stroke="#191970" d="M142.874,-326.1575C141.9095,-317.155 140.8128,-306.9199 140.0331,-299.6427"/>
<polygon fill="#191970" stroke="#191970" points="139.4094,-326.6753 143.9549,-336.2455 146.3695,-325.9296 139.4094,-326.6753"/>
</g>
<!-- Node25 -->
<g id="node16" class="node">
<title>Node25</title>
<g id="a_node16"><a xlink:href="schedule_8h.html" target="_top" xlink:title="ODP schedule. ">
<polygon fill="#ffffff" stroke="#000000" points="214.5,-336.5 214.5,-355.5 283.5,-355.5 283.5,-336.5 214.5,-336.5"/>
<text text-anchor="middle" x="249" y="-343.5" font-family="Helvetica,sans-Serif" font-size="10.00" fill="#000000">schedule.h</text>
</a>
</g>
</g>
<!-- Node24&#45;&gt;Node25 -->
<g id="edge19" class="edge">
<title>Node24&#45;&gt;Node25</title>
<path fill="none" stroke="#191970" d="M249,-382.1575C249,-373.155 249,-362.9199 249,-355.6427"/>
<polygon fill="#191970" stroke="#191970" points="245.5001,-382.2455 249,-392.2455 252.5001,-382.2456 245.5001,-382.2455"/>
</g>
<!-- Node27 -->
<g id="node18" class="node">
<title>Node27</title>
<g id="a_node18"><a xlink:href="queue__inlines_8h_source.html" target="_top" xlink:title="queue_inlines.h">
<polygon fill="#ffffff" stroke="#000000" points="164.5,-448.5 164.5,-467.5 257.5,-467.5 257.5,-448.5 164.5,-448.5"/>
<text text-anchor="middle" x="211" y="-455.5" font-family="Helvetica,sans-Serif" font-size="10.00" fill="#000000">queue_inlines.h</text>
</a>
</g>
</g>
<!-- Node26&#45;&gt;Node27 -->
<g id="edge21" class="edge">
<title>Node26&#45;&gt;Node27</title>
<path fill="none" stroke="#191970" d="M211,-494.1575C211,-485.155 211,-474.9199 211,-467.6427"/>
<polygon fill="#191970" stroke="#191970" points="207.5001,-494.2455 211,-504.2455 214.5001,-494.2456 207.5001,-494.2455"/>
</g>
</g>
</svg>
