<?xml version="1.0" encoding="UTF-8" standalone="no"?>
<!DOCTYPE svg PUBLIC "-//W3C//DTD SVG 1.1//EN"
 "http://www.w3.org/Graphics/SVG/1.1/DTD/svg11.dtd">
<!-- Generated by graphviz version 2.40.1 (20161225.0304)
 -->
<!-- Title: queue.h Pages: 1 -->
<svg width="293pt" height="476pt"
 viewBox="0.00 0.00 293.00 476.00" xmlns="http://www.w3.org/2000/svg" xmlns:xlink="http://www.w3.org/1999/xlink">
<g id="graph0" class="graph" transform="scale(1 1) rotate(0) translate(4 472)">
<title>queue.h</title>
<polygon fill="#ffffff" stroke="transparent" points="-4,4 -4,-472 289,-472 289,4 -4,4"/>
<!-- Node32 -->
<g id="node1" class="node">
<title>Node32</title>
<polygon fill="#bfbfbf" stroke="#000000" points="77,-448.5 77,-467.5 133,-467.5 133,-448.5 77,-448.5"/>
<text text-anchor="middle" x="105" y="-455.5" font-family="Helvetica,sans-Serif" font-size="10.00" fill="#000000">queue.h</text>
</g>
<!-- Node33 -->
<g id="node2" class="node">
<title>Node33</title>
<g id="a_node2"><a xlink:href="crypto_8h.html" target="_top" xlink:title="ODP crypto. ">
<polygon fill="#ffffff" stroke="#000000" points="0,-280.5 0,-299.5 56,-299.5 56,-280.5 0,-280.5"/>
<text text-anchor="middle" x="28" y="-287.5" font-family="Helvetica,sans-Serif" font-size="10.00" fill="#000000">crypto.h</text>
</a>
</g>
</g>
<!-- Node32&#45;&gt;Node33 -->
<g id="edge1" class="edge">
<title>Node32&#45;&gt;Node33</title>
<path fill="none" stroke="#191970" d="M93.027,-439.8934C87.7779,-431.5768 81.7457,-421.4747 77,-412 56.7602,-371.5919 38.5168,-320.709 31.2891,-299.7269"/>
<polygon fill="#191970" stroke="#191970" points="90.1492,-441.889 98.5105,-448.3959 96.0319,-438.0951 90.1492,-441.889"/>
</g>
<!-- Node36 -->
<g id="node5" class="node">
<title>Node36</title>
<g id="a_node5"><a xlink:href="spec_2packet__io_8h.html" target="_top" xlink:title="ODP Packet IO. ">
<polygon fill="#ffffff" stroke="#000000" points="102.5,-280.5 102.5,-299.5 175.5,-299.5 175.5,-280.5 102.5,-280.5"/>
<text text-anchor="middle" x="139" y="-287.5" font-family="Helvetica,sans-Serif" font-size="10.00" fill="#000000">packet_io.h</text>
</a>
</g>
</g>
<!-- Node32&#45;&gt;Node36 -->
<g id="edge4" class="edge">
<title>Node32&#45;&gt;Node36</title>
<path fill="none" stroke="#191970" d="M94.7531,-439.217C90.8804,-431.0983 86.9414,-421.3345 85,-412 78.1218,-378.9299 70.8388,-366.6659 85,-336 92.3833,-320.0115 108.3676,-307.5319 121.0401,-299.6299"/>
<polygon fill="#191970" stroke="#191970" points="91.6514,-440.839 99.3055,-448.1646 97.8903,-437.6647 91.6514,-440.839"/>
</g>
<!-- Node42 -->
<g id="node11" class="node">
<title>Node42</title>
<g id="a_node11"><a xlink:href="spec_2packet__io__stats_8h.html" target="_top" xlink:title="ODP Packet IO statistics. ">
<polygon fill="#ffffff" stroke="#000000" points="94,-392.5 94,-411.5 196,-411.5 196,-392.5 94,-392.5"/>
<text text-anchor="middle" x="145" y="-399.5" font-family="Helvetica,sans-Serif" font-size="10.00" fill="#000000">packet_io_stats.h</text>
</a>
</g>
</g>
<!-- Node32&#45;&gt;Node42 -->
<g id="edge13" class="edge">
<title>Node32&#45;&gt;Node42</title>
<path fill="none" stroke="#191970" d="M117.9136,-439.9209C124.6303,-430.5176 132.5717,-419.3997 138.1124,-411.6427"/>
<polygon fill="#191970" stroke="#191970" points="114.9318,-438.0738 111.9675,-448.2455 120.628,-442.1425 114.9318,-438.0738"/>
</g>
<!-- Node44 -->
<g id="node13" class="node">
<title>Node44</title>
<g id="a_node13"><a xlink:href="spec_2schedule_8h.html" target="_top" xlink:title="ODP schedule. ">
<polygon fill="#ffffff" stroke="#000000" points="214.5,-392.5 214.5,-411.5 283.5,-411.5 283.5,-392.5 214.5,-392.5"/>
<text text-anchor="middle" x="249" y="-399.5" font-family="Helvetica,sans-Serif" font-size="10.00" fill="#000000">schedule.h</text>
</a>
</g>
</g>
<!-- Node32&#45;&gt;Node44 -->
<g id="edge16" class="edge">
<title>Node32&#45;&gt;Node44</title>
<path fill="none" stroke="#191970" d="M139.3182,-444.6541C165.578,-434.4419 201.1492,-420.6086 224.5685,-411.5011"/>
<polygon fill="#191970" stroke="#191970" points="137.806,-441.4867 129.7545,-448.3733 140.3431,-448.0108 137.806,-441.4867"/>
</g>
<!-- Node34 -->
<g id="node3" class="node">
<title>Node34</title>
<g id="a_node3"><a xlink:href="spec_2ipsec_8h.html" target="_top" xlink:title="ODP IPSEC API. ">
<polygon fill="#ffffff" stroke="#000000" points="76.5,-56.5 76.5,-75.5 127.5,-75.5 127.5,-56.5 76.5,-56.5"/>
<text text-anchor="middle" x="102" y="-63.5" font-family="Helvetica,sans-Serif" font-size="10.00" fill="#000000">ipsec.h</text>
</a>
</g>
</g>
<!-- Node33&#45;&gt;Node34 -->
<g id="edge2" class="edge">
<title>Node33&#45;&gt;Node34</title>
<path fill="none" stroke="#191970" d="M31.8806,-270.2696C38.7804,-236.9127 54.5936,-167.5774 77,-112 82.3019,-98.8492 90.4255,-84.6444 95.9631,-75.5535"/>
<polygon fill="#191970" stroke="#191970" points="28.3662,-269.9911 29.8155,-280.4863 35.2274,-271.3779 28.3662,-269.9911"/>
</g>
<!-- Node35 -->
<g id="node4" class="node">
<title>Node35</title>
<g id="a_node4"><a xlink:href="ipsec_8h.html" target="_top" xlink:title="ODP IPSEC API &#45; platform specific header. ">
<polygon fill="#ffffff" stroke="#000000" points="76.5,-.5 76.5,-19.5 127.5,-19.5 127.5,-.5 76.5,-.5"/>
<text text-anchor="middle" x="102" y="-7.5" font-family="Helvetica,sans-Serif" font-size="10.00" fill="#000000">ipsec.h</text>
</a>
</g>
</g>
<!-- Node34&#45;&gt;Node35 -->
<g id="edge3" class="edge">
<title>Node34&#45;&gt;Node35</title>
<path fill="none" stroke="#191970" d="M102,-46.1575C102,-37.155 102,-26.9199 102,-19.6427"/>
<polygon fill="#191970" stroke="#191970" points="98.5001,-46.2455 102,-56.2455 105.5001,-46.2456 98.5001,-46.2455"/>
</g>
<!-- Node37 -->
<g id="node6" class="node">
<title>Node37</title>
<g id="a_node6"><a xlink:href="packet__io_8h.html" target="_top" xlink:title="ODP Packet IO. ">
<polygon fill="#ffffff" stroke="#000000" points="102.5,-224.5 102.5,-243.5 175.5,-243.5 175.5,-224.5 102.5,-224.5"/>
<text text-anchor="middle" x="139" y="-231.5" font-family="Helvetica,sans-Serif" font-size="10.00" fill="#000000">packet_io.h</text>
</a>
</g>
</g>
<!-- Node36&#45;&gt;Node37 -->
<g id="edge5" class="edge">
<title>Node36&#45;&gt;Node37</title>
<path fill="none" stroke="#191970" d="M139,-270.1575C139,-261.155 139,-250.9199 139,-243.6427"/>
<polygon fill="#191970" stroke="#191970" points="135.5001,-270.2455 139,-280.2455 142.5001,-270.2456 135.5001,-270.2455"/>
</g>
<!-- Node37&#45;&gt;Node34 -->
<g id="edge9" class="edge">
<title>Node37&#45;&gt;Node34</title>
<path fill="none" stroke="#191970" d="M113.0726,-218.5977C102.6131,-210.8639 91.6889,-200.4704 86,-188 68.3563,-149.3242 87.8112,-97.057 97.3495,-75.6992"/>
<polygon fill="#191970" stroke="#191970" points="111.3963,-221.6918 121.6242,-224.4558 115.3523,-215.9168 111.3963,-221.6918"/>
</g>
<!-- Node38 -->
<g id="node7" class="node">
<title>Node38</title>
<g id="a_node7"><a xlink:href="spec_2classification_8h.html" target="_top" xlink:title="ODP classification descriptor. ">
<polygon fill="#ffffff" stroke="#000000" points="94.5,-168.5 94.5,-187.5 183.5,-187.5 183.5,-168.5 94.5,-168.5"/>
<text text-anchor="middle" x="139" y="-175.5" font-family="Helvetica,sans-Serif" font-size="10.00" fill="#000000">classification.h</text>
</a>
</g>
</g>
<!-- Node37&#45;&gt;Node38 -->
<g id="edge6" class="edge">
<title>Node37&#45;&gt;Node38</title>
<path fill="none" stroke="#191970" d="M139,-214.1575C139,-205.155 139,-194.9199 139,-187.6427"/>
<polygon fill="#191970" stroke="#191970" points="135.5001,-214.2455 139,-224.2455 142.5001,-214.2456 135.5001,-214.2455"/>
</g>
<!-- Node40 -->
<g id="node9" class="node">
<title>Node40</title>
<g id="a_node9"><a xlink:href="spec_2traffic__mngr_8h.html" target="_top" xlink:title="Copyright (c) 2015&#45;2018, Linaro Limited All rights reserved. ">
<polygon fill="#ffffff" stroke="#000000" points="201,-168.5 201,-187.5 285,-187.5 285,-168.5 201,-168.5"/>
<text text-anchor="middle" x="243" y="-175.5" font-family="Helvetica,sans-Serif" font-size="10.00" fill="#000000">traffic_mngr.h</text>
</a>
</g>
</g>
<!-- Node37&#45;&gt;Node40 -->
<g id="edge10" class="edge">
<title>Node37&#45;&gt;Node40</title>
<path fill="none" stroke="#191970" d="M166.0029,-219.46C184.6136,-209.4388 208.8299,-196.3993 225.0922,-187.6427"/>
<polygon fill="#191970" stroke="#191970" points="164.2608,-216.4228 157.1154,-224.2455 167.5795,-222.5861 164.2608,-216.4228"/>
</g>
<!-- Node39 -->
<g id="node8" class="node">
<title>Node39</title>
<g id="a_node8"><a xlink:href="classification_8h.html" target="_top" xlink:title="ODP classification descriptor. ">
<polygon fill="#ffffff" stroke="#000000" points="94.5,-112.5 94.5,-131.5 183.5,-131.5 183.5,-112.5 94.5,-112.5"/>
<text text-anchor="middle" x="139" y="-119.5" font-family="Helvetica,sans-Serif" font-size="10.00" fill="#000000">classification.h</text>
</a>
</g>
</g>
<!-- Node38&#45;&gt;Node39 -->
<g id="edge7" class="edge">
<title>Node38&#45;&gt;Node39</title>
<path fill="none" stroke="#191970" d="M139,-158.1575C139,-149.155 139,-138.9199 139,-131.6427"/>
<polygon fill="#191970" stroke="#191970" points="135.5001,-158.2455 139,-168.2455 142.5001,-158.2456 135.5001,-158.2455"/>
</g>
<!-- Node39&#45;&gt;Node34 -->
<g id="edge8" class="edge">
<title>Node39&#45;&gt;Node34</title>
<path fill="none" stroke="#191970" d="M126.8624,-103.6296C120.6907,-94.2887 113.4434,-83.3197 108.3711,-75.6427"/>
<polygon fill="#191970" stroke="#191970" points="124.1223,-105.8316 132.5551,-112.2455 129.9627,-101.9728 124.1223,-105.8316"/>
</g>
<!-- Node41 -->
<g id="node10" class="node">
<title>Node41</title>
<g id="a_node10"><a xlink:href="traffic__mngr_8h.html" target="_top" xlink:title="ODP Traffic manager. ">
<polygon fill="#ffffff" stroke="#000000" points="201,-112.5 201,-131.5 285,-131.5 285,-112.5 201,-112.5"/>
<text text-anchor="middle" x="243" y="-119.5" font-family="Helvetica,sans-Serif" font-size="10.00" fill="#000000">traffic_mngr.h</text>
</a>
</g>
</g>
<!-- Node40&#45;&gt;Node41 -->
<g id="edge11" class="edge">
<title>Node40&#45;&gt;Node41</title>
<path fill="none" stroke="#191970" d="M243,-158.1575C243,-149.155 243,-138.9199 243,-131.6427"/>
<polygon fill="#191970" stroke="#191970" points="239.5001,-158.2455 243,-168.2455 246.5001,-158.2456 239.5001,-158.2455"/>
</g>
<!-- Node41&#45;&gt;Node34 -->
<g id="edge12" class="edge">
<title>Node41&#45;&gt;Node34</title>
<path fill="none" stroke="#191970" d="M209.3968,-108.6541C183.6841,-98.4419 148.8539,-84.6086 125.9225,-75.5011"/>
<polygon fill="#191970" stroke="#191970" points="208.1755,-111.9349 218.7612,-112.3733 210.7593,-105.4292 208.1755,-111.9349"/>
</g>
<!-- Node43 -->
<g id="node12" class="node">
<title>Node43</title>
<g id="a_node12"><a xlink:href="packet__io__stats_8h.html" target="_top" xlink:title="ODP packet IO stats. ">
<polygon fill="#ffffff" stroke="#000000" points="94,-336.5 94,-355.5 196,-355.5 196,-336.5 94,-336.5"/>
<text text-anchor="middle" x="145" y="-343.5" font-family="Helvetica,sans-Serif" font-size="10.00" fill="#000000">packet_io_stats.h</text>
</a>
</g>
</g>
<!-- Node42&#45;&gt;Node43 -->
<g id="edge14" class="edge">
<title>Node42&#45;&gt;Node43</title>
<path fill="none" stroke="#191970" d="M145,-382.1575C145,-373.155 145,-362.9199 145,-355.6427"/>
<polygon fill="#191970" stroke="#191970" points="141.5001,-382.2455 145,-392.2455 148.5001,-382.2456 141.5001,-382.2455"/>
</g>
<!-- Node43&#45;&gt;Node36 -->
<g id="edge15" class="edge">
<title>Node43&#45;&gt;Node36</title>
<path fill="none" stroke="#191970" d="M142.874,-326.1575C141.9095,-317.155 140.8128,-306.9199 140.0331,-299.6427"/>
<polygon fill="#191970" stroke="#191970" points="139.4094,-326.6753 143.9549,-336.2455 146.3695,-325.9296 139.4094,-326.6753"/>
</g>
<!-- Node45 -->
<g id="node14" class="node">
<title>Node45</title>
<g id="a_node14"><a xlink:href="schedule_8h.html" target="_top" xlink:title="ODP schedule. ">
<polygon fill="#ffffff" stroke="#000000" points="214.5,-336.5 214.5,-355.5 283.5,-355.5 283.5,-336.5 214.5,-336.5"/>
<text text-anchor="middle" x="249" y="-343.5" font-family="Helvetica,sans-Serif" font-size="10.00" fill="#000000">schedule.h</text>
</a>
</g>
</g>
<!-- Node44&#45;&gt;Node45 -->
<g id="edge17" class="edge">
<title>Node44&#45;&gt;Node45</title>
<path fill="none" stroke="#191970" d="M249,-382.1575C249,-373.155 249,-362.9199 249,-355.6427"/>
<polygon fill="#191970" stroke="#191970" points="245.5001,-382.2455 249,-392.2455 252.5001,-382.2456 245.5001,-382.2455"/>
</g>
</g>
</svg>
