<?xml version="1.0" encoding="UTF-8" standalone="no"?>
<!DOCTYPE svg PUBLIC "-//W3C//DTD SVG 1.1//EN"
 "http://www.w3.org/Graphics/SVG/1.1/DTD/svg11.dtd">
<!-- Generated by graphviz version 2.40.1 (20161225.0304)
 -->
<!-- Title: schedule_types.h Pages: 1 -->
<svg width="297pt" height="644pt"
 viewBox="0.00 0.00 296.50 644.00" xmlns="http://www.w3.org/2000/svg" xmlns:xlink="http://www.w3.org/1999/xlink">
<g id="graph0" class="graph" transform="scale(1 1) rotate(0) translate(4 640)">
<title>schedule_types.h</title>
<polygon fill="#ffffff" stroke="transparent" points="-4,4 -4,-640 292.5,-640 292.5,4 -4,4"/>
<!-- Node7 -->
<g id="node1" class="node">
<title>Node7</title>
<polygon fill="#bfbfbf" stroke="#000000" points="162.5,-616.5 162.5,-635.5 263.5,-635.5 263.5,-616.5 162.5,-616.5"/>
<text text-anchor="middle" x="213" y="-623.5" font-family="Helvetica,sans-Serif" font-size="10.00" fill="#000000">schedule_types.h</text>
</g>
<!-- Node8 -->
<g id="node2" class="node">
<title>Node8</title>
<g id="a_node2"><a xlink:href="queue__types_8h.html" target="_top" xlink:title="ODP queue types. ">
<polygon fill="#ffffff" stroke="#000000" points="125,-560.5 125,-579.5 213,-579.5 213,-560.5 125,-560.5"/>
<text text-anchor="middle" x="169" y="-567.5" font-family="Helvetica,sans-Serif" font-size="10.00" fill="#000000">queue_types.h</text>
</a>
</g>
</g>
<!-- Node7&#45;&gt;Node8 -->
<g id="edge1" class="edge">
<title>Node7&#45;&gt;Node8</title>
<path fill="none" stroke="#191970" d="M199.0231,-608.2112C191.5871,-598.7472 182.734,-587.4797 176.5764,-579.6427"/>
<polygon fill="#191970" stroke="#191970" points="196.4054,-610.5447 205.3358,-616.2455 201.9097,-606.22 196.4054,-610.5447"/>
</g>
<!-- Node22 -->
<g id="node16" class="node">
<title>Node22</title>
<g id="a_node16"><a xlink:href="spec_2schedule_8h.html" target="_top" xlink:title="ODP schedule. ">
<polygon fill="#ffffff" stroke="#000000" points="219.5,-392.5 219.5,-411.5 288.5,-411.5 288.5,-392.5 219.5,-392.5"/>
<text text-anchor="middle" x="254" y="-399.5" font-family="Helvetica,sans-Serif" font-size="10.00" fill="#000000">schedule.h</text>
</a>
</g>
</g>
<!-- Node7&#45;&gt;Node22 -->
<g id="edge23" class="edge">
<title>Node7&#45;&gt;Node22</title>
<path fill="none" stroke="#191970" d="M218.4446,-606.5477C224.0009,-586.1254 232.559,-553.013 238,-524 245.7962,-482.4281 251.1039,-432.1817 253.1088,-411.5476"/>
<polygon fill="#191970" stroke="#191970" points="215.0586,-605.6611 215.7753,-616.2317 221.8069,-607.5213 215.0586,-605.6611"/>
</g>
<!-- Node9 -->
<g id="node3" class="node">
<title>Node9</title>
<g id="a_node3"><a xlink:href="spec_2queue_8h.html" target="_top" xlink:title="ODP queue. ">
<polygon fill="#ffffff" stroke="#000000" points="35,-504.5 35,-523.5 91,-523.5 91,-504.5 35,-504.5"/>
<text text-anchor="middle" x="63" y="-511.5" font-family="Helvetica,sans-Serif" font-size="10.00" fill="#000000">queue.h</text>
</a>
</g>
</g>
<!-- Node8&#45;&gt;Node9 -->
<g id="edge2" class="edge">
<title>Node8&#45;&gt;Node9</title>
<path fill="none" stroke="#191970" d="M141.4778,-555.46C122.5092,-545.4388 97.8273,-532.3993 81.2522,-523.6427"/>
<polygon fill="#191970" stroke="#191970" points="140.0593,-558.669 150.5362,-560.2455 143.3292,-552.4796 140.0593,-558.669"/>
</g>
<!-- Node24 -->
<g id="node18" class="node">
<title>Node24</title>
<g id="a_node18"><a xlink:href="queue__inline__types_8h_source.html" target="_top" xlink:title="queue_inline_types.h">
<polygon fill="#ffffff" stroke="#000000" points="109,-504.5 109,-523.5 229,-523.5 229,-504.5 109,-504.5"/>
<text text-anchor="middle" x="169" y="-511.5" font-family="Helvetica,sans-Serif" font-size="10.00" fill="#000000">queue_inline_types.h</text>
</a>
</g>
</g>
<!-- Node8&#45;&gt;Node24 -->
<g id="edge21" class="edge">
<title>Node8&#45;&gt;Node24</title>
<path fill="none" stroke="#191970" d="M169,-550.1575C169,-541.155 169,-530.9199 169,-523.6427"/>
<polygon fill="#191970" stroke="#191970" points="165.5001,-550.2455 169,-560.2455 172.5001,-550.2456 165.5001,-550.2455"/>
</g>
<!-- Node10 -->
<g id="node4" class="node">
<title>Node10</title>
<g id="a_node4"><a xlink:href="queue_8h.html" target="_top" xlink:title="ODP queue. ">
<polygon fill="#ffffff" stroke="#000000" points="38,-448.5 38,-467.5 94,-467.5 94,-448.5 38,-448.5"/>
<text text-anchor="middle" x="66" y="-455.5" font-family="Helvetica,sans-Serif" font-size="10.00" fill="#000000">queue.h</text>
</a>
</g>
</g>
<!-- Node9&#45;&gt;Node10 -->
<g id="edge3" class="edge">
<title>Node9&#45;&gt;Node10</title>
<path fill="none" stroke="#191970" d="M64.063,-494.1575C64.5453,-485.155 65.0936,-474.9199 65.4834,-467.6427"/>
<polygon fill="#191970" stroke="#191970" points="60.5626,-494.0726 63.5226,-504.2455 67.5526,-494.4471 60.5626,-494.0726"/>
</g>
<!-- Node11 -->
<g id="node5" class="node">
<title>Node11</title>
<g id="a_node5"><a xlink:href="crypto_8h.html" target="_top" xlink:title="ODP crypto. ">
<polygon fill="#ffffff" stroke="#000000" points="0,-280.5 0,-299.5 56,-299.5 56,-280.5 0,-280.5"/>
<text text-anchor="middle" x="28" y="-287.5" font-family="Helvetica,sans-Serif" font-size="10.00" fill="#000000">crypto.h</text>
</a>
</g>
</g>
<!-- Node10&#45;&gt;Node11 -->
<g id="edge4" class="edge">
<title>Node10&#45;&gt;Node11</title>
<path fill="none" stroke="#191970" d="M59.5971,-438.5292C57.0432,-430.3834 54.1949,-420.7847 52,-412 41.6394,-370.5334 32.9484,-320.2294 29.5421,-299.5639"/>
<polygon fill="#191970" stroke="#191970" points="56.3158,-439.7586 62.7053,-448.21 62.9807,-437.6187 56.3158,-439.7586"/>
</g>
<!-- Node14 -->
<g id="node8" class="node">
<title>Node14</title>
<g id="a_node8"><a xlink:href="spec_2packet__io_8h.html" target="_top" xlink:title="ODP Packet IO. ">
<polygon fill="#ffffff" stroke="#000000" points="102.5,-280.5 102.5,-299.5 175.5,-299.5 175.5,-280.5 102.5,-280.5"/>
<text text-anchor="middle" x="139" y="-287.5" font-family="Helvetica,sans-Serif" font-size="10.00" fill="#000000">packet_io.h</text>
</a>
</g>
</g>
<!-- Node10&#45;&gt;Node14 -->
<g id="edge7" class="edge">
<title>Node10&#45;&gt;Node14</title>
<path fill="none" stroke="#191970" d="M64.9921,-438.2418C64.5753,-412.9276 66.8551,-368.4493 85,-336 93.7154,-320.4139 109.8819,-307.7264 122.2628,-299.6542"/>
<polygon fill="#191970" stroke="#191970" points="61.4997,-438.5324 65.3261,-448.4121 68.4959,-438.3026 61.4997,-438.5324"/>
</g>
<!-- Node20 -->
<g id="node14" class="node">
<title>Node20</title>
<g id="a_node14"><a xlink:href="spec_2packet__io__stats_8h.html" target="_top" xlink:title="ODP Packet IO statistics. ">
<polygon fill="#ffffff" stroke="#000000" points="94,-392.5 94,-411.5 196,-411.5 196,-392.5 94,-392.5"/>
<text text-anchor="middle" x="145" y="-399.5" font-family="Helvetica,sans-Serif" font-size="10.00" fill="#000000">packet_io_stats.h</text>
</a>
</g>
</g>
<!-- Node10&#45;&gt;Node20 -->
<g id="edge16" class="edge">
<title>Node10&#45;&gt;Node20</title>
<path fill="none" stroke="#191970" d="M88.2756,-442.2097C102.1505,-432.3743 119.5515,-420.0394 131.3969,-411.6427"/>
<polygon fill="#191970" stroke="#191970" points="85.8949,-439.6071 79.7607,-448.2455 89.9431,-445.3178 85.8949,-439.6071"/>
</g>
<!-- Node10&#45;&gt;Node22 -->
<g id="edge19" class="edge">
<title>Node10&#45;&gt;Node22</title>
<path fill="none" stroke="#191970" d="M103.9006,-446.7105C138.5335,-436.3943 189.1873,-421.3059 221.8769,-411.5686"/>
<polygon fill="#191970" stroke="#191970" points="102.7302,-443.407 94.1455,-449.6162 104.7286,-450.1157 102.7302,-443.407"/>
</g>
<!-- Node12 -->
<g id="node6" class="node">
<title>Node12</title>
<g id="a_node6"><a xlink:href="spec_2ipsec_8h.html" target="_top" xlink:title="ODP IPSEC API. ">
<polygon fill="#ffffff" stroke="#000000" points="76.5,-56.5 76.5,-75.5 127.5,-75.5 127.5,-56.5 76.5,-56.5"/>
<text text-anchor="middle" x="102" y="-63.5" font-family="Helvetica,sans-Serif" font-size="10.00" fill="#000000">ipsec.h</text>
</a>
</g>
</g>
<!-- Node11&#45;&gt;Node12 -->
<g id="edge5" class="edge">
<title>Node11&#45;&gt;Node12</title>
<path fill="none" stroke="#191970" d="M31.8806,-270.2696C38.7804,-236.9127 54.5936,-167.5774 77,-112 82.3019,-98.8492 90.4255,-84.6444 95.9631,-75.5535"/>
<polygon fill="#191970" stroke="#191970" points="28.3662,-269.9911 29.8155,-280.4863 35.2274,-271.3779 28.3662,-269.9911"/>
</g>
<!-- Node13 -->
<g id="node7" class="node">
<title>Node13</title>
<g id="a_node7"><a xlink:href="ipsec_8h.html" target="_top" xlink:title="ODP IPSEC API &#45; platform specific header. ">
<polygon fill="#ffffff" stroke="#000000" points="76.5,-.5 76.5,-19.5 127.5,-19.5 127.5,-.5 76.5,-.5"/>
<text text-anchor="middle" x="102" y="-7.5" font-family="Helvetica,sans-Serif" font-size="10.00" fill="#000000">ipsec.h</text>
</a>
</g>
</g>
<!-- Node12&#45;&gt;Node13 -->
<g id="edge6" class="edge">
<title>Node12&#45;&gt;Node13</title>
<path fill="none" stroke="#191970" d="M102,-46.1575C102,-37.155 102,-26.9199 102,-19.6427"/>
<polygon fill="#191970" stroke="#191970" points="98.5001,-46.2455 102,-56.2455 105.5001,-46.2456 98.5001,-46.2455"/>
</g>
<!-- Node15 -->
<g id="node9" class="node">
<title>Node15</title>
<g id="a_node9"><a xlink:href="packet__io_8h.html" target="_top" xlink:title="ODP Packet IO. ">
<polygon fill="#ffffff" stroke="#000000" points="102.5,-224.5 102.5,-243.5 175.5,-243.5 175.5,-224.5 102.5,-224.5"/>
<text text-anchor="middle" x="139" y="-231.5" font-family="Helvetica,sans-Serif" font-size="10.00" fill="#000000">packet_io.h</text>
</a>
</g>
</g>
<!-- Node14&#45;&gt;Node15 -->
<g id="edge8" class="edge">
<title>Node14&#45;&gt;Node15</title>
<path fill="none" stroke="#191970" d="M139,-270.1575C139,-261.155 139,-250.9199 139,-243.6427"/>
<polygon fill="#191970" stroke="#191970" points="135.5001,-270.2455 139,-280.2455 142.5001,-270.2456 135.5001,-270.2455"/>
</g>
<!-- Node15&#45;&gt;Node12 -->
<g id="edge12" class="edge">
<title>Node15&#45;&gt;Node12</title>
<path fill="none" stroke="#191970" d="M113.0726,-218.5977C102.6131,-210.8639 91.6889,-200.4704 86,-188 68.3563,-149.3242 87.8112,-97.057 97.3495,-75.6992"/>
<polygon fill="#191970" stroke="#191970" points="111.3963,-221.6918 121.6242,-224.4558 115.3523,-215.9168 111.3963,-221.6918"/>
</g>
<!-- Node16 -->
<g id="node10" class="node">
<title>Node16</title>
<g id="a_node10"><a xlink:href="spec_2classification_8h.html" target="_top" xlink:title="ODP classification descriptor. ">
<polygon fill="#ffffff" stroke="#000000" points="94.5,-168.5 94.5,-187.5 183.5,-187.5 183.5,-168.5 94.5,-168.5"/>
<text text-anchor="middle" x="139" y="-175.5" font-family="Helvetica,sans-Serif" font-size="10.00" fill="#000000">classification.h</text>
</a>
</g>
</g>
<!-- Node15&#45;&gt;Node16 -->
<g id="edge9" class="edge">
<title>Node15&#45;&gt;Node16</title>
<path fill="none" stroke="#191970" d="M139,-214.1575C139,-205.155 139,-194.9199 139,-187.6427"/>
<polygon fill="#191970" stroke="#191970" points="135.5001,-214.2455 139,-224.2455 142.5001,-214.2456 135.5001,-214.2455"/>
</g>
<!-- Node18 -->
<g id="node12" class="node">
<title>Node18</title>
<g id="a_node12"><a xlink:href="spec_2traffic__mngr_8h.html" target="_top" xlink:title="Copyright (c) 2015&#45;2018, Linaro Limited All rights reserved. ">
<polygon fill="#ffffff" stroke="#000000" points="201,-168.5 201,-187.5 285,-187.5 285,-168.5 201,-168.5"/>
<text text-anchor="middle" x="243" y="-175.5" font-family="Helvetica,sans-Serif" font-size="10.00" fill="#000000">traffic_mngr.h</text>
</a>
</g>
</g>
<!-- Node15&#45;&gt;Node18 -->
<g id="edge13" class="edge">
<title>Node15&#45;&gt;Node18</title>
<path fill="none" stroke="#191970" d="M166.0029,-219.46C184.6136,-209.4388 208.8299,-196.3993 225.0922,-187.6427"/>
<polygon fill="#191970" stroke="#191970" points="164.2608,-216.4228 157.1154,-224.2455 167.5795,-222.5861 164.2608,-216.4228"/>
</g>
<!-- Node17 -->
<g id="node11" class="node">
<title>Node17</title>
<g id="a_node11"><a xlink:href="classification_8h.html" target="_top" xlink:title="ODP classification descriptor. ">
<polygon fill="#ffffff" stroke="#000000" points="94.5,-112.5 94.5,-131.5 183.5,-131.5 183.5,-112.5 94.5,-112.5"/>
<text text-anchor="middle" x="139" y="-119.5" font-family="Helvetica,sans-Serif" font-size="10.00" fill="#000000">classification.h</text>
</a>
</g>
</g>
<!-- Node16&#45;&gt;Node17 -->
<g id="edge10" class="edge">
<title>Node16&#45;&gt;Node17</title>
<path fill="none" stroke="#191970" d="M139,-158.1575C139,-149.155 139,-138.9199 139,-131.6427"/>
<polygon fill="#191970" stroke="#191970" points="135.5001,-158.2455 139,-168.2455 142.5001,-158.2456 135.5001,-158.2455"/>
</g>
<!-- Node17&#45;&gt;Node12 -->
<g id="edge11" class="edge">
<title>Node17&#45;&gt;Node12</title>
<path fill="none" stroke="#191970" d="M126.8624,-103.6296C120.6907,-94.2887 113.4434,-83.3197 108.3711,-75.6427"/>
<polygon fill="#191970" stroke="#191970" points="124.1223,-105.8316 132.5551,-112.2455 129.9627,-101.9728 124.1223,-105.8316"/>
</g>
<!-- Node19 -->
<g id="node13" class="node">
<title>Node19</title>
<g id="a_node13"><a xlink:href="traffic__mngr_8h.html" target="_top" xlink:title="ODP Traffic manager. ">
<polygon fill="#ffffff" stroke="#000000" points="201,-112.5 201,-131.5 285,-131.5 285,-112.5 201,-112.5"/>
<text text-anchor="middle" x="243" y="-119.5" font-family="Helvetica,sans-Serif" font-size="10.00" fill="#000000">traffic_mngr.h</text>
</a>
</g>
</g>
<!-- Node18&#45;&gt;Node19 -->
<g id="edge14" class="edge">
<title>Node18&#45;&gt;Node19</title>
<path fill="none" stroke="#191970" d="M243,-158.1575C243,-149.155 243,-138.9199 243,-131.6427"/>
<polygon fill="#191970" stroke="#191970" points="239.5001,-158.2455 243,-168.2455 246.5001,-158.2456 239.5001,-158.2455"/>
</g>
<!-- Node19&#45;&gt;Node12 -->
<g id="edge15" class="edge">
<title>Node19&#45;&gt;Node12</title>
<path fill="none" stroke="#191970" d="M209.3968,-108.6541C183.6841,-98.4419 148.8539,-84.6086 125.9225,-75.5011"/>
<polygon fill="#191970" stroke="#191970" points="208.1755,-111.9349 218.7612,-112.3733 210.7593,-105.4292 208.1755,-111.9349"/>
</g>
<!-- Node21 -->
<g id="node15" class="node">
<title>Node21</title>
<g id="a_node15"><a xlink:href="packet__io__stats_8h.html" target="_top" xlink:title="ODP packet IO stats. ">
<polygon fill="#ffffff" stroke="#000000" points="94,-336.5 94,-355.5 196,-355.5 196,-336.5 94,-336.5"/>
<text text-anchor="middle" x="145" y="-343.5" font-family="Helvetica,sans-Serif" font-size="10.00" fill="#000000">packet_io_stats.h</text>
</a>
</g>
</g>
<!-- Node20&#45;&gt;Node21 -->
<g id="edge17" class="edge">
<title>Node20&#45;&gt;Node21</title>
<path fill="none" stroke="#191970" d="M145,-382.1575C145,-373.155 145,-362.9199 145,-355.6427"/>
<polygon fill="#191970" stroke="#191970" points="141.5001,-382.2455 145,-392.2455 148.5001,-382.2456 141.5001,-382.2455"/>
</g>
<!-- Node21&#45;&gt;Node14 -->
<g id="edge18" class="edge">
<title>Node21&#45;&gt;Node14</title>
<path fill="none" stroke="#191970" d="M142.874,-326.1575C141.9095,-317.155 140.8128,-306.9199 140.0331,-299.6427"/>
<polygon fill="#191970" stroke="#191970" points="139.4094,-326.6753 143.9549,-336.2455 146.3695,-325.9296 139.4094,-326.6753"/>
</g>
<!-- Node23 -->
<g id="node17" class="node">
<title>Node23</title>
<g id="a_node17"><a xlink:href="schedule_8h.html" target="_top" xlink:title="ODP schedule. ">
<polygon fill="#ffffff" stroke="#000000" points="219.5,-336.5 219.5,-355.5 288.5,-355.5 288.5,-336.5 219.5,-336.5"/>
<text text-anchor="middle" x="254" y="-343.5" font-family="Helvetica,sans-Serif" font-size="10.00" fill="#000000">schedule.h</text>
</a>
</g>
</g>
<!-- Node22&#45;&gt;Node23 -->
<g id="edge20" class="edge">
<title>Node22&#45;&gt;Node23</title>
<path fill="none" stroke="#191970" d="M254,-382.1575C254,-373.155 254,-362.9199 254,-355.6427"/>
<polygon fill="#191970" stroke="#191970" points="250.5001,-382.2455 254,-392.2455 257.5001,-382.2456 250.5001,-382.2455"/>
</g>
<!-- Node25 -->
<g id="node19" class="node">
<title>Node25</title>
<g id="a_node19"><a xlink:href="queue__inlines_8h_source.html" target="_top" xlink:title="queue_inlines.h">
<polygon fill="#ffffff" stroke="#000000" points="122.5,-448.5 122.5,-467.5 215.5,-467.5 215.5,-448.5 122.5,-448.5"/>
<text text-anchor="middle" x="169" y="-455.5" font-family="Helvetica,sans-Serif" font-size="10.00" fill="#000000">queue_inlines.h</text>
</a>
</g>
</g>
<!-- Node24&#45;&gt;Node25 -->
<g id="edge22" class="edge">
<title>Node24&#45;&gt;Node25</title>
<path fill="none" stroke="#191970" d="M169,-494.1575C169,-485.155 169,-474.9199 169,-467.6427"/>
<polygon fill="#191970" stroke="#191970" points="165.5001,-494.2455 169,-504.2455 172.5001,-494.2456 165.5001,-494.2455"/>
</g>
</g>
</svg>
