<?xml version="1.0" encoding="UTF-8" standalone="no"?>
<!DOCTYPE svg PUBLIC "-//W3C//DTD SVG 1.1//EN"
 "http://www.w3.org/Graphics/SVG/1.1/DTD/svg11.dtd">
<!-- Generated by graphviz version 2.40.1 (20161225.0304)
 -->
<!-- Title: std_types.h Pages: 1 -->
<svg width="2563pt" height="420pt"
 viewBox="0.00 0.00 2563.00 420.00" xmlns="http://www.w3.org/2000/svg" xmlns:xlink="http://www.w3.org/1999/xlink">
<g id="graph0" class="graph" transform="scale(1 1) rotate(0) translate(4 416)">
<title>std_types.h</title>
<polygon fill="#ffffff" stroke="transparent" points="-4,4 -4,-416 2559,-416 2559,4 -4,4"/>
<!-- Node7 -->
<g id="node1" class="node">
<title>Node7</title>
<polygon fill="#bfbfbf" stroke="#000000" points="1301,-392.5 1301,-411.5 1374,-411.5 1374,-392.5 1301,-392.5"/>
<text text-anchor="middle" x="1337.5" y="-399.5" font-family="Helvetica,sans-Serif" font-size="10.00" fill="#000000">std_types.h</text>
</g>
<!-- Node8 -->
<g id="node2" class="node">
<title>Node8</title>
<g id="a_node2"><a xlink:href="std__types_8h.html" target="_top" xlink:title="Standard C language types and definitions for ODP. ">
<polygon fill="#ffffff" stroke="#000000" points="1301,-336.5 1301,-355.5 1374,-355.5 1374,-336.5 1301,-336.5"/>
<text text-anchor="middle" x="1337.5" y="-343.5" font-family="Helvetica,sans-Serif" font-size="10.00" fill="#000000">std_types.h</text>
</a>
</g>
</g>
<!-- Node7&#45;&gt;Node8 -->
<g id="edge1" class="edge">
<title>Node7&#45;&gt;Node8</title>
<path fill="none" stroke="#191970" d="M1337.5,-382.1575C1337.5,-373.155 1337.5,-362.9199 1337.5,-355.6427"/>
<polygon fill="#191970" stroke="#191970" points="1334.0001,-382.2455 1337.5,-392.2455 1341.0001,-382.2456 1334.0001,-382.2455"/>
</g>
<!-- Node9 -->
<g id="node3" class="node">
<title>Node9</title>
<g id="a_node3"><a xlink:href="abi-default_2atomic_8h.html" target="_top" xlink:title="ODP atomic operations. ">
<polygon fill="#ffffff" stroke="#000000" points="0,-280.5 0,-299.5 59,-299.5 59,-280.5 0,-280.5"/>
<text text-anchor="middle" x="29.5" y="-287.5" font-family="Helvetica,sans-Serif" font-size="10.00" fill="#000000">atomic.h</text>
</a>
</g>
</g>
<!-- Node8&#45;&gt;Node9 -->
<g id="edge2" class="edge">
<title>Node8&#45;&gt;Node9</title>
<path fill="none" stroke="#191970" d="M1290.8031,-345.6899C1091.405,-344.1533 310.4672,-335.9171 67.5,-300 64.8006,-299.601 62.017,-299.0825 59.2415,-298.4916"/>
<polygon fill="#191970" stroke="#191970" points="1290.9154,-349.1908 1300.9414,-345.7661 1290.968,-342.191 1290.9154,-349.1908"/>
</g>
<!-- Node10 -->
<g id="node4" class="node">
<title>Node10</title>
<g id="a_node4"><a xlink:href="abi-default_2barrier_8h.html" target="_top" xlink:title="ODP barrier. ">
<polygon fill="#ffffff" stroke="#000000" points="77,-280.5 77,-299.5 134,-299.5 134,-280.5 77,-280.5"/>
<text text-anchor="middle" x="105.5" y="-287.5" font-family="Helvetica,sans-Serif" font-size="10.00" fill="#000000">barrier.h</text>
</a>
</g>
</g>
<!-- Node8&#45;&gt;Node10 -->
<g id="edge3" class="edge">
<title>Node8&#45;&gt;Node10</title>
<path fill="none" stroke="#191970" d="M1290.7972,-345.565C1098.9329,-343.5674 370.7871,-333.8666 143.5,-300 140.5312,-299.5576 137.4603,-298.9719 134.4102,-298.3052"/>
<polygon fill="#191970" stroke="#191970" points="1290.8011,-349.0651 1300.8364,-345.6675 1290.8727,-342.0655 1290.8011,-349.0651"/>
</g>
<!-- Node11 -->
<g id="node5" class="node">
<title>Node11</title>
<g id="a_node5"><a xlink:href="abi-default_2byteorder_8h.html" target="_top" xlink:title="ODP byteorder. ">
<polygon fill="#ffffff" stroke="#000000" points="152.5,-280.5 152.5,-299.5 224.5,-299.5 224.5,-280.5 152.5,-280.5"/>
<text text-anchor="middle" x="188.5" y="-287.5" font-family="Helvetica,sans-Serif" font-size="10.00" fill="#000000">byteorder.h</text>
</a>
</g>
</g>
<!-- Node8&#45;&gt;Node11 -->
<g id="edge4" class="edge">
<title>Node8&#45;&gt;Node11</title>
<path fill="none" stroke="#191970" d="M1290.8117,-345.1565C1108.2965,-341.6882 442.8287,-327.4002 233.5,-300 230.6433,-299.6261 227.7001,-299.1595 224.7513,-298.6339"/>
<polygon fill="#191970" stroke="#191970" points="1290.824,-348.6572 1300.8881,-345.3462 1290.9559,-341.6585 1290.824,-348.6572"/>
</g>
<!-- Node12 -->
<g id="node6" class="node">
<title>Node12</title>
<g id="a_node6"><a xlink:href="abi-default_2cpumask_8h.html" target="_top" xlink:title="ODP CPU masks and enumeration. ">
<polygon fill="#ffffff" stroke="#000000" points="242.5,-280.5 242.5,-299.5 312.5,-299.5 312.5,-280.5 242.5,-280.5"/>
<text text-anchor="middle" x="277.5" y="-287.5" font-family="Helvetica,sans-Serif" font-size="10.00" fill="#000000">cpumask.h</text>
</a>
</g>
</g>
<!-- Node8&#45;&gt;Node12 -->
<g id="edge5" class="edge">
<title>Node8&#45;&gt;Node12</title>
<path fill="none" stroke="#191970" d="M1290.8745,-344.9934C1117.8471,-341.0859 512.6949,-325.8448 321.5,-300 318.7053,-299.6222 315.8265,-299.1529 312.9425,-298.6254"/>
<polygon fill="#191970" stroke="#191970" points="1290.8544,-348.4937 1300.9304,-345.2186 1291.0113,-341.4955 1290.8544,-348.4937"/>
</g>
<!-- Node13 -->
<g id="node7" class="node">
<title>Node13</title>
<g id="a_node7"><a xlink:href="abi-default_2init_8h.html" target="_top" xlink:title="ODP initialization. ">
<polygon fill="#ffffff" stroke="#000000" points="331,-280.5 331,-299.5 372,-299.5 372,-280.5 331,-280.5"/>
<text text-anchor="middle" x="351.5" y="-287.5" font-family="Helvetica,sans-Serif" font-size="10.00" fill="#000000">init.h</text>
</a>
</g>
</g>
<!-- Node8&#45;&gt;Node13 -->
<g id="edge6" class="edge">
<title>Node8&#45;&gt;Node13</title>
<path fill="none" stroke="#191970" d="M1290.5084,-345.5027C1123.3229,-343.4594 557.9153,-334.1287 380.5,-300 377.7805,-299.4769 374.9693,-298.7537 372.2158,-297.9332"/>
<polygon fill="#191970" stroke="#191970" points="1290.8954,-349.0075 1300.9364,-345.627 1290.9788,-342.008 1290.8954,-349.0075"/>
</g>
<!-- Node14 -->
<g id="node8" class="node">
<title>Node14</title>
<g id="a_node8"><a xlink:href="abi-default_2ipsec_8h.html" target="_top" xlink:title="ODP IPSEC API &#45; platform specific types. ">
<polygon fill="#ffffff" stroke="#000000" points="390,-280.5 390,-299.5 441,-299.5 441,-280.5 390,-280.5"/>
<text text-anchor="middle" x="415.5" y="-287.5" font-family="Helvetica,sans-Serif" font-size="10.00" fill="#000000">ipsec.h</text>
</a>
</g>
</g>
<!-- Node8&#45;&gt;Node14 -->
<g id="edge7" class="edge">
<title>Node8&#45;&gt;Node14</title>
<path fill="none" stroke="#191970" d="M1290.2737,-345.0122C1130.8649,-341.4497 613.5063,-327.9677 449.5,-300 446.8313,-299.5449 444.0756,-298.9508 441.3416,-298.279"/>
<polygon fill="#191970" stroke="#191970" points="1290.6115,-348.5204 1300.6864,-345.2421 1290.7661,-341.5221 1290.6115,-348.5204"/>
</g>
<!-- Node15 -->
<g id="node9" class="node">
<title>Node15</title>
<g id="a_node9"><a xlink:href="abi-default_2packet__io_8h.html" target="_top" xlink:title="ODP Packet IO. ">
<polygon fill="#ffffff" stroke="#000000" points="459,-280.5 459,-299.5 532,-299.5 532,-280.5 459,-280.5"/>
<text text-anchor="middle" x="495.5" y="-287.5" font-family="Helvetica,sans-Serif" font-size="10.00" fill="#000000">packet_io.h</text>
</a>
</g>
</g>
<!-- Node8&#45;&gt;Node15 -->
<g id="edge8" class="edge">
<title>Node8&#45;&gt;Node15</title>
<path fill="none" stroke="#191970" d="M1290.8227,-344.2632C1143.2363,-338.6202 687.8233,-320.0076 541.5,-300 538.423,-299.5793 535.246,-299.0631 532.0664,-298.4891"/>
<polygon fill="#191970" stroke="#191970" points="1290.7825,-347.7641 1300.9084,-344.6469 1291.0487,-340.7691 1290.7825,-347.7641"/>
</g>
<!-- Node16 -->
<g id="node10" class="node">
<title>Node16</title>
<g id="a_node10"><a xlink:href="abi-default_2rwlock__recursive_8h.html" target="_top" xlink:title="ODP recursive read/write lock. ">
<polygon fill="#ffffff" stroke="#000000" points="550.5,-280.5 550.5,-299.5 658.5,-299.5 658.5,-280.5 550.5,-280.5"/>
<text text-anchor="middle" x="604.5" y="-287.5" font-family="Helvetica,sans-Serif" font-size="10.00" fill="#000000">rwlock_recursive.h</text>
</a>
</g>
</g>
<!-- Node8&#45;&gt;Node16 -->
<g id="edge9" class="edge">
<title>Node8&#45;&gt;Node16</title>
<path fill="none" stroke="#191970" d="M1290.677,-344.2185C1181.3104,-339.7447 900.657,-326.4554 667.5,-300 664.639,-299.6754 661.7093,-299.3135 658.7544,-298.9254"/>
<polygon fill="#191970" stroke="#191970" points="1290.5857,-347.7175 1300.7188,-344.624 1290.8682,-340.7233 1290.5857,-347.7175"/>
</g>
<!-- Node17 -->
<g id="node11" class="node">
<title>Node17</title>
<g id="a_node11"><a xlink:href="abi-default_2schedule_8h.html" target="_top" xlink:title="ODP schedule. ">
<polygon fill="#ffffff" stroke="#000000" points="677,-280.5 677,-299.5 746,-299.5 746,-280.5 677,-280.5"/>
<text text-anchor="middle" x="711.5" y="-287.5" font-family="Helvetica,sans-Serif" font-size="10.00" fill="#000000">schedule.h</text>
</a>
</g>
</g>
<!-- Node8&#45;&gt;Node17 -->
<g id="edge10" class="edge">
<title>Node8&#45;&gt;Node17</title>
<path fill="none" stroke="#191970" d="M1290.5682,-344.5916C1191.3025,-341.1087 952.965,-330.0813 755.5,-300 752.5571,-299.5517 749.5185,-299.0161 746.4773,-298.4291"/>
<polygon fill="#191970" stroke="#191970" points="1290.7429,-348.0995 1300.8565,-344.9428 1290.9818,-341.1036 1290.7429,-348.0995"/>
</g>
<!-- Node18 -->
<g id="node12" class="node">
<title>Node18</title>
<g id="a_node12"><a xlink:href="abi-default_2spinlock__recursive_8h.html" target="_top" xlink:title="ODP recursive spinlock. ">
<polygon fill="#ffffff" stroke="#000000" points="764.5,-280.5 764.5,-299.5 880.5,-299.5 880.5,-280.5 764.5,-280.5"/>
<text text-anchor="middle" x="822.5" y="-287.5" font-family="Helvetica,sans-Serif" font-size="10.00" fill="#000000">spinlock_recursive.h</text>
</a>
</g>
</g>
<!-- Node8&#45;&gt;Node18 -->
<g id="edge11" class="edge">
<title>Node8&#45;&gt;Node18</title>
<path fill="none" stroke="#191970" d="M1290.4081,-341.8805C1208.6911,-334.5722 1035.3837,-318.3666 889.5,-300 886.5828,-299.6327 883.5965,-299.2418 880.5822,-298.8354"/>
<polygon fill="#191970" stroke="#191970" points="1290.5791,-345.4095 1300.8502,-342.8105 1291.2001,-338.4371 1290.5791,-345.4095"/>
</g>
<!-- Node19 -->
<g id="node13" class="node">
<title>Node19</title>
<g id="a_node13"><a xlink:href="abi-default_2traffic__mngr_8h.html" target="_top" xlink:title="ODP traffic mngr. ">
<polygon fill="#ffffff" stroke="#000000" points="898.5,-280.5 898.5,-299.5 982.5,-299.5 982.5,-280.5 898.5,-280.5"/>
<text text-anchor="middle" x="940.5" y="-287.5" font-family="Helvetica,sans-Serif" font-size="10.00" fill="#000000">traffic_mngr.h</text>
</a>
</g>
</g>
<!-- Node8&#45;&gt;Node19 -->
<g id="edge12" class="edge">
<title>Node8&#45;&gt;Node19</title>
<path fill="none" stroke="#191970" d="M1290.5967,-340.6912C1223.9415,-332.9364 1098.0655,-317.5144 991.5,-300 988.6509,-299.5317 985.7173,-299.0243 982.7647,-298.4948"/>
<polygon fill="#191970" stroke="#191970" points="1290.4378,-344.1961 1300.774,-341.8692 1291.2427,-337.2426 1290.4378,-344.1961"/>
</g>
<!-- Node20 -->
<g id="node14" class="node">
<title>Node20</title>
<g id="a_node14"><a xlink:href="barrier_8h.html" target="_top" xlink:title="ODP execution barriers. ">
<polygon fill="#ffffff" stroke="#000000" points="1001,-280.5 1001,-299.5 1058,-299.5 1058,-280.5 1001,-280.5"/>
<text text-anchor="middle" x="1029.5" y="-287.5" font-family="Helvetica,sans-Serif" font-size="10.00" fill="#000000">barrier.h</text>
</a>
</g>
</g>
<!-- Node8&#45;&gt;Node20 -->
<g id="edge13" class="edge">
<title>Node8&#45;&gt;Node20</title>
<path fill="none" stroke="#191970" d="M1290.9099,-339.4795C1236.7092,-331.5736 1144.665,-317.1554 1066.5,-300 1063.7703,-299.4009 1060.9403,-298.7292 1058.1165,-298.0249"/>
<polygon fill="#191970" stroke="#191970" points="1290.5058,-342.9574 1300.904,-340.9259 1291.5085,-336.0296 1290.5058,-342.9574"/>
</g>
<!-- Node21 -->
<g id="node15" class="node">
<title>Node21</title>
<g id="a_node15"><a xlink:href="buffer_8h.html" target="_top" xlink:title="ODP buffer descriptor. ">
<polygon fill="#ffffff" stroke="#000000" points="1076,-280.5 1076,-299.5 1129,-299.5 1129,-280.5 1076,-280.5"/>
<text text-anchor="middle" x="1102.5" y="-287.5" font-family="Helvetica,sans-Serif" font-size="10.00" fill="#000000">buffer.h</text>
</a>
</g>
</g>
<!-- Node8&#45;&gt;Node21 -->
<g id="edge14" class="edge">
<title>Node8&#45;&gt;Node21</title>
<path fill="none" stroke="#191970" d="M1290.8229,-335.0209C1251.5142,-325.7536 1193.8096,-312.0997 1143.5,-300 1138.9409,-298.9035 1134.0989,-297.7303 1129.4003,-296.5872"/>
<polygon fill="#191970" stroke="#191970" points="1290.1168,-338.4503 1300.653,-337.3373 1291.7224,-331.6369 1290.1168,-338.4503"/>
</g>
<!-- Node22 -->
<g id="node16" class="node">
<title>Node22</title>
<g id="a_node16"><a xlink:href="classification_8h.html" target="_top" xlink:title="ODP classification descriptor. ">
<polygon fill="#ffffff" stroke="#000000" points="1108,-56.5 1108,-75.5 1197,-75.5 1197,-56.5 1108,-56.5"/>
<text text-anchor="middle" x="1152.5" y="-63.5" font-family="Helvetica,sans-Serif" font-size="10.00" fill="#000000">classification.h</text>
</a>
</g>
</g>
<!-- Node8&#45;&gt;Node22 -->
<g id="edge15" class="edge">
<title>Node8&#45;&gt;Node22</title>
<path fill="none" stroke="#191970" d="M1320.5487,-329.3746C1304.5009,-314.4857 1279.1129,-293.0458 1253.5,-280 1201.2223,-253.3727 1161.8785,-290.801 1126.5,-244 1086.7625,-191.4327 1130.1925,-104.5974 1146.6888,-75.6936"/>
<polygon fill="#191970" stroke="#191970" points="1318.3778,-332.1396 1328.0409,-336.4841 1323.1962,-327.0619 1318.3778,-332.1396"/>
</g>
<!-- Node25 -->
<g id="node18" class="node">
<title>Node25</title>
<g id="a_node18"><a xlink:href="crypto_8h.html" target="_top" xlink:title="ODP crypto. ">
<polygon fill="#ffffff" stroke="#000000" points="952.5,-168.5 952.5,-187.5 1008.5,-187.5 1008.5,-168.5 952.5,-168.5"/>
<text text-anchor="middle" x="980.5" y="-175.5" font-family="Helvetica,sans-Serif" font-size="10.00" fill="#000000">crypto.h</text>
</a>
</g>
</g>
<!-- Node8&#45;&gt;Node25 -->
<g id="edge17" class="edge">
<title>Node8&#45;&gt;Node25</title>
<path fill="none" stroke="#191970" d="M1290.9792,-335.2762C1258.3882,-327.1459 1214.1128,-314.8521 1176.5,-300 1158.3817,-292.8456 1156.0854,-285.8345 1137.5,-280 1080.5885,-262.1338 910.7487,-288.9184 871.5,-244 844.8623,-213.5144 912.0074,-192.8876 952.4671,-183.6027"/>
<polygon fill="#191970" stroke="#191970" points="1290.1519,-338.677 1300.6982,-337.664 1291.822,-331.8791 1290.1519,-338.677"/>
</g>
<!-- Node26 -->
<g id="node19" class="node">
<title>Node26</title>
<g id="a_node19"><a xlink:href="packet_8h.html" target="_top" xlink:title="ODP packet descriptor. ">
<polygon fill="#ffffff" stroke="#000000" points="1186,-280.5 1186,-299.5 1245,-299.5 1245,-280.5 1186,-280.5"/>
<text text-anchor="middle" x="1215.5" y="-287.5" font-family="Helvetica,sans-Serif" font-size="10.00" fill="#000000">packet.h</text>
</a>
</g>
</g>
<!-- Node8&#45;&gt;Node26 -->
<g id="edge19" class="edge">
<title>Node8&#45;&gt;Node26</title>
<path fill="none" stroke="#191970" d="M1307.2416,-332.1109C1285.1181,-321.9559 1255.6906,-308.4482 1236.1989,-299.5011"/>
<polygon fill="#191970" stroke="#191970" points="1305.979,-335.3824 1316.5275,-336.3733 1308.8993,-329.0206 1305.979,-335.3824"/>
</g>
<!-- Node43 -->
<g id="node23" class="node">
<title>Node43</title>
<g id="a_node23"><a xlink:href="spec_2packet__flags_8h.html" target="_top" xlink:title="ODP packet flags. ">
<polygon fill="#ffffff" stroke="#000000" points="1136,-224.5 1136,-243.5 1223,-243.5 1223,-224.5 1136,-224.5"/>
<text text-anchor="middle" x="1179.5" y="-231.5" font-family="Helvetica,sans-Serif" font-size="10.00" fill="#000000">packet_flags.h</text>
</a>
</g>
</g>
<!-- Node8&#45;&gt;Node43 -->
<g id="edge49" class="edge">
<title>Node8&#45;&gt;Node43</title>
<path fill="none" stroke="#191970" d="M1327.2057,-327.5576C1318.2989,-313.0085 1304.2349,-293.0568 1287.5,-280 1265.6476,-262.9505 1236.5329,-251.0336 1214.0394,-243.6078"/>
<polygon fill="#191970" stroke="#191970" points="1324.2068,-329.3627 1332.2903,-336.2116 1330.2422,-325.8166 1324.2068,-329.3627"/>
</g>
<!-- Node35 -->
<g id="node26" class="node">
<title>Node35</title>
<g id="a_node26"><a xlink:href="packet__io_8h.html" target="_top" xlink:title="ODP Packet IO. ">
<polygon fill="#ffffff" stroke="#000000" points="1241,-168.5 1241,-187.5 1314,-187.5 1314,-168.5 1241,-168.5"/>
<text text-anchor="middle" x="1277.5" y="-175.5" font-family="Helvetica,sans-Serif" font-size="10.00" fill="#000000">packet_io.h</text>
</a>
</g>
</g>
<!-- Node8&#45;&gt;Node35 -->
<g id="edge32" class="edge">
<title>Node8&#45;&gt;Node35</title>
<path fill="none" stroke="#191970" d="M1384.2095,-339.3496C1466.8571,-325.7256 1625.0611,-290.2043 1568.5,-224 1552.1372,-204.8475 1388.6339,-187.9317 1314.1382,-181.1519"/>
<polygon fill="#191970" stroke="#191970" points="1383.6034,-335.902 1374.2834,-340.9407 1384.7113,-342.8138 1383.6034,-335.902"/>
</g>
<!-- Node37 -->
<g id="node28" class="node">
<title>Node37</title>
<g id="a_node28"><a xlink:href="spec_2traffic__mngr_8h.html" target="_top" xlink:title="Copyright (c) 2015&#45;2018, Linaro Limited All rights reserved. ">
<polygon fill="#ffffff" stroke="#ff0000" points="1442.5,-112.5 1442.5,-131.5 1526.5,-131.5 1526.5,-112.5 1442.5,-112.5"/>
<text text-anchor="middle" x="1484.5" y="-119.5" font-family="Helvetica,sans-Serif" font-size="10.00" fill="#000000">traffic_mngr.h</text>
</a>
</g>
</g>
<!-- Node8&#45;&gt;Node37 -->
<g id="edge56" class="edge">
<title>Node8&#45;&gt;Node37</title>
<path fill="none" stroke="#191970" d="M1384.2644,-341.5258C1442.1415,-335.1461 1536.3884,-321.739 1563.5,-300 1591.2416,-277.7559 1602.2669,-256.7852 1588.5,-224 1570.5817,-181.3285 1525.1368,-147.5418 1500.676,-131.7425"/>
<polygon fill="#191970" stroke="#191970" points="1383.8248,-338.0528 1374.2551,-342.5992 1384.5713,-345.0129 1383.8248,-338.0528"/>
</g>
<!-- Node33 -->
<g id="node29" class="node">
<title>Node33</title>
<g id="a_node29"><a xlink:href="queue_8h.html" target="_top" xlink:title="ODP queue. ">
<polygon fill="#ffffff" stroke="#000000" points="1405.5,-280.5 1405.5,-299.5 1461.5,-299.5 1461.5,-280.5 1405.5,-280.5"/>
<text text-anchor="middle" x="1433.5" y="-287.5" font-family="Helvetica,sans-Serif" font-size="10.00" fill="#000000">queue.h</text>
</a>
</g>
</g>
<!-- Node8&#45;&gt;Node33 -->
<g id="edge33" class="edge">
<title>Node8&#45;&gt;Node33</title>
<path fill="none" stroke="#191970" d="M1363.1346,-331.0465C1380.2159,-321.0824 1402.164,-308.2794 1416.9697,-299.6427"/>
<polygon fill="#191970" stroke="#191970" points="1361.0962,-328.1836 1354.2219,-336.2455 1364.6233,-334.23 1361.0962,-328.1836"/>
</g>
<!-- Node41 -->
<g id="node31" class="node">
<title>Node41</title>
<g id="a_node31"><a xlink:href="spec_2schedule_8h.html" target="_top" xlink:title="ODP schedule. ">
<polygon fill="#ffffff" stroke="#ff0000" points="1491,-224.5 1491,-243.5 1560,-243.5 1560,-224.5 1491,-224.5"/>
<text text-anchor="middle" x="1525.5" y="-231.5" font-family="Helvetica,sans-Serif" font-size="10.00" fill="#000000">schedule.h</text>
</a>
</g>
</g>
<!-- Node8&#45;&gt;Node41 -->
<g id="edge52" class="edge">
<title>Node8&#45;&gt;Node41</title>
<path fill="none" stroke="#191970" d="M1384.0635,-336.4986C1410.9899,-329.4573 1444.5645,-317.9161 1470.5,-300 1492.5896,-284.7406 1510.8069,-258.3103 1519.6765,-243.9622"/>
<polygon fill="#191970" stroke="#191970" points="1382.9563,-333.1673 1374.0989,-338.9808 1384.6484,-339.9597 1382.9563,-333.1673"/>
</g>
<!-- Node45 -->
<g id="node32" class="node">
<title>Node45</title>
<g id="a_node32"><a xlink:href="spec_2chksum_8h.html" target="_top" xlink:title="ODP checksum functions. ">
<polygon fill="#ffffff" stroke="#000000" points="1654.5,-280.5 1654.5,-299.5 1718.5,-299.5 1718.5,-280.5 1654.5,-280.5"/>
<text text-anchor="middle" x="1686.5" y="-287.5" font-family="Helvetica,sans-Serif" font-size="10.00" fill="#000000">chksum.h</text>
</a>
</g>
</g>
<!-- Node8&#45;&gt;Node45 -->
<g id="edge38" class="edge">
<title>Node8&#45;&gt;Node45</title>
<path fill="none" stroke="#191970" d="M1384.2305,-339.8423C1443.8781,-331.7679 1550.1695,-316.658 1640.5,-300 1645.0008,-299.17 1649.7337,-298.2246 1654.3817,-297.254"/>
<polygon fill="#191970" stroke="#191970" points="1383.448,-336.416 1374.0046,-341.2195 1384.3823,-343.3534 1383.448,-336.416"/>
</g>
<!-- Node47 -->
<g id="node34" class="node">
<title>Node47</title>
<g id="a_node34"><a xlink:href="spec_2cpu_8h.html" target="_top" xlink:title="ODP CPU API. ">
<polygon fill="#ffffff" stroke="#000000" points="1737,-280.5 1737,-299.5 1780,-299.5 1780,-280.5 1737,-280.5"/>
<text text-anchor="middle" x="1758.5" y="-287.5" font-family="Helvetica,sans-Serif" font-size="10.00" fill="#000000">cpu.h</text>
</a>
</g>
</g>
<!-- Node8&#45;&gt;Node47 -->
<g id="edge40" class="edge">
<title>Node8&#45;&gt;Node47</title>
<path fill="none" stroke="#191970" d="M1384.5267,-343.4155C1458.3057,-338.6991 1605.4413,-326.6193 1727.5,-300 1730.5941,-299.3252 1733.8179,-298.4671 1736.9667,-297.5382"/>
<polygon fill="#191970" stroke="#191970" points="1383.9487,-339.9445 1374.1853,-344.0587 1384.3833,-346.931 1383.9487,-339.9445"/>
</g>
<!-- Node50 -->
<g id="node36" class="node">
<title>Node50</title>
<g id="a_node36"><a xlink:href="spec_2feature_8h.html" target="_top" xlink:title="ODP features. ">
<polygon fill="#ffffff" stroke="#000000" points="1798,-280.5 1798,-299.5 1859,-299.5 1859,-280.5 1798,-280.5"/>
<text text-anchor="middle" x="1828.5" y="-287.5" font-family="Helvetica,sans-Serif" font-size="10.00" fill="#000000">feature.h</text>
</a>
</g>
</g>
<!-- Node8&#45;&gt;Node50 -->
<g id="edge42" class="edge">
<title>Node8&#45;&gt;Node50</title>
<path fill="none" stroke="#191970" d="M1384.3144,-343.4426C1466.5778,-338.4562 1642.2242,-325.6082 1788.5,-300 1791.4614,-299.4816 1794.5277,-298.8641 1797.5849,-298.194"/>
<polygon fill="#191970" stroke="#191970" points="1384.0556,-339.9517 1374.2812,-344.0396 1384.4715,-346.9393 1384.0556,-339.9517"/>
</g>
<!-- Node52 -->
<g id="node38" class="node">
<title>Node52</title>
<g id="a_node38"><a xlink:href="spec_2init_8h.html" target="_top" xlink:title="init.h">
<polygon fill="#ffffff" stroke="#000000" points="1837,-168.5 1837,-187.5 1878,-187.5 1878,-168.5 1837,-168.5"/>
<text text-anchor="middle" x="1857.5" y="-175.5" font-family="Helvetica,sans-Serif" font-size="10.00" fill="#000000">init.h</text>
</a>
</g>
</g>
<!-- Node8&#45;&gt;Node52 -->
<g id="edge48" class="edge">
<title>Node8&#45;&gt;Node52</title>
<path fill="none" stroke="#191970" d="M1384.3907,-345.467C1507.9423,-343.5785 1835.1643,-335.2638 1867.5,-300 1896.5128,-268.36 1873.5136,-210.6923 1862.5199,-187.7715"/>
<polygon fill="#191970" stroke="#191970" points="1384.0672,-341.9712 1374.1191,-345.6162 1384.169,-348.9705 1384.0672,-341.9712"/>
</g>
<!-- Node57 -->
<g id="node40" class="node">
<title>Node57</title>
<g id="a_node40"><a xlink:href="spec_2hash_8h.html" target="_top" xlink:title="ODP Hash functions. ">
<polygon fill="#ffffff" stroke="#000000" points="1916,-280.5 1916,-299.5 1965,-299.5 1965,-280.5 1916,-280.5"/>
<text text-anchor="middle" x="1940.5" y="-287.5" font-family="Helvetica,sans-Serif" font-size="10.00" fill="#000000">hash.h</text>
</a>
</g>
</g>
<!-- Node8&#45;&gt;Node57 -->
<g id="edge46" class="edge">
<title>Node8&#45;&gt;Node57</title>
<path fill="none" stroke="#191970" d="M1384.1137,-344.8688C1481.067,-341.9311 1711.2641,-331.9099 1901.5,-300 1906.1876,-299.2137 1911.1367,-298.1396 1915.8775,-296.986"/>
<polygon fill="#191970" stroke="#191970" points="1383.9483,-341.3721 1374.0547,-345.1624 1384.1526,-348.3691 1383.9483,-341.3721"/>
</g>
<!-- Node59 -->
<g id="node42" class="node">
<title>Node59</title>
<g id="a_node42"><a xlink:href="spec_2pool_8h.html" target="_top" xlink:title="ODP pool. ">
<polygon fill="#ffffff" stroke="#000000" points="2332,-280.5 2332,-299.5 2379,-299.5 2379,-280.5 2332,-280.5"/>
<text text-anchor="middle" x="2355.5" y="-287.5" font-family="Helvetica,sans-Serif" font-size="10.00" fill="#000000">pool.h</text>
</a>
</g>
</g>
<!-- Node8&#45;&gt;Node59 -->
<g id="edge50" class="edge">
<title>Node8&#45;&gt;Node59</title>
<path fill="none" stroke="#191970" d="M1384.1578,-345.3503C1553.9624,-342.7477 2138.6566,-331.6433 2322.5,-300 2325.5678,-299.472 2328.7509,-298.7458 2331.8759,-297.9239"/>
<polygon fill="#191970" stroke="#191970" points="1383.9913,-341.8523 1374.0452,-345.5027 1384.0968,-348.8515 1383.9913,-341.8523"/>
</g>
<!-- Node62 -->
<g id="node44" class="node">
<title>Node62</title>
<g id="a_node44"><a xlink:href="spec_2stash_8h.html" target="_top" xlink:title="ODP stash. ">
<polygon fill="#ffffff" stroke="#ff0000" points="1983.5,-280.5 1983.5,-299.5 2035.5,-299.5 2035.5,-280.5 1983.5,-280.5"/>
<text text-anchor="middle" x="2009.5" y="-287.5" font-family="Helvetica,sans-Serif" font-size="10.00" fill="#000000">stash.h</text>
</a>
</g>
</g>
<!-- Node8&#45;&gt;Node62 -->
<g id="edge53" class="edge">
<title>Node8&#45;&gt;Node62</title>
<path fill="none" stroke="#191970" d="M1384.4836,-343.8665C1511.7182,-337.8881 1861.0035,-320.0899 1974.5,-300 1977.3625,-299.4933 1980.3263,-298.8458 1983.2627,-298.1245"/>
<polygon fill="#191970" stroke="#191970" points="1384.1155,-340.3798 1374.2896,-344.3425 1384.442,-347.3722 1384.1155,-340.3798"/>
</g>
<!-- Node64 -->
<g id="node45" class="node">
<title>Node64</title>
<g id="a_node45"><a xlink:href="spec_2threshold_8h.html" target="_top" xlink:title="ODP threshold descriptor. ">
<polygon fill="#ffffff" stroke="#ff0000" points="2054,-280.5 2054,-299.5 2125,-299.5 2125,-280.5 2054,-280.5"/>
<text text-anchor="middle" x="2089.5" y="-287.5" font-family="Helvetica,sans-Serif" font-size="10.00" fill="#000000">threshold.h</text>
</a>
</g>
</g>
<!-- Node8&#45;&gt;Node64 -->
<g id="edge54" class="edge">
<title>Node8&#45;&gt;Node64</title>
<path fill="none" stroke="#191970" d="M1384.22,-345.4373C1497.8375,-343.5315 1797.4148,-335.2786 2044.5,-300 2047.5106,-299.5701 2050.619,-299.0476 2053.7298,-298.4693"/>
<polygon fill="#191970" stroke="#191970" points="1384.073,-341.9391 1374.13,-345.5978 1384.1845,-348.9382 1384.073,-341.9391"/>
</g>
<!-- Node66 -->
<g id="node46" class="node">
<title>Node66</title>
<g id="a_node46"><a xlink:href="spec_2thrmask_8h.html" target="_top" xlink:title="ODP thread masks. ">
<polygon fill="#ffffff" stroke="#ff0000" points="2143.5,-280.5 2143.5,-299.5 2209.5,-299.5 2209.5,-280.5 2143.5,-280.5"/>
<text text-anchor="middle" x="2176.5" y="-287.5" font-family="Helvetica,sans-Serif" font-size="10.00" fill="#000000">thrmask.h</text>
</a>
</g>
</g>
<!-- Node8&#45;&gt;Node66 -->
<g id="edge55" class="edge">
<title>Node8&#45;&gt;Node66</title>
<path fill="none" stroke="#191970" d="M1384.253,-344.3846C1532.0757,-339.1065 1988.1969,-321.4682 2134.5,-300 2137.3181,-299.5865 2140.225,-299.0754 2143.1322,-298.5048"/>
<polygon fill="#191970" stroke="#191970" points="1384.0205,-340.8906 1374.151,-344.7432 1384.2689,-347.8862 1384.0205,-340.8906"/>
</g>
<!-- Node68 -->
<g id="node47" class="node">
<title>Node68</title>
<g id="a_node47"><a xlink:href="system__info_8h.html" target="_top" xlink:title="ODP system information. ">
<polygon fill="#ffffff" stroke="#000000" points="2227.5,-280.5 2227.5,-299.5 2313.5,-299.5 2313.5,-280.5 2227.5,-280.5"/>
<text text-anchor="middle" x="2270.5" y="-287.5" font-family="Helvetica,sans-Serif" font-size="10.00" fill="#000000">system_info.h</text>
</a>
</g>
</g>
<!-- Node8&#45;&gt;Node68 -->
<g id="edge57" class="edge">
<title>Node8&#45;&gt;Node68</title>
<path fill="none" stroke="#191970" d="M1384.8066,-344.3919C1543.3064,-338.8687 2054.8283,-319.9143 2218.5,-300 2221.4203,-299.6447 2224.423,-299.2219 2227.4419,-298.7542"/>
<polygon fill="#191970" stroke="#191970" points="1384.3213,-340.9065 1374.4487,-344.7512 1384.5641,-347.9023 1384.3213,-340.9065"/>
</g>
<!-- Node69 -->
<g id="node48" class="node">
<title>Node69</title>
<g id="a_node48"><a xlink:href="time_8h.html" target="_top" xlink:title="ODP time. ">
<polygon fill="#ffffff" stroke="#ff0000" points="1339.5,-280.5 1339.5,-299.5 1387.5,-299.5 1387.5,-280.5 1339.5,-280.5"/>
<text text-anchor="middle" x="1363.5" y="-287.5" font-family="Helvetica,sans-Serif" font-size="10.00" fill="#000000">time.h</text>
</a>
</g>
</g>
<!-- Node8&#45;&gt;Node69 -->
<g id="edge58" class="edge">
<title>Node8&#45;&gt;Node69</title>
<path fill="none" stroke="#191970" d="M1346.3011,-327.0437C1350.5775,-317.8331 1355.533,-307.1598 1359.023,-299.6427"/>
<polygon fill="#191970" stroke="#191970" points="1343.0655,-325.7015 1342.0289,-336.2455 1349.4146,-328.6494 1343.0655,-325.7015"/>
</g>
<!-- Node71 -->
<g id="node49" class="node">
<title>Node71</title>
<g id="a_node49"><a xlink:href="timer_8h.html" target="_top" xlink:title="ODP timer service. ">
<polygon fill="#ffffff" stroke="#000000" points="2397,-280.5 2397,-299.5 2448,-299.5 2448,-280.5 2397,-280.5"/>
<text text-anchor="middle" x="2422.5" y="-287.5" font-family="Helvetica,sans-Serif" font-size="10.00" fill="#000000">timer.h</text>
</a>
</g>
</g>
<!-- Node8&#45;&gt;Node71 -->
<g id="edge60" class="edge">
<title>Node8&#45;&gt;Node71</title>
<path fill="none" stroke="#191970" d="M1384.0302,-345.4604C1560.8459,-343.1777 2190.9902,-332.8669 2388.5,-300 2391.1705,-299.5556 2393.9274,-298.9686 2396.6622,-298.301"/>
<polygon fill="#191970" stroke="#191970" points="1383.9651,-341.9608 1374.0102,-345.5874 1384.0538,-348.9603 1383.9651,-341.9608"/>
</g>
<!-- Node72 -->
<g id="node50" class="node">
<title>Node72</title>
<g id="a_node50"><a xlink:href="strong__types_8h.html" target="_top" xlink:title="ODP Strong Types. ">
<polygon fill="#ffffff" stroke="#000000" points="2466,-280.5 2466,-299.5 2555,-299.5 2555,-280.5 2466,-280.5"/>
<text text-anchor="middle" x="2510.5" y="-287.5" font-family="Helvetica,sans-Serif" font-size="10.00" fill="#000000">strong_types.h</text>
</a>
</g>
</g>
<!-- Node8&#45;&gt;Node72 -->
<g id="edge61" class="edge">
<title>Node8&#45;&gt;Node72</title>
<path fill="none" stroke="#191970" d="M1384.2233,-344.9882C1568.4027,-340.8591 2244.4787,-324.34 2457.5,-300 2460.1979,-299.6917 2462.9647,-299.325 2465.7502,-298.9169"/>
<polygon fill="#191970" stroke="#191970" points="1383.9797,-341.4927 1374.0601,-345.2146 1384.1357,-348.4909 1383.9797,-341.4927"/>
</g>
<!-- Node23 -->
<g id="node17" class="node">
<title>Node23</title>
<g id="a_node17"><a xlink:href="spec_2ipsec_8h.html" target="_top" xlink:title="ODP IPSEC API. ">
<polygon fill="#ffffff" stroke="#ff0000" points="1127,-.5 1127,-19.5 1178,-19.5 1178,-.5 1127,-.5"/>
<text text-anchor="middle" x="1152.5" y="-7.5" font-family="Helvetica,sans-Serif" font-size="10.00" fill="#000000">ipsec.h</text>
</a>
</g>
</g>
<!-- Node22&#45;&gt;Node23 -->
<g id="edge16" class="edge">
<title>Node22&#45;&gt;Node23</title>
<path fill="none" stroke="#191970" d="M1152.5,-46.1575C1152.5,-37.155 1152.5,-26.9199 1152.5,-19.6427"/>
<polygon fill="#191970" stroke="#191970" points="1149.0001,-46.2455 1152.5,-56.2455 1156.0001,-46.2456 1149.0001,-46.2455"/>
</g>
<!-- Node25&#45;&gt;Node23 -->
<g id="edge18" class="edge">
<title>Node25&#45;&gt;Node23</title>
<path fill="none" stroke="#191970" d="M996.3682,-160.5626C1018.5662,-136.4122 1060.4485,-91.7208 1098.5,-56 1112.5071,-42.8508 1129.4953,-28.6457 1140.63,-19.5543"/>
<polygon fill="#191970" stroke="#191970" points="993.5472,-158.4607 989.376,-168.1999 998.7102,-163.1877 993.5472,-158.4607"/>
</g>
<!-- Node27 -->
<g id="node20" class="node">
<title>Node27</title>
<g id="a_node20"><a xlink:href="spec_2comp_8h.html" target="_top" xlink:title="ODP Compression. ">
<polygon fill="#ffffff" stroke="#ff0000" points="955,-224.5 955,-243.5 1008,-243.5 1008,-224.5 955,-224.5"/>
<text text-anchor="middle" x="981.5" y="-231.5" font-family="Helvetica,sans-Serif" font-size="10.00" fill="#000000">comp.h</text>
</a>
</g>
</g>
<!-- Node26&#45;&gt;Node27 -->
<g id="edge20" class="edge">
<title>Node26&#45;&gt;Node27</title>
<path fill="none" stroke="#191970" d="M1176.0376,-280.9922C1122.5222,-268.759 1031.8208,-247.9567 1016.5,-244 1013.8077,-243.3047 1011.007,-242.553 1008.2146,-241.7848"/>
<polygon fill="#191970" stroke="#191970" points="1175.3627,-284.4281 1185.8911,-283.2439 1176.9221,-277.604 1175.3627,-284.4281"/>
</g>
<!-- Node29 -->
<g id="node21" class="node">
<title>Node29</title>
<g id="a_node21"><a xlink:href="spec_2crypto_8h.html" target="_top" xlink:title="ODP crypto. ">
<polygon fill="#ffffff" stroke="#000000" points="880.5,-224.5 880.5,-243.5 936.5,-243.5 936.5,-224.5 880.5,-224.5"/>
<text text-anchor="middle" x="908.5" y="-231.5" font-family="Helvetica,sans-Serif" font-size="10.00" fill="#000000">crypto.h</text>
</a>
</g>
</g>
<!-- Node26&#45;&gt;Node29 -->
<g id="edge21" class="edge">
<title>Node26&#45;&gt;Node29</title>
<path fill="none" stroke="#191970" d="M1175.8895,-280.8705C1174.4091,-280.5697 1172.9422,-280.2784 1171.5,-280 1071.6334,-260.719 1044.9558,-265.2985 945.5,-244 942.6371,-243.3869 939.6653,-242.6892 936.7066,-241.954"/>
<polygon fill="#191970" stroke="#191970" points="1175.2252,-284.3074 1185.7337,-282.9573 1176.6769,-277.4596 1175.2252,-284.3074"/>
</g>
<!-- Node30 -->
<g id="node22" class="node">
<title>Node30</title>
<g id="a_node22"><a xlink:href="spec_2event_8h.html" target="_top" xlink:title="ODP event. ">
<polygon fill="#ffffff" stroke="#ff0000" points="1026,-224.5 1026,-243.5 1079,-243.5 1079,-224.5 1026,-224.5"/>
<text text-anchor="middle" x="1052.5" y="-231.5" font-family="Helvetica,sans-Serif" font-size="10.00" fill="#000000">event.h</text>
</a>
</g>
</g>
<!-- Node26&#45;&gt;Node30 -->
<g id="edge23" class="edge">
<title>Node26&#45;&gt;Node30</title>
<path fill="none" stroke="#191970" d="M1177.704,-277.0149C1147.4806,-266.6314 1105.8707,-252.336 1079.0757,-243.1303"/>
<polygon fill="#191970" stroke="#191970" points="1176.8846,-280.4341 1187.4793,-280.3733 1179.1591,-273.8139 1176.8846,-280.4341"/>
</g>
<!-- Node26&#45;&gt;Node43 -->
<g id="edge24" class="edge">
<title>Node26&#45;&gt;Node43</title>
<path fill="none" stroke="#191970" d="M1203.6904,-271.6296C1197.6856,-262.2887 1190.6341,-251.3197 1185.6989,-243.6427"/>
<polygon fill="#191970" stroke="#191970" points="1200.8775,-273.7264 1209.2293,-280.2455 1206.7658,-269.9411 1200.8775,-273.7264"/>
</g>
<!-- Node34 -->
<g id="node25" class="node">
<title>Node34</title>
<g id="a_node25"><a xlink:href="spec_2packet__io_8h.html" target="_top" xlink:title="ODP Packet IO. ">
<polygon fill="#ffffff" stroke="#000000" points="1241,-224.5 1241,-243.5 1314,-243.5 1314,-224.5 1241,-224.5"/>
<text text-anchor="middle" x="1277.5" y="-231.5" font-family="Helvetica,sans-Serif" font-size="10.00" fill="#000000">packet_io.h</text>
</a>
</g>
</g>
<!-- Node26&#45;&gt;Node34 -->
<g id="edge26" class="edge">
<title>Node26&#45;&gt;Node34</title>
<path fill="none" stroke="#191970" d="M1233.9221,-273.3607C1244.6481,-263.6727 1257.7934,-251.7995 1266.8242,-243.6427"/>
<polygon fill="#191970" stroke="#191970" points="1231.3746,-270.9453 1226.2996,-280.2455 1236.0666,-276.14 1231.3746,-270.9453"/>
</g>
<!-- Node29&#45;&gt;Node25 -->
<g id="edge22" class="edge">
<title>Node29&#45;&gt;Node25</title>
<path fill="none" stroke="#191970" d="M929.164,-217.928C941.7489,-208.1397 957.4092,-195.9595 968.1023,-187.6427"/>
<polygon fill="#191970" stroke="#191970" points="926.7862,-215.3434 921.0414,-224.2455 931.0838,-220.8688 926.7862,-215.3434"/>
</g>
<!-- Node44 -->
<g id="node24" class="node">
<title>Node44</title>
<g id="a_node24"><a xlink:href="packet__flags_8h.html" target="_top" xlink:title="ODP packet flags. ">
<polygon fill="#ffffff" stroke="#000000" points="1136,-168.5 1136,-187.5 1223,-187.5 1223,-168.5 1136,-168.5"/>
<text text-anchor="middle" x="1179.5" y="-175.5" font-family="Helvetica,sans-Serif" font-size="10.00" fill="#000000">packet_flags.h</text>
</a>
</g>
</g>
<!-- Node43&#45;&gt;Node44 -->
<g id="edge25" class="edge">
<title>Node43&#45;&gt;Node44</title>
<path fill="none" stroke="#191970" d="M1179.5,-214.1575C1179.5,-205.155 1179.5,-194.9199 1179.5,-187.6427"/>
<polygon fill="#191970" stroke="#191970" points="1176.0001,-214.2455 1179.5,-224.2455 1183.0001,-214.2456 1176.0001,-214.2455"/>
</g>
<!-- Node34&#45;&gt;Node35 -->
<g id="edge27" class="edge">
<title>Node34&#45;&gt;Node35</title>
<path fill="none" stroke="#191970" d="M1277.5,-214.1575C1277.5,-205.155 1277.5,-194.9199 1277.5,-187.6427"/>
<polygon fill="#191970" stroke="#191970" points="1274.0001,-214.2455 1277.5,-224.2455 1281.0001,-214.2456 1274.0001,-214.2455"/>
</g>
<!-- Node35&#45;&gt;Node23 -->
<g id="edge30" class="edge">
<title>Node35&#45;&gt;Node23</title>
<path fill="none" stroke="#191970" d="M1269.3825,-159.1411C1263.3505,-145.696 1254.6186,-127.3563 1245.5,-112 1229.8836,-85.7011 1226.0813,-78.6256 1205.5,-56 1193.0384,-42.3006 1176.6904,-28.6525 1165.4643,-19.8243"/>
<polygon fill="#191970" stroke="#191970" points="1266.1985,-160.5955 1273.4306,-168.3381 1272.6053,-157.7754 1266.1985,-160.5955"/>
</g>
<!-- Node36 -->
<g id="node27" class="node">
<title>Node36</title>
<g id="a_node27"><a xlink:href="spec_2classification_8h.html" target="_top" xlink:title="ODP classification descriptor. ">
<polygon fill="#ffffff" stroke="#000000" points="1148,-112.5 1148,-131.5 1237,-131.5 1237,-112.5 1148,-112.5"/>
<text text-anchor="middle" x="1192.5" y="-119.5" font-family="Helvetica,sans-Serif" font-size="10.00" fill="#000000">classification.h</text>
</a>
</g>
</g>
<!-- Node35&#45;&gt;Node36 -->
<g id="edge28" class="edge">
<title>Node35&#45;&gt;Node36</title>
<path fill="none" stroke="#191970" d="M1253.9581,-162.49C1238.961,-152.6096 1220.0027,-140.1194 1207.1362,-131.6427"/>
<polygon fill="#191970" stroke="#191970" points="1252.4179,-165.6666 1262.6941,-168.2455 1256.2691,-159.8212 1252.4179,-165.6666"/>
</g>
<!-- Node35&#45;&gt;Node37 -->
<g id="edge31" class="edge">
<title>Node35&#45;&gt;Node37</title>
<path fill="none" stroke="#191970" d="M1322.8925,-165.7199C1360.955,-155.4228 1414.528,-140.9296 1449.3798,-131.5011"/>
<polygon fill="#191970" stroke="#191970" points="1321.8235,-162.3832 1313.0846,-168.3733 1323.6516,-169.1403 1321.8235,-162.3832"/>
</g>
<!-- Node36&#45;&gt;Node22 -->
<g id="edge29" class="edge">
<title>Node36&#45;&gt;Node22</title>
<path fill="none" stroke="#191970" d="M1179.5864,-103.9209C1172.8697,-94.5176 1164.9283,-83.3997 1159.3876,-75.6427"/>
<polygon fill="#191970" stroke="#191970" points="1176.872,-106.1425 1185.5325,-112.2455 1182.5682,-102.0738 1176.872,-106.1425"/>
</g>
<!-- Node33&#45;&gt;Node25 -->
<g id="edge34" class="edge">
<title>Node33&#45;&gt;Node25</title>
<path fill="none" stroke="#191970" d="M1410.762,-274.9971C1383.897,-257.5391 1340.5717,-230.2925 1322.5,-224 1264.4369,-203.7826 1079.6359,-186.4146 1008.6471,-180.323"/>
<polygon fill="#191970" stroke="#191970" points="1408.8955,-277.9584 1419.1815,-280.498 1412.7243,-272.0983 1408.8955,-277.9584"/>
</g>
<!-- Node33&#45;&gt;Node34 -->
<g id="edge35" class="edge">
<title>Node33&#45;&gt;Node34</title>
<path fill="none" stroke="#191970" d="M1397.0716,-276.9231C1368.5539,-266.686 1329.5619,-252.6889 1303.9674,-243.5011"/>
<polygon fill="#191970" stroke="#191970" points="1396.0881,-280.2887 1406.6826,-280.3733 1398.4532,-273.7004 1396.0881,-280.2887"/>
</g>
<!-- Node39 -->
<g id="node30" class="node">
<title>Node39</title>
<g id="a_node30"><a xlink:href="spec_2packet__io__stats_8h.html" target="_top" xlink:title="ODP Packet IO statistics. ">
<polygon fill="#ffffff" stroke="#ff0000" points="1370.5,-224.5 1370.5,-243.5 1472.5,-243.5 1472.5,-224.5 1370.5,-224.5"/>
<text text-anchor="middle" x="1421.5" y="-231.5" font-family="Helvetica,sans-Serif" font-size="10.00" fill="#000000">packet_io_stats.h</text>
</a>
</g>
</g>
<!-- Node33&#45;&gt;Node39 -->
<g id="edge36" class="edge">
<title>Node33&#45;&gt;Node39</title>
<path fill="none" stroke="#191970" d="M1429.3115,-270.4538C1427.3672,-261.3803 1425.1428,-250.9998 1423.5663,-243.6427"/>
<polygon fill="#191970" stroke="#191970" points="1425.8921,-271.2009 1431.4098,-280.2455 1432.7367,-269.7341 1425.8921,-271.2009"/>
</g>
<!-- Node33&#45;&gt;Node41 -->
<g id="edge37" class="edge">
<title>Node33&#45;&gt;Node41</title>
<path fill="none" stroke="#191970" d="M1458.5224,-274.769C1474.825,-264.8456 1495.601,-252.1994 1509.6585,-243.6427"/>
<polygon fill="#191970" stroke="#191970" points="1456.2473,-272.0563 1449.5252,-280.2455 1459.887,-278.0357 1456.2473,-272.0563"/>
</g>
<!-- Node46 -->
<g id="node33" class="node">
<title>Node46</title>
<g id="a_node33"><a xlink:href="chksum_8h.html" target="_top" xlink:title="ODP checksum functions. ">
<polygon fill="#ffffff" stroke="#000000" points="1654.5,-224.5 1654.5,-243.5 1718.5,-243.5 1718.5,-224.5 1654.5,-224.5"/>
<text text-anchor="middle" x="1686.5" y="-231.5" font-family="Helvetica,sans-Serif" font-size="10.00" fill="#000000">chksum.h</text>
</a>
</g>
</g>
<!-- Node45&#45;&gt;Node46 -->
<g id="edge39" class="edge">
<title>Node45&#45;&gt;Node46</title>
<path fill="none" stroke="#191970" d="M1686.5,-270.1575C1686.5,-261.155 1686.5,-250.9199 1686.5,-243.6427"/>
<polygon fill="#191970" stroke="#191970" points="1683.0001,-270.2455 1686.5,-280.2455 1690.0001,-270.2456 1683.0001,-270.2455"/>
</g>
<!-- Node48 -->
<g id="node35" class="node">
<title>Node48</title>
<g id="a_node35"><a xlink:href="cpu_8h.html" target="_top" xlink:title="ODP CPU. ">
<polygon fill="#ffffff" stroke="#ff0000" points="1737,-224.5 1737,-243.5 1780,-243.5 1780,-224.5 1737,-224.5"/>
<text text-anchor="middle" x="1758.5" y="-231.5" font-family="Helvetica,sans-Serif" font-size="10.00" fill="#000000">cpu.h</text>
</a>
</g>
</g>
<!-- Node47&#45;&gt;Node48 -->
<g id="edge41" class="edge">
<title>Node47&#45;&gt;Node48</title>
<path fill="none" stroke="#191970" d="M1758.5,-270.1575C1758.5,-261.155 1758.5,-250.9199 1758.5,-243.6427"/>
<polygon fill="#191970" stroke="#191970" points="1755.0001,-270.2455 1758.5,-280.2455 1762.0001,-270.2456 1755.0001,-270.2455"/>
</g>
<!-- Node51 -->
<g id="node37" class="node">
<title>Node51</title>
<g id="a_node37"><a xlink:href="feature_8h.html" target="_top" xlink:title="ODP features. ">
<polygon fill="#ffffff" stroke="#000000" points="1798,-224.5 1798,-243.5 1859,-243.5 1859,-224.5 1798,-224.5"/>
<text text-anchor="middle" x="1828.5" y="-231.5" font-family="Helvetica,sans-Serif" font-size="10.00" fill="#000000">feature.h</text>
</a>
</g>
</g>
<!-- Node50&#45;&gt;Node51 -->
<g id="edge43" class="edge">
<title>Node50&#45;&gt;Node51</title>
<path fill="none" stroke="#191970" d="M1828.5,-270.1575C1828.5,-261.155 1828.5,-250.9199 1828.5,-243.6427"/>
<polygon fill="#191970" stroke="#191970" points="1825.0001,-270.2455 1828.5,-280.2455 1832.0001,-270.2456 1825.0001,-270.2455"/>
</g>
<!-- Node51&#45;&gt;Node52 -->
<g id="edge44" class="edge">
<title>Node51&#45;&gt;Node52</title>
<path fill="none" stroke="#191970" d="M1838.1647,-215.3372C1842.9687,-206.0605 1848.5723,-195.2398 1852.5065,-187.6427"/>
<polygon fill="#191970" stroke="#191970" points="1835.042,-213.7561 1833.5514,-224.2455 1841.258,-216.9751 1835.042,-213.7561"/>
</g>
<!-- Node53 -->
<g id="node39" class="node">
<title>Node53</title>
<g id="a_node39"><a xlink:href="init_8h.html" target="_top" xlink:title="ODP initialization. ">
<polygon fill="#ffffff" stroke="#ff0000" points="1837,-112.5 1837,-131.5 1878,-131.5 1878,-112.5 1837,-112.5"/>
<text text-anchor="middle" x="1857.5" y="-119.5" font-family="Helvetica,sans-Serif" font-size="10.00" fill="#000000">init.h</text>
</a>
</g>
</g>
<!-- Node52&#45;&gt;Node53 -->
<g id="edge45" class="edge">
<title>Node52&#45;&gt;Node53</title>
<path fill="none" stroke="#191970" d="M1857.5,-158.1575C1857.5,-149.155 1857.5,-138.9199 1857.5,-131.6427"/>
<polygon fill="#191970" stroke="#191970" points="1854.0001,-158.2455 1857.5,-168.2455 1861.0001,-158.2456 1854.0001,-158.2455"/>
</g>
<!-- Node58 -->
<g id="node41" class="node">
<title>Node58</title>
<g id="a_node41"><a xlink:href="hash_8h.html" target="_top" xlink:title="ODP Hash function. ">
<polygon fill="#ffffff" stroke="#000000" points="1916,-224.5 1916,-243.5 1965,-243.5 1965,-224.5 1916,-224.5"/>
<text text-anchor="middle" x="1940.5" y="-231.5" font-family="Helvetica,sans-Serif" font-size="10.00" fill="#000000">hash.h</text>
</a>
</g>
</g>
<!-- Node57&#45;&gt;Node58 -->
<g id="edge47" class="edge">
<title>Node57&#45;&gt;Node58</title>
<path fill="none" stroke="#191970" d="M1940.5,-270.1575C1940.5,-261.155 1940.5,-250.9199 1940.5,-243.6427"/>
<polygon fill="#191970" stroke="#191970" points="1937.0001,-270.2455 1940.5,-280.2455 1944.0001,-270.2456 1937.0001,-270.2455"/>
</g>
<!-- Node60 -->
<g id="node43" class="node">
<title>Node60</title>
<g id="a_node43"><a xlink:href="pool_8h.html" target="_top" xlink:title="ODP pool. ">
<polygon fill="#ffffff" stroke="#ff0000" points="2332,-224.5 2332,-243.5 2379,-243.5 2379,-224.5 2332,-224.5"/>
<text text-anchor="middle" x="2355.5" y="-231.5" font-family="Helvetica,sans-Serif" font-size="10.00" fill="#000000">pool.h</text>
</a>
</g>
</g>
<!-- Node59&#45;&gt;Node60 -->
<g id="edge51" class="edge">
<title>Node59&#45;&gt;Node60</title>
<path fill="none" stroke="#191970" d="M2355.5,-270.1575C2355.5,-261.155 2355.5,-250.9199 2355.5,-243.6427"/>
<polygon fill="#191970" stroke="#191970" points="2352.0001,-270.2455 2355.5,-280.2455 2359.0001,-270.2456 2352.0001,-270.2455"/>
</g>
<!-- Node69&#45;&gt;Node34 -->
<g id="edge59" class="edge">
<title>Node69&#45;&gt;Node34</title>
<path fill="none" stroke="#191970" d="M1340.1095,-274.769C1324.8701,-264.8456 1305.4491,-252.1994 1292.3084,-243.6427"/>
<polygon fill="#191970" stroke="#191970" points="1338.2301,-277.7218 1348.5199,-280.2455 1342.0498,-271.8558 1338.2301,-277.7218"/>
</g>
</g>
</svg>
