<?xml version="1.0" encoding="UTF-8" standalone="no"?>
<!DOCTYPE svg PUBLIC "-//W3C//DTD SVG 1.1//EN"
 "http://www.w3.org/Graphics/SVG/1.1/DTD/svg11.dtd">
<!-- Generated by graphviz version 2.40.1 (20161225.0304)
 -->
<!-- Title: packet.h Pages: 1 -->
<svg width="454pt" height="756pt"
 viewBox="0.00 0.00 453.50 756.00" xmlns="http://www.w3.org/2000/svg" xmlns:xlink="http://www.w3.org/1999/xlink">
<g id="graph0" class="graph" transform="scale(1 1) rotate(0) translate(4 752)">
<title>packet.h</title>
<polygon fill="#ffffff" stroke="transparent" points="-4,4 -4,-752 449.5,-752 449.5,4 -4,4"/>
<!-- Node13 -->
<g id="node1" class="node">
<title>Node13</title>
<polygon fill="#bfbfbf" stroke="#000000" points="237.5,-728.5 237.5,-747.5 296.5,-747.5 296.5,-728.5 237.5,-728.5"/>
<text text-anchor="middle" x="267" y="-735.5" font-family="Helvetica,sans-Serif" font-size="10.00" fill="#000000">packet.h</text>
</g>
<!-- Node14 -->
<g id="node2" class="node">
<title>Node14</title>
<g id="a_node2"><a xlink:href="packet_8h.html" target="_top" xlink:title="ODP packet descriptor. ">
<polygon fill="#ffffff" stroke="#000000" points="237.5,-672.5 237.5,-691.5 296.5,-691.5 296.5,-672.5 237.5,-672.5"/>
<text text-anchor="middle" x="267" y="-679.5" font-family="Helvetica,sans-Serif" font-size="10.00" fill="#000000">packet.h</text>
</a>
</g>
</g>
<!-- Node13&#45;&gt;Node14 -->
<g id="edge1" class="edge">
<title>Node13&#45;&gt;Node14</title>
<path fill="none" stroke="#191970" d="M267,-718.1575C267,-709.155 267,-698.9199 267,-691.6427"/>
<polygon fill="#191970" stroke="#191970" points="263.5001,-718.2455 267,-728.2455 270.5001,-718.2456 263.5001,-718.2455"/>
</g>
<!-- Node15 -->
<g id="node3" class="node">
<title>Node15</title>
<g id="a_node3"><a xlink:href="spec_2comp_8h.html" target="_top" xlink:title="ODP Compression. ">
<polygon fill="#ffffff" stroke="#000000" points="130.5,-616.5 130.5,-635.5 183.5,-635.5 183.5,-616.5 130.5,-616.5"/>
<text text-anchor="middle" x="157" y="-623.5" font-family="Helvetica,sans-Serif" font-size="10.00" fill="#000000">comp.h</text>
</a>
</g>
</g>
<!-- Node14&#45;&gt;Node15 -->
<g id="edge2" class="edge">
<title>Node14&#45;&gt;Node15</title>
<path fill="none" stroke="#191970" d="M238.7086,-667.5971C218.9889,-657.558 193.22,-644.4393 175.941,-635.6427"/>
<polygon fill="#191970" stroke="#191970" points="237.3399,-670.8277 247.8395,-672.2455 240.5157,-664.5896 237.3399,-670.8277"/>
</g>
<!-- Node17 -->
<g id="node5" class="node">
<title>Node17</title>
<g id="a_node5"><a xlink:href="spec_2crypto_8h.html" target="_top" xlink:title="ODP crypto. ">
<polygon fill="#ffffff" stroke="#000000" points="87,-504.5 87,-523.5 143,-523.5 143,-504.5 87,-504.5"/>
<text text-anchor="middle" x="115" y="-511.5" font-family="Helvetica,sans-Serif" font-size="10.00" fill="#000000">crypto.h</text>
</a>
</g>
</g>
<!-- Node14&#45;&gt;Node17 -->
<g id="edge4" class="edge">
<title>Node14&#45;&gt;Node17</title>
<path fill="none" stroke="#191970" d="M251.8616,-664.2957C245.0907,-655.9789 237.2459,-645.7641 231,-636 210.5419,-604.018 217.9676,-587.6959 192,-560 176.8758,-543.8692 154.8388,-531.4803 138.2113,-523.6453"/>
<polygon fill="#191970" stroke="#191970" points="249.3313,-666.7269 258.4169,-672.177 254.7131,-662.2506 249.3313,-666.7269"/>
</g>
<!-- Node21 -->
<g id="node9" class="node">
<title>Node21</title>
<g id="a_node9"><a xlink:href="spec_2event_8h.html" target="_top" xlink:title="ODP event. ">
<polygon fill="#ffffff" stroke="#000000" points="240.5,-616.5 240.5,-635.5 293.5,-635.5 293.5,-616.5 240.5,-616.5"/>
<text text-anchor="middle" x="267" y="-623.5" font-family="Helvetica,sans-Serif" font-size="10.00" fill="#000000">event.h</text>
</a>
</g>
</g>
<!-- Node14&#45;&gt;Node21 -->
<g id="edge8" class="edge">
<title>Node14&#45;&gt;Node21</title>
<path fill="none" stroke="#191970" d="M267,-662.1575C267,-653.155 267,-642.9199 267,-635.6427"/>
<polygon fill="#191970" stroke="#191970" points="263.5001,-662.2455 267,-672.2455 270.5001,-662.2456 263.5001,-662.2455"/>
</g>
<!-- Node25 -->
<g id="node13" class="node">
<title>Node25</title>
<g id="a_node13"><a xlink:href="spec_2packet__io_8h.html" target="_top" xlink:title="ODP Packet IO. ">
<polygon fill="#ffffff" stroke="#000000" points="123.5,-280.5 123.5,-299.5 196.5,-299.5 196.5,-280.5 123.5,-280.5"/>
<text text-anchor="middle" x="160" y="-287.5" font-family="Helvetica,sans-Serif" font-size="10.00" fill="#000000">packet_io.h</text>
</a>
</g>
</g>
<!-- Node14&#45;&gt;Node25 -->
<g id="edge30" class="edge">
<title>Node14&#45;&gt;Node25</title>
<path fill="none" stroke="#191970" d="M284.0098,-664.9092C302.6684,-644.2702 330,-607.6177 330,-570 330,-570 330,-570 330,-402 330,-371.4754 332.4173,-357.7498 311,-336 294.9925,-319.744 235.933,-305.1751 196.5941,-296.9752"/>
<polygon fill="#191970" stroke="#191970" points="281.4144,-662.5601 277.122,-672.2465 286.5181,-667.351 281.4144,-662.5601"/>
</g>
<!-- Node35 -->
<g id="node23" class="node">
<title>Node35</title>
<g id="a_node23"><a xlink:href="spec_2packet__flags_8h.html" target="_top" xlink:title="ODP packet flags. ">
<polygon fill="#ffffff" stroke="#000000" points="358.5,-616.5 358.5,-635.5 445.5,-635.5 445.5,-616.5 358.5,-616.5"/>
<text text-anchor="middle" x="402" y="-623.5" font-family="Helvetica,sans-Serif" font-size="10.00" fill="#000000">packet_flags.h</text>
</a>
</g>
</g>
<!-- Node14&#45;&gt;Node35 -->
<g id="edge28" class="edge">
<title>Node14&#45;&gt;Node35</title>
<path fill="none" stroke="#191970" d="M299.4991,-668.5189C324.0854,-658.3201 357.2366,-644.5685 379.0955,-635.5011"/>
<polygon fill="#191970" stroke="#191970" points="298.1031,-665.3087 290.2073,-672.3733 300.7852,-671.7745 298.1031,-665.3087"/>
</g>
<!-- Node16 -->
<g id="node4" class="node">
<title>Node16</title>
<g id="a_node4"><a xlink:href="comp_8h.html" target="_top" xlink:title="ODP crypto. ">
<polygon fill="#ffffff" stroke="#000000" points="130.5,-560.5 130.5,-579.5 183.5,-579.5 183.5,-560.5 130.5,-560.5"/>
<text text-anchor="middle" x="157" y="-567.5" font-family="Helvetica,sans-Serif" font-size="10.00" fill="#000000">comp.h</text>
</a>
</g>
</g>
<!-- Node15&#45;&gt;Node16 -->
<g id="edge3" class="edge">
<title>Node15&#45;&gt;Node16</title>
<path fill="none" stroke="#191970" d="M157,-606.1575C157,-597.155 157,-586.9199 157,-579.6427"/>
<polygon fill="#191970" stroke="#191970" points="153.5001,-606.2455 157,-616.2455 160.5001,-606.2456 153.5001,-606.2455"/>
</g>
<!-- Node18 -->
<g id="node6" class="node">
<title>Node18</title>
<g id="a_node6"><a xlink:href="crypto_8h.html" target="_top" xlink:title="ODP crypto. ">
<polygon fill="#ffffff" stroke="#000000" points="0,-392.5 0,-411.5 56,-411.5 56,-392.5 0,-392.5"/>
<text text-anchor="middle" x="28" y="-399.5" font-family="Helvetica,sans-Serif" font-size="10.00" fill="#000000">crypto.h</text>
</a>
</g>
</g>
<!-- Node17&#45;&gt;Node18 -->
<g id="edge5" class="edge">
<title>Node17&#45;&gt;Node18</title>
<path fill="none" stroke="#191970" d="M101.4275,-496.5274C82.8168,-472.5688 50.0222,-430.3505 35.3988,-411.5249"/>
<polygon fill="#191970" stroke="#191970" points="98.6838,-498.7007 107.5824,-504.4509 104.2119,-494.4065 98.6838,-498.7007"/>
</g>
<!-- Node19 -->
<g id="node7" class="node">
<title>Node19</title>
<g id="a_node7"><a xlink:href="spec_2ipsec_8h.html" target="_top" xlink:title="ODP IPSEC API. ">
<polygon fill="#ffffff" stroke="#000000" points="88.5,-56.5 88.5,-75.5 139.5,-75.5 139.5,-56.5 88.5,-56.5"/>
<text text-anchor="middle" x="114" y="-63.5" font-family="Helvetica,sans-Serif" font-size="10.00" fill="#000000">ipsec.h</text>
</a>
</g>
</g>
<!-- Node18&#45;&gt;Node19 -->
<g id="edge6" class="edge">
<title>Node18&#45;&gt;Node19</title>
<path fill="none" stroke="#191970" d="M30.5523,-382.2338C33.2133,-359.8859 37,-322.3925 37,-290 37,-290 37,-290 37,-178 37,-133.1668 79.4149,-93.1885 101.285,-75.5547"/>
<polygon fill="#191970" stroke="#191970" points="27.045,-382.0781 29.2895,-392.4324 33.9919,-382.9384 27.045,-382.0781"/>
</g>
<!-- Node20 -->
<g id="node8" class="node">
<title>Node20</title>
<g id="a_node8"><a xlink:href="ipsec_8h.html" target="_top" xlink:title="ODP IPSEC API &#45; platform specific header. ">
<polygon fill="#ffffff" stroke="#000000" points="88.5,-.5 88.5,-19.5 139.5,-19.5 139.5,-.5 88.5,-.5"/>
<text text-anchor="middle" x="114" y="-7.5" font-family="Helvetica,sans-Serif" font-size="10.00" fill="#000000">ipsec.h</text>
</a>
</g>
</g>
<!-- Node19&#45;&gt;Node20 -->
<g id="edge7" class="edge">
<title>Node19&#45;&gt;Node20</title>
<path fill="none" stroke="#191970" d="M114,-46.1575C114,-37.155 114,-26.9199 114,-19.6427"/>
<polygon fill="#191970" stroke="#191970" points="110.5001,-46.2455 114,-56.2455 117.5001,-46.2456 110.5001,-46.2455"/>
</g>
<!-- Node22 -->
<g id="node10" class="node">
<title>Node22</title>
<g id="a_node10"><a xlink:href="event_8h.html" target="_top" xlink:title="ODP event. ">
<polygon fill="#ffffff" stroke="#000000" points="240.5,-560.5 240.5,-579.5 293.5,-579.5 293.5,-560.5 240.5,-560.5"/>
<text text-anchor="middle" x="267" y="-567.5" font-family="Helvetica,sans-Serif" font-size="10.00" fill="#000000">event.h</text>
</a>
</g>
</g>
<!-- Node21&#45;&gt;Node22 -->
<g id="edge9" class="edge">
<title>Node21&#45;&gt;Node22</title>
<path fill="none" stroke="#191970" d="M267,-606.1575C267,-597.155 267,-586.9199 267,-579.6427"/>
<polygon fill="#191970" stroke="#191970" points="263.5001,-606.2455 267,-616.2455 270.5001,-606.2456 263.5001,-606.2455"/>
</g>
<!-- Node23 -->
<g id="node11" class="node">
<title>Node23</title>
<g id="a_node11"><a xlink:href="spec_2queue_8h.html" target="_top" xlink:title="ODP queue. ">
<polygon fill="#ffffff" stroke="#000000" points="176,-504.5 176,-523.5 232,-523.5 232,-504.5 176,-504.5"/>
<text text-anchor="middle" x="204" y="-511.5" font-family="Helvetica,sans-Serif" font-size="10.00" fill="#000000">queue.h</text>
</a>
</g>
</g>
<!-- Node22&#45;&gt;Node23 -->
<g id="edge10" class="edge">
<title>Node22&#45;&gt;Node23</title>
<path fill="none" stroke="#191970" d="M248.2808,-553.3607C237.3818,-543.6727 224.0245,-531.7995 214.848,-523.6427"/>
<polygon fill="#191970" stroke="#191970" points="246.2268,-556.2178 256.0262,-560.2455 250.8774,-550.9859 246.2268,-556.2178"/>
</g>
<!-- Node33 -->
<g id="node21" class="node">
<title>Node33</title>
<g id="a_node21"><a xlink:href="spec_2schedule_8h.html" target="_top" xlink:title="ODP schedule. ">
<polygon fill="#ffffff" stroke="#000000" points="232.5,-392.5 232.5,-411.5 301.5,-411.5 301.5,-392.5 232.5,-392.5"/>
<text text-anchor="middle" x="267" y="-399.5" font-family="Helvetica,sans-Serif" font-size="10.00" fill="#000000">schedule.h</text>
</a>
</g>
</g>
<!-- Node22&#45;&gt;Node33 -->
<g id="edge27" class="edge">
<title>Node22&#45;&gt;Node33</title>
<path fill="none" stroke="#191970" d="M267,-550.2601C267,-514.1669 267,-438.7656 267,-411.8279"/>
<polygon fill="#191970" stroke="#191970" points="263.5001,-550.4862 267,-560.4862 270.5001,-550.4863 263.5001,-550.4862"/>
</g>
<!-- Node24 -->
<g id="node12" class="node">
<title>Node24</title>
<g id="a_node12"><a xlink:href="queue_8h.html" target="_top" xlink:title="ODP queue. ">
<polygon fill="#ffffff" stroke="#000000" points="135,-448.5 135,-467.5 191,-467.5 191,-448.5 135,-448.5"/>
<text text-anchor="middle" x="163" y="-455.5" font-family="Helvetica,sans-Serif" font-size="10.00" fill="#000000">queue.h</text>
</a>
</g>
</g>
<!-- Node23&#45;&gt;Node24 -->
<g id="edge11" class="edge">
<title>Node23&#45;&gt;Node24</title>
<path fill="none" stroke="#191970" d="M190.7636,-495.9209C183.8789,-486.5176 175.7391,-475.3997 170.0598,-467.6427"/>
<polygon fill="#191970" stroke="#191970" points="188.1269,-498.2445 196.8583,-504.2455 193.7749,-494.1093 188.1269,-498.2445"/>
</g>
<!-- Node24&#45;&gt;Node18 -->
<g id="edge12" class="edge">
<title>Node24&#45;&gt;Node18</title>
<path fill="none" stroke="#191970" d="M130.5009,-444.5189C105.9146,-434.3201 72.7634,-420.5685 50.9045,-411.5011"/>
<polygon fill="#191970" stroke="#191970" points="129.2148,-447.7745 139.7927,-448.3733 131.8969,-441.3087 129.2148,-447.7745"/>
</g>
<!-- Node24&#45;&gt;Node25 -->
<g id="edge13" class="edge">
<title>Node24&#45;&gt;Node25</title>
<path fill="none" stroke="#191970" d="M133.4407,-443.1349C121.7062,-435.5543 109.4793,-425.1319 103,-412 88.0542,-381.7087 88.4328,-366.4751 103,-336 110.7875,-319.7083 127.4734,-307.337 140.79,-299.5495"/>
<polygon fill="#191970" stroke="#191970" points="131.8348,-446.2525 142.2148,-448.3756 135.4244,-440.2428 131.8348,-446.2525"/>
</g>
<!-- Node31 -->
<g id="node19" class="node">
<title>Node31</title>
<g id="a_node19"><a xlink:href="spec_2packet__io__stats_8h.html" target="_top" xlink:title="ODP Packet IO statistics. ">
<polygon fill="#ffffff" stroke="#000000" points="112,-392.5 112,-411.5 214,-411.5 214,-392.5 112,-392.5"/>
<text text-anchor="middle" x="163" y="-399.5" font-family="Helvetica,sans-Serif" font-size="10.00" fill="#000000">packet_io_stats.h</text>
</a>
</g>
</g>
<!-- Node24&#45;&gt;Node31 -->
<g id="edge22" class="edge">
<title>Node24&#45;&gt;Node31</title>
<path fill="none" stroke="#191970" d="M163,-438.1575C163,-429.155 163,-418.9199 163,-411.6427"/>
<polygon fill="#191970" stroke="#191970" points="159.5001,-438.2455 163,-448.2455 166.5001,-438.2456 159.5001,-438.2455"/>
</g>
<!-- Node24&#45;&gt;Node33 -->
<g id="edge25" class="edge">
<title>Node24&#45;&gt;Node33</title>
<path fill="none" stroke="#191970" d="M190.0029,-443.46C208.6136,-433.4388 232.8299,-420.3993 249.0922,-411.6427"/>
<polygon fill="#191970" stroke="#191970" points="188.2608,-440.4228 181.1154,-448.2455 191.5795,-446.5861 188.2608,-440.4228"/>
</g>
<!-- Node26 -->
<g id="node14" class="node">
<title>Node26</title>
<g id="a_node14"><a xlink:href="packet__io_8h.html" target="_top" xlink:title="ODP Packet IO. ">
<polygon fill="#ffffff" stroke="#000000" points="120.5,-224.5 120.5,-243.5 193.5,-243.5 193.5,-224.5 120.5,-224.5"/>
<text text-anchor="middle" x="157" y="-231.5" font-family="Helvetica,sans-Serif" font-size="10.00" fill="#000000">packet_io.h</text>
</a>
</g>
</g>
<!-- Node25&#45;&gt;Node26 -->
<g id="edge14" class="edge">
<title>Node25&#45;&gt;Node26</title>
<path fill="none" stroke="#191970" d="M158.937,-270.1575C158.4547,-261.155 157.9064,-250.9199 157.5166,-243.6427"/>
<polygon fill="#191970" stroke="#191970" points="155.4474,-270.4471 159.4774,-280.2455 162.4374,-270.0726 155.4474,-270.4471"/>
</g>
<!-- Node26&#45;&gt;Node19 -->
<g id="edge18" class="edge">
<title>Node26&#45;&gt;Node19</title>
<path fill="none" stroke="#191970" d="M127.4407,-219.1349C115.7062,-211.5543 103.4793,-201.1319 97,-188 78.1698,-149.8361 98.8871,-97.285 109.0464,-75.7754"/>
<polygon fill="#191970" stroke="#191970" points="125.8348,-222.2525 136.2148,-224.3756 129.4244,-216.2428 125.8348,-222.2525"/>
</g>
<!-- Node27 -->
<g id="node15" class="node">
<title>Node27</title>
<g id="a_node15"><a xlink:href="spec_2classification_8h.html" target="_top" xlink:title="ODP classification descriptor. ">
<polygon fill="#ffffff" stroke="#000000" points="106.5,-168.5 106.5,-187.5 195.5,-187.5 195.5,-168.5 106.5,-168.5"/>
<text text-anchor="middle" x="151" y="-175.5" font-family="Helvetica,sans-Serif" font-size="10.00" fill="#000000">classification.h</text>
</a>
</g>
</g>
<!-- Node26&#45;&gt;Node27 -->
<g id="edge15" class="edge">
<title>Node26&#45;&gt;Node27</title>
<path fill="none" stroke="#191970" d="M154.874,-214.1575C153.9095,-205.155 152.8128,-194.9199 152.0331,-187.6427"/>
<polygon fill="#191970" stroke="#191970" points="151.4094,-214.6753 155.9549,-224.2455 158.3695,-213.9296 151.4094,-214.6753"/>
</g>
<!-- Node29 -->
<g id="node17" class="node">
<title>Node29</title>
<g id="a_node17"><a xlink:href="spec_2traffic__mngr_8h.html" target="_top" xlink:title="Copyright (c) 2015&#45;2018, Linaro Limited All rights reserved. ">
<polygon fill="#ffffff" stroke="#000000" points="213,-168.5 213,-187.5 297,-187.5 297,-168.5 213,-168.5"/>
<text text-anchor="middle" x="255" y="-175.5" font-family="Helvetica,sans-Serif" font-size="10.00" fill="#000000">traffic_mngr.h</text>
</a>
</g>
</g>
<!-- Node26&#45;&gt;Node29 -->
<g id="edge19" class="edge">
<title>Node26&#45;&gt;Node29</title>
<path fill="none" stroke="#191970" d="M183.1686,-219.0465C200.6058,-209.0824 223.0111,-196.2794 238.1253,-187.6427"/>
<polygon fill="#191970" stroke="#191970" points="181.0162,-216.2453 174.0703,-224.2455 184.4892,-222.323 181.0162,-216.2453"/>
</g>
<!-- Node28 -->
<g id="node16" class="node">
<title>Node28</title>
<g id="a_node16"><a xlink:href="classification_8h.html" target="_top" xlink:title="ODP classification descriptor. ">
<polygon fill="#ffffff" stroke="#000000" points="106.5,-112.5 106.5,-131.5 195.5,-131.5 195.5,-112.5 106.5,-112.5"/>
<text text-anchor="middle" x="151" y="-119.5" font-family="Helvetica,sans-Serif" font-size="10.00" fill="#000000">classification.h</text>
</a>
</g>
</g>
<!-- Node27&#45;&gt;Node28 -->
<g id="edge16" class="edge">
<title>Node27&#45;&gt;Node28</title>
<path fill="none" stroke="#191970" d="M151,-158.1575C151,-149.155 151,-138.9199 151,-131.6427"/>
<polygon fill="#191970" stroke="#191970" points="147.5001,-158.2455 151,-168.2455 154.5001,-158.2456 147.5001,-158.2455"/>
</g>
<!-- Node28&#45;&gt;Node19 -->
<g id="edge17" class="edge">
<title>Node28&#45;&gt;Node19</title>
<path fill="none" stroke="#191970" d="M138.8624,-103.6296C132.6907,-94.2887 125.4434,-83.3197 120.3711,-75.6427"/>
<polygon fill="#191970" stroke="#191970" points="136.1223,-105.8316 144.5551,-112.2455 141.9627,-101.9728 136.1223,-105.8316"/>
</g>
<!-- Node30 -->
<g id="node18" class="node">
<title>Node30</title>
<g id="a_node18"><a xlink:href="traffic__mngr_8h.html" target="_top" xlink:title="ODP Traffic manager. ">
<polygon fill="#ffffff" stroke="#000000" points="213,-112.5 213,-131.5 297,-131.5 297,-112.5 213,-112.5"/>
<text text-anchor="middle" x="255" y="-119.5" font-family="Helvetica,sans-Serif" font-size="10.00" fill="#000000">traffic_mngr.h</text>
</a>
</g>
</g>
<!-- Node29&#45;&gt;Node30 -->
<g id="edge20" class="edge">
<title>Node29&#45;&gt;Node30</title>
<path fill="none" stroke="#191970" d="M255,-158.1575C255,-149.155 255,-138.9199 255,-131.6427"/>
<polygon fill="#191970" stroke="#191970" points="251.5001,-158.2455 255,-168.2455 258.5001,-158.2456 251.5001,-158.2455"/>
</g>
<!-- Node30&#45;&gt;Node19 -->
<g id="edge21" class="edge">
<title>Node30&#45;&gt;Node19</title>
<path fill="none" stroke="#191970" d="M221.3968,-108.6541C195.6841,-98.4419 160.8539,-84.6086 137.9225,-75.5011"/>
<polygon fill="#191970" stroke="#191970" points="220.1755,-111.9349 230.7612,-112.3733 222.7593,-105.4292 220.1755,-111.9349"/>
</g>
<!-- Node32 -->
<g id="node20" class="node">
<title>Node32</title>
<g id="a_node20"><a xlink:href="packet__io__stats_8h.html" target="_top" xlink:title="ODP packet IO stats. ">
<polygon fill="#ffffff" stroke="#000000" points="112,-336.5 112,-355.5 214,-355.5 214,-336.5 112,-336.5"/>
<text text-anchor="middle" x="163" y="-343.5" font-family="Helvetica,sans-Serif" font-size="10.00" fill="#000000">packet_io_stats.h</text>
</a>
</g>
</g>
<!-- Node31&#45;&gt;Node32 -->
<g id="edge23" class="edge">
<title>Node31&#45;&gt;Node32</title>
<path fill="none" stroke="#191970" d="M163,-382.1575C163,-373.155 163,-362.9199 163,-355.6427"/>
<polygon fill="#191970" stroke="#191970" points="159.5001,-382.2455 163,-392.2455 166.5001,-382.2456 159.5001,-382.2455"/>
</g>
<!-- Node32&#45;&gt;Node25 -->
<g id="edge24" class="edge">
<title>Node32&#45;&gt;Node25</title>
<path fill="none" stroke="#191970" d="M161.937,-326.1575C161.4547,-317.155 160.9064,-306.9199 160.5166,-299.6427"/>
<polygon fill="#191970" stroke="#191970" points="158.4474,-326.4471 162.4774,-336.2455 165.4374,-326.0726 158.4474,-326.4471"/>
</g>
<!-- Node34 -->
<g id="node22" class="node">
<title>Node34</title>
<g id="a_node22"><a xlink:href="schedule_8h.html" target="_top" xlink:title="ODP schedule. ">
<polygon fill="#ffffff" stroke="#000000" points="232.5,-336.5 232.5,-355.5 301.5,-355.5 301.5,-336.5 232.5,-336.5"/>
<text text-anchor="middle" x="267" y="-343.5" font-family="Helvetica,sans-Serif" font-size="10.00" fill="#000000">schedule.h</text>
</a>
</g>
</g>
<!-- Node33&#45;&gt;Node34 -->
<g id="edge26" class="edge">
<title>Node33&#45;&gt;Node34</title>
<path fill="none" stroke="#191970" d="M267,-382.1575C267,-373.155 267,-362.9199 267,-355.6427"/>
<polygon fill="#191970" stroke="#191970" points="263.5001,-382.2455 267,-392.2455 270.5001,-382.2456 263.5001,-382.2455"/>
</g>
<!-- Node36 -->
<g id="node24" class="node">
<title>Node36</title>
<g id="a_node24"><a xlink:href="packet__flags_8h.html" target="_top" xlink:title="ODP packet flags. ">
<polygon fill="#ffffff" stroke="#000000" points="358.5,-560.5 358.5,-579.5 445.5,-579.5 445.5,-560.5 358.5,-560.5"/>
<text text-anchor="middle" x="402" y="-567.5" font-family="Helvetica,sans-Serif" font-size="10.00" fill="#000000">packet_flags.h</text>
</a>
</g>
</g>
<!-- Node35&#45;&gt;Node36 -->
<g id="edge29" class="edge">
<title>Node35&#45;&gt;Node36</title>
<path fill="none" stroke="#191970" d="M402,-606.1575C402,-597.155 402,-586.9199 402,-579.6427"/>
<polygon fill="#191970" stroke="#191970" points="398.5001,-606.2455 402,-616.2455 405.5001,-606.2456 398.5001,-606.2455"/>
</g>
</g>
</svg>
