<?xml version="1.0" encoding="UTF-8" standalone="no"?>
<!DOCTYPE svg PUBLIC "-//W3C//DTD SVG 1.1//EN"
 "http://www.w3.org/Graphics/SVG/1.1/DTD/svg11.dtd">
<!-- Generated by graphviz version 2.40.1 (20161225.0304)
 -->
<!-- Title: time.h Pages: 1 -->
<svg width="600pt" height="868pt"
 viewBox="0.00 0.00 600.00 868.00" xmlns="http://www.w3.org/2000/svg" xmlns:xlink="http://www.w3.org/1999/xlink">
<g id="graph0" class="graph" transform="scale(1 1) rotate(0) translate(4 864)">
<title>time.h</title>
<polygon fill="#ffffff" stroke="transparent" points="-4,4 -4,-864 596,-864 596,4 -4,4"/>
<!-- Node3 -->
<g id="node1" class="node">
<title>Node3</title>
<polygon fill="#bfbfbf" stroke="#000000" points="444,-840.5 444,-859.5 492,-859.5 492,-840.5 444,-840.5"/>
<text text-anchor="middle" x="468" y="-847.5" font-family="Helvetica,sans-Serif" font-size="10.00" fill="#000000">time.h</text>
</g>
<!-- Node4 -->
<g id="node2" class="node">
<title>Node4</title>
<g id="a_node2"><a xlink:href="time_8h.html" target="_top" xlink:title="ODP time. ">
<polygon fill="#ffffff" stroke="#000000" points="444,-784.5 444,-803.5 492,-803.5 492,-784.5 444,-784.5"/>
<text text-anchor="middle" x="468" y="-791.5" font-family="Helvetica,sans-Serif" font-size="10.00" fill="#000000">time.h</text>
</a>
</g>
</g>
<!-- Node3&#45;&gt;Node4 -->
<g id="edge1" class="edge">
<title>Node3&#45;&gt;Node4</title>
<path fill="none" stroke="#191970" d="M468,-830.1575C468,-821.155 468,-810.9199 468,-803.6427"/>
<polygon fill="#191970" stroke="#191970" points="464.5001,-830.2455 468,-840.2455 471.5001,-830.2456 464.5001,-830.2455"/>
</g>
<!-- Node5 -->
<g id="node3" class="node">
<title>Node5</title>
<g id="a_node3"><a xlink:href="spec_2packet_8h.html" target="_top" xlink:title="ODP packet descriptor. ">
<polygon fill="#ffffff" stroke="#000000" points="337.5,-728.5 337.5,-747.5 396.5,-747.5 396.5,-728.5 337.5,-728.5"/>
<text text-anchor="middle" x="367" y="-735.5" font-family="Helvetica,sans-Serif" font-size="10.00" fill="#000000">packet.h</text>
</a>
</g>
</g>
<!-- Node4&#45;&gt;Node5 -->
<g id="edge2" class="edge">
<title>Node4&#45;&gt;Node5</title>
<path fill="none" stroke="#191970" d="M441.5281,-779.3225C423.4875,-769.3198 400.1123,-756.3593 384.3913,-747.6427"/>
<polygon fill="#191970" stroke="#191970" points="439.9643,-782.4574 450.4071,-784.2455 443.3587,-776.3354 439.9643,-782.4574"/>
</g>
<!-- Node17 -->
<g id="node15" class="node">
<title>Node17</title>
<g id="a_node15"><a xlink:href="spec_2packet__io_8h.html" target="_top" xlink:title="ODP Packet IO. ">
<polygon fill="#ffffff" stroke="#000000" points="126.5,-280.5 126.5,-299.5 199.5,-299.5 199.5,-280.5 126.5,-280.5"/>
<text text-anchor="middle" x="163" y="-287.5" font-family="Helvetica,sans-Serif" font-size="10.00" fill="#000000">packet_io.h</text>
</a>
</g>
</g>
<!-- Node4&#45;&gt;Node17 -->
<g id="edge33" class="edge">
<title>Node4&#45;&gt;Node17</title>
<path fill="none" stroke="#191970" d="M468,-774.1952C468,-751.8128 468,-714.2884 468,-682 468,-682 468,-682 468,-402 468,-345.4503 280.9108,-308.7788 199.7901,-295.5362"/>
<polygon fill="#191970" stroke="#191970" points="464.5001,-774.4116 468,-784.4116 471.5001,-774.4117 464.5001,-774.4116"/>
</g>
<!-- Node29 -->
<g id="node27" class="node">
<title>Node29</title>
<g id="a_node27"><a xlink:href="packet__inlines_8h.html" target="_top" xlink:title="Packet inline functions. ">
<polygon fill="#ffffff" stroke="#000000" points="496,-728.5 496,-747.5 592,-747.5 592,-728.5 496,-728.5"/>
<text text-anchor="middle" x="544" y="-735.5" font-family="Helvetica,sans-Serif" font-size="10.00" fill="#000000">packet_inlines.h</text>
</a>
</g>
</g>
<!-- Node4&#45;&gt;Node29 -->
<g id="edge34" class="edge">
<title>Node4&#45;&gt;Node29</title>
<path fill="none" stroke="#191970" d="M489.4297,-778.2097C502.7777,-768.3743 519.5179,-756.0394 530.9135,-747.6427"/>
<polygon fill="#191970" stroke="#191970" points="487.2126,-775.4958 481.2382,-784.2455 491.365,-781.1312 487.2126,-775.4958"/>
</g>
<!-- Node6 -->
<g id="node4" class="node">
<title>Node6</title>
<g id="a_node4"><a xlink:href="packet_8h.html" target="_top" xlink:title="ODP packet descriptor. ">
<polygon fill="#ffffff" stroke="#000000" points="267.5,-672.5 267.5,-691.5 326.5,-691.5 326.5,-672.5 267.5,-672.5"/>
<text text-anchor="middle" x="297" y="-679.5" font-family="Helvetica,sans-Serif" font-size="10.00" fill="#000000">packet.h</text>
</a>
</g>
</g>
<!-- Node5&#45;&gt;Node6 -->
<g id="edge3" class="edge">
<title>Node5&#45;&gt;Node6</title>
<path fill="none" stroke="#191970" d="M346.91,-721.928C334.6747,-712.1397 319.4493,-699.9595 309.0533,-691.6427"/>
<polygon fill="#191970" stroke="#191970" points="344.8118,-724.7316 354.8069,-728.2455 349.1847,-719.2655 344.8118,-724.7316"/>
</g>
<!-- Node7 -->
<g id="node5" class="node">
<title>Node7</title>
<g id="a_node5"><a xlink:href="spec_2comp_8h.html" target="_top" xlink:title="ODP Compression. ">
<polygon fill="#ffffff" stroke="#000000" points="130.5,-616.5 130.5,-635.5 183.5,-635.5 183.5,-616.5 130.5,-616.5"/>
<text text-anchor="middle" x="157" y="-623.5" font-family="Helvetica,sans-Serif" font-size="10.00" fill="#000000">comp.h</text>
</a>
</g>
</g>
<!-- Node6&#45;&gt;Node7 -->
<g id="edge4" class="edge">
<title>Node6&#45;&gt;Node7</title>
<path fill="none" stroke="#191970" d="M263.6351,-668.6541C238.1048,-658.4419 203.5216,-644.6086 180.7528,-635.5011"/>
<polygon fill="#191970" stroke="#191970" points="262.3485,-671.909 272.9331,-672.3733 264.9483,-665.4096 262.3485,-671.909"/>
</g>
<!-- Node9 -->
<g id="node7" class="node">
<title>Node9</title>
<g id="a_node7"><a xlink:href="spec_2crypto_8h.html" target="_top" xlink:title="ODP crypto. ">
<polygon fill="#ffffff" stroke="#000000" points="87,-504.5 87,-523.5 143,-523.5 143,-504.5 87,-504.5"/>
<text text-anchor="middle" x="115" y="-511.5" font-family="Helvetica,sans-Serif" font-size="10.00" fill="#000000">crypto.h</text>
</a>
</g>
</g>
<!-- Node6&#45;&gt;Node9 -->
<g id="edge6" class="edge">
<title>Node6&#45;&gt;Node9</title>
<path fill="none" stroke="#191970" d="M270.8973,-667.1044C258.3591,-659.0459 243.7596,-648.239 233,-636 207.6596,-607.1755 218.5379,-587.726 192,-560 176.6027,-543.9134 154.381,-531.4453 137.7634,-523.5726"/>
<polygon fill="#191970" stroke="#191970" points="269.2313,-670.1892 279.5783,-672.4677 272.9106,-664.2341 269.2313,-670.1892"/>
</g>
<!-- Node13 -->
<g id="node11" class="node">
<title>Node13</title>
<g id="a_node11"><a xlink:href="spec_2event_8h.html" target="_top" xlink:title="ODP event. ">
<polygon fill="#ffffff" stroke="#000000" points="242.5,-616.5 242.5,-635.5 295.5,-635.5 295.5,-616.5 242.5,-616.5"/>
<text text-anchor="middle" x="269" y="-623.5" font-family="Helvetica,sans-Serif" font-size="10.00" fill="#000000">event.h</text>
</a>
</g>
</g>
<!-- Node6&#45;&gt;Node13 -->
<g id="edge10" class="edge">
<title>Node6&#45;&gt;Node13</title>
<path fill="none" stroke="#191970" d="M287.5219,-663.0437C282.9165,-653.8331 277.5799,-643.1598 273.8213,-635.6427"/>
<polygon fill="#191970" stroke="#191970" points="284.5201,-664.8665 292.1228,-672.2455 290.7811,-661.736 284.5201,-664.8665"/>
</g>
<!-- Node6&#45;&gt;Node17 -->
<g id="edge32" class="edge">
<title>Node6&#45;&gt;Node17</title>
<path fill="none" stroke="#191970" d="M305.3013,-662.702C328.2425,-606.0609 386.0162,-437.8719 311,-336 297.7178,-317.9627 239.1076,-303.9296 199.7498,-296.3221"/>
<polygon fill="#191970" stroke="#191970" points="301.953,-661.6385 301.3446,-672.2158 308.4163,-664.3265 301.953,-661.6385"/>
</g>
<!-- Node27 -->
<g id="node25" class="node">
<title>Node27</title>
<g id="a_node25"><a xlink:href="spec_2packet__flags_8h.html" target="_top" xlink:title="ODP packet flags. ">
<polygon fill="#ffffff" stroke="#000000" points="352.5,-616.5 352.5,-635.5 439.5,-635.5 439.5,-616.5 352.5,-616.5"/>
<text text-anchor="middle" x="396" y="-623.5" font-family="Helvetica,sans-Serif" font-size="10.00" fill="#000000">packet_flags.h</text>
</a>
</g>
</g>
<!-- Node6&#45;&gt;Node27 -->
<g id="edge30" class="edge">
<title>Node6&#45;&gt;Node27</title>
<path fill="none" stroke="#191970" d="M323.4357,-667.0465C341.0508,-657.0824 363.6847,-644.2794 378.9531,-635.6427"/>
<polygon fill="#191970" stroke="#191970" points="321.2253,-664.2756 314.2445,-672.2455 324.6717,-670.3684 321.2253,-664.2756"/>
</g>
<!-- Node8 -->
<g id="node6" class="node">
<title>Node8</title>
<g id="a_node6"><a xlink:href="comp_8h.html" target="_top" xlink:title="ODP crypto. ">
<polygon fill="#ffffff" stroke="#000000" points="130.5,-560.5 130.5,-579.5 183.5,-579.5 183.5,-560.5 130.5,-560.5"/>
<text text-anchor="middle" x="157" y="-567.5" font-family="Helvetica,sans-Serif" font-size="10.00" fill="#000000">comp.h</text>
</a>
</g>
</g>
<!-- Node7&#45;&gt;Node8 -->
<g id="edge5" class="edge">
<title>Node7&#45;&gt;Node8</title>
<path fill="none" stroke="#191970" d="M157,-606.1575C157,-597.155 157,-586.9199 157,-579.6427"/>
<polygon fill="#191970" stroke="#191970" points="153.5001,-606.2455 157,-616.2455 160.5001,-606.2456 153.5001,-606.2455"/>
</g>
<!-- Node10 -->
<g id="node8" class="node">
<title>Node10</title>
<g id="a_node8"><a xlink:href="crypto_8h.html" target="_top" xlink:title="ODP crypto. ">
<polygon fill="#ffffff" stroke="#000000" points="0,-392.5 0,-411.5 56,-411.5 56,-392.5 0,-392.5"/>
<text text-anchor="middle" x="28" y="-399.5" font-family="Helvetica,sans-Serif" font-size="10.00" fill="#000000">crypto.h</text>
</a>
</g>
</g>
<!-- Node9&#45;&gt;Node10 -->
<g id="edge7" class="edge">
<title>Node9&#45;&gt;Node10</title>
<path fill="none" stroke="#191970" d="M101.4275,-496.5274C82.8168,-472.5688 50.0222,-430.3505 35.3988,-411.5249"/>
<polygon fill="#191970" stroke="#191970" points="98.6838,-498.7007 107.5824,-504.4509 104.2119,-494.4065 98.6838,-498.7007"/>
</g>
<!-- Node11 -->
<g id="node9" class="node">
<title>Node11</title>
<g id="a_node9"><a xlink:href="spec_2ipsec_8h.html" target="_top" xlink:title="ODP IPSEC API. ">
<polygon fill="#ffffff" stroke="#000000" points="89.5,-56.5 89.5,-75.5 140.5,-75.5 140.5,-56.5 89.5,-56.5"/>
<text text-anchor="middle" x="115" y="-63.5" font-family="Helvetica,sans-Serif" font-size="10.00" fill="#000000">ipsec.h</text>
</a>
</g>
</g>
<!-- Node10&#45;&gt;Node11 -->
<g id="edge8" class="edge">
<title>Node10&#45;&gt;Node11</title>
<path fill="none" stroke="#191970" d="M30.5523,-382.2338C33.2133,-359.8859 37,-322.3925 37,-290 37,-290 37,-290 37,-178 37,-132.9791 79.9657,-93.0918 102.1199,-75.5173"/>
<polygon fill="#191970" stroke="#191970" points="27.045,-382.0781 29.2895,-392.4324 33.9919,-382.9384 27.045,-382.0781"/>
</g>
<!-- Node12 -->
<g id="node10" class="node">
<title>Node12</title>
<g id="a_node10"><a xlink:href="ipsec_8h.html" target="_top" xlink:title="ODP IPSEC API &#45; platform specific header. ">
<polygon fill="#ffffff" stroke="#000000" points="89.5,-.5 89.5,-19.5 140.5,-19.5 140.5,-.5 89.5,-.5"/>
<text text-anchor="middle" x="115" y="-7.5" font-family="Helvetica,sans-Serif" font-size="10.00" fill="#000000">ipsec.h</text>
</a>
</g>
</g>
<!-- Node11&#45;&gt;Node12 -->
<g id="edge9" class="edge">
<title>Node11&#45;&gt;Node12</title>
<path fill="none" stroke="#191970" d="M115,-46.1575C115,-37.155 115,-26.9199 115,-19.6427"/>
<polygon fill="#191970" stroke="#191970" points="111.5001,-46.2455 115,-56.2455 118.5001,-46.2456 111.5001,-46.2455"/>
</g>
<!-- Node14 -->
<g id="node12" class="node">
<title>Node14</title>
<g id="a_node12"><a xlink:href="event_8h.html" target="_top" xlink:title="ODP event. ">
<polygon fill="#ffffff" stroke="#000000" points="240.5,-560.5 240.5,-579.5 293.5,-579.5 293.5,-560.5 240.5,-560.5"/>
<text text-anchor="middle" x="267" y="-567.5" font-family="Helvetica,sans-Serif" font-size="10.00" fill="#000000">event.h</text>
</a>
</g>
</g>
<!-- Node13&#45;&gt;Node14 -->
<g id="edge11" class="edge">
<title>Node13&#45;&gt;Node14</title>
<path fill="none" stroke="#191970" d="M268.2913,-606.1575C267.9698,-597.155 267.6043,-586.9199 267.3444,-579.6427"/>
<polygon fill="#191970" stroke="#191970" points="264.7968,-606.3769 268.6516,-616.2455 271.7924,-606.127 264.7968,-606.3769"/>
</g>
<!-- Node15 -->
<g id="node13" class="node">
<title>Node15</title>
<g id="a_node13"><a xlink:href="spec_2queue_8h.html" target="_top" xlink:title="ODP queue. ">
<polygon fill="#ffffff" stroke="#000000" points="168,-504.5 168,-523.5 224,-523.5 224,-504.5 168,-504.5"/>
<text text-anchor="middle" x="196" y="-511.5" font-family="Helvetica,sans-Serif" font-size="10.00" fill="#000000">queue.h</text>
</a>
</g>
</g>
<!-- Node14&#45;&gt;Node15 -->
<g id="edge12" class="edge">
<title>Node14&#45;&gt;Node15</title>
<path fill="none" stroke="#191970" d="M246.623,-553.928C234.2129,-544.1397 218.77,-531.9595 208.2255,-523.6427"/>
<polygon fill="#191970" stroke="#191970" points="244.6136,-556.8007 254.6327,-560.2455 248.9486,-551.3046 244.6136,-556.8007"/>
</g>
<!-- Node25 -->
<g id="node23" class="node">
<title>Node25</title>
<g id="a_node23"><a xlink:href="spec_2schedule_8h.html" target="_top" xlink:title="ODP schedule. ">
<polygon fill="#ffffff" stroke="#000000" points="232.5,-392.5 232.5,-411.5 301.5,-411.5 301.5,-392.5 232.5,-392.5"/>
<text text-anchor="middle" x="267" y="-399.5" font-family="Helvetica,sans-Serif" font-size="10.00" fill="#000000">schedule.h</text>
</a>
</g>
</g>
<!-- Node14&#45;&gt;Node25 -->
<g id="edge29" class="edge">
<title>Node14&#45;&gt;Node25</title>
<path fill="none" stroke="#191970" d="M267,-550.2601C267,-514.1669 267,-438.7656 267,-411.8279"/>
<polygon fill="#191970" stroke="#191970" points="263.5001,-550.4862 267,-560.4862 270.5001,-550.4863 263.5001,-550.4862"/>
</g>
<!-- Node16 -->
<g id="node14" class="node">
<title>Node16</title>
<g id="a_node14"><a xlink:href="queue_8h.html" target="_top" xlink:title="ODP queue. ">
<polygon fill="#ffffff" stroke="#000000" points="135,-448.5 135,-467.5 191,-467.5 191,-448.5 135,-448.5"/>
<text text-anchor="middle" x="163" y="-455.5" font-family="Helvetica,sans-Serif" font-size="10.00" fill="#000000">queue.h</text>
</a>
</g>
</g>
<!-- Node15&#45;&gt;Node16 -->
<g id="edge13" class="edge">
<title>Node15&#45;&gt;Node16</title>
<path fill="none" stroke="#191970" d="M185.1746,-495.6296C179.6701,-486.2887 173.2063,-475.3197 168.6823,-467.6427"/>
<polygon fill="#191970" stroke="#191970" points="182.1595,-497.4071 190.2518,-504.2455 188.1903,-493.8532 182.1595,-497.4071"/>
</g>
<!-- Node16&#45;&gt;Node10 -->
<g id="edge14" class="edge">
<title>Node16&#45;&gt;Node10</title>
<path fill="none" stroke="#191970" d="M130.5009,-444.5189C105.9146,-434.3201 72.7634,-420.5685 50.9045,-411.5011"/>
<polygon fill="#191970" stroke="#191970" points="129.2148,-447.7745 139.7927,-448.3733 131.8969,-441.3087 129.2148,-447.7745"/>
</g>
<!-- Node16&#45;&gt;Node17 -->
<g id="edge15" class="edge">
<title>Node16&#45;&gt;Node17</title>
<path fill="none" stroke="#191970" d="M133.4407,-443.1349C121.7062,-435.5543 109.4793,-425.1319 103,-412 88.0542,-381.7087 88.0542,-366.2913 103,-336 111.1309,-319.5207 128.313,-307.3083 142.2148,-299.6244"/>
<polygon fill="#191970" stroke="#191970" points="131.8348,-446.2525 142.2148,-448.3756 135.4244,-440.2428 131.8348,-446.2525"/>
</g>
<!-- Node23 -->
<g id="node21" class="node">
<title>Node23</title>
<g id="a_node21"><a xlink:href="spec_2packet__io__stats_8h.html" target="_top" xlink:title="ODP Packet IO statistics. ">
<polygon fill="#ffffff" stroke="#000000" points="112,-392.5 112,-411.5 214,-411.5 214,-392.5 112,-392.5"/>
<text text-anchor="middle" x="163" y="-399.5" font-family="Helvetica,sans-Serif" font-size="10.00" fill="#000000">packet_io_stats.h</text>
</a>
</g>
</g>
<!-- Node16&#45;&gt;Node23 -->
<g id="edge24" class="edge">
<title>Node16&#45;&gt;Node23</title>
<path fill="none" stroke="#191970" d="M163,-438.1575C163,-429.155 163,-418.9199 163,-411.6427"/>
<polygon fill="#191970" stroke="#191970" points="159.5001,-438.2455 163,-448.2455 166.5001,-438.2456 159.5001,-438.2455"/>
</g>
<!-- Node16&#45;&gt;Node25 -->
<g id="edge27" class="edge">
<title>Node16&#45;&gt;Node25</title>
<path fill="none" stroke="#191970" d="M190.0029,-443.46C208.6136,-433.4388 232.8299,-420.3993 249.0922,-411.6427"/>
<polygon fill="#191970" stroke="#191970" points="188.2608,-440.4228 181.1154,-448.2455 191.5795,-446.5861 188.2608,-440.4228"/>
</g>
<!-- Node18 -->
<g id="node16" class="node">
<title>Node18</title>
<g id="a_node16"><a xlink:href="packet__io_8h.html" target="_top" xlink:title="ODP Packet IO. ">
<polygon fill="#ffffff" stroke="#000000" points="122.5,-224.5 122.5,-243.5 195.5,-243.5 195.5,-224.5 122.5,-224.5"/>
<text text-anchor="middle" x="159" y="-231.5" font-family="Helvetica,sans-Serif" font-size="10.00" fill="#000000">packet_io.h</text>
</a>
</g>
</g>
<!-- Node17&#45;&gt;Node18 -->
<g id="edge16" class="edge">
<title>Node17&#45;&gt;Node18</title>
<path fill="none" stroke="#191970" d="M161.5827,-270.1575C160.9396,-261.155 160.2086,-250.9199 159.6888,-243.6427"/>
<polygon fill="#191970" stroke="#191970" points="158.0996,-270.5204 162.3033,-280.2455 165.0818,-270.0216 158.0996,-270.5204"/>
</g>
<!-- Node18&#45;&gt;Node11 -->
<g id="edge20" class="edge">
<title>Node18&#45;&gt;Node11</title>
<path fill="none" stroke="#191970" d="M128.9605,-219.2419C117.0327,-211.6808 104.6003,-201.244 98,-188 79.018,-149.9114 99.8195,-97.3185 110.0238,-75.7866"/>
<polygon fill="#191970" stroke="#191970" points="127.4801,-222.4309 137.8784,-224.4622 131.0165,-216.3898 127.4801,-222.4309"/>
</g>
<!-- Node19 -->
<g id="node17" class="node">
<title>Node19</title>
<g id="a_node17"><a xlink:href="spec_2classification_8h.html" target="_top" xlink:title="ODP classification descriptor. ">
<polygon fill="#ffffff" stroke="#000000" points="107.5,-168.5 107.5,-187.5 196.5,-187.5 196.5,-168.5 107.5,-168.5"/>
<text text-anchor="middle" x="152" y="-175.5" font-family="Helvetica,sans-Serif" font-size="10.00" fill="#000000">classification.h</text>
</a>
</g>
</g>
<!-- Node18&#45;&gt;Node19 -->
<g id="edge17" class="edge">
<title>Node18&#45;&gt;Node19</title>
<path fill="none" stroke="#191970" d="M156.5197,-214.1575C155.3944,-205.155 154.115,-194.9199 153.2053,-187.6427"/>
<polygon fill="#191970" stroke="#191970" points="153.0673,-214.7569 157.7807,-224.2455 160.0132,-213.8886 153.0673,-214.7569"/>
</g>
<!-- Node21 -->
<g id="node19" class="node">
<title>Node21</title>
<g id="a_node19"><a xlink:href="spec_2traffic__mngr_8h.html" target="_top" xlink:title="Copyright (c) 2015&#45;2018, Linaro Limited All rights reserved. ">
<polygon fill="#ffffff" stroke="#000000" points="214,-168.5 214,-187.5 298,-187.5 298,-168.5 214,-168.5"/>
<text text-anchor="middle" x="256" y="-175.5" font-family="Helvetica,sans-Serif" font-size="10.00" fill="#000000">traffic_mngr.h</text>
</a>
</g>
</g>
<!-- Node18&#45;&gt;Node21 -->
<g id="edge21" class="edge">
<title>Node18&#45;&gt;Node21</title>
<path fill="none" stroke="#191970" d="M184.9016,-219.0465C202.1609,-209.0824 224.3376,-196.2794 239.2975,-187.6427"/>
<polygon fill="#191970" stroke="#191970" points="182.8065,-216.2146 175.8961,-224.2455 186.3064,-222.2768 182.8065,-216.2146"/>
</g>
<!-- Node20 -->
<g id="node18" class="node">
<title>Node20</title>
<g id="a_node18"><a xlink:href="classification_8h.html" target="_top" xlink:title="ODP classification descriptor. ">
<polygon fill="#ffffff" stroke="#000000" points="107.5,-112.5 107.5,-131.5 196.5,-131.5 196.5,-112.5 107.5,-112.5"/>
<text text-anchor="middle" x="152" y="-119.5" font-family="Helvetica,sans-Serif" font-size="10.00" fill="#000000">classification.h</text>
</a>
</g>
</g>
<!-- Node19&#45;&gt;Node20 -->
<g id="edge18" class="edge">
<title>Node19&#45;&gt;Node20</title>
<path fill="none" stroke="#191970" d="M152,-158.1575C152,-149.155 152,-138.9199 152,-131.6427"/>
<polygon fill="#191970" stroke="#191970" points="148.5001,-158.2455 152,-168.2455 155.5001,-158.2456 148.5001,-158.2455"/>
</g>
<!-- Node20&#45;&gt;Node11 -->
<g id="edge19" class="edge">
<title>Node20&#45;&gt;Node11</title>
<path fill="none" stroke="#191970" d="M139.8624,-103.6296C133.6907,-94.2887 126.4434,-83.3197 121.3711,-75.6427"/>
<polygon fill="#191970" stroke="#191970" points="137.1223,-105.8316 145.5551,-112.2455 142.9627,-101.9728 137.1223,-105.8316"/>
</g>
<!-- Node22 -->
<g id="node20" class="node">
<title>Node22</title>
<g id="a_node20"><a xlink:href="traffic__mngr_8h.html" target="_top" xlink:title="ODP Traffic manager. ">
<polygon fill="#ffffff" stroke="#000000" points="214,-112.5 214,-131.5 298,-131.5 298,-112.5 214,-112.5"/>
<text text-anchor="middle" x="256" y="-119.5" font-family="Helvetica,sans-Serif" font-size="10.00" fill="#000000">traffic_mngr.h</text>
</a>
</g>
</g>
<!-- Node21&#45;&gt;Node22 -->
<g id="edge22" class="edge">
<title>Node21&#45;&gt;Node22</title>
<path fill="none" stroke="#191970" d="M256,-158.1575C256,-149.155 256,-138.9199 256,-131.6427"/>
<polygon fill="#191970" stroke="#191970" points="252.5001,-158.2455 256,-168.2455 259.5001,-158.2456 252.5001,-158.2455"/>
</g>
<!-- Node22&#45;&gt;Node11 -->
<g id="edge23" class="edge">
<title>Node22&#45;&gt;Node11</title>
<path fill="none" stroke="#191970" d="M222.3968,-108.6541C196.6841,-98.4419 161.8539,-84.6086 138.9225,-75.5011"/>
<polygon fill="#191970" stroke="#191970" points="221.1755,-111.9349 231.7612,-112.3733 223.7593,-105.4292 221.1755,-111.9349"/>
</g>
<!-- Node24 -->
<g id="node22" class="node">
<title>Node24</title>
<g id="a_node22"><a xlink:href="packet__io__stats_8h.html" target="_top" xlink:title="ODP packet IO stats. ">
<polygon fill="#ffffff" stroke="#000000" points="112,-336.5 112,-355.5 214,-355.5 214,-336.5 112,-336.5"/>
<text text-anchor="middle" x="163" y="-343.5" font-family="Helvetica,sans-Serif" font-size="10.00" fill="#000000">packet_io_stats.h</text>
</a>
</g>
</g>
<!-- Node23&#45;&gt;Node24 -->
<g id="edge25" class="edge">
<title>Node23&#45;&gt;Node24</title>
<path fill="none" stroke="#191970" d="M163,-382.1575C163,-373.155 163,-362.9199 163,-355.6427"/>
<polygon fill="#191970" stroke="#191970" points="159.5001,-382.2455 163,-392.2455 166.5001,-382.2456 159.5001,-382.2455"/>
</g>
<!-- Node24&#45;&gt;Node17 -->
<g id="edge26" class="edge">
<title>Node24&#45;&gt;Node17</title>
<path fill="none" stroke="#191970" d="M163,-326.1575C163,-317.155 163,-306.9199 163,-299.6427"/>
<polygon fill="#191970" stroke="#191970" points="159.5001,-326.2455 163,-336.2455 166.5001,-326.2456 159.5001,-326.2455"/>
</g>
<!-- Node26 -->
<g id="node24" class="node">
<title>Node26</title>
<g id="a_node24"><a xlink:href="schedule_8h.html" target="_top" xlink:title="ODP schedule. ">
<polygon fill="#ffffff" stroke="#000000" points="232.5,-336.5 232.5,-355.5 301.5,-355.5 301.5,-336.5 232.5,-336.5"/>
<text text-anchor="middle" x="267" y="-343.5" font-family="Helvetica,sans-Serif" font-size="10.00" fill="#000000">schedule.h</text>
</a>
</g>
</g>
<!-- Node25&#45;&gt;Node26 -->
<g id="edge28" class="edge">
<title>Node25&#45;&gt;Node26</title>
<path fill="none" stroke="#191970" d="M267,-382.1575C267,-373.155 267,-362.9199 267,-355.6427"/>
<polygon fill="#191970" stroke="#191970" points="263.5001,-382.2455 267,-392.2455 270.5001,-382.2456 263.5001,-382.2455"/>
</g>
<!-- Node28 -->
<g id="node26" class="node">
<title>Node28</title>
<g id="a_node26"><a xlink:href="packet__flags_8h.html" target="_top" xlink:title="ODP packet flags. ">
<polygon fill="#ffffff" stroke="#000000" points="352.5,-560.5 352.5,-579.5 439.5,-579.5 439.5,-560.5 352.5,-560.5"/>
<text text-anchor="middle" x="396" y="-567.5" font-family="Helvetica,sans-Serif" font-size="10.00" fill="#000000">packet_flags.h</text>
</a>
</g>
</g>
<!-- Node27&#45;&gt;Node28 -->
<g id="edge31" class="edge">
<title>Node27&#45;&gt;Node28</title>
<path fill="none" stroke="#191970" d="M396,-606.1575C396,-597.155 396,-586.9199 396,-579.6427"/>
<polygon fill="#191970" stroke="#191970" points="392.5001,-606.2455 396,-616.2455 399.5001,-606.2456 392.5001,-606.2455"/>
</g>
</g>
</svg>
