<?xml version="1.0" encoding="UTF-8" standalone="no"?>
<!DOCTYPE svg PUBLIC "-//W3C//DTD SVG 1.1//EN"
 "http://www.w3.org/Graphics/SVG/1.1/DTD/svg11.dtd">
<!-- Generated by graphviz version 2.40.1 (20161225.0304)
 -->
<!-- Title: deprecated.h Pages: 1 -->
<svg width="442pt" height="700pt"
 viewBox="0.00 0.00 441.50 700.00" xmlns="http://www.w3.org/2000/svg" xmlns:xlink="http://www.w3.org/1999/xlink">
<g id="graph0" class="graph" transform="scale(1 1) rotate(0) translate(4 696)">
<title>deprecated.h</title>
<polygon fill="#ffffff" stroke="transparent" points="-4,4 -4,-696 437.5,-696 437.5,4 -4,4"/>
<!-- Node3 -->
<g id="node1" class="node">
<title>Node3</title>
<polygon fill="#bfbfbf" stroke="#000000" points="115.5,-672.5 115.5,-691.5 195.5,-691.5 195.5,-672.5 115.5,-672.5"/>
<text text-anchor="middle" x="155.5" y="-679.5" font-family="Helvetica,sans-Serif" font-size="10.00" fill="#000000">deprecated.h</text>
</g>
<!-- Node4 -->
<g id="node2" class="node">
<title>Node4</title>
<g id="a_node2"><a xlink:href="deprecated_8h.html" target="_top" xlink:title="Control deprecated API definitions. ">
<polygon fill="#ffffff" stroke="#000000" points="115.5,-616.5 115.5,-635.5 195.5,-635.5 195.5,-616.5 115.5,-616.5"/>
<text text-anchor="middle" x="155.5" y="-623.5" font-family="Helvetica,sans-Serif" font-size="10.00" fill="#000000">deprecated.h</text>
</a>
</g>
</g>
<!-- Node3&#45;&gt;Node4 -->
<g id="edge1" class="edge">
<title>Node3&#45;&gt;Node4</title>
<path fill="none" stroke="#191970" d="M155.5,-662.1575C155.5,-653.155 155.5,-642.9199 155.5,-635.6427"/>
<polygon fill="#191970" stroke="#191970" points="152.0001,-662.2455 155.5,-672.2455 159.0001,-662.2456 152.0001,-662.2455"/>
</g>
<!-- Node5 -->
<g id="node3" class="node">
<title>Node5</title>
<g id="a_node3"><a xlink:href="abi-default_2classification_8h_source.html" target="_top" xlink:title="classification.h">
<polygon fill="#ffffff" stroke="#000000" points="0,-560.5 0,-579.5 89,-579.5 89,-560.5 0,-560.5"/>
<text text-anchor="middle" x="44.5" y="-567.5" font-family="Helvetica,sans-Serif" font-size="10.00" fill="#000000">classification.h</text>
</a>
</g>
</g>
<!-- Node4&#45;&gt;Node5 -->
<g id="edge2" class="edge">
<title>Node4&#45;&gt;Node5</title>
<path fill="none" stroke="#191970" d="M127.4266,-611.8368C107.3615,-601.7139 80.9078,-588.3679 63.3326,-579.5011"/>
<polygon fill="#191970" stroke="#191970" points="125.9138,-614.9938 136.4184,-616.3733 129.0668,-608.7441 125.9138,-614.9938"/>
</g>
<!-- Node6 -->
<g id="node4" class="node">
<title>Node6</title>
<g id="a_node4"><a xlink:href="spec_2crypto_8h.html" target="_top" xlink:title="ODP crypto. ">
<polygon fill="#ffffff" stroke="#000000" points="71.5,-504.5 71.5,-523.5 127.5,-523.5 127.5,-504.5 71.5,-504.5"/>
<text text-anchor="middle" x="99.5" y="-511.5" font-family="Helvetica,sans-Serif" font-size="10.00" fill="#000000">crypto.h</text>
</a>
</g>
</g>
<!-- Node4&#45;&gt;Node6 -->
<g id="edge3" class="edge">
<title>Node4&#45;&gt;Node6</title>
<path fill="none" stroke="#191970" d="M146.1249,-607.2498C134.0473,-583.0946 113.5101,-542.0202 104.2624,-523.5249"/>
<polygon fill="#191970" stroke="#191970" points="143.1228,-609.0719 150.7255,-616.4509 149.3838,-605.9414 143.1228,-609.0719"/>
</g>
<!-- Node10 -->
<g id="node8" class="node">
<title>Node10</title>
<g id="a_node8"><a xlink:href="spec_2packet__io_8h.html" target="_top" xlink:title="ODP Packet IO. ">
<polygon fill="#ffffff" stroke="#000000" points="252,-280.5 252,-299.5 325,-299.5 325,-280.5 252,-280.5"/>
<text text-anchor="middle" x="288.5" y="-287.5" font-family="Helvetica,sans-Serif" font-size="10.00" fill="#000000">packet_io.h</text>
</a>
</g>
</g>
<!-- Node4&#45;&gt;Node10 -->
<g id="edge7" class="edge">
<title>Node4&#45;&gt;Node10</title>
<path fill="none" stroke="#191970" d="M155.5,-606.1952C155.5,-583.8128 155.5,-546.2884 155.5,-514 155.5,-514 155.5,-514 155.5,-402 155.5,-347.8146 220.8884,-314.5518 259.9682,-299.5108"/>
<polygon fill="#191970" stroke="#191970" points="152.0001,-606.4116 155.5,-616.4116 159.0001,-606.4117 152.0001,-606.4116"/>
</g>
<!-- Node16 -->
<g id="node14" class="node">
<title>Node16</title>
<g id="a_node14"><a xlink:href="spec_2packet__io__stats_8h.html" target="_top" xlink:title="ODP Packet IO statistics. ">
<polygon fill="#ffffff" stroke="#000000" points="331.5,-392.5 331.5,-411.5 433.5,-411.5 433.5,-392.5 331.5,-392.5"/>
<text text-anchor="middle" x="382.5" y="-399.5" font-family="Helvetica,sans-Serif" font-size="10.00" fill="#000000">packet_io_stats.h</text>
</a>
</g>
</g>
<!-- Node4&#45;&gt;Node16 -->
<g id="edge16" class="edge">
<title>Node4&#45;&gt;Node16</title>
<path fill="none" stroke="#191970" d="M205.9009,-620.9575C262.383,-612.2023 350.7232,-588.3982 386.5,-524 407.0834,-486.9498 393.0638,-433.3277 385.9453,-411.6409"/>
<polygon fill="#191970" stroke="#191970" points="205.1424,-617.5307 195.7451,-622.4236 206.1426,-624.4589 205.1424,-617.5307"/>
</g>
<!-- Node18 -->
<g id="node16" class="node">
<title>Node18</title>
<g id="a_node16"><a xlink:href="queue__types_8h.html" target="_top" xlink:title="ODP queue types. ">
<polygon fill="#ffffff" stroke="#000000" points="199.5,-560.5 199.5,-579.5 287.5,-579.5 287.5,-560.5 199.5,-560.5"/>
<text text-anchor="middle" x="243.5" y="-567.5" font-family="Helvetica,sans-Serif" font-size="10.00" fill="#000000">queue_types.h</text>
</a>
</g>
</g>
<!-- Node4&#45;&gt;Node18 -->
<g id="edge19" class="edge">
<title>Node4&#45;&gt;Node18</title>
<path fill="none" stroke="#191970" d="M179.4345,-610.769C195.0283,-600.8456 214.901,-588.1994 228.3472,-579.6427"/>
<polygon fill="#191970" stroke="#191970" points="177.386,-607.9239 170.8284,-616.2455 181.1441,-613.8296 177.386,-607.9239"/>
</g>
<!-- Node7 -->
<g id="node5" class="node">
<title>Node7</title>
<g id="a_node5"><a xlink:href="crypto_8h.html" target="_top" xlink:title="ODP crypto. ">
<polygon fill="#ffffff" stroke="#000000" points="71.5,-392.5 71.5,-411.5 127.5,-411.5 127.5,-392.5 71.5,-392.5"/>
<text text-anchor="middle" x="99.5" y="-399.5" font-family="Helvetica,sans-Serif" font-size="10.00" fill="#000000">crypto.h</text>
</a>
</g>
</g>
<!-- Node6&#45;&gt;Node7 -->
<g id="edge4" class="edge">
<title>Node6&#45;&gt;Node7</title>
<path fill="none" stroke="#191970" d="M99.5,-494.2702C99.5,-469.9985 99.5,-429.7725 99.5,-411.5249"/>
<polygon fill="#191970" stroke="#191970" points="96.0001,-494.4509 99.5,-504.4509 103.0001,-494.451 96.0001,-494.4509"/>
</g>
<!-- Node8 -->
<g id="node6" class="node">
<title>Node8</title>
<g id="a_node6"><a xlink:href="spec_2ipsec_8h.html" target="_top" xlink:title="ODP IPSEC API. ">
<polygon fill="#ffffff" stroke="#000000" points="183,-56.5 183,-75.5 234,-75.5 234,-56.5 183,-56.5"/>
<text text-anchor="middle" x="208.5" y="-63.5" font-family="Helvetica,sans-Serif" font-size="10.00" fill="#000000">ipsec.h</text>
</a>
</g>
</g>
<!-- Node7&#45;&gt;Node8 -->
<g id="edge5" class="edge">
<title>Node7&#45;&gt;Node8</title>
<path fill="none" stroke="#191970" d="M102.0523,-382.2338C104.7133,-359.8859 108.5,-322.3925 108.5,-290 108.5,-290 108.5,-290 108.5,-178 108.5,-129.5152 161.2893,-92.3608 190.1585,-75.6672"/>
<polygon fill="#191970" stroke="#191970" points="98.545,-382.0781 100.7895,-392.4324 105.4919,-382.9384 98.545,-382.0781"/>
</g>
<!-- Node9 -->
<g id="node7" class="node">
<title>Node9</title>
<g id="a_node7"><a xlink:href="ipsec_8h.html" target="_top" xlink:title="ODP IPSEC API &#45; platform specific header. ">
<polygon fill="#ffffff" stroke="#000000" points="183,-.5 183,-19.5 234,-19.5 234,-.5 183,-.5"/>
<text text-anchor="middle" x="208.5" y="-7.5" font-family="Helvetica,sans-Serif" font-size="10.00" fill="#000000">ipsec.h</text>
</a>
</g>
</g>
<!-- Node8&#45;&gt;Node9 -->
<g id="edge6" class="edge">
<title>Node8&#45;&gt;Node9</title>
<path fill="none" stroke="#191970" d="M208.5,-46.1575C208.5,-37.155 208.5,-26.9199 208.5,-19.6427"/>
<polygon fill="#191970" stroke="#191970" points="205.0001,-46.2455 208.5,-56.2455 212.0001,-46.2456 205.0001,-46.2455"/>
</g>
<!-- Node11 -->
<g id="node9" class="node">
<title>Node11</title>
<g id="a_node9"><a xlink:href="packet__io_8h.html" target="_top" xlink:title="ODP Packet IO. ">
<polygon fill="#ffffff" stroke="#000000" points="238,-224.5 238,-243.5 311,-243.5 311,-224.5 238,-224.5"/>
<text text-anchor="middle" x="274.5" y="-231.5" font-family="Helvetica,sans-Serif" font-size="10.00" fill="#000000">packet_io.h</text>
</a>
</g>
</g>
<!-- Node10&#45;&gt;Node11 -->
<g id="edge8" class="edge">
<title>Node10&#45;&gt;Node11</title>
<path fill="none" stroke="#191970" d="M283.6135,-270.4538C281.3451,-261.3803 278.75,-250.9998 276.9107,-243.6427"/>
<polygon fill="#191970" stroke="#191970" points="280.2405,-271.393 286.0614,-280.2455 287.0315,-269.6952 280.2405,-271.393"/>
</g>
<!-- Node11&#45;&gt;Node8 -->
<g id="edge12" class="edge">
<title>Node11&#45;&gt;Node8</title>
<path fill="none" stroke="#191970" d="M231.6825,-220.3392C216.5626,-213.2198 201.1755,-202.814 192.5,-188 170.9097,-151.1329 192.8199,-97.4077 203.4387,-75.6671"/>
<polygon fill="#191970" stroke="#191970" points="230.4313,-223.6112 240.9998,-224.3574 233.2033,-217.1834 230.4313,-223.6112"/>
</g>
<!-- Node12 -->
<g id="node10" class="node">
<title>Node12</title>
<g id="a_node10"><a xlink:href="spec_2classification_8h.html" target="_top" xlink:title="ODP classification descriptor. ">
<polygon fill="#ffffff" stroke="#000000" points="201,-168.5 201,-187.5 290,-187.5 290,-168.5 201,-168.5"/>
<text text-anchor="middle" x="245.5" y="-175.5" font-family="Helvetica,sans-Serif" font-size="10.00" fill="#000000">classification.h</text>
</a>
</g>
</g>
<!-- Node11&#45;&gt;Node12 -->
<g id="edge9" class="edge">
<title>Node11&#45;&gt;Node12</title>
<path fill="none" stroke="#191970" d="M264.8353,-215.3372C260.0313,-206.0605 254.4277,-195.2398 250.4935,-187.6427"/>
<polygon fill="#191970" stroke="#191970" points="261.742,-216.9751 269.4486,-224.2455 267.958,-213.7561 261.742,-216.9751"/>
</g>
<!-- Node14 -->
<g id="node12" class="node">
<title>Node14</title>
<g id="a_node12"><a xlink:href="spec_2traffic__mngr_8h.html" target="_top" xlink:title="Copyright (c) 2015&#45;2018, Linaro Limited All rights reserved. ">
<polygon fill="#ffffff" stroke="#000000" points="307.5,-168.5 307.5,-187.5 391.5,-187.5 391.5,-168.5 307.5,-168.5"/>
<text text-anchor="middle" x="349.5" y="-175.5" font-family="Helvetica,sans-Serif" font-size="10.00" fill="#000000">traffic_mngr.h</text>
</a>
</g>
</g>
<!-- Node11&#45;&gt;Node14 -->
<g id="edge13" class="edge">
<title>Node11&#45;&gt;Node14</title>
<path fill="none" stroke="#191970" d="M295.6477,-218.2097C308.8201,-208.3743 325.34,-196.0394 336.5857,-187.6427"/>
<polygon fill="#191970" stroke="#191970" points="293.4828,-215.4581 287.564,-224.2455 297.6709,-221.0671 293.4828,-215.4581"/>
</g>
<!-- Node13 -->
<g id="node11" class="node">
<title>Node13</title>
<g id="a_node11"><a xlink:href="classification_8h.html" target="_top" xlink:title="ODP classification descriptor. ">
<polygon fill="#ffffff" stroke="#000000" points="201,-112.5 201,-131.5 290,-131.5 290,-112.5 201,-112.5"/>
<text text-anchor="middle" x="245.5" y="-119.5" font-family="Helvetica,sans-Serif" font-size="10.00" fill="#000000">classification.h</text>
</a>
</g>
</g>
<!-- Node12&#45;&gt;Node13 -->
<g id="edge10" class="edge">
<title>Node12&#45;&gt;Node13</title>
<path fill="none" stroke="#191970" d="M245.5,-158.1575C245.5,-149.155 245.5,-138.9199 245.5,-131.6427"/>
<polygon fill="#191970" stroke="#191970" points="242.0001,-158.2455 245.5,-168.2455 249.0001,-158.2456 242.0001,-158.2455"/>
</g>
<!-- Node13&#45;&gt;Node8 -->
<g id="edge11" class="edge">
<title>Node13&#45;&gt;Node8</title>
<path fill="none" stroke="#191970" d="M233.3624,-103.6296C227.1907,-94.2887 219.9434,-83.3197 214.8711,-75.6427"/>
<polygon fill="#191970" stroke="#191970" points="230.6223,-105.8316 239.0551,-112.2455 236.4627,-101.9728 230.6223,-105.8316"/>
</g>
<!-- Node15 -->
<g id="node13" class="node">
<title>Node15</title>
<g id="a_node13"><a xlink:href="traffic__mngr_8h.html" target="_top" xlink:title="ODP Traffic manager. ">
<polygon fill="#ffffff" stroke="#000000" points="307.5,-112.5 307.5,-131.5 391.5,-131.5 391.5,-112.5 307.5,-112.5"/>
<text text-anchor="middle" x="349.5" y="-119.5" font-family="Helvetica,sans-Serif" font-size="10.00" fill="#000000">traffic_mngr.h</text>
</a>
</g>
</g>
<!-- Node14&#45;&gt;Node15 -->
<g id="edge14" class="edge">
<title>Node14&#45;&gt;Node15</title>
<path fill="none" stroke="#191970" d="M349.5,-158.1575C349.5,-149.155 349.5,-138.9199 349.5,-131.6427"/>
<polygon fill="#191970" stroke="#191970" points="346.0001,-158.2455 349.5,-168.2455 353.0001,-158.2456 346.0001,-158.2455"/>
</g>
<!-- Node15&#45;&gt;Node8 -->
<g id="edge15" class="edge">
<title>Node15&#45;&gt;Node8</title>
<path fill="none" stroke="#191970" d="M315.8968,-108.6541C290.1841,-98.4419 255.3539,-84.6086 232.4225,-75.5011"/>
<polygon fill="#191970" stroke="#191970" points="314.6755,-111.9349 325.2612,-112.3733 317.2593,-105.4292 314.6755,-111.9349"/>
</g>
<!-- Node17 -->
<g id="node15" class="node">
<title>Node17</title>
<g id="a_node15"><a xlink:href="packet__io__stats_8h.html" target="_top" xlink:title="ODP packet IO stats. ">
<polygon fill="#ffffff" stroke="#000000" points="331.5,-336.5 331.5,-355.5 433.5,-355.5 433.5,-336.5 331.5,-336.5"/>
<text text-anchor="middle" x="382.5" y="-343.5" font-family="Helvetica,sans-Serif" font-size="10.00" fill="#000000">packet_io_stats.h</text>
</a>
</g>
</g>
<!-- Node16&#45;&gt;Node17 -->
<g id="edge17" class="edge">
<title>Node16&#45;&gt;Node17</title>
<path fill="none" stroke="#191970" d="M382.5,-382.1575C382.5,-373.155 382.5,-362.9199 382.5,-355.6427"/>
<polygon fill="#191970" stroke="#191970" points="379.0001,-382.2455 382.5,-392.2455 386.0001,-382.2456 379.0001,-382.2455"/>
</g>
<!-- Node17&#45;&gt;Node10 -->
<g id="edge18" class="edge">
<title>Node17&#45;&gt;Node10</title>
<path fill="none" stroke="#191970" d="M357.3995,-331.0465C340.674,-321.0824 319.1832,-308.2794 304.6859,-299.6427"/>
<polygon fill="#191970" stroke="#191970" points="355.7441,-334.1343 366.1264,-336.2455 359.3268,-328.1206 355.7441,-334.1343"/>
</g>
<!-- Node19 -->
<g id="node17" class="node">
<title>Node19</title>
<g id="a_node17"><a xlink:href="spec_2queue_8h.html" target="_top" xlink:title="ODP queue. ">
<polygon fill="#ffffff" stroke="#000000" points="321.5,-504.5 321.5,-523.5 377.5,-523.5 377.5,-504.5 321.5,-504.5"/>
<text text-anchor="middle" x="349.5" y="-511.5" font-family="Helvetica,sans-Serif" font-size="10.00" fill="#000000">queue.h</text>
</a>
</g>
</g>
<!-- Node18&#45;&gt;Node19 -->
<g id="edge20" class="edge">
<title>Node18&#45;&gt;Node19</title>
<path fill="none" stroke="#191970" d="M271.0222,-555.46C289.9908,-545.4388 314.6727,-532.3993 331.2478,-523.6427"/>
<polygon fill="#191970" stroke="#191970" points="269.1708,-552.4796 261.9638,-560.2455 272.4407,-558.669 269.1708,-552.4796"/>
</g>
<!-- Node23 -->
<g id="node21" class="node">
<title>Node23</title>
<g id="a_node21"><a xlink:href="queue__inline__types_8h_source.html" target="_top" xlink:title="queue_inline_types.h">
<polygon fill="#ffffff" stroke="#000000" points="183.5,-504.5 183.5,-523.5 303.5,-523.5 303.5,-504.5 183.5,-504.5"/>
<text text-anchor="middle" x="243.5" y="-511.5" font-family="Helvetica,sans-Serif" font-size="10.00" fill="#000000">queue_inline_types.h</text>
</a>
</g>
</g>
<!-- Node18&#45;&gt;Node23 -->
<g id="edge27" class="edge">
<title>Node18&#45;&gt;Node23</title>
<path fill="none" stroke="#191970" d="M243.5,-550.1575C243.5,-541.155 243.5,-530.9199 243.5,-523.6427"/>
<polygon fill="#191970" stroke="#191970" points="240.0001,-550.2455 243.5,-560.2455 247.0001,-550.2456 240.0001,-550.2455"/>
</g>
<!-- Node20 -->
<g id="node18" class="node">
<title>Node20</title>
<g id="a_node18"><a xlink:href="queue_8h.html" target="_top" xlink:title="ODP queue. ">
<polygon fill="#ffffff" stroke="#000000" points="302.5,-448.5 302.5,-467.5 358.5,-467.5 358.5,-448.5 302.5,-448.5"/>
<text text-anchor="middle" x="330.5" y="-455.5" font-family="Helvetica,sans-Serif" font-size="10.00" fill="#000000">queue.h</text>
</a>
</g>
</g>
<!-- Node19&#45;&gt;Node20 -->
<g id="edge21" class="edge">
<title>Node19&#45;&gt;Node20</title>
<path fill="none" stroke="#191970" d="M342.9685,-494.7493C339.8664,-485.6064 336.2949,-475.0798 333.7716,-467.6427"/>
<polygon fill="#191970" stroke="#191970" points="339.663,-495.9003 346.1905,-504.2455 346.2918,-493.6512 339.663,-495.9003"/>
</g>
<!-- Node20&#45;&gt;Node7 -->
<g id="edge22" class="edge">
<title>Node20&#45;&gt;Node7</title>
<path fill="none" stroke="#191970" d="M292.7982,-448.0748C292.6987,-448.0498 292.5993,-448.0249 292.5,-448 234.03,-433.3408 165.3105,-417.2276 127.6775,-408.4986"/>
<polygon fill="#191970" stroke="#191970" points="291.7421,-451.4174 302.2972,-450.4999 293.4738,-444.6349 291.7421,-451.4174"/>
</g>
<!-- Node20&#45;&gt;Node10 -->
<g id="edge23" class="edge">
<title>Node20&#45;&gt;Node10</title>
<path fill="none" stroke="#191970" d="M325.6817,-438.7267C316.7052,-402.8207 297.7205,-326.8822 290.957,-299.8279"/>
<polygon fill="#191970" stroke="#191970" points="322.3006,-439.6337 328.1216,-448.4862 329.0916,-437.9359 322.3006,-439.6337"/>
</g>
<!-- Node20&#45;&gt;Node16 -->
<g id="edge24" class="edge">
<title>Node20&#45;&gt;Node16</title>
<path fill="none" stroke="#191970" d="M346.4822,-440.7884C355.3778,-431.2085 366.1204,-419.6396 373.5461,-411.6427"/>
<polygon fill="#191970" stroke="#191970" points="343.7975,-438.536 339.5577,-448.2455 348.927,-443.2992 343.7975,-438.536"/>
</g>
<!-- Node21 -->
<g id="node19" class="node">
<title>Node21</title>
<g id="a_node19"><a xlink:href="spec_2schedule_8h.html" target="_top" xlink:title="ODP schedule. ">
<polygon fill="#ffffff" stroke="#000000" points="206,-392.5 206,-411.5 275,-411.5 275,-392.5 206,-392.5"/>
<text text-anchor="middle" x="240.5" y="-399.5" font-family="Helvetica,sans-Serif" font-size="10.00" fill="#000000">schedule.h</text>
</a>
</g>
</g>
<!-- Node20&#45;&gt;Node21 -->
<g id="edge25" class="edge">
<title>Node20&#45;&gt;Node21</title>
<path fill="none" stroke="#191970" d="M306.0216,-442.769C290.0734,-432.8456 269.749,-420.1994 255.9972,-411.6427"/>
<polygon fill="#191970" stroke="#191970" points="304.4835,-445.9342 314.8232,-448.2455 308.1817,-439.9908 304.4835,-445.9342"/>
</g>
<!-- Node22 -->
<g id="node20" class="node">
<title>Node22</title>
<g id="a_node20"><a xlink:href="schedule_8h.html" target="_top" xlink:title="ODP schedule. ">
<polygon fill="#ffffff" stroke="#000000" points="206,-336.5 206,-355.5 275,-355.5 275,-336.5 206,-336.5"/>
<text text-anchor="middle" x="240.5" y="-343.5" font-family="Helvetica,sans-Serif" font-size="10.00" fill="#000000">schedule.h</text>
</a>
</g>
</g>
<!-- Node21&#45;&gt;Node22 -->
<g id="edge26" class="edge">
<title>Node21&#45;&gt;Node22</title>
<path fill="none" stroke="#191970" d="M240.5,-382.1575C240.5,-373.155 240.5,-362.9199 240.5,-355.6427"/>
<polygon fill="#191970" stroke="#191970" points="237.0001,-382.2455 240.5,-392.2455 244.0001,-382.2456 237.0001,-382.2455"/>
</g>
<!-- Node24 -->
<g id="node22" class="node">
<title>Node24</title>
<g id="a_node22"><a xlink:href="queue__inlines_8h_source.html" target="_top" xlink:title="queue_inlines.h">
<polygon fill="#ffffff" stroke="#000000" points="191,-448.5 191,-467.5 284,-467.5 284,-448.5 191,-448.5"/>
<text text-anchor="middle" x="237.5" y="-455.5" font-family="Helvetica,sans-Serif" font-size="10.00" fill="#000000">queue_inlines.h</text>
</a>
</g>
</g>
<!-- Node23&#45;&gt;Node24 -->
<g id="edge28" class="edge">
<title>Node23&#45;&gt;Node24</title>
<path fill="none" stroke="#191970" d="M241.374,-494.1575C240.4095,-485.155 239.3128,-474.9199 238.5331,-467.6427"/>
<polygon fill="#191970" stroke="#191970" points="237.9094,-494.6753 242.4549,-504.2455 244.8695,-493.9296 237.9094,-494.6753"/>
</g>
</g>
</svg>
