<?xml version="1.0" encoding="UTF-8" standalone="no"?>
<!DOCTYPE svg PUBLIC "-//W3C//DTD SVG 1.1//EN"
 "http://www.w3.org/Graphics/SVG/1.1/DTD/svg11.dtd">
<!-- Generated by graphviz version 2.40.1 (20161225.0304)
 -->
<!-- Title: align.h Pages: 1 -->
<svg width="2514pt" height="532pt"
 viewBox="0.00 0.00 2514.00 532.00" xmlns="http://www.w3.org/2000/svg" xmlns:xlink="http://www.w3.org/1999/xlink">
<g id="graph0" class="graph" transform="scale(1 1) rotate(0) translate(4 528)">
<title>align.h</title>
<polygon fill="#ffffff" stroke="transparent" points="-4,4 -4,-528 2510,-528 2510,4 -4,4"/>
<!-- Node3 -->
<g id="node1" class="node">
<title>Node3</title>
<polygon fill="#bfbfbf" stroke="#000000" points="119.5,-504.5 119.5,-523.5 169.5,-523.5 169.5,-504.5 119.5,-504.5"/>
<text text-anchor="middle" x="144.5" y="-511.5" font-family="Helvetica,sans-Serif" font-size="10.00" fill="#000000">align.h</text>
</g>
<!-- Node4 -->
<g id="node2" class="node">
<title>Node4</title>
<g id="a_node2"><a xlink:href="align_8h.html" target="_top" xlink:title="ODP alignments. ">
<polygon fill="#ffffff" stroke="#000000" points="119.5,-448.5 119.5,-467.5 169.5,-467.5 169.5,-448.5 119.5,-448.5"/>
<text text-anchor="middle" x="144.5" y="-455.5" font-family="Helvetica,sans-Serif" font-size="10.00" fill="#000000">align.h</text>
</a>
</g>
</g>
<!-- Node3&#45;&gt;Node4 -->
<g id="edge1" class="edge">
<title>Node3&#45;&gt;Node4</title>
<path fill="none" stroke="#191970" d="M144.5,-494.1575C144.5,-485.155 144.5,-474.9199 144.5,-467.6427"/>
<polygon fill="#191970" stroke="#191970" points="141.0001,-494.2455 144.5,-504.2455 148.0001,-494.2456 141.0001,-494.2455"/>
</g>
<!-- Node5 -->
<g id="node3" class="node">
<title>Node5</title>
<g id="a_node3"><a xlink:href="abi-default_2atomic_8h.html" target="_top" xlink:title="ODP atomic operations. ">
<polygon fill="#ffffff" stroke="#000000" points="0,-280.5 0,-299.5 59,-299.5 59,-280.5 0,-280.5"/>
<text text-anchor="middle" x="29.5" y="-287.5" font-family="Helvetica,sans-Serif" font-size="10.00" fill="#000000">atomic.h</text>
</a>
</g>
</g>
<!-- Node4&#45;&gt;Node5 -->
<g id="edge2" class="edge">
<title>Node4&#45;&gt;Node5</title>
<path fill="none" stroke="#191970" d="M132.2465,-440.0993C108.0784,-404.7928 54.9862,-327.232 36.2274,-299.8279"/>
<polygon fill="#191970" stroke="#191970" points="129.4508,-442.2114 137.9876,-448.4862 135.2271,-438.2573 129.4508,-442.2114"/>
</g>
<!-- Node6 -->
<g id="node4" class="node">
<title>Node6</title>
<g id="a_node4"><a xlink:href="abi-default_2cpumask_8h.html" target="_top" xlink:title="ODP CPU masks and enumeration. ">
<polygon fill="#ffffff" stroke="#000000" points="77.5,-280.5 77.5,-299.5 147.5,-299.5 147.5,-280.5 77.5,-280.5"/>
<text text-anchor="middle" x="112.5" y="-287.5" font-family="Helvetica,sans-Serif" font-size="10.00" fill="#000000">cpumask.h</text>
</a>
</g>
</g>
<!-- Node4&#45;&gt;Node6 -->
<g id="edge3" class="edge">
<title>Node4&#45;&gt;Node6</title>
<path fill="none" stroke="#191970" d="M138.4369,-438.539C136.047,-430.3947 133.4202,-420.7945 131.5,-412 122.4465,-370.5338 116.0317,-320.2296 113.5898,-299.5639"/>
<polygon fill="#191970" stroke="#191970" points="135.1185,-439.6574 141.3629,-448.2164 141.819,-437.6314 135.1185,-439.6574"/>
</g>
<!-- Node7 -->
<g id="node5" class="node">
<title>Node7</title>
<g id="a_node5"><a xlink:href="spec_2std__types_8h.html" target="_top" xlink:title="Standard C language types and definitions for ODP. ">
<polygon fill="#ffffff" stroke="#000000" points="141,-392.5 141,-411.5 214,-411.5 214,-392.5 141,-392.5"/>
<text text-anchor="middle" x="177.5" y="-399.5" font-family="Helvetica,sans-Serif" font-size="10.00" fill="#000000">std_types.h</text>
</a>
</g>
</g>
<!-- Node4&#45;&gt;Node7 -->
<g id="edge4" class="edge">
<title>Node4&#45;&gt;Node7</title>
<path fill="none" stroke="#191970" d="M155.3254,-439.6296C160.8299,-430.2887 167.2937,-419.3197 171.8177,-411.6427"/>
<polygon fill="#191970" stroke="#191970" points="152.3097,-437.8532 150.2482,-448.2455 158.3405,-441.4071 152.3097,-437.8532"/>
</g>
<!-- Node71 -->
<g id="node50" class="node">
<title>Node71</title>
<g id="a_node50"><a xlink:href="time__inlines_8h_source.html" target="_top" xlink:title="time_inlines.h">
<polygon fill="#ffffff" stroke="#000000" points="232.5,-392.5 232.5,-411.5 318.5,-411.5 318.5,-392.5 232.5,-392.5"/>
<text text-anchor="middle" x="275.5" y="-399.5" font-family="Helvetica,sans-Serif" font-size="10.00" fill="#000000">time_inlines.h</text>
</a>
</g>
</g>
<!-- Node4&#45;&gt;Node71 -->
<g id="edge63" class="edge">
<title>Node4&#45;&gt;Node71</title>
<path fill="none" stroke="#191970" d="M176.3534,-444.3833C200.1785,-434.1985 232.1568,-420.5284 253.2742,-411.5011"/>
<polygon fill="#191970" stroke="#191970" points="174.839,-441.2242 167.0197,-448.3733 177.5906,-447.6608 174.839,-441.2242"/>
</g>
<!-- Node8 -->
<g id="node6" class="node">
<title>Node8</title>
<g id="a_node6"><a xlink:href="std__types_8h.html" target="_top" xlink:title="Standard C language types and definitions for ODP. ">
<polygon fill="#ffffff" stroke="#000000" points="1209,-336.5 1209,-355.5 1282,-355.5 1282,-336.5 1209,-336.5"/>
<text text-anchor="middle" x="1245.5" y="-343.5" font-family="Helvetica,sans-Serif" font-size="10.00" fill="#000000">std_types.h</text>
</a>
</g>
</g>
<!-- Node7&#45;&gt;Node8 -->
<g id="edge5" class="edge">
<title>Node7&#45;&gt;Node8</title>
<path fill="none" stroke="#191970" d="M224.0209,-392.2079C439.5698,-365.9131 1052.8115,-350.4255 1208.9877,-346.8148"/>
<polygon fill="#191970" stroke="#191970" points="223.5422,-388.7405 214.0607,-393.4682 224.421,-395.6851 223.5422,-388.7405"/>
</g>
<!-- Node8&#45;&gt;Node5 -->
<g id="edge6" class="edge">
<title>Node8&#45;&gt;Node5</title>
<path fill="none" stroke="#191970" d="M1198.5531,-345.4929C1008.0543,-343.2301 292.2915,-332.6866 68.5,-300 65.4567,-299.5555 62.3075,-298.9684 59.1786,-298.3008"/>
<polygon fill="#191970" stroke="#191970" points="1198.7472,-348.9953 1208.7874,-345.6124 1198.829,-341.9958 1198.7472,-348.9953"/>
</g>
<!-- Node8&#45;&gt;Node6 -->
<g id="edge9" class="edge">
<title>Node8&#45;&gt;Node6</title>
<path fill="none" stroke="#191970" d="M1198.5679,-345.1507C1017.2769,-341.6941 362.5834,-327.5396 156.5,-300 153.7047,-299.6265 150.8255,-299.1602 147.9412,-298.6347"/>
<polygon fill="#191970" stroke="#191970" points="1198.7668,-348.655 1208.8312,-345.3445 1198.8991,-341.6562 1198.7668,-348.655"/>
</g>
<!-- Node9 -->
<g id="node7" class="node">
<title>Node9</title>
<g id="a_node7"><a xlink:href="abi-default_2barrier_8h.html" target="_top" xlink:title="ODP barrier. ">
<polygon fill="#ffffff" stroke="#000000" points="2230,-280.5 2230,-299.5 2287,-299.5 2287,-280.5 2230,-280.5"/>
<text text-anchor="middle" x="2258.5" y="-287.5" font-family="Helvetica,sans-Serif" font-size="10.00" fill="#000000">barrier.h</text>
</a>
</g>
</g>
<!-- Node8&#45;&gt;Node9 -->
<g id="edge7" class="edge">
<title>Node8&#45;&gt;Node9</title>
<path fill="none" stroke="#191970" d="M1292.2699,-345.1395C1461.1511,-341.8229 2039.0903,-328.6012 2221.5,-300 2224.261,-299.5671 2227.1119,-299.0071 2229.949,-298.3733"/>
<polygon fill="#191970" stroke="#191970" points="1292.1377,-341.6413 1282.2075,-345.3348 1292.2736,-348.64 1292.1377,-341.6413"/>
</g>
<!-- Node10 -->
<g id="node8" class="node">
<title>Node10</title>
<g id="a_node8"><a xlink:href="abi-default_2byteorder_8h.html" target="_top" xlink:title="ODP byteorder. ">
<polygon fill="#ffffff" stroke="#000000" points="2305.5,-280.5 2305.5,-299.5 2377.5,-299.5 2377.5,-280.5 2305.5,-280.5"/>
<text text-anchor="middle" x="2341.5" y="-287.5" font-family="Helvetica,sans-Serif" font-size="10.00" fill="#000000">byteorder.h</text>
</a>
</g>
</g>
<!-- Node8&#45;&gt;Node10 -->
<g id="edge8" class="edge">
<title>Node8&#45;&gt;Node10</title>
<path fill="none" stroke="#191970" d="M1292.2653,-345.0417C1469.2638,-341.2457 2098.1061,-326.1806 2296.5,-300 2299.3563,-299.6231 2302.2992,-299.1544 2305.2478,-298.6272"/>
<polygon fill="#191970" stroke="#191970" points="1292.1558,-341.5432 1282.2326,-345.2552 1292.3048,-348.5416 1292.1558,-341.5432"/>
</g>
<!-- Node11 -->
<g id="node9" class="node">
<title>Node11</title>
<g id="a_node9"><a xlink:href="abi-default_2init_8h.html" target="_top" xlink:title="ODP initialization. ">
<polygon fill="#ffffff" stroke="#000000" points="2396,-280.5 2396,-299.5 2437,-299.5 2437,-280.5 2396,-280.5"/>
<text text-anchor="middle" x="2416.5" y="-287.5" font-family="Helvetica,sans-Serif" font-size="10.00" fill="#000000">init.h</text>
</a>
</g>
</g>
<!-- Node8&#45;&gt;Node11 -->
<g id="edge10" class="edge">
<title>Node8&#45;&gt;Node11</title>
<path fill="none" stroke="#191970" d="M1292.3199,-345.864C1479.109,-345.0508 2171.302,-339.3868 2386.5,-300 2389.5242,-299.4465 2392.6609,-298.6566 2395.7161,-297.7603"/>
<polygon fill="#191970" stroke="#191970" points="1292.26,-342.3641 1282.2744,-345.9051 1292.2887,-349.364 1292.26,-342.3641"/>
</g>
<!-- Node12 -->
<g id="node10" class="node">
<title>Node12</title>
<g id="a_node10"><a xlink:href="abi-default_2ipsec_8h.html" target="_top" xlink:title="ODP IPSEC API &#45; platform specific types. ">
<polygon fill="#ffffff" stroke="#000000" points="2455,-280.5 2455,-299.5 2506,-299.5 2506,-280.5 2455,-280.5"/>
<text text-anchor="middle" x="2480.5" y="-287.5" font-family="Helvetica,sans-Serif" font-size="10.00" fill="#000000">ipsec.h</text>
</a>
</g>
</g>
<!-- Node8&#45;&gt;Node12 -->
<g id="edge11" class="edge">
<title>Node8&#45;&gt;Node12</title>
<path fill="none" stroke="#191970" d="M1292.1839,-345.7547C1484.7911,-344.5047 2218.2646,-337.3402 2446.5,-300 2449.1717,-299.5629 2451.9294,-298.9806 2454.6646,-298.316"/>
<polygon fill="#191970" stroke="#191970" points="1292.0863,-342.2551 1282.1084,-345.8178 1292.1302,-349.255 1292.0863,-342.2551"/>
</g>
<!-- Node13 -->
<g id="node11" class="node">
<title>Node13</title>
<g id="a_node11"><a xlink:href="abi-default_2packet__io_8h.html" target="_top" xlink:title="ODP Packet IO. ">
<polygon fill="#ffffff" stroke="#000000" points="166,-280.5 166,-299.5 239,-299.5 239,-280.5 166,-280.5"/>
<text text-anchor="middle" x="202.5" y="-287.5" font-family="Helvetica,sans-Serif" font-size="10.00" fill="#000000">packet_io.h</text>
</a>
</g>
</g>
<!-- Node8&#45;&gt;Node13 -->
<g id="edge12" class="edge">
<title>Node8&#45;&gt;Node13</title>
<path fill="none" stroke="#191970" d="M1198.638,-344.8832C1027.4025,-340.6394 435.8244,-324.5061 248.5,-300 245.4206,-299.5972 242.2419,-299.0936 239.0612,-298.528"/>
<polygon fill="#191970" stroke="#191970" points="1198.7501,-348.3869 1208.8332,-345.1341 1198.9223,-341.389 1198.7501,-348.3869"/>
</g>
<!-- Node14 -->
<g id="node12" class="node">
<title>Node14</title>
<g id="a_node12"><a xlink:href="abi-default_2rwlock__recursive_8h.html" target="_top" xlink:title="ODP recursive read/write lock. ">
<polygon fill="#ffffff" stroke="#000000" points="257.5,-280.5 257.5,-299.5 365.5,-299.5 365.5,-280.5 257.5,-280.5"/>
<text text-anchor="middle" x="311.5" y="-287.5" font-family="Helvetica,sans-Serif" font-size="10.00" fill="#000000">rwlock_recursive.h</text>
</a>
</g>
</g>
<!-- Node8&#45;&gt;Node14 -->
<g id="edge13" class="edge">
<title>Node8&#45;&gt;Node14</title>
<path fill="none" stroke="#191970" d="M1198.8296,-345.2522C1068.2603,-342.7901 688.2667,-333.0958 374.5,-300 371.6365,-299.698 368.7049,-299.3541 365.7484,-298.9801"/>
<polygon fill="#191970" stroke="#191970" points="1198.8199,-348.7525 1208.8825,-345.4366 1198.9484,-341.7537 1198.8199,-348.7525"/>
</g>
<!-- Node15 -->
<g id="node13" class="node">
<title>Node15</title>
<g id="a_node13"><a xlink:href="abi-default_2schedule_8h.html" target="_top" xlink:title="ODP schedule. ">
<polygon fill="#ffffff" stroke="#000000" points="384,-280.5 384,-299.5 453,-299.5 453,-280.5 384,-280.5"/>
<text text-anchor="middle" x="418.5" y="-287.5" font-family="Helvetica,sans-Serif" font-size="10.00" fill="#000000">schedule.h</text>
</a>
</g>
</g>
<!-- Node8&#45;&gt;Node15 -->
<g id="edge14" class="edge">
<title>Node8&#45;&gt;Node15</title>
<path fill="none" stroke="#191970" d="M1198.5754,-344.2599C1052.3281,-338.6763 606.0085,-320.3814 462.5,-300 459.5528,-299.5814 456.511,-299.0668 453.4677,-298.4938"/>
<polygon fill="#191970" stroke="#191970" points="1198.4527,-347.7577 1208.5784,-344.6398 1198.7185,-340.7627 1198.4527,-347.7577"/>
</g>
<!-- Node16 -->
<g id="node14" class="node">
<title>Node16</title>
<g id="a_node14"><a xlink:href="abi-default_2spinlock__recursive_8h.html" target="_top" xlink:title="ODP recursive spinlock. ">
<polygon fill="#ffffff" stroke="#000000" points="471.5,-280.5 471.5,-299.5 587.5,-299.5 587.5,-280.5 471.5,-280.5"/>
<text text-anchor="middle" x="529.5" y="-287.5" font-family="Helvetica,sans-Serif" font-size="10.00" fill="#000000">spinlock_recursive.h</text>
</a>
</g>
</g>
<!-- Node8&#45;&gt;Node16 -->
<g id="edge15" class="edge">
<title>Node8&#45;&gt;Node16</title>
<path fill="none" stroke="#191970" d="M1198.6849,-343.927C1091.7514,-338.9199 821.43,-324.7196 596.5,-300 593.5774,-299.6788 590.5867,-299.325 587.569,-298.948"/>
<polygon fill="#191970" stroke="#191970" points="1198.6648,-347.4298 1208.8162,-344.3967 1198.9891,-340.4373 1198.6648,-347.4298"/>
</g>
<!-- Node17 -->
<g id="node15" class="node">
<title>Node17</title>
<g id="a_node15"><a xlink:href="abi-default_2traffic__mngr_8h.html" target="_top" xlink:title="ODP traffic mngr. ">
<polygon fill="#ffffff" stroke="#000000" points="605.5,-280.5 605.5,-299.5 689.5,-299.5 689.5,-280.5 605.5,-280.5"/>
<text text-anchor="middle" x="647.5" y="-287.5" font-family="Helvetica,sans-Serif" font-size="10.00" fill="#000000">traffic_mngr.h</text>
</a>
</g>
</g>
<!-- Node8&#45;&gt;Node17 -->
<g id="edge16" class="edge">
<title>Node8&#45;&gt;Node17</title>
<path fill="none" stroke="#191970" d="M1198.7451,-343.8012C1104.0042,-338.9643 882.7226,-325.728 698.5,-300 695.6405,-299.6006 692.6989,-299.1449 689.7406,-298.653"/>
<polygon fill="#191970" stroke="#191970" points="1198.6945,-347.303 1208.8578,-344.31 1199.0463,-340.3118 1198.6945,-347.303"/>
</g>
<!-- Node18 -->
<g id="node16" class="node">
<title>Node18</title>
<g id="a_node16"><a xlink:href="barrier_8h.html" target="_top" xlink:title="ODP execution barriers. ">
<polygon fill="#ffffff" stroke="#000000" points="708,-280.5 708,-299.5 765,-299.5 765,-280.5 708,-280.5"/>
<text text-anchor="middle" x="736.5" y="-287.5" font-family="Helvetica,sans-Serif" font-size="10.00" fill="#000000">barrier.h</text>
</a>
</g>
</g>
<!-- Node8&#45;&gt;Node18 -->
<g id="edge17" class="edge">
<title>Node8&#45;&gt;Node18</title>
<path fill="none" stroke="#191970" d="M1198.6648,-344.0261C1113.4563,-339.8621 927.642,-328.1379 773.5,-300 770.7507,-299.4981 767.9076,-298.8918 765.0755,-298.2287"/>
<polygon fill="#191970" stroke="#191970" points="1198.6369,-347.5287 1208.792,-344.5084 1198.9699,-340.5366 1198.6369,-347.5287"/>
</g>
<!-- Node19 -->
<g id="node17" class="node">
<title>Node19</title>
<g id="a_node17"><a xlink:href="buffer_8h.html" target="_top" xlink:title="ODP buffer descriptor. ">
<polygon fill="#ffffff" stroke="#000000" points="783,-280.5 783,-299.5 836,-299.5 836,-280.5 783,-280.5"/>
<text text-anchor="middle" x="809.5" y="-287.5" font-family="Helvetica,sans-Serif" font-size="10.00" fill="#000000">buffer.h</text>
</a>
</g>
</g>
<!-- Node8&#45;&gt;Node19 -->
<g id="edge18" class="edge">
<title>Node8&#45;&gt;Node19</title>
<path fill="none" stroke="#191970" d="M1198.3771,-342.404C1124.0405,-336.307 975.1798,-322.3767 850.5,-300 845.8846,-299.1717 841.0145,-298.1325 836.3053,-297.0397"/>
<polygon fill="#191970" stroke="#191970" points="1198.5426,-345.9287 1208.7923,-343.2468 1199.1072,-338.9515 1198.5426,-345.9287"/>
</g>
<!-- Node20 -->
<g id="node18" class="node">
<title>Node20</title>
<g id="a_node18"><a xlink:href="classification_8h.html" target="_top" xlink:title="ODP classification descriptor. ">
<polygon fill="#ffffff" stroke="#000000" points="806,-56.5 806,-75.5 895,-75.5 895,-56.5 806,-56.5"/>
<text text-anchor="middle" x="850.5" y="-63.5" font-family="Helvetica,sans-Serif" font-size="10.00" fill="#000000">classification.h</text>
</a>
</g>
</g>
<!-- Node8&#45;&gt;Node20 -->
<g id="edge19" class="edge">
<title>Node8&#45;&gt;Node20</title>
<path fill="none" stroke="#191970" d="M1198.7683,-342.5122C1113.6575,-335.7694 936.7794,-319.8455 878.5,-300 861.9042,-294.3487 861.0635,-285.7453 844.5,-280 788.7681,-260.6685 620.2804,-288.4504 581.5,-244 507.6857,-159.3935 714.5011,-98.1287 807.6443,-75.5412"/>
<polygon fill="#191970" stroke="#191970" points="1198.6809,-346.016 1208.9237,-343.3077 1199.2276,-339.0374 1198.6809,-346.016"/>
</g>
<!-- Node23 -->
<g id="node20" class="node">
<title>Node23</title>
<g id="a_node20"><a xlink:href="crypto_8h.html" target="_top" xlink:title="ODP crypto. ">
<polygon fill="#ffffff" stroke="#000000" points="679.5,-168.5 679.5,-187.5 735.5,-187.5 735.5,-168.5 679.5,-168.5"/>
<text text-anchor="middle" x="707.5" y="-175.5" font-family="Helvetica,sans-Serif" font-size="10.00" fill="#000000">crypto.h</text>
</a>
</g>
</g>
<!-- Node8&#45;&gt;Node23 -->
<g id="edge21" class="edge">
<title>Node8&#45;&gt;Node23</title>
<path fill="none" stroke="#191970" d="M1198.6484,-343.6707C1134.8137,-339.5288 1017.4733,-328.4509 921.5,-300 901.2921,-294.0094 898.7559,-285.8262 878.5,-280 816.7269,-262.2323 634.0287,-292.1966 591.5,-244 563.0619,-211.7719 636.7436,-191.5955 679.4829,-182.9269"/>
<polygon fill="#191970" stroke="#191970" points="1198.6017,-347.1745 1208.799,-344.2998 1199.0347,-340.1879 1198.6017,-347.1745"/>
</g>
<!-- Node24 -->
<g id="node21" class="node">
<title>Node24</title>
<g id="a_node21"><a xlink:href="packet_8h.html" target="_top" xlink:title="ODP packet descriptor. ">
<polygon fill="#ffffff" stroke="#000000" points="931,-280.5 931,-299.5 990,-299.5 990,-280.5 931,-280.5"/>
<text text-anchor="middle" x="960.5" y="-287.5" font-family="Helvetica,sans-Serif" font-size="10.00" fill="#000000">packet.h</text>
</a>
</g>
</g>
<!-- Node8&#45;&gt;Node24 -->
<g id="edge23" class="edge">
<title>Node8&#45;&gt;Node24</title>
<path fill="none" stroke="#191970" d="M1198.9726,-337.4999C1150.5627,-328.5581 1072.6004,-313.8829 1005.5,-300 1000.4843,-298.9623 995.1639,-297.8184 990.0047,-296.6863"/>
<polygon fill="#191970" stroke="#191970" points="1198.3708,-340.9479 1208.8396,-339.3187 1199.6397,-334.0639 1198.3708,-340.9479"/>
</g>
<!-- Node41 -->
<g id="node25" class="node">
<title>Node41</title>
<g id="a_node25"><a xlink:href="spec_2packet__flags_8h.html" target="_top" xlink:title="ODP packet flags. ">
<polygon fill="#ffffff" stroke="#ff0000" points="818,-224.5 818,-243.5 905,-243.5 905,-224.5 818,-224.5"/>
<text text-anchor="middle" x="861.5" y="-231.5" font-family="Helvetica,sans-Serif" font-size="10.00" fill="#000000">packet_flags.h</text>
</a>
</g>
</g>
<!-- Node8&#45;&gt;Node41 -->
<g id="edge51" class="edge">
<title>Node8&#45;&gt;Node41</title>
<path fill="none" stroke="#191970" d="M1198.9375,-338.6192C1156.8438,-331.2296 1093.531,-318.3172 1040.5,-300 1020.9579,-293.25 1017.668,-287.749 998.5,-280 963.1436,-265.7066 921.4751,-252.1698 893.4546,-243.5301"/>
<polygon fill="#191970" stroke="#191970" points="1198.4504,-342.0868 1208.8993,-340.3344 1199.6382,-335.1883 1198.4504,-342.0868"/>
</g>
<!-- Node33 -->
<g id="node27" class="node">
<title>Node33</title>
<g id="a_node27"><a xlink:href="packet__io_8h.html" target="_top" xlink:title="ODP Packet IO. ">
<polygon fill="#ffffff" stroke="#000000" points="923,-168.5 923,-187.5 996,-187.5 996,-168.5 923,-168.5"/>
<text text-anchor="middle" x="959.5" y="-175.5" font-family="Helvetica,sans-Serif" font-size="10.00" fill="#000000">packet_io.h</text>
</a>
</g>
</g>
<!-- Node8&#45;&gt;Node33 -->
<g id="edge35" class="edge">
<title>Node8&#45;&gt;Node33</title>
<path fill="none" stroke="#191970" d="M1253.5103,-326.7082C1263.0803,-300.2169 1274.9465,-252.6144 1250.5,-224 1234.1372,-204.8475 1070.6339,-187.9317 996.1382,-181.1519"/>
<polygon fill="#191970" stroke="#191970" points="1250.124,-325.7614 1249.7864,-336.3509 1256.654,-328.2833 1250.124,-325.7614"/>
</g>
<!-- Node35 -->
<g id="node29" class="node">
<title>Node35</title>
<g id="a_node29"><a xlink:href="spec_2traffic__mngr_8h.html" target="_top" xlink:title="Copyright (c) 2015&#45;2018, Linaro Limited All rights reserved. ">
<polygon fill="#ffffff" stroke="#ff0000" points="1113.5,-112.5 1113.5,-131.5 1197.5,-131.5 1197.5,-112.5 1113.5,-112.5"/>
<text text-anchor="middle" x="1155.5" y="-119.5" font-family="Helvetica,sans-Serif" font-size="10.00" fill="#000000">traffic_mngr.h</text>
</a>
</g>
</g>
<!-- Node8&#45;&gt;Node35 -->
<g id="edge57" class="edge">
<title>Node8&#45;&gt;Node35</title>
<path fill="none" stroke="#191970" d="M1257.5413,-327.7015C1262.2198,-319.5684 1267.0394,-309.662 1269.5,-300 1277.8369,-267.2642 1284.3551,-254.8086 1270.5,-224 1250.5789,-179.7029 1200.8584,-146.8367 1173.7783,-131.5372"/>
<polygon fill="#191970" stroke="#191970" points="1254.5045,-325.9585 1252.2636,-336.3137 1260.4729,-329.6161 1254.5045,-325.9585"/>
</g>
<!-- Node31 -->
<g id="node30" class="node">
<title>Node31</title>
<g id="a_node30"><a xlink:href="queue_8h.html" target="_top" xlink:title="ODP queue. ">
<polygon fill="#ffffff" stroke="#000000" points="1116.5,-280.5 1116.5,-299.5 1172.5,-299.5 1172.5,-280.5 1116.5,-280.5"/>
<text text-anchor="middle" x="1144.5" y="-287.5" font-family="Helvetica,sans-Serif" font-size="10.00" fill="#000000">queue.h</text>
</a>
</g>
</g>
<!-- Node8&#45;&gt;Node31 -->
<g id="edge36" class="edge">
<title>Node8&#45;&gt;Node31</title>
<path fill="none" stroke="#191970" d="M1219.0281,-331.3225C1200.9875,-321.3198 1177.6123,-308.3593 1161.8913,-299.6427"/>
<polygon fill="#191970" stroke="#191970" points="1217.4643,-334.4574 1227.9071,-336.2455 1220.8587,-328.3354 1217.4643,-334.4574"/>
</g>
<!-- Node39 -->
<g id="node32" class="node">
<title>Node39</title>
<g id="a_node32"><a xlink:href="spec_2schedule_8h.html" target="_top" xlink:title="ODP schedule. ">
<polygon fill="#ffffff" stroke="#ff0000" points="1173,-224.5 1173,-243.5 1242,-243.5 1242,-224.5 1173,-224.5"/>
<text text-anchor="middle" x="1207.5" y="-231.5" font-family="Helvetica,sans-Serif" font-size="10.00" fill="#000000">schedule.h</text>
</a>
</g>
</g>
<!-- Node8&#45;&gt;Node39 -->
<g id="edge53" class="edge">
<title>Node8&#45;&gt;Node39</title>
<path fill="none" stroke="#191970" d="M1239.0282,-326.9253C1230.8185,-302.7284 1216.9788,-261.9376 1210.7317,-243.5249"/>
<polygon fill="#191970" stroke="#191970" points="1235.7327,-328.1057 1242.2601,-336.4509 1242.3615,-325.8566 1235.7327,-328.1057"/>
</g>
<!-- Node43 -->
<g id="node33" class="node">
<title>Node43</title>
<g id="a_node33"><a xlink:href="spec_2chksum_8h.html" target="_top" xlink:title="ODP checksum functions. ">
<polygon fill="#ffffff" stroke="#000000" points="1311.5,-280.5 1311.5,-299.5 1375.5,-299.5 1375.5,-280.5 1311.5,-280.5"/>
<text text-anchor="middle" x="1343.5" y="-287.5" font-family="Helvetica,sans-Serif" font-size="10.00" fill="#000000">chksum.h</text>
</a>
</g>
</g>
<!-- Node8&#45;&gt;Node43 -->
<g id="edge41" class="edge">
<title>Node8&#45;&gt;Node43</title>
<path fill="none" stroke="#191970" d="M1271.6686,-331.0465C1289.1058,-321.0824 1311.5111,-308.2794 1326.6253,-299.6427"/>
<polygon fill="#191970" stroke="#191970" points="1269.5162,-328.2453 1262.5703,-336.2455 1272.9892,-334.323 1269.5162,-328.2453"/>
</g>
<!-- Node45 -->
<g id="node35" class="node">
<title>Node45</title>
<g id="a_node35"><a xlink:href="spec_2cpu_8h.html" target="_top" xlink:title="ODP CPU API. ">
<polygon fill="#ffffff" stroke="#000000" points="1394,-280.5 1394,-299.5 1437,-299.5 1437,-280.5 1394,-280.5"/>
<text text-anchor="middle" x="1415.5" y="-287.5" font-family="Helvetica,sans-Serif" font-size="10.00" fill="#000000">cpu.h</text>
</a>
</g>
</g>
<!-- Node8&#45;&gt;Node45 -->
<g id="edge43" class="edge">
<title>Node8&#45;&gt;Node45</title>
<path fill="none" stroke="#191970" d="M1284.3382,-333.2062C1318.3102,-322.0155 1366.403,-306.1731 1393.9242,-297.1073"/>
<polygon fill="#191970" stroke="#191970" points="1283.1269,-329.9202 1274.724,-336.3733 1285.3171,-336.5687 1283.1269,-329.9202"/>
</g>
<!-- Node48 -->
<g id="node37" class="node">
<title>Node48</title>
<g id="a_node37"><a xlink:href="spec_2feature_8h.html" target="_top" xlink:title="ODP features. ">
<polygon fill="#ffffff" stroke="#000000" points="1455,-280.5 1455,-299.5 1516,-299.5 1516,-280.5 1455,-280.5"/>
<text text-anchor="middle" x="1485.5" y="-287.5" font-family="Helvetica,sans-Serif" font-size="10.00" fill="#000000">feature.h</text>
</a>
</g>
</g>
<!-- Node8&#45;&gt;Node48 -->
<g id="edge45" class="edge">
<title>Node8&#45;&gt;Node48</title>
<path fill="none" stroke="#191970" d="M1291.9133,-335.5862C1332.4859,-326.4206 1392.9612,-312.6081 1445.5,-300 1448.5626,-299.265 1451.7541,-298.4873 1454.9397,-297.7032"/>
<polygon fill="#191970" stroke="#191970" points="1291.0285,-332.1978 1282.0439,-337.8128 1292.5691,-339.0262 1291.0285,-332.1978"/>
</g>
<!-- Node50 -->
<g id="node39" class="node">
<title>Node50</title>
<g id="a_node39"><a xlink:href="spec_2init_8h.html" target="_top" xlink:title="init.h">
<polygon fill="#ffffff" stroke="#ff0000" points="1519,-168.5 1519,-187.5 1560,-187.5 1560,-168.5 1519,-168.5"/>
<text text-anchor="middle" x="1539.5" y="-175.5" font-family="Helvetica,sans-Serif" font-size="10.00" fill="#000000">init.h</text>
</a>
</g>
</g>
<!-- Node8&#45;&gt;Node50 -->
<g id="edge50" class="edge">
<title>Node8&#45;&gt;Node50</title>
<path fill="none" stroke="#191970" d="M1292.3752,-343.5781C1362.1696,-339.1071 1489.0094,-327.3833 1524.5,-300 1552.6526,-278.2784 1553.2986,-259.3549 1549.5,-224 1548.138,-211.3236 1544.7226,-197.015 1542.2621,-187.7707"/>
<polygon fill="#191970" stroke="#191970" points="1291.8638,-340.1028 1282.0977,-344.2104 1292.2938,-347.0896 1291.8638,-340.1028"/>
</g>
<!-- Node55 -->
<g id="node40" class="node">
<title>Node55</title>
<g id="a_node40"><a xlink:href="spec_2hash_8h.html" target="_top" xlink:title="ODP Hash functions. ">
<polygon fill="#ffffff" stroke="#000000" points="1573,-280.5 1573,-299.5 1622,-299.5 1622,-280.5 1573,-280.5"/>
<text text-anchor="middle" x="1597.5" y="-287.5" font-family="Helvetica,sans-Serif" font-size="10.00" fill="#000000">hash.h</text>
</a>
</g>
</g>
<!-- Node8&#45;&gt;Node55 -->
<g id="edge48" class="edge">
<title>Node8&#45;&gt;Node55</title>
<path fill="none" stroke="#191970" d="M1292.4964,-340.6564C1353.9601,-333.3113 1464.8418,-318.8355 1558.5,-300 1563.1598,-299.0629 1568.0958,-297.918 1572.8325,-296.7419"/>
<polygon fill="#191970" stroke="#191970" points="1291.8574,-337.2075 1282.3382,-341.8591 1292.6804,-344.159 1291.8574,-337.2075"/>
</g>
<!-- Node57 -->
<g id="node42" class="node">
<title>Node57</title>
<g id="a_node42"><a xlink:href="spec_2pool_8h.html" target="_top" xlink:title="ODP pool. ">
<polygon fill="#ffffff" stroke="#ff0000" points="1640,-280.5 1640,-299.5 1687,-299.5 1687,-280.5 1640,-280.5"/>
<text text-anchor="middle" x="1663.5" y="-287.5" font-family="Helvetica,sans-Serif" font-size="10.00" fill="#000000">pool.h</text>
</a>
</g>
</g>
<!-- Node8&#45;&gt;Node57 -->
<g id="edge52" class="edge">
<title>Node8&#45;&gt;Node57</title>
<path fill="none" stroke="#191970" d="M1292.4368,-343.0554C1365.38,-337.8832 1510.0884,-325.2341 1630.5,-300 1633.5468,-299.3615 1636.7174,-298.5698 1639.8358,-297.7135"/>
<polygon fill="#191970" stroke="#191970" points="1291.9407,-339.5813 1282.2068,-343.7648 1292.425,-346.5645 1291.9407,-339.5813"/>
</g>
<!-- Node60 -->
<g id="node43" class="node">
<title>Node60</title>
<g id="a_node43"><a xlink:href="spec_2stash_8h.html" target="_top" xlink:title="ODP stash. ">
<polygon fill="#ffffff" stroke="#ff0000" points="1705.5,-280.5 1705.5,-299.5 1757.5,-299.5 1757.5,-280.5 1705.5,-280.5"/>
<text text-anchor="middle" x="1731.5" y="-287.5" font-family="Helvetica,sans-Serif" font-size="10.00" fill="#000000">stash.h</text>
</a>
</g>
</g>
<!-- Node8&#45;&gt;Node60 -->
<g id="edge54" class="edge">
<title>Node8&#45;&gt;Node60</title>
<path fill="none" stroke="#191970" d="M1292.0934,-343.9634C1374.3659,-339.7657 1550.4859,-328.0772 1696.5,-300 1699.3547,-299.4511 1702.3135,-298.7765 1705.247,-298.0393"/>
<polygon fill="#191970" stroke="#191970" points="1291.8758,-340.4698 1282.0618,-344.4616 1292.2231,-347.4612 1291.8758,-340.4698"/>
</g>
<!-- Node62 -->
<g id="node44" class="node">
<title>Node62</title>
<g id="a_node44"><a xlink:href="spec_2threshold_8h.html" target="_top" xlink:title="ODP threshold descriptor. ">
<polygon fill="#ffffff" stroke="#ff0000" points="1776,-280.5 1776,-299.5 1847,-299.5 1847,-280.5 1776,-280.5"/>
<text text-anchor="middle" x="1811.5" y="-287.5" font-family="Helvetica,sans-Serif" font-size="10.00" fill="#000000">threshold.h</text>
</a>
</g>
</g>
<!-- Node8&#45;&gt;Node62 -->
<g id="edge55" class="edge">
<title>Node8&#45;&gt;Node62</title>
<path fill="none" stroke="#191970" d="M1292.05,-343.9327C1383.4463,-339.4236 1592.6052,-326.8807 1766.5,-300 1769.5055,-299.5354 1772.6102,-298.9884 1775.7185,-298.3937"/>
<polygon fill="#191970" stroke="#191970" points="1291.8353,-340.4389 1282.0164,-344.4186 1292.174,-347.4307 1291.8353,-340.4389"/>
</g>
<!-- Node64 -->
<g id="node45" class="node">
<title>Node64</title>
<g id="a_node45"><a xlink:href="spec_2thrmask_8h.html" target="_top" xlink:title="ODP thread masks. ">
<polygon fill="#ffffff" stroke="#ff0000" points="1865.5,-280.5 1865.5,-299.5 1931.5,-299.5 1931.5,-280.5 1865.5,-280.5"/>
<text text-anchor="middle" x="1898.5" y="-287.5" font-family="Helvetica,sans-Serif" font-size="10.00" fill="#000000">thrmask.h</text>
</a>
</g>
</g>
<!-- Node8&#45;&gt;Node64 -->
<g id="edge56" class="edge">
<title>Node8&#45;&gt;Node64</title>
<path fill="none" stroke="#191970" d="M1292.2744,-345.004C1394.9716,-342.2657 1647.67,-332.5114 1856.5,-300 1859.3144,-299.5618 1862.2187,-299.0334 1865.1241,-298.4512"/>
<polygon fill="#191970" stroke="#191970" points="1292.1389,-341.5062 1282.2321,-345.2619 1292.3187,-348.5039 1292.1389,-341.5062"/>
</g>
<!-- Node66 -->
<g id="node46" class="node">
<title>Node66</title>
<g id="a_node46"><a xlink:href="system__info_8h.html" target="_top" xlink:title="ODP system information. ">
<polygon fill="#ffffff" stroke="#000000" points="1949.5,-280.5 1949.5,-299.5 2035.5,-299.5 2035.5,-280.5 1949.5,-280.5"/>
<text text-anchor="middle" x="1992.5" y="-287.5" font-family="Helvetica,sans-Serif" font-size="10.00" fill="#000000">system_info.h</text>
</a>
</g>
</g>
<!-- Node8&#45;&gt;Node66 -->
<g id="edge58" class="edge">
<title>Node8&#45;&gt;Node66</title>
<path fill="none" stroke="#191970" d="M1292.5082,-344.897C1404.9167,-341.8227 1697.9619,-331.2253 1940.5,-300 1943.4177,-299.6244 1946.4185,-299.1864 1949.4361,-298.7075"/>
<polygon fill="#191970" stroke="#191970" points="1292.1049,-341.4064 1282.2016,-345.1714 1292.2913,-348.4039 1292.1049,-341.4064"/>
</g>
<!-- Node67 -->
<g id="node47" class="node">
<title>Node67</title>
<g id="a_node47"><a xlink:href="time_8h.html" target="_top" xlink:title="ODP time. ">
<polygon fill="#ffffff" stroke="#ff0000" points="1049.5,-280.5 1049.5,-299.5 1097.5,-299.5 1097.5,-280.5 1049.5,-280.5"/>
<text text-anchor="middle" x="1073.5" y="-287.5" font-family="Helvetica,sans-Serif" font-size="10.00" fill="#000000">time.h</text>
</a>
</g>
</g>
<!-- Node8&#45;&gt;Node67 -->
<g id="edge59" class="edge">
<title>Node8&#45;&gt;Node67</title>
<path fill="none" stroke="#191970" d="M1206.0299,-333.1493C1172.6217,-322.2722 1125.8101,-307.0312 1097.6906,-297.876"/>
<polygon fill="#191970" stroke="#191970" points="1205.3399,-336.6054 1215.9321,-336.3733 1207.507,-329.9493 1205.3399,-336.6054"/>
</g>
<!-- Node69 -->
<g id="node48" class="node">
<title>Node69</title>
<g id="a_node48"><a xlink:href="timer_8h.html" target="_top" xlink:title="ODP timer service. ">
<polygon fill="#ffffff" stroke="#000000" points="2054,-280.5 2054,-299.5 2105,-299.5 2105,-280.5 2054,-280.5"/>
<text text-anchor="middle" x="2079.5" y="-287.5" font-family="Helvetica,sans-Serif" font-size="10.00" fill="#000000">timer.h</text>
</a>
</g>
</g>
<!-- Node8&#45;&gt;Node69 -->
<g id="edge61" class="edge">
<title>Node8&#45;&gt;Node69</title>
<path fill="none" stroke="#191970" d="M1292.4131,-344.6594C1440.7355,-340.207 1898.345,-324.7733 2044.5,-300 2047.4907,-299.4931 2050.5904,-298.8247 2053.653,-298.0732"/>
<polygon fill="#191970" stroke="#191970" points="1292.1684,-341.1651 1282.2769,-344.961 1292.3766,-348.162 1292.1684,-341.1651"/>
</g>
<!-- Node70 -->
<g id="node49" class="node">
<title>Node70</title>
<g id="a_node49"><a xlink:href="strong__types_8h.html" target="_top" xlink:title="ODP Strong Types. ">
<polygon fill="#ffffff" stroke="#000000" points="2123,-280.5 2123,-299.5 2212,-299.5 2212,-280.5 2123,-280.5"/>
<text text-anchor="middle" x="2167.5" y="-287.5" font-family="Helvetica,sans-Serif" font-size="10.00" fill="#000000">strong_types.h</text>
</a>
</g>
</g>
<!-- Node8&#45;&gt;Node70 -->
<g id="edge62" class="edge">
<title>Node8&#45;&gt;Node70</title>
<path fill="none" stroke="#191970" d="M1292.6935,-344.3351C1449.6374,-338.6675 1953.2077,-319.3971 2114.5,-300 2117.1961,-299.6758 2119.9614,-299.2967 2122.7458,-298.8793"/>
<polygon fill="#191970" stroke="#191970" points="1292.3002,-340.8469 1282.4325,-344.704 1292.5518,-347.8423 1292.3002,-340.8469"/>
</g>
<!-- Node21 -->
<g id="node19" class="node">
<title>Node21</title>
<g id="a_node19"><a xlink:href="spec_2ipsec_8h.html" target="_top" xlink:title="ODP IPSEC API. ">
<polygon fill="#ffffff" stroke="#ff0000" points="825,-.5 825,-19.5 876,-19.5 876,-.5 825,-.5"/>
<text text-anchor="middle" x="850.5" y="-7.5" font-family="Helvetica,sans-Serif" font-size="10.00" fill="#000000">ipsec.h</text>
</a>
</g>
</g>
<!-- Node20&#45;&gt;Node21 -->
<g id="edge20" class="edge">
<title>Node20&#45;&gt;Node21</title>
<path fill="none" stroke="#191970" d="M850.5,-46.1575C850.5,-37.155 850.5,-26.9199 850.5,-19.6427"/>
<polygon fill="#191970" stroke="#191970" points="847.0001,-46.2455 850.5,-56.2455 854.0001,-46.2456 847.0001,-46.2455"/>
</g>
<!-- Node23&#45;&gt;Node21 -->
<g id="edge22" class="edge">
<title>Node23&#45;&gt;Node21</title>
<path fill="none" stroke="#191970" d="M719.0366,-159.4805C734.9336,-134.6461 765.1806,-89.7716 796.5,-56 809.2289,-42.2745 825.8793,-28.6312 837.3071,-19.8113"/>
<polygon fill="#191970" stroke="#191970" points="715.8846,-157.9162 713.4955,-168.2381 721.8001,-161.6589 715.8846,-157.9162"/>
</g>
<!-- Node25 -->
<g id="node22" class="node">
<title>Node25</title>
<g id="a_node22"><a xlink:href="spec_2comp_8h.html" target="_top" xlink:title="ODP Compression. ">
<polygon fill="#ffffff" stroke="#ff0000" points="747,-224.5 747,-243.5 800,-243.5 800,-224.5 747,-224.5"/>
<text text-anchor="middle" x="773.5" y="-231.5" font-family="Helvetica,sans-Serif" font-size="10.00" fill="#000000">comp.h</text>
</a>
</g>
</g>
<!-- Node24&#45;&gt;Node25 -->
<g id="edge24" class="edge">
<title>Node24&#45;&gt;Node25</title>
<path fill="none" stroke="#191970" d="M921.1,-278.2011C884.792,-267.3281 831.8917,-251.4863 800.2654,-242.0153"/>
<polygon fill="#191970" stroke="#191970" points="920.2855,-281.6107 930.8693,-281.1266 922.2937,-274.9049 920.2855,-281.6107"/>
</g>
<!-- Node27 -->
<g id="node23" class="node">
<title>Node27</title>
<g id="a_node23"><a xlink:href="spec_2crypto_8h.html" target="_top" xlink:title="ODP crypto. ">
<polygon fill="#ffffff" stroke="#000000" points="672.5,-224.5 672.5,-243.5 728.5,-243.5 728.5,-224.5 672.5,-224.5"/>
<text text-anchor="middle" x="700.5" y="-231.5" font-family="Helvetica,sans-Serif" font-size="10.00" fill="#000000">crypto.h</text>
</a>
</g>
</g>
<!-- Node24&#45;&gt;Node27 -->
<g id="edge25" class="edge">
<title>Node24&#45;&gt;Node27</title>
<path fill="none" stroke="#191970" d="M920.8742,-280.9456C919.3981,-280.6238 917.9362,-280.3076 916.5,-280 837.1507,-263.0066 816.489,-262.5962 737.5,-244 734.6501,-243.3291 731.6869,-242.5933 728.7334,-241.8349"/>
<polygon fill="#191970" stroke="#191970" points="920.1801,-284.3766 930.7003,-283.1214 921.6935,-277.5422 920.1801,-284.3766"/>
</g>
<!-- Node28 -->
<g id="node24" class="node">
<title>Node28</title>
<g id="a_node24"><a xlink:href="spec_2event_8h.html" target="_top" xlink:title="ODP event. ">
<polygon fill="#ffffff" stroke="#ff0000" points="601,-224.5 601,-243.5 654,-243.5 654,-224.5 601,-224.5"/>
<text text-anchor="middle" x="627.5" y="-231.5" font-family="Helvetica,sans-Serif" font-size="10.00" fill="#000000">event.h</text>
</a>
</g>
</g>
<!-- Node24&#45;&gt;Node28 -->
<g id="edge27" class="edge">
<title>Node24&#45;&gt;Node28</title>
<path fill="none" stroke="#191970" d="M920.8954,-280.8396C919.4133,-280.5475 917.9444,-280.2664 916.5,-280 804.8072,-259.3971 774.6723,-267.2479 663.5,-244 660.4523,-243.3627 657.2819,-242.6128 654.1419,-241.815"/>
<polygon fill="#191970" stroke="#191970" points="920.243,-284.2788 930.7464,-282.8898 921.6694,-277.4256 920.243,-284.2788"/>
</g>
<!-- Node24&#45;&gt;Node41 -->
<g id="edge28" class="edge">
<title>Node24&#45;&gt;Node41</title>
<path fill="none" stroke="#191970" d="M934.0643,-275.0465C916.4492,-265.0824 893.8153,-252.2794 878.5469,-243.6427"/>
<polygon fill="#191970" stroke="#191970" points="932.8283,-278.3684 943.2555,-280.2455 936.2747,-272.2756 932.8283,-278.3684"/>
</g>
<!-- Node32 -->
<g id="node26" class="node">
<title>Node32</title>
<g id="a_node26"><a xlink:href="spec_2packet__io_8h.html" target="_top" xlink:title="ODP Packet IO. ">
<polygon fill="#ffffff" stroke="#000000" points="923,-224.5 923,-243.5 996,-243.5 996,-224.5 923,-224.5"/>
<text text-anchor="middle" x="959.5" y="-231.5" font-family="Helvetica,sans-Serif" font-size="10.00" fill="#000000">packet_io.h</text>
</a>
</g>
</g>
<!-- Node24&#45;&gt;Node32 -->
<g id="edge29" class="edge">
<title>Node24&#45;&gt;Node32</title>
<path fill="none" stroke="#191970" d="M960.1457,-270.1575C959.9849,-261.155 959.8021,-250.9199 959.6722,-243.6427"/>
<polygon fill="#191970" stroke="#191970" points="956.6477,-270.3097 960.3258,-280.2455 963.6466,-270.1846 956.6477,-270.3097"/>
</g>
<!-- Node27&#45;&gt;Node23 -->
<g id="edge26" class="edge">
<title>Node27&#45;&gt;Node23</title>
<path fill="none" stroke="#191970" d="M702.9803,-214.1575C704.1056,-205.155 705.385,-194.9199 706.2947,-187.6427"/>
<polygon fill="#191970" stroke="#191970" points="699.4868,-213.8886 701.7193,-224.2455 706.4327,-214.7569 699.4868,-213.8886"/>
</g>
<!-- Node32&#45;&gt;Node33 -->
<g id="edge30" class="edge">
<title>Node32&#45;&gt;Node33</title>
<path fill="none" stroke="#191970" d="M959.5,-214.1575C959.5,-205.155 959.5,-194.9199 959.5,-187.6427"/>
<polygon fill="#191970" stroke="#191970" points="956.0001,-214.2455 959.5,-224.2455 963.0001,-214.2456 956.0001,-214.2455"/>
</g>
<!-- Node33&#45;&gt;Node21 -->
<g id="edge33" class="edge">
<title>Node33&#45;&gt;Node21</title>
<path fill="none" stroke="#191970" d="M953.4615,-158.5505C944.9934,-133.2612 927.8502,-88.4902 903.5,-56 892.5397,-41.3757 876.2274,-28.0964 864.5979,-19.6068"/>
<polygon fill="#191970" stroke="#191970" points="950.238,-159.9575 956.6462,-168.3947 956.8982,-157.8029 950.238,-159.9575"/>
</g>
<!-- Node34 -->
<g id="node28" class="node">
<title>Node34</title>
<g id="a_node28"><a xlink:href="spec_2classification_8h.html" target="_top" xlink:title="ODP classification descriptor. ">
<polygon fill="#ffffff" stroke="#000000" points="810,-112.5 810,-131.5 899,-131.5 899,-112.5 810,-112.5"/>
<text text-anchor="middle" x="854.5" y="-119.5" font-family="Helvetica,sans-Serif" font-size="10.00" fill="#000000">classification.h</text>
</a>
</g>
</g>
<!-- Node33&#45;&gt;Node34 -->
<g id="edge31" class="edge">
<title>Node33&#45;&gt;Node34</title>
<path fill="none" stroke="#191970" d="M932.2375,-163.46C913.4478,-153.4388 888.9987,-140.3993 872.58,-131.6427"/>
<polygon fill="#191970" stroke="#191970" points="930.7398,-166.6278 941.2104,-168.2455 934.0339,-160.4514 930.7398,-166.6278"/>
</g>
<!-- Node33&#45;&gt;Node35 -->
<g id="edge34" class="edge">
<title>Node33&#45;&gt;Node35</title>
<path fill="none" stroke="#191970" d="M1002.9413,-165.5882C1038.9516,-155.2996 1089.3868,-140.8895 1122.2461,-131.5011"/>
<polygon fill="#191970" stroke="#191970" points="1001.8473,-162.2606 993.1936,-168.3733 1003.7704,-168.9913 1001.8473,-162.2606"/>
</g>
<!-- Node34&#45;&gt;Node20 -->
<g id="edge32" class="edge">
<title>Node34&#45;&gt;Node20</title>
<path fill="none" stroke="#191970" d="M853.0827,-102.1575C852.4396,-93.155 851.7086,-82.9199 851.1888,-75.6427"/>
<polygon fill="#191970" stroke="#191970" points="849.5996,-102.5204 853.8033,-112.2455 856.5818,-102.0216 849.5996,-102.5204"/>
</g>
<!-- Node31&#45;&gt;Node23 -->
<g id="edge37" class="edge">
<title>Node31&#45;&gt;Node23</title>
<path fill="none" stroke="#191970" d="M1144.3402,-269.8276C1143.0642,-254.8418 1138.7259,-235.1412 1125.5,-224 1095.6971,-198.8947 824.873,-183.6699 735.7723,-179.3067"/>
<polygon fill="#191970" stroke="#191970" points="1140.8591,-270.3202 1144.8155,-280.1486 1147.8517,-269.9981 1140.8591,-270.3202"/>
</g>
<!-- Node31&#45;&gt;Node32 -->
<g id="edge38" class="edge">
<title>Node31&#45;&gt;Node32</title>
<path fill="none" stroke="#191970" d="M1106.7845,-278.5834C1072.6641,-268.2551 1022.996,-253.2204 990.9646,-243.5244"/>
<polygon fill="#191970" stroke="#191970" points="1105.8173,-281.9474 1116.4025,-281.4948 1107.8454,-275.2476 1105.8173,-281.9474"/>
</g>
<!-- Node37 -->
<g id="node31" class="node">
<title>Node37</title>
<g id="a_node31"><a xlink:href="spec_2packet__io__stats_8h.html" target="_top" xlink:title="ODP Packet IO statistics. ">
<polygon fill="#ffffff" stroke="#ff0000" points="1014.5,-224.5 1014.5,-243.5 1116.5,-243.5 1116.5,-224.5 1014.5,-224.5"/>
<text text-anchor="middle" x="1065.5" y="-231.5" font-family="Helvetica,sans-Serif" font-size="10.00" fill="#000000">packet_io_stats.h</text>
</a>
</g>
</g>
<!-- Node31&#45;&gt;Node37 -->
<g id="edge39" class="edge">
<title>Node31&#45;&gt;Node37</title>
<path fill="none" stroke="#191970" d="M1122.2244,-274.2097C1108.3495,-264.3743 1090.9485,-252.0394 1079.1031,-243.6427"/>
<polygon fill="#191970" stroke="#191970" points="1120.5569,-277.3178 1130.7393,-280.2455 1124.6051,-271.6071 1120.5569,-277.3178"/>
</g>
<!-- Node31&#45;&gt;Node39 -->
<g id="edge40" class="edge">
<title>Node31&#45;&gt;Node39</title>
<path fill="none" stroke="#191970" d="M1163.2192,-273.3607C1174.1182,-263.6727 1187.4755,-251.7995 1196.652,-243.6427"/>
<polygon fill="#191970" stroke="#191970" points="1160.6226,-270.9859 1155.4738,-280.2455 1165.2732,-276.2178 1160.6226,-270.9859"/>
</g>
<!-- Node44 -->
<g id="node34" class="node">
<title>Node44</title>
<g id="a_node34"><a xlink:href="chksum_8h.html" target="_top" xlink:title="ODP checksum functions. ">
<polygon fill="#ffffff" stroke="#000000" points="1336.5,-224.5 1336.5,-243.5 1400.5,-243.5 1400.5,-224.5 1336.5,-224.5"/>
<text text-anchor="middle" x="1368.5" y="-231.5" font-family="Helvetica,sans-Serif" font-size="10.00" fill="#000000">chksum.h</text>
</a>
</g>
</g>
<!-- Node43&#45;&gt;Node44 -->
<g id="edge42" class="edge">
<title>Node43&#45;&gt;Node44</title>
<path fill="none" stroke="#191970" d="M1351.9626,-271.0437C1356.0745,-261.8331 1360.8394,-251.1598 1364.1952,-243.6427"/>
<polygon fill="#191970" stroke="#191970" points="1348.7352,-269.6874 1347.8547,-280.2455 1355.1272,-272.541 1348.7352,-269.6874"/>
</g>
<!-- Node46 -->
<g id="node36" class="node">
<title>Node46</title>
<g id="a_node36"><a xlink:href="cpu_8h.html" target="_top" xlink:title="ODP CPU. ">
<polygon fill="#ffffff" stroke="#ff0000" points="1419,-224.5 1419,-243.5 1462,-243.5 1462,-224.5 1419,-224.5"/>
<text text-anchor="middle" x="1440.5" y="-231.5" font-family="Helvetica,sans-Serif" font-size="10.00" fill="#000000">cpu.h</text>
</a>
</g>
</g>
<!-- Node45&#45;&gt;Node46 -->
<g id="edge44" class="edge">
<title>Node45&#45;&gt;Node46</title>
<path fill="none" stroke="#191970" d="M1423.9626,-271.0437C1428.0745,-261.8331 1432.8394,-251.1598 1436.1952,-243.6427"/>
<polygon fill="#191970" stroke="#191970" points="1420.7352,-269.6874 1419.8547,-280.2455 1427.1272,-272.541 1420.7352,-269.6874"/>
</g>
<!-- Node49 -->
<g id="node38" class="node">
<title>Node49</title>
<g id="a_node38"><a xlink:href="feature_8h.html" target="_top" xlink:title="ODP features. ">
<polygon fill="#ffffff" stroke="#000000" points="1480,-224.5 1480,-243.5 1541,-243.5 1541,-224.5 1480,-224.5"/>
<text text-anchor="middle" x="1510.5" y="-231.5" font-family="Helvetica,sans-Serif" font-size="10.00" fill="#000000">feature.h</text>
</a>
</g>
</g>
<!-- Node48&#45;&gt;Node49 -->
<g id="edge46" class="edge">
<title>Node48&#45;&gt;Node49</title>
<path fill="none" stroke="#191970" d="M1493.9626,-271.0437C1498.0745,-261.8331 1502.8394,-251.1598 1506.1952,-243.6427"/>
<polygon fill="#191970" stroke="#191970" points="1490.7352,-269.6874 1489.8547,-280.2455 1497.1272,-272.541 1490.7352,-269.6874"/>
</g>
<!-- Node49&#45;&gt;Node50 -->
<g id="edge47" class="edge">
<title>Node49&#45;&gt;Node50</title>
<path fill="none" stroke="#191970" d="M1520.1647,-215.3372C1524.9687,-206.0605 1530.5723,-195.2398 1534.5065,-187.6427"/>
<polygon fill="#191970" stroke="#191970" points="1517.042,-213.7561 1515.5514,-224.2455 1523.258,-216.9751 1517.042,-213.7561"/>
</g>
<!-- Node56 -->
<g id="node41" class="node">
<title>Node56</title>
<g id="a_node41"><a xlink:href="hash_8h.html" target="_top" xlink:title="ODP Hash function. ">
<polygon fill="#ffffff" stroke="#000000" points="1598,-224.5 1598,-243.5 1647,-243.5 1647,-224.5 1598,-224.5"/>
<text text-anchor="middle" x="1622.5" y="-231.5" font-family="Helvetica,sans-Serif" font-size="10.00" fill="#000000">hash.h</text>
</a>
</g>
</g>
<!-- Node55&#45;&gt;Node56 -->
<g id="edge49" class="edge">
<title>Node55&#45;&gt;Node56</title>
<path fill="none" stroke="#191970" d="M1605.9626,-271.0437C1610.0745,-261.8331 1614.8394,-251.1598 1618.1952,-243.6427"/>
<polygon fill="#191970" stroke="#191970" points="1602.7352,-269.6874 1601.8547,-280.2455 1609.1272,-272.541 1602.7352,-269.6874"/>
</g>
<!-- Node67&#45;&gt;Node32 -->
<g id="edge60" class="edge">
<title>Node67&#45;&gt;Node32</title>
<path fill="none" stroke="#191970" d="M1044.6679,-275.8368C1024.0605,-265.7139 996.8918,-252.3679 978.8416,-243.5011"/>
<polygon fill="#191970" stroke="#191970" points="1043.384,-279.1056 1053.9027,-280.3733 1046.4703,-272.8227 1043.384,-279.1056"/>
</g>
</g>
</svg>
