<?xml version="1.0" encoding="UTF-8" standalone="no"?>
<!DOCTYPE svg PUBLIC "-//W3C//DTD SVG 1.1//EN"
 "http://www.w3.org/Graphics/SVG/1.1/DTD/svg11.dtd">
<!-- Generated by graphviz version 2.40.1 (20161225.0304)
 -->
<!-- Title: std_types.h Pages: 1 -->
<svg width="2569pt" height="364pt"
 viewBox="0.00 0.00 2569.00 364.00" xmlns="http://www.w3.org/2000/svg" xmlns:xlink="http://www.w3.org/1999/xlink">
<g id="graph0" class="graph" transform="scale(1 1) rotate(0) translate(4 360)">
<title>std_types.h</title>
<polygon fill="#ffffff" stroke="transparent" points="-4,4 -4,-360 2565,-360 2565,4 -4,4"/>
<!-- Node9 -->
<g id="node1" class="node">
<title>Node9</title>
<polygon fill="#bfbfbf" stroke="#000000" points="1291,-336.5 1291,-355.5 1364,-355.5 1364,-336.5 1291,-336.5"/>
<text text-anchor="middle" x="1327.5" y="-343.5" font-family="Helvetica,sans-Serif" font-size="10.00" fill="#000000">std_types.h</text>
</g>
<!-- Node10 -->
<g id="node2" class="node">
<title>Node10</title>
<g id="a_node2"><a xlink:href="abi-default_2atomic_8h.html" target="_top" xlink:title="ODP atomic operations. ">
<polygon fill="#ffffff" stroke="#000000" points="0,-280.5 0,-299.5 59,-299.5 59,-280.5 0,-280.5"/>
<text text-anchor="middle" x="29.5" y="-287.5" font-family="Helvetica,sans-Serif" font-size="10.00" fill="#000000">atomic.h</text>
</a>
</g>
</g>
<!-- Node9&#45;&gt;Node10 -->
<g id="edge1" class="edge">
<title>Node9&#45;&gt;Node10</title>
<path fill="none" stroke="#191970" d="M1280.8428,-345.6747C1082.4876,-344.0795 308.4185,-335.6496 67.5,-300 64.8007,-299.6006 62.0171,-299.0818 59.2416,-298.4908"/>
<polygon fill="#191970" stroke="#191970" points="1280.9036,-349.1752 1290.9308,-345.7539 1280.9586,-342.1754 1280.9036,-349.1752"/>
</g>
<!-- Node11 -->
<g id="node3" class="node">
<title>Node11</title>
<g id="a_node3"><a xlink:href="abi-default_2barrier_8h.html" target="_top" xlink:title="ODP barrier. ">
<polygon fill="#ffffff" stroke="#000000" points="77,-280.5 77,-299.5 134,-299.5 134,-280.5 77,-280.5"/>
<text text-anchor="middle" x="105.5" y="-287.5" font-family="Helvetica,sans-Serif" font-size="10.00" fill="#000000">barrier.h</text>
</a>
</g>
</g>
<!-- Node9&#45;&gt;Node11 -->
<g id="edge2" class="edge">
<title>Node9&#45;&gt;Node11</title>
<path fill="none" stroke="#191970" d="M1280.5866,-345.5451C1089.413,-343.4802 368.6441,-333.5847 143.5,-300 140.5312,-299.5572 137.4604,-298.9711 134.4104,-298.3042"/>
<polygon fill="#191970" stroke="#191970" points="1280.8179,-349.0477 1290.8545,-345.6539 1280.8922,-342.0481 1280.8179,-349.0477"/>
</g>
<!-- Node12 -->
<g id="node4" class="node">
<title>Node12</title>
<g id="a_node4"><a xlink:href="abi-default_2byteorder_8h.html" target="_top" xlink:title="ODP byteorder. ">
<polygon fill="#ffffff" stroke="#000000" points="152.5,-280.5 152.5,-299.5 224.5,-299.5 224.5,-280.5 152.5,-280.5"/>
<text text-anchor="middle" x="188.5" y="-287.5" font-family="Helvetica,sans-Serif" font-size="10.00" fill="#000000">byteorder.h</text>
</a>
</g>
</g>
<!-- Node9&#45;&gt;Node12 -->
<g id="edge3" class="edge">
<title>Node9&#45;&gt;Node12</title>
<path fill="none" stroke="#191970" d="M1280.9318,-345.1383C1099.6375,-341.6137 440.8151,-327.1768 233.5,-300 230.6433,-299.6255 227.7002,-299.1586 224.7514,-298.6327"/>
<polygon fill="#191970" stroke="#191970" points="1280.8777,-348.6378 1290.9433,-345.3312 1281.0126,-341.6391 1280.8777,-348.6378"/>
</g>
<!-- Node13 -->
<g id="node5" class="node">
<title>Node13</title>
<g id="a_node5"><a xlink:href="abi-default_2cpumask_8h.html" target="_top" xlink:title="ODP CPU masks and enumeration. ">
<polygon fill="#ffffff" stroke="#000000" points="242.5,-280.5 242.5,-299.5 312.5,-299.5 312.5,-280.5 242.5,-280.5"/>
<text text-anchor="middle" x="277.5" y="-287.5" font-family="Helvetica,sans-Serif" font-size="10.00" fill="#000000">cpumask.h</text>
</a>
</g>
</g>
<!-- Node9&#45;&gt;Node13 -->
<g id="edge4" class="edge">
<title>Node9&#45;&gt;Node13</title>
<path fill="none" stroke="#191970" d="M1280.7555,-344.9664C1108.6655,-340.9896 510.5989,-325.6047 321.5,-300 318.7054,-299.6216 315.8266,-299.1519 312.9427,-298.624"/>
<polygon fill="#191970" stroke="#191970" points="1280.684,-348.4656 1290.7617,-345.1959 1280.8446,-341.4675 1280.684,-348.4656"/>
</g>
<!-- Node14 -->
<g id="node6" class="node">
<title>Node14</title>
<g id="a_node6"><a xlink:href="abi-default_2init_8h.html" target="_top" xlink:title="ODP initialization. ">
<polygon fill="#ffffff" stroke="#000000" points="331,-280.5 331,-299.5 372,-299.5 372,-280.5 331,-280.5"/>
<text text-anchor="middle" x="351.5" y="-287.5" font-family="Helvetica,sans-Serif" font-size="10.00" fill="#000000">init.h</text>
</a>
</g>
</g>
<!-- Node9&#45;&gt;Node14 -->
<g id="edge5" class="edge">
<title>Node9&#45;&gt;Node14</title>
<path fill="none" stroke="#191970" d="M1280.4387,-345.4741C1114.2999,-343.3435 555.8594,-333.7793 380.5,-300 377.7807,-299.4762 374.9695,-298.7526 372.2161,-297.9319"/>
<polygon fill="#191970" stroke="#191970" points="1280.7634,-348.9784 1290.8065,-345.6039 1280.8511,-341.9789 1280.7634,-348.9784"/>
</g>
<!-- Node15 -->
<g id="node7" class="node">
<title>Node15</title>
<g id="a_node7"><a xlink:href="abi-default_2ipsec_8h.html" target="_top" xlink:title="ODP IPSEC API &#45; platform specific types. ">
<polygon fill="#ffffff" stroke="#000000" points="390,-280.5 390,-299.5 441,-299.5 441,-280.5 390,-280.5"/>
<text text-anchor="middle" x="415.5" y="-287.5" font-family="Helvetica,sans-Serif" font-size="10.00" fill="#000000">ipsec.h</text>
</a>
</g>
</g>
<!-- Node9&#45;&gt;Node15 -->
<g id="edge6" class="edge">
<title>Node9&#45;&gt;Node15</title>
<path fill="none" stroke="#191970" d="M1280.2679,-344.9799C1122.0314,-341.3346 611.4724,-327.6699 449.5,-300 446.8314,-299.5441 444.0758,-298.9495 441.3418,-298.2774"/>
<polygon fill="#191970" stroke="#191970" points="1280.5316,-348.4867 1290.6088,-345.2153 1280.691,-341.4885 1280.5316,-348.4867"/>
</g>
<!-- Node16 -->
<g id="node8" class="node">
<title>Node16</title>
<g id="a_node8"><a xlink:href="abi-default_2packet__io_8h.html" target="_top" xlink:title="ODP Packet IO. ">
<polygon fill="#ffffff" stroke="#000000" points="459,-280.5 459,-299.5 532,-299.5 532,-280.5 459,-280.5"/>
<text text-anchor="middle" x="495.5" y="-287.5" font-family="Helvetica,sans-Serif" font-size="10.00" fill="#000000">packet_io.h</text>
</a>
</g>
</g>
<!-- Node9&#45;&gt;Node16 -->
<g id="edge7" class="edge">
<title>Node9&#45;&gt;Node16</title>
<path fill="none" stroke="#191970" d="M1280.9075,-344.2271C1134.6478,-338.5115 685.8187,-319.7873 541.5,-300 538.4232,-299.5781 535.2462,-299.0612 532.0667,-298.4867"/>
<polygon fill="#191970" stroke="#191970" points="1280.7785,-347.7247 1290.907,-344.616 1281.0506,-340.73 1280.7785,-347.7247"/>
</g>
<!-- Node17 -->
<g id="node9" class="node">
<title>Node17</title>
<g id="a_node9"><a xlink:href="abi-default_2rwlock__recursive_8h.html" target="_top" xlink:title="ODP recursive read/write lock. ">
<polygon fill="#ffffff" stroke="#000000" points="550.5,-280.5 550.5,-299.5 658.5,-299.5 658.5,-280.5 550.5,-280.5"/>
<text text-anchor="middle" x="604.5" y="-287.5" font-family="Helvetica,sans-Serif" font-size="10.00" fill="#000000">rwlock_recursive.h</text>
</a>
</g>
</g>
<!-- Node9&#45;&gt;Node17 -->
<g id="edge8" class="edge">
<title>Node9&#45;&gt;Node17</title>
<path fill="none" stroke="#191970" d="M1280.6594,-344.1506C1172.421,-339.568 896.6723,-326.1235 667.5,-300 664.6392,-299.6739 661.7096,-299.3109 658.7548,-298.9218"/>
<polygon fill="#191970" stroke="#191970" points="1280.7697,-347.6581 1290.9072,-344.579 1281.0622,-340.6642 1280.7697,-347.6581"/>
</g>
<!-- Node18 -->
<g id="node10" class="node">
<title>Node18</title>
<g id="a_node10"><a xlink:href="abi-default_2schedule_8h.html" target="_top" xlink:title="ODP schedule. ">
<polygon fill="#ffffff" stroke="#000000" points="677,-280.5 677,-299.5 746,-299.5 746,-280.5 677,-280.5"/>
<text text-anchor="middle" x="711.5" y="-287.5" font-family="Helvetica,sans-Serif" font-size="10.00" fill="#000000">schedule.h</text>
</a>
</g>
</g>
<!-- Node9&#45;&gt;Node18 -->
<g id="edge9" class="edge">
<title>Node9&#45;&gt;Node18</title>
<path fill="none" stroke="#191970" d="M1280.6558,-344.5046C1182.6683,-340.8785 949.098,-329.6282 755.5,-300 752.5575,-299.5497 749.519,-299.0127 746.4779,-298.4247"/>
<polygon fill="#191970" stroke="#191970" points="1280.6988,-348.0083 1290.8185,-344.8711 1280.9512,-341.0129 1280.6988,-348.0083"/>
</g>
<!-- Node19 -->
<g id="node11" class="node">
<title>Node19</title>
<g id="a_node11"><a xlink:href="abi-default_2spinlock__recursive_8h.html" target="_top" xlink:title="ODP recursive spinlock. ">
<polygon fill="#ffffff" stroke="#000000" points="764.5,-280.5 764.5,-299.5 880.5,-299.5 880.5,-280.5 764.5,-280.5"/>
<text text-anchor="middle" x="822.5" y="-287.5" font-family="Helvetica,sans-Serif" font-size="10.00" fill="#000000">spinlock_recursive.h</text>
</a>
</g>
</g>
<!-- Node9&#45;&gt;Node19 -->
<g id="edge10" class="edge">
<title>Node9&#45;&gt;Node19</title>
<path fill="none" stroke="#191970" d="M1280.5434,-341.7448C1200.2805,-334.3201 1031.5963,-318.0572 889.5,-300 886.5833,-299.6293 883.5972,-299.2357 880.5833,-298.8271"/>
<polygon fill="#191970" stroke="#191970" points="1280.5302,-345.2583 1290.8092,-342.6908 1281.1726,-338.2878 1280.5302,-345.2583"/>
</g>
<!-- Node20 -->
<g id="node12" class="node">
<title>Node20</title>
<g id="a_node12"><a xlink:href="abi-default_2traffic__mngr_8h.html" target="_top" xlink:title="ODP traffic mngr. ">
<polygon fill="#ffffff" stroke="#000000" points="898.5,-280.5 898.5,-299.5 982.5,-299.5 982.5,-280.5 898.5,-280.5"/>
<text text-anchor="middle" x="940.5" y="-287.5" font-family="Helvetica,sans-Serif" font-size="10.00" fill="#000000">traffic_mngr.h</text>
</a>
</g>
</g>
<!-- Node9&#45;&gt;Node20 -->
<g id="edge11" class="edge">
<title>Node9&#45;&gt;Node20</title>
<path fill="none" stroke="#191970" d="M1280.6578,-340.4514C1215.6096,-332.5495 1094.3175,-317.1037 991.5,-300 988.6519,-299.5262 985.7189,-299.0146 982.7668,-298.4821"/>
<polygon fill="#191970" stroke="#191970" points="1280.2554,-343.9281 1290.6033,-341.6539 1281.0957,-336.9787 1280.2554,-343.9281"/>
</g>
<!-- Node21 -->
<g id="node13" class="node">
<title>Node21</title>
<g id="a_node13"><a xlink:href="barrier_8h.html" target="_top" xlink:title="ODP execution barriers. ">
<polygon fill="#ffffff" stroke="#000000" points="1001,-280.5 1001,-299.5 1058,-299.5 1058,-280.5 1001,-280.5"/>
<text text-anchor="middle" x="1029.5" y="-287.5" font-family="Helvetica,sans-Serif" font-size="10.00" fill="#000000">barrier.h</text>
</a>
</g>
</g>
<!-- Node9&#45;&gt;Node21 -->
<g id="edge12" class="edge">
<title>Node9&#45;&gt;Node21</title>
<path fill="none" stroke="#191970" d="M1280.9892,-339.0906C1228.5952,-331.009 1141.0222,-316.6027 1066.5,-300 1063.7722,-299.3923 1060.9435,-298.7148 1058.1205,-298.0068"/>
<polygon fill="#191970" stroke="#191970" points="1280.5701,-342.5671 1290.9847,-340.6213 1281.6298,-335.6478 1280.5701,-342.5671"/>
</g>
<!-- Node22 -->
<g id="node14" class="node">
<title>Node22</title>
<g id="a_node14"><a xlink:href="buffer_8h.html" target="_top" xlink:title="ODP buffer descriptor. ">
<polygon fill="#ffffff" stroke="#000000" points="1076,-280.5 1076,-299.5 1129,-299.5 1129,-280.5 1076,-280.5"/>
<text text-anchor="middle" x="1102.5" y="-287.5" font-family="Helvetica,sans-Serif" font-size="10.00" fill="#000000">buffer.h</text>
</a>
</g>
</g>
<!-- Node9&#45;&gt;Node22 -->
<g id="edge13" class="edge">
<title>Node9&#45;&gt;Node22</title>
<path fill="none" stroke="#191970" d="M1281.1438,-334.4625C1235.289,-323.0497 1166.6992,-305.9785 1129.2531,-296.6586"/>
<polygon fill="#191970" stroke="#191970" points="1280.2998,-337.8591 1290.8491,-336.878 1281.9905,-331.0663 1280.2998,-337.8591"/>
</g>
<!-- Node23 -->
<g id="node15" class="node">
<title>Node23</title>
<g id="a_node15"><a xlink:href="classification_8h.html" target="_top" xlink:title="ODP classification descriptor. ">
<polygon fill="#ffffff" stroke="#000000" points="1228,-56.5 1228,-75.5 1317,-75.5 1317,-56.5 1228,-56.5"/>
<text text-anchor="middle" x="1272.5" y="-63.5" font-family="Helvetica,sans-Serif" font-size="10.00" fill="#000000">classification.h</text>
</a>
</g>
</g>
<!-- Node9&#45;&gt;Node23 -->
<g id="edge14" class="edge">
<title>Node9&#45;&gt;Node23</title>
<path fill="none" stroke="#191970" d="M1281.1376,-335.5048C1249.5454,-327.5914 1207.1467,-315.4608 1171.5,-300 1155.416,-293.024 1153.8439,-286.343 1137.5,-280 1065.501,-252.0574 1016.1258,-304.0014 967.5,-244 889.3325,-147.5459 1125.6687,-92.3096 1227.8637,-73.4351"/>
<polygon fill="#191970" stroke="#191970" points="1280.4467,-338.9391 1290.9928,-337.9248 1282.116,-332.141 1280.4467,-338.9391"/>
</g>
<!-- Node26 -->
<g id="node17" class="node">
<title>Node26</title>
<g id="a_node17"><a xlink:href="crypto_8h.html" target="_top" xlink:title="ODP crypto. ">
<polygon fill="#ffffff" stroke="#000000" points="1582.5,-168.5 1582.5,-187.5 1638.5,-187.5 1638.5,-168.5 1582.5,-168.5"/>
<text text-anchor="middle" x="1610.5" y="-175.5" font-family="Helvetica,sans-Serif" font-size="10.00" fill="#000000">crypto.h</text>
</a>
</g>
</g>
<!-- Node9&#45;&gt;Node26 -->
<g id="edge16" class="edge">
<title>Node9&#45;&gt;Node26</title>
<path fill="none" stroke="#191970" d="M1374.2932,-339.1831C1458.3606,-325.8017 1629.0579,-293.0617 1659.5,-244 1672.5169,-223.0215 1645.5633,-200.2558 1626.7173,-187.699"/>
<polygon fill="#191970" stroke="#191970" points="1373.5812,-335.7519 1364.2427,-340.7563 1374.6637,-342.6677 1373.5812,-335.7519"/>
</g>
<!-- Node27 -->
<g id="node18" class="node">
<title>Node27</title>
<g id="a_node18"><a xlink:href="packet_8h.html" target="_top" xlink:title="ODP packet descriptor. ">
<polygon fill="#ffffff" stroke="#000000" points="1262,-280.5 1262,-299.5 1321,-299.5 1321,-280.5 1262,-280.5"/>
<text text-anchor="middle" x="1291.5" y="-287.5" font-family="Helvetica,sans-Serif" font-size="10.00" fill="#000000">packet.h</text>
</a>
</g>
</g>
<!-- Node9&#45;&gt;Node27 -->
<g id="edge18" class="edge">
<title>Node9&#45;&gt;Node27</title>
<path fill="none" stroke="#191970" d="M1315.6904,-327.6296C1309.6856,-318.2887 1302.6341,-307.3197 1297.6989,-299.6427"/>
<polygon fill="#191970" stroke="#191970" points="1312.8775,-329.7264 1321.2293,-336.2455 1318.7658,-325.9411 1312.8775,-329.7264"/>
</g>
<!-- Node44 -->
<g id="node22" class="node">
<title>Node44</title>
<g id="a_node22"><a xlink:href="spec_2packet__flags_8h.html" target="_top" xlink:title="ODP packet flags. ">
<polygon fill="#ffffff" stroke="#000000" points="992,-224.5 992,-243.5 1079,-243.5 1079,-224.5 992,-224.5"/>
<text text-anchor="middle" x="1035.5" y="-231.5" font-family="Helvetica,sans-Serif" font-size="10.00" fill="#000000">packet_flags.h</text>
</a>
</g>
</g>
<!-- Node9&#45;&gt;Node44 -->
<g id="edge49" class="edge">
<title>Node9&#45;&gt;Node44</title>
<path fill="none" stroke="#191970" d="M1304.7615,-330.9978C1281.609,-316.2806 1244.2725,-294.0588 1209.5,-280 1166.4824,-262.6077 1114.8225,-249.9146 1079.0219,-242.3213"/>
<polygon fill="#191970" stroke="#191970" points="1302.8896,-333.9553 1313.1925,-336.4253 1306.6787,-328.0694 1302.8896,-333.9553"/>
</g>
<!-- Node36 -->
<g id="node25" class="node">
<title>Node36</title>
<g id="a_node25"><a xlink:href="packet__io_8h.html" target="_top" xlink:title="ODP Packet IO. ">
<polygon fill="#ffffff" stroke="#000000" points="1309,-168.5 1309,-187.5 1382,-187.5 1382,-168.5 1309,-168.5"/>
<text text-anchor="middle" x="1345.5" y="-175.5" font-family="Helvetica,sans-Serif" font-size="10.00" fill="#000000">packet_io.h</text>
</a>
</g>
</g>
<!-- Node9&#45;&gt;Node36 -->
<g id="edge31" class="edge">
<title>Node9&#45;&gt;Node36</title>
<path fill="none" stroke="#191970" d="M1290.8425,-332.9254C1267.3207,-324.239 1236.2797,-312.22 1209.5,-300 1192.137,-292.077 1189.5158,-286.299 1171.5,-280 1088.7995,-251.085 924.5754,-289.7282 982.5,-224 1003.894,-199.7238 1221.177,-184.9515 1308.9814,-179.9327"/>
<polygon fill="#191970" stroke="#191970" points="1289.8348,-336.2836 1300.4286,-336.4349 1292.2414,-329.7103 1289.8348,-336.2836"/>
</g>
<!-- Node38 -->
<g id="node27" class="node">
<title>Node38</title>
<g id="a_node27"><a xlink:href="spec_2traffic__mngr_8h.html" target="_top" xlink:title="Copyright (c) 2015&#45;2018, Linaro Limited All rights reserved. ">
<polygon fill="#ffffff" stroke="#ff0000" points="1373.5,-112.5 1373.5,-131.5 1457.5,-131.5 1457.5,-112.5 1373.5,-112.5"/>
<text text-anchor="middle" x="1415.5" y="-119.5" font-family="Helvetica,sans-Serif" font-size="10.00" fill="#000000">traffic_mngr.h</text>
</a>
</g>
</g>
<!-- Node9&#45;&gt;Node38 -->
<g id="edge56" class="edge">
<title>Node9&#45;&gt;Node38</title>
<path fill="none" stroke="#191970" d="M1360.7525,-331.6639C1374.0701,-324.1918 1388.1979,-313.7077 1396.5,-300 1430.3101,-244.1759 1421.4358,-160.1598 1417.155,-131.7689"/>
<polygon fill="#191970" stroke="#191970" points="1358.9944,-328.6332 1351.7436,-336.3583 1362.2292,-334.841 1358.9944,-328.6332"/>
</g>
<!-- Node34 -->
<g id="node28" class="node">
<title>Node34</title>
<g id="a_node28"><a xlink:href="queue_8h.html" target="_top" xlink:title="ODP queue. ">
<polygon fill="#ffffff" stroke="#000000" points="1481.5,-280.5 1481.5,-299.5 1537.5,-299.5 1537.5,-280.5 1481.5,-280.5"/>
<text text-anchor="middle" x="1509.5" y="-287.5" font-family="Helvetica,sans-Serif" font-size="10.00" fill="#000000">queue.h</text>
</a>
</g>
</g>
<!-- Node9&#45;&gt;Node34 -->
<g id="edge32" class="edge">
<title>Node9&#45;&gt;Node34</title>
<path fill="none" stroke="#191970" d="M1368.5378,-333.373C1402.9302,-322.7907 1451.121,-307.9628 1481.3081,-298.6744"/>
<polygon fill="#191970" stroke="#191970" points="1367.3154,-330.0871 1358.7869,-336.3733 1369.374,-336.7776 1367.3154,-330.0871"/>
</g>
<!-- Node42 -->
<g id="node30" class="node">
<title>Node42</title>
<g id="a_node30"><a xlink:href="spec_2schedule_8h.html" target="_top" xlink:title="ODP schedule. ">
<polygon fill="#ffffff" stroke="#000000" points="1444,-224.5 1444,-243.5 1513,-243.5 1513,-224.5 1444,-224.5"/>
<text text-anchor="middle" x="1478.5" y="-231.5" font-family="Helvetica,sans-Serif" font-size="10.00" fill="#000000">schedule.h</text>
</a>
</g>
</g>
<!-- Node9&#45;&gt;Node42 -->
<g id="edge52" class="edge">
<title>Node9&#45;&gt;Node42</title>
<path fill="none" stroke="#191970" d="M1368.8726,-332.8535C1388.5586,-325.2829 1411.6378,-314.383 1429.5,-300 1449.5078,-283.8894 1465.6045,-257.8049 1473.3985,-243.7372"/>
<polygon fill="#191970" stroke="#191970" points="1367.4009,-329.6656 1359.2269,-336.4062 1369.8203,-336.2342 1367.4009,-329.6656"/>
</g>
<!-- Node46 -->
<g id="node32" class="node">
<title>Node46</title>
<g id="a_node32"><a xlink:href="spec_2chksum_8h.html" target="_top" xlink:title="ODP checksum functions. ">
<polygon fill="#ffffff" stroke="#000000" points="1660.5,-280.5 1660.5,-299.5 1724.5,-299.5 1724.5,-280.5 1660.5,-280.5"/>
<text text-anchor="middle" x="1692.5" y="-287.5" font-family="Helvetica,sans-Serif" font-size="10.00" fill="#000000">chksum.h</text>
</a>
</g>
</g>
<!-- Node9&#45;&gt;Node46 -->
<g id="edge38" class="edge">
<title>Node9&#45;&gt;Node46</title>
<path fill="none" stroke="#191970" d="M1374.4025,-340.2936C1436.7498,-332.4668 1550.2637,-317.3766 1646.5,-300 1651.0038,-299.1868 1655.7384,-298.2508 1660.3873,-297.2847"/>
<polygon fill="#191970" stroke="#191970" points="1373.9668,-336.8207 1364.4773,-341.5323 1374.8338,-343.7668 1373.9668,-336.8207"/>
</g>
<!-- Node48 -->
<g id="node34" class="node">
<title>Node48</title>
<g id="a_node34"><a xlink:href="spec_2cpu_8h.html" target="_top" xlink:title="ODP CPU API. ">
<polygon fill="#ffffff" stroke="#000000" points="1743,-280.5 1743,-299.5 1786,-299.5 1786,-280.5 1743,-280.5"/>
<text text-anchor="middle" x="1764.5" y="-287.5" font-family="Helvetica,sans-Serif" font-size="10.00" fill="#000000">cpu.h</text>
</a>
</g>
</g>
<!-- Node9&#45;&gt;Node48 -->
<g id="edge40" class="edge">
<title>Node9&#45;&gt;Node48</title>
<path fill="none" stroke="#191970" d="M1374.2057,-343.7359C1450.2388,-339.3761 1605.1842,-327.6758 1733.5,-300 1736.5956,-299.3323 1739.8203,-298.4782 1742.9695,-297.5512"/>
<polygon fill="#191970" stroke="#191970" points="1373.8019,-340.2528 1364.0119,-344.3032 1374.1909,-347.242 1373.8019,-340.2528"/>
</g>
<!-- Node51 -->
<g id="node36" class="node">
<title>Node51</title>
<g id="a_node36"><a xlink:href="spec_2feature_8h.html" target="_top" xlink:title="ODP features. ">
<polygon fill="#ffffff" stroke="#000000" points="1843,-280.5 1843,-299.5 1904,-299.5 1904,-280.5 1843,-280.5"/>
<text text-anchor="middle" x="1873.5" y="-287.5" font-family="Helvetica,sans-Serif" font-size="10.00" fill="#000000">feature.h</text>
</a>
</g>
</g>
<!-- Node9&#45;&gt;Node51 -->
<g id="edge42" class="edge">
<title>Node9&#45;&gt;Node51</title>
<path fill="none" stroke="#191970" d="M1374.1828,-343.6993C1463.0495,-338.8809 1662.4807,-325.9605 1828.5,-300 1833.0861,-299.2829 1837.9039,-298.3774 1842.6132,-297.4057"/>
<polygon fill="#191970" stroke="#191970" points="1373.9554,-340.2063 1364.1559,-344.2338 1374.3281,-347.1964 1373.9554,-340.2063"/>
</g>
<!-- Node53 -->
<g id="node38" class="node">
<title>Node53</title>
<g id="a_node38"><a xlink:href="spec_2init_8h.html" target="_top" xlink:title="init.h">
<polygon fill="#ffffff" stroke="#000000" points="1890,-168.5 1890,-187.5 1931,-187.5 1931,-168.5 1890,-168.5"/>
<text text-anchor="middle" x="1910.5" y="-175.5" font-family="Helvetica,sans-Serif" font-size="10.00" fill="#000000">init.h</text>
</a>
</g>
</g>
<!-- Node9&#45;&gt;Node53 -->
<g id="edge48" class="edge">
<title>Node9&#45;&gt;Node53</title>
<path fill="none" stroke="#191970" d="M1374.1554,-344.8784C1476.8765,-341.852 1719.4167,-331.4967 1794.5,-300 1849.7501,-276.8231 1890.8988,-212.5329 1905.1012,-187.8371"/>
<polygon fill="#191970" stroke="#191970" points="1373.9757,-341.382 1364.0792,-345.1648 1374.1746,-348.3792 1373.9757,-341.382"/>
</g>
<!-- Node58 -->
<g id="node40" class="node">
<title>Node58</title>
<g id="a_node40"><a xlink:href="spec_2hash_8h.html" target="_top" xlink:title="ODP Hash functions. ">
<polygon fill="#ffffff" stroke="#000000" points="1922,-280.5 1922,-299.5 1971,-299.5 1971,-280.5 1922,-280.5"/>
<text text-anchor="middle" x="1946.5" y="-287.5" font-family="Helvetica,sans-Serif" font-size="10.00" fill="#000000">hash.h</text>
</a>
</g>
</g>
<!-- Node9&#45;&gt;Node58 -->
<g id="edge46" class="edge">
<title>Node9&#45;&gt;Node58</title>
<path fill="none" stroke="#191970" d="M1374.7132,-343.5554C1494.7797,-337.1353 1809.533,-318.9775 1912.5,-300 1915.5254,-299.4424 1918.6661,-298.7211 1921.7615,-297.9214"/>
<polygon fill="#191970" stroke="#191970" points="1374.1853,-340.0785 1364.3852,-344.1044 1374.5569,-347.0686 1374.1853,-340.0785"/>
</g>
<!-- Node60 -->
<g id="node42" class="node">
<title>Node60</title>
<g id="a_node42"><a xlink:href="spec_2pool_8h.html" target="_top" xlink:title="ODP pool. ">
<polygon fill="#ffffff" stroke="#000000" points="1989,-280.5 1989,-299.5 2036,-299.5 2036,-280.5 1989,-280.5"/>
<text text-anchor="middle" x="2012.5" y="-287.5" font-family="Helvetica,sans-Serif" font-size="10.00" fill="#000000">pool.h</text>
</a>
</g>
</g>
<!-- Node9&#45;&gt;Node60 -->
<g id="edge50" class="edge">
<title>Node9&#45;&gt;Node60</title>
<path fill="none" stroke="#191970" d="M1374.3889,-344.1148C1503.7912,-338.6865 1864.0215,-321.9915 1980.5,-300 1983.2453,-299.4817 1986.0862,-298.8062 1988.8902,-298.0506"/>
<polygon fill="#191970" stroke="#191970" points="1374.2388,-340.6179 1364.393,-344.5309 1374.53,-347.6119 1374.2388,-340.6179"/>
</g>
<!-- Node63 -->
<g id="node44" class="node">
<title>Node63</title>
<g id="a_node44"><a xlink:href="spec_2stash_8h.html" target="_top" xlink:title="ODP stash. ">
<polygon fill="#ffffff" stroke="#ff0000" points="2054.5,-280.5 2054.5,-299.5 2106.5,-299.5 2106.5,-280.5 2054.5,-280.5"/>
<text text-anchor="middle" x="2080.5" y="-287.5" font-family="Helvetica,sans-Serif" font-size="10.00" fill="#000000">stash.h</text>
</a>
</g>
</g>
<!-- Node9&#45;&gt;Node63 -->
<g id="edge53" class="edge">
<title>Node9&#45;&gt;Node63</title>
<path fill="none" stroke="#191970" d="M1374.6928,-344.2982C1513.0053,-339.1013 1915.795,-322.4169 2045.5,-300 2048.3645,-299.5049 2051.3297,-298.8649 2054.2668,-298.148"/>
<polygon fill="#191970" stroke="#191970" points="1374.2934,-340.8106 1364.4308,-344.6809 1374.5544,-347.8057 1374.2934,-340.8106"/>
</g>
<!-- Node65 -->
<g id="node45" class="node">
<title>Node65</title>
<g id="a_node45"><a xlink:href="spec_2threshold_8h.html" target="_top" xlink:title="ODP threshold descriptor. ">
<polygon fill="#ffffff" stroke="#ff0000" points="2125,-280.5 2125,-299.5 2196,-299.5 2196,-280.5 2125,-280.5"/>
<text text-anchor="middle" x="2160.5" y="-287.5" font-family="Helvetica,sans-Serif" font-size="10.00" fill="#000000">threshold.h</text>
</a>
</g>
</g>
<!-- Node9&#45;&gt;Node65 -->
<g id="edge54" class="edge">
<title>Node9&#45;&gt;Node65</title>
<path fill="none" stroke="#191970" d="M1374.2149,-344.2585C1520.8583,-338.6363 1970.8599,-320.1601 2115.5,-300 2118.5121,-299.5802 2121.6214,-299.0647 2124.7328,-298.4911"/>
<polygon fill="#191970" stroke="#191970" points="1374.0485,-340.7622 1364.1892,-344.6409 1374.3153,-347.7571 1374.0485,-340.7622"/>
</g>
<!-- Node67 -->
<g id="node46" class="node">
<title>Node67</title>
<g id="a_node46"><a xlink:href="spec_2thrmask_8h.html" target="_top" xlink:title="ODP thread masks. ">
<polygon fill="#ffffff" stroke="#ff0000" points="2214.5,-280.5 2214.5,-299.5 2280.5,-299.5 2280.5,-280.5 2214.5,-280.5"/>
<text text-anchor="middle" x="2247.5" y="-287.5" font-family="Helvetica,sans-Serif" font-size="10.00" fill="#000000">thrmask.h</text>
</a>
</g>
</g>
<!-- Node9&#45;&gt;Node67 -->
<g id="edge55" class="edge">
<title>Node9&#45;&gt;Node67</title>
<path fill="none" stroke="#191970" d="M1374.6815,-344.658C1532.7562,-339.9848 2042.8594,-323.4247 2205.5,-300 2208.3192,-299.594 2211.2269,-299.0881 2214.1346,-298.5211"/>
<polygon fill="#191970" stroke="#191970" points="1374.2442,-341.1693 1364.3513,-344.9613 1374.4497,-348.1662 1374.2442,-341.1693"/>
</g>
<!-- Node69 -->
<g id="node47" class="node">
<title>Node69</title>
<g id="a_node47"><a xlink:href="system__info_8h.html" target="_top" xlink:title="ODP system information. ">
<polygon fill="#ffffff" stroke="#000000" points="2298.5,-280.5 2298.5,-299.5 2384.5,-299.5 2384.5,-280.5 2298.5,-280.5"/>
<text text-anchor="middle" x="2341.5" y="-287.5" font-family="Helvetica,sans-Serif" font-size="10.00" fill="#000000">system_info.h</text>
</a>
</g>
</g>
<!-- Node9&#45;&gt;Node69 -->
<g id="edge57" class="edge">
<title>Node9&#45;&gt;Node69</title>
<path fill="none" stroke="#191970" d="M1374.3499,-344.644C1541.6287,-339.6644 2109.0821,-321.5505 2289.5,-300 2292.4211,-299.6511 2295.4244,-299.2332 2298.4437,-298.7689"/>
<polygon fill="#191970" stroke="#191970" points="1374.0392,-341.1516 1364.1472,-344.9462 1374.2465,-348.1485 1374.0392,-341.1516"/>
</g>
<!-- Node70 -->
<g id="node48" class="node">
<title>Node70</title>
<g id="a_node48"><a xlink:href="time_8h.html" target="_top" xlink:title="ODP time. ">
<polygon fill="#ffffff" stroke="#ff0000" points="1339.5,-280.5 1339.5,-299.5 1387.5,-299.5 1387.5,-280.5 1339.5,-280.5"/>
<text text-anchor="middle" x="1363.5" y="-287.5" font-family="Helvetica,sans-Serif" font-size="10.00" fill="#000000">time.h</text>
</a>
</g>
</g>
<!-- Node9&#45;&gt;Node70 -->
<g id="edge58" class="edge">
<title>Node9&#45;&gt;Node70</title>
<path fill="none" stroke="#191970" d="M1339.3096,-327.6296C1345.3144,-318.2887 1352.3659,-307.3197 1357.3011,-299.6427"/>
<polygon fill="#191970" stroke="#191970" points="1336.2342,-325.9411 1333.7707,-336.2455 1342.1225,-329.7264 1336.2342,-325.9411"/>
</g>
<!-- Node72 -->
<g id="node49" class="node">
<title>Node72</title>
<g id="a_node49"><a xlink:href="timer_8h.html" target="_top" xlink:title="ODP timer service. ">
<polygon fill="#ffffff" stroke="#000000" points="2403,-280.5 2403,-299.5 2454,-299.5 2454,-280.5 2403,-280.5"/>
<text text-anchor="middle" x="2428.5" y="-287.5" font-family="Helvetica,sans-Serif" font-size="10.00" fill="#000000">timer.h</text>
</a>
</g>
</g>
<!-- Node9&#45;&gt;Node72 -->
<g id="edge60" class="edge">
<title>Node9&#45;&gt;Node72</title>
<path fill="none" stroke="#191970" d="M1374.3859,-345.4415C1553.281,-343.0833 2192.9269,-332.515 2393.5,-300 2396.4943,-299.5146 2399.5962,-298.8597 2402.6601,-298.1158"/>
<polygon fill="#191970" stroke="#191970" points="1374.2044,-341.9434 1364.2506,-345.5727 1374.2951,-348.9429 1374.2044,-341.9434"/>
</g>
<!-- Node73 -->
<g id="node50" class="node">
<title>Node73</title>
<g id="a_node50"><a xlink:href="strong__types_8h.html" target="_top" xlink:title="ODP Strong Types. ">
<polygon fill="#ffffff" stroke="#000000" points="2472,-280.5 2472,-299.5 2561,-299.5 2561,-280.5 2472,-280.5"/>
<text text-anchor="middle" x="2516.5" y="-287.5" font-family="Helvetica,sans-Serif" font-size="10.00" fill="#000000">strong_types.h</text>
</a>
</g>
</g>
<!-- Node9&#45;&gt;Node73 -->
<g id="edge61" class="edge">
<title>Node9&#45;&gt;Node73</title>
<path fill="none" stroke="#191970" d="M1374.2687,-345.0183C1560.1738,-340.9747 2247.1931,-324.6522 2463.5,-300 2466.198,-299.6925 2468.9649,-299.3264 2471.7504,-298.9188"/>
<polygon fill="#191970" stroke="#191970" points="1373.9377,-341.5245 1364.0157,-345.2399 1374.089,-348.5229 1373.9377,-341.5245"/>
</g>
<!-- Node24 -->
<g id="node16" class="node">
<title>Node24</title>
<g id="a_node16"><a xlink:href="spec_2ipsec_8h.html" target="_top" xlink:title="ODP IPSEC API. ">
<polygon fill="#ffffff" stroke="#ff0000" points="1320,-.5 1320,-19.5 1371,-19.5 1371,-.5 1320,-.5"/>
<text text-anchor="middle" x="1345.5" y="-7.5" font-family="Helvetica,sans-Serif" font-size="10.00" fill="#000000">ipsec.h</text>
</a>
</g>
</g>
<!-- Node23&#45;&gt;Node24 -->
<g id="edge15" class="edge">
<title>Node23&#45;&gt;Node24</title>
<path fill="none" stroke="#191970" d="M1293.451,-49.928C1306.2107,-40.1397 1322.0885,-27.9595 1332.9301,-19.6427"/>
<polygon fill="#191970" stroke="#191970" points="1291.0196,-47.3819 1285.2156,-56.2455 1295.2803,-52.9359 1291.0196,-47.3819"/>
</g>
<!-- Node26&#45;&gt;Node24 -->
<g id="edge17" class="edge">
<title>Node26&#45;&gt;Node24</title>
<path fill="none" stroke="#191970" d="M1587.0375,-163.1256C1533.763,-129.3516 1404.8694,-47.638 1360.6707,-19.6177"/>
<polygon fill="#191970" stroke="#191970" points="1585.1733,-166.0879 1595.4932,-168.4862 1588.9214,-160.1758 1585.1733,-166.0879"/>
</g>
<!-- Node28 -->
<g id="node19" class="node">
<title>Node28</title>
<g id="a_node19"><a xlink:href="spec_2comp_8h.html" target="_top" xlink:title="ODP Compression. ">
<polygon fill="#ffffff" stroke="#ff0000" points="1097,-224.5 1097,-243.5 1150,-243.5 1150,-224.5 1097,-224.5"/>
<text text-anchor="middle" x="1123.5" y="-231.5" font-family="Helvetica,sans-Serif" font-size="10.00" fill="#000000">comp.h</text>
</a>
</g>
</g>
<!-- Node27&#45;&gt;Node28 -->
<g id="edge19" class="edge">
<title>Node27&#45;&gt;Node28</title>
<path fill="none" stroke="#191970" d="M1252.8593,-277.1198C1221.3729,-266.6243 1177.7413,-252.0804 1150.0672,-242.8557"/>
<polygon fill="#191970" stroke="#191970" points="1252.0261,-280.5313 1262.6198,-280.3733 1254.2398,-273.8905 1252.0261,-280.5313"/>
</g>
<!-- Node30 -->
<g id="node20" class="node">
<title>Node30</title>
<g id="a_node20"><a xlink:href="spec_2crypto_8h.html" target="_top" xlink:title="ODP crypto. ">
<polygon fill="#ffffff" stroke="#000000" points="1239.5,-224.5 1239.5,-243.5 1295.5,-243.5 1295.5,-224.5 1239.5,-224.5"/>
<text text-anchor="middle" x="1267.5" y="-231.5" font-family="Helvetica,sans-Serif" font-size="10.00" fill="#000000">crypto.h</text>
</a>
</g>
</g>
<!-- Node27&#45;&gt;Node30 -->
<g id="edge20" class="edge">
<title>Node27&#45;&gt;Node30</title>
<path fill="none" stroke="#191970" d="M1283.3759,-271.0437C1279.4285,-261.8331 1274.8542,-251.1598 1271.6326,-243.6427"/>
<polygon fill="#191970" stroke="#191970" points="1280.1633,-272.4328 1287.3195,-280.2455 1286.5973,-269.6753 1280.1633,-272.4328"/>
</g>
<!-- Node31 -->
<g id="node21" class="node">
<title>Node31</title>
<g id="a_node21"><a xlink:href="spec_2event_8h.html" target="_top" xlink:title="ODP event. ">
<polygon fill="#ffffff" stroke="#ff0000" points="1168,-224.5 1168,-243.5 1221,-243.5 1221,-224.5 1168,-224.5"/>
<text text-anchor="middle" x="1194.5" y="-231.5" font-family="Helvetica,sans-Serif" font-size="10.00" fill="#000000">event.h</text>
</a>
</g>
</g>
<!-- Node27&#45;&gt;Node31 -->
<g id="edge22" class="edge">
<title>Node27&#45;&gt;Node31</title>
<path fill="none" stroke="#191970" d="M1265.5984,-275.0465C1248.3391,-265.0824 1226.1624,-252.2794 1211.2025,-243.6427"/>
<polygon fill="#191970" stroke="#191970" points="1264.1936,-278.2768 1274.6039,-280.2455 1267.6935,-272.2146 1264.1936,-278.2768"/>
</g>
<!-- Node27&#45;&gt;Node44 -->
<g id="edge23" class="edge">
<title>Node27&#45;&gt;Node44</title>
<path fill="none" stroke="#191970" d="M1251.8681,-280.9737C1250.3937,-280.644 1248.9339,-280.3185 1247.5,-280 1189.4098,-267.0969 1122.2696,-252.5987 1079.3782,-243.3895"/>
<polygon fill="#191970" stroke="#191970" points="1251.1625,-284.4024 1261.6869,-283.1827 1252.699,-277.5731 1251.1625,-284.4024"/>
</g>
<!-- Node35 -->
<g id="node24" class="node">
<title>Node35</title>
<g id="a_node24"><a xlink:href="spec_2packet__io_8h.html" target="_top" xlink:title="ODP Packet IO. ">
<polygon fill="#ffffff" stroke="#000000" points="1314,-224.5 1314,-243.5 1387,-243.5 1387,-224.5 1314,-224.5"/>
<text text-anchor="middle" x="1350.5" y="-231.5" font-family="Helvetica,sans-Serif" font-size="10.00" fill="#000000">packet_io.h</text>
</a>
</g>
</g>
<!-- Node27&#45;&gt;Node35 -->
<g id="edge25" class="edge">
<title>Node27&#45;&gt;Node35</title>
<path fill="none" stroke="#191970" d="M1309.0307,-273.3607C1319.2377,-263.6727 1331.7469,-251.7995 1340.3408,-243.6427"/>
<polygon fill="#191970" stroke="#191970" points="1306.6206,-270.8227 1301.777,-280.2455 1311.4396,-275.8998 1306.6206,-270.8227"/>
</g>
<!-- Node30&#45;&gt;Node26 -->
<g id="edge21" class="edge">
<title>Node30&#45;&gt;Node26</title>
<path fill="none" stroke="#191970" d="M1305.7477,-223.9271C1413.3264,-201.8117 1530.0067,-187.1975 1582.4625,-181.1224"/>
<polygon fill="#191970" stroke="#191970" points="1304.7771,-220.5541 1295.7012,-226.0202 1306.2049,-227.4069 1304.7771,-220.5541"/>
</g>
<!-- Node45 -->
<g id="node23" class="node">
<title>Node45</title>
<g id="a_node23"><a xlink:href="packet__flags_8h.html" target="_top" xlink:title="ODP packet flags. ">
<polygon fill="#ffffff" stroke="#000000" points="992,-168.5 992,-187.5 1079,-187.5 1079,-168.5 992,-168.5"/>
<text text-anchor="middle" x="1035.5" y="-175.5" font-family="Helvetica,sans-Serif" font-size="10.00" fill="#000000">packet_flags.h</text>
</a>
</g>
</g>
<!-- Node44&#45;&gt;Node45 -->
<g id="edge24" class="edge">
<title>Node44&#45;&gt;Node45</title>
<path fill="none" stroke="#191970" d="M1035.5,-214.1575C1035.5,-205.155 1035.5,-194.9199 1035.5,-187.6427"/>
<polygon fill="#191970" stroke="#191970" points="1032.0001,-214.2455 1035.5,-224.2455 1039.0001,-214.2456 1032.0001,-214.2455"/>
</g>
<!-- Node35&#45;&gt;Node36 -->
<g id="edge26" class="edge">
<title>Node35&#45;&gt;Node36</title>
<path fill="none" stroke="#191970" d="M1348.7283,-214.1575C1347.9246,-205.155 1347.0107,-194.9199 1346.361,-187.6427"/>
<polygon fill="#191970" stroke="#191970" points="1345.2535,-214.5965 1349.6291,-224.2455 1352.2258,-213.9739 1345.2535,-214.5965"/>
</g>
<!-- Node36&#45;&gt;Node24 -->
<g id="edge29" class="edge">
<title>Node36&#45;&gt;Node24</title>
<path fill="none" stroke="#191970" d="M1345.5,-158.2601C1345.5,-122.1669 1345.5,-46.7656 1345.5,-19.8279"/>
<polygon fill="#191970" stroke="#191970" points="1342.0001,-158.4862 1345.5,-168.4862 1349.0001,-158.4863 1342.0001,-158.4862"/>
</g>
<!-- Node37 -->
<g id="node26" class="node">
<title>Node37</title>
<g id="a_node26"><a xlink:href="spec_2classification_8h.html" target="_top" xlink:title="ODP classification descriptor. ">
<polygon fill="#ffffff" stroke="#000000" points="1228,-112.5 1228,-131.5 1317,-131.5 1317,-112.5 1228,-112.5"/>
<text text-anchor="middle" x="1272.5" y="-119.5" font-family="Helvetica,sans-Serif" font-size="10.00" fill="#000000">classification.h</text>
</a>
</g>
</g>
<!-- Node36&#45;&gt;Node37 -->
<g id="edge27" class="edge">
<title>Node36&#45;&gt;Node37</title>
<path fill="none" stroke="#191970" d="M1324.549,-161.928C1311.7893,-152.1397 1295.9115,-139.9595 1285.0699,-131.6427"/>
<polygon fill="#191970" stroke="#191970" points="1322.7197,-164.9359 1332.7844,-168.2455 1326.9804,-159.3819 1322.7197,-164.9359"/>
</g>
<!-- Node36&#45;&gt;Node38 -->
<g id="edge30" class="edge">
<title>Node36&#45;&gt;Node38</title>
<path fill="none" stroke="#191970" d="M1365.59,-161.928C1377.8253,-152.1397 1393.0507,-139.9595 1403.4467,-131.6427"/>
<polygon fill="#191970" stroke="#191970" points="1363.3153,-159.2655 1357.6931,-168.2455 1367.6882,-164.7316 1363.3153,-159.2655"/>
</g>
<!-- Node37&#45;&gt;Node23 -->
<g id="edge28" class="edge">
<title>Node37&#45;&gt;Node23</title>
<path fill="none" stroke="#191970" d="M1272.5,-102.1575C1272.5,-93.155 1272.5,-82.9199 1272.5,-75.6427"/>
<polygon fill="#191970" stroke="#191970" points="1269.0001,-102.2455 1272.5,-112.2455 1276.0001,-102.2456 1269.0001,-102.2455"/>
</g>
<!-- Node34&#45;&gt;Node26 -->
<g id="edge33" class="edge">
<title>Node34&#45;&gt;Node26</title>
<path fill="none" stroke="#191970" d="M1547.5787,-281.9786C1582.7634,-273.703 1631.2441,-259.8032 1642.5,-244 1655.65,-225.5376 1635.0426,-200.8412 1621.2641,-187.5057"/>
<polygon fill="#191970" stroke="#191970" points="1546.5646,-278.62 1537.5965,-284.2613 1548.1251,-285.4439 1546.5646,-278.62"/>
</g>
<!-- Node34&#45;&gt;Node35 -->
<g id="edge34" class="edge">
<title>Node34&#45;&gt;Node35</title>
<path fill="none" stroke="#191970" d="M1472.371,-276.9231C1443.305,-266.686 1403.5631,-252.6889 1377.4764,-243.5011"/>
<polygon fill="#191970" stroke="#191970" points="1471.5721,-280.3524 1482.1669,-280.3733 1473.8975,-273.75 1471.5721,-280.3524"/>
</g>
<!-- Node40 -->
<g id="node29" class="node">
<title>Node40</title>
<g id="a_node29"><a xlink:href="spec_2packet__io__stats_8h.html" target="_top" xlink:title="ODP Packet IO statistics. ">
<polygon fill="#ffffff" stroke="#ff0000" points="1531.5,-224.5 1531.5,-243.5 1633.5,-243.5 1633.5,-224.5 1531.5,-224.5"/>
<text text-anchor="middle" x="1582.5" y="-231.5" font-family="Helvetica,sans-Serif" font-size="10.00" fill="#000000">packet_io_stats.h</text>
</a>
</g>
</g>
<!-- Node34&#45;&gt;Node40 -->
<g id="edge35" class="edge">
<title>Node34&#45;&gt;Node40</title>
<path fill="none" stroke="#191970" d="M1530.451,-273.928C1543.2107,-264.1397 1559.0885,-251.9595 1569.9301,-243.6427"/>
<polygon fill="#191970" stroke="#191970" points="1528.0196,-271.3819 1522.2156,-280.2455 1532.2803,-276.9359 1528.0196,-271.3819"/>
</g>
<!-- Node34&#45;&gt;Node42 -->
<g id="edge36" class="edge">
<title>Node34&#45;&gt;Node42</title>
<path fill="none" stroke="#191970" d="M1499.1688,-271.3372C1494.0335,-262.0605 1488.0434,-251.2398 1483.8379,-243.6427"/>
<polygon fill="#191970" stroke="#191970" points="1496.1949,-273.1917 1504.1002,-280.2455 1502.3191,-269.8015 1496.1949,-273.1917"/>
</g>
<!-- Node43 -->
<g id="node31" class="node">
<title>Node43</title>
<g id="a_node31"><a xlink:href="schedule_8h.html" target="_top" xlink:title="ODP schedule. ">
<polygon fill="#ffffff" stroke="#000000" points="1444,-168.5 1444,-187.5 1513,-187.5 1513,-168.5 1444,-168.5"/>
<text text-anchor="middle" x="1478.5" y="-175.5" font-family="Helvetica,sans-Serif" font-size="10.00" fill="#000000">schedule.h</text>
</a>
</g>
</g>
<!-- Node42&#45;&gt;Node43 -->
<g id="edge37" class="edge">
<title>Node42&#45;&gt;Node43</title>
<path fill="none" stroke="#191970" d="M1478.5,-214.1575C1478.5,-205.155 1478.5,-194.9199 1478.5,-187.6427"/>
<polygon fill="#191970" stroke="#191970" points="1475.0001,-214.2455 1478.5,-224.2455 1482.0001,-214.2456 1475.0001,-214.2455"/>
</g>
<!-- Node47 -->
<g id="node33" class="node">
<title>Node47</title>
<g id="a_node33"><a xlink:href="chksum_8h.html" target="_top" xlink:title="ODP checksum functions. ">
<polygon fill="#ffffff" stroke="#000000" points="1727.5,-224.5 1727.5,-243.5 1791.5,-243.5 1791.5,-224.5 1727.5,-224.5"/>
<text text-anchor="middle" x="1759.5" y="-231.5" font-family="Helvetica,sans-Serif" font-size="10.00" fill="#000000">chksum.h</text>
</a>
</g>
</g>
<!-- Node46&#45;&gt;Node47 -->
<g id="edge39" class="edge">
<title>Node46&#45;&gt;Node47</title>
<path fill="none" stroke="#191970" d="M1712.0676,-273.645C1723.7198,-263.9058 1738.1084,-251.8795 1747.9632,-243.6427"/>
<polygon fill="#191970" stroke="#191970" points="1709.5988,-271.1469 1704.1705,-280.2455 1714.0879,-276.5179 1709.5988,-271.1469"/>
</g>
<!-- Node49 -->
<g id="node35" class="node">
<title>Node49</title>
<g id="a_node35"><a xlink:href="cpu_8h.html" target="_top" xlink:title="ODP CPU. ">
<polygon fill="#ffffff" stroke="#ff0000" points="1810,-224.5 1810,-243.5 1853,-243.5 1853,-224.5 1810,-224.5"/>
<text text-anchor="middle" x="1831.5" y="-231.5" font-family="Helvetica,sans-Serif" font-size="10.00" fill="#000000">cpu.h</text>
</a>
</g>
</g>
<!-- Node48&#45;&gt;Node49 -->
<g id="edge41" class="edge">
<title>Node48&#45;&gt;Node49</title>
<path fill="none" stroke="#191970" d="M1784.0676,-273.645C1795.7198,-263.9058 1810.1084,-251.8795 1819.9632,-243.6427"/>
<polygon fill="#191970" stroke="#191970" points="1781.5988,-271.1469 1776.1705,-280.2455 1786.0879,-276.5179 1781.5988,-271.1469"/>
</g>
<!-- Node52 -->
<g id="node37" class="node">
<title>Node52</title>
<g id="a_node37"><a xlink:href="feature_8h.html" target="_top" xlink:title="ODP features. ">
<polygon fill="#ffffff" stroke="#000000" points="1910,-224.5 1910,-243.5 1971,-243.5 1971,-224.5 1910,-224.5"/>
<text text-anchor="middle" x="1940.5" y="-231.5" font-family="Helvetica,sans-Serif" font-size="10.00" fill="#000000">feature.h</text>
</a>
</g>
</g>
<!-- Node51&#45;&gt;Node52 -->
<g id="edge43" class="edge">
<title>Node51&#45;&gt;Node52</title>
<path fill="none" stroke="#191970" d="M1893.0676,-273.645C1904.7198,-263.9058 1919.1084,-251.8795 1928.9632,-243.6427"/>
<polygon fill="#191970" stroke="#191970" points="1890.5988,-271.1469 1885.1705,-280.2455 1895.0879,-276.5179 1890.5988,-271.1469"/>
</g>
<!-- Node52&#45;&gt;Node53 -->
<g id="edge44" class="edge">
<title>Node52&#45;&gt;Node53</title>
<path fill="none" stroke="#191970" d="M1930.502,-215.3372C1925.5324,-206.0605 1919.7356,-195.2398 1915.6657,-187.6427"/>
<polygon fill="#191970" stroke="#191970" points="1927.4669,-217.0835 1935.2744,-224.2455 1933.6373,-213.7779 1927.4669,-217.0835"/>
</g>
<!-- Node54 -->
<g id="node39" class="node">
<title>Node54</title>
<g id="a_node39"><a xlink:href="init_8h.html" target="_top" xlink:title="ODP initialization. ">
<polygon fill="#ffffff" stroke="#ff0000" points="1890,-112.5 1890,-131.5 1931,-131.5 1931,-112.5 1890,-112.5"/>
<text text-anchor="middle" x="1910.5" y="-119.5" font-family="Helvetica,sans-Serif" font-size="10.00" fill="#000000">init.h</text>
</a>
</g>
</g>
<!-- Node53&#45;&gt;Node54 -->
<g id="edge45" class="edge">
<title>Node53&#45;&gt;Node54</title>
<path fill="none" stroke="#191970" d="M1910.5,-158.1575C1910.5,-149.155 1910.5,-138.9199 1910.5,-131.6427"/>
<polygon fill="#191970" stroke="#191970" points="1907.0001,-158.2455 1910.5,-168.2455 1914.0001,-158.2456 1907.0001,-158.2455"/>
</g>
<!-- Node59 -->
<g id="node41" class="node">
<title>Node59</title>
<g id="a_node41"><a xlink:href="hash_8h.html" target="_top" xlink:title="ODP Hash function. ">
<polygon fill="#ffffff" stroke="#000000" points="1989,-224.5 1989,-243.5 2038,-243.5 2038,-224.5 1989,-224.5"/>
<text text-anchor="middle" x="2013.5" y="-231.5" font-family="Helvetica,sans-Serif" font-size="10.00" fill="#000000">hash.h</text>
</a>
</g>
</g>
<!-- Node58&#45;&gt;Node59 -->
<g id="edge47" class="edge">
<title>Node58&#45;&gt;Node59</title>
<path fill="none" stroke="#191970" d="M1966.0676,-273.645C1977.7198,-263.9058 1992.1084,-251.8795 2001.9632,-243.6427"/>
<polygon fill="#191970" stroke="#191970" points="1963.5988,-271.1469 1958.1705,-280.2455 1968.0879,-276.5179 1963.5988,-271.1469"/>
</g>
<!-- Node61 -->
<g id="node43" class="node">
<title>Node61</title>
<g id="a_node43"><a xlink:href="pool_8h.html" target="_top" xlink:title="ODP pool. ">
<polygon fill="#ffffff" stroke="#ff0000" points="2056,-224.5 2056,-243.5 2103,-243.5 2103,-224.5 2056,-224.5"/>
<text text-anchor="middle" x="2079.5" y="-231.5" font-family="Helvetica,sans-Serif" font-size="10.00" fill="#000000">pool.h</text>
</a>
</g>
</g>
<!-- Node60&#45;&gt;Node61 -->
<g id="edge51" class="edge">
<title>Node60&#45;&gt;Node61</title>
<path fill="none" stroke="#191970" d="M2032.0676,-273.645C2043.7198,-263.9058 2058.1084,-251.8795 2067.9632,-243.6427"/>
<polygon fill="#191970" stroke="#191970" points="2029.5988,-271.1469 2024.1705,-280.2455 2034.0879,-276.5179 2029.5988,-271.1469"/>
</g>
<!-- Node70&#45;&gt;Node35 -->
<g id="edge59" class="edge">
<title>Node70&#45;&gt;Node35</title>
<path fill="none" stroke="#191970" d="M1358.9625,-270.4538C1356.8561,-261.3803 1354.4464,-250.9998 1352.7385,-243.6427"/>
<polygon fill="#191970" stroke="#191970" points="1355.5649,-271.2961 1361.2356,-280.2455 1362.3835,-269.7131 1355.5649,-271.2961"/>
</g>
</g>
</svg>
