<?xml version="1.0" encoding="UTF-8" standalone="no"?>
<!DOCTYPE svg PUBLIC "-//W3C//DTD SVG 1.1//EN"
 "http://www.w3.org/Graphics/SVG/1.1/DTD/svg11.dtd">
<!-- Generated by graphviz version 2.40.1 (20161225.0304)
 -->
<!-- Title: support.h Pages: 1 -->
<svg width="377pt" height="756pt"
 viewBox="0.00 0.00 376.64 756.00" xmlns="http://www.w3.org/2000/svg" xmlns:xlink="http://www.w3.org/1999/xlink">
<g id="graph0" class="graph" transform="scale(1 1) rotate(0) translate(4 752)">
<title>support.h</title>
<polygon fill="#ffffff" stroke="transparent" points="-4,4 -4,-752 372.6379,-752 372.6379,4 -4,4"/>
<!-- Node4 -->
<g id="node1" class="node">
<title>Node4</title>
<polygon fill="#bfbfbf" stroke="#000000" points="86.6379,-728.5 86.6379,-747.5 148.6379,-747.5 148.6379,-728.5 86.6379,-728.5"/>
<text text-anchor="middle" x="117.6379" y="-735.5" font-family="Helvetica,sans-Serif" font-size="10.00" fill="#000000">support.h</text>
</g>
<!-- Node5 -->
<g id="node2" class="node">
<title>Node5</title>
<g id="a_node2"><a xlink:href="spec_2classification_8h.html" target="_top" xlink:title="ODP classification descriptor. ">
<polygon fill="#ffffff" stroke="#000000" points="29.1379,-168.5 29.1379,-187.5 118.1379,-187.5 118.1379,-168.5 29.1379,-168.5"/>
<text text-anchor="middle" x="73.6379" y="-175.5" font-family="Helvetica,sans-Serif" font-size="10.00" fill="#000000">classification.h</text>
</a>
</g>
</g>
<!-- Node4&#45;&gt;Node5 -->
<g id="edge1" class="edge">
<title>Node4&#45;&gt;Node5</title>
<path fill="none" stroke="#191970" d="M90.99,-722.9692C79.2374,-715.1204 66.1828,-704.5301 57.6379,-692 40.4401,-666.7812 38.6379,-656.5246 38.6379,-626 38.6379,-626 38.6379,-626 38.6379,-290 38.6379,-250.4788 58.7377,-206.5376 68.4736,-187.5717"/>
<polygon fill="#191970" stroke="#191970" points="89.3032,-726.0434 99.6272,-728.4236 93.0409,-720.1248 89.3032,-726.0434"/>
</g>
<!-- Node7 -->
<g id="node4" class="node">
<title>Node7</title>
<g id="a_node4"><a xlink:href="spec_2ipsec_8h.html" target="_top" xlink:title="ODP IPSEC API. ">
<polygon fill="#ffffff" stroke="#000000" points="152.1379,-56.5 152.1379,-75.5 203.1379,-75.5 203.1379,-56.5 152.1379,-56.5"/>
<text text-anchor="middle" x="177.6379" y="-63.5" font-family="Helvetica,sans-Serif" font-size="10.00" fill="#000000">ipsec.h</text>
</a>
</g>
</g>
<!-- Node4&#45;&gt;Node7 -->
<g id="edge10" class="edge">
<title>Node4&#45;&gt;Node7</title>
<path fill="none" stroke="#191970" d="M85.2168,-723.9147C50.5907,-706.4222 .6379,-673.0358 .6379,-626 .6379,-626 .6379,-626 .6379,-178 .6379,-147.4754 -1.9138,-133.6166 19.6379,-112 38.2459,-93.336 112.0995,-77.6814 151.9021,-70.3928"/>
<polygon fill="#191970" stroke="#191970" points="83.9972,-727.213 94.5225,-728.4252 87.0504,-720.9139 83.9972,-727.213"/>
</g>
<!-- Node9 -->
<g id="node6" class="node">
<title>Node9</title>
<g id="a_node6"><a xlink:href="spec_2comp_8h.html" target="_top" xlink:title="ODP Compression. ">
<polygon fill="#ffffff" stroke="#000000" points="225.1379,-672.5 225.1379,-691.5 278.1379,-691.5 278.1379,-672.5 225.1379,-672.5"/>
<text text-anchor="middle" x="251.6379" y="-679.5" font-family="Helvetica,sans-Serif" font-size="10.00" fill="#000000">comp.h</text>
</a>
</g>
</g>
<!-- Node4&#45;&gt;Node9 -->
<g id="edge5" class="edge">
<title>Node4&#45;&gt;Node9</title>
<path fill="none" stroke="#191970" d="M150.2208,-724.3833C174.5915,-714.1985 207.3021,-700.5284 228.9031,-691.5011"/>
<polygon fill="#191970" stroke="#191970" points="148.5504,-721.2879 140.6733,-728.3733 151.2496,-727.7466 148.5504,-721.2879"/>
</g>
<!-- Node11 -->
<g id="node8" class="node">
<title>Node11</title>
<g id="a_node8"><a xlink:href="spec_2crypto_8h.html" target="_top" xlink:title="ODP crypto. ">
<polygon fill="#ffffff" stroke="#000000" points="276.6379,-560.5 276.6379,-579.5 332.6379,-579.5 332.6379,-560.5 276.6379,-560.5"/>
<text text-anchor="middle" x="304.6379" y="-567.5" font-family="Helvetica,sans-Serif" font-size="10.00" fill="#000000">crypto.h</text>
</a>
</g>
</g>
<!-- Node4&#45;&gt;Node11 -->
<g id="edge7" class="edge">
<title>Node4&#45;&gt;Node11</title>
<path fill="none" stroke="#191970" d="M142.2773,-722.8276C154.0229,-714.7273 167.6527,-703.9658 177.6379,-692 201.9626,-662.8505 189.8937,-642.9468 216.6379,-616 233.3964,-599.1146 257.659,-587.0667 276.4654,-579.5476"/>
<polygon fill="#191970" stroke="#191970" points="140.1543,-720.0358 133.7542,-728.4791 144.0227,-725.8698 140.1543,-720.0358"/>
</g>
<!-- Node13 -->
<g id="node10" class="node">
<title>Node13</title>
<g id="a_node10"><a xlink:href="spec_2schedule__types_8h.html" target="_top" xlink:title="ODP schedule types. ">
<polygon fill="#ffffff" stroke="#000000" points="67.1379,-672.5 67.1379,-691.5 168.1379,-691.5 168.1379,-672.5 67.1379,-672.5"/>
<text text-anchor="middle" x="117.6379" y="-679.5" font-family="Helvetica,sans-Serif" font-size="10.00" fill="#000000">schedule_types.h</text>
</a>
</g>
</g>
<!-- Node4&#45;&gt;Node13 -->
<g id="edge11" class="edge">
<title>Node4&#45;&gt;Node13</title>
<path fill="none" stroke="#191970" d="M117.6379,-718.1575C117.6379,-709.155 117.6379,-698.9199 117.6379,-691.6427"/>
<polygon fill="#191970" stroke="#191970" points="114.138,-718.2455 117.6379,-728.2455 121.138,-718.2456 114.138,-718.2455"/>
</g>
<!-- Node6 -->
<g id="node3" class="node">
<title>Node6</title>
<g id="a_node3"><a xlink:href="classification_8h.html" target="_top" xlink:title="ODP classification descriptor. ">
<polygon fill="#ffffff" stroke="#000000" points="29.1379,-112.5 29.1379,-131.5 118.1379,-131.5 118.1379,-112.5 29.1379,-112.5"/>
<text text-anchor="middle" x="73.6379" y="-119.5" font-family="Helvetica,sans-Serif" font-size="10.00" fill="#000000">classification.h</text>
</a>
</g>
</g>
<!-- Node5&#45;&gt;Node6 -->
<g id="edge2" class="edge">
<title>Node5&#45;&gt;Node6</title>
<path fill="none" stroke="#191970" d="M73.6379,-158.1575C73.6379,-149.155 73.6379,-138.9199 73.6379,-131.6427"/>
<polygon fill="#191970" stroke="#191970" points="70.138,-158.2455 73.6379,-168.2455 77.138,-158.2456 70.138,-158.2455"/>
</g>
<!-- Node6&#45;&gt;Node7 -->
<g id="edge3" class="edge">
<title>Node6&#45;&gt;Node7</title>
<path fill="none" stroke="#191970" d="M100.6408,-107.46C119.2515,-97.4388 143.4678,-84.3993 159.7301,-75.6427"/>
<polygon fill="#191970" stroke="#191970" points="98.8987,-104.4228 91.7533,-112.2455 102.2174,-110.5861 98.8987,-104.4228"/>
</g>
<!-- Node8 -->
<g id="node5" class="node">
<title>Node8</title>
<g id="a_node5"><a xlink:href="ipsec_8h.html" target="_top" xlink:title="ODP IPSEC API &#45; platform specific header. ">
<polygon fill="#ffffff" stroke="#000000" points="152.1379,-.5 152.1379,-19.5 203.1379,-19.5 203.1379,-.5 152.1379,-.5"/>
<text text-anchor="middle" x="177.6379" y="-7.5" font-family="Helvetica,sans-Serif" font-size="10.00" fill="#000000">ipsec.h</text>
</a>
</g>
</g>
<!-- Node7&#45;&gt;Node8 -->
<g id="edge4" class="edge">
<title>Node7&#45;&gt;Node8</title>
<path fill="none" stroke="#191970" d="M177.6379,-46.1575C177.6379,-37.155 177.6379,-26.9199 177.6379,-19.6427"/>
<polygon fill="#191970" stroke="#191970" points="174.138,-46.2455 177.6379,-56.2455 181.138,-46.2456 174.138,-46.2455"/>
</g>
<!-- Node10 -->
<g id="node7" class="node">
<title>Node10</title>
<g id="a_node7"><a xlink:href="comp_8h.html" target="_top" xlink:title="ODP crypto. ">
<polygon fill="#ffffff" stroke="#000000" points="225.1379,-616.5 225.1379,-635.5 278.1379,-635.5 278.1379,-616.5 225.1379,-616.5"/>
<text text-anchor="middle" x="251.6379" y="-623.5" font-family="Helvetica,sans-Serif" font-size="10.00" fill="#000000">comp.h</text>
</a>
</g>
</g>
<!-- Node9&#45;&gt;Node10 -->
<g id="edge6" class="edge">
<title>Node9&#45;&gt;Node10</title>
<path fill="none" stroke="#191970" d="M251.6379,-662.1575C251.6379,-653.155 251.6379,-642.9199 251.6379,-635.6427"/>
<polygon fill="#191970" stroke="#191970" points="248.138,-662.2455 251.6379,-672.2455 255.138,-662.2456 248.138,-662.2455"/>
</g>
<!-- Node12 -->
<g id="node9" class="node">
<title>Node12</title>
<g id="a_node9"><a xlink:href="crypto_8h.html" target="_top" xlink:title="ODP crypto. ">
<polygon fill="#ffffff" stroke="#000000" points="312.6379,-392.5 312.6379,-411.5 368.6379,-411.5 368.6379,-392.5 312.6379,-392.5"/>
<text text-anchor="middle" x="340.6379" y="-399.5" font-family="Helvetica,sans-Serif" font-size="10.00" fill="#000000">crypto.h</text>
</a>
</g>
</g>
<!-- Node11&#45;&gt;Node12 -->
<g id="edge8" class="edge">
<title>Node11&#45;&gt;Node12</title>
<path fill="none" stroke="#191970" d="M316.8416,-551.67C321.6559,-543.5314 326.7237,-533.6294 329.6379,-524 341.8348,-483.6975 341.7449,-432.7569 341.0781,-411.7431"/>
<polygon fill="#191970" stroke="#191970" points="313.7846,-549.9575 311.4507,-560.2921 319.7199,-553.6686 313.7846,-549.9575"/>
</g>
<!-- Node12&#45;&gt;Node7 -->
<g id="edge9" class="edge">
<title>Node12&#45;&gt;Node7</title>
<path fill="none" stroke="#191970" d="M338.0856,-382.2338C335.4247,-359.8859 331.6379,-322.3925 331.6379,-290 331.6379,-290 331.6379,-290 331.6379,-178 331.6379,-115.3529 247.2541,-84.0828 203.4141,-72.0644"/>
<polygon fill="#191970" stroke="#191970" points="334.646,-382.9384 339.3484,-392.4324 341.593,-382.0781 334.646,-382.9384"/>
</g>
<!-- Node14 -->
<g id="node11" class="node">
<title>Node14</title>
<g id="a_node11"><a xlink:href="schedule__types_8h.html" target="_top" xlink:title="ODP schedule. ">
<polygon fill="#ffffff" stroke="#000000" points="67.1379,-616.5 67.1379,-635.5 168.1379,-635.5 168.1379,-616.5 67.1379,-616.5"/>
<text text-anchor="middle" x="117.6379" y="-623.5" font-family="Helvetica,sans-Serif" font-size="10.00" fill="#000000">schedule_types.h</text>
</a>
</g>
</g>
<!-- Node13&#45;&gt;Node14 -->
<g id="edge12" class="edge">
<title>Node13&#45;&gt;Node14</title>
<path fill="none" stroke="#191970" d="M117.6379,-662.1575C117.6379,-653.155 117.6379,-642.9199 117.6379,-635.6427"/>
<polygon fill="#191970" stroke="#191970" points="114.138,-662.2455 117.6379,-672.2455 121.138,-662.2456 114.138,-662.2455"/>
</g>
<!-- Node15 -->
<g id="node12" class="node">
<title>Node15</title>
<g id="a_node12"><a xlink:href="queue__types_8h.html" target="_top" xlink:title="ODP queue types. ">
<polygon fill="#ffffff" stroke="#000000" points="126.6379,-560.5 126.6379,-579.5 214.6379,-579.5 214.6379,-560.5 126.6379,-560.5"/>
<text text-anchor="middle" x="170.6379" y="-567.5" font-family="Helvetica,sans-Serif" font-size="10.00" fill="#000000">queue_types.h</text>
</a>
</g>
</g>
<!-- Node14&#45;&gt;Node15 -->
<g id="edge13" class="edge">
<title>Node14&#45;&gt;Node15</title>
<path fill="none" stroke="#191970" d="M133.9275,-608.7884C142.9942,-599.2085 153.9433,-587.6396 161.5118,-579.6427"/>
<polygon fill="#191970" stroke="#191970" points="131.2017,-606.5767 126.8698,-616.2455 136.2857,-611.3884 131.2017,-606.5767"/>
</g>
<!-- Node24 -->
<g id="node21" class="node">
<title>Node24</title>
<g id="a_node21"><a xlink:href="spec_2schedule_8h.html" target="_top" xlink:title="ODP schedule. ">
<polygon fill="#ffffff" stroke="#000000" points="67.1379,-392.5 67.1379,-411.5 136.1379,-411.5 136.1379,-392.5 67.1379,-392.5"/>
<text text-anchor="middle" x="101.6379" y="-399.5" font-family="Helvetica,sans-Serif" font-size="10.00" fill="#000000">schedule.h</text>
</a>
</g>
</g>
<!-- Node14&#45;&gt;Node24 -->
<g id="edge31" class="edge">
<title>Node14&#45;&gt;Node24</title>
<path fill="none" stroke="#191970" d="M116.2178,-606.1177C112.9002,-559.6713 104.7395,-445.4223 102.3229,-411.5891"/>
<polygon fill="#191970" stroke="#191970" points="112.7468,-606.6498 116.9504,-616.375 119.729,-606.151 112.7468,-606.6498"/>
</g>
<!-- Node16 -->
<g id="node13" class="node">
<title>Node16</title>
<g id="a_node13"><a xlink:href="spec_2queue_8h.html" target="_top" xlink:title="ODP queue. ">
<polygon fill="#ffffff" stroke="#000000" points="126.6379,-504.5 126.6379,-523.5 182.6379,-523.5 182.6379,-504.5 126.6379,-504.5"/>
<text text-anchor="middle" x="154.6379" y="-511.5" font-family="Helvetica,sans-Serif" font-size="10.00" fill="#000000">queue.h</text>
</a>
</g>
</g>
<!-- Node15&#45;&gt;Node16 -->
<g id="edge14" class="edge">
<title>Node15&#45;&gt;Node16</title>
<path fill="none" stroke="#191970" d="M165.0533,-550.4538C162.4609,-541.3803 159.495,-530.9998 157.393,-523.6427"/>
<polygon fill="#191970" stroke="#191970" points="161.7383,-551.5919 167.8509,-560.2455 168.469,-549.6688 161.7383,-551.5919"/>
</g>
<!-- Node26 -->
<g id="node23" class="node">
<title>Node26</title>
<g id="a_node23"><a xlink:href="queue__inline__types_8h_source.html" target="_top" xlink:title="queue_inline_types.h">
<polygon fill="#ffffff" stroke="#000000" points="200.6379,-504.5 200.6379,-523.5 320.6379,-523.5 320.6379,-504.5 200.6379,-504.5"/>
<text text-anchor="middle" x="260.6379" y="-511.5" font-family="Helvetica,sans-Serif" font-size="10.00" fill="#000000">queue_inline_types.h</text>
</a>
</g>
</g>
<!-- Node15&#45;&gt;Node26 -->
<g id="edge29" class="edge">
<title>Node15&#45;&gt;Node26</title>
<path fill="none" stroke="#191970" d="M195.1163,-554.769C211.0646,-544.8456 231.3889,-532.1994 245.1408,-523.6427"/>
<polygon fill="#191970" stroke="#191970" points="192.9562,-551.9908 186.3147,-560.2455 196.6544,-557.9342 192.9562,-551.9908"/>
</g>
<!-- Node17 -->
<g id="node14" class="node">
<title>Node17</title>
<g id="a_node14"><a xlink:href="queue_8h.html" target="_top" xlink:title="ODP queue. ">
<polygon fill="#ffffff" stroke="#000000" points="136.6379,-448.5 136.6379,-467.5 192.6379,-467.5 192.6379,-448.5 136.6379,-448.5"/>
<text text-anchor="middle" x="164.6379" y="-455.5" font-family="Helvetica,sans-Serif" font-size="10.00" fill="#000000">queue.h</text>
</a>
</g>
</g>
<!-- Node16&#45;&gt;Node17 -->
<g id="edge15" class="edge">
<title>Node16&#45;&gt;Node17</title>
<path fill="none" stroke="#191970" d="M158.1812,-494.1575C159.7888,-485.155 161.6165,-474.9199 162.916,-467.6427"/>
<polygon fill="#191970" stroke="#191970" points="154.6923,-493.786 156.3798,-504.2455 161.5833,-495.0166 154.6923,-493.786"/>
</g>
<!-- Node17&#45;&gt;Node12 -->
<g id="edge16" class="edge">
<title>Node17&#45;&gt;Node12</title>
<path fill="none" stroke="#191970" d="M202.672,-445.8982C235.6723,-435.3981 282.6934,-420.4369 312.4307,-410.975"/>
<polygon fill="#191970" stroke="#191970" points="201.3834,-442.6353 192.9154,-449.0026 203.5059,-449.3058 201.3834,-442.6353"/>
</g>
<!-- Node18 -->
<g id="node15" class="node">
<title>Node18</title>
<g id="a_node15"><a xlink:href="spec_2packet__io_8h.html" target="_top" xlink:title="ODP Packet IO. ">
<polygon fill="#ffffff" stroke="#000000" points="141.1379,-280.5 141.1379,-299.5 214.1379,-299.5 214.1379,-280.5 141.1379,-280.5"/>
<text text-anchor="middle" x="177.6379" y="-287.5" font-family="Helvetica,sans-Serif" font-size="10.00" fill="#000000">packet_io.h</text>
</a>
</g>
</g>
<!-- Node17&#45;&gt;Node18 -->
<g id="edge17" class="edge">
<title>Node17&#45;&gt;Node18</title>
<path fill="none" stroke="#191970" d="M166.1654,-438.2601C168.9583,-402.1669 174.793,-326.7656 176.8774,-299.8279"/>
<polygon fill="#191970" stroke="#191970" points="162.6561,-438.246 165.3741,-448.4862 169.6353,-438.7861 162.6561,-438.246"/>
</g>
<!-- Node22 -->
<g id="node19" class="node">
<title>Node22</title>
<g id="a_node19"><a xlink:href="spec_2packet__io__stats_8h.html" target="_top" xlink:title="ODP Packet IO statistics. ">
<polygon fill="#ffffff" stroke="#000000" points="192.6379,-392.5 192.6379,-411.5 294.6379,-411.5 294.6379,-392.5 192.6379,-392.5"/>
<text text-anchor="middle" x="243.6379" y="-399.5" font-family="Helvetica,sans-Serif" font-size="10.00" fill="#000000">packet_io_stats.h</text>
</a>
</g>
</g>
<!-- Node17&#45;&gt;Node22 -->
<g id="edge24" class="edge">
<title>Node17&#45;&gt;Node22</title>
<path fill="none" stroke="#191970" d="M186.9135,-442.2097C200.7884,-432.3743 218.1894,-420.0394 230.0349,-411.6427"/>
<polygon fill="#191970" stroke="#191970" points="184.5328,-439.6071 178.3987,-448.2455 188.581,-445.3178 184.5328,-439.6071"/>
</g>
<!-- Node17&#45;&gt;Node24 -->
<g id="edge27" class="edge">
<title>Node17&#45;&gt;Node24</title>
<path fill="none" stroke="#191970" d="M145.9187,-441.3607C135.0197,-431.6727 121.6624,-419.7995 112.4859,-411.6427"/>
<polygon fill="#191970" stroke="#191970" points="143.8648,-444.2178 153.6642,-448.2455 148.5153,-438.9859 143.8648,-444.2178"/>
</g>
<!-- Node19 -->
<g id="node16" class="node">
<title>Node19</title>
<g id="a_node16"><a xlink:href="packet__io_8h.html" target="_top" xlink:title="ODP Packet IO. ">
<polygon fill="#ffffff" stroke="#000000" points="141.1379,-224.5 141.1379,-243.5 214.1379,-243.5 214.1379,-224.5 141.1379,-224.5"/>
<text text-anchor="middle" x="177.6379" y="-231.5" font-family="Helvetica,sans-Serif" font-size="10.00" fill="#000000">packet_io.h</text>
</a>
</g>
</g>
<!-- Node18&#45;&gt;Node19 -->
<g id="edge18" class="edge">
<title>Node18&#45;&gt;Node19</title>
<path fill="none" stroke="#191970" d="M177.6379,-270.1575C177.6379,-261.155 177.6379,-250.9199 177.6379,-243.6427"/>
<polygon fill="#191970" stroke="#191970" points="174.138,-270.2455 177.6379,-280.2455 181.138,-270.2456 174.138,-270.2455"/>
</g>
<!-- Node19&#45;&gt;Node5 -->
<g id="edge19" class="edge">
<title>Node19&#45;&gt;Node5</title>
<path fill="none" stroke="#191970" d="M150.6351,-219.46C132.0243,-209.4388 107.8081,-196.3993 91.5457,-187.6427"/>
<polygon fill="#191970" stroke="#191970" points="149.0584,-222.5861 159.5225,-224.2455 152.3771,-216.4228 149.0584,-222.5861"/>
</g>
<!-- Node19&#45;&gt;Node7 -->
<g id="edge20" class="edge">
<title>Node19&#45;&gt;Node7</title>
<path fill="none" stroke="#191970" d="M202.609,-218.3964C212.678,-210.6245 223.1872,-200.2568 228.6379,-188 242.3633,-157.1366 242.3633,-142.8634 228.6379,-112 221.6609,-96.3113 206.3964,-83.7177 194.3753,-75.7012"/>
<polygon fill="#191970" stroke="#191970" points="200.4636,-215.6279 194.3753,-224.2988 204.5419,-221.3172 200.4636,-215.6279"/>
</g>
<!-- Node20 -->
<g id="node17" class="node">
<title>Node20</title>
<g id="a_node17"><a xlink:href="spec_2traffic__mngr_8h.html" target="_top" xlink:title="Copyright (c) 2015&#45;2018, Linaro Limited All rights reserved. ">
<polygon fill="#ffffff" stroke="#000000" points="135.6379,-168.5 135.6379,-187.5 219.6379,-187.5 219.6379,-168.5 135.6379,-168.5"/>
<text text-anchor="middle" x="177.6379" y="-175.5" font-family="Helvetica,sans-Serif" font-size="10.00" fill="#000000">traffic_mngr.h</text>
</a>
</g>
</g>
<!-- Node19&#45;&gt;Node20 -->
<g id="edge21" class="edge">
<title>Node19&#45;&gt;Node20</title>
<path fill="none" stroke="#191970" d="M177.6379,-214.1575C177.6379,-205.155 177.6379,-194.9199 177.6379,-187.6427"/>
<polygon fill="#191970" stroke="#191970" points="174.138,-214.2455 177.6379,-224.2455 181.138,-214.2456 174.138,-214.2455"/>
</g>
<!-- Node21 -->
<g id="node18" class="node">
<title>Node21</title>
<g id="a_node18"><a xlink:href="traffic__mngr_8h.html" target="_top" xlink:title="ODP Traffic manager. ">
<polygon fill="#ffffff" stroke="#000000" points="135.6379,-112.5 135.6379,-131.5 219.6379,-131.5 219.6379,-112.5 135.6379,-112.5"/>
<text text-anchor="middle" x="177.6379" y="-119.5" font-family="Helvetica,sans-Serif" font-size="10.00" fill="#000000">traffic_mngr.h</text>
</a>
</g>
</g>
<!-- Node20&#45;&gt;Node21 -->
<g id="edge22" class="edge">
<title>Node20&#45;&gt;Node21</title>
<path fill="none" stroke="#191970" d="M177.6379,-158.1575C177.6379,-149.155 177.6379,-138.9199 177.6379,-131.6427"/>
<polygon fill="#191970" stroke="#191970" points="174.138,-158.2455 177.6379,-168.2455 181.138,-158.2456 174.138,-158.2455"/>
</g>
<!-- Node21&#45;&gt;Node7 -->
<g id="edge23" class="edge">
<title>Node21&#45;&gt;Node7</title>
<path fill="none" stroke="#191970" d="M177.6379,-102.1575C177.6379,-93.155 177.6379,-82.9199 177.6379,-75.6427"/>
<polygon fill="#191970" stroke="#191970" points="174.138,-102.2455 177.6379,-112.2455 181.138,-102.2456 174.138,-102.2455"/>
</g>
<!-- Node23 -->
<g id="node20" class="node">
<title>Node23</title>
<g id="a_node20"><a xlink:href="packet__io__stats_8h.html" target="_top" xlink:title="ODP packet IO stats. ">
<polygon fill="#ffffff" stroke="#000000" points="192.6379,-336.5 192.6379,-355.5 294.6379,-355.5 294.6379,-336.5 192.6379,-336.5"/>
<text text-anchor="middle" x="243.6379" y="-343.5" font-family="Helvetica,sans-Serif" font-size="10.00" fill="#000000">packet_io_stats.h</text>
</a>
</g>
</g>
<!-- Node22&#45;&gt;Node23 -->
<g id="edge25" class="edge">
<title>Node22&#45;&gt;Node23</title>
<path fill="none" stroke="#191970" d="M243.6379,-382.1575C243.6379,-373.155 243.6379,-362.9199 243.6379,-355.6427"/>
<polygon fill="#191970" stroke="#191970" points="240.138,-382.2455 243.6379,-392.2455 247.138,-382.2456 240.138,-382.2455"/>
</g>
<!-- Node23&#45;&gt;Node18 -->
<g id="edge26" class="edge">
<title>Node23&#45;&gt;Node18</title>
<path fill="none" stroke="#191970" d="M224.3624,-329.645C212.8841,-319.9058 198.7102,-307.8795 189.0025,-299.6427"/>
<polygon fill="#191970" stroke="#191970" points="222.2521,-332.4445 232.1416,-336.2455 226.7809,-327.1069 222.2521,-332.4445"/>
</g>
<!-- Node25 -->
<g id="node22" class="node">
<title>Node25</title>
<g id="a_node22"><a xlink:href="schedule_8h.html" target="_top" xlink:title="ODP schedule. ">
<polygon fill="#ffffff" stroke="#000000" points="67.1379,-336.5 67.1379,-355.5 136.1379,-355.5 136.1379,-336.5 67.1379,-336.5"/>
<text text-anchor="middle" x="101.6379" y="-343.5" font-family="Helvetica,sans-Serif" font-size="10.00" fill="#000000">schedule.h</text>
</a>
</g>
</g>
<!-- Node24&#45;&gt;Node25 -->
<g id="edge28" class="edge">
<title>Node24&#45;&gt;Node25</title>
<path fill="none" stroke="#191970" d="M101.6379,-382.1575C101.6379,-373.155 101.6379,-362.9199 101.6379,-355.6427"/>
<polygon fill="#191970" stroke="#191970" points="98.138,-382.2455 101.6379,-392.2455 105.138,-382.2456 98.138,-382.2455"/>
</g>
<!-- Node27 -->
<g id="node24" class="node">
<title>Node27</title>
<g id="a_node24"><a xlink:href="queue__inlines_8h_source.html" target="_top" xlink:title="queue_inlines.h">
<polygon fill="#ffffff" stroke="#000000" points="214.1379,-448.5 214.1379,-467.5 307.1379,-467.5 307.1379,-448.5 214.1379,-448.5"/>
<text text-anchor="middle" x="260.6379" y="-455.5" font-family="Helvetica,sans-Serif" font-size="10.00" fill="#000000">queue_inlines.h</text>
</a>
</g>
</g>
<!-- Node26&#45;&gt;Node27 -->
<g id="edge30" class="edge">
<title>Node26&#45;&gt;Node27</title>
<path fill="none" stroke="#191970" d="M260.6379,-494.1575C260.6379,-485.155 260.6379,-474.9199 260.6379,-467.6427"/>
<polygon fill="#191970" stroke="#191970" points="257.138,-494.2455 260.6379,-504.2455 264.138,-494.2456 257.138,-494.2455"/>
</g>
</g>
</svg>
